<!DOCTYPE svg PUBLIC "-//W3C//DTD SVG 1.1//EN" "http://www.w3.org/Graphics/SVG/1.1/DTD/svg11.dtd">
<!-- Uploaded to: SVG Repo, www.svgrepo.com, Transformed by: SVG Repo Mixer Tools -->
<svg height="64px" width="64px" version="1.1" id="Layer_1" xmlns="http://www.w3.org/2000/svg" xmlns:xlink="http://www.w3.org/1999/xlink" viewBox="0 0 511.999 511.999" xml:space="preserve" fill="#000000" stroke="#000000" stroke-width="0.0051199900000000005">
<g id="SVGRepo_bgCarrier" stroke-width="0"/>
<g id="SVGRepo_tracerCarrier" stroke-linecap="round" stroke-linejoin="round"/>
<g id="SVGRepo_iconCarrier"> <path style="fill:#ffc800;" d="M241.905,8.591c-100.815,0-183.808,81.258-183.808,182.073c0,92.827,54.978,156.97,54.978,239.44 c0,12.183-7.623,39.141-13.036,56.751c-2.533,8.238,3.656,16.556,12.274,16.556h165.701c10.122,0,18.327-8.205,18.327-18.327v-27.49 c0-15.182,12.307-27.49,27.49-27.49h45.817c20.243,0,36.653-16.41,36.653-36.653v-66.702c0-3.945,2.525-7.446,6.267-8.694 l26.379-8.793c12.062-4.02,18.17-17.44,13.28-29.177l-31.122-74.692c-3.723-8.934-5.64-18.518-5.64-28.197v-12.829 c0-86.033-69.743-155.776-155.776-155.776L241.905,8.591z"/> <path style="fill:#ffc800;" d="M195.79,486.852c4.761-17.608,11.468-44.567,11.468-56.75c0-82.47-48.364-146.613-48.364-239.44 c0-89.379,57.424-163.254,132.244-178.893c-10.159-2.082-20.676-3.18-31.451-3.18h-17.783 c-100.815,0-183.808,81.258-183.808,182.073c0.001,92.827,54.978,156.97,54.978,239.44c0,12.183-7.623,39.141-13.036,56.75 c-2.531,8.238,3.656,16.557,12.274,16.557h94.276C199.006,503.409,193.562,495.09,195.79,486.852z"/> <circle style="fill:#ffc800;" cx="241.36" cy="201.02" r="128.286"/> <circle style="fill:#ffc800;" cx="241.36" cy="201.02" r="64.141"/> <path style="fill:#ffc800;" d="M190.177,83.419c-45.362,19.772-77.1,64.958-77.1,117.601c0,49.978,28.642,93.173,70.349,114.349 c-12.208-38.291-24.532-77.841-24.532-124.706C158.894,150.46,170.584,113.459,190.177,83.419z"/> <path d="M103.977,375.177c0.771,0,1.555-0.104,2.336-0.324c4.567-1.287,7.225-6.033,5.938-10.598 c-4.954-17.575-11.419-34.265-17.671-50.405c-13.713-35.397-27.892-72-27.892-121.992c0-96.317,78.359-174.676,174.676-174.676 h18.327c23.503,0,45.957,5.371,66.741,15.965c4.225,2.155,9.4,0.474,11.555-3.752s0.474-9.4-3.752-11.555 C311.008,6.002,285.928,0,259.689,0h-18.327C136.437,0,50.915,84.674,49.523,189.274c-0.011,0.181-0.017,0.363-0.017,0.548v2.037 c0,53.204,14.769,91.328,29.052,128.198c6.389,16.492,12.423,32.069,17.156,48.86C96.782,372.703,100.227,375.177,103.977,375.177z"/> <path d="M351.476,49.3c3.483,2.782,6.882,5.759,10.1,8.848c1.665,1.598,3.807,2.392,5.946,2.392c2.259,0,4.513-0.885,6.2-2.644 c3.285-3.424,3.172-8.862-0.252-12.146c-3.592-3.447-7.384-6.768-11.272-9.873c-3.707-2.96-9.113-2.357-12.074,1.35 C347.164,40.933,347.769,46.339,351.476,49.3z"/> <path d="M460.157,276.78l-31.123-74.694c-3.303-7.927-4.978-16.302-4.978-24.89v-12.829c0-32.936-9.709-64.717-28.076-91.905 c-2.656-3.931-7.995-4.964-11.927-2.31c-3.932,2.656-4.965,7.996-2.31,11.928c16.441,24.337,25.132,52.791,25.132,82.287v12.829 c0,10.868,2.12,21.466,6.3,31.499l31.122,74.694c1.436,3.448,1.376,7.22-0.171,10.619c-1.547,3.4-4.351,5.922-7.895,7.104 l-26.38,8.793c-7.261,2.42-12.14,9.189-12.14,16.843v66.701c0,15.473-12.589,28.063-28.063,28.063H323.83 c-19.895,0-36.081,16.186-36.081,36.081v27.49c0,5.369-4.367,9.736-9.736,9.736H112.314c-1.872,0-2.949-1.081-3.426-1.726 c-0.47-0.635-1.175-1.961-0.637-3.715c8.901-28.957,13.414-48.9,13.414-59.275c0-8.271-0.442-16.58-1.313-24.697 c-0.505-4.717-4.743-8.132-9.458-7.625c-4.718,0.506-8.131,4.741-7.625,9.458c0.806,7.51,1.215,15.203,1.215,22.864 c0,8.295-4.613,28.06-12.656,54.226c-2.012,6.546-0.832,13.461,3.24,18.973c4.083,5.528,10.369,8.698,17.245,8.698h165.701 c14.842,0,26.917-12.075,26.917-26.917v-27.49c0-10.421,8.478-18.899,18.899-18.899h45.817c24.947,0,45.244-20.297,45.244-45.244 v-66.702c0-0.246,0.157-0.465,0.392-0.543l26.38-8.793c8.006-2.669,14.604-8.604,18.1-16.285 C463.261,293.444,463.402,284.57,460.157,276.78z"/> <path d="M260.702,124.997l-54.98,164.94c-1.501,4.5,0.932,9.366,5.434,10.867c0.901,0.3,1.817,0.443,2.718,0.443 c3.597,0,6.948-2.277,8.148-5.876l54.98-164.94c1.5-4.5-0.932-9.366-5.434-10.867C267.069,118.064,262.202,120.496,260.702,124.997z "/> <path d="M183.294,149.129c-3.355-3.355-8.794-3.355-12.148,0l-54.98,54.98c-3.355,3.355-3.355,8.794,0,12.148l54.98,54.98 c1.677,1.677,3.876,2.516,6.074,2.516c2.198,0,4.397-0.838,6.074-2.516c3.355-3.355,3.355-8.794,0-12.148l-48.906-48.906 l48.906-48.906C186.648,157.924,186.648,152.483,183.294,149.129z"/> <path d="M299.43,271.237c1.677,1.677,3.876,2.516,6.074,2.516c2.198,0,4.397-0.838,6.074-2.516l54.98-54.98 c3.355-3.355,3.355-8.794,0-12.148l-54.98-54.98c-3.355-3.355-8.794-3.355-12.148,0c-3.355,3.355-3.355,8.794,0,12.148 l48.906,48.906l-48.906,48.906C296.076,262.443,296.076,267.884,299.43,271.237z"/> </g>
</svg>