<svg id="eqzh5oJvWeR1" xmlns="http://www.w3.org/2000/svg" xmlns:xlink="http://www.w3.org/1999/xlink" viewBox="0 0 600 600" shape-rendering="geometricPrecision" text-rendering="geometricPrecision">
<style><![CDATA[
#eqzh5oJvWeR3_tr {animation: eqzh5oJvWeR3_tr__tr 60000ms linear infinite normal forwards}@keyframes eqzh5oJvWeR3_tr__tr { 0% {transform: translate(300px,300px) rotate(0deg)} 100% {transform: translate(300px,300px) rotate(360deg)}} #eqzh5oJvWeR5_to {animation: eqzh5oJvWeR5_to__to 60000ms linear infinite normal forwards}@keyframes eqzh5oJvWeR5_to__to { 0% {transform: translate(300px,300px)} 6% {transform: translate(300px,300px);animation-timing-function: cubic-bezier(0.39,0.575,0.565,1)} 12.666667% {transform: translate(524px,300px)} 16% {transform: translate(524px,300px);animation-timing-function: cubic-bezier(0.39,0.575,0.565,1)} 22.666667% {transform: translate(300px,300px)} 83.333333% {transform: translate(300px,300px);animation-timing-function: cubic-bezier(0.39,0.575,0.565,1)} 90% {transform: translate(76px,300px)} 93.333333% {transform: translate(76px,300px);animation-timing-function: cubic-bezier(0.39,0.575,0.565,1)} 100% {transform: translate(300px,300px)}} #eqzh5oJvWeR6_to {animation: eqzh5oJvWeR6_to__to 60000ms linear infinite normal forwards}@keyframes eqzh5oJvWeR6_to__to { 0% {transform: translate(300px,300px)} 18.666667% {transform: translate(300px,300px);animation-timing-function: cubic-bezier(0.39,0.575,0.565,1)} 25.333333% {transform: translate(524px,300px)} 28.666667% {transform: translate(524px,300px);animation-timing-function: cubic-bezier(0.39,0.575,0.565,1)} 35.333333% {transform: translate(300px,300px)} 65.333333% {transform: translate(300px,300px);animation-timing-function: cubic-bezier(0.39,0.575,0.565,1)} 72% {transform: translate(76px,300px)} 75.333333% {transform: translate(76px,300px);animation-timing-function: cubic-bezier(0.39,0.575,0.565,1)} 81.933333% {transform: translate(300px,300px)} 100% {transform: translate(300px,300px)}} #eqzh5oJvWeR7_tr {animation: eqzh5oJvWeR7_tr__tr 60000ms linear infinite normal forwards}@keyframes eqzh5oJvWeR7_tr__tr { 0% {transform: translate(300px,300px) rotate(225deg)} 100% {transform: translate(300px,300px) rotate(585deg)}} #eqzh5oJvWeR9_to {animation: eqzh5oJvWeR9_to__to 60000ms linear infinite normal forwards}@keyframes eqzh5oJvWeR9_to__to { 0% {transform: translate(300px,300px)} 31.333333% {transform: translate(300px,300px);animation-timing-function: cubic-bezier(0.39,0.575,0.565,1)} 38% {transform: translate(524px,300px)} 46% {transform: translate(524px,300px);animation-timing-function: cubic-bezier(0.39,0.575,0.565,1)} 52.666667% {transform: translate(300px,300px)} 57% {transform: translate(300px,300px);animation-timing-function: cubic-bezier(0.39,0.575,0.565,1)} 63.666667% {transform: translate(76px,300px)} 67% {transform: translate(76px,300px);animation-timing-function: cubic-bezier(0.39,0.575,0.565,1)} 73.633333% {transform: translate(300px,300px)} 100% {transform: translate(300px,300px)}} #eqzh5oJvWeR10_to {animation: eqzh5oJvWeR10_to__to 60000ms linear infinite normal forwards}@keyframes eqzh5oJvWeR10_to__to { 0% {transform: translate(300px,300px)} 15% {transform: translate(300px,300px);animation-timing-function: cubic-bezier(0.39,0.575,0.565,1)} 21.666667% {transform: translate(524px,300px)} 33.333333% {transform: translate(524px,300px);animation-timing-function: cubic-bezier(0.39,0.575,0.565,1)} 40% {transform: translate(300px,300px)} 43.666667% {transform: translate(300px,300px);animation-timing-function: cubic-bezier(0.39,0.575,0.565,1)} 50.333333% {transform: translate(76px,300px)} 53.666667% {transform: translate(76px,300px);animation-timing-function: cubic-bezier(0.39,0.575,0.565,1)} 60.266667% {transform: translate(300px,300px)} 100% {transform: translate(300px,300px)}} #eqzh5oJvWeR11_tr {animation: eqzh5oJvWeR11_tr__tr 60000ms linear infinite normal forwards}@keyframes eqzh5oJvWeR11_tr__tr { 0% {transform: translate(300px,300px) rotate(90deg)} 100% {transform: translate(300px,300px) rotate(450deg)}} #eqzh5oJvWeR13_to {animation: eqzh5oJvWeR13_to__to 60000ms linear infinite normal forwards}@keyframes eqzh5oJvWeR13_to__to { 0% {transform: translate(300px,300px)} 8.333333% {transform: translate(300px,300px);animation-timing-function: cubic-bezier(0.39,0.575,0.565,1)} 15% {transform: translate(76px,300px)} 18.333333% {transform: translate(76px,300px);animation-timing-function: cubic-bezier(0.39,0.575,0.565,1)} 25% {transform: translate(300px,300px)} 69.666667% {transform: translate(300px,300px);animation-timing-function: cubic-bezier(0.39,0.575,0.565,1)} 76.333333% {transform: translate(524px,300px)} 93.333333% {transform: translate(524px,300px);animation-timing-function: cubic-bezier(0.39,0.575,0.565,1)} 100% {transform: translate(300px,300px)}} #eqzh5oJvWeR14_to {animation: eqzh5oJvWeR14_to__to 60000ms linear infinite normal forwards}@keyframes eqzh5oJvWeR14_to__to { 0% {transform: translate(300px,300px)} 48% {transform: translate(300px,300px);animation-timing-function: cubic-bezier(0.39,0.575,0.565,1)} 54.666667% {transform: translate(524px,300px)} 58% {transform: translate(524px,300px);animation-timing-function: cubic-bezier(0.39,0.575,0.565,1)} 64.666667% {transform: translate(300px,300px)} 71.333333% {transform: translate(300px,300px);animation-timing-function: cubic-bezier(0.39,0.575,0.565,1)} 78% {transform: translate(76px,300px)} 81.333333% {transform: translate(76px,300px);animation-timing-function: cubic-bezier(0.39,0.575,0.565,1)} 87.966667% {transform: translate(300px,300px)} 100% {transform: translate(300px,300px)}} #eqzh5oJvWeR15_tr {animation: eqzh5oJvWeR15_tr__tr 60000ms linear infinite normal forwards}@keyframes eqzh5oJvWeR15_tr__tr { 0% {transform: translate(300px,300px) rotate(315deg)} 100% {transform: translate(300px,300px) rotate(675deg)}} #eqzh5oJvWeR17_to {animation: eqzh5oJvWeR17_to__to 60000ms linear infinite normal forwards}@keyframes eqzh5oJvWeR17_to__to { 0% {transform: translate(300px,300px)} 18.333333% {transform: translate(300px,300px);animation-timing-function: cubic-bezier(0.39,0.575,0.565,1)} 25% {transform: translate(524px,300px)} 28.333333% {transform: translate(524px,300px);animation-timing-function: cubic-bezier(0.39,0.575,0.565,1)} 35% {transform: translate(300px,300px)} 59.333333% {transform: translate(300px,300px);animation-timing-function: cubic-bezier(0.39,0.575,0.565,1)} 66% {transform: translate(76px,300px)} 69.333333% {transform: translate(76px,300px);animation-timing-function: cubic-bezier(0.39,0.575,0.565,1)} 76% {transform: translate(300px,300px)} 100% {transform: translate(300px,300px)}} #eqzh5oJvWeR18_to {animation: eqzh5oJvWeR18_to__to 60000ms linear infinite normal forwards}@keyframes eqzh5oJvWeR18_to__to { 0% {transform: translate(300px,300px)} 4.333333% {transform: translate(300px,300px);animation-timing-function: cubic-bezier(0.39,0.575,0.565,1)} 11% {transform: translate(524px,300px)} 14.333333% {transform: translate(524px,300px);animation-timing-function: cubic-bezier(0.39,0.575,0.565,1)} 21% {transform: translate(300px,300px)} 51.666667% {transform: translate(300px,300px);animation-timing-function: cubic-bezier(0.39,0.575,0.565,1)} 58.333333% {transform: translate(76px,300px)} 88.333333% {transform: translate(76px,300px);animation-timing-function: cubic-bezier(0.39,0.575,0.565,1)} 95% {transform: translate(300px,300px)} 100% {transform: translate(300px,300px)}} #eqzh5oJvWeR19_tr {animation: eqzh5oJvWeR19_tr__tr 60000ms linear infinite normal forwards}@keyframes eqzh5oJvWeR19_tr__tr { 0% {transform: translate(300px,301px) rotate(0deg)} 100% {transform: translate(300px,301px) rotate(360deg)}} #eqzh5oJvWeR20_tr {animation: eqzh5oJvWeR20_tr__tr 60000ms linear infinite normal forwards}@keyframes eqzh5oJvWeR20_tr__tr { 0% {transform: translate(142px,143px) rotate(0deg)} 100% {transform: translate(142px,143px) rotate(-360deg)}} #eqzh5oJvWeR29_tr {animation: eqzh5oJvWeR29_tr__tr 60000ms linear infinite normal forwards}@keyframes eqzh5oJvWeR29_tr__tr { 0% {transform: translate(524px,301px) rotate(0deg)} 100% {transform: translate(524px,301px) rotate(-360deg)}} #eqzh5oJvWeR33_tr {animation: eqzh5oJvWeR33_tr__tr 60000ms linear infinite normal forwards}@keyframes eqzh5oJvWeR33_tr__tr { 0% {transform: translate(142px,459px) rotate(0deg)} 100% {transform: translate(142px,459px) rotate(-360deg)}} #eqzh5oJvWeR38_tr {animation: eqzh5oJvWeR38_tr__tr 60000ms linear infinite normal forwards}@keyframes eqzh5oJvWeR38_tr__tr { 0% {transform: translate(300px,77px) rotate(0deg)} 100% {transform: translate(300px,77px) rotate(-360deg)}} #eqzh5oJvWeR41_tr {animation: eqzh5oJvWeR41_tr__tr 60000ms linear infinite normal forwards}@keyframes eqzh5oJvWeR41_tr__tr { 0% {transform: translate(458px,459px) rotate(0deg)} 100% {transform: translate(458px,459px) rotate(-360deg)}} #eqzh5oJvWeR59_tr {animation: eqzh5oJvWeR59_tr__tr 60000ms linear infinite normal forwards}@keyframes eqzh5oJvWeR59_tr__tr { 0% {transform: translate(300px,525px) rotate(0deg)} 100% {transform: translate(300px,525px) rotate(-360deg)}} #eqzh5oJvWeR68_tr {animation: eqzh5oJvWeR68_tr__tr 60000ms linear infinite normal forwards}@keyframes eqzh5oJvWeR68_tr__tr { 0% {transform: translate(458px,143px) rotate(0deg)} 100% {transform: translate(458px,143px) rotate(-360deg)}} #eqzh5oJvWeR74_tr {animation: eqzh5oJvWeR74_tr__tr 60000ms linear infinite normal forwards}@keyframes eqzh5oJvWeR74_tr__tr { 0% {transform: translate(76px,301px) rotate(0deg)} 100% {transform: translate(76px,301px) rotate(-360deg)}}
]]></style>
<defs><filter id="eqzh5oJvWeR19-filter" x="-150%" width="400%" y="-150%" height="400%"><feGaussianBlur id="eqzh5oJvWeR19-filter-drop-shadow-0-blur" in="SourceAlpha" stdDeviation="12,12"/><feOffset id="eqzh5oJvWeR19-filter-drop-shadow-0-offset" dx="0" dy="4" result="tmp"/><feFlood id="eqzh5oJvWeR19-filter-drop-shadow-0-flood" flood-color="rgba(0,0,0,0.1)"/><feComposite id="eqzh5oJvWeR19-filter-drop-shadow-0-composite" operator="in" in2="tmp"/><feMerge id="eqzh5oJvWeR19-filter-drop-shadow-0-merge"><feMergeNode id="eqzh5oJvWeR19-filter-drop-shadow-0-merge-node-1"/><feMergeNode id="eqzh5oJvWeR19-filter-drop-shadow-0-merge-node-2" in="SourceGraphic"/></feMerge></filter><linearGradient id="eqzh5oJvWeR71-fill" x1="438.33" y1="124.49" x2="435.787" y2="153.547" spreadMethod="pad" gradientUnits="userSpaceOnUse" gradientTransform="translate(0 0)"><stop id="eqzh5oJvWeR71-fill-0" offset="0%" stop-color="#0c64dd"/><stop id="eqzh5oJvWeR71-fill-1" offset="100%" stop-color="#1080f8"/></linearGradient><linearGradient id="eqzh5oJvWeR72-fill" x1="458.723" y1="127.463" x2="487.247" y2="164.836" spreadMethod="pad" gradientUnits="userSpaceOnUse" gradientTransform="translate(0 0)"><stop id="eqzh5oJvWeR72-fill-0" offset="0%" stop-color="#0c64dd"/><stop id="eqzh5oJvWeR72-fill-1" offset="100%" stop-color="#1076ee"/></linearGradient><linearGradient id="eqzh5oJvWeR73-fill" x1="487.239" y1="164.845" x2="494.26" y2="155.051" spreadMethod="pad" gradientUnits="userSpaceOnUse" gradientTransform="translate(0 0)"><stop id="eqzh5oJvWeR73-fill-0" offset="0%" stop-color="#1077ef"/><stop id="eqzh5oJvWeR73-fill-1" offset="100%" stop-color="rgba(16,128,248,0)"/></linearGradient><filter id="eqzh5oJvWeR78-filter" x="-150%" width="400%" y="-150%" height="400%"><feGaussianBlur id="eqzh5oJvWeR78-filter-drop-shadow-0-blur" in="SourceAlpha" stdDeviation="12,12"/><feOffset id="eqzh5oJvWeR78-filter-drop-shadow-0-offset" dx="0" dy="4" result="tmp"/><feFlood id="eqzh5oJvWeR78-filter-drop-shadow-0-flood" flood-color="rgba(0,0,0,0.1)"/><feComposite id="eqzh5oJvWeR78-filter-drop-shadow-0-composite" operator="in" in2="tmp"/><feMerge id="eqzh5oJvWeR78-filter-drop-shadow-0-merge"><feMergeNode id="eqzh5oJvWeR78-filter-drop-shadow-0-merge-node-1"/><feMergeNode id="eqzh5oJvWeR78-filter-drop-shadow-0-merge-node-2" in="SourceGraphic"/></feMerge></filter></defs><g><g id="eqzh5oJvWeR3_tr" transform="translate(300,300) rotate(0)"><g transform="translate(-300,-300)"><rect width="448" height="8" rx="0" ry="0" transform="translate(76 296)" opacity="0.5" fill="#dee4f3"/><g id="eqzh5oJvWeR5_to" transform="translate(300,300)"><ellipse rx="8" ry="8" transform="translate(0,0)" fill="#4040d9" stroke="#4040d9" stroke-width="12" stroke-opacity="0.2"/></g><g id="eqzh5oJvWeR6_to" transform="translate(300,300)"><ellipse rx="8" ry="8" transform="translate(0,0)" fill="#4040d9" stroke="#4040d9" stroke-width="12" stroke-opacity="0.2"/></g></g></g><g id="eqzh5oJvWeR7_tr" transform="translate(300,300) rotate(225)"><g transform="translate(-300,-300)"><rect width="448" height="8" rx="0" ry="0" transform="translate(76 296)" opacity="0.5" fill="#dee4f3"/><g id="eqzh5oJvWeR9_to" transform="translate(300,300)"><ellipse rx="8" ry="8" transform="translate(0,0)" fill="#4040d9" stroke="#4040d9" stroke-width="12" stroke-opacity="0.2"/></g><g id="eqzh5oJvWeR10_to" transform="translate(300,300)"><ellipse rx="8" ry="8" transform="translate(0,0)" fill="#4040d9" stroke="#4040d9" stroke-width="12" stroke-opacity="0.2"/></g></g></g><g id="eqzh5oJvWeR11_tr" transform="translate(300,300) rotate(90)"><g transform="translate(-300,-300)"><rect width="448" height="8" rx="0" ry="0" transform="translate(76 296)" opacity="0.5" fill="#dee4f3"/><g id="eqzh5oJvWeR13_to" transform="translate(300,300)"><ellipse rx="8" ry="8" transform="translate(0,0)" fill="#4040d9" stroke="#4040d9" stroke-width="12" stroke-opacity="0.2"/></g><g id="eqzh5oJvWeR14_to" transform="translate(300,300)"><ellipse rx="8" ry="8" transform="translate(0,0)" fill="#4040d9" stroke="#4040d9" stroke-width="12" stroke-opacity="0.2"/></g></g></g><g id="eqzh5oJvWeR15_tr" transform="translate(300,300) rotate(315)"><g transform="translate(-300,-300)"><rect width="448" height="8" rx="0" ry="0" transform="translate(76 296)" opacity="0.5" fill="#dee4f3"/><g id="eqzh5oJvWeR17_to" transform="translate(300,300)"><ellipse rx="8" ry="8" transform="translate(0,0)" fill="#4040d9" stroke="#4040d9" stroke-width="12" stroke-opacity="0.2"/></g><g id="eqzh5oJvWeR18_to" transform="translate(300,300)"><ellipse rx="8" ry="8" transform="translate(0,0)" fill="#4040d9" stroke="#4040d9" stroke-width="12" stroke-opacity="0.2"/></g></g></g><g id="eqzh5oJvWeR19_tr" transform="translate(300,301) rotate(0)"><g transform="translate(-300,-301)" filter="url(#eqzh5oJvWeR19-filter)"><g id="eqzh5oJvWeR20_tr" transform="translate(142,143) rotate(0)"><g transform="translate(-142,-143)"><rect width="128" height="128" rx="64" ry="64" transform="translate(78 79)" fill="#ef6351"/><path d="M150.791,134.294c.523.003,1.026-.198,1.401-.559.375-.36.592-.853.604-1.37-.005-.525-.218-1.027-.593-1.398s-.882-.582-1.412-.588c-.523.012-1.02.227-1.384.599-.364.371-.567.869-.565,1.387.005.51.211.999.576,1.359.364.361.857.566,1.373.57Z" fill="#fff"/><path d="M164.419,136.15h4.837v.38c-.268.047-.527.135-.767.262-.442.205-1.327,1.198-2.006,2.862-1.149,2.891-2.358,6.307-3.626,10.221l-.472,1.484c-.207.671-.384,1.109-.472,1.373s-.207.671-.412,1.166c-.117.373-.268.735-.45,1.081-.237.438-.679,1.336-1.033,1.606-.56.467-1.386.993-2.417.905-2.006,0-3.51-1.484-3.539-3.24c0-1.198.767-1.986,1.917-1.986.826,0,1.562.445,1.562,1.372c0,.672-.678,1.373-.678,1.723c0,.905.531,1.336,1.563,1.336.825,0,1.499-.526,2.005-1.577.679-1.197.737-2.511.176-3.971l-4.245-11.125c-.974-2.569-1.711-3.414-2.624-3.504v-.38h6.693v.38c-.796.087-1.209.555-1.209,1.401c0,.613.236,1.548.678,2.746l.796,2.159c.914,2.337,1.649,4.38,2.035,5.666.855-2.657,1.649-4.993,2.418-7.037.561-1.518.826-2.599.826-3.242c0-1.138-.619-1.664-1.563-1.664l.007-.397Z" fill="#fff"/><path d="M117.856,150.37c-.854-.148-1.592-.905-1.592-2.511v-19.359l-4.865,1.051v.409c.825-.087,1.648.642,1.648,2.19v15.709c0,1.518-.826,2.394-1.648,2.511-.078.014-.156.023-.234.028-.422.029-.844-.045-1.229-.215-.654-.282-1.2-.785-1.661-1.536l-2.249-3.562c-.472-.75-1.177-1.329-2.009-1.65s-1.747-.367-2.607-.131l2.536-2.774c1.915-2.102,3.686-3.445,5.366-4v-.38h-5.579v.38c1.445.555,1.357,1.781-.3,3.71l-3.5672,4.116v-15.856l-4.8656,1.051v.409c.8259,0,1.6488.817,1.6488,2.248v15.651c0,1.723-.7959,2.394-1.6488,2.511v.38h6.4638v-.38c-1.062-.148-1.5922-.963-1.5922-2.511v-2.89l1.3852-1.518l3.354,5.459c.796,1.315,1.534,1.84,2.713,1.84h11.228v-.297c0,0-.321-.022-.696-.083Z" fill="#fff"/><path d="M131.251,148.524v-6.531c-.065-4.27-1.873-6.214-6.013-6.214-1.323-.01-2.611.422-3.655,1.226-1.092.817-1.622,1.752-1.622,2.833c0,1.051.589,1.839,1.562,1.839c1.032,0,1.77-.583,1.77-1.401c0-.613-.414-1.461-.414-2.044c0-1.052.798-1.958,2.183-1.958c1.77,0,3.036,1.315,3.036,4.235v1.751l-1.473.351c-.767.148-1.415.296-1.917.445-.502.148-1.15.35-1.917.641-1.534.585-2.358,1.14-3.067,2.191-.347.509-.532,1.109-.531,1.723c0,2.422,1.71,3.533,4.1,3.533c1.887,0,3.897-.993,4.805-2.862.014.589.156,1.169.419,1.698.999,2.004,4.311.819,4.311.819v-.38c-1.45.224-1.57-1.483-1.577-1.895Zm-3.148-2.022c0,.964-.354,1.752-1.061,2.307-.678.555-1.385.847-2.123.847-1.445,0-2.389-.935-2.389-2.658c0-.816.45-1.576.826-2.014.298-.302.647-.549,1.032-.73.501-.263.75-.398,1.092-.555l1.349-.496c.677-.263,1.09-.408,1.266-.496l.008,3.795Z" fill="#fff"/><path d="M193.25,136.15h-11.468v-7.65h11.468l-2.407,3.825l2.407,3.825Z" fill="#fff"/><path d="M169.939,148.892c-1.427-1.456-2.214-3.412-2.187-5.44-.016-1,.169-1.994.545-2.923.375-.929.933-1.775,1.642-2.488c1.446-1.52,3.218-2.282,5.286-2.282c2.037,0,3.811.762,5.257,2.282.718.708,1.284,1.552,1.665,2.482s.568,1.926.551,2.929c.014,1.007-.174,2.007-.554,2.941-.381.934-.946,1.784-1.662,2.499-1.446,1.484-3.22,2.252-5.257,2.252-2.068,0-3.84-.76-5.286-2.252Zm7.944-10.608c-.583-1.13-1.349-1.792-2.248-1.97-1.825-.363-3.438,1.494-4.039,4.446-.256,1.324-.318,2.678-.184,4.021.132,1.342.509,2.649,1.112,3.859.585,1.131,1.349,1.791,2.249,1.969c1.824.364,3.483-1.572,4.089-4.554.502-2.492.247-5.527-.987-7.773l.008.002Z" fill="#fff"/><path d="M152.501,147.859v-11.709h-10.38v.351c1.387.205,2.046,1.241,1.417,2.921-3.244,8.731-3.037,8.339-3.244,9.039-.207-.672-.679-2.324-1.445-4.396s-1.268-3.446-1.475-4.059c-.796-2.424-.531-3.329.767-3.475v-.38h-6.724v.38c1.003.205,1.887,1.343,2.625,3.387l1.033,2.657c1.134,2.87,2.467,6.827,2.912,8.177h2.235c.719-2.078,3.606-10.371,3.993-11.214.417-.96.889-1.687,1.417-2.191.254-.27.564-.484.909-.627s.717-.211,1.09-.201c0,0,1.621,0,1.621,1.548v1.314c0,.013,0,.027,0,.04v8.438c0,1.633-.796,2.394-1.622,2.511v.38h6.429v-.38c-.85-.117-1.558-.876-1.558-2.511Z" fill="#fff"/></g></g><g id="eqzh5oJvWeR29_tr" transform="translate(524,301) rotate(0)"><g transform="translate(-524,-301)"><rect width="128" height="128" rx="64" ry="64" transform="translate(460 237)" fill="#fff"/><path d="M559.98,330.49c0,5.355-4.35,9.875-9.707,9.875-.335,0-.835,0-1.17,0-5.023-.67-8.705-5.188-8.538-10.21v-58.245c-.167-5.021,3.515-9.373,8.538-10.209c5.355-.67,10.21,3.18,10.877,8.535c0,.335,0,.837,0,1.172v59.082Z" fill="#f9ab00"/><path d="M498.555,320.95c5.357,0,9.707,4.352,9.707,9.708c0,5.355-4.35,9.707-9.707,9.707-5.355,0-9.708-4.352-9.708-9.707-.167-5.356,4.353-9.708,9.708-9.708Zm25.607-29.625c-5.355.335-9.54,4.854-9.54,10.21v26.278c0,7.03,3.18,11.38,7.7,12.385c5.355,1.005,10.378-2.343,11.548-7.7.167-.668.167-1.338.167-2.008v-29.29c0-5.356-4.35-9.875-9.707-9.875h-.168Z" fill="#e37400"/></g></g><g id="eqzh5oJvWeR33_tr" transform="translate(142,459) rotate(0)"><g transform="translate(-142,-459)"><rect width="128" height="128" rx="64" ry="64" transform="translate(78 395)" fill="#212326"/><path d="M170.594,431.333c-.031-.195-.127-.375-.272-.508-.146-.135-.332-.215-.528-.23-.331-.025-6.815-.125-6.815-.125s-5.419-5.205-5.952-5.73c-.537-.532-1.582-.37-1.99-.252l-2.723.837c-.337-1.095-.774-2.155-1.305-3.167-1.928-3.643-4.757-5.568-8.17-5.573h-.013c-.238,0-.473.023-.71.045-.101-.12-.203-.24-.309-.355-1.488-1.575-3.394-2.34-5.68-2.272-4.413.13-8.807,3.275-12.365,8.87-2.507,3.932-4.413,8.877-4.956,12.705l-8.685,2.657c-2.556.795-2.636.873-2.97,3.253-.248,1.8-6.937,52.935-6.937,52.935L156.271,504l24.3-5.97c0,0-9.916-66.245-9.977-66.697Zm-21.086-5.15l-4.352,1.33c-.032-2.208-.295-5.278-1.337-7.933c3.346.628,4.995,4.373,5.689,6.603Zm-7.283,2.227l-9.36,2.868c.903-3.428,2.619-6.835,4.725-9.068.784-.832,1.88-1.76,3.182-2.29c1.218,2.518,1.482,6.083,1.453,8.49Zm-6.011-11.507c1.035-.02,1.909.205,2.652.69-1.189.612-2.343,1.49-3.423,2.637-2.803,2.97-4.95,7.585-5.805,12.03l-7.689,2.353c1.517-7.003,7.457-17.51,14.265-17.71Z" fill="#95bf47"/><path d="M169.797,430.598c-.331-.028-6.814-.125-6.814-.125s-5.42-5.203-5.956-5.73c-.208-.193-.472-.313-.752-.345v79.602l24.296-5.97c0,0-9.913-66.245-9.977-66.695-.031-.195-.127-.372-.272-.505-.144-.135-.329-.215-.525-.232Z" fill="#5e8e3e"/><path d="M142.807,442.945l-2.819,10.438c0,0-3.15-1.415-6.879-1.188-5.474.345-5.532,3.755-5.477,4.61.299,4.668,12.719,5.69,13.416,16.618.547,8.597-4.615,14.482-12.053,14.947-8.929.555-13.847-4.65-13.847-4.65l1.893-7.955c0,0,4.95,3.69,8.91,3.443c2.587-.16,3.51-2.243,3.417-3.713-.386-6.087-10.505-5.727-11.141-15.73-.54-8.417,5.053-16.945,17.392-17.717c4.758-.303,7.188.9,7.188.9v-.003Z" fill="#fff"/></g></g><g id="eqzh5oJvWeR38_tr" transform="translate(300,77) rotate(0)"><g transform="translate(-300,-77)"><rect width="128" height="128" rx="64" ry="64" transform="translate(236 13)" fill="#fff9f4"/><path d="M329.013,115h4.507c1.045,0,1.925-.896,1.98-1.959v-49.9939c0-4.9265-3.902-8.9015-8.742-8.9015h-5.772c-1.044,0-1.924-.8957-1.924-1.9595v-4.5345c0-4.9267-3.903-8.9015-8.741-8.9015h-37.33c-4.838,0-8.741,3.9748-8.741,8.9015v50.2175c0,4.8709,3.903,8.8459,8.741,8.9009h43.267c.385,0,.77.112,1.1.336l10.555,7.558c.33.224.715.336,1.1.336ZM318.512,99.6606h-45.411c-1.099,0-1.924-.84-1.924-1.9595v-49.9375c0-1.0637.88-1.9595,1.924-1.9595h37.11c1.044,0,1.924.8958,1.924,1.9595v4.4225c0,1.0638-.88,1.9595-1.924,1.9595h-27.654c-1.044,0-1.924.8958-1.924,1.9595v33.3105c0,1.0635.88,1.9593,1.924,1.9593h34.526c1.044,0,1.924-.8958,1.924-1.9593v-26.2565c0-1.0637.88-1.9595,1.924-1.9595h5.662c1.045,0,1.925.8958,1.925,1.9595v40.8679c0,1.008-1.1,1.568-1.868,1.008l-7.038-5.0386c-.33-.2238-.715-.3358-1.1-.3358Zm-7.367-15.3957h-22.65c-.495,0-.935-.3918-.935-.9518v-21.1617c0-.5038.385-.9518.935-.9518h22.65c.495,0,.935.392.935.9518v21.1617c0,.504-.385.9518-.935.9518Z" clip-rule="evenodd" fill="#ff9090" fill-rule="evenodd"/></g></g><g id="eqzh5oJvWeR41_tr" transform="translate(458,459) rotate(0)"><g transform="translate(-458,-459)"><rect width="128" height="128" rx="64" ry="64" transform="translate(394 395)" fill="#ffd250"/><path d="M495.022,495.405c-.285.285-.64.425-1.065.425-.427,0-.782-.14-1.065-.425-.285-.285-.427-.64-.427-1.065c0-.427.142-.817.462-1.102.283-.283.64-.39,1.03-.39.425,0,.78.142,1.065.427.285.283.428.638.428,1.065.035.425-.108.78-.428,1.065Zm-1.917-1.952c-.25.247-.355.532-.355.852c0,.355.105.638.355.888.247.247.532.355.887.355s.64-.108.888-.355c.25-.25.355-.533.355-.888c0-.32-.105-.64-.355-.852-.248-.25-.533-.393-.888-.393-.355.038-.64.143-.887.393Zm1.35,1.632c-.143.108-.285.143-.428.143-.212,0-.425-.07-.602-.25-.178-.178-.25-.39-.25-.638c0-.25.072-.462.215-.64.14-.177.355-.247.602-.247.143,0,.285.035.428.105.177.107.317.285.355.57h-.393c-.035-.108-.07-.215-.142-.25-.07-.035-.14-.07-.213-.07-.105,0-.212.035-.282.14-.073.107-.108.25-.108.427c0,.178.035.32.108.39.07.073.177.143.282.143.108,0,.178-.035.25-.07l.105-.215h.355c-.035.215-.14.355-.282.462Zm3.765-15.769c0-.142-.038-.284-.038-.426c0-.107-.035-.178-.035-.249-.035-.213-.07-.391-.142-.604-.14-.39-.355-.781-.638-1.101-.285-.319-.605-.568-.925-.746-.355-.177-.71-.284-.992-.355-.108,0-.18-.035-.25-.035.39-1.705-.108-3.019-.425-3.623l.07-.071c.425-.426.782-.817,1.1-1.208l.072-.071c.248-.355.39-.71.498-1.03.07-.284.142-.532.142-.781v-.213-.142-.32c-.037-.533-.107-1.207-.462-1.953-.178-.356-.428-.746-.745-1.101-.32-.356-.713-.675-1.173-.924-.037-.035-.072-.035-.107-.071-.96-1.385-2.025-2.486-2.983-3.303-.497-.426-.96-.781-1.35-1.065-.39-.285-.71-.498-.887-.64-.428-.319-.748-.497-.888-.568-.357-.213-.605-.391-.747-.497-.105-.107-.178-.142-.213-.178c0,0,0-.035-.035-.106-.035-.107-.035-.249-.035-.498c0-.355,0-.888.035-1.598.07-1.136.178-2.664.32-4.759.035-.675.035-1.314.035-1.883-.035-.959-.177-1.811-.355-2.592-.035-.178-.107-.355-.142-.533-.035-.142-.073-.213-.108-.284-.035-.107-.07-.213-.142-.355-.035-.071-.035-.142-.105-.213-.073-.178-.143-.356-.25-.533l-.035-.036-.035-.106-.035-.071c-.178-.32-.393-.604-.605-.853-.105-.497-.283-1.207-.603-2.024-.285-.711-.64-1.492-1.172-2.273-.178-.284-.391-.533-.604-.782l.071-.071c.106-.106,2.593-2.734,4.58-6.144c3.66-6.358,2.453-10.229.783-12.36l-.035-.071-.035-.071c-1.6-1.776-3.803-2.841-6.465-3.197-5.576-.71-11.898,2.06-13.568,2.842l-3.054-3.339c-.284-.284-.568-.568-.888-.781s-.675-.426-1.03-.604c-.71-.32-1.492-.533-2.344-.639-1.669-.213-3.587,0-5.647.532-3.09.782-6.535,2.345-10.158,4.511-3.623,2.167-7.388,4.972-11.046,8.311-4.475,4.049-8.169,8.347-10.868,12.467-1.35,2.024-2.451,4.013-3.267,5.931-.817,1.882-1.35,3.694-1.563,5.327-.142,1.208-.142,2.345.106,3.375.107.461.249.887.462,1.314.249.532.568,1.03.959,1.456l3.161,3.303.355.355-.035.036-.107.213c-.071.106-.106.213-.177.284l-.107.213c-.036.106-.107.213-.142.32l-.107.213c-.035.106-.106.213-.142.319-.035.071-.071.142-.071.213l-.106.32c-.036.071-.036.142-.071.213-.036.107-.071.213-.107.355c0,.036-.035.071-.035.107c0,.035-.036.071-.036.106-.035.107-.071.249-.106.356c0,.071-.036.142-.036.213c0,.035-.035.106-.035.142c0,.071-.036.142-.036.213s-.036.142-.036.213c-.035.142-.035.284-.071.462c0,.035,0,.071-.035.142v.035c0,.107-.036.213-.036.284c0,.143-.035.32-.035.462v1.776c0,.071,0,.142.035.213c0,.071,0,.178.036.284v.107c0,.071.035.177.035.248s.036.143.036.249c0,.036,0,.071.035.107c0,.035.036.106.036.142v.071c0,.071.036.142.071.284c0,.035,0,.035.036.071.035.071.035.142.035.177l.036.072c0,.035,0,.035.035.071l.036.071v.106c0,.036,0,.036.035.071l.036.071c0,.071.035.107.035.178.036.071.036.142.071.284v-.036.036c0,.035,0,.035.036.071.035.106.071.178.071.213.035.071.071.142.106.284l.036.036c.035.071.035.142.071.177l.035.071c0,.036.036.071.036.107c0,.035.035.106.071.142l.035.071c.036.035.036.107.071.142.036.036.036.071.036.107.036.071.071.142.107.248l.035.036c.036.035.036.071.071.106.036.036.036.107.071.142.036.036.071.107.107.213l.035.036c.036.035.036.071.071.107.036.071.071.106.071.142.036.035.071.106.107.177v.036c.035.035.035.071.071.106.035.071.071.107.106.142.036.036.071.107.142.213.036.036.072.071.072.107.035.071.071.107.106.142.036.036.071.107.107.178.035.035.071.106.106.142.036.071.071.106.142.142l.107.106.035.036c.071.071.107.142.178.213l.071.071.106.106.214.214.071.071.106.106.036.036c.071.071.177.142.248.248l.036.036c.035.035.071.035.106.106.107.107.213.178.32.285l.071.035.036.036.071.035c.106.071.177.142.284.213l.035.036c.036.035.071.035.071.035l.071.071c.071.071.142.107.213.178l.071.035.071.071.036.036c.071.035.178.106.249.142.035.035.071.071.142.071l.071.036.035.035h.036c.142.071.248.142.355.213l.071.036.426.213h.036l.071.035.213.107c.035,0,.071.035.106.035.036.036.071.036.142.071h.036c.071.036.142.071.213.071h.036c.071.036.142.071.248.107h.036l.071.035c.035,0,.071.036.106.036h.036c.106.036.213.071.355.107h.035c.178.071.356.106.533.142h.036c.142.035.319.071.461.106h.143c.142.036.284.071.426.071h.142c.106,0,.177.036.284.036c0,.035.035.071.035.106.249.675.498,1.35.782,1.989c4.191,11.613,15.805,20.636,29.053,22.306c13.247,1.632,27.417-7.175,33.172-19.074.248-.461.463-.888.675-1.349.568-.604,1.03-1.208,1.315-1.847.46-.391.568-1.172.533-1.847Zm-73.556-4.617h.035-.035Z" fill="#664f44"/><path d="M486.89,421.21c-.64-.711-1.385-1.243-2.202-1.634-.143-.071-.285-.106-.463-.142-.07-.036-.14-.107-.212-.142-.71-.284-1.456-.462-2.238-.568-3.836-.498-8.24.923-10.726,1.918-.142.071-.284.106-.426.177-.213.107-.426.178-.639.284-.356.142-.711.32-1.101.498-.071.035-.107.035-.178.071l-.675-.782-.319-.355-.285-.32-.106-.142-2.593-2.983-.213-.249-.284-.319h-.036l-.745.177-.853.178c-.462-.213-1.03-.355-1.669-.462-1.279-.178-2.913,0-4.759.462-1.847.461-3.943,1.278-6.145,2.379-4.44,2.202-9.341,5.577-14.1,9.91-1.669,1.491-3.197,3.054-4.617,4.581-1.385,1.492-2.629,3.019-3.765,4.475-2.309,3.019-4.049,5.932-5.186,8.56-.745,1.74-1.207,3.339-1.385,4.724-.142.994-.106,1.882.071,2.593.071.248.142.426.213.639.178.426.391.781.675,1.101l2.877,3.019.32.32.035-.036c.071-.107.178-.213.284-.284l.036-.036.106-.106c.071-.107.178-.178.249-.284.071-.071.107-.107.178-.142.071-.036.106-.107.177-.142l.071-.071c.071-.036.107-.107.178-.143.071-.071.177-.142.248-.213.036-.035.107-.071.143-.106h.035c.107-.071.178-.142.284-.213.071-.036.107-.071.178-.142.106-.071.177-.142.284-.213.071-.036.106-.072.177-.107.107-.071.214-.142.32-.178.071-.035.107-.071.178-.106.106-.071.213-.107.319-.178.071-.035.107-.071.178-.106l.071-.036c.107-.035.178-.106.284-.142.036-.035.107-.035.142-.071.071-.035.142-.071.249-.106l.213-.107.071-.036.533-.213c.071-.035.106-.035.177-.071.071-.035.107-.035.178-.071l.071-.035c.035,0,.071-.036.106-.036.072-.035.143-.035.249-.071h.071c.107-.035.178-.035.284-.071.071-.035.178-.035.249-.071.106-.035.213-.035.32-.071.035,0,.071-.035.142-.035.035,0,.106,0,.142-.036.106-.035.213-.035.319-.035.107,0,.178-.036.284-.036.071,0,.143-.035.214-.035h.284c.355,0,.781,0,1.207.035h.071c.427.036.924.107,1.421.213.107.036.249.036.355.071.036-.035.036-.106.071-.142.284-.462.533-.959.817-1.421c1.598-2.663,3.303-5.007,5.043-7.067.604-.711,1.208-1.35,1.812-1.989c2.522-2.629,5.043-4.653,7.316-6.216.498-.355,1.03-.675,1.492-.994.675-.427,1.314-.782,1.918-1.137.497-.284.959-.533,1.421-.746.746-.39,1.42-.71,2.024-.959l.533-.213c.248-.106.497-.213.71-.284-.177-.035-.39-.035-.568-.035h-.71c-.178,0-.391,0-.569.035-.355.036-.746.071-1.136.107-.142.035-.249.035-.391.071.959-.498,1.918-.853,2.806-1.137.604-.178,1.208-.32,1.776-.426.781-.142,1.527-.249,2.202-.284.462-.036.888-.036,1.278-.036.391,0,.782.036,1.101.036c1.173.071,1.883.248,1.883.248-.178-.248-.391-.426-.604-.603-.426-.32-.888-.533-1.314-.711-.178-.071-.32-.106-.462-.177-.106-.036-.213-.071-.284-.071.213-.036.391-.071.568-.071.213-.036.391-.036.604-.071c1.669-.143,3.161,0,4.262.177c1.314.249,2.131.568,2.131.568-.177-.355-.462-.674-.781-.959-.213-.177-.462-.355-.675-.497.462.107.852.213,1.279.355c1.065.32,1.953.711,2.663,1.03l.64.32c.071.036.106.071.142.071.639.355.994.604.994.604-.106-.391-.319-.746-.604-1.066-.071-.071-.142-.177-.213-.248h.036c.035,0,.071.035.142.035.035,0,.107.036.178.071.284.107.71.284,1.207.533.036,0,.036.036.071.036l.213.106c.178.107.355.178.533.32l.533.319c.106.071.177.107.284.178.177.142.391.284.568.462.213.177.391.355.568.532l.107.107c.142.142.284.284.391.426.248.284.461.604.674.924.249.39.427.852.604,1.314c0,.035,0,.071.036.071.106-.107.319-.32.568-.604c2.061-2.415,8.241-10.229,4.511-14.988Z" fill="#132134"/><path d="M496.087,479.564c0,0,.073-.532-.212-1.03c0-.035-.035-.071-.035-.071l-.035-.035-.108-.107c-.07-.071-.142-.142-.247-.213-.038-.035-.108-.071-.178-.106-.177-.071-.355-.142-.605-.178-.177-.035-.355-.035-.567-.035h-.285v.071c0,.035.035.071.035.142c0,.035,0,.071.037.071.035.106.07.284.105.426c0,0,0,.035-.035.106v.036c-.107.249-.39.817-1.03,1.527-.107.142-.212.249-.355.391-1.775,1.847-5.612,4.439-13.709,5.896-2.735.39-5.292.425-7.423.143-3.197-.393-5.577-1.423-6.713-2.807-.107-.107-.178-.249-.284-.355-.071-.107-.107-.178-.178-.284-.035-.036-.035-.071-.071-.107-.462-.852-.675-1.776-.675-2.664c0-1.101.355-2.131.924-2.912.461-.639,1.065-1.137,1.811-1.35.355-.106.746-.177,1.137-.142.071,0,.177,0,.319.036.249.035.64.071,1.101.142.036,0,.107,0,.142.035c1.528.178,3.943.426,6.855.249c5.328-.32,12.324-1.989,18.682-7.743v-.035c.035-.498-.035-1.35-.64-2.025-.105-.106-.213-.213-.355-.319-.07-.071-.178-.107-.248-.178-.107-.036-.177-.107-.25-.142l-.317-.213v-.036c-.038-.071-.073-.142-.143-.213-1.635-2.486-3.907-3.942-4.83-4.617-.427-.32-.712-.462-.712-.462-1.953-1.207-2.238-1.598-2.06-4.83.072-1.172.177-2.699.32-4.795c0-.284.037-.533.037-.781v-.178-.852c0-.178-.037-.355-.037-.497c0-.071,0-.142-.035-.213-.035-.178-.035-.356-.07-.533c0-.071-.038-.178-.038-.249c0-.106-.035-.177-.07-.284-.035-.071-.035-.178-.07-.249-.037-.106-.072-.213-.072-.319c0-.036-.035-.071-.035-.107c0-.035-.035-.071-.035-.106v-.036l-.035-.106c-.038-.071-.073-.142-.073-.214v-.035l-.035-.071-.035-.071c-.072-.142-.107-.284-.177-.391l-.035-.106c-.073-.107-.143-.249-.215-.355l-.035-.036-.035-.036c-.073-.071-.108-.142-.178-.213l-.071-.106c-.071-.107-.142-.178-.213-.249v-.284c-.036-.142-.071-.32-.107-.497c0-.036-.035-.107-.035-.142v-.036c0-.071-.036-.106-.036-.177-.035-.142-.071-.284-.142-.427c0-.035-.035-.106-.035-.142l-.107-.319c-.035-.071-.035-.142-.071-.178-.035-.106-.071-.213-.142-.319l-.106-.214c-.036-.106-.107-.213-.143-.319l-.106-.213c-.071-.107-.107-.213-.178-.32l-.106-.213c-.071-.107-.142-.213-.213-.355-.036-.071-.071-.107-.107-.178-.035-.035-.071-.106-.106-.142-.107-.106-.178-.213-.285-.32l-.071-.035c-.142-.142-.248-.284-.39-.391l-.036-.035c-.071-.036-.142-.107-.177-.142h-.036c-.071-.036-.106-.071-.177-.107l-.036-.035c-.071-.036-.178-.107-.32-.178-.035-.036-.106-.036-.177-.071-.32-.107-.711-.249-1.208-.391-.035,0-.071,0-.106-.035-.391-.107-.853-.213-1.35-.284-.178-.036-.32-.036-.497-.071-.071,0-.142,0-.249-.036h-.106c-.391-.035-.746-.071-1.137-.071h-.035c-.498,0-.995.036-1.457.142.107-.177.427-.391.711-.568.39-.213.746-.355.746-.355-.214,0-.427.035-.64.071-.071,0-.142.035-.213.035-.035,0-.106,0-.142.036h-.035c-.036,0-.071,0-.107.035-1.101.249-2.167.64-2.77.888l-.213.107h-.036c-.071,0-.106,0-.178.035.427-.817,1.066-1.243,1.563-1.456.071-.035.178-.071.249-.107.035,0,.035,0,.071-.035.071-.036.142-.036.177-.071.107-.036.178-.036.178-.036h-.568c-1.208.142-2.309.533-3.232,1.066-.64.355-1.208.746-1.705,1.136-.142.036-.249.072-.391.072-1.349.284-2.877.639-4.475,1.136-.604.178-1.207.391-1.811.604-.462.177-.959.355-1.421.533-.355.142-.675.284-1.03.426-2.451,1.101-4.901,2.557-6.926,4.51l-.213.214-.533.532-.213.213c-.071.107-.177.213-.248.285-.391.426-.746.887-1.101,1.385-.249.355-.498.746-.711,1.136l-.035.036c-.462.817-.888,1.669-1.208,2.628-.177.462-.319.959-.462,1.456-.035.142-.071.249-.106.391l-.036.071c-.142.533-.248,1.101-.319,1.669c0,.107-.036.213-.036.355-.035.284-.071.569-.071.888-.035.284-.035.533-.035.817v1.101c0,.32,0,.639.035.959v.036c0,.319.036.639.071.994c0,.142.036.284.036.426v.107c0,.071,0,.142.035.248.036.356.107.746.142,1.137c0,.107.036.213.036.32.071.319.106.675.177.994c0,0-.071-.426-.035-1.065c0-.142.035-.32.035-.462.036-.355.107-.781.249-1.172l.107-.32c0-.035.035-.071.071-.142.071-.177.177-.391.284-.568.035.142.035.284.071.391v1.882c.035,1.208.142,2.664.391,3.907c0,0,.035-2.238.426-2.522c0,0,.675,4.191,1.278,5.754.071.213.178.355.249.462v-.427l-.071-2.308v-.249c.462.959.994,1.918,1.598,2.948.178.284.32.568.497.852-1.136.995-2.202,2.451-2.983,4.156-.107.284-.249.568-.355.852-.071.178-.107.32-.178.498c0,.035-.035.106-.035.142-.036.106-.071.248-.107.355c0,.071-.035.106-.035.177-.036.107-.071.249-.107.356c0,.071-.035.106-.035.177l-.107.533c-.035.177-.071.355-.071.533c0,.071,0,.106-.036.177c0,.142-.035.249-.035.391c0,.071,0,.142-.036.213c0,.142-.035.249-.035.391v1.243c0,.142,0,.284.035.462v.106c0,.178.036.355.071.568c0,.071,0,.107.036.178c0,.142.036.249.071.391c0,.071.036.142.036.213.035.106.035.248.071.355c0,.071.035.142.035.213.036.107.071.213.071.355.036.071.036.142.071.249.036.106.071.248.107.355.035.072.035.142.071.212.035.108.071.25.106.355.036.073.036.143.071.215.036.143.107.283.142.39.036.07.036.108.071.178l.533,1.172c.036.07.071.105.107.178l.213.425c.035.072.071.142.142.215.071.105.142.247.213.355.036.07.107.14.142.212.071.105.142.248.249.355.071.07.106.143.177.248.071.107.178.25.249.355.071.072.106.142.177.25.107.107.178.247.285.355.071.07.106.142.177.212.107.143.213.25.355.39l.178.18c.178.178.355.39.533.568c0,0-.107-.143-.249-.428-.035-.035-.071-.105-.071-.177l-.106-.213c-.036-.07-.072-.142-.107-.247-.284-.64-.533-1.563-.497-2.558l.319.425c.107.25.285.57.462.925.071.105.142.248.178.355.284.498.568,1.065.923,1.598.426.675.853,1.315,1.314,1.917c0,0-.532-1.135-.71-1.882-.036-.213-.071-.39-.036-.498.036.035.071.108.142.143.036.035.072.107.143.142.071.108.177.248.319.425l.071.073c.071.07.107.177.178.247.071.108.142.215.248.32.746.96,1.776,2.238,2.487,2.913.248.212.461.39.603.462l-1.03-1.847c2.345,1.917,12.076,4.367,21.63,1.635c1.172-.32,2.309-.748,3.445-1.245.675-.283,1.35-.638,2.024-.993l.107-.072c.463-.248.923-.533,1.385-.818.355-.212.71-.46,1.03-.675.568-.39,1.138-.815,1.705-1.277.035-.035.07-.07.108-.07.532-.463,1.065-.96,1.527-1.458.638-.675,1.208-1.35,1.703-2.025l.037-.035c.14-.177.248-.32.355-.497l.035-.035c.035-.07.07-.108.108-.178.177-.247.317-.462.495-.71.037-.072.072-.107.107-.177.07-.143.143-.25.25-.392.07-.106.105-.177.178-.284.07-.106.14-.213.177-.319.105-.178.213-.391.318-.569l.107-.213.213-.426.107-.213.035-.071c.073-.178.178-.355.25-.533v-.035c.318-.285.533-.569.745-.817.035-.036.07-.071.07-.107.215-.675.355-1.207.355-1.705Zm-57.145-6.89c0-.035,0-.071-.036-.142-.107-.604-.213-1.243-.249-1.882v-.142c-.106.035-.213.177-.355.355-.035.071-.106.142-.142.248-.319.604-.604,1.457-.604,1.457.036-.285.071-.569.071-.853v-.106c.036-.285.071-.604.107-.888v-.107c.035-.355.107-.675.178-.994c0-.036,0-.071.035-.142v-.036c0-.035,0-.071.036-.106c0-.072.035-.107.035-.178.036-.249.107-.497.142-.746.036-.213.071-.426.107-.604v-.071c0-.035,0-.071.035-.071v-.071c0-.035.036-.106.036-.142c0-.035,0-.071.035-.106c0-.071.036-.142.036-.178s.035-.107.035-.142c0-.071.036-.142.036-.178c0-.035,0-.071.035-.106c0-.036,0-.071.036-.071c0-.071.035-.107.035-.142v-.107l-.071.071c-.071.036-.106.107-.177.142l-.071.071c-.071.071-.142.142-.178.213l-.035.036-.213.32-.036.035c0,.036-.035.036-.035.071l-.107.213v.071c-.036.107-.107.213-.142.32-.107.284-.213.568-.284.817-.036.071-.036.177-.071.213-.036.142-.071.284-.071.32v.035-.035c0-.107,0-.178.035-.285c0-.177.036-.39.036-.568c0-.142.035-.32.071-.462c0-.035,0-.106.035-.142c0-.071.036-.142.036-.213s.035-.142.035-.213v-.106c0-.071.036-.178.036-.249v-.178-.071c0-.035,0-.071.035-.106.036-.107.071-.249.071-.355v-.036c.036-.071.036-.177.071-.249v-.035c.036-.178.107-.355.142-.533v-.071c0-.035,0-.071.036-.106.071-.284.178-.569.249-.817v-.036c.071-.213.177-.461.248-.675v-.035c.036-.107.071-.178.107-.284.071-.142.106-.284.177-.426c0-.036.036-.107.107-.249.035-.036.035-.107.071-.142.035-.071.071-.142.106-.249l.036-.071.604-1.101c.035-.035.035-.106.071-.142v-.035l.035-.071c.071-.107.142-.249.213-.356.107-.177.178-.355.285-.497.177-.319.319-.604.426-.746.035-.106.071-.142.106-.177-.035,0-.213-.142-.497-.32-.355-.213-.852-.497-1.456-.781-.213-.107-.391-.178-.604-.284-.249-.107-.533-.214-.817-.32-.071-.036-.142-.036-.213-.071-.248-.071-.462-.142-.71-.213-.178-.036-.355-.071-.497-.107-.143-.035-.285-.035-.427-.071-.071,0-.142,0-.213-.035-.071,0-.142,0-.213-.036-.177,0-.391-.035-.568-.035h-.284c-.426,0-.817.035-1.208.106h-.071c-.71.107-1.385.284-2.06.533-.213.071-.426.178-.675.284-.071.036-.106.071-.177.071l-.213.107c-.64.319-1.243.746-1.812,1.207h-.035c-.497.391-.924.853-1.314,1.314l-.32.427c-.142.177-.249.355-.355.532-.213.32-.426.675-.604,1.03-.071.142-.142.249-.178.391c0,.036-.035.036-.035.071-.355.852-.639,1.74-.746,2.699-.035.178-.035.355-.071.569v.071c0,.142-.035.284-.035.461v.64c0,.142,0,.284.035.426v.177c0,.107.036.214.036.32v.036c0,.071,0,.106.035.177c0,.107.036.213.036.284s.035.142.035.213c.036.107.036.178.071.285c0,.071.036.142.071.213v.035l.036.071v.071l.035.071c.036.071.036.142.071.213.036.071.036.178.071.249.036.071.071.142.071.249l.036.071c.035.071.035.106.071.177.035.071.071.142.106.249l.107.213c.035.035.035.071.071.107.035.035.035.071.071.106l.107.213c.035.071.071.178.142.249.035.071.071.142.106.177.036.071.107.178.142.249.036.071.071.107.107.178.035.071.106.177.177.248.036.071.071.107.107.142.071.071.106.178.178.249.035.035.071.106.106.142.071.071.142.178.213.249.036.035.071.071.107.142.071.071.142.177.213.248l.106.107c.071.071.142.177.249.248l.107.107.248.249c.036.035.071.071.107.071.071.071.177.142.284.248.035.036.071.036.106.071.107.071.178.142.285.213.035.036.071.036.071.071l.319.213.071.036.32.213.071.036c.106.071.249.142.355.213l.071.035c.107.071.249.142.355.178l.071.035c.142.071.249.107.391.178l.036.035c.142.071.284.107.39.178h.036c.142.036.284.107.426.142h.035c.072.036.143.036.214.071.071.036.142.036.248.071h.036c.142.036.319.071.461.107.143.035.32.071.462.071.497.071.995.106,1.492.142h.355c.178,0,.32,0,.497-.036.213-.035.462-.035.711-.071.213-.035.426-.071.603-.106.32-.071.64-.142.924-.249.923-.249,1.705-.604,2.202-.994c0,0-.32-1.421-.568-2.842-.071-.071-.107-.213-.142-.355Z" fill="#90694c"/><path d="M461.744,419.896l-.107-1.421.711-1.562.284-.072c-.462-.213-1.03-.355-1.67-.461-1.278-.178-2.912,0-4.759.461-1.847.462-3.942,1.279-6.144,2.38-4.44,2.202-9.341,5.576-14.1,9.909-1.67,1.492-3.197,3.055-4.618,4.582-1.385,1.492-2.628,3.019-3.764,4.475-2.309,3.019-4.049,5.932-5.186,8.56-.746,1.74-1.208,3.338-1.385,4.724-.142.994-.107,1.882.071,2.592.071.249.142.426.213.64.178.426.391.781.675,1.101l2.877,3.019.319.319.036-.035c.071-.107.177-.213.284-.284l.036-.036.106-.107c.071-.106.178-.177.249-.284.071-.071.106-.106.177-.142.071-.035.107-.106.178-.142l.071-.071c.071-.035.106-.106.177-.142.072-.071.178-.142.249-.213.036-.036.107-.071.142-.107h.036c.106-.071.177-.142.284-.213.071-.035.106-.071.177-.142.107-.071.178-.142.285-.213.071-.035.106-.071.177-.106.107-.071.213-.142.32-.178.071-.035.106-.071.177-.107.107-.071.213-.106.32-.177.071-.036.107-.071.178-.107l.071-.035c.674-1.883,1.704-3.978,3.054-6.109c1.634-2.628,3.729-5.399,6.216-8.169c1.562-1.74,3.267-3.481,5.114-5.15c2.38-2.166,4.83-4.12,7.245-5.825c1.634-1.136,3.233-2.166,4.795-3.054.142-.071.284-.178.462-.249.426-.248.817-.462,1.243-.675.888-.461,1.776-.888,2.628-1.243l-.426-.497-.071-.071-.533-.604-2.948-3.551.036-2.558-.036-.035l2.096-.64l3.978,2.025Z" fill="#2f83c1"/><path d="M496.09,479.564c0,0,.07-.532-.215-1.03c0-.035-.035-.071-.035-.071l-.035-.035-.108-.107c-.07-.071-.14-.142-.247-.213-.035-.035-.108-.071-.178-.107-.177-.071-.355-.141-.605-.177-.177-.035-.355-.036-.567-.036h-.285v.071c0,.036.037.071.037.142c0,.036,0,.071.035.071.035.107.07.285.105.427c0,0,0,.035-.035.106v.036c-.105.248-.39.817-1.03,1.527-.105.142-.212.249-.355.391-1.775,1.847-5.612,4.439-13.709,5.896-2.735.39-5.292.425-7.423.143-3.196-.393-5.576-1.423-6.713-2.807-.106-.107-.177-.249-.284-.355-.071-.107-.106-.178-.177-.284-.036-.036-.036-.072-.071-.107-.462-.853-.675-1.776-.675-2.664c0-1.101.355-2.131.923-2.912.462-.639,1.066-1.137,1.812-1.35.355-.106.745-.177,1.136-.142.071,0,.178,0,.32.035.248.036.639.072,1.101.143.035,0,.106,0,.142.035c1.527.178,3.942.426,6.855.249c5.327-.32,12.323-1.989,18.681-7.743v-.035c.037-.498-.035-1.35-.638-2.025-.107-.106-.215-.213-.355-.32-.072-.071-.18-.106-.25-.177-.107-.036-.177-.107-.247-.142l-.32-.213v-.036c-.035-.071-.073-.142-.143-.213-1.635-2.486-3.907-3.942-4.83-4.617-.427-.32-.71-.462-.71-.462-1.955-1.207-2.237-1.598-2.06-4.83.07-1.172.178-2.7.32-4.795c0-.284.035-.533.035-.781v-.178-.852c0-.178-.035-.355-.035-.497c0-.071,0-.143-.037-.214-.035-.177-.035-.355-.07-.532c0-.071-.035-.178-.035-.249c0-.107-.035-.178-.073-.284-.035-.071-.035-.178-.07-.249-.035-.106-.072-.213-.072-.319c0-.036-.035-.071-.035-.107c0-.035-.035-.071-.035-.107v-.035l-.035-.107c-.035-.071-.073-.142-.073-.213v-.035l-.035-.071-.035-.071c-.07-.142-.107-.284-.177-.391l-.035-.107c-.073-.106-.143-.248-.213-.355l-.037-.035-.035-.036c-.07-.071-.105-.142-.177-.213l-.071-.107c-.071-.106-.142-.177-.214-.248l-.284-.284c-.106-.071-.213-.142-.319-.178-.036-.035-.071-.035-.107-.035l-.213-.107c-.035,0-.071-.035-.107-.035-.071-.036-.142-.036-.177-.071-.036,0-.071-.036-.142-.036s-.107-.036-.178-.036h-.781c-.036,0-.071,0-.107.036-.035,0-.071,0-.106.036-.071,0-.142.035-.249.071h-.071c-.213.071-.391.142-.604.213l-.071.035c-.071.036-.142.071-.248.107l-.107.035-.213.107-.107.071-.213.106-.106.071c-.071.036-.142.107-.213.142l-.071.036c-.071.071-.178.107-.249.178l-.035.035c-.107.071-.178.142-.285.178-.177.106-.355.249-.532.355-.142.107-.284.213-.462.32l-.071.035c-.142.107-.32.213-.462.284l-.071.036c-.142.106-.32.178-.462.284l-.071.035c-.142.107-.319.178-.497.249l-.071.036c-.177.071-.32.142-.497.213l-.071.035c-.178.071-.355.107-.533.178h-.035c-.178.035-.391.071-.569.106-.319.036-.675.071-.994.071-.533,0-1.066-.035-1.634-.106l-.533-.107c-.071,0-.142-.035-.177-.035-.462-.107-.959-.213-1.421-.32-.213-.036-.391-.107-.604-.142-.319-.071-.639-.142-.994-.213-.071,0-.142-.036-.178-.036-.035,0-.106-.035-.142-.035-.071,0-.142-.036-.213-.036s-.142-.035-.213-.035h-.071c-.071,0-.142-.036-.178-.036-.142-.035-.284-.071-.461-.071-.036,0-.107,0-.143-.035-.106,0-.213-.036-.319-.036-.071,0-.107,0-.178-.035-.106,0-.177-.036-.284-.036h-1.634c-.177,0-.319.036-.497.036h-.142c-.107,0-.213.035-.32.035h-.035c-.071,0-.107.036-.178.036-.106.035-.213.035-.319.071-.071,0-.142.035-.178.035-.107.036-.213.071-.32.071-.071,0-.106.036-.177.071-.107.036-.249.072-.355.107-.071.036-.107.036-.142.071-.178.071-.356.142-.498.213-1.349.781-2.521,1.847-3.409,3.055-.32.426-.604.852-.853,1.278-.284.462-.497.959-.71,1.456-.071.142-.107.284-.178.426-.071.249-.177.498-.248.746c0,.036,0,.071-.036.071-.071.284-.142.569-.213.888-.071.32-.106.604-.142.924-.036.177-.036.32-.036.497-.035.462-.035.888,0,1.35v.106c0,.107,0,.213.036.355.036.32.071.64.142.959.036.107.071.214.071.356.036.106.036.213.071.319.213.817.533,1.563.924,2.202c1.456,2.522,3.871,4.049,5.647,4.866.675.284,1.385.568,2.131.817l-.071.071c-.142.036-.284.071-.462.106-.249.071-.568.178-.888.285-.355.106-.781.284-1.207.461-1.137.462-2.416,1.137-3.552,2.06-.142.107-.284.249-.426.356-.249.213-.462.426-.675.675l-.071.071-.107.106c-.071.106-.177.178-.248.284l-.107.107c-.106.142-.213.284-.284.426-.107.142-.178.284-.284.426-.675,1.172-1.066,2.593-.959,4.298v-.072c0-.035,0-.07.035-.106v-.036c0-.035.036-.071.036-.142v-.035c0-.035.035-.106.035-.178c0-.071.036-.106.071-.177v-.036c.036-.071.036-.142.071-.213v-.035c.036-.071.036-.143.071-.214v-.035c.036-.071.072-.142.107-.248l.036-.036c.035-.071.071-.178.142-.249.071-.142.142-.248.213-.391.035-.035.071-.106.106-.142l.036-.035.213-.32c.071-.071.142-.177.213-.248l.071-.071c.071-.071.107-.142.178-.178l.071-.071c.071-.071.177-.142.248-.248c0,0-1.527,3.48-.852,6.215v-.036-.071-.106-.142-.178c0-.071,0-.142.035-.213c0-.071,0-.142.036-.213v-.036c0-.071.035-.177.035-.248v-.071c.036-.107.036-.178.071-.284v-.036c.036-.107.071-.213.071-.284c0-.035.036-.071.036-.107l.036-.071c.035-.071.071-.177.106-.248.036-.107.107-.213.178-.32c0-.035.035-.071.035-.071l.213-.32c0,0-.071.853-.071,1.883c0,.177,0,.319.036.497c0,.107,0,.213.035.32.071-1.101.284-2.131.569-3.09-.285.959-.498,1.989-.569,3.09-.035.71-.035,1.421.036,2.166.106,1.244.426,2.593.959,3.978c0,0-.498-1.598.213-3.196l.213.426c.071.462.142,1.136.284,1.882.142,1.242.71,4.973,3.268,7.565c0,0-.959-1.243-.817-2.84.106.212.213.39.284.567.426.818,1.279,2.308,2.237,3.376c0,0-.745-1.458-.568-1.778c0,0,2.486,3.09,3.268,3.375l-1.03-1.705-.036-.035c3.587,2.627,8.56,3.588,14.669,1.883c1.065-.285,2.131-.676,3.267-1.138.675-.285,1.35-.64,2.025-.995l.107-.07c.46-.25.923-.533,1.385-.818.355-.212.71-.462,1.03-.675.568-.39,1.135-.817,1.705-1.277.035-.035.07-.072.105-.072.533-.46,1.065-.958,1.528-1.455.64-.675,1.207-1.351,1.705-2.026l.035-.034c.142-.178.25-.321.355-.498l.037-.035c.035-.072.07-.107.105-.177.178-.25.32-.463.498-.711.035-.072.07-.107.107-.177.07-.143.14-.25.248-.392.072-.106.107-.178.177-.284.073-.107.143-.213.178-.319.107-.178.212-.391.32-.569l.107-.213.213-.426.107-.213.035-.071c.07-.178.178-.356.248-.533v-.035c.32-.285.532-.569.747-.817.035-.036.07-.072.07-.107.32-.462.463-.994.463-1.492Zm-57.432-9.056c-.107.035-.213.177-.355.355-.036.071-.107.142-.142.248-.32.604-.604,1.457-.604,1.457.035-.285.071-.569.071-.853v-.106c.035-.285.071-.604.106-.888v-.107c.036-.355.107-.675.178-.994c0-.036,0-.072.035-.143v-.035c0-.035,0-.071.036-.107c0-.071.036-.106.036-.177.035-.249.106-.497.142-.746.035-.213.071-.426.106-.604v-.071c0-.036,0-.071.036-.071v-.071c0-.035.035-.106.035-.142c0-.035,0-.071.036-.107c0-.071.035-.142.035-.177c0-.036.036-.107.036-.142c0-.071.035-.142.035-.178c0-.035,0-.071.036-.106c0-.036,0-.072.035-.072c0-.071.036-.106.036-.142v-.106l-.071.071c-.071.036-.107.107-.178.142l-.071.071c-.071.071-.142.142-.177.213l-.036.036-.213.319-.036.036c0,.036-.035.036-.035.071l-.107.213v.071c-.035.107-.106.213-.142.32-.106.284-.213.568-.284.817-.035.071-.035.177-.071.213-.035.142-.071.284-.071.319v.036-.036c0-.106,0-.177.036-.284c0-.177.035-.39.035-.568c0-.142.036-.32.071-.462c0-.035,0-.106.036-.142c0-.071.035-.142.035-.213s.036-.142.036-.213v-.107c0-.071.035-.177.035-.248v-.178-.071c0-.035,0-.071.036-.106.035-.107.071-.249.071-.356v-.035c.035-.071.035-.178.071-.249v-.035c.035-.178.106-.355.142-.533v-.071c0-.035,0-.071.035-.107.071-.284.178-.568.249-.817v-.035c.071-.213.178-.462.249-.675v-.035c.035-.107.071-.178.106-.285.071-.142.107-.283.178-.425c0-.036.035-.107.106-.249.036-.036.036-.107.071-.142.036-.071.071-.142.107-.249l.035-.071c-.035-.036-.106-.036-.142-.071h-.035l-.071-.035c-.32-.142-.675-.285-1.03-.391h-.071c-.249-.071-.462-.107-.711-.142-.142,0-.284-.036-.426-.036h-.355c-.178,0-.355.036-.533.036-.071,0-.106,0-.177.035-.071,0-.178.036-.249.036-.035,0-.071,0-.106.035-.071,0-.107.036-.178.036-.107.035-.249.071-.355.106-.036,0-.107.036-.142.036-.142.071-.32.107-.462.178-.071.035-.107.071-.178.071l-.213.106-.071.036c-.071.035-.142.07-.213.142-.071.035-.142.071-.213.142-.071.035-.142.106-.213.142-.036.035-.107.071-.142.106-.107.107-.249.213-.355.32l-.178.177c-.106.107-.177.214-.284.32l-.036.036c-.035.071-.106.106-.142.177l-.106.107c-.178.249-.355.533-.497.817-.036.035-.036.071-.071.106-.071.142-.107.284-.178.426-.036.071-.036.107-.071.178-.036.142-.107.284-.142.462v.142c-.036.107-.036.213-.071.319c0,.071,0,.107-.036.178c0,.071,0,.107-.035.178v.142c0,.177-.036.355,0,.532c0,.142,0,.285.035.427v.071c0,.071.036.142.036.213.035.284.106.533.177.817.071.213.143.39.214.568.142.355.319.675.532.995.427.639.995,1.207,1.67,1.633.355.249.781.427,1.207.569.391.142.817.248,1.279.284.106,0,.213.035.284.035h.462c.142,0,.284-.035.426-.035.071,0,.177,0,.248-.036.214-.035.391-.071.604-.106h.036c.071-.036.142-.036.248-.071.249-.071.498-.178.711-.284l.035-.036c.071-.036.142-.071.178-.071-.107-.604-.213-1.243-.249-1.882.178-.071.178-.107.178-.142Z" fill="#fce9cd"/><path d="M462.632,420.322l.106.071-.106-.071Z" fill="#4d9ed7"/><path d="M493.923,478.108c0-.036,0-.071-.035-.071-.038-.071-.038-.107-.038-.142-.177-.568-.39-.995-.602-1.314-.248-.391-.463-.604-.463-.604l.108-.426c.035-.178.07-.355.07-.533.142-1.279-.178-2.273-.46-2.841-.038-.107-.073-.178-.108-.249-.212.142-.39.284-.605.426-3.835,2.593-8.132,4.262-12.785,4.973-3.196.497-6.57.532-10.086.106l.071.036c0,0-2.131.284-2.7,2.308l.036.036-.178,1.349c.071,1.847.888,2.984,1.847,3.588.995.39,2.202.675,3.552.853c2.308.282,5.008.212,7.707-.213c3.623-.498,8.736-2.416,12.396-4.902.815-.569,1.598-1.172,2.238-1.776l.035-.036.035-.035c0-.249-.035-.391-.035-.533Z" fill="#fff"/><path d="M486.997,460.563c-1.955-1.208-2.237-1.599-2.06-4.831.07-1.172.178-2.699.318-4.794c0-.285.037-.533.037-.782v-.177-.853c0-.177-.037-.355-.037-.497c0-.071,0-.142-.035-.213-.035-.178-.035-.355-.07-.533c0-.071-.035-.177-.035-.249c0-.106-.038-.177-.073-.284-.035-.071-.035-.177-.07-.248-.285-.426-.605-.782-.995-1.101l-.071-.071-.071-.036h-.035c-.071-.035-.107-.071-.178-.106-.071-.036-.142-.071-.177-.107-.569-.355-1.243-.568-1.918-.675-.391-.071-.782-.071-1.172-.071-.178,0-.391.036-.569.036-.497.071-.994.177-1.527.319-.177.107-.355.249-.533.356-.142.106-.284.213-.461.319l-.071.036c-.142.106-.32.213-.462.284l-.071.035c-.142.107-.32.178-.462.284l-.071.036c-.142.107-.32.178-.497.249l-.071.035c-.178.071-.32.142-.497.213l-.071.036c-.178.071-.356.106-.533.177h-.036c-.177.036-.39.071-.568.107-.32.035-.675.071-.994.071-.533,0-1.066-.036-1.634-.107l-.533-.106c-.071,0-.142-.036-.178-.036-.461-.106-.959-.213-1.42-.319-.213-.036-.391-.107-.604-.142-.32-.071-.639-.142-.995-.214-.071,0-.142-.035-.177-.035-.284,0-.568.035-.817.071h-.071c-.817.107-1.598.284-2.415.568-.036,0-.071.036-.142.036-.142.035-.249.106-.391.142-.178.071-.32.142-.497.213-1.172.497-2.273,1.208-3.339,2.095-.426.356-.817.746-1.207,1.137-.569.604-1.066,1.243-1.528,1.918-.035.035-.035.071-.071.106-.248.356-.461.746-.639,1.101-.071.143-.142.285-.213.391v.036c-.213.461-.391.888-.533,1.349c0,.036,0,.071-.035.071-.036.071-.036.142-.071.213-.071.214-.142.427-.178.64-.071.213-.106.426-.142.675c0,.035-.035.106-.035.142-.036.142-.036.284-.072.39-.071.498-.106.995-.142,1.492v.355c.214.817.533,1.563.924,2.202c1.456,2.522,3.871,4.049,5.647,4.866.675.284,1.385.568,2.131.817l.036.036.035-.036c.107-.071.178-.142.284-.213.036-.036.071-.036.107-.071l.319-.213c.036-.036.071-.036.107-.071l.32-.213c.035-.036.071-.036.106-.071.107-.071.213-.142.355-.214.036-.035.071-.035.107-.071.106-.071.249-.142.355-.213.036-.035.071-.035.107-.071.106-.071.248-.142.355-.213.035-.035.106-.035.142-.071.106-.071.249-.142.355-.213.036-.035.107-.071.142-.071.107-.071.249-.142.391-.213.071-.036.106-.071.177-.071.142-.071.249-.142.391-.178.071-.035.107-.071.178-.071.142-.071.248-.106.39-.177l.213-.107c.143-.071.249-.106.391-.177.071-.036.142-.071.249-.107.142-.035.248-.107.39-.142.071-.036.178-.071.249-.107.142-.035.249-.106.391-.142.106-.035.177-.071.284-.106.142-.036.249-.107.391-.142l.319-.107c.107-.035.249-.071.355-.142.107-.035.249-.071.356-.106.106-.036.248-.071.355-.107.142-.036.284-.071.39-.107.107-.035.214-.071.356-.106.142-.036.284-.071.461-.142.071-.036.142-.036.213-.071.569-1.456,2.309-5.079,5.257-5.47.32-.035.604-.071.888-.071h.213c-.036-.213-.071-.426-.071-.675-.107-1.562.391-2.877,1.065-2.912.533-.036.959.746,1.03.994.214.462.356,1.066.391,1.741.036.604-.035,1.172-.142,1.669.071.071.107.142.178.178.674.852.781,1.989.745,2.841.249-.036.533-.036.817-.071.07,0,.143,0,.213-.036h.142c.32-.035.675-.071,1.03-.071.783-.071,1.563-.106,2.38-.142-.462-.248-.745-.39-.745-.39Zm7.423,21.878c-1.28,1.137-2.63,2.06-3.978,2.806-.675.355-1.35.675-1.99.958-1.455.64-2.84,1.067-4.085,1.385-2.734.675-4.616.675-4.616.675c1.492.817,3.374.817,4.651.712.89-.072,1.493-.25,1.493-.25-.035.533-.105,1.03-.178,1.528-.105.532-.247.995-.425,1.42v.035c-.215.535-.497.995-.782,1.422-.035.035-.07.105-.108.143l.108-.073c.462-.247.922-.532,1.385-.817.355-.213.71-.46,1.03-.675.567-.39,1.137-.815,1.705-1.278.035-.035.07-.07.107-.07.533-.462,1.065-.96,1.528-1.457.637-.675,1.207-1.35,1.705-2.025l.035-.035c.142-.178.247-.32.355-.498l.035-.035c.035-.07.07-.107.107-.177.178-.248.318-.463.498-.71.035-.073.07-.108.105-.178.072-.142.142-.249.25-.391.07-.106.105-.177.177-.284.07-.106.14-.213.178-.32.105-.177.212-.39.32-.568l.105-.213.212-.426.108-.213.035-.071c.072-.178.177-.355.25-.533-.143.036-.215.107-.32.213Zm-32.392-14.313c-.355.106-.781.284-1.208.461-1.136.462-2.415,1.137-3.551,2.06-.142.107-.285.249-.427.356-.248.213-.461.426-.674.674l-.071.071-.107.107c-.071.107-.178.178-.249.284l-.106.107c-.107.142-.213.284-.284.426-.107.142-.178.284-.284.426-.675,1.172-1.066,2.593-.959,4.298v-.071c0-.036,0-.071.035-.107v-.035c0-.036.036-.071.036-.142v-.036c0-.036.035-.107.035-.178s.036-.106.071-.177v-.036c.036-.071.036-.142.071-.213v-.035c.036-.071.036-.142.071-.213v-.036c.036-.071.071-.142.107-.249l.035-.035c.036-.071.071-.178.142-.249.071-.142.142-.248.213-.39.036-.036.072-.107.107-.142l.036-.036.213-.32c.071-.071.142-.177.213-.248l.071-.071c.071-.071.106-.142.177-.178l.071-.071c.071-.071.178-.142.249-.248c0,0-1.527,3.48-.852,6.215v-.036-.071-.106-.142-.178c0-.071,0-.142.035-.213c0-.071,0-.142.036-.213v-.035c0-.072.035-.178.035-.249v-.071c.036-.107.036-.178.071-.284v-.036c.036-.106.071-.213.071-.284c0-.035.036-.071.036-.106l.035-.072c.036-.071.071-.177.107-.248.035-.107.106-.213.177-.32c0-.035.036-.071.036-.071l.213-.319c0,0-.071.852-.071,1.882c0,.178,0,.32.036.497c0,.107,0,.213.035.32.071-1.101.284-2.131.568-3.09.071-.249.178-.533.249-.782c0-.035.035-.071.035-.106.107-.249.178-.462.285-.71.035-.036.035-.071.071-.142.106-.214.213-.462.319-.675.036-.036.036-.071.036-.107.248-.462.497-.888.746-1.278.035-.036.035-.072.071-.107.106-.142.213-.284.319-.462.036-.035.036-.071.071-.106.036-.036.036-.071.071-.107.142-.177.249-.355.391-.533.036-.035.036-.071.071-.071.142-.177.284-.355.426-.497.178-.213.355-.391.533-.604.142-.142.249-.284.391-.39l.142-.142c.284-.285.568-.569.852-.817.782-.711,1.421-1.172,1.634-1.314-.142.035-.284.071-.462.106-.213.107-.497.213-.852.32Z" fill="#f2d2ac"/><path d="M482.486,460.421c0,0,0-.071-.036-.213-.142-.497-.639-1.705-2.593-1.528-2.06.213-2.77,1.883-2.948,2.451-.035.107-.035.178-.035.178l.071.035c.249-.213.746-.213,1.208.107.213.142.355.284.497.461.177.285.213.569.106.782l-.106.106c0,0,.071.036.213.071.568.178,2.167.498,3.019-.603.036-.071.071-.107.106-.178-.177-.071-.248-.32-.248-.639c0-.142.036-.284.071-.462.107-.426.426-.675.675-.568Zm-10.265,15.201c-1.349.284-2.521.497-3.409.639.035,0,.106,0,.142.036c1.527.177,3.942.426,6.854.249c5.328-.32,12.324-1.989,18.682-7.743v-.036c.035-.497-.035-1.349-.64-2.024-.105-.107-.213-.213-.355-.32-.035,0-.035-.035-.07-.035-.178-.107-.32-.178-.463-.284l-.32-.214v-.035c-.39.568-.852,1.101-1.347,1.598-.177.178-.355.355-.57.533-1.74,1.563-4.013,2.912-6.463,3.978-4.049,1.776-8.596,2.948-12.041,3.658Zm-33.67-9.27c-.071.036-.106.107-.177.142l-.071.071c-.072.071-.143.142-.178.213l-.036.036-.213.32-.035.035c0,.035-.036.036-.036.071l-.106.213v.071c-.036.107-.107.213-.142.32-.107.284-.213.568-.284.817-.036.071-.036.177-.071.213-.036.142-.072.284-.072.319v.036-.036c0-.106,0-.177.036-.283c0-.178.036-.391.036-.569c0-.142.035-.319.071-.461c0-.036,0-.107.035-.143c0-.071.036-.142.036-.213s.035-.142.035-.213v-.106c0-.071.036-.178.036-.249v-.178-.071c0-.035,0-.071.035-.106.036-.107.071-.249.071-.355v-.036c.036-.071.036-.178.071-.249v-.035c.036-.178.107-.355.142-.533v-.071c0-.035.001-.071.036-.106.071-.285.177-.569.248-.817v-.036c.071-.213.178-.462.249-.675v-.035c.036-.107.071-.178.107-.284.071-.142.106-.284.177-.427c0-.035.036-.106.107-.248.035-.035.035-.107.071-.142.035-.071.071-.142.106-.249l.036-.071c-.035-.035-.107-.035-.142-.071h-.036l-.071-.035c-.319-.143-.674-.284-1.03-.391h-.071c-.248-.071-.461-.107-.71-.142-.142,0-.284-.036-.426-.036h-.356c-.177,0-.355.036-.532.036-.071,0-.107,0-.178.035-.071,0-.177.036-.249.036-.035,0-.07,0-.106.035-.071,0-.107.036-.178.036-.106.036-.248.071-.355.106-.035,0-.106.036-.142.036-.142.071-.32.107-.462.178-.071.035-.106.071-.177.071l-.213.106-.071.036c-.071.035-.142.071-.213.142-.071.035-.143.071-.214.142-.071.035-.141.107-.212.142-.036.036-.107.071-.142.106-.107.107-.249.213-.356.32l-.177.178c-.107.106-.178.213-.284.319l-.036.036c-.036.071-.107.106-.142.177l-.106.107c-.178.249-.356.533-.498.817-.035.035-.035.071-.071.106-.071.142-.106.285-.177.427-.036.071-.036.106-.071.177c0,.036.035.071.035.107.035.142.071.248.107.39v.072c.035.106.106.248.142.355.142.355.284.674.461.959.036.035.036.071.072.106v.036l.035.035c.106.213.213.391.32.533.177.249.319.426.426.568l.071.071c0,.036.035.036.035.036l.071.071c0-.071-.035-.142-.035-.178-.107-.462-.142-.888-.142-1.349v-.071c0-.284,0-.569.035-.817l.107.319c.035.142.106.285.142.427v.071c.213.604.461,1.101.71,1.491.284.497.533.817.71,1.03.036.036.071.071.071.107l.072.071c-.107-.497-.178-.959-.178-1.421v-.461c0-.213,0-.391.035-.569.071.32.178.639.285.924v.035c.391,1.03.852,1.776,1.172,2.238l.035.035c.071.071.107.142.142.214.036.035.071.07.071.106l.071.071.036.035v-.071c0-.071-.036-.142-.036-.213-.035-.248-.07-.497-.106-.71c0-.142-.036-.32-.036-.462v-.426-.071-.284c0-.178.036-.391.036-.568.036.106.071.248.106.355.036.071.072.178.107.249v.035l.035.036c.036.106.072.212.107.283.071.178.142.356.249.498.106.213.177.39.284.532.071.107.106.178.142.249.071.107.142.213.177.284.071.071.107.142.142.213l.036.036c.036.071.106.106.142.177.036.036.071.072.071.107.071.071.107.142.142.142l.036.036v-.107c.035-.284.071-.604.106-.888v-.106c.036-.356.107-.675.178-.995c0-.035,0-.071.035-.142v-.036c0-.035.001-.071.036-.106c0-.071.035-.106.035-.177.036-.249.107-.498.142-.747.036-.213.072-.426.107-.603v-.071c0-.036,0-.071.035-.071v-.071c0-.036.036-.107.036-.142c0-.036,0-.072.036-.107c0-.071.035-.142.035-.177c0-.036.036-.107.036-.143c0-.071.035-.142.035-.177c0-.036,0-.071.036-.107c0-.035,0-.071.035-.071c0-.071.036-.106.036-.142v-.106l.177.106Zm43.047,14.846c.497-.177.923-.319,1.278-.461.675-.285,1.03-.498,1.03-.569-.035-.071-.426-.035-1.136.143-.355.071-.782.141-1.314.283-.249.071-.533.107-.817.143-.284.035-.604.106-.924.142-.639.106-1.349.177-2.13.248l-1.173.107c-.39.035-.817.035-1.243.071-1.705.035-3.587-.036-5.505-.391-.994-.177-2.38-.639-3.339-1.172l-.035-.035c.568-2.025,2.699-2.309,2.699-2.309l-.071-.036h-.106c-.32-.035-.569-.071-.817-.106-.178-.036-.32-.036-.426-.071-.107,0-.213-.036-.249-.036-1.278-.071-1.989.995-2.202,1.456l-.106.214c-.178.426-.32.888-.356,1.42-.071.959.178,1.989.924,2.877.497.604,1.349,1.137,2.45,1.563-.959-.604-1.811-1.776-1.846-3.587c1.1.462,2.343.746,3.302.923c2.025.391,4.014.426,5.754.32.426-.036.888-.071,1.279-.107.426-.071.817-.106,1.207-.142.782-.142,1.457-.248,2.131-.391.32-.071.64-.142.924-.248.32-.071.568-.142.817-.249Z" fill="#f2d2ac"/><path d="M479.928,457.473c1.066.035,1.776.355,2.273.852.107-.461.178-1.03.142-1.669-.035-.675-.177-1.279-.39-1.74-.071-.285-.497-1.03-1.03-.995-.675.036-1.172,1.35-1.066,2.913c0,.213.036.426.071.639Zm1.776,4.013c0,.284.107.533.249.64.248.142.568-.142.71-.604c0-.036.036-.071.036-.107.106-.426,0-.852-.249-.959-.249-.142-.568.142-.71.604c0,.142-.036.284-.036.426Zm-4.83.782c.106.177.284.355.497.497.462.284.959.32,1.243.071l.107-.107c.106-.213.071-.497-.107-.781-.106-.178-.284-.355-.497-.462-.462-.284-.959-.319-1.208-.106-.035.035-.071.071-.106.142-.107.177-.071.461.071.746Zm17.651,6.499c-.035,0-.035,0,0,0v0Zm-.568,9.838c-.675.64-1.42,1.244-2.272,1.812-3.658,2.486-8.773,4.439-12.396,4.901-2.735.427-5.399.497-7.707.212-1.35-.177-2.522-.46-3.552-.851-1.101-.426-1.953-.959-2.451-1.563-.745-.888-.959-1.953-.923-2.877.035-.497.142-.994.355-1.42l.107-.214c.248-.461.923-1.562,2.202-1.456.035,0,.142,0,.248.036.107,0,.284.035.427.071.248.035.497.071.816.106h.107c3.516.427,6.89.391,10.087-.106c4.653-.711,8.95-2.38,12.785-4.973.215-.142.392-.284.605-.426l2.095-3.125c-6.358,5.789-13.354,7.458-18.682,7.778-2.912.178-5.327-.036-6.854-.249-.072,0-.107,0-.143-.035-.461-.071-.816-.107-1.101-.142-.142,0-.248-.036-.319-.036-.391-.035-.782.036-1.137.142-.71.213-1.349.711-1.811,1.35-.568.781-.924,1.847-.924,2.912c0,.888.214,1.812.675,2.664.036.036.036.071.071.107.071.106.107.177.178.284.071.106.177.248.284.355c1.101,1.386,3.516,2.381,6.713,2.806c2.166.285,4.688.25,7.423-.143c8.097-1.455,11.934-4.084,13.709-5.895.143-.142.248-.249.355-.391.64-.746.923-1.314,1.03-1.527v-.036c.035-.071.035-.106.035-.106l-.035.035Z" fill="#664f44"/><path d="M468.208,450.547c-.248-.142-.533-.249-.817-.32-.177-.035-.355-.071-.568-.106-.071,0-.142,0-.213-.036-.959-.071-1.776.071-1.776.071-.177.036-.355.071-.497.142-1.279.391-2.167,1.066-2.806,1.847-.497.639-.852,1.314-1.03,1.989-.035.071-.035.107-.035.178-.036.177-.107.355-.143.497-.106.568-.177,1.065-.177,1.492c0,.568.035.923.035.923.213-.497.462-.923.711-1.35.604-1.03,1.243-1.882,1.918-2.557c1.278-1.314,2.592-2.024,3.587-2.38c1.065-.355,1.811-.39,1.811-.39Zm15.379-1.812l-.035-.071c-.143-.177-.32-.355-.533-.497-.497-.32-1.172-.497-2.096-.32c0,0-1.101.249-1.74.995c0,0,1.918-.817,3.978.639.177.142.391.284.568.462.178.178.391.355.569.604c0,0-.07-.888-.604-1.67-.036-.071-.071-.106-.107-.142Z" fill="#e9b784"/><path d="M468.457,462.871c.745-.213,1.527-.426,2.415-.639.142-.675.177-1.492.071-2.38-.249-2.06-1.172-3.658-2.096-3.551-.923.106-1.456,1.882-1.207,3.942.142,1.066.426,1.989.817,2.628Z" fill="#664f44"/><path d="M464.23,416.451l-1.918.426.391,3.48-5.079-2.592-2.096.639.036.036l6.18,7.032.071-.036.071-.035c.177-.107.39-.249.568-.355.071-.036.142-.071.213-.142.284-.178.568-.356.853-.498l-2.629-3.019l4.227,2.06c.142-.071.248-.142.39-.213l-.39-3.019l1.918,2.238h.035c.178-.071.32-.178.497-.249l.071-.035.072-.036c.035,0,.071-.035.071-.035l.213-.107c0,0,.035,0,.035-.035.213-.107.462-.213.675-.32l-4.475-5.185Z" fill="#ffd250"/><path d="M462.348,416.984v-.107.107Zm0-.107l.284-.071c-.462-.213-1.03-.355-1.67-.462-1.278-.177-2.912,0-4.759.462s-3.942,1.279-6.144,2.38c-4.44,2.202-9.341,5.576-14.1,9.909-1.67,1.492-3.197,3.054-4.618,4.582l5.754,7.103c1.563-1.705,3.232-3.41,5.079-5.079c2.451-2.238,4.937-4.227,7.388-5.931c2.379-1.67,4.759-3.09,6.996-4.227l-.994-4.546.035-2.557-.035-.036l2.095-.639l4.085,2.095-.107-1.42.711-1.563Z" fill="#4d9ed7"/><path d="M462.348,416.877l-.711,1.563.107,1.456.994.497-.39-3.516Zm-1.456,4.511l4.262,2.095-1.634.924-2.628-3.019Zm4.262-1.172l.39,3.018l1.528-.781-1.918-2.237Z" fill="#132134"/><path d="M481.207,419.115h.781c.711,0,1.385.106,2.024.248.035,0,.07,0,.108.036h.035l.07.035h.073c-.073-.035-.143-.106-.215-.142-.71-.284-1.456-.462-2.237-.568-3.836-.497-8.24.923-10.726,1.918-.142.071-.284.106-.426.177-.213.107-.426.178-.639.284-.356.143-.711.32-1.101.498-.071.035-.107.035-.178.071-.213.106-.462.213-.675.319c0,0-.035,0-.035.036l-.214.106c-.035,0-.071.036-.071.036h-.142l-.035.036c-.178.071-.32.142-.497.248h-.036c-.036.036-.071.036-.107.071h-.035c-.035,0-.071.036-.071.036-.249.142-.497.248-.746.39-.178.107-.355.178-.533.285h-.035c-.142.071-.249.142-.391.213-.426.213-.817.461-1.243.71-.035.035-.071.035-.142.071-.035.036-.071.036-.107.071-.035.036-.071.036-.106.071l-.036.036c-.284.177-.568.319-.852.497-.071.035-.142.071-.213.142-.178.106-.391.248-.569.355l-.071.036-.071.035-1.598,1.066c-.888.603-1.74,1.207-2.592,1.846-.107.072-.213.178-.32.249-2.238,1.669-4.369,3.481-6.429,5.328-2.166,1.989-4.262,4.013-6.215,6.073-1.066,1.066-1.989,2.025-2.7,2.806-1.491,1.598-2.308,2.593-2.272,2.628c0,0,.142-.106.39-.355-.177.213-.39.462-.568.675c3.268-3.481,6.854-7.033,10.726-10.371c2.344-2.025,4.795-3.978,7.317-5.789c1.101-.782,2.237-1.563,3.373-2.309.356-.249.746-.462,1.101-.71.178-.107.356-.213.569-.32.106-.071.213-.142.319-.178.214-.106.391-.248.604-.355.178-.106.391-.213.568-.355.107-.071.214-.107.32-.178l.746-.426c.142-.071.284-.177.426-.248.462-.249.924-.498,1.421-.746.036-.036.071-.036.107-.071l.213-.107c.106-.035.177-.106.284-.142.035-.035.071-.035.106-.071l.213-.106c0,0,.036,0,.036-.036h.035c.213-.107.427-.213.604-.284.036,0,.071-.036.107-.071l.213-.107c.249-.106.462-.213.71-.319.071-.036.142-.071.178-.107.035,0,.071-.035.106-.035.071-.036.143-.071.214-.071.284-.107.532-.249.816-.356.249-.106.462-.213.711-.319c1.349-.569,2.592-1.03,3.764-1.421c2.202-.604,4.156-.994,5.861-1.065Z" fill="#fff"/></g></g><g id="eqzh5oJvWeR59_tr" transform="translate(300,525) rotate(0)"><g transform="translate(-300,-525)"><rect width="128" height="128" rx="64" ry="64" transform="translate(236 461)" fill="#fff"/><path d="M291.343,515.475v-3.312c-1.152-.182-2.315-.282-3.481-.299-11.287-.024-21.28,7.279-24.669,18.028-3.39,10.749.611,22.45,9.876,28.886-6.94-7.416-8.867-18.211-4.92-27.565c3.947-9.353,13.031-15.517,23.194-15.738Z" fill="#25f4ee"/><path d="M291.968,552.995c6.311-.008,11.498-4.972,11.775-11.267v-56.171h10.278c-.209-1.174-.31-2.365-.299-3.557h-14.058v56.118c-.234,6.326-5.434,11.338-11.775,11.348-1.895-.016-3.759-.481-5.438-1.357c2.208,3.054,5.745,4.87,9.517,4.886Z" fill="#25f4ee"/><path d="M333.219,504.615v-3.122c-3.783.001-7.481-1.113-10.632-3.204c2.762,3.206,6.494,5.427,10.632,6.326Z" fill="#25f4ee"/><path d="M322.587,498.29c-3.103-3.529-4.814-8.065-4.813-12.761h-3.753c.98,5.248,4.077,9.862,8.566,12.761Z" fill="#fe2c55"/><path d="M287.862,525.9c-5.415.028-10.117,3.732-11.403,8.985-1.286,5.252,1.173,10.704,5.965,13.224-2.597-3.579-2.963-8.31-.95-12.245c2.014-3.935,6.068-6.41,10.494-6.407c1.18.015,2.352.198,3.481.543v-14.281c-1.152-.172-2.316-.263-3.481-.271h-.625v10.86c-1.134-.304-2.307-.441-3.481-.408Z" fill="#fe2c55"/><path d="M333.219,504.615v10.86c-7.003-.014-13.824-2.227-19.497-6.326v28.534c-.03,14.238-11.599,25.765-25.86,25.765-5.296.009-10.465-1.622-14.793-4.67c7.223,7.756,18.464,10.309,28.337,6.436s16.366-13.384,16.368-23.974v-28.453c5.692,4.072,12.522,6.257,19.524,6.245v-13.982c-1.371-.005-2.738-.15-4.079-.435Z" fill="#fe2c55"/><path d="M313.722,537.683v-28.534c5.691,4.076,12.521,6.261,19.524,6.245v-10.86c-4.137-.872-7.878-3.064-10.659-6.244-4.489-2.899-7.586-7.513-8.566-12.761h-10.278v56.199c-.206,5.014-3.57,9.348-8.381,10.798-4.812,1.451-10.015-.301-12.966-4.363-4.791-2.52-7.251-7.972-5.964-13.224c1.286-5.252,5.987-8.957,11.403-8.984c1.18.01,2.353.193,3.481.543v-10.86c-10.221.173-19.373,6.358-23.331,15.767-3.958,9.41-1.974,20.265,5.057,27.672c4.371,2.947,9.547,4.474,14.82,4.371c14.261,0,25.83-11.527,25.86-25.765Z"/></g></g><g id="eqzh5oJvWeR68_tr" transform="translate(458,143) rotate(0)"><g transform="translate(-458,-143)"><rect width="128" height="128" rx="64" ry="64" transform="translate(394 79)" fill="#fff"/><path d="M458.723,127.333c-7.188-9.153-13.199-12.641-20.393-12.641-14.667,0-25.905,19.088-25.905,39.291c0,12.643,6.116,20.616,16.361,20.616c7.373,0,12.676-3.475,22.103-19.955c0,0,3.93-6.939,6.634-11.72.947,1.529,1.943,3.175,2.993,4.944l4.421,7.437c8.611,14.411,13.41,19.294,22.103,19.294c9.981,0,15.535-8.082,15.535-20.987c0-21.154-11.491-38.92-25.451-38.92-7.391,0-13.17,5.568-18.401,12.641Zm13.825,21.341l-5.286-8.815c-1.43-2.327-2.801-4.465-4.123-6.424c4.763-7.353,8.693-11.017,13.366-11.017c9.709,0,17.477,14.295,17.477,31.854c0,6.693-2.193,10.577-6.735,10.577-4.353,0-6.433-2.875-14.699-16.175Zm-50.373,5.474c0-14.667,7.313-29.664,16.031-29.664c4.72,0,8.665,2.726,14.708,11.377-5.738,8.801-9.214,14.321-9.214,14.321-7.643,11.981-10.287,14.667-14.542,14.667-4.38,0-6.983-3.845-6.983-10.701Z" fill="#1080f8"/><path d="M412.425,153.983c0-20.203,11.238-39.291,25.905-39.291l-.124,9.792c-8.718,0-16.031,14.997-16.031,29.664c0,6.856,2.603,10.701,6.983,10.701l-.372,9.75c-10.245,0-16.361-7.973-16.361-20.616Z" fill="url(#eqzh5oJvWeR71-fill)"/><path d="M438.33,114.692c7.194,0,13.205,3.488,20.393,12.641c3.122,3.975,5.894,8.223,8.539,12.526l5.286,8.815c8.266,13.3,10.346,16.175,14.699,16.175l-.207,9.75c-8.693,0-13.492-4.883-22.103-19.294l-4.421-7.437c-1.05-1.769-2.046-3.415-2.993-4.944-.906-1.462-3.013-4.779-4.609-7.063-6.043-8.651-9.987-11.377-14.708-11.377l.124-9.792Z" fill="url(#eqzh5oJvWeR72-fill)"/><path d="M502.575,153.612c0,12.905-5.554,20.987-15.535,20.987l.207-9.75c4.542,0,6.735-3.884,6.735-10.577l8.593-.66Z" fill="url(#eqzh5oJvWeR73-fill)"/></g></g><g id="eqzh5oJvWeR74_tr" transform="translate(76,301) rotate(0)"><g transform="translate(-76,-301)"><rect width="128" height="128" rx="64" ry="64" transform="translate(12 237)" fill="#fff"/><path d="M102.329,274c-9.3013,0-16.5765,2.677-22.329,6.922c5.6663,4.84,9.9086,10.088,12.8134,21.078c8.0116-1.481,24.2426-5.452,31.1866-28h-21.671Z" clip-rule="evenodd" fill="#1877f2" fill-rule="evenodd"/><path d="M86.0994,300.889c-5.2585-15.104-18.2769-26.058-35.6021-26.823C50.2035,274.024,27,274,27,274c7.7856,26.561,34.351,28.552,34.351,28.552v42.448L93,345c0,0-1.6856-29.13-6.9006-44.111Z" clip-rule="evenodd" fill="#1877f2" fill-rule="evenodd"/></g></g></g></g><g filter="url(#eqzh5oJvWeR78-filter)"><rect width="160" height="160" rx="80" ry="80" transform="translate(220 221)" fill="#fff"/><path d="M331.926,306.643l5.942,2.856c2.693,1.295,2.857,3.754.364,5.466l-33.699,23.132c-1.247.856-2.89,1.284-4.533,1.284s-3.287-.428-4.533-1.284l-33.699-23.132c-2.493-1.712-2.329-4.171.364-5.466l5.939-2.856l25.727,13.246c1.705.878,3.908,1.361,6.202,1.361s4.497-.483,6.202-1.361l25.724-13.246Z"/><path d="M328.212,287.886l9.548,3.932c2.753,1.133,2.827,3.182.165,4.553L304.84,313.404c-1.331.685-3.085,1.028-4.84,1.028-1.754,0-3.509-.343-4.84-1.028l-33.085-17.033c-2.662-1.371-2.588-3.42.165-4.553l9.544-3.932l22.157,7.604c1.659.57,3.811.883,6.059.883c2.249,0,4.4-.313,6.059-.883l22.153-7.604Z"/><path d="M300.001,265c1.88,0,3.759.196,5.186.587l32.393,8.895c2.852.783,2.89,2.212.083,3.175l-32.56,11.176c-1.404.481-3.253.722-5.102.722-1.85,0-3.7-.241-5.103-.722l-32.56-11.176c-2.806-.963-2.769-2.392.083-3.175l32.393-8.895c1.427-.391,3.307-.587,5.187-.587Z"/></g></g></svg>
