<svg width="74" height="41" fill="none" xmlns="http://www.w3.org/2000/svg"><g opacity=".4" fill="#008847"><path d="M18.057 36.075c-2.977-1.406-5.75-2.497-8.294-3.987-3.279-1.922-5.715-4.693-6.561-8.586-.708-3.253.494-6.105 2.971-7.296 2.331-1.12 4.995-.434 7.017 2.276 4.043 5.427 9.449 9.164 14.987 12.74 1.058.683 2.388.937 3.58 1.425.495.205.957.492 1.44.735-.307.52-.512 1.163-.944 1.543-2.195 1.961-4.876 2.534-7.676 2.294-2.28-.195-4.523-.784-6.52-1.144ZM45.767 21.53c-5.716-1.98-10.31-10.57-8.827-16.29.636-2.473 2.304-3.984 4.474-4.058 2.24-.078 4.326 1.38 4.762 3.941a217.395 217.395 0 0 1 2.041 15.333c.21 2.264-1.502 1.243-2.45 1.074ZM68.034 13.582c3.263 1.127 4.816 4.375 3.617 7.217-1.262 2.998-3.615 4.099-6.697 3.156-2.936-.897-4.46-4.185-3.257-7.041 1.281-3.009 3.643-3.93 6.337-3.332Z"/></g></svg>