<svg width="70" height="70" viewBox="0 0 70 70" fill="none" xmlns="http://www.w3.org/2000/svg">
<circle cx="34.9946" cy="34.9946" r="34.9946" fill="url(#paint0_linear_3772_3327)"/>
<path d="M21.6562 29.6617C21.6562 29.6617 27.6249 22.9961 34.9875 22.9961C42.3501 22.9961 48.3188 29.6617 48.3188 29.6617" stroke="white" stroke-width="2.1" stroke-linecap="round"/>
<path d="M47.7109 36.3869C48.1162 36.9552 48.3188 37.2394 48.3188 37.66C48.3188 38.0806 48.1162 38.3648 47.7109 38.9332C45.8897 41.4869 41.2388 46.9919 34.9875 46.9919C28.7362 46.9919 24.0853 41.4869 22.2642 38.9332C21.8589 38.3648 21.6562 38.0806 21.6562 37.66C21.6562 37.2394 21.8589 36.9552 22.2642 36.3869C24.0853 33.8331 28.7362 28.3281 34.9875 28.3281C41.2388 28.3281 45.8897 33.8331 47.7109 36.3869Z" stroke="white" stroke-width="2.1" stroke-linecap="round"/>
<path d="M38.991 37.6595C38.991 35.4507 37.2004 33.6602 34.9916 33.6602C32.7827 33.6602 30.9922 35.4507 30.9922 37.6595C30.9922 39.8684 32.7827 41.6589 34.9916 41.6589C37.2004 41.6589 38.991 39.8684 38.991 37.6595Z" stroke="white" stroke-width="2.1" stroke-linecap="round"/>
<defs>
<linearGradient id="paint0_linear_3772_3327" x1="34.9946" y1="0" x2="34.9946" y2="69.9892" gradientUnits="userSpaceOnUse">
<stop stop-color="#FF5E01"/>
<stop offset="1" stop-color="#FF9404"/>
</linearGradient>
</defs>
</svg>
