<svg width="55" height="55" viewBox="0 0 55 55" fill="none" xmlns="http://www.w3.org/2000/svg">
<rect width="55" height="55" rx="27.5" fill="url(#paint0_linear_3773_4159)"/>
<path d="M29.2639 18.968L29.0383 19.0125L28.9026 19.34L29.0307 19.531C29.1699 19.7385 29.2327 19.9879 29.2084 20.2366C29.1841 20.4852 29.0743 20.7177 28.8976 20.8944L28.0184 21.7736C27.8417 21.9503 27.6092 22.0601 27.3606 22.0844C27.1119 22.1087 26.8625 22.0459 26.655 21.9067L26.464 21.7787L26.1365 21.9144L26.092 22.14C26.044 22.3853 25.9121 22.6062 25.7191 22.7649C25.526 22.9236 25.2838 23.0102 25.0338 23.0099H24.4121V30.3841C25.1693 30.6369 25.9115 30.9828 26.6269 31.2616C28.2508 31.8946 29.7403 32.2197 31.4928 32.2215C33.0389 32.1736 33.8043 33.5337 33.4756 34.6213C35.1406 33.9144 36.8363 32.8147 38.2649 31.9385V16.023H29.9214C30.0596 16.209 30.1341 16.4346 30.1338 16.6664V17.9098C30.1341 18.1597 30.0475 18.4019 29.8888 18.595C29.7301 18.7881 29.5092 18.9199 29.2639 18.968H29.2639ZM35.7589 31.108H26.9181C26.8057 31.108 26.6979 31.0634 26.6184 30.9839C26.5389 30.9044 26.4943 30.7966 26.4943 30.6842C26.4943 30.5718 26.5389 30.464 26.6184 30.3845C26.6979 30.305 26.8057 30.2604 26.9181 30.2604H35.7589C35.8713 30.2604 35.9791 30.305 36.0586 30.3845C36.138 30.464 36.1827 30.5718 36.1827 30.6842C36.1827 30.7966 36.138 30.9044 36.0586 30.9839C35.9791 31.0634 35.8713 31.108 35.7589 31.108ZM35.7589 28.781H26.9181C26.8057 28.781 26.6979 28.7363 26.6184 28.6568C26.5389 28.5774 26.4943 28.4696 26.4943 28.3571C26.4943 28.2447 26.5389 28.1369 26.6184 28.0575C26.6979 27.978 26.8057 27.9333 26.9181 27.9333H35.7589C35.8713 27.9333 35.9791 27.978 36.0586 28.0575C36.138 28.1369 36.1827 28.2447 36.1827 28.3571C36.1827 28.4696 36.138 28.5774 36.0586 28.6568C35.9791 28.7363 35.8713 28.781 35.7589 28.781ZM35.7589 26.4539H26.9181C26.8057 26.4539 26.6979 26.4092 26.6184 26.3297C26.5389 26.2502 26.4943 26.1424 26.4943 26.03C26.4943 25.9176 26.5389 25.8098 26.6184 25.7303C26.6979 25.6509 26.8057 25.6062 26.9181 25.6062H35.7589C35.8713 25.6062 35.9791 25.6509 36.0586 25.7303C36.138 25.8098 36.1827 25.9176 36.1827 26.03C36.1827 26.1424 36.138 26.2502 36.0586 26.3297C35.9791 26.4092 35.8713 26.4539 35.7589 26.4539ZM35.7589 24.1267H26.9181C26.8057 24.1267 26.6979 24.0821 26.6184 24.0026C26.5389 23.9231 26.4943 23.8153 26.4943 23.7029C26.4943 23.5905 26.5389 23.4827 26.6184 23.4032C26.6979 23.3237 26.8057 23.2791 26.9181 23.2791H35.7589C35.8713 23.2791 35.9791 23.3237 36.0586 23.4032C36.138 23.4827 36.1827 23.5905 36.1827 23.7029C36.1827 23.8153 36.138 23.9231 36.0586 24.0026C35.9791 24.0821 35.8713 24.1267 35.7589 24.1267ZM32.0405 18.6249H35.7589C35.8713 18.6249 35.9791 18.6696 36.0586 18.749C36.138 18.8285 36.1827 18.9363 36.1827 19.0487C36.1827 19.1611 36.138 19.2689 36.0586 19.3484C35.9791 19.4279 35.8713 19.4726 35.7589 19.4726H32.0405C31.9281 19.4726 31.8203 19.4279 31.7408 19.3484C31.6613 19.2689 31.6167 19.1611 31.6167 19.0487C31.6167 18.9363 31.6613 18.8285 31.7408 18.749C31.8203 18.6696 31.9281 18.6249 32.0405 18.6249ZM30.3924 20.952H35.7589C35.8713 20.952 35.9791 20.9967 36.0586 21.0762C36.138 21.1556 36.1827 21.2634 36.1827 21.3759C36.1827 21.4883 36.138 21.5961 36.0586 21.6755C35.9791 21.755 35.8713 21.7997 35.7589 21.7997H30.3924C30.28 21.7997 30.1722 21.755 30.0927 21.6755C30.0132 21.5961 29.9686 21.4883 29.9686 21.3759C29.9686 21.2634 30.0132 21.1556 30.0927 21.0762C30.1722 20.9967 30.28 20.952 30.3924 20.952ZM19.7243 18.1364L20.3953 18.2686L20.8786 19.435L20.4976 20.0031C20.4675 20.0474 20.4538 20.1009 20.459 20.1542C20.4642 20.2076 20.4879 20.2574 20.5261 20.295L21.4053 21.1742C21.443 21.2123 21.4928 21.2361 21.5461 21.2413C21.5994 21.2465 21.6528 21.2329 21.6972 21.2027L22.2653 20.8218L23.4316 21.305L23.5639 21.9761C23.5739 22.0287 23.602 22.0761 23.6434 22.1102C23.6848 22.1442 23.7368 22.1626 23.7904 22.1623H25.0338C25.1452 22.1623 25.2387 22.0854 25.2603 21.9761L25.3926 21.3051L26.5589 20.8218L27.127 21.2028C27.1713 21.2329 27.2248 21.2466 27.2781 21.2414C27.3314 21.2362 27.3812 21.2124 27.4188 21.1743L28.298 20.2951C28.3362 20.2574 28.3599 20.2076 28.3651 20.1543C28.3703 20.101 28.3566 20.0475 28.3265 20.0032L27.9455 19.4351L28.4288 18.2687L29.0997 18.1364C29.1524 18.1264 29.1998 18.0982 29.2339 18.0568C29.2679 18.0154 29.2863 17.9634 29.286 17.9098V16.6665C29.2863 16.6129 29.2679 16.5609 29.2338 16.5195C29.1998 16.4781 29.1524 16.45 29.0997 16.4399L28.4288 16.3077L27.9455 15.1413L28.3265 14.5732C28.3566 14.5289 28.3703 14.4754 28.3651 14.4221C28.3599 14.3688 28.3362 14.319 28.298 14.2813L27.4188 13.4021C27.3811 13.364 27.3313 13.3403 27.278 13.3351C27.2247 13.3298 27.1712 13.3435 27.1269 13.3736L26.5588 13.7546L25.3925 13.2714L25.2602 12.6003C25.2501 12.5477 25.222 12.5002 25.1806 12.4662C25.1392 12.4322 25.0872 12.4137 25.0337 12.4141H23.7902C23.7366 12.4137 23.6846 12.4322 23.6432 12.4662C23.6019 12.5002 23.5737 12.5477 23.5637 12.6003L23.4314 13.2714L22.265 13.7546L21.6969 13.3736C21.6526 13.3435 21.5992 13.3299 21.5458 13.3351C21.4925 13.3403 21.4427 13.364 21.4051 13.4021L20.5258 14.2813C20.4877 14.319 20.464 14.3688 20.4588 14.4221C20.4536 14.4754 20.4672 14.5289 20.4974 14.5732L20.8783 15.1413L20.3951 16.3077L19.7241 16.4399C19.6715 16.45 19.624 16.4781 19.59 16.5195C19.556 16.5609 19.5375 16.6129 19.5379 16.6665V17.9098C19.5379 18.0213 19.6148 18.1149 19.7241 18.1364L19.7243 18.1364ZM24.4121 14.7885C25.7925 14.7885 26.9116 15.9076 26.9116 17.2881C26.9116 18.6686 25.7925 19.7876 24.4121 19.7876C23.0316 19.7876 21.9126 18.6686 21.9126 17.2881C21.9126 15.9076 23.0317 14.7885 24.4121 14.7885ZM41.1293 33.5615C40.5342 34.3438 37.123 36.4145 35.1603 37.4542C33.4363 38.3674 32.2332 38.9003 30.2699 38.9437C28.8649 38.9748 27.3334 38.7895 26.0501 38.7127C24.382 38.6129 22.8244 38.6261 21.4195 39.2871C21.4025 39.2686 21.3852 39.2505 21.3674 39.2327L16.9335 34.7987L16.9204 34.786C23.3784 27.1572 23.8125 33.069 31.507 33.069C32.8156 33.0195 33.1363 34.5783 32.0476 34.9743C31.6816 35.1075 31.1885 35.1704 30.6525 35.1835C29.2527 35.2178 27.6421 34.8893 27.0052 34.5579C26.7807 34.4411 26.465 34.5318 26.3483 34.7563C26.2316 34.9809 26.2845 35.2905 26.6021 35.4556C27.338 35.8386 29.1498 36.2192 30.6936 36.1815C33.7094 36.0877 37.3061 33.4515 39.5824 32.1373C40.8815 31.3873 41.981 32.4418 41.1294 33.5615H41.1293ZM20.6799 39.9203C21.046 40.2864 21.046 40.8855 20.6799 41.2516L19.3435 42.5881L13.5781 36.8228L14.9146 35.4863C15.2807 35.1202 15.8798 35.1202 16.2459 35.4863L20.68 39.9203L20.6799 39.9203Z" fill="white"/>
<defs>
<linearGradient id="paint0_linear_3773_4159" x1="27.5" y1="0" x2="27.5" y2="55" gradientUnits="userSpaceOnUse">
<stop stop-color="#FF5E01"/>
<stop offset="1" stop-color="#FF9404"/>
</linearGradient>
</defs>
</svg>
