<svg width="50" height="50" viewBox="0 0 50 50" fill="none" xmlns="http://www.w3.org/2000/svg">
<path d="M32.8125 12.5C33.8344 12.5 34.8344 12.2125 35.7 11.6719L46.875 4.6875C46.875 4.2731 46.7104 3.87567 46.4174 3.58265C46.1243 3.28962 45.7269 3.125 45.3125 3.125H20.3125C19.8981 3.125 19.5007 3.28962 19.2076 3.58265C18.9146 3.87567 18.75 4.2731 18.75 4.6875L29.925 11.6719C30.7906 12.2125 31.7906 12.5 32.8125 12.5Z" fill="url(#paint0_linear_816_2917)"/>
<path d="M32.8125 14.0625C31.7914 14.0626 30.7909 13.7756 29.925 13.2344L18.75 6.25V18.75C18.75 19.5788 19.0792 20.3737 19.6653 20.9597C20.2513 21.5458 21.0462 21.875 21.875 21.875H43.75C44.5788 21.875 45.3737 21.5458 45.9597 20.9597C46.5458 20.3737 46.875 19.5788 46.875 18.75V6.25L35.7 13.2344C34.8341 13.7755 33.8336 14.0625 32.8125 14.0625ZM29.6875 34.375C28.4654 34.3755 27.2703 34.7342 26.25 35.4068C25.2297 36.0795 24.429 37.0364 23.9469 38.1594C21.1141 37.245 18.5392 35.6705 16.4343 33.5657C14.3295 31.4608 12.755 28.8859 11.8406 26.0531C12.8776 25.6079 13.7747 24.8903 14.4367 23.9763C15.0987 23.0624 15.5009 21.9863 15.6006 20.8622C15.7003 19.7381 15.4937 18.608 15.0029 17.5918C14.5121 16.5756 13.7553 15.7112 12.8129 15.0905C11.8704 14.4698 10.7775 14.1158 9.6501 14.0661C8.52269 14.0164 7.40286 14.2729 6.40948 14.8084C5.4161 15.3438 4.58622 16.1383 4.00794 17.1073C3.42966 18.0764 3.12455 19.184 3.125 20.3125C3.125 34.9828 15.0172 46.875 29.6875 46.875C31.3451 46.875 32.9348 46.2165 34.1069 45.0444C35.279 43.8723 35.9375 42.2826 35.9375 40.625C35.9375 38.9674 35.279 37.3777 34.1069 36.2056C32.9348 35.0335 31.3451 34.375 29.6875 34.375Z" fill="url(#paint1_linear_816_2917)"/>
<defs>
<linearGradient id="paint0_linear_816_2917" x1="32.8125" y1="3.125" x2="32.8125" y2="12.5" gradientUnits="userSpaceOnUse">
<stop stop-color="#FF5E01"/>
<stop offset="1" stop-color="#FF9404"/>
</linearGradient>
<linearGradient id="paint1_linear_816_2917" x1="25" y1="6.25" x2="25" y2="46.875" gradientUnits="userSpaceOnUse">
<stop stop-color="#FF5E01"/>
<stop offset="1" stop-color="#FF9404"/>
</linearGradient>
</defs>
</svg>
