<svg width="233" height="48" viewBox="0 0 233 48" fill="none" xmlns="http://www.w3.org/2000/svg">
<path d="M0.00260401 42C0.00260375 39.0545 2.39042 36.6667 5.33594 36.6667C8.28146 36.6667 10.6693 39.0545 10.6693 42C10.6693 44.9455 8.28146 47.3333 5.33594 47.3333C2.39042 47.3333 0.00260427 44.9455 0.00260401 42ZM232.565 42L221.018 41.9157L226.864 31.9581L232.565 42ZM5.33594 42C4.79396 41.1596 4.79397 41.1596 4.79398 41.1596C4.79399 41.1596 4.79401 41.1596 4.79402 41.1596C4.79405 41.1595 4.79408 41.1595 4.79412 41.1595C4.79421 41.1594 4.79431 41.1594 4.79445 41.1593C4.79472 41.1591 4.79509 41.1589 4.79556 41.1586C4.79651 41.158 4.79787 41.1571 4.79964 41.156C4.80318 41.1537 4.80836 41.1503 4.81518 41.146C4.82882 41.1372 4.84898 41.1243 4.8756 41.1072C4.92883 41.0732 5.00785 41.0227 5.11198 40.9566C5.32026 40.8244 5.629 40.6295 6.0328 40.3774L6.5623 41.2258L7.09179 42.0741C6.69243 42.3233 6.38799 42.5155 6.18388 42.6451C6.08182 42.7099 6.00484 42.759 5.95362 42.7918C5.92802 42.8082 5.90885 42.8205 5.8962 42.8286C5.88988 42.8327 5.88519 42.8357 5.88214 42.8377C5.88061 42.8387 5.8795 42.8394 5.87879 42.8398C5.87844 42.8401 5.87819 42.8402 5.87805 42.8403C5.87797 42.8404 5.87793 42.8404 5.87791 42.8404C5.8779 42.8404 5.87789 42.8404 5.87789 42.8404C5.87789 42.8404 5.8779 42.8404 5.8779 42.8404C5.87791 42.8404 5.87792 42.8404 5.33594 42ZM9.11844 39.6547L8.59995 38.7996C9.36222 38.3374 10.231 37.8157 11.1989 37.242L11.7088 38.1022L12.2186 38.9625C11.2567 39.5326 10.3937 40.0509 9.63692 40.5098L9.11844 39.6547ZM14.2771 36.5954L13.7748 35.7307C14.5936 35.255 15.4618 34.7552 16.3764 34.234L16.8715 35.1029L17.3665 35.9717C16.4569 36.49 15.5936 36.9871 14.7794 37.4601L14.2771 36.5954ZM19.482 33.6292L18.9939 32.7564C19.8405 32.283 20.7186 31.7962 21.6267 31.2977L22.108 32.1743L22.5892 33.0509C21.6858 33.5468 20.8122 34.0311 19.9701 34.502L19.482 33.6292ZM24.7506 30.737L24.2763 29.8566C25.1336 29.3947 26.0133 28.9249 26.9142 28.4484L27.3817 29.3324L27.8492 30.2164C26.953 30.6904 26.0778 31.1578 25.225 31.6173L24.7506 30.737ZM30.0261 27.947L29.5655 27.0594C30.4396 26.6059 31.331 26.1476 32.2386 25.6857L32.6922 26.5769L33.1458 27.4681C32.2429 27.9276 31.3562 28.3834 30.4867 28.8346L30.0261 27.947ZM35.3796 25.2229L34.9332 24.328C35.8141 23.8886 36.7085 23.4469 37.6156 23.0037L38.0546 23.9021L38.4936 24.8006C37.5915 25.2414 36.702 25.6807 35.8259 26.1177L35.3796 25.2229ZM40.7479 22.6L40.3164 21.6979C41.2136 21.2687 42.122 20.8388 43.0407 20.4091L43.4644 21.3148L43.8881 22.2206C42.9748 22.6479 42.0716 23.0753 41.1794 23.5021L40.7479 22.6ZM46.1766 20.0606L45.7609 19.1511C46.6641 18.7383 47.5762 18.3262 48.4966 17.9155L48.9041 18.8288L49.3115 19.742C48.3967 20.1501 47.4901 20.5597 46.5923 20.9701L46.1766 20.0606ZM51.6534 17.6176L51.2546 16.7005C52.1652 16.3045 53.0831 15.9105 54.0076 15.519L54.3975 16.4399L54.7874 17.3607C53.869 17.7496 52.9571 18.1411 52.0522 18.5346L51.6534 17.6176ZM57.1625 15.2855L56.7819 14.3607C57.7054 13.9807 58.6347 13.6038 59.5694 13.2305L59.9402 14.1592L60.3111 15.0879C59.383 15.4585 58.4602 15.8328 57.5431 16.2102L57.1625 15.2855ZM62.7239 13.0651L62.3632 12.1324C63.2963 11.7716 64.2341 11.4149 65.176 11.063L65.526 11.9997L65.876 12.9365C64.9414 13.2857 64.0108 13.6396 63.0846 13.9978L62.7239 13.0651ZM68.3355 10.9689L67.9967 10.028C68.9387 9.68879 69.8842 9.3548 70.8327 9.02659L71.1597 9.97162L71.4867 10.9166C70.5463 11.242 69.6087 11.5733 68.6743 11.9097L68.3355 10.9689ZM73.9962 9.01077L73.6817 8.06153C74.6335 7.74612 75.5878 7.43701 76.5439 7.13477L76.8453 8.08828L77.1467 9.04178C76.1996 9.34117 75.2541 9.64742 74.3108 9.96L73.9962 9.01077ZM79.7068 7.20651L79.4193 6.24871C80.3813 5.96001 81.3447 5.67876 82.309 5.40552L82.5816 6.36763L82.8543 7.32975C81.9002 7.60011 80.9466 7.87848 79.9942 8.1643L79.7068 7.20651ZM85.4703 5.5743L85.2135 4.60785C86.1845 4.34979 87.1558 4.10038 88.127 3.86022L88.3671 4.83098L88.6071 5.80174C87.6475 6.03904 86.6873 6.28557 85.7272 6.54075L85.4703 5.5743ZM91.2849 4.13772L91.0629 3.16268C92.0449 2.93905 93.0262 2.72546 94.0062 2.52252L94.209 3.50175L94.4118 4.48097C93.445 4.68117 92.4766 4.89195 91.507 5.11275L91.2849 4.13772ZM97.147 2.92522L96.9649 1.94194C97.959 1.75786 98.9512 1.58542 99.9409 1.42526L100.101 2.41242L100.26 3.39957C99.2861 3.55725 98.3088 3.72709 97.3291 3.9085L97.147 2.92522ZM103.055 1.97055L102.92 0.9798C103.924 0.842177 104.925 0.717997 105.923 0.60794L106.032 1.60191L106.142 2.59587C105.163 2.70395 104.179 2.82596 103.191 2.96129L103.055 1.97055ZM109.014 1.31506L108.933 0.318381C109.94 0.236037 110.943 0.169051 111.941 0.118143L111.992 1.11684L112.043 2.11555C111.066 2.16538 110.083 2.23099 109.096 2.31173L109.014 1.31506ZM114.994 1.01317L114.976 0.0133304C115.479 0.00448027 115.981 9.40061e-06 116.48 9.35692e-06L116.48 1.00001L116.48 2.00001C115.993 2.00001 115.503 2.00437 115.011 2.01302L114.994 1.01317ZM116.48 1.00001L116.48 9.35692e-06C116.973 9.31387e-06 117.467 0.0043504 117.964 0.0129372L117.947 1.01279L117.929 2.01264C117.444 2.00425 116.961 2.00001 116.48 2.00001L116.48 1.00001ZM120.916 1.11345L120.966 0.114698C121.949 0.163873 122.94 0.228505 123.936 0.307912L123.857 1.30475L123.777 2.30159C122.8 2.22369 121.829 2.16036 120.866 2.1122L120.916 1.11345ZM126.806 1.58083L126.912 0.586518C127.896 0.691949 128.886 0.810826 129.879 0.942517L129.748 1.93385L129.617 2.92518C128.639 2.79561 127.666 2.67873 126.699 2.57514L126.806 1.58083ZM132.671 2.35578L132.825 1.36772C133.803 1.52038 134.786 1.68469 135.772 1.86007L135.597 2.84461L135.422 3.82916C134.449 3.65619 133.481 3.49423 132.516 3.34383L132.671 2.35578ZM138.5 3.39096L138.695 2.41006C139.664 2.60236 140.637 2.80471 141.611 3.01656L141.398 3.99372L141.186 4.97089C140.223 4.76155 139.263 4.56171 138.305 4.37187L138.5 3.39096ZM144.288 4.64834L144.517 3.67497C145.478 3.90133 146.44 4.13638 147.404 4.37961L147.159 5.34918L146.914 6.31876C145.961 6.07807 145.009 5.84555 144.058 5.62171L144.288 4.64834ZM150.027 6.09671L150.287 5.13093C151.241 5.38721 152.195 5.65099 153.15 5.9218L152.877 6.8838L152.604 7.84581C151.658 7.57751 150.713 7.31624 149.768 7.06248L150.027 6.09671ZM155.72 7.7115L156.006 6.75323C156.954 7.03614 157.901 7.32552 158.848 7.62089L158.55 8.57546L158.252 9.53005C157.313 9.23712 156.374 8.95021 155.434 8.66977L155.72 7.7115ZM161.37 9.47448L161.679 8.52354C162.621 8.8299 163.561 9.14175 164.499 9.45861L164.179 10.406L163.858 11.3533C162.928 11.0388 161.995 10.7294 161.061 10.4254L161.37 9.47448ZM166.979 11.3693L167.309 10.4255C168.244 10.7528 169.176 11.0847 170.105 11.4207L169.765 12.3611L169.425 13.3015C168.502 12.9678 167.577 12.6382 166.648 12.3131L166.979 11.3693ZM172.545 13.3823L172.895 12.4453C173.824 12.792 174.75 13.1424 175.672 13.496L175.313 14.4296L174.955 15.3632C174.039 15.0119 173.12 14.6637 172.196 14.3192L172.545 13.3823ZM178.07 15.5018L178.436 14.5714C179.362 14.9363 180.283 15.3039 181.197 15.6737L180.823 16.6008L180.448 17.5279C179.538 17.1602 178.623 16.7948 177.703 16.4321L178.07 15.5018ZM183.553 17.7183L183.936 16.7944C184.858 17.1762 185.773 17.5599 186.682 17.9448L186.292 18.8655L185.902 19.7863C184.998 19.4035 184.088 19.0219 183.171 18.6422L183.553 17.7183ZM189.011 20.0301L189.408 19.1125C190.321 19.5079 191.226 19.9041 192.123 20.3004L191.719 21.215L191.314 22.1297C190.422 21.7354 189.522 21.3412 188.613 20.9478L189.011 20.0301ZM194.429 22.4254L194.84 21.5138C195.747 21.923 196.645 22.3317 197.531 22.7392L197.114 23.6478L196.696 24.5564C195.814 24.1508 194.921 23.7441 194.018 23.337L194.429 22.4254ZM199.803 24.8956L200.227 23.99C201.136 24.4158 202.033 24.8396 202.916 25.2605L202.485 26.1632L202.055 27.0658C201.176 26.6468 200.284 26.225 199.379 25.8012L199.803 24.8956ZM205.142 27.4409L205.578 26.5412C206.483 26.9803 207.372 27.4153 208.244 27.8455L207.801 28.7423L207.359 29.6391C206.491 29.2108 205.606 28.7777 204.705 28.3407L205.142 27.4409ZM210.462 30.0665L210.911 29.1727C211.815 29.6262 212.697 30.0729 213.557 30.5116L213.103 31.4024L212.649 32.2932C211.792 31.8564 210.914 31.4117 210.014 30.9602L210.462 30.0665ZM215.725 32.751L216.186 31.8632C217.087 32.3305 217.959 32.7865 218.8 33.2297L218.334 34.1144L217.867 34.999C217.03 34.5579 216.162 34.1039 215.265 33.6388L215.725 32.751ZM220.952 35.5057L221.424 34.6243C222.341 35.1154 223.211 35.586 224.032 36.0335L223.554 36.9116L223.075 37.7897C222.258 37.3443 221.392 36.876 220.48 36.3872L220.952 35.5057ZM226.155 38.342L226.64 37.4676C227.614 38.0079 228.488 38.4986 229.255 38.9329L228.762 39.803L228.269 40.6732C227.507 40.2417 226.638 39.7538 225.67 39.2164L226.155 38.342ZM0.00260401 42C0.00260375 39.0545 2.39042 36.6667 5.33594 36.6667C8.28146 36.6667 10.6693 39.0545 10.6693 42C10.6693 44.9455 8.28146 47.3333 5.33594 47.3333C2.39042 47.3333 0.00260427 44.9455 0.00260401 42ZM232.565 42L221.018 41.9157L226.864 31.9581L232.565 42ZM5.33594 42C4.79396 41.1596 4.79397 41.1596 4.79398 41.1596C4.79399 41.1596 4.79401 41.1596 4.79402 41.1596C4.79405 41.1595 4.79408 41.1595 4.79412 41.1595C4.79421 41.1594 4.79431 41.1594 4.79445 41.1593C4.79472 41.1591 4.79509 41.1589 4.79556 41.1586C4.79651 41.158 4.79787 41.1571 4.79964 41.156C4.80318 41.1537 4.80836 41.1503 4.81518 41.146C4.82882 41.1372 4.84898 41.1243 4.8756 41.1072C4.92883 41.0732 5.00785 41.0227 5.11198 40.9566C5.32026 40.8244 5.629 40.6295 6.0328 40.3774L6.5623 41.2258L7.09179 42.0741C6.69243 42.3233 6.38799 42.5155 6.18388 42.6451C6.08182 42.7099 6.00484 42.759 5.95362 42.7918C5.92802 42.8082 5.90885 42.8205 5.8962 42.8286C5.88988 42.8327 5.88519 42.8357 5.88214 42.8377C5.88061 42.8387 5.8795 42.8394 5.87879 42.8398C5.87844 42.8401 5.87819 42.8402 5.87805 42.8403C5.87797 42.8404 5.87793 42.8404 5.87791 42.8404C5.8779 42.8404 5.87789 42.8404 5.87789 42.8404C5.87789 42.8404 5.8779 42.8404 5.8779 42.8404C5.87791 42.8404 5.87792 42.8404 5.33594 42ZM9.11844 39.6547L8.59995 38.7996C9.36222 38.3374 10.231 37.8157 11.1989 37.242L11.7088 38.1022L12.2186 38.9625C11.2567 39.5326 10.3937 40.0509 9.63692 40.5098L9.11844 39.6547ZM14.2771 36.5954L13.7748 35.7307C14.5936 35.255 15.4618 34.7552 16.3764 34.234L16.8715 35.1029L17.3665 35.9717C16.4569 36.49 15.5936 36.9871 14.7794 37.4601L14.2771 36.5954ZM19.482 33.6292L18.9939 32.7564C19.8405 32.283 20.7186 31.7962 21.6267 31.2977L22.108 32.1743L22.5892 33.0509C21.6858 33.5468 20.8122 34.0311 19.9701 34.502L19.482 33.6292ZM24.7506 30.737L24.2763 29.8566C25.1336 29.3947 26.0133 28.9249 26.9142 28.4484L27.3817 29.3324L27.8492 30.2164C26.953 30.6904 26.0778 31.1578 25.225 31.6173L24.7506 30.737ZM30.0261 27.947L29.5655 27.0594C30.4396 26.6059 31.331 26.1476 32.2386 25.6857L32.6922 26.5769L33.1458 27.4681C32.2429 27.9276 31.3562 28.3834 30.4867 28.8346L30.0261 27.947ZM35.3796 25.2229L34.9332 24.328C35.8141 23.8886 36.7085 23.4469 37.6156 23.0037L38.0546 23.9021L38.4936 24.8006C37.5915 25.2414 36.702 25.6807 35.8259 26.1177L35.3796 25.2229ZM40.7479 22.6L40.3164 21.6979C41.2136 21.2687 42.122 20.8388 43.0407 20.4091L43.4644 21.3148L43.8881 22.2206C42.9748 22.6479 42.0716 23.0753 41.1794 23.5021L40.7479 22.6ZM46.1766 20.0606L45.7609 19.1511C46.6641 18.7383 47.5762 18.3262 48.4966 17.9155L48.9041 18.8288L49.3115 19.742C48.3967 20.1501 47.4901 20.5597 46.5923 20.9701L46.1766 20.0606ZM51.6534 17.6176L51.2546 16.7005C52.1652 16.3045 53.0831 15.9105 54.0076 15.519L54.3975 16.4399L54.7874 17.3607C53.869 17.7496 52.9571 18.1411 52.0522 18.5346L51.6534 17.6176ZM57.1625 15.2855L56.7819 14.3607C57.7054 13.9807 58.6347 13.6038 59.5694 13.2305L59.9402 14.1592L60.3111 15.0879C59.383 15.4585 58.4602 15.8328 57.5431 16.2102L57.1625 15.2855ZM62.7239 13.0651L62.3632 12.1324C63.2963 11.7716 64.2341 11.4149 65.176 11.063L65.526 11.9997L65.876 12.9365C64.9414 13.2857 64.0108 13.6396 63.0846 13.9978L62.7239 13.0651ZM68.3355 10.9689L67.9967 10.028C68.9387 9.68879 69.8842 9.3548 70.8327 9.02659L71.1597 9.97162L71.4867 10.9166C70.5463 11.242 69.6087 11.5733 68.6743 11.9097L68.3355 10.9689ZM73.9962 9.01077L73.6817 8.06153C74.6335 7.74612 75.5878 7.43701 76.5439 7.13477L76.8453 8.08828L77.1467 9.04178C76.1996 9.34117 75.2541 9.64742 74.3108 9.96L73.9962 9.01077ZM79.7068 7.20651L79.4193 6.24871C80.3813 5.96001 81.3447 5.67876 82.309 5.40552L82.5816 6.36763L82.8543 7.32975C81.9002 7.60011 80.9466 7.87848 79.9942 8.1643L79.7068 7.20651ZM85.4703 5.5743L85.2135 4.60785C86.1845 4.34979 87.1558 4.10038 88.127 3.86022L88.3671 4.83098L88.6071 5.80174C87.6475 6.03904 86.6873 6.28557 85.7272 6.54075L85.4703 5.5743ZM91.2849 4.13772L91.0629 3.16268C92.0449 2.93905 93.0262 2.72546 94.0062 2.52252L94.209 3.50175L94.4118 4.48097C93.445 4.68117 92.4766 4.89195 91.507 5.11275L91.2849 4.13772ZM97.147 2.92522L96.9649 1.94194C97.959 1.75786 98.9512 1.58542 99.9409 1.42526L100.101 2.41242L100.26 3.39957C99.2861 3.55725 98.3088 3.72709 97.3291 3.9085L97.147 2.92522ZM103.055 1.97055L102.92 0.9798C103.924 0.842177 104.925 0.717997 105.923 0.60794L106.032 1.60191L106.142 2.59587C105.163 2.70395 104.179 2.82596 103.191 2.96129L103.055 1.97055ZM109.014 1.31506L108.933 0.318381C109.94 0.236037 110.943 0.169051 111.941 0.118143L111.992 1.11684L112.043 2.11555C111.066 2.16538 110.083 2.23099 109.096 2.31173L109.014 1.31506ZM114.994 1.01317L114.976 0.0133304C115.479 0.00448027 115.981 9.40061e-06 116.48 9.35692e-06L116.48 1.00001L116.48 2.00001C115.993 2.00001 115.503 2.00437 115.011 2.01302L114.994 1.01317ZM116.48 1.00001L116.48 9.35692e-06C116.973 9.31387e-06 117.467 0.0043504 117.964 0.0129372L117.947 1.01279L117.929 2.01264C117.444 2.00425 116.961 2.00001 116.48 2.00001L116.48 1.00001ZM120.916 1.11345L120.966 0.114698C121.949 0.163873 122.94 0.228505 123.936 0.307912L123.857 1.30475L123.777 2.30159C122.8 2.22369 121.829 2.16036 120.866 2.1122L120.916 1.11345ZM126.806 1.58083L126.912 0.586518C127.896 0.691949 128.886 0.810826 129.879 0.942517L129.748 1.93385L129.617 2.92518C128.639 2.79561 127.666 2.67873 126.699 2.57514L126.806 1.58083ZM132.671 2.35578L132.825 1.36772C133.803 1.52038 134.786 1.68469 135.772 1.86007L135.597 2.84461L135.422 3.82916C134.449 3.65619 133.481 3.49423 132.516 3.34383L132.671 2.35578ZM138.5 3.39096L138.695 2.41006C139.664 2.60236 140.637 2.80471 141.611 3.01656L141.398 3.99372L141.186 4.97089C140.223 4.76155 139.263 4.56171 138.305 4.37187L138.5 3.39096ZM144.288 4.64834L144.517 3.67497C145.478 3.90133 146.44 4.13638 147.404 4.37961L147.159 5.34918L146.914 6.31876C145.961 6.07807 145.009 5.84555 144.058 5.62171L144.288 4.64834ZM150.027 6.09671L150.287 5.13093C151.241 5.38721 152.195 5.65099 153.15 5.9218L152.877 6.8838L152.604 7.84581C151.658 7.57751 150.713 7.31624 149.768 7.06248L150.027 6.09671ZM155.72 7.7115L156.006 6.75323C156.954 7.03614 157.901 7.32552 158.848 7.62089L158.55 8.57546L158.252 9.53005C157.313 9.23712 156.374 8.95021 155.434 8.66977L155.72 7.7115ZM161.37 9.47448L161.679 8.52354C162.621 8.8299 163.561 9.14175 164.499 9.45861L164.179 10.406L163.858 11.3533C162.928 11.0388 161.995 10.7294 161.061 10.4254L161.37 9.47448ZM166.979 11.3693L167.309 10.4255C168.244 10.7528 169.176 11.0847 170.105 11.4207L169.765 12.3611L169.425 13.3015C168.502 12.9678 167.577 12.6382 166.648 12.3131L166.979 11.3693ZM172.545 13.3823L172.895 12.4453C173.824 12.792 174.75 13.1424 175.672 13.496L175.313 14.4296L174.955 15.3632C174.039 15.0119 173.12 14.6637 172.196 14.3192L172.545 13.3823ZM178.07 15.5018L178.436 14.5714C179.362 14.9363 180.283 15.3039 181.197 15.6737L180.823 16.6008L180.448 17.5279C179.538 17.1602 178.623 16.7948 177.703 16.4321L178.07 15.5018ZM183.553 17.7183L183.936 16.7944C184.858 17.1762 185.773 17.5599 186.682 17.9448L186.292 18.8655L185.902 19.7863C184.998 19.4035 184.088 19.0219 183.171 18.6422L183.553 17.7183ZM189.011 20.0301L189.408 19.1125C190.321 19.5079 191.226 19.9041 192.123 20.3004L191.719 21.215L191.314 22.1297C190.422 21.7354 189.522 21.3412 188.613 20.9478L189.011 20.0301ZM194.429 22.4254L194.84 21.5138C195.747 21.923 196.645 22.3317 197.531 22.7392L197.114 23.6478L196.696 24.5564C195.814 24.1508 194.921 23.7441 194.018 23.337L194.429 22.4254ZM199.803 24.8956L200.227 23.99C201.136 24.4158 202.033 24.8396 202.916 25.2605L202.485 26.1632L202.055 27.0658C201.176 26.6468 200.284 26.225 199.379 25.8012L199.803 24.8956ZM205.142 27.4409L205.578 26.5412C206.483 26.9803 207.372 27.4153 208.244 27.8455L207.801 28.7423L207.359 29.6391C206.491 29.2108 205.606 28.7777 204.705 28.3407L205.142 27.4409ZM210.462 30.0665L210.911 29.1727C211.815 29.6262 212.697 30.0729 213.557 30.5116L213.103 31.4024L212.649 32.2932C211.792 31.8564 210.914 31.4117 210.014 30.9602L210.462 30.0665ZM215.725 32.751L216.186 31.8632C217.087 32.3305 217.959 32.7865 218.8 33.2297L218.334 34.1144L217.867 34.999C217.03 34.5579 216.162 34.1039 215.265 33.6388L215.725 32.751ZM220.952 35.5057L221.424 34.6243C222.341 35.1154 223.211 35.586 224.032 36.0335L223.554 36.9116L223.075 37.7897C222.258 37.3443 221.392 36.876 220.48 36.3872L220.952 35.5057ZM226.155 38.342L226.64 37.4676C227.614 38.0079 228.488 38.4986 229.255 38.9329L228.762 39.803L228.269 40.6732C227.507 40.2417 226.638 39.7538 225.67 39.2164L226.155 38.342Z" fill="url(#paint0_linear_3964_2174)"/>
<defs>
<linearGradient id="paint0_linear_3964_2174" x1="118.95" y1="42" x2="118.95" y2="1.00001" gradientUnits="userSpaceOnUse">
<stop stop-color="#FF5E01"/>
<stop offset="1" stop-color="#FF9404"/>
</linearGradient>
</defs>
</svg>
