<svg width="233" height="47" viewBox="0 0 233 47" fill="none" xmlns="http://www.w3.org/2000/svg">
<path d="M-0.00312487 4.80078C-0.0031251 7.45175 2.14591 9.60078 4.79687 9.60078C7.44784 9.60078 9.59687 7.45175 9.59687 4.80078C9.59688 2.14981 7.44784 0.000781609 4.79688 0.000781377C2.14591 0.000781145 -0.00312464 2.14981 -0.00312487 4.80078ZM232.026 4.8008L221.634 4.87666L226.895 13.8385L232.026 4.8008ZM4.79688 4.80078C4.30909 5.55713 4.3091 5.55714 4.30912 5.55715C4.30912 5.55715 4.30914 5.55716 4.30915 5.55717C4.30918 5.55719 4.30921 5.55721 4.30925 5.55724C4.30933 5.55729 4.30943 5.55735 4.30957 5.55744C4.30983 5.55761 4.31019 5.55784 4.31066 5.55814C4.31159 5.55875 4.31294 5.55961 4.3147 5.56074C4.31822 5.56301 4.32338 5.56633 4.33017 5.57069C4.34375 5.57942 4.36387 5.59233 4.39044 5.60933C4.44357 5.64333 4.52248 5.69369 4.62652 5.75973C4.83458 5.89182 5.14311 6.0866 5.54669 6.3385L6.02323 5.57502L6.49978 4.81154C6.1002 4.56213 5.79554 4.36979 5.59122 4.24008C5.48906 4.17523 5.41198 4.12603 5.36066 4.09319C5.335 4.07677 5.31578 4.06444 5.30309 4.05628C5.29674 4.05221 5.29202 4.04917 5.28895 4.04719C5.28741 4.0462 5.28628 4.04548 5.28557 4.04502C5.28521 4.04479 5.28496 4.04462 5.2848 4.04452C5.28473 4.04448 5.28468 4.04444 5.28465 4.04443C5.28464 4.04442 5.28464 4.04442 5.28464 4.04442C5.28464 4.04442 5.28464 4.04442 5.28464 4.04442C5.28465 4.04442 5.28466 4.04443 4.79688 4.80078ZM8.57937 7.14607L8.11274 7.91565C8.87473 8.37768 9.74321 8.89925 10.7108 9.47277L11.1697 8.69855L11.6286 7.92433C10.6664 7.354 9.80306 6.83552 9.04601 6.37649L8.57937 7.14607ZM13.738 10.2054L13.286 10.9836C14.1046 11.4591 14.9725 11.9589 15.8868 12.4799L16.3324 11.6979L16.778 10.916C15.8681 10.3975 15.0045 9.90025 14.1901 9.42717L13.738 10.2054ZM18.9429 13.1716L18.5036 13.9571C19.35 14.4304 20.2279 14.9171 21.1358 15.4155L21.5689 14.6265L22.002 13.8376C21.0984 13.3415 20.2245 12.8571 19.3822 12.386L18.9429 13.1716ZM24.2116 16.0638L23.7847 16.8561C24.6417 17.3179 25.5212 17.7876 26.4219 18.2639L26.8426 17.4683L27.2634 16.6728C26.3669 16.1987 25.4916 15.7312 24.6385 15.2715L24.2116 16.0638ZM29.4871 18.8537L29.0725 19.6526C29.9464 20.106 30.8375 20.5642 31.7449 21.026L32.1531 20.2239L32.5613 19.4218C31.6582 18.9622 30.7713 18.5062 29.9016 18.0549L29.4871 18.8537ZM34.8405 21.5779L34.4388 22.3833C35.3194 22.8225 36.2135 23.2641 37.1204 23.7073L37.5155 22.8986L37.9107 22.09C37.0083 21.6491 36.1186 21.2096 35.2422 20.7725L34.8405 21.5779ZM40.2088 24.2008L39.8204 25.0127C40.7175 25.4418 41.6256 25.8715 42.544 26.3011L42.9254 25.4859L43.3067 24.6707C42.3931 24.2433 41.4896 23.8158 40.5971 23.3889L40.2088 24.2008ZM45.6375 26.7402L45.2634 27.5587C46.1663 27.9714 47.0782 28.3834 47.9983 28.7939L48.365 27.972L48.7317 27.1501C47.8167 26.7419 46.9098 26.3321 46.0117 25.9216L45.6375 26.7402ZM51.1144 29.1832L50.7554 30.0086C51.6658 30.4044 52.5833 30.7984 53.5075 31.1897L53.8584 30.3609L54.2094 29.5321C53.2906 29.1431 52.3784 28.7515 51.4733 28.3579L51.1144 29.1832ZM56.6234 31.5153L56.2809 32.3476C57.204 32.7275 58.1331 33.1043 59.0674 33.4774L59.4012 32.6416L59.7349 31.8057C58.8066 31.435 57.8834 31.0606 56.9659 30.683L56.6234 31.5153ZM62.1848 33.7357L61.8602 34.5751C62.793 34.9358 63.7304 35.2924 64.6719 35.6441L64.9869 34.8011L65.3019 33.958C64.367 33.6087 63.436 33.2546 62.5094 32.8963L62.1848 33.7357ZM67.7965 35.8319L67.4916 36.6787C68.4332 37.0178 69.3783 37.3516 70.3264 37.6797L70.6207 36.8292L70.915 35.9786C69.9742 35.6531 69.0361 35.3217 68.1014 34.9851L67.7965 35.8319ZM73.4572 37.79L73.1741 38.6443C74.1254 38.9596 75.0793 39.2686 76.035 39.5707L76.3063 38.7125L76.5775 37.8544C75.6299 37.5548 74.684 37.2484 73.7403 36.9357L73.4572 37.79ZM79.1677 39.5943L78.909 40.4563C79.8705 40.7448 80.8334 41.026 81.7972 41.2991L82.0426 40.4331L82.2879 39.5672C81.3333 39.2967 80.3793 39.0182 79.4264 38.7323L79.1677 39.5943ZM84.9313 41.2265L84.7001 42.0963C85.6706 42.3542 86.6414 42.6035 87.612 42.8435L87.828 41.9698L88.0441 41.0961C87.0839 40.8587 86.1231 40.612 85.1624 40.3567L84.9313 41.2265ZM90.7459 42.6631L90.546 43.5406C91.5274 43.7641 92.5081 43.9775 93.4874 44.1803L93.6699 43.299L93.8524 42.4177C92.885 42.2174 91.9159 42.0065 90.9457 41.7855L90.7459 42.6631ZM96.6079 43.8756L96.4441 44.7605C97.4374 44.9445 98.4289 45.1168 99.4178 45.2768L99.5616 44.3884L99.7054 43.4999C98.7303 43.3421 97.7522 43.1721 96.7718 42.9906L96.6079 43.8756ZM102.516 44.8302L102.394 45.7219C103.398 45.8594 104.398 45.9835 105.395 46.0934L105.493 45.1989L105.592 44.3043C104.612 44.1961 103.627 44.074 102.638 43.9386L102.516 44.8302ZM108.475 45.4857L108.402 46.3827C109.408 46.465 110.41 46.5319 111.407 46.5828L111.453 45.6839L111.498 44.7851C110.521 44.7352 109.537 44.6695 108.548 44.5887L108.475 45.4857ZM114.455 45.7876L114.439 46.6875C114.941 46.6963 115.442 46.7008 115.941 46.7008L115.941 45.8008L115.941 44.9008C115.453 44.9008 114.963 44.8964 114.471 44.8877L114.455 45.7876ZM115.941 45.8008L115.941 46.7008C116.433 46.7008 116.927 46.6964 117.423 46.6879L117.408 45.788L117.392 44.8881C116.906 44.8965 116.423 44.9008 115.941 44.9008L115.941 45.8008ZM120.377 45.6873L120.422 46.5862C121.404 46.5371 122.394 46.4725 123.389 46.3932L123.317 45.496L123.246 44.5989C122.268 44.6769 121.296 44.7402 120.332 44.7885L120.377 45.6873ZM126.267 45.22L126.363 46.1148C127.346 46.0095 128.334 45.8907 129.327 45.7591L129.209 44.8669L129.091 43.9747C128.112 44.1044 127.139 44.2214 126.171 44.3251L126.267 45.22ZM132.131 44.445L132.27 45.3343C133.248 45.1817 134.23 45.0175 135.215 44.8423L135.058 43.9562L134.9 43.0701C133.927 43.2432 132.958 43.4052 131.993 43.5558L132.131 44.445ZM137.961 43.4098L138.136 44.2926C139.105 44.1005 140.077 43.8982 141.05 43.6865L140.859 42.8071L140.668 41.9276C139.705 42.1371 138.744 42.337 137.786 42.527L137.961 43.4098ZM143.748 42.1524L143.955 43.0285C144.915 42.8022 145.877 42.5673 146.84 42.3242L146.62 41.4516L146.4 40.579C145.446 40.8198 144.493 41.0524 143.542 41.2764L143.748 42.1524ZM149.488 40.7041L149.722 41.5733C150.676 41.3171 151.629 41.0535 152.583 40.7828L152.337 39.917L152.092 39.0512C151.146 39.3196 150.2 39.581 149.255 39.8349L149.488 40.7041ZM155.181 39.0893L155.438 39.9517C156.386 39.6689 157.333 39.3797 158.279 39.0844L158.011 38.2253L157.743 37.3662C156.804 37.6592 155.864 37.9463 154.923 38.2268L155.181 39.0893ZM160.831 37.3263L161.109 38.1821C162.051 37.8759 162.99 37.5642 163.928 37.2474L163.639 36.3948L163.351 35.5422C162.42 35.8568 161.487 36.1664 160.553 36.4705L160.831 37.3263ZM166.439 35.4315L166.737 36.2809C167.672 35.9537 168.604 35.6219 169.532 35.286L169.226 34.4397L168.92 33.5934C167.997 33.9272 167.071 34.2569 166.142 34.582L166.439 35.4315ZM172.006 33.4185L172.321 34.2618C173.25 33.9152 174.176 33.5649 175.097 33.2114L174.774 32.3712L174.452 31.5309C173.536 31.8824 172.616 32.2306 171.692 32.5752L172.006 33.4185ZM177.531 31.299L177.861 32.1363C178.786 31.7716 179.706 31.4041 180.621 31.0343L180.284 30.1999L179.946 29.3656C179.036 29.7334 178.121 30.0989 177.201 30.4617L177.531 31.299ZM183.014 29.0825L183.358 29.914C184.28 29.5323 185.196 29.1487 186.104 28.7639L185.753 27.9353L185.402 27.1066C184.498 27.4895 183.587 27.8711 182.67 28.251L183.014 29.0825ZM188.471 26.7707L188.829 27.5966C189.742 27.2012 190.647 26.8051 191.543 26.4089L191.18 25.5857L190.816 24.7626C189.923 25.157 189.023 25.5512 188.114 25.9448L188.471 26.7707ZM193.89 24.3754L194.26 25.1958C195.167 24.7867 196.064 24.3781 196.95 23.9707L196.575 23.153L196.199 22.3352C195.316 22.7409 194.423 23.1477 193.52 23.555L193.89 24.3754ZM199.264 21.9052L199.645 22.7202C200.554 22.2945 201.451 21.8709 202.333 21.45L201.946 20.6376L201.559 19.8252C200.68 20.2443 199.787 20.6662 198.882 21.0901L199.264 21.9052ZM204.603 19.3598L204.996 20.1696C205.9 19.7306 206.789 19.2957 207.661 18.8656L207.262 18.0585L206.864 17.2514C205.996 17.6798 205.111 18.1129 204.21 18.5501L204.603 19.3598ZM209.923 16.7343L210.327 17.5387C211.231 17.0853 212.113 16.6387 212.973 16.2001L212.564 15.3983L212.155 14.5966C211.299 15.0335 210.42 15.4783 209.52 15.9299L209.923 16.7343ZM215.186 14.0498L215.6 14.8488C216.501 14.3816 217.373 13.9257 218.214 13.4826L217.794 12.6864L217.375 11.8902C216.538 12.3315 215.669 12.7855 214.772 13.2508L215.186 14.0498ZM220.413 11.2951L220.838 12.0884C221.754 11.5974 222.625 11.1269 223.446 10.6794L223.015 9.88919L222.584 9.09893C221.767 9.54436 220.9 10.0128 219.988 10.5018L220.413 11.2951ZM225.616 8.45879L226.053 9.24573C227.026 8.70556 227.9 8.21498 228.666 7.78088L228.223 6.99775L227.779 6.21461C227.017 6.64624 226.148 7.13427 225.179 7.67184L225.616 8.45879ZM-0.00312487 4.80078C-0.0031251 7.45175 2.14591 9.60078 4.79687 9.60078C7.44784 9.60078 9.59687 7.45175 9.59687 4.80078C9.59688 2.14981 7.44784 0.000781609 4.79688 0.000781377C2.14591 0.000781145 -0.00312464 2.14981 -0.00312487 4.80078ZM232.026 4.8008L221.634 4.87666L226.895 13.8385L232.026 4.8008ZM4.79688 4.80078C4.30909 5.55713 4.3091 5.55714 4.30912 5.55715C4.30912 5.55715 4.30914 5.55716 4.30915 5.55717C4.30918 5.55719 4.30921 5.55721 4.30925 5.55724C4.30933 5.55729 4.30943 5.55735 4.30957 5.55744C4.30983 5.55761 4.31019 5.55784 4.31066 5.55814C4.31159 5.55875 4.31294 5.55961 4.3147 5.56074C4.31822 5.56301 4.32338 5.56633 4.33017 5.57069C4.34375 5.57942 4.36387 5.59233 4.39044 5.60933C4.44357 5.64333 4.52248 5.69369 4.62652 5.75973C4.83458 5.89182 5.14311 6.0866 5.54669 6.3385L6.02323 5.57502L6.49978 4.81154C6.1002 4.56213 5.79554 4.36979 5.59122 4.24008C5.48906 4.17523 5.41198 4.12603 5.36066 4.09319C5.335 4.07677 5.31578 4.06444 5.30309 4.05628C5.29674 4.05221 5.29202 4.04917 5.28895 4.04719C5.28741 4.0462 5.28628 4.04548 5.28557 4.04502C5.28521 4.04479 5.28496 4.04462 5.2848 4.04452C5.28473 4.04448 5.28468 4.04444 5.28465 4.04443C5.28464 4.04442 5.28464 4.04442 5.28464 4.04442C5.28464 4.04442 5.28464 4.04442 5.28464 4.04442C5.28465 4.04442 5.28466 4.04443 4.79688 4.80078ZM8.57937 7.14607L8.11274 7.91565C8.87473 8.37768 9.74321 8.89925 10.7108 9.47277L11.1697 8.69855L11.6286 7.92433C10.6664 7.354 9.80306 6.83552 9.04601 6.37649L8.57937 7.14607ZM13.738 10.2054L13.286 10.9836C14.1046 11.4591 14.9725 11.9589 15.8868 12.4799L16.3324 11.6979L16.778 10.916C15.8681 10.3975 15.0045 9.90025 14.1901 9.42717L13.738 10.2054ZM18.9429 13.1716L18.5036 13.9571C19.35 14.4304 20.2279 14.9171 21.1358 15.4155L21.5689 14.6265L22.002 13.8376C21.0984 13.3415 20.2245 12.8571 19.3822 12.386L18.9429 13.1716ZM24.2116 16.0638L23.7847 16.8561C24.6417 17.3179 25.5212 17.7876 26.4219 18.2639L26.8426 17.4683L27.2634 16.6728C26.3669 16.1987 25.4916 15.7312 24.6385 15.2715L24.2116 16.0638ZM29.4871 18.8537L29.0725 19.6526C29.9464 20.106 30.8375 20.5642 31.7449 21.026L32.1531 20.2239L32.5613 19.4218C31.6582 18.9622 30.7713 18.5062 29.9016 18.0549L29.4871 18.8537ZM34.8405 21.5779L34.4388 22.3833C35.3194 22.8225 36.2135 23.2641 37.1204 23.7073L37.5155 22.8986L37.9107 22.09C37.0083 21.6491 36.1186 21.2096 35.2422 20.7725L34.8405 21.5779ZM40.2088 24.2008L39.8204 25.0127C40.7175 25.4418 41.6256 25.8715 42.544 26.3011L42.9254 25.4859L43.3067 24.6707C42.3931 24.2433 41.4896 23.8158 40.5971 23.3889L40.2088 24.2008ZM45.6375 26.7402L45.2634 27.5587C46.1663 27.9714 47.0782 28.3834 47.9983 28.7939L48.365 27.972L48.7317 27.1501C47.8167 26.7419 46.9098 26.3321 46.0117 25.9216L45.6375 26.7402ZM51.1144 29.1832L50.7554 30.0086C51.6658 30.4044 52.5833 30.7984 53.5075 31.1897L53.8584 30.3609L54.2094 29.5321C53.2906 29.1431 52.3784 28.7515 51.4733 28.3579L51.1144 29.1832ZM56.6234 31.5153L56.2809 32.3476C57.204 32.7275 58.1331 33.1043 59.0674 33.4774L59.4012 32.6416L59.7349 31.8057C58.8066 31.435 57.8834 31.0606 56.9659 30.683L56.6234 31.5153ZM62.1848 33.7357L61.8602 34.5751C62.793 34.9358 63.7304 35.2924 64.6719 35.6441L64.9869 34.8011L65.3019 33.958C64.367 33.6087 63.436 33.2546 62.5094 32.8963L62.1848 33.7357ZM67.7965 35.8319L67.4916 36.6787C68.4332 37.0178 69.3783 37.3516 70.3264 37.6797L70.6207 36.8292L70.915 35.9786C69.9742 35.6531 69.0361 35.3217 68.1014 34.9851L67.7965 35.8319ZM73.4572 37.79L73.1741 38.6443C74.1254 38.9596 75.0793 39.2686 76.035 39.5707L76.3063 38.7125L76.5775 37.8544C75.6299 37.5548 74.684 37.2484 73.7403 36.9357L73.4572 37.79ZM79.1677 39.5943L78.909 40.4563C79.8705 40.7448 80.8334 41.026 81.7972 41.2991L82.0426 40.4331L82.2879 39.5672C81.3333 39.2967 80.3793 39.0182 79.4264 38.7323L79.1677 39.5943ZM84.9313 41.2265L84.7001 42.0963C85.6706 42.3542 86.6414 42.6035 87.612 42.8435L87.828 41.9698L88.0441 41.0961C87.0839 40.8587 86.1231 40.612 85.1624 40.3567L84.9313 41.2265ZM90.7459 42.6631L90.546 43.5406C91.5274 43.7641 92.5081 43.9775 93.4874 44.1803L93.6699 43.299L93.8524 42.4177C92.885 42.2174 91.9159 42.0065 90.9457 41.7855L90.7459 42.6631ZM96.6079 43.8756L96.4441 44.7605C97.4374 44.9445 98.4289 45.1168 99.4178 45.2768L99.5616 44.3884L99.7054 43.4999C98.7303 43.3421 97.7522 43.1721 96.7718 42.9906L96.6079 43.8756ZM102.516 44.8302L102.394 45.7219C103.398 45.8594 104.398 45.9835 105.395 46.0934L105.493 45.1989L105.592 44.3043C104.612 44.1961 103.627 44.074 102.638 43.9386L102.516 44.8302ZM108.475 45.4857L108.402 46.3827C109.408 46.465 110.41 46.5319 111.407 46.5828L111.453 45.6839L111.498 44.7851C110.521 44.7352 109.537 44.6695 108.548 44.5887L108.475 45.4857ZM114.455 45.7876L114.439 46.6875C114.941 46.6963 115.442 46.7008 115.941 46.7008L115.941 45.8008L115.941 44.9008C115.453 44.9008 114.963 44.8964 114.471 44.8877L114.455 45.7876ZM115.941 45.8008L115.941 46.7008C116.433 46.7008 116.927 46.6964 117.423 46.6879L117.408 45.788L117.392 44.8881C116.906 44.8965 116.423 44.9008 115.941 44.9008L115.941 45.8008ZM120.377 45.6873L120.422 46.5862C121.404 46.5371 122.394 46.4725 123.389 46.3932L123.317 45.496L123.246 44.5989C122.268 44.6769 121.296 44.7402 120.332 44.7885L120.377 45.6873ZM126.267 45.22L126.363 46.1148C127.346 46.0095 128.334 45.8907 129.327 45.7591L129.209 44.8669L129.091 43.9747C128.112 44.1044 127.139 44.2214 126.171 44.3251L126.267 45.22ZM132.131 44.445L132.27 45.3343C133.248 45.1817 134.23 45.0175 135.215 44.8423L135.058 43.9562L134.9 43.0701C133.927 43.2432 132.958 43.4052 131.993 43.5558L132.131 44.445ZM137.961 43.4098L138.136 44.2926C139.105 44.1005 140.077 43.8982 141.05 43.6865L140.859 42.8071L140.668 41.9276C139.705 42.1371 138.744 42.337 137.786 42.527L137.961 43.4098ZM143.748 42.1524L143.955 43.0285C144.915 42.8022 145.877 42.5673 146.84 42.3242L146.62 41.4516L146.4 40.579C145.446 40.8198 144.493 41.0524 143.542 41.2764L143.748 42.1524ZM149.488 40.7041L149.722 41.5733C150.676 41.3171 151.629 41.0535 152.583 40.7828L152.337 39.917L152.092 39.0512C151.146 39.3196 150.2 39.581 149.255 39.8349L149.488 40.7041ZM155.181 39.0893L155.438 39.9517C156.386 39.6689 157.333 39.3797 158.279 39.0844L158.011 38.2253L157.743 37.3662C156.804 37.6592 155.864 37.9463 154.923 38.2268L155.181 39.0893ZM160.831 37.3263L161.109 38.1821C162.051 37.8759 162.99 37.5642 163.928 37.2474L163.639 36.3948L163.351 35.5422C162.42 35.8568 161.487 36.1664 160.553 36.4705L160.831 37.3263ZM166.439 35.4315L166.737 36.2809C167.672 35.9537 168.604 35.6219 169.532 35.286L169.226 34.4397L168.92 33.5934C167.997 33.9272 167.071 34.2569 166.142 34.582L166.439 35.4315ZM172.006 33.4185L172.321 34.2618C173.25 33.9152 174.176 33.5649 175.097 33.2114L174.774 32.3712L174.452 31.5309C173.536 31.8824 172.616 32.2306 171.692 32.5752L172.006 33.4185ZM177.531 31.299L177.861 32.1363C178.786 31.7716 179.706 31.4041 180.621 31.0343L180.284 30.1999L179.946 29.3656C179.036 29.7334 178.121 30.0989 177.201 30.4617L177.531 31.299ZM183.014 29.0825L183.358 29.914C184.28 29.5323 185.196 29.1487 186.104 28.7639L185.753 27.9353L185.402 27.1066C184.498 27.4895 183.587 27.8711 182.67 28.251L183.014 29.0825ZM188.471 26.7707L188.829 27.5966C189.742 27.2012 190.647 26.8051 191.543 26.4089L191.18 25.5857L190.816 24.7626C189.923 25.157 189.023 25.5512 188.114 25.9448L188.471 26.7707ZM193.89 24.3754L194.26 25.1958C195.167 24.7867 196.064 24.3781 196.95 23.9707L196.575 23.153L196.199 22.3352C195.316 22.7409 194.423 23.1477 193.52 23.555L193.89 24.3754ZM199.264 21.9052L199.645 22.7202C200.554 22.2945 201.451 21.8709 202.333 21.45L201.946 20.6376L201.559 19.8252C200.68 20.2443 199.787 20.6662 198.882 21.0901L199.264 21.9052ZM204.603 19.3598L204.996 20.1696C205.9 19.7306 206.789 19.2957 207.661 18.8656L207.262 18.0585L206.864 17.2514C205.996 17.6798 205.111 18.1129 204.21 18.5501L204.603 19.3598ZM209.923 16.7343L210.327 17.5387C211.231 17.0853 212.113 16.6387 212.973 16.2001L212.564 15.3983L212.155 14.5966C211.299 15.0335 210.42 15.4783 209.52 15.9299L209.923 16.7343ZM215.186 14.0498L215.6 14.8488C216.501 14.3816 217.373 13.9257 218.214 13.4826L217.794 12.6864L217.375 11.8902C216.538 12.3315 215.669 12.7855 214.772 13.2508L215.186 14.0498ZM220.413 11.2951L220.838 12.0884C221.754 11.5974 222.625 11.1269 223.446 10.6794L223.015 9.88919L222.584 9.09893C221.767 9.54436 220.9 10.0128 219.988 10.5018L220.413 11.2951ZM225.616 8.45879L226.053 9.24573C227.026 8.70556 227.9 8.21498 228.666 7.78088L228.223 6.99775L227.779 6.21461C227.017 6.64624 226.148 7.13427 225.179 7.67184L225.616 8.45879Z" fill="white" fill-opacity="0.8"/>
</svg>
