<svg width="233" height="48" viewBox="0 0 233 48" fill="none" xmlns="http://www.w3.org/2000/svg">
<path d="M0.00260401 5.33203C0.00260375 8.27755 2.39042 10.6654 5.33594 10.6654C8.28146 10.6654 10.6693 8.27755 10.6693 5.33203C10.6693 2.38651 8.28146 -0.00130198 5.33594 -0.00130224C2.39042 -0.0013025 0.00260427 2.38651 0.00260401 5.33203ZM232.565 5.33205L221.018 5.41634L226.864 15.3739L232.565 5.33205ZM5.33594 5.33203C4.79396 6.17242 4.79397 6.17243 4.79398 6.17244C4.79399 6.17244 4.79401 6.17245 4.79402 6.17246C4.79405 6.17248 4.79408 6.1725 4.79412 6.17253C4.79421 6.17258 4.79431 6.17265 4.79445 6.17274C4.79472 6.17291 4.79509 6.17315 4.79556 6.17346C4.79651 6.17407 4.79787 6.17494 4.79964 6.17608C4.80318 6.17836 4.80836 6.1817 4.81518 6.18608C4.82882 6.19484 4.84898 6.20777 4.8756 6.22481C4.92883 6.25887 5.00785 6.3093 5.11198 6.37541C5.32026 6.50762 5.629 6.70254 6.0328 6.95458L6.5623 6.10627L7.09179 5.25796C6.69243 5.00869 6.38799 4.81648 6.18388 4.68691C6.08182 4.62212 6.00484 4.57299 5.95362 4.54021C5.92802 4.52382 5.90885 4.51152 5.8962 4.5034C5.88988 4.49934 5.88519 4.49632 5.88214 4.49436C5.88061 4.49337 5.8795 4.49266 5.87879 4.4922C5.87844 4.49198 5.87819 4.49182 5.87805 4.49172C5.87797 4.49168 5.87793 4.49165 5.87791 4.49163C5.8779 4.49163 5.87789 4.49162 5.87789 4.49162C5.87789 4.49163 5.8779 4.49163 5.8779 4.49163C5.87791 4.49163 5.87792 4.49164 5.33594 5.33203ZM9.11844 7.67732L8.59995 8.5324C9.36222 8.99461 10.231 9.51635 11.1989 10.09L11.7088 9.2298L12.2186 8.36956C11.2567 7.7994 10.3937 7.2811 9.63692 6.82223L9.11844 7.67732ZM14.2771 10.7367L13.7748 11.6014C14.5936 12.077 15.4618 12.5769 16.3764 13.098L16.8715 12.2292L17.3665 11.3603C16.4569 10.842 15.5936 10.3449 14.7794 9.87195L14.2771 10.7367ZM19.482 13.7028L18.9939 14.5756C19.8405 15.049 20.7186 15.5359 21.6267 16.0344L22.108 15.1578L22.5892 14.2812C21.6858 13.7853 20.8122 13.3009 19.9701 12.83L19.482 13.7028ZM24.7506 16.5951L24.2763 17.4754C25.1336 17.9373 26.0133 18.4071 26.9142 18.8836L27.3817 17.9996L27.8492 17.1156C26.953 16.6416 26.0778 16.1742 25.225 15.7147L24.7506 16.5951ZM30.0261 19.385L29.5655 20.2726C30.4396 20.7262 31.331 21.1844 32.2386 21.6464L32.6922 20.7551L33.1458 19.8639C32.2429 19.4044 31.3562 18.9486 30.4867 18.4974L30.0261 19.385ZM35.3796 22.1092L34.9332 23.004C35.8141 23.4434 36.7085 23.8851 37.6156 24.3284L38.0546 23.4299L38.4936 22.5314C37.5915 22.0906 36.702 21.6513 35.8259 21.2143L35.3796 22.1092ZM40.7479 24.7321L40.3164 25.6342C41.2136 26.0634 42.122 26.4932 43.0407 26.923L43.4644 26.0172L43.8881 25.1114C42.9748 24.6841 42.0716 24.2567 41.1794 23.83L40.7479 24.7321ZM46.1766 27.2714L45.7609 28.1809C46.6641 28.5938 47.5762 29.0058 48.4966 29.4165L48.9041 28.5033L49.3115 27.59C48.3967 27.1819 47.4901 26.7723 46.5923 26.3619L46.1766 27.2714ZM51.6534 29.7145L51.2546 30.6315C52.1652 31.0275 53.0831 31.4216 54.0076 31.813L54.3975 30.8922L54.7874 29.9713C53.869 29.5824 52.9571 29.1909 52.0522 28.7974L51.6534 29.7145ZM57.1625 32.0465L56.7819 32.9713C57.7054 33.3513 58.6347 33.7283 59.5694 34.1015L59.9402 33.1728L60.3111 32.2441C59.383 31.8735 58.4602 31.4992 57.5431 31.1218L57.1625 32.0465ZM62.7239 34.2669L62.3632 35.1996C63.2963 35.5605 64.2341 35.9171 65.176 36.2691L65.526 35.3323L65.876 34.3956C64.9414 34.0464 64.0108 33.6924 63.0846 33.3342L62.7239 34.2669ZM68.3355 36.3632L67.9967 37.304C68.9387 37.6432 69.8842 37.9772 70.8327 38.3054L71.1597 37.3604L71.4867 36.4154C70.5463 36.09 69.6087 35.7588 68.6743 35.4223L68.3355 36.3632ZM73.9962 38.3213L73.6817 39.2705C74.6335 39.5859 75.5878 39.895 76.5439 40.1973L76.8453 39.2438L77.1467 38.2903C76.1996 37.9909 75.2541 37.6846 74.3108 37.372L73.9962 38.3213ZM79.7068 40.1255L79.4193 41.0833C80.3813 41.372 81.3447 41.6533 82.309 41.9265L82.5816 40.9644L82.8543 40.0023C81.9002 39.7319 80.9466 39.4536 79.9942 39.1677L79.7068 40.1255ZM85.4703 41.7577L85.2135 42.7242C86.1845 42.9822 87.1558 43.2317 88.127 43.4718L88.3671 42.5011L88.6071 41.5303C87.6475 41.293 86.6873 41.0465 85.7272 40.7913L85.4703 41.7577ZM91.2849 43.1943L91.0629 44.1693C92.0449 44.393 93.0262 44.6066 94.0062 44.8095L94.209 43.8303L94.4118 42.8511C93.445 42.6509 92.4766 42.4401 91.507 42.2193L91.2849 43.1943ZM97.147 44.4068L96.9649 45.3901C97.959 45.5742 98.9512 45.7466 99.9409 45.9068L100.101 44.9196L100.26 43.9325C99.2861 43.7748 98.3088 43.6049 97.3291 43.4235L97.147 44.4068ZM103.055 45.3615L102.92 46.3522C103.924 46.4899 104.925 46.614 105.923 46.7241L106.032 45.7301L106.142 44.7362C105.163 44.6281 104.179 44.5061 103.191 44.3707L103.055 45.3615ZM109.014 46.017L108.933 47.0137C109.94 47.096 110.943 47.163 111.941 47.2139L111.992 46.2152L112.043 45.2165C111.066 45.1667 110.083 45.101 109.096 45.0203L109.014 46.017ZM114.994 46.3189L114.976 47.3187C115.479 47.3276 115.981 47.332 116.48 47.332L116.48 46.332L116.48 45.332C115.993 45.332 115.503 45.3277 115.011 45.319L114.994 46.3189ZM116.48 46.332L116.48 47.332C116.973 47.332 117.467 47.3277 117.964 47.3191L117.947 46.3192L117.929 45.3194C117.444 45.3278 116.961 45.332 116.48 45.332L116.48 46.332ZM120.916 46.2186L120.966 47.2173C121.949 47.1682 122.94 47.1035 123.936 47.0241L123.857 46.0273L123.777 45.0304C122.8 45.1083 121.829 45.1717 120.866 45.2198L120.916 46.2186ZM126.806 45.7512L126.912 46.7455C127.896 46.6401 128.886 46.5212 129.879 46.3895L129.748 45.3982L129.617 44.4068C128.639 44.5364 127.666 44.6533 126.699 44.7569L126.806 45.7512ZM132.671 44.9763L132.825 45.9643C133.803 45.8116 134.786 45.6473 135.772 45.472L135.597 44.4874L135.422 43.5029C134.449 43.6758 133.481 43.8378 132.516 43.9882L132.671 44.9763ZM138.5 43.9411L138.695 44.922C139.664 44.7297 140.637 44.5273 141.611 44.3155L141.398 43.3383L141.186 42.3611C140.223 42.5705 139.263 42.7703 138.305 42.9602L138.5 43.9411ZM144.288 42.6837L144.517 43.6571C145.478 43.4307 146.44 43.1956 147.404 42.9524L147.159 41.9829L146.914 41.0133C145.961 41.254 145.009 41.4865 144.058 41.7103L144.288 42.6837ZM150.027 41.2353L150.287 42.2011C151.241 41.9448 152.195 41.681 153.15 41.4102L152.877 40.4482L152.604 39.4862C151.658 39.7545 150.713 40.0158 149.768 40.2696L150.027 41.2353ZM155.72 39.6205L156.006 40.5788C156.954 40.2959 157.901 40.0065 158.848 39.7111L158.55 38.7566L158.252 37.802C157.313 38.0949 156.374 38.3818 155.434 38.6623L155.72 39.6205ZM161.37 37.8575L161.679 38.8085C162.621 38.5021 163.561 38.1903 164.499 37.8734L164.179 36.9261L163.858 35.9787C162.928 36.2932 161.995 36.6027 161.061 36.9066L161.37 37.8575ZM166.979 35.9627L167.309 36.9066C168.244 36.5792 169.176 36.2473 170.105 35.9113L169.765 34.971L169.425 34.0306C168.502 34.3643 167.577 34.6939 166.648 35.0189L166.979 35.9627ZM172.545 33.9498L172.895 34.8867C173.824 34.54 174.75 34.1896 175.672 33.8361L175.313 32.9024L174.955 31.9688C174.039 32.3202 173.12 32.6683 172.196 33.0128L172.545 33.9498ZM178.07 31.8303L178.436 32.7606C179.362 32.3958 180.283 32.0281 181.197 31.6583L180.823 30.7312L180.448 29.8041C179.538 30.1718 178.623 30.5373 177.703 30.8999L178.07 31.8303ZM183.553 29.6138L183.936 30.5377C184.858 30.1558 185.773 29.7722 186.682 29.3873L186.292 28.4665L185.902 27.5457C184.998 27.9286 184.088 28.3101 183.171 28.6898L183.553 29.6138ZM189.011 27.3019L189.408 28.2196C190.321 27.8241 191.226 27.4279 192.123 27.0316L191.719 26.117L191.314 25.2024C190.422 25.5967 189.522 25.9908 188.613 26.3842L189.011 27.3019ZM194.429 24.9066L194.84 25.8182C195.747 25.409 196.645 25.0003 197.531 24.5928L197.114 23.6842L196.696 22.7756C195.814 23.1812 194.921 23.5879 194.018 23.9951L194.429 24.9066ZM199.803 22.4364L200.227 23.342C201.136 22.9162 202.033 22.4925 202.916 22.0715L202.485 21.1688L202.055 20.2662C201.176 20.6852 200.284 21.107 199.379 21.5308L199.803 22.4364ZM205.142 19.8911L205.578 20.7908C206.483 20.3518 207.372 19.9167 208.244 19.4865L207.801 18.5897L207.359 17.693C206.491 18.1212 205.606 18.5543 204.705 18.9914L205.142 19.8911ZM210.462 17.2656L210.911 18.1594C211.815 17.7059 212.697 17.2591 213.557 16.8204L213.103 15.9296L212.649 15.0388C211.792 15.4756 210.914 15.9203 210.014 16.3718L210.462 17.2656ZM215.725 14.581L216.186 15.4688C217.087 15.0015 217.959 14.5455 218.8 14.1023L218.334 13.2177L217.867 12.333C217.03 12.7741 216.162 13.2281 215.265 13.6933L215.725 14.581ZM220.952 11.8263L221.424 12.7078C222.341 12.2167 223.211 11.746 224.032 11.2985L223.554 10.4204L223.075 9.54237C222.258 9.9877 221.392 10.4561 220.48 10.9449L220.952 11.8263ZM226.155 8.99004L226.64 9.86442C227.614 9.3241 228.488 8.83339 229.255 8.39915L228.762 7.529L228.269 6.65884C227.507 7.09034 226.638 7.57823 225.67 8.11565L226.155 8.99004ZM0.00260401 5.33203C0.00260375 8.27755 2.39042 10.6654 5.33594 10.6654C8.28146 10.6654 10.6693 8.27755 10.6693 5.33203C10.6693 2.38651 8.28146 -0.00130198 5.33594 -0.00130224C2.39042 -0.0013025 0.00260427 2.38651 0.00260401 5.33203ZM232.565 5.33205L221.018 5.41634L226.864 15.3739L232.565 5.33205ZM5.33594 5.33203C4.79396 6.17242 4.79397 6.17243 4.79398 6.17244C4.79399 6.17244 4.79401 6.17245 4.79402 6.17246C4.79405 6.17248 4.79408 6.1725 4.79412 6.17253C4.79421 6.17258 4.79431 6.17265 4.79445 6.17274C4.79472 6.17291 4.79509 6.17315 4.79556 6.17346C4.79651 6.17407 4.79787 6.17494 4.79964 6.17608C4.80318 6.17836 4.80836 6.1817 4.81518 6.18608C4.82882 6.19484 4.84898 6.20777 4.8756 6.22481C4.92883 6.25887 5.00785 6.3093 5.11198 6.37541C5.32026 6.50762 5.629 6.70254 6.0328 6.95458L6.5623 6.10627L7.09179 5.25796C6.69243 5.00869 6.38799 4.81648 6.18388 4.68691C6.08182 4.62212 6.00484 4.57299 5.95362 4.54021C5.92802 4.52382 5.90885 4.51152 5.8962 4.5034C5.88988 4.49934 5.88519 4.49632 5.88214 4.49436C5.88061 4.49337 5.8795 4.49266 5.87879 4.4922C5.87844 4.49198 5.87819 4.49182 5.87805 4.49172C5.87797 4.49168 5.87793 4.49165 5.87791 4.49163C5.8779 4.49163 5.87789 4.49162 5.87789 4.49162C5.87789 4.49163 5.8779 4.49163 5.8779 4.49163C5.87791 4.49163 5.87792 4.49164 5.33594 5.33203ZM9.11844 7.67732L8.59995 8.5324C9.36222 8.99461 10.231 9.51635 11.1989 10.09L11.7088 9.2298L12.2186 8.36956C11.2567 7.7994 10.3937 7.2811 9.63692 6.82223L9.11844 7.67732ZM14.2771 10.7367L13.7748 11.6014C14.5936 12.077 15.4618 12.5769 16.3764 13.098L16.8715 12.2292L17.3665 11.3603C16.4569 10.842 15.5936 10.3449 14.7794 9.87195L14.2771 10.7367ZM19.482 13.7028L18.9939 14.5756C19.8405 15.049 20.7186 15.5359 21.6267 16.0344L22.108 15.1578L22.5892 14.2812C21.6858 13.7853 20.8122 13.3009 19.9701 12.83L19.482 13.7028ZM24.7506 16.5951L24.2763 17.4754C25.1336 17.9373 26.0133 18.4071 26.9142 18.8836L27.3817 17.9996L27.8492 17.1156C26.953 16.6416 26.0778 16.1742 25.225 15.7147L24.7506 16.5951ZM30.0261 19.385L29.5655 20.2726C30.4396 20.7262 31.331 21.1844 32.2386 21.6464L32.6922 20.7551L33.1458 19.8639C32.2429 19.4044 31.3562 18.9486 30.4867 18.4974L30.0261 19.385ZM35.3796 22.1092L34.9332 23.004C35.8141 23.4434 36.7085 23.8851 37.6156 24.3284L38.0546 23.4299L38.4936 22.5314C37.5915 22.0906 36.702 21.6513 35.8259 21.2143L35.3796 22.1092ZM40.7479 24.7321L40.3164 25.6342C41.2136 26.0634 42.122 26.4932 43.0407 26.923L43.4644 26.0172L43.8881 25.1114C42.9748 24.6841 42.0716 24.2567 41.1794 23.83L40.7479 24.7321ZM46.1766 27.2714L45.7609 28.1809C46.6641 28.5938 47.5762 29.0058 48.4966 29.4165L48.9041 28.5033L49.3115 27.59C48.3967 27.1819 47.4901 26.7723 46.5923 26.3619L46.1766 27.2714ZM51.6534 29.7145L51.2546 30.6315C52.1652 31.0275 53.0831 31.4216 54.0076 31.813L54.3975 30.8922L54.7874 29.9713C53.869 29.5824 52.9571 29.1909 52.0522 28.7974L51.6534 29.7145ZM57.1625 32.0465L56.7819 32.9713C57.7054 33.3513 58.6347 33.7283 59.5694 34.1015L59.9402 33.1728L60.3111 32.2441C59.383 31.8735 58.4602 31.4992 57.5431 31.1218L57.1625 32.0465ZM62.7239 34.2669L62.3632 35.1996C63.2963 35.5605 64.2341 35.9171 65.176 36.2691L65.526 35.3323L65.876 34.3956C64.9414 34.0464 64.0108 33.6924 63.0846 33.3342L62.7239 34.2669ZM68.3355 36.3632L67.9967 37.304C68.9387 37.6432 69.8842 37.9772 70.8327 38.3054L71.1597 37.3604L71.4867 36.4154C70.5463 36.09 69.6087 35.7588 68.6743 35.4223L68.3355 36.3632ZM73.9962 38.3213L73.6817 39.2705C74.6335 39.5859 75.5878 39.895 76.5439 40.1973L76.8453 39.2438L77.1467 38.2903C76.1996 37.9909 75.2541 37.6846 74.3108 37.372L73.9962 38.3213ZM79.7068 40.1255L79.4193 41.0833C80.3813 41.372 81.3447 41.6533 82.309 41.9265L82.5816 40.9644L82.8543 40.0023C81.9002 39.7319 80.9466 39.4536 79.9942 39.1677L79.7068 40.1255ZM85.4703 41.7577L85.2135 42.7242C86.1845 42.9822 87.1558 43.2317 88.127 43.4718L88.3671 42.5011L88.6071 41.5303C87.6475 41.293 86.6873 41.0465 85.7272 40.7913L85.4703 41.7577ZM91.2849 43.1943L91.0629 44.1693C92.0449 44.393 93.0262 44.6066 94.0062 44.8095L94.209 43.8303L94.4118 42.8511C93.445 42.6509 92.4766 42.4401 91.507 42.2193L91.2849 43.1943ZM97.147 44.4068L96.9649 45.3901C97.959 45.5742 98.9512 45.7466 99.9409 45.9068L100.101 44.9196L100.26 43.9325C99.2861 43.7748 98.3088 43.6049 97.3291 43.4235L97.147 44.4068ZM103.055 45.3615L102.92 46.3522C103.924 46.4899 104.925 46.614 105.923 46.7241L106.032 45.7301L106.142 44.7362C105.163 44.6281 104.179 44.5061 103.191 44.3707L103.055 45.3615ZM109.014 46.017L108.933 47.0137C109.94 47.096 110.943 47.163 111.941 47.2139L111.992 46.2152L112.043 45.2165C111.066 45.1667 110.083 45.101 109.096 45.0203L109.014 46.017ZM114.994 46.3189L114.976 47.3187C115.479 47.3276 115.981 47.332 116.48 47.332L116.48 46.332L116.48 45.332C115.993 45.332 115.503 45.3277 115.011 45.319L114.994 46.3189ZM116.48 46.332L116.48 47.332C116.973 47.332 117.467 47.3277 117.964 47.3191L117.947 46.3192L117.929 45.3194C117.444 45.3278 116.961 45.332 116.48 45.332L116.48 46.332ZM120.916 46.2186L120.966 47.2173C121.949 47.1682 122.94 47.1035 123.936 47.0241L123.857 46.0273L123.777 45.0304C122.8 45.1083 121.829 45.1717 120.866 45.2198L120.916 46.2186ZM126.806 45.7512L126.912 46.7455C127.896 46.6401 128.886 46.5212 129.879 46.3895L129.748 45.3982L129.617 44.4068C128.639 44.5364 127.666 44.6533 126.699 44.7569L126.806 45.7512ZM132.671 44.9763L132.825 45.9643C133.803 45.8116 134.786 45.6473 135.772 45.472L135.597 44.4874L135.422 43.5029C134.449 43.6758 133.481 43.8378 132.516 43.9882L132.671 44.9763ZM138.5 43.9411L138.695 44.922C139.664 44.7297 140.637 44.5273 141.611 44.3155L141.398 43.3383L141.186 42.3611C140.223 42.5705 139.263 42.7703 138.305 42.9602L138.5 43.9411ZM144.288 42.6837L144.517 43.6571C145.478 43.4307 146.44 43.1956 147.404 42.9524L147.159 41.9829L146.914 41.0133C145.961 41.254 145.009 41.4865 144.058 41.7103L144.288 42.6837ZM150.027 41.2353L150.287 42.2011C151.241 41.9448 152.195 41.681 153.15 41.4102L152.877 40.4482L152.604 39.4862C151.658 39.7545 150.713 40.0158 149.768 40.2696L150.027 41.2353ZM155.72 39.6205L156.006 40.5788C156.954 40.2959 157.901 40.0065 158.848 39.7111L158.55 38.7566L158.252 37.802C157.313 38.0949 156.374 38.3818 155.434 38.6623L155.72 39.6205ZM161.37 37.8575L161.679 38.8085C162.621 38.5021 163.561 38.1903 164.499 37.8734L164.179 36.9261L163.858 35.9787C162.928 36.2932 161.995 36.6027 161.061 36.9066L161.37 37.8575ZM166.979 35.9627L167.309 36.9066C168.244 36.5792 169.176 36.2473 170.105 35.9113L169.765 34.971L169.425 34.0306C168.502 34.3643 167.577 34.6939 166.648 35.0189L166.979 35.9627ZM172.545 33.9498L172.895 34.8867C173.824 34.54 174.75 34.1896 175.672 33.8361L175.313 32.9024L174.955 31.9688C174.039 32.3202 173.12 32.6683 172.196 33.0128L172.545 33.9498ZM178.07 31.8303L178.436 32.7606C179.362 32.3958 180.283 32.0281 181.197 31.6583L180.823 30.7312L180.448 29.8041C179.538 30.1718 178.623 30.5373 177.703 30.8999L178.07 31.8303ZM183.553 29.6138L183.936 30.5377C184.858 30.1558 185.773 29.7722 186.682 29.3873L186.292 28.4665L185.902 27.5457C184.998 27.9286 184.088 28.3101 183.171 28.6898L183.553 29.6138ZM189.011 27.3019L189.408 28.2196C190.321 27.8241 191.226 27.4279 192.123 27.0316L191.719 26.117L191.314 25.2024C190.422 25.5967 189.522 25.9908 188.613 26.3842L189.011 27.3019ZM194.429 24.9066L194.84 25.8182C195.747 25.409 196.645 25.0003 197.531 24.5928L197.114 23.6842L196.696 22.7756C195.814 23.1812 194.921 23.5879 194.018 23.9951L194.429 24.9066ZM199.803 22.4364L200.227 23.342C201.136 22.9162 202.033 22.4925 202.916 22.0715L202.485 21.1688L202.055 20.2662C201.176 20.6852 200.284 21.107 199.379 21.5308L199.803 22.4364ZM205.142 19.8911L205.578 20.7908C206.483 20.3518 207.372 19.9167 208.244 19.4865L207.801 18.5897L207.359 17.693C206.491 18.1212 205.606 18.5543 204.705 18.9914L205.142 19.8911ZM210.462 17.2656L210.911 18.1594C211.815 17.7059 212.697 17.2591 213.557 16.8204L213.103 15.9296L212.649 15.0388C211.792 15.4756 210.914 15.9203 210.014 16.3718L210.462 17.2656ZM215.725 14.581L216.186 15.4688C217.087 15.0015 217.959 14.5455 218.8 14.1023L218.334 13.2177L217.867 12.333C217.03 12.7741 216.162 13.2281 215.265 13.6933L215.725 14.581ZM220.952 11.8263L221.424 12.7078C222.341 12.2167 223.211 11.746 224.032 11.2985L223.554 10.4204L223.075 9.54237C222.258 9.9877 221.392 10.4561 220.48 10.9449L220.952 11.8263ZM226.155 8.99004L226.64 9.86442C227.614 9.3241 228.488 8.83339 229.255 8.39915L228.762 7.529L228.269 6.65884C227.507 7.09034 226.638 7.57823 225.67 8.11565L226.155 8.99004Z" fill="url(#paint0_linear_3964_2173)"/>
<defs>
<linearGradient id="paint0_linear_3964_2173" x1="118.95" y1="5.33204" x2="118.95" y2="46.332" gradientUnits="userSpaceOnUse">
<stop stop-color="#FF5E01"/>
<stop offset="1" stop-color="#FF9404"/>
</linearGradient>
</defs>
</svg>
