<svg width="101" height="101" viewBox="0 0 101 101" fill="none" xmlns="http://www.w3.org/2000/svg">
<circle cx="50.5" cy="50.5" r="50" stroke="url(#paint0_linear_3772_3536)" stroke-dasharray="3 3"/>
<circle cx="50.5" cy="50.5" r="46" fill="url(#paint1_linear_3772_3536)"/>
<path d="M46.3354 52.5851H54.6687C54.6687 53.6902 54.2298 54.75 53.4484 55.5314C52.667 56.3128 51.6072 56.7518 50.5021 56.7518C49.397 56.7518 48.3372 56.3128 47.5558 55.5314C46.7744 54.75 46.3354 53.6902 46.3354 52.5851ZM44.6375 46.908V48.6789H49.4604V42.5997L47.6823 40.8216C47.4925 40.6251 47.3875 40.362 47.3899 40.0889C47.3923 39.8158 47.5018 39.5545 47.695 39.3614C47.8881 39.1682 48.1494 39.0587 48.4225 39.0563C48.6956 39.0539 48.9587 39.1589 49.1552 39.3487L50.5021 40.6955L51.849 39.3487C52.0454 39.1589 52.3085 39.0539 52.5817 39.0563C52.8548 39.0587 53.1161 39.1682 53.3092 39.3614C53.5023 39.5545 53.6119 39.8158 53.6142 40.0889C53.6166 40.362 53.5116 40.6251 53.3219 40.8216L51.5437 42.5997V48.6789H56.3667V46.908C58.0984 45.6664 59.3913 43.9072 60.0593 41.8838C60.7273 39.8604 60.7359 37.6772 60.0838 35.6486C59.4317 33.62 58.1526 31.8507 56.4307 30.5955C54.7088 29.3403 52.6329 28.6641 50.5021 28.6641C48.3713 28.6641 46.2954 29.3403 44.5735 30.5955C42.8516 31.8507 41.5725 33.62 40.9204 35.6486C40.2683 37.6772 40.2768 39.8604 40.9448 41.8838C41.6128 43.9072 42.9058 45.6664 44.6375 46.908Z" fill="white"/>
<path d="M51.1849 50.2432H44.6328V50.5036C44.6328 51.3324 44.9621 52.1273 45.5481 52.7133C46.1342 53.2994 46.929 53.6286 47.7578 53.6286H53.237C54.0658 53.6286 54.8606 53.2994 55.4467 52.7133C56.0327 52.1273 56.362 51.3324 56.362 50.5036V50.2432H51.1849ZM67.1641 40.0869H64.1141C63.8378 40.0869 63.5728 39.9772 63.3775 39.7818C63.1821 39.5865 63.0724 39.3215 63.0724 39.0453C63.0724 38.769 63.1821 38.504 63.3775 38.3087C63.5728 38.1133 63.8378 38.0036 64.1141 38.0036H67.1641C67.4403 38.0036 67.7053 38.1133 67.9006 38.3087C68.096 38.504 68.2057 38.769 68.2057 39.0453C68.2057 39.3215 68.096 39.5865 67.9006 39.7818C67.7053 39.9772 67.4403 40.0869 67.1641 40.0869ZM62.9974 35.9317C62.7917 35.9317 62.5905 35.8707 62.4194 35.7565C62.2483 35.6423 62.1148 35.48 62.0358 35.29C61.9568 35.1 61.9358 34.8909 61.9755 34.6891C62.0152 34.4872 62.1138 34.3016 62.2589 34.1557L64.3422 32.0609C64.5381 31.8705 64.801 31.7647 65.0741 31.7663C65.3473 31.7679 65.6089 31.8767 65.8026 32.0693C65.9963 32.2619 66.1066 32.5229 66.1097 32.7961C66.1129 33.0692 66.0085 33.3327 65.8193 33.5296L63.7359 35.6244C63.6393 35.722 63.5243 35.7994 63.3975 35.8522C63.2707 35.905 63.1347 35.932 62.9974 35.9317ZM65.0807 46.3369C64.9434 46.3372 64.8074 46.3102 64.6806 46.2574C64.5538 46.2047 64.4388 46.1272 64.3422 46.0296L62.2589 43.9349C62.0696 43.7379 61.9653 43.4744 61.9684 43.2013C61.9715 42.9281 62.0818 42.6671 62.2755 42.4745C62.4692 42.2819 62.7308 42.1731 63.004 42.1715C63.2772 42.1699 63.54 42.2757 63.7359 42.4661L65.8193 44.5599C65.9647 44.7057 66.0636 44.8914 66.1035 45.0934C66.1434 45.2955 66.1225 45.5048 66.0435 45.695C65.9644 45.8852 65.8308 46.0477 65.6594 46.162C65.4881 46.2762 65.2867 46.3371 65.0807 46.3369ZM36.8807 40.0869H33.8307C33.5545 40.0869 33.2895 39.9772 33.0942 39.7818C32.8988 39.5865 32.7891 39.3215 32.7891 39.0453C32.7891 38.769 32.8988 38.504 33.0942 38.3087C33.2895 38.1133 33.5545 38.0036 33.8307 38.0036H36.8807C37.157 38.0036 37.4219 38.1133 37.6173 38.3087C37.8126 38.504 37.9224 38.769 37.9224 39.0453C37.9224 39.3215 37.8126 39.5865 37.6173 39.7818C37.4219 39.9772 37.157 40.0869 36.8807 40.0869ZM37.9974 35.9317C37.8601 35.932 37.7241 35.905 37.5973 35.8522C37.4705 35.7994 37.3555 35.722 37.2589 35.6244L35.1755 33.5307C35.079 33.4337 35.0026 33.3187 34.9505 33.1921C34.8985 33.0656 34.8718 32.93 34.8722 32.7932C34.8725 32.6564 34.8998 32.521 34.9525 32.3947C35.0052 32.2684 35.0822 32.1538 35.1792 32.0572C35.2762 31.9607 35.3912 31.8843 35.5177 31.8322C35.6443 31.7802 35.7798 31.7536 35.9166 31.7539C36.0535 31.7542 36.1889 31.7815 36.3152 31.8342C36.4414 31.8869 36.5561 31.9639 36.6526 32.0609L38.7359 34.1557C38.881 34.3016 38.9796 34.4872 39.0193 34.6891C39.059 34.8909 39.038 35.1 38.959 35.29C38.88 35.48 38.7465 35.6423 38.5754 35.7565C38.4043 35.8707 38.2031 35.9317 37.9974 35.9317ZM35.9141 46.3369C35.7083 46.3369 35.5072 46.2759 35.3361 46.1617C35.1649 46.0475 35.0315 45.8852 34.9525 45.6952C34.8735 45.5053 34.8525 45.2961 34.8922 45.0943C34.9319 44.8924 35.0305 44.7068 35.1755 44.5609L37.2589 42.4661C37.3547 42.3664 37.4694 42.2867 37.5963 42.2318C37.7232 42.1769 37.8598 42.1478 37.9981 42.1462C38.1364 42.1446 38.2736 42.1706 38.4018 42.2226C38.5299 42.2746 38.6464 42.3516 38.7445 42.4492C38.8425 42.5467 38.9202 42.6627 38.9729 42.7906C39.0257 42.9184 39.0524 43.0555 39.0516 43.1938C39.0508 43.3321 39.0225 43.4688 38.9683 43.5961C38.9141 43.7233 38.8351 43.8385 38.7359 43.9349L36.6526 46.0296C36.556 46.1272 36.441 46.2047 36.3142 46.2574C36.1874 46.3102 36.0514 46.3372 35.9141 46.3369ZM67.5568 59.564C67.4988 59.1466 67.3391 58.7499 67.0917 58.4087C66.8443 58.0676 66.5168 57.7925 66.138 57.6078C65.7484 57.4126 65.3163 57.3176 64.8807 57.3312C64.4452 57.3448 64.0199 57.4667 63.6432 57.6859L54.9849 64.1234C54.5332 64.3795 54.0229 64.5141 53.5036 64.514H49.8172C49.6872 64.514 49.5586 64.4884 49.4385 64.4387C49.3184 64.389 49.2093 64.3161 49.1174 64.2242C49.0256 64.1323 48.9527 64.0232 48.9029 63.9031C48.8532 63.7831 48.8276 63.6544 48.8276 63.5244C48.8276 63.3945 48.8532 63.2658 48.9029 63.1457C48.9527 63.0257 49.0256 62.9166 49.1174 62.8247C49.2093 62.7328 49.3184 62.6599 49.4385 62.6102C49.5586 62.5604 49.6872 62.5349 49.8172 62.5349H52.5224C52.9833 62.5338 53.4253 62.3518 53.7532 62.0279C54.0811 61.7041 54.2687 61.2644 54.2755 60.8036V60.7724C54.273 60.3088 54.0873 59.8651 53.7589 59.538C53.4304 59.2109 52.9859 59.0271 52.5224 59.0265H41.2474V70.8192C41.249 70.9474 41.2385 71.0753 41.2161 71.2015H54.3974C55.7575 71.2023 57.0691 70.6965 58.0766 69.7828L66.5349 62.0817C66.9051 61.7835 67.1931 61.3957 67.3717 60.9552C67.5503 60.5147 67.6147 60.0359 67.5568 59.564ZM34.3474 56.789H38.5214C38.9347 56.7893 39.3311 56.9537 39.6233 57.2461C39.9155 57.5385 40.0797 57.935 40.0797 58.3484V70.8192C40.0797 71.2326 39.9155 71.6291 39.6233 71.9215C39.3311 72.2139 38.9347 72.3783 38.5214 72.3786H34.3474C33.934 72.3783 33.5376 72.2139 33.2454 71.9215C32.9532 71.6291 32.7891 71.2326 32.7891 70.8192V58.3484C32.7891 57.9348 32.9534 57.5382 33.2458 57.2457C33.5382 56.9533 33.9338 56.789 34.3474 56.789Z" fill="white"/>
<defs>
<linearGradient id="paint0_linear_3772_3536" x1="50.5" y1="0.5" x2="50.5" y2="100.5" gradientUnits="userSpaceOnUse">
<stop stop-color="#FF5E01"/>
<stop offset="1" stop-color="#FF9404"/>
</linearGradient>
<linearGradient id="paint1_linear_3772_3536" x1="50.5" y1="4.5" x2="50.5" y2="96.5" gradientUnits="userSpaceOnUse">
<stop stop-color="#FF5E01"/>
<stop offset="1" stop-color="#FF9404"/>
</linearGradient>
</defs>
</svg>
