<svg width="74" height="74" viewBox="0 0 74 74" fill="none" xmlns="http://www.w3.org/2000/svg">
<rect x="5" y="5" width="64" height="64" rx="12" fill="url(#paint0_linear_3770_854)"/>
<rect x="2.5" y="2.5" width="69" height="69" rx="14.5" stroke="#FF9104" stroke-opacity="0.22" stroke-width="5"/>
<g clip-path="url(#clip0_3770_854)">
<path d="M53.0105 37.9739C53.3762 37.4325 53.5712 36.794 53.5705 36.1406V35.514C53.5705 33.7013 52.0956 32.2264 50.2829 32.2264C49.3784 32.2264 48.5581 32.5937 47.9631 33.1868C46.4236 28.6081 42.0909 25.3008 37 25.3008C31.9091 25.3008 27.5764 28.608 26.0369 33.1868C25.4419 32.5937 24.6216 32.2264 23.7171 32.2264C21.9044 32.2264 20.4295 33.7013 20.4295 35.514V36.1406C20.4288 36.794 20.6238 37.4325 20.9895 37.9739C18.7138 38.4534 17 40.4765 17 42.8927V44.4657C17 44.8971 17.3498 45.247 17.7812 45.247H21.8438C22.2752 45.247 22.625 44.8971 22.625 44.4657C22.625 44.0343 22.2752 43.6845 21.8438 43.6845H18.5625V42.8927C18.5625 40.9823 20.1167 39.4281 22.0271 39.4281H25.7247C26.0203 40.7274 26.5395 41.9654 27.2591 43.0868L18.3452 52.0008C17.2038 53.1423 17.2037 54.9997 18.3452 56.1412C18.916 56.712 19.6656 56.9973 20.4154 56.9973C21.1652 56.9973 21.9149 56.712 22.4857 56.1412L27.4 51.2269C27.7051 50.9218 27.7051 50.4271 27.4 50.122C27.0948 49.817 26.6003 49.817 26.2951 50.122L21.3809 55.0363C20.8484 55.5687 19.9823 55.5686 19.45 55.0364C18.9177 54.5041 18.9177 53.6379 19.45 53.1055L28.2005 44.3551C30.323 46.8443 33.4801 48.4258 37 48.4258C42.4944 48.4258 47.1055 44.5734 48.2753 39.4281H51.9729C53.8833 39.4281 55.4375 40.9823 55.4375 42.8927V43.6845H48.0938C47.6623 43.6845 47.3125 44.0343 47.3125 44.4657C47.3125 44.8971 47.6623 45.247 48.0938 45.247H56.2188C56.6502 45.247 57 44.8971 57 44.4657V42.8927C57 40.4765 55.2862 38.4534 53.0105 37.9739ZM25.4422 36.1407C25.4422 37.0919 24.6684 37.8657 23.7171 37.8657C22.7659 37.8657 21.992 37.0919 21.992 36.1407V35.5141C21.992 34.5628 22.7659 33.789 23.7171 33.789C24.6684 33.789 25.4422 34.5628 25.4422 35.5141V36.1407ZM37 46.8633C31.486 46.8633 27 42.3773 27 36.8633C27 31.3493 31.486 26.8633 37 26.8633C42.514 26.8633 47 31.3493 47 36.8633C47 42.3773 42.514 46.8633 37 46.8633ZM52.0079 36.1407C52.0079 37.0919 51.2341 37.8657 50.2828 37.8657C49.3316 37.8657 48.5577 37.0919 48.5577 36.1407V35.5141C48.5577 34.5628 49.3316 33.789 50.2828 33.789C51.2341 33.789 52.0079 34.5628 52.0079 35.5141V36.1407Z" fill="white"/>
<path d="M37 28.427C32.3475 28.427 28.5625 32.212 28.5625 36.8645C28.5625 39.2794 29.5825 41.4602 31.2139 42.9997C31.2418 43.0298 31.2717 43.0583 31.3045 43.0841C32.8066 44.4607 34.8068 45.302 37 45.302C39.1932 45.302 41.1934 44.4606 42.6955 43.0841C42.7283 43.0584 42.7582 43.0298 42.7861 42.9997C44.4175 41.4602 45.4375 39.2794 45.4375 36.8645C45.4375 32.2121 41.6525 28.427 37 28.427ZM37 43.7395C35.3935 43.7395 33.9141 43.1855 32.7424 42.2588C33.5725 40.6881 35.1902 39.6999 37 39.6999C38.8098 39.6999 40.4275 40.6881 41.2576 42.2588C40.0859 43.1855 38.6065 43.7395 37 43.7395ZM35.3537 36.4911V35.8841C35.3537 34.9763 36.0922 34.2378 37 34.2378C37.9078 34.2378 38.6463 34.9763 38.6463 35.8841V36.4911C38.6463 37.3989 37.9078 38.1374 37 38.1374C36.0922 38.1374 35.3537 37.3989 35.3537 36.4911ZM42.4004 41.1145C41.6847 39.9725 40.6371 39.1016 39.411 38.6051C39.907 38.04 40.2088 37.3004 40.2088 36.4912V35.8842C40.2088 34.1149 38.7693 32.6754 37 32.6754C35.2307 32.6754 33.7912 34.1149 33.7912 35.8842V36.4912C33.7912 37.3004 34.0929 38.04 34.589 38.6051C33.3629 39.1017 32.3154 39.9725 31.5996 41.1145C30.6765 39.944 30.125 38.4675 30.125 36.8645C30.125 33.0737 33.2091 29.9895 37 29.9895C40.7909 29.9895 43.875 33.0737 43.875 36.8645C43.875 38.4675 43.3235 39.944 42.4004 41.1145ZM29.4898 48.0336C29.3445 47.8883 29.143 47.8047 28.9375 47.8047C28.732 47.8047 28.5305 47.8883 28.3852 48.0336C28.2399 48.1789 28.1562 48.3805 28.1562 48.5859C28.1562 48.7914 28.2398 48.993 28.3852 49.1383C28.5305 49.2835 28.732 49.3672 28.9375 49.3672C29.143 49.3672 29.3445 49.2836 29.4898 49.1383C29.6351 48.993 29.7188 48.7914 29.7188 48.5859C29.7188 48.3805 29.6352 48.1789 29.4898 48.0336ZM37.0159 17C36.5845 17 36.2346 17.3498 36.2346 17.7812V20.4394C36.2346 20.8709 36.5845 21.2206 37.0159 21.2206C37.4473 21.2206 37.7971 20.8708 37.7971 20.4394V17.7812C37.7971 17.3498 37.4473 17 37.0159 17ZM37.5679 22.4633C37.4212 22.3172 37.2227 22.2349 37.0156 22.2344C36.8086 22.235 36.6101 22.3173 36.4633 22.4633C36.3173 22.6101 36.2351 22.8086 36.2344 23.0156C36.2344 23.2211 36.3179 23.4227 36.4633 23.5679C36.6101 23.7139 36.8086 23.7962 37.0156 23.7969C37.2219 23.7969 37.4227 23.7133 37.5679 23.5679C37.7139 23.4211 37.7962 23.2227 37.7969 23.0156C37.7969 22.8102 37.7133 22.6086 37.5679 22.4633ZM43.639 20.0645C43.3338 19.7595 42.8393 19.7595 42.5341 20.0645L41.1609 21.4377C40.8559 21.7427 40.8559 22.2374 41.1609 22.5426C41.3136 22.6951 41.5134 22.7714 41.7134 22.7714C41.9134 22.7714 42.1133 22.6951 42.2659 22.5426L43.639 21.1695C43.9441 20.8644 43.9441 20.3697 43.639 20.0645ZM32.8522 21.4471L31.4659 20.0608C31.1607 19.7558 30.6662 19.7558 30.3609 20.0608C30.0559 20.3659 30.0559 20.8605 30.3609 21.1657L31.7473 22.552C31.8198 22.6247 31.9059 22.6823 32.0007 22.7216C32.0955 22.7608 32.1972 22.781 32.2998 22.7809C32.4024 22.781 32.504 22.7608 32.5988 22.7216C32.6936 22.6823 32.7797 22.6247 32.8522 22.552C33.1573 22.247 33.1573 21.7523 32.8522 21.4471Z" fill="white"/>
</g>
<defs>
<linearGradient id="paint0_linear_3770_854" x1="37" y1="5" x2="37" y2="69" gradientUnits="userSpaceOnUse">
<stop stop-color="#FF5E01"/>
<stop offset="1" stop-color="#FF9404"/>
</linearGradient>
<clipPath id="clip0_3770_854">
<rect width="40" height="40" fill="white" transform="translate(17 17)"/>
</clipPath>
</defs>
</svg>
