<svg width="50" height="50" viewBox="0 0 50 50" fill="none" xmlns="http://www.w3.org/2000/svg">
<path fill-rule="evenodd" clip-rule="evenodd" d="M32.158 25.1581H28.4601C27.9222 25.1581 27.4835 25.5968 27.4835 26.1346V46.6342C27.4835 47.172 27.9222 47.6107 28.4601 47.6107H32.158C32.6959 47.6107 33.1346 47.172 33.1346 46.6342V26.1346C33.1345 25.5968 32.6958 25.1581 32.158 25.1581ZM4.82363 26.1899H1.5625V13.6742H4.82363V26.1899ZM16.2784 27.5314C11.7376 28.3188 9.10742 28.7963 6.38613 26.1899L6.38603 13.6742C8.60859 12.0048 11.4452 10.5744 11.4452 7.41667V3.61716C13.9516 3.61716 16.0024 5.66716 16.0024 8.17371V11.121C15.9303 11.6445 15.6387 12.3692 15.093 13.0462H21.8406C22.8362 13.0462 23.6513 13.8612 23.6513 14.8568C23.6513 15.8528 22.8365 16.6675 21.8406 16.6675H22.6034C23.5993 16.6675 24.4141 17.4823 24.4142 18.4782C24.4141 19.4741 23.5994 20.2887 22.6034 20.2887H21.3328C22.3286 20.2887 23.1435 21.1034 23.1435 22.0994C23.1435 23.0954 22.3287 23.91 21.3328 23.9101H20.2528C21.2488 23.9101 22.0634 24.7251 22.0634 25.7209C22.0634 26.7167 21.2486 27.5314 20.2527 27.5314H16.2784ZM41.1405 2.62166L42.8791 7.20085C42.9313 7.33855 43.053 7.42693 43.2001 7.43406L48.0925 7.67253C48.4252 7.68875 48.5614 8.10789 48.3018 8.31658L44.4839 11.3852C44.3691 11.4774 44.3227 11.6205 44.3612 11.7626L45.6463 16.4891C45.7337 16.8106 45.3772 17.0697 45.0984 16.8872L41.0002 14.2045C40.877 14.1238 40.7267 14.1238 40.6035 14.2045L36.5054 16.8872C36.2267 17.0696 35.8701 16.8106 35.9575 16.4891L37.2425 11.7625C37.2811 11.6204 37.2347 11.4774 37.1199 11.3851L33.3021 8.31658C33.0424 8.10789 33.1786 7.68875 33.5113 7.67253L38.4037 7.43406C38.5508 7.42693 38.6725 7.33855 38.7247 7.20085L40.4633 2.62166C40.5808 2.31199 41.0229 2.31199 41.1405 2.62166ZM7.47383 36.7694H11.1717C11.7096 36.7694 12.1482 37.2081 12.1482 37.746V46.6341C12.1482 47.172 11.7096 47.6106 11.1717 47.6106H7.47383C6.93594 47.6106 6.49727 47.172 6.49727 46.6341V37.746C6.49727 37.2081 6.93594 36.7694 7.47383 36.7694ZM38.9529 19.8225H42.6509C43.1888 19.8225 43.6274 20.2612 43.6274 20.7991V46.6341C43.6274 47.172 43.1888 47.6106 42.6509 47.6106H38.9529C38.415 47.6106 37.9764 47.172 37.9764 46.6341V20.7991C37.9764 20.2612 38.415 19.8225 38.9529 19.8225ZM21.6649 31.0892H17.967C17.4291 31.0892 16.9904 31.5279 16.9904 32.0658V46.6342C16.9904 47.172 17.4291 47.6107 17.967 47.6107H21.6649C22.2028 47.6107 22.6415 47.172 22.6415 46.6342V32.0658C22.6415 31.528 22.2027 31.0892 21.6649 31.0892Z" fill="url(#paint0_linear_816_2931)"/>
<defs>
<linearGradient id="paint0_linear_816_2931" x1="25" y1="2.3894" x2="25" y2="47.6107" gradientUnits="userSpaceOnUse">
<stop stop-color="#FF5E01"/>
<stop offset="1" stop-color="#FF9404"/>
</linearGradient>
</defs>
</svg>
