<svg width="77" height="77" viewBox="0 0 77 77" fill="none" xmlns="http://www.w3.org/2000/svg">
<circle cx="38.5" cy="38.5" r="38" stroke="url(#paint0_linear_3772_1792)" stroke-dasharray="3 3"/>
<circle cx="38.5" cy="38.5" r="35" fill="url(#paint1_linear_3772_1792)"/>
<path d="M43.75 38.5C43.75 41.3995 41.3995 43.75 38.5 43.75C35.6005 43.75 33.25 41.3995 33.25 38.5C33.25 35.6005 35.6005 33.25 38.5 33.25C41.3995 33.25 43.75 35.6005 43.75 38.5Z" stroke="white" stroke-width="2.25"/>
<path d="M52.0165 41.6462C52.7993 41.4351 53.1909 41.3295 53.3454 41.1276C53.5 40.9259 53.5 40.6011 53.5 39.9518V37.0512C53.5 36.4019 53.5 36.0771 53.3454 35.8754C53.1907 35.6735 52.7993 35.5679 52.0165 35.3568C49.0909 34.5678 47.2598 31.5092 48.0149 28.6027C48.2225 27.8034 48.3264 27.4038 48.2272 27.1694C48.1281 26.935 47.8437 26.7735 47.2746 26.4504L44.6875 24.9815C44.1292 24.6645 43.8501 24.506 43.5996 24.5398C43.3489 24.5735 43.0663 24.8555 42.5008 25.4195C40.312 27.6032 36.6904 27.6031 34.5015 25.4194C33.9361 24.8554 33.6535 24.5734 33.4029 24.5396C33.1523 24.5059 32.8732 24.6644 32.3148 24.9814L29.7278 26.4502C29.1588 26.7733 28.8743 26.9348 28.7752 27.1692C28.676 27.4035 28.7798 27.8032 28.9874 28.6026C29.7421 31.5092 27.9096 34.5679 24.9835 35.3568C24.2007 35.5679 23.8093 35.6735 23.6546 35.8752C23.5 36.0771 23.5 36.4019 23.5 37.0512V39.9518C23.5 40.6011 23.5 40.9259 23.6546 41.1276C23.8092 41.3295 24.2007 41.4351 24.9835 41.6462C27.9091 42.4352 29.7401 45.4938 28.9851 48.4002C28.7774 49.1996 28.6736 49.5992 28.7727 49.8336C28.8719 50.0681 29.1564 50.2296 29.7254 50.5526L32.3124 52.0215C32.8708 52.3385 33.15 52.497 33.4006 52.4633C33.6512 52.4295 33.9338 52.1474 34.4991 51.5834C36.6891 49.398 40.3132 49.3979 42.5033 51.5832C43.0685 52.1474 43.3512 52.4294 43.6018 52.4631C43.8523 52.4969 44.1316 52.3383 44.6899 52.0214L47.2769 50.5524C47.846 50.2295 48.1306 50.0679 48.2296 49.8335C48.3288 49.599 48.225 49.1994 48.0172 48.4001C47.2618 45.4938 49.0913 42.4353 52.0165 41.6462Z" stroke="white" stroke-width="2.25"/>
<defs>
<linearGradient id="paint0_linear_3772_1792" x1="38.5" y1="0.5" x2="38.5" y2="76.5" gradientUnits="userSpaceOnUse">
<stop stop-color="#FF5E01"/>
<stop offset="1" stop-color="#FF9404"/>
</linearGradient>
<linearGradient id="paint1_linear_3772_1792" x1="38.5" y1="3.5" x2="38.5" y2="73.5" gradientUnits="userSpaceOnUse">
<stop stop-color="#FF5E01"/>
<stop offset="1" stop-color="#FF9404"/>
</linearGradient>
</defs>
</svg>
