<svg width="42" height="42" viewBox="0 0 42 42" fill="none" xmlns="http://www.w3.org/2000/svg">
<g clip-path="url(#clip0_3770_1143)">
<path d="M39.1947 29.0133C42.9902 19.9437 38.4886 8.84558 29.4333 4.92013C29.3469 4.88115 29.2537 4.85947 29.1589 4.85632C29.0641 4.85318 28.9696 4.86862 28.8808 4.90178C28.792 4.93494 28.7106 4.98516 28.6413 5.04958C28.5721 5.114 28.5162 5.19135 28.477 5.27722C28.4378 5.36309 28.416 5.45579 28.4128 5.55004C28.4097 5.64429 28.4252 5.73823 28.4586 5.82651C28.4919 5.91479 28.5424 5.99567 28.6072 6.06454C28.672 6.13341 28.7498 6.18892 28.8362 6.2279C32.9095 8.06554 36.1194 11.3854 37.8053 15.5044C39.4912 19.6233 39.5249 24.228 37.8994 28.3709C37.0967 28.171 36.2479 28.2727 35.516 28.6567C34.7841 29.0407 34.2206 29.6798 33.9336 30.4515C33.6466 31.2232 33.6564 32.073 33.961 32.838C34.2656 33.6029 34.8436 34.2291 35.5842 34.5964C36.3247 34.9637 37.1756 35.0461 37.9735 34.828C38.7715 34.6099 39.4603 34.1065 39.9079 33.4145C40.3554 32.7224 40.5301 31.8905 40.3985 31.0782C40.2669 30.266 39.8382 29.5307 39.1947 29.0133ZM37.1031 33.513C36.5947 33.513 36.1071 33.3122 35.7476 32.9549C35.3881 32.5975 35.1862 32.1128 35.1862 31.6073C35.1862 31.1019 35.3881 30.6172 35.7476 30.2598C36.1071 29.9025 36.5947 29.7017 37.1031 29.7017C37.6115 29.7017 38.099 29.9025 38.4585 30.2598C38.818 30.6172 39.02 31.1019 39.02 31.6073C39.02 32.1128 38.818 32.5975 38.4585 32.9549C38.099 33.3122 37.6115 33.513 37.1031 33.513ZM3.4884 24.35C4.65225 24.2495 4.0335 22.8083 4.14252 22.0532C4.14794 17.951 5.61249 13.9829 8.27714 10.8508C10.9418 7.71863 14.6348 5.62425 18.703 4.93807C18.9271 5.71022 19.4244 6.37581 20.1033 6.81219C20.7821 7.24857 21.5967 7.42632 22.397 7.31269C23.1973 7.19906 23.9293 6.80171 24.4581 6.19386C24.9869 5.58601 25.2769 4.80863 25.2746 4.00498C25.1974 -0.0848473 19.303 -0.529143 18.6055 3.48532C13.8914 4.25269 9.64206 6.75999 6.70644 10.5063C3.77081 14.2527 2.36505 18.9622 2.77001 23.694C2.78554 23.8728 2.86792 24.0394 3.0009 24.1609C3.13389 24.2823 3.30782 24.3498 3.4884 24.35ZM21.9137 2.09931C22.4221 2.09931 22.9097 2.30009 23.2692 2.65747C23.6287 3.01485 23.8306 3.49956 23.8306 4.00498C23.8306 4.51039 23.6287 4.99511 23.2692 5.35249C22.9097 5.70987 22.4221 5.91064 21.9137 5.91064C21.4053 5.91064 20.9178 5.70987 20.5583 5.35249C20.1988 4.99511 19.9968 4.51039 19.9968 4.00498C19.9968 3.49956 20.1988 3.01485 20.5583 2.65747C20.9178 2.30009 21.4053 2.09931 21.9137 2.09931ZM31.4383 36.4185C27.7989 38.8788 23.3592 39.8822 19.0076 39.228C14.6559 38.5737 10.7133 36.3101 7.96838 32.89C8.50995 32.2722 8.80298 31.4773 8.79124 30.6579C8.77951 29.8385 8.46384 29.0522 7.9048 28.45C7.34576 27.8478 6.58271 27.472 5.76207 27.3947C4.94142 27.3174 4.12096 27.544 3.4581 28.0312C2.79524 28.5184 2.33667 29.2317 2.17036 30.0343C2.00405 30.837 2.14171 31.6724 2.55694 32.3803C2.97218 33.0883 3.63573 33.6188 4.42029 33.8703C5.20486 34.1217 6.05519 34.0763 6.80813 33.7427C9.77457 37.4615 14.0466 39.9267 18.7662 40.643C23.4857 41.3594 28.303 40.2737 32.2505 37.6043C32.4011 37.4942 32.5029 37.3303 32.5344 37.1471C32.5659 36.9639 32.5247 36.7757 32.4195 36.6221C32.3143 36.4684 32.1532 36.3614 31.9702 36.3234C31.7872 36.2855 31.5965 36.3196 31.4383 36.4185ZM3.54615 30.6857C3.54615 30.1803 3.74811 29.6956 4.1076 29.3382C4.46709 28.9808 4.95466 28.7801 5.46305 28.7801C5.97145 28.7801 6.45902 28.9808 6.81851 29.3382C7.17799 29.6956 7.37995 30.1803 7.37995 30.6857C7.37995 31.1912 7.17799 31.6759 6.81851 32.0332C6.45902 32.3906 5.97145 32.5914 5.46305 32.5914C4.95466 32.5914 4.46709 32.3906 4.1076 32.0332C3.74811 31.6759 3.54615 31.1912 3.54615 30.6857Z" fill="url(#paint0_linear_3770_1143)"/>
<path d="M21.3127 11.5084C16.7331 11.4452 14.1787 17.0445 17.198 20.4115C15.7398 21.0858 14.4684 22.1027 13.4935 23.3744C12.5187 24.6462 11.8697 26.1345 11.6026 27.7112C11.5577 27.9939 11.5747 28.2829 11.6524 28.5585C11.73 28.834 11.8665 29.0897 12.0525 29.3081C12.2386 29.5265 12.4698 29.7025 12.7304 29.824C12.991 29.9455 13.2749 30.0098 13.5628 30.0124H29.0612C29.3495 30.0104 29.634 29.9465 29.8953 29.8252C30.1566 29.704 30.3885 29.5281 30.5752 29.3096C30.7619 29.0911 30.899 28.8351 30.9771 28.5591C31.0552 28.2832 31.0725 27.9937 31.0279 27.7105C30.7578 26.1342 30.1071 24.6465 29.1315 23.3752C28.1559 22.1039 26.8846 21.0869 25.4266 20.4115C28.446 17.0495 25.8916 11.4424 21.3127 11.5084ZM21.3127 12.9439C26.5753 13.1104 26.5746 20.6972 21.3127 20.863C16.0493 20.6965 16.0508 13.1097 21.3127 12.9439ZM29.6027 27.9431C29.6179 28.0214 29.6153 28.1022 29.595 28.1795C29.5746 28.2567 29.537 28.3284 29.485 28.3893C29.4331 28.4501 29.368 28.4986 29.2946 28.531C29.2212 28.5635 29.1414 28.5792 29.0612 28.5768H13.5628C13.4843 28.577 13.4067 28.56 13.3356 28.527C13.2645 28.494 13.2015 28.4458 13.1513 28.3859C13.0991 28.3256 13.0609 28.2546 13.0396 28.1779C13.0182 28.1012 13.0142 28.0208 13.0278 27.9423C13.276 26.4857 13.9065 25.12 14.8556 23.9832C15.8048 22.8464 17.0389 21.9788 18.4334 21.4681C19.2945 22.0101 20.2928 22.2979 21.312 22.2979C22.3312 22.2979 23.3295 22.0101 24.1906 21.4681C25.5851 21.9798 26.8194 22.8476 27.7695 23.9841C28.7195 25.1206 29.3518 26.4865 29.6027 27.9431Z" fill="url(#paint1_linear_3770_1143)"/>
</g>
<defs>
<linearGradient id="paint0_linear_3770_1143" x1="21.3236" y1="0.695312" x2="21.3236" y2="40.8584" gradientUnits="userSpaceOnUse">
<stop stop-color="#FF5E01"/>
<stop offset="1" stop-color="#FF9404"/>
</linearGradient>
<linearGradient id="paint1_linear_3770_1143" x1="21.3151" y1="11.5078" x2="21.3151" y2="30.0124" gradientUnits="userSpaceOnUse">
<stop stop-color="#FF5E01"/>
<stop offset="1" stop-color="#FF9404"/>
</linearGradient>
<clipPath id="clip0_3770_1143">
<rect width="42" height="41.7539" fill="white"/>
</clipPath>
</defs>
</svg>
