<svg width="74" height="74" viewBox="0 0 74 74" fill="none" xmlns="http://www.w3.org/2000/svg">
<circle cx="37" cy="37" r="32" fill="url(#paint0_linear_3773_4995)"/>
<circle cx="37" cy="37" r="34.5" stroke="#FF9104" stroke-opacity="0.22" stroke-width="5"/>
<g clip-path="url(#clip0_3773_4995)">
<path d="M50.4116 45.3405L48.8349 46.9173L52.4573 50.5411C52.5369 50.285 52.5793 50.0188 52.5834 49.7506V46.0021L51.9218 45.3405C51.8227 45.2412 51.705 45.1625 51.5754 45.1088C51.4458 45.055 51.307 45.0273 51.1666 45.0273C51.0264 45.0273 50.8875 45.055 50.7579 45.1088C50.6284 45.1625 50.5107 45.2412 50.4116 45.3405ZM46.2551 45.3405C46.156 45.2412 46.0383 45.1625 45.9087 45.1088C45.7792 45.055 45.6402 45.0273 45.5 45.0273C45.3598 45.0273 45.2208 45.055 45.0913 45.1088C44.9617 45.1625 44.844 45.2412 44.7449 45.3405L41.25 48.834V49.7506C41.25 50.5021 41.5485 51.2227 42.0799 51.7541C42.6112 52.2854 43.3319 52.584 44.0834 52.584H49.75C50.2389 52.5831 50.7193 52.4552 51.144 52.2128C51.5687 51.9705 51.9231 51.6219 52.1725 51.2013C52.1414 51.1857 52.1045 51.1885 52.079 51.163L46.2551 45.3405Z" fill="white"/>
<path d="M46.7592 44.8397L48.3359 46.4164L49.9127 44.8397C50.2462 44.507 50.6981 44.3201 51.1692 44.3201C51.6404 44.3201 52.0923 44.507 52.4258 44.8397L52.5859 44.9998V44.0847C52.5859 43.3332 52.2874 42.6125 51.7561 42.0812C51.2247 41.5498 50.504 41.2513 49.7526 41.2513H44.0859C43.3345 41.2513 42.6138 41.5498 42.0825 42.0812C41.5511 42.6125 41.2526 43.3332 41.2526 44.0847V47.8345L44.246 44.8397C44.5795 44.507 45.0314 44.3201 45.5026 44.3201C45.9737 44.3201 46.4256 44.507 46.7592 44.8397ZM42.5092 27.8397L44.7942 30.1248L47.0793 27.8397C47.4129 27.507 47.8648 27.3201 48.3359 27.3201C48.807 27.3201 49.2589 27.507 49.5925 27.8397L52.5859 30.8332V24.2513C52.5859 23.4999 52.2874 22.7792 51.7561 22.2478C51.2247 21.7165 50.504 21.418 49.7526 21.418H38.4192C37.6678 21.418 36.9471 21.7165 36.4157 22.2478C35.8844 22.7792 35.5859 23.4999 35.5859 24.2513V32.2498L39.996 27.8397C40.3295 27.507 40.7814 27.3201 41.2526 27.3201C41.7237 27.3201 42.1756 27.507 42.5092 27.8397Z" fill="white"/>
<path d="M47.5758 28.3405L45.2907 30.6256L51.9774 37.3123C52.3661 36.8198 52.5786 36.2113 52.5809 35.584V31.8355L49.0859 28.3405C48.9868 28.2412 48.8692 28.1625 48.7396 28.1088C48.6101 28.055 48.4711 28.0273 48.3309 28.0273C48.1906 28.0273 48.0517 28.055 47.9222 28.1088C47.7925 28.1625 47.6749 28.2412 47.5758 28.3405ZM40.4924 28.3405L35.5809 33.2521V35.584C35.5809 36.3354 35.8794 37.0561 36.4107 37.5875C36.9421 38.1188 37.6627 38.4173 38.4142 38.4173H49.7475C50.3749 38.4149 50.9834 38.2025 51.4759 37.8138L42.0026 28.3405C41.9036 28.2412 41.7858 28.1625 41.6563 28.1088C41.5267 28.055 41.3878 28.0273 41.2475 28.0273C41.1073 28.0273 40.9684 28.055 40.8388 28.1088C40.7092 28.1625 40.5915 28.2412 40.4924 28.3405ZM29.356 38.0305C29.501 38.0773 29.6574 38.0749 29.8008 38.0237C29.9443 37.9724 30.0668 37.8753 30.1494 37.7472C30.2851 37.5618 30.4624 37.4109 30.6672 37.3067C30.8719 37.2025 31.0983 37.1479 31.328 37.1474C31.5577 37.1468 31.7844 37.2003 31.9896 37.3035C32.1949 37.4068 32.373 37.5568 32.5095 37.7415C32.5931 37.869 32.7157 37.966 32.8588 38.0182C33.002 38.0705 33.1583 38.0752 33.3043 38.0316C33.4503 37.988 33.5784 37.8985 33.6695 37.7763C33.7606 37.6541 33.8099 37.5058 33.81 37.3534V32.7506H28.8517V37.3534C28.8489 37.5062 28.8969 37.6556 28.9882 37.7781C29.0795 37.9007 29.2088 37.9895 29.356 38.0305Z" fill="white"/>
<path d="M34.8724 35.5834V32.75H34.5183V37.3528C34.5222 37.6577 34.4259 37.9555 34.2441 38.2004C34.0624 38.4453 33.8054 38.6238 33.5124 38.7085C33.3737 38.7506 33.2295 38.7721 33.0845 38.7722C32.8535 38.7717 32.6263 38.7135 32.4235 38.6029C32.2206 38.4923 32.0485 38.3329 31.9229 38.139C31.8562 38.0446 31.7678 37.9675 31.6652 37.9142C31.5627 37.8609 31.4488 37.8328 31.3332 37.8324C31.2177 37.832 31.1036 37.8592 31.0006 37.9118C30.8977 37.9644 30.8088 38.0409 30.7414 38.1348C30.5734 38.3887 30.328 38.5818 30.0417 38.6853C29.7553 38.7889 29.4432 38.7974 29.1516 38.7096C28.86 38.6219 28.6044 38.4425 28.4228 38.1981C28.2412 37.9537 28.1432 37.6573 28.1433 37.3528V32.75H22.8307C22.455 32.75 22.0947 32.8993 21.829 33.1649C21.5633 33.4306 21.4141 33.7909 21.4141 34.1666V51.1666C21.4141 51.5424 21.5633 51.9028 21.829 52.1684C22.0947 52.4341 22.455 52.5834 22.8307 52.5834H39.8308C40.1098 52.5833 40.3826 52.5009 40.6149 52.3464C40.8474 52.1919 41.0289 51.9722 41.1369 51.7149C40.7468 51.1339 40.5386 50.4499 40.539 49.75V44.0834C40.5413 43.3239 40.7899 42.5857 41.2474 41.9796V39.125H38.414C37.475 39.1243 36.5746 38.7509 35.9105 38.0869C35.2465 37.4228 34.8731 36.5224 34.8724 35.5834ZM29.914 50.1041H24.2474C24.1535 50.1041 24.0634 50.0668 23.997 50.0004C23.9305 49.934 23.8932 49.8439 23.8932 49.75C23.8932 49.6561 23.9305 49.566 23.997 49.4996C24.0634 49.4332 24.1535 49.3959 24.2474 49.3959H29.914C30.008 49.3959 30.0981 49.4332 30.1645 49.4996C30.2309 49.566 30.2683 49.6561 30.2683 49.75C30.2683 49.8439 30.2309 49.934 30.1645 50.0004C30.0981 50.0668 30.008 50.1041 29.914 50.1041ZM29.914 47.2709H24.2474C24.1535 47.2709 24.0634 47.2335 23.997 47.1671C23.9305 47.1007 23.8932 47.0106 23.8932 46.9166C23.8932 46.8227 23.9305 46.7326 23.997 46.6662C24.0634 46.5998 24.1535 46.5625 24.2474 46.5625H29.914C30.008 46.5625 30.0981 46.5998 30.1645 46.6662C30.2309 46.7326 30.2683 46.8227 30.2683 46.9166C30.2683 47.0106 30.2309 47.1007 30.1645 47.1671C30.0981 47.2335 30.008 47.2709 29.914 47.2709ZM32.7474 44.4375H24.2474C24.1535 44.4375 24.0634 44.4002 23.997 44.3338C23.9305 44.2674 23.8932 44.1773 23.8932 44.0834C23.8932 43.9894 23.9305 43.8993 23.997 43.8329C24.0634 43.7665 24.1535 43.7291 24.2474 43.7291H32.7474C32.8413 43.7291 32.9314 43.7665 32.9978 43.8329C33.0642 43.8993 33.1015 43.9894 33.1015 44.0834C33.1015 44.1773 33.0642 44.2674 32.9978 44.3338C32.9314 44.4002 32.8413 44.4375 32.7474 44.4375Z" fill="white"/>
</g>
<defs>
<linearGradient id="paint0_linear_3773_4995" x1="37" y1="5" x2="37" y2="69" gradientUnits="userSpaceOnUse">
<stop stop-color="#FF5E01"/>
<stop offset="1" stop-color="#FF9404"/>
</linearGradient>
<clipPath id="clip0_3773_4995">
<rect width="34" height="34" fill="white" transform="translate(20 20)"/>
</clipPath>
</defs>
</svg>
