<svg width="50" height="50" viewBox="0 0 50 50" fill="none" xmlns="http://www.w3.org/2000/svg">
<path d="M11.9267 25C11.9267 26.0623 11.0659 26.9231 10.0036 26.9231H6.15745C5.09512 26.9231 4.23438 26.0623 4.23438 25C4.23438 23.9377 5.09512 23.0769 6.15745 23.0769H10.0036C11.0661 23.0769 11.9267 23.9377 11.9267 25ZM11.9267 12.6923C11.9267 11.63 11.0659 10.7692 10.0036 10.7692H6.15745C5.09512 10.7692 4.23438 11.63 4.23438 12.6923C4.23438 13.7546 5.09512 14.6154 6.15745 14.6154H10.0036C11.0661 14.6154 11.9267 13.7546 11.9267 12.6923ZM11.9267 37.3078C11.9267 36.2452 11.0659 35.3847 10.0036 35.3847H6.15745C5.09512 35.3847 4.23438 36.2452 4.23438 37.3078C4.23438 38.3701 5.09512 39.2309 6.15745 39.2309H10.0036C11.0661 39.2309 11.9267 38.37 11.9267 37.3078ZM45.7728 6.15385V43.8462C45.7728 47.2447 43.0175 50 39.6192 50H12.6961C9.29772 50 6.54229 47.2447 6.54229 43.8462V40.7692H10.0038C11.9123 40.7692 13.4654 39.2161 13.4654 37.3077C13.4654 35.3992 11.9123 33.8459 10.0038 33.8459H6.54207V28.4613H10.0036C11.9121 28.4613 13.4651 26.9083 13.4651 24.9998C13.4651 23.0913 11.9121 21.5382 10.0036 21.5382H6.54207V16.1536H10.0036C11.9121 16.1536 13.4651 14.6006 13.4651 12.6921C13.4651 10.7836 11.9121 9.23054 10.0036 9.23054H6.54207V6.15385C6.54207 2.75543 9.2975 0 12.6959 0H39.619C43.0174 0 45.7728 2.75532 45.7728 6.15385ZM21.3775 18.2415C21.3775 21.5184 24.0344 24.1753 27.3113 24.1753C30.5883 24.1753 33.2451 21.5184 33.2451 18.2415C33.2451 14.9646 30.5883 12.3076 27.3113 12.3076C24.0345 12.3077 21.3775 14.9646 21.3775 18.2415ZM36.5421 32.7468C36.5421 29.1061 33.5898 26.1537 29.949 26.1537H24.6744C21.0329 26.1537 18.0805 29.1062 18.0805 32.7468V35.3846H36.5421V32.7468Z" fill="url(#paint0_linear_3773_7284)"/>
<defs>
<linearGradient id="paint0_linear_3773_7284" x1="25.0036" y1="0" x2="25.0036" y2="50" gradientUnits="userSpaceOnUse">
<stop stop-color="#FF5E01"/>
<stop offset="1" stop-color="#FF9404"/>
</linearGradient>
</defs>
</svg>
