<svg width="40" height="30" viewBox="0 0 40 30" fill="none" xmlns="http://www.w3.org/2000/svg">
<g opacity="0.5">
<mask id="path-1-outside-1_816_2888" maskUnits="userSpaceOnUse" x="-0.884766" y="-0.0800781" width="41" height="30" fill="black">
<rect fill="white" x="-0.884766" y="-0.0800781" width="41" height="30"/>
<path d="M12.7793 27.3399C10.5393 27.3399 8.61432 26.8033 7.00432 25.7299C5.39432 24.6566 4.15765 23.1749 3.29432 21.2849C2.43098 19.3716 1.99932 17.1666 1.99932 14.6699C1.99932 12.1733 2.43098 9.97992 3.29432 8.08992C4.15765 6.17659 5.39432 4.68325 7.00432 3.60992C8.61432 2.53659 10.5393 1.99992 12.7793 1.99992C15.0193 1.99992 16.9327 2.53659 18.5193 3.60992C20.1293 4.68325 21.366 6.17659 22.2293 8.08992C23.0927 9.97992 23.5243 12.1733 23.5243 14.6699C23.5243 17.1666 23.0927 19.3716 22.2293 21.2849C21.366 23.1749 20.1293 24.6566 18.5193 25.7299C16.9327 26.8033 15.0193 27.3399 12.7793 27.3399ZM12.7793 22.9299C13.9227 22.9299 14.926 22.5916 15.7893 21.9149C16.6527 21.2383 17.3293 20.2933 17.8193 19.0799C18.3093 17.8433 18.5543 16.3733 18.5543 14.6699C18.5543 12.9666 18.3093 11.5083 17.8193 10.2949C17.3293 9.05825 16.6527 8.10159 15.7893 7.42492C14.926 6.74825 13.9227 6.40992 12.7793 6.40992C11.636 6.40992 10.6327 6.74825 9.76932 7.42492C8.90598 8.10159 8.22932 9.05825 7.73932 10.2949C7.24932 11.5083 7.00432 12.9666 7.00432 14.6699C7.00432 16.3733 7.24932 17.8433 7.73932 19.0799C8.22932 20.2933 8.90598 21.2383 9.76932 21.9149C10.6327 22.5916 11.636 22.9299 12.7793 22.9299ZM32.3462 26.9199V8.05492L27.9712 9.20992V5.28992L34.4462 2.41992H37.3862V26.9199H32.3462Z"/>
</mask>
<path d="M7.00432 25.7299L8.11372 24.0658L7.00432 25.7299ZM3.29432 21.2849L1.47129 22.1075L1.47512 22.1159L3.29432 21.2849ZM3.29432 8.08992L5.11353 8.92092L5.11733 8.9125L3.29432 8.08992ZM7.00432 3.60992L8.11372 5.27402L7.00432 3.60992ZM18.5193 3.60992L17.3987 5.26653L17.4099 5.27402L18.5193 3.60992ZM22.2293 8.08992L20.4063 8.91251L20.4101 8.92091L22.2293 8.08992ZM22.2293 21.2849L24.0485 22.1159L24.0523 22.1075L22.2293 21.2849ZM18.5193 25.7299L17.4099 24.0658L17.3987 24.0734L18.5193 25.7299ZM17.8193 19.0799L19.6738 19.8289L19.6787 19.8167L17.8193 19.0799ZM17.8193 10.2949L15.9599 11.0317L15.9648 11.0438L17.8193 10.2949ZM15.7893 7.42492L17.0231 5.85081L17.0231 5.85081L15.7893 7.42492ZM9.76932 7.42492L8.53555 5.85081L8.53555 5.85081L9.76932 7.42492ZM7.73932 10.2949L9.59384 11.0439L9.59868 11.0316L7.73932 10.2949ZM7.73932 19.0799L5.87991 19.8167L5.88483 19.8288L7.73932 19.0799ZM9.76932 21.9149L11.0031 20.3408L9.76932 21.9149ZM12.7793 27.3399V25.3399C10.8703 25.3399 9.34579 24.8872 8.11372 24.0658L7.00432 25.7299L5.89492 27.394C7.88285 28.7193 10.2083 29.3399 12.7793 29.3399V27.3399ZM7.00432 25.7299L8.11372 24.0658C6.83612 23.2141 5.83418 22.0316 5.11351 20.4539L3.29432 21.2849L1.47512 22.1159C2.48112 24.3182 3.95251 26.0991 5.89492 27.394L7.00432 25.7299ZM3.29432 21.2849L5.11733 20.4623C4.39063 18.8518 3.99932 16.9359 3.99932 14.6699H1.99932H-0.000683531C-0.000683531 17.3973 0.471339 19.8914 1.47131 22.1075L3.29432 21.2849ZM1.99932 14.6699H3.99932C3.99932 12.4032 4.39087 10.5029 5.11351 8.92091L3.29432 8.08992L1.47512 7.25893C0.471096 9.45694 -0.000683531 11.9433 -0.000683531 14.6699H1.99932ZM3.29432 8.08992L5.11733 8.9125C5.83999 7.31092 6.84219 6.12171 8.11372 5.27402L7.00432 3.60992L5.89492 1.94582C3.94645 3.2448 2.47531 5.04226 1.47131 7.26734L3.29432 8.08992ZM7.00432 3.60992L8.11372 5.27402C9.34579 4.45264 10.8703 3.99992 12.7793 3.99992V1.99992V-7.86781e-05C10.2083 -7.86781e-05 7.88285 0.620533 5.89492 1.94582L7.00432 3.60992ZM12.7793 1.99992V3.99992C14.6892 3.99992 16.196 4.45289 17.3987 5.26649L18.5193 3.60992L19.6399 1.95335C17.6693 0.620286 15.3495 -7.86781e-05 12.7793 -7.86781e-05V1.99992ZM18.5193 3.60992L17.4099 5.27402C18.6814 6.12171 19.6836 7.31092 20.4063 8.9125L22.2293 8.08992L24.0523 7.26734C23.0483 5.04226 21.5772 3.2448 19.6287 1.94582L18.5193 3.60992ZM22.2293 8.08992L20.4101 8.92091C21.1328 10.5029 21.5243 12.4032 21.5243 14.6699H23.5243H25.5243C25.5243 11.9433 25.0525 9.45694 24.0485 7.25893L22.2293 8.08992ZM23.5243 14.6699H21.5243C21.5243 16.9359 21.133 18.8518 20.4063 20.4623L22.2293 21.2849L24.0523 22.1075C25.0523 19.8914 25.5243 17.3973 25.5243 14.6699H23.5243ZM22.2293 21.2849L20.4101 20.4539C19.6894 22.0316 18.6875 23.2141 17.4099 24.0658L18.5193 25.7299L19.6287 27.394C21.5711 26.0991 23.0425 24.3182 24.0485 22.1159L22.2293 21.2849ZM18.5193 25.7299L17.3987 24.0734C16.196 24.887 14.6892 25.3399 12.7793 25.3399V27.3399V29.3399C15.3495 29.3399 17.6693 28.7196 19.6399 27.3865L18.5193 25.7299ZM12.7793 22.9299V24.9299C14.3496 24.9299 15.792 24.454 17.0231 23.489L15.7893 21.9149L14.5556 20.3408C14.06 20.7292 13.4957 20.9299 12.7793 20.9299V22.9299ZM15.7893 21.9149L17.0231 23.489C18.2108 22.5581 19.0781 21.304 19.6738 19.8288L17.8193 19.0799L15.9648 18.331C15.5806 19.2825 15.0945 19.9184 14.5556 20.3408L15.7893 21.9149ZM17.8193 19.0799L19.6787 19.8167C20.2836 18.2899 20.5543 16.5579 20.5543 14.6699H18.5543H16.5543C16.5543 16.1887 16.335 17.3966 15.96 18.3432L17.8193 19.0799ZM18.5543 14.6699H20.5543C20.5543 12.7836 20.2841 11.0573 19.6738 9.546L17.8193 10.2949L15.9648 11.0438C16.3345 11.9593 16.5543 13.1496 16.5543 14.6699H18.5543ZM17.8193 10.2949L19.6787 9.55819C19.0858 8.0619 18.2193 6.78841 17.0231 5.85081L15.7893 7.42492L14.5556 8.99903C15.086 9.41476 15.5728 10.0546 15.96 11.0316L17.8193 10.2949ZM15.7893 7.42492L17.0231 5.85081C15.792 4.88589 14.3496 4.40992 12.7793 4.40992V6.40992V8.40992C13.4957 8.40992 14.06 8.61062 14.5556 8.99903L15.7893 7.42492ZM12.7793 6.40992V4.40992C11.2091 4.40992 9.76666 4.88589 8.53555 5.85081L9.76932 7.42492L11.0031 8.99903C11.4986 8.61062 12.0629 8.40992 12.7793 8.40992V6.40992ZM9.76932 7.42492L8.53555 5.85081C7.3393 6.78841 6.47283 8.0619 5.87995 9.55819L7.73932 10.2949L9.59868 11.0316C9.98581 10.0546 10.4727 9.41476 11.0031 8.99903L9.76932 7.42492ZM7.73932 10.2949L5.88483 9.546C5.27452 11.0573 5.00432 12.7836 5.00432 14.6699H7.00432H9.00432C9.00432 13.1496 9.22411 11.9593 9.5938 11.0438L7.73932 10.2949ZM7.00432 14.6699H5.00432C5.00432 16.5579 5.275 18.2899 5.87995 19.8167L7.73932 19.0799L9.59868 18.3432C9.22363 17.3966 9.00432 16.1887 9.00432 14.6699H7.00432ZM7.73932 19.0799L5.88483 19.8288C6.48058 21.304 7.34784 22.5581 8.53555 23.489L9.76932 21.9149L11.0031 20.3408C10.4641 19.9184 9.97805 19.2825 9.5938 18.331L7.73932 19.0799ZM9.76932 21.9149L8.53555 23.489C9.76666 24.454 11.2091 24.9299 12.7793 24.9299V22.9299V20.9299C12.0629 20.9299 11.4986 20.7292 11.0031 20.3408L9.76932 21.9149ZM32.3462 26.9199H30.3462V28.9199H32.3462V26.9199ZM32.3462 8.05492H34.3462V5.4584L31.8357 6.12117L32.3462 8.05492ZM27.9712 9.20992H25.9712V11.8064L28.4817 11.1437L27.9712 9.20992ZM27.9712 5.28992L27.1608 3.46148L25.9712 3.98875V5.28992H27.9712ZM34.4462 2.41992V0.41992H34.0229L33.6358 0.591483L34.4462 2.41992ZM37.3862 2.41992H39.3862V0.41992H37.3862V2.41992ZM37.3862 26.9199V28.9199H39.3862V26.9199H37.3862ZM32.3462 26.9199H34.3462V8.05492H32.3462H30.3462V26.9199H32.3462ZM32.3462 8.05492L31.8357 6.12117L27.4607 7.27617L27.9712 9.20992L28.4817 11.1437L32.8567 9.98867L32.3462 8.05492ZM27.9712 9.20992H29.9712V5.28992H27.9712H25.9712V9.20992H27.9712ZM27.9712 5.28992L28.7817 7.11836L35.2567 4.24836L34.4462 2.41992L33.6358 0.591483L27.1608 3.46148L27.9712 5.28992ZM34.4462 2.41992V4.41992H37.3862V2.41992V0.41992H34.4462V2.41992ZM37.3862 2.41992H35.3862V26.9199H37.3862H39.3862V2.41992H37.3862ZM37.3862 26.9199V24.9199H32.3462V26.9199V28.9199H37.3862V26.9199Z" fill="url(#paint0_linear_816_2888)" mask="url(#path-1-outside-1_816_2888)"/>
</g>
<defs>
<linearGradient id="paint0_linear_816_2888" x1="20.1152" y1="2.91992" x2="20.1152" y2="26.9199" gradientUnits="userSpaceOnUse">
<stop stop-color="#FF5E01"/>
<stop offset="1" stop-color="#FF9404"/>
</linearGradient>
</defs>
</svg>
