<svg width="84" height="53" viewBox="0 0 84 53" fill="none" xmlns="http://www.w3.org/2000/svg">
<path d="M10.4809 48.2798L10.0564 48.8982L10.0628 48.9024L10.4809 48.2798ZM3.27094 39.3898L2.5842 39.6913L2.58558 39.6944L3.27094 39.3898ZM3.27094 12.8598L3.9563 13.1644L3.95767 13.1613L3.27094 12.8598ZM10.4809 3.96984L10.8991 4.59248L10.9054 4.58814L10.4809 3.96984ZM32.8109 3.96984L32.382 4.58523L32.3928 4.59245L32.8109 3.96984ZM39.9509 12.8598L39.2611 13.1543L39.2656 13.1644L39.9509 12.8598ZM39.9509 39.3898L39.2642 39.0883L39.2625 39.0924L39.9509 39.3898ZM32.8109 48.2798L33.2334 48.8995L33.2354 48.8981L32.8109 48.2798ZM28.6809 42.8898L28.2374 42.285L28.2309 42.2898L28.6809 42.8898ZM33.5809 36.3098L34.2749 36.5943L33.5809 36.3098ZM33.5809 15.8698L34.2749 15.5854L33.5809 15.8698ZM28.6809 9.35984L28.2309 9.95984L28.2385 9.96555L28.2463 9.97106L28.6809 9.35984ZM14.5409 9.35984L14.9756 9.97112L14.9845 9.96464L14.5409 9.35984ZM9.64094 15.8698L10.3349 16.1543L9.64094 15.8698ZM14.5409 42.8898L14.9845 42.285L14.5409 42.8898ZM21.6809 51.4298V50.6798C17.4666 50.6798 13.8841 49.6621 10.8991 47.6572L10.4809 48.2798L10.0628 48.9024C13.3311 51.0976 17.2153 52.1798 21.6809 52.1798V51.4298ZM10.4809 48.2798L10.9054 47.6615C7.90332 45.6004 5.58529 42.7505 3.9563 39.0852L3.27094 39.3898L2.58558 39.6944C4.31659 43.5892 6.80523 46.666 10.0564 48.8981L10.4809 48.2798ZM3.27094 39.3898L3.95767 39.0884C2.32706 35.3742 1.50094 31.047 1.50094 26.0898H0.750938H0.0009377C0.0009377 31.2127 0.85481 35.7522 2.5842 39.6913L3.27094 39.3898ZM0.750938 26.0898H1.50094C1.50094 21.1324 2.32716 16.83 3.9563 13.1644L3.27094 12.8598L2.58558 12.5552C0.854713 16.4497 0.0009377 20.9673 0.0009377 26.0898H0.750938ZM3.27094 12.8598L3.95767 13.1613C5.58692 9.45026 7.90333 6.60453 10.8991 4.59245L10.4809 3.96984L10.0628 3.34724C6.80521 5.53515 4.31495 8.61609 2.5842 12.5583L3.27094 12.8598ZM10.4809 3.96984L10.9054 4.58814C13.8898 2.53921 17.4699 1.49984 21.6809 1.49984V0.749843V-0.000157118C17.212 -0.000157118 13.3255 1.10714 10.0564 3.35154L10.4809 3.96984ZM21.6809 0.749843V1.49984C25.8923 1.49984 29.4467 2.53929 32.3821 4.58514L32.8109 3.96984L33.2398 3.35454C30.0151 1.10706 26.1496 -0.000157118 21.6809 -0.000157118V0.749843ZM32.8109 3.96984L32.3928 4.59245C35.3866 6.60325 37.6786 9.44647 39.2611 13.1543L39.9509 12.8598L40.6407 12.5654C38.9567 8.61988 36.4886 5.53643 33.2291 3.34724L32.8109 3.96984ZM39.9509 12.8598L39.2656 13.1644C40.8947 16.83 41.7209 21.1324 41.7209 26.0898H42.4709H43.2209C43.2209 20.9673 42.3672 16.4497 40.6363 12.5552L39.9509 12.8598ZM42.4709 26.0898H41.7209C41.7209 31.047 40.8948 35.3742 39.2642 39.0884L39.9509 39.3898L40.6377 39.6913C42.3671 35.7522 43.2209 31.2127 43.2209 26.0898H42.4709ZM39.9509 39.3898L39.2625 39.0924C37.6802 42.7542 35.3867 45.6017 32.3864 47.6615L32.8109 48.2798L33.2354 48.8981C36.4885 46.6647 38.955 43.5854 40.6394 39.6873L39.9509 39.3898ZM32.8109 48.2798L32.3884 47.6602C29.4524 49.662 25.8956 50.6798 21.6809 50.6798V51.4298V52.1798C26.1463 52.1798 30.0094 51.0977 33.2334 48.8995L32.8109 48.2798ZM21.6809 45.1998V45.9498C24.4534 45.9498 26.9453 45.1291 29.1309 43.4898L28.6809 42.8898L28.2309 42.2898C26.3099 43.7306 24.1352 44.4498 21.6809 44.4498V45.1998ZM28.6809 42.8898L29.1245 43.4946C31.3547 41.8592 33.0655 39.5453 34.2749 36.5943L33.5809 36.3098L32.887 36.0254C31.7631 38.7677 30.2072 40.8405 28.2374 42.285L28.6809 42.8898ZM33.5809 36.3098L34.2749 36.5943C35.4876 33.6353 36.0809 30.1271 36.0809 26.0898H35.3309H34.5809C34.5809 29.9859 34.0076 33.291 32.887 36.0254L33.5809 36.3098ZM35.3309 26.0898H36.0809C36.0809 22.0526 35.4876 18.5443 34.2749 15.5854L33.5809 15.8698L32.887 16.1543C34.0076 18.8887 34.5809 22.1938 34.5809 26.0898H35.3309ZM33.5809 15.8698L34.2749 15.5854C33.065 12.6332 31.3519 10.3389 29.1156 8.74862L28.6809 9.35984L28.2463 9.97106C30.2099 11.3674 31.7635 13.4131 32.887 16.1543L33.5809 15.8698ZM28.6809 9.35984L29.1309 8.75984C26.9453 7.12058 24.4534 6.29984 21.6809 6.29984V7.04984V7.79984C24.1352 7.79984 26.3099 8.5191 28.2309 9.95984L28.6809 9.35984ZM21.6809 7.04984V6.29984C18.8651 6.29984 16.329 7.11855 14.0974 8.75504L14.5409 9.35984L14.9845 9.96464C16.9529 8.52113 19.1768 7.79984 21.6809 7.79984V7.04984ZM14.5409 9.35984L14.1063 8.74862C11.8699 10.3389 10.1569 12.6332 8.94696 15.5854L9.64094 15.8698L10.3349 16.1543C11.4583 13.4131 13.0119 11.3674 14.9756 9.97106L14.5409 9.35984ZM9.64094 15.8698L8.94696 15.5854C7.73429 18.5443 7.14094 22.0526 7.14094 26.0898H7.89094H8.64094C8.64094 22.1938 9.21425 18.8887 10.3349 16.1543L9.64094 15.8698ZM7.89094 26.0898H7.14094C7.14094 30.1271 7.73429 33.6353 8.94696 36.5943L9.64094 36.3098L10.3349 36.0254C9.21425 33.291 8.64094 29.9859 8.64094 26.0898H7.89094ZM9.64094 36.3098L8.94696 36.5943C10.1564 39.5453 11.8672 41.8592 14.0974 43.4946L14.5409 42.8898L14.9845 42.285C13.0147 40.8405 11.4588 38.7677 10.3349 36.0254L9.64094 36.3098ZM14.5409 42.8898L14.0974 43.4946C16.329 45.1311 18.8651 45.9498 21.6809 45.9498V45.1998V44.4498C19.1768 44.4498 16.9529 43.7286 14.9845 42.285L14.5409 42.8898ZM49.3741 50.5898H48.6241V51.3398H49.3741V50.5898ZM49.3741 45.5498L48.916 44.956L48.6241 45.1812V45.5498H49.3741ZM58.6841 37.9198L58.1909 37.3549L58.6841 37.9198ZM66.5241 30.2898L65.9692 29.7853L65.9687 29.7859L66.5241 30.2898ZM71.9841 22.7998L72.6445 23.1554L72.6473 23.1502L71.9841 22.7998ZM73.1041 11.3198L73.7972 11.0331V11.0331L73.1041 11.3198ZM70.4441 8.02984L70.0016 8.63538L70.0094 8.64103L70.0172 8.64648L70.4441 8.02984ZM60.4341 8.02984L60.0231 7.40241L60.013 7.40923L60.4341 8.02984ZM57.4241 11.5998L56.745 11.2815L56.7406 11.2912L57.4241 11.5998ZM56.4441 16.4298V17.1798H57.1941V16.4298H56.4441ZM49.6541 16.4298L48.9042 16.4194L48.8937 17.1798H49.6541V16.4298ZM57.4941 2.56984L57.1587 1.899L57.1535 1.90166L57.4941 2.56984ZM73.7341 2.49984L73.3932 3.168L73.4042 3.17339L73.7341 2.49984ZM79.0541 7.46984L78.4038 7.84345L78.4073 7.84949L79.0541 7.46984ZM79.6141 22.0998L80.3095 22.3809L80.3115 22.3759L79.6141 22.0998ZM75.9741 28.5398L75.3693 28.0963L75.3629 28.1052L75.9741 28.5398ZM70.9341 34.6298L71.471 35.1536L71.4772 35.1471L70.9341 34.6298ZM65.1241 40.0898L64.6349 39.5213L64.6284 39.5271L65.1241 40.0898ZM59.4541 44.7798L58.9969 44.1854L57.2491 45.5298H59.4541V44.7798ZM82.4841 44.7798H83.2341V44.0298H82.4841V44.7798ZM82.4841 50.5898V51.3398H83.2341V50.5898H82.4841ZM49.3741 50.5898H50.1241V45.5498H49.3741H48.6241V50.5898H49.3741ZM49.3741 45.5498L49.8322 46.1437C53.1102 43.6149 56.2253 41.062 59.1774 38.4848L58.6841 37.9198L58.1909 37.3549C55.2629 39.911 52.1714 42.4447 48.916 44.956L49.3741 45.5498ZM58.6841 37.9198L59.1774 38.4848C62.1362 35.9018 64.7708 33.3382 67.0796 30.7938L66.5241 30.2898L65.9687 29.7859C63.7042 32.2815 61.1121 34.8046 58.1909 37.3549L58.6841 37.9198ZM66.5241 30.2898L67.0791 30.7943C69.4434 28.1936 71.3026 25.6476 72.6445 23.1554L71.9841 22.7998L71.3238 22.4443C70.0524 24.8055 68.2715 27.2528 65.9692 29.7853L66.5241 30.2898ZM71.9841 22.7998L72.6473 23.1502C73.9971 20.5952 74.6941 18.1186 74.6941 15.7298H73.9441H73.1941C73.1941 17.821 72.5845 20.0578 71.321 22.4495L71.9841 22.7998ZM73.9441 15.7298H74.6941C74.6941 14.053 74.3978 12.4847 73.7972 11.0331L73.1041 11.3198L72.4111 11.6066C72.9305 12.8617 73.1941 14.2333 73.1941 15.7298H73.9441ZM73.1041 11.3198L73.7972 11.0331C73.1816 9.54542 72.202 8.33462 70.871 7.4132L70.4441 8.02984L70.0172 8.64648C71.113 9.40506 71.9067 10.3876 72.4111 11.6066L73.1041 11.3198ZM70.4441 8.02984L70.8867 7.4243C69.5028 6.413 67.6717 5.94984 65.4741 5.94984V6.69984V7.44984C67.4766 7.44984 68.9588 7.87334 70.0016 8.63538L70.4441 8.02984ZM65.4741 6.69984V5.94984C63.3566 5.94984 61.525 6.41849 60.0231 7.40249L60.4341 8.02984L60.8452 8.65719C62.0499 7.86786 63.5783 7.44984 65.4741 7.44984V6.69984ZM60.4341 8.02984L60.013 7.40923C58.5897 8.37507 57.4996 9.67173 56.745 11.2815L57.4241 11.5998L58.1032 11.9182C58.7486 10.5413 59.6653 9.45794 60.8553 8.65045L60.4341 8.02984ZM57.4241 11.5998L56.7406 11.2912C56.0386 12.8456 55.6941 14.5626 55.6941 16.4298H56.4441H57.1941C57.1941 14.7504 57.503 13.2474 58.1077 11.9085L57.4241 11.5998ZM56.4441 16.4298V15.6798H49.6541V16.4298V17.1798H56.4441V16.4298ZM49.6541 16.4298L50.4041 16.4403C50.4493 13.1818 51.1497 10.4717 52.4673 8.27571L51.8241 7.88984L51.181 7.50397C49.6986 9.97466 48.9523 12.9579 48.9042 16.4194L49.6541 16.4298ZM51.8241 7.88984L52.4673 8.27571C53.7963 6.06061 55.5825 4.38623 57.8348 3.23802L57.4941 2.56984L57.1535 1.90166C54.6458 3.18012 52.652 5.0524 51.181 7.50397L51.8241 7.88984ZM57.4941 2.56984L57.8296 3.24066C60.1419 2.08448 62.732 1.49984 65.6141 1.49984V0.749843V-0.000157118C62.523 -0.000157118 59.6997 0.628536 57.1587 1.89902L57.4941 2.56984ZM65.6141 0.749843V1.49984C68.6478 1.49984 71.2327 2.0656 73.3933 3.16791L73.7341 2.49984L74.075 1.83177C71.6622 0.600756 68.8338 -0.000157118 65.6141 -0.000157118V0.749843ZM73.7341 2.49984L73.4042 3.17339C75.5575 4.22806 77.2188 5.78071 78.4038 7.84343L79.0541 7.46984L79.7045 7.09625C78.3694 4.7723 76.4841 3.01162 74.064 1.82629L73.7341 2.49984ZM79.0541 7.46984L78.4073 7.84949C79.5845 9.85505 80.1941 12.3529 80.1941 15.3798H80.9441H81.6941C81.6941 12.1535 81.0438 9.37797 79.701 7.09019L79.0541 7.46984ZM80.9441 15.3798H80.1941C80.1941 17.5184 79.7713 19.665 78.9168 21.8238L79.6141 22.0998L80.3115 22.3759C81.2303 20.0547 81.6941 17.7213 81.6941 15.3798H80.9441ZM79.6141 22.0998L78.9188 21.8188C78.0577 23.9489 76.8762 26.0415 75.3693 28.0963L75.9741 28.5398L76.5789 28.9834C78.1521 26.8382 79.3973 24.6374 80.3095 22.3809L79.6141 22.0998ZM75.9741 28.5398L75.3629 28.1052C73.8913 30.1747 72.2343 32.1772 70.391 34.1126L70.9341 34.6298L71.4772 35.1471C73.3673 33.1625 75.0703 31.105 76.5854 28.9745L75.9741 28.5398ZM70.9341 34.6298L70.3973 34.1061C68.5457 36.004 66.6249 37.809 64.635 39.5213L65.1241 40.0898L65.6133 40.6584C67.6367 38.9173 69.5892 37.0824 71.471 35.1536L70.9341 34.6298ZM65.1241 40.0898L64.6284 39.5271C62.6792 41.2442 60.802 42.7968 58.9969 44.1854L59.4541 44.7798L59.9114 45.3743C61.7462 43.9629 63.6491 42.3888 65.6199 40.6526L65.1241 40.0898ZM59.4541 44.7798V45.5298H82.4841V44.7798V44.0298H59.4541V44.7798ZM82.4841 44.7798H81.7341V50.5898H82.4841H83.2341V44.7798H82.4841ZM82.4841 50.5898V49.8398H49.3741V50.5898V51.3398H82.4841V50.5898Z" fill="url(#paint0_linear_3964_622)" fill-opacity="0.5"/>
<defs>
<linearGradient id="paint0_linear_3964_622" x1="-2.53906" y1="26.0898" x2="86.4609" y2="26.0898" gradientUnits="userSpaceOnUse">
<stop stop-color="#FF5F01"/>
<stop offset="1" stop-color="#FF9404"/>
</linearGradient>
</defs>
</svg>
