<svg width="48" height="30" viewBox="0 0 48 30" fill="none" xmlns="http://www.w3.org/2000/svg">
<g opacity="0.5">
<mask id="path-1-outside-1_816_2901" maskUnits="userSpaceOnUse" x="-0.980469" y="-0.0800781" width="49" height="30" fill="black">
<rect fill="white" x="-0.980469" y="-0.0800781" width="49" height="30"/>
<path d="M12.7808 27.3399C10.5408 27.3399 8.61578 26.8033 7.00578 25.7299C5.39578 24.6566 4.15911 23.1749 3.29578 21.2849C2.43245 19.3716 2.00078 17.1666 2.00078 14.6699C2.00078 12.1733 2.43245 9.97992 3.29578 8.08992C4.15911 6.17659 5.39578 4.68325 7.00578 3.60992C8.61578 2.53659 10.5408 1.99992 12.7808 1.99992C15.0208 1.99992 16.9341 2.53659 18.5208 3.60992C20.1308 4.68325 21.3674 6.17659 22.2308 8.08992C23.0941 9.97992 23.5258 12.1733 23.5258 14.6699C23.5258 17.1666 23.0941 19.3716 22.2308 21.2849C21.3674 23.1749 20.1308 24.6566 18.5208 25.7299C16.9341 26.8033 15.0208 27.3399 12.7808 27.3399ZM12.7808 22.9299C13.9241 22.9299 14.9274 22.5916 15.7908 21.9149C16.6541 21.2383 17.3308 20.2933 17.8208 19.0799C18.3108 17.8433 18.5558 16.3733 18.5558 14.6699C18.5558 12.9666 18.3108 11.5083 17.8208 10.2949C17.3308 9.05825 16.6541 8.10159 15.7908 7.42492C14.9274 6.74825 13.9241 6.40992 12.7808 6.40992C11.6374 6.40992 10.6341 6.74825 9.77078 7.42492C8.90745 8.10159 8.23078 9.05825 7.74078 10.2949C7.25078 11.5083 7.00578 12.9666 7.00578 14.6699C7.00578 16.3733 7.25078 17.8433 7.74078 19.0799C8.23078 20.2933 8.90745 21.2383 9.77078 21.9149C10.6341 22.5916 11.6374 22.9299 12.7808 22.9299ZM28.5002 26.9199V23.3149C29.9702 22.1249 31.4052 20.9466 32.8052 19.7799C34.2052 18.5899 35.4652 17.4233 36.5852 16.2799C37.7052 15.1133 38.5918 13.9816 39.2452 12.8849C39.8985 11.7649 40.2252 10.6799 40.2252 9.62992C40.2252 9.02325 40.1085 8.45159 39.8752 7.91492C39.6418 7.37825 39.2802 6.94659 38.7902 6.61992C38.3002 6.29325 37.6585 6.12992 36.8652 6.12992C36.0952 6.12992 35.4302 6.31659 34.8702 6.68992C34.3335 7.03992 33.9252 7.51825 33.6452 8.12492C33.3885 8.73159 33.2602 9.41992 33.2602 10.1899H28.5352C28.5818 8.34659 28.9785 6.81825 29.7252 5.60492C30.4952 4.39159 31.5102 3.49325 32.7702 2.90992C34.0535 2.30325 35.4768 1.99992 37.0402 1.99992C38.7902 1.99992 40.2602 2.32659 41.4502 2.97992C42.6635 3.60992 43.5735 4.48492 44.1802 5.60492C44.8102 6.70159 45.1252 7.94992 45.1252 9.34992C45.1252 10.4233 44.9268 11.4733 44.5302 12.4999C44.1568 13.5033 43.6318 14.4833 42.9552 15.4399C42.2785 16.3966 41.5085 17.3183 40.6452 18.2049C39.8052 19.0683 38.9185 19.8966 37.9852 20.6899C37.0752 21.4833 36.1768 22.2299 35.2902 22.9299H45.6852V26.9199H28.5002Z"/>
</mask>
<path d="M7.00578 25.7299L8.11518 24.0658L7.00578 25.7299ZM3.29578 21.2849L1.47275 22.1075L1.47659 22.1159L3.29578 21.2849ZM3.29578 8.08992L5.11499 8.92092L5.11879 8.9125L3.29578 8.08992ZM7.00578 3.60992L8.11518 5.27402L7.00578 3.60992ZM18.5208 3.60992L17.4001 5.26653L17.4114 5.27402L18.5208 3.60992ZM22.2308 8.08992L20.4078 8.91251L20.4116 8.92091L22.2308 8.08992ZM22.2308 21.2849L24.05 22.1159L24.0538 22.1075L22.2308 21.2849ZM18.5208 25.7299L17.4114 24.0658L17.4002 24.0734L18.5208 25.7299ZM17.8208 19.0799L19.6753 19.8289L19.6801 19.8167L17.8208 19.0799ZM17.8208 10.2949L15.9614 11.0317L15.9663 11.0438L17.8208 10.2949ZM15.7908 7.42492L17.0245 5.85081L17.0245 5.85081L15.7908 7.42492ZM9.77078 7.42492L8.53702 5.85081L8.53702 5.85081L9.77078 7.42492ZM7.74078 10.2949L9.59531 11.0439L9.60014 11.0316L7.74078 10.2949ZM7.74078 19.0799L5.88138 19.8167L5.8863 19.8288L7.74078 19.0799ZM9.77078 21.9149L11.0045 20.3408L9.77078 21.9149ZM12.7808 27.3399V25.3399C10.8718 25.3399 9.34725 24.8872 8.11518 24.0658L7.00578 25.7299L5.89638 27.394C7.88431 28.7193 10.2098 29.3399 12.7808 29.3399V27.3399ZM7.00578 25.7299L8.11518 24.0658C6.83759 23.2141 5.83565 22.0316 5.11497 20.4539L3.29578 21.2849L1.47659 22.1159C2.48258 24.3182 3.95398 26.0991 5.89638 27.394L7.00578 25.7299ZM3.29578 21.2849L5.11879 20.4623C4.39209 18.8518 4.00078 16.9359 4.00078 14.6699H2.00078H0.000781313C0.000781313 17.3973 0.472804 19.8914 1.47277 22.1075L3.29578 21.2849ZM2.00078 14.6699H4.00078C4.00078 12.4032 4.39233 10.5029 5.11497 8.92091L3.29578 8.08992L1.47659 7.25893C0.472561 9.45694 0.000781313 11.9433 0.000781313 14.6699H2.00078ZM3.29578 8.08992L5.11879 8.9125C5.84146 7.31092 6.84365 6.12171 8.11518 5.27402L7.00578 3.60992L5.89638 1.94582C3.94791 3.2448 2.47677 5.04226 1.47277 7.26734L3.29578 8.08992ZM7.00578 3.60992L8.11518 5.27402C9.34725 4.45264 10.8718 3.99992 12.7808 3.99992V1.99992V-7.86781e-05C10.2098 -7.86781e-05 7.88431 0.620533 5.89638 1.94582L7.00578 3.60992ZM12.7808 1.99992V3.99992C14.6906 3.99992 16.1975 4.45289 17.4002 5.26649L18.5208 3.60992L19.6414 1.95335C17.6708 0.620286 15.3509 -7.86781e-05 12.7808 -7.86781e-05V1.99992ZM18.5208 3.60992L17.4114 5.27402C18.6829 6.12171 19.6851 7.31092 20.4078 8.9125L22.2308 8.08992L24.0538 7.26734C23.0498 5.04226 21.5787 3.2448 19.6302 1.94582L18.5208 3.60992ZM22.2308 8.08992L20.4116 8.92091C21.1342 10.5029 21.5258 12.4032 21.5258 14.6699H23.5258H25.5258C25.5258 11.9433 25.054 9.45694 24.05 7.25893L22.2308 8.08992ZM23.5258 14.6699H21.5258C21.5258 16.9359 21.1345 18.8518 20.4078 20.4623L22.2308 21.2849L24.0538 22.1075C25.0538 19.8914 25.5258 17.3973 25.5258 14.6699H23.5258ZM22.2308 21.2849L20.4116 20.4539C19.6909 22.0316 18.689 23.2141 17.4114 24.0658L18.5208 25.7299L19.6302 27.394C21.5726 26.0991 23.044 24.3182 24.05 22.1159L22.2308 21.2849ZM18.5208 25.7299L17.4002 24.0734C16.1975 24.887 14.6906 25.3399 12.7808 25.3399V27.3399V29.3399C15.3509 29.3399 17.6708 28.7196 19.6414 27.3865L18.5208 25.7299ZM12.7808 22.9299V24.9299C14.351 24.9299 15.7934 24.454 17.0245 23.489L15.7908 21.9149L14.557 20.3408C14.0615 20.7292 13.4972 20.9299 12.7808 20.9299V22.9299ZM15.7908 21.9149L17.0245 23.489C18.2123 22.5581 19.0795 21.304 19.6753 19.8288L17.8208 19.0799L15.9663 18.331C15.582 19.2825 15.096 19.9184 14.557 20.3408L15.7908 21.9149ZM17.8208 19.0799L19.6801 19.8167C20.2851 18.2899 20.5558 16.5579 20.5558 14.6699H18.5558H16.5558C16.5558 16.1887 16.3365 17.3966 15.9614 18.3432L17.8208 19.0799ZM18.5558 14.6699H20.5558C20.5558 12.7836 20.2856 11.0573 19.6753 9.546L17.8208 10.2949L15.9663 11.0438C16.336 11.9593 16.5558 13.1496 16.5558 14.6699H18.5558ZM17.8208 10.2949L19.6801 9.55819C19.0873 8.0619 18.2208 6.78841 17.0245 5.85081L15.7908 7.42492L14.557 8.99903C15.0874 9.41476 15.5743 10.0546 15.9614 11.0316L17.8208 10.2949ZM15.7908 7.42492L17.0245 5.85081C15.7934 4.88589 14.351 4.40992 12.7808 4.40992V6.40992V8.40992C13.4972 8.40992 14.0615 8.61062 14.557 8.99903L15.7908 7.42492ZM12.7808 6.40992V4.40992C11.2105 4.40992 9.76813 4.88589 8.53702 5.85081L9.77078 7.42492L11.0045 8.99903C11.5001 8.61062 12.0644 8.40992 12.7808 8.40992V6.40992ZM9.77078 7.42492L8.53702 5.85081C7.34076 6.78841 6.47429 8.0619 5.88142 9.55819L7.74078 10.2949L9.60014 11.0316C9.98727 10.0546 10.4741 9.41476 11.0045 8.99903L9.77078 7.42492ZM7.74078 10.2949L5.8863 9.546C5.27598 11.0573 5.00578 12.7836 5.00578 14.6699H7.00578H9.00578C9.00578 13.1496 9.22558 11.9593 9.59527 11.0438L7.74078 10.2949ZM7.00578 14.6699H5.00578C5.00578 16.5579 5.27647 18.2899 5.88142 19.8167L7.74078 19.0799L9.60014 18.3432C9.22509 17.3966 9.00578 16.1887 9.00578 14.6699H7.00578ZM7.74078 19.0799L5.8863 19.8288C6.48205 21.304 7.34931 22.5581 8.53702 23.489L9.77078 21.9149L11.0045 20.3408C10.4656 19.9184 9.97951 19.2825 9.59527 18.331L7.74078 19.0799ZM9.77078 21.9149L8.53702 23.489C9.76813 24.454 11.2105 24.9299 12.7808 24.9299V22.9299V20.9299C12.0644 20.9299 11.5001 20.7292 11.0045 20.3408L9.77078 21.9149ZM28.5002 26.9199H26.5002V28.9199H28.5002V26.9199ZM28.5002 23.3149L27.2418 21.7604L26.5002 22.3608V23.3149H28.5002ZM32.8052 19.7799L34.0855 21.3164L34.093 21.3101L34.1005 21.3038L32.8052 19.7799ZM36.5852 16.2799L38.0139 17.6795L38.0209 17.6723L38.0279 17.665L36.5852 16.2799ZM39.2452 12.8849L40.9634 13.9085L40.9681 13.9006L40.9727 13.8927L39.2452 12.8849ZM34.8702 6.68992L35.9627 8.36514L35.9712 8.35962L35.9796 8.35402L34.8702 6.68992ZM33.6452 8.12492L31.8292 7.28681L31.8158 7.31601L31.8032 7.34564L33.6452 8.12492ZM33.2602 10.1899V12.1899H35.2602V10.1899H33.2602ZM28.5352 10.1899L26.5358 10.1393L26.4839 12.1899H28.5352V10.1899ZM29.7252 5.60492L28.0365 4.53327L28.0291 4.54495L28.0218 4.55673L29.7252 5.60492ZM32.7702 2.90992L33.6104 4.72485L33.6177 4.72149L33.6249 4.71807L32.7702 2.90992ZM41.4502 2.97992L40.4876 4.73308L40.508 4.74423L40.5285 4.75491L41.4502 2.97992ZM44.1802 5.60492L42.4216 6.55749L42.4335 6.57948L42.4459 6.60117L44.1802 5.60492ZM44.5302 12.4999L42.6646 11.7791L42.6601 11.7908L42.6557 11.8025L44.5302 12.4999ZM42.9552 15.4399L41.3223 14.285V14.285L42.9552 15.4399ZM40.6452 18.2049L39.2122 16.8097L39.2117 16.8102L40.6452 18.2049ZM37.9852 20.6899L36.6899 19.166L36.6803 19.1742L36.6709 19.1824L37.9852 20.6899ZM35.2902 22.9299L34.0509 21.3602L29.5292 24.9299H35.2902V22.9299ZM45.6852 22.9299H47.6852V20.9299H45.6852V22.9299ZM45.6852 26.9199V28.9199H47.6852V26.9199H45.6852ZM28.5002 26.9199H30.5002V23.3149H28.5002H26.5002V26.9199H28.5002ZM28.5002 23.3149L29.7586 24.8694C31.2356 23.6737 32.678 22.4893 34.0855 21.3164L32.8052 19.7799L31.5248 18.2435C30.1323 19.4039 28.7047 20.5762 27.2418 21.7604L28.5002 23.3149ZM32.8052 19.7799L34.1005 21.3038C35.5402 20.08 36.8456 18.8721 38.0139 17.6795L36.5852 16.2799L35.1564 14.8804C34.0847 15.9745 32.8701 17.0998 31.5099 18.256L32.8052 19.7799ZM36.5852 16.2799L38.0279 17.665C39.2267 16.4163 40.2148 15.165 40.9634 13.9085L39.2452 12.8849L37.527 11.8613C36.9688 12.7982 36.1836 13.8102 35.1424 14.8949L36.5852 16.2799ZM39.2452 12.8849L40.9727 13.8927C41.7629 12.5381 42.2252 11.1084 42.2252 9.62992H40.2252H38.2252C38.2252 10.2515 38.0341 10.9917 37.5176 11.8772L39.2452 12.8849ZM40.2252 9.62992H42.2252C42.2252 8.75917 42.0561 7.91504 41.7093 7.11747L39.8752 7.91492L38.041 8.71237C38.1609 8.98814 38.2252 9.28734 38.2252 9.62992H40.2252ZM39.8752 7.91492L41.7093 7.11747C41.3217 6.22591 40.7072 5.49428 39.8996 4.95582L38.7902 6.61992L37.6808 8.28402C37.8531 8.39889 37.962 8.5306 38.041 8.71237L39.8752 7.91492ZM38.7902 6.61992L39.8996 4.95582C38.985 4.3461 37.9195 4.12992 36.8652 4.12992V6.12992V8.12992C37.3975 8.12992 37.6153 8.24041 37.6808 8.28402L38.7902 6.61992ZM36.8652 6.12992V4.12992C35.7589 4.12992 34.6949 4.40308 33.7608 5.02582L34.8702 6.68992L35.9796 8.35402C36.1655 8.23009 36.4314 8.12992 36.8652 8.12992V6.12992ZM34.8702 6.68992L33.7776 5.0147C32.912 5.57922 32.2598 6.354 31.8292 7.28681L33.6452 8.12492L35.4611 8.96304C35.5906 8.68251 35.755 8.50062 35.9627 8.36514L34.8702 6.68992ZM33.6452 8.12492L31.8032 7.34564C31.4261 8.23691 31.2602 9.19685 31.2602 10.1899H33.2602H35.2602C35.2602 9.64299 35.3508 9.22627 35.4871 8.9042L33.6452 8.12492ZM33.2602 10.1899V8.18992H28.5352V10.1899V12.1899H33.2602V10.1899ZM28.5352 10.1899L30.5345 10.2405C30.5748 8.64856 30.9136 7.48984 31.4285 6.65312L29.7252 5.60492L28.0218 4.55673C27.0434 6.14666 26.5888 8.04461 26.5358 10.1393L28.5352 10.1899ZM29.7252 5.60492L31.4138 6.67657C31.9858 5.77531 32.7113 5.14111 33.6104 4.72485L32.7702 2.90992L31.9299 1.09499C30.309 1.8454 29.0045 3.00787 28.0365 4.53327L29.7252 5.60492ZM32.7702 2.90992L33.6249 4.71807C34.6149 4.25007 35.7421 3.99992 37.0402 3.99992V1.99992V-7.86781e-05C35.2115 -7.86781e-05 33.4921 0.356441 31.9154 1.10178L32.7702 2.90992ZM37.0402 1.99992V3.99992C38.5484 3.99992 39.6658 4.28187 40.4876 4.73308L41.4502 2.97992L42.4127 1.22676C40.8545 0.37131 39.0319 -7.86781e-05 37.0402 -7.86781e-05V1.99992ZM41.4502 2.97992L40.5285 4.75491C41.4143 5.21481 42.0195 5.81529 42.4216 6.55749L44.1802 5.60492L45.9387 4.65235C45.1274 3.15456 43.9127 2.00503 42.3718 1.20493L41.4502 2.97992ZM44.1802 5.60492L42.4459 6.60117C42.8837 7.36311 43.1252 8.26121 43.1252 9.34992H45.1252H47.1252C47.1252 7.63863 46.7367 6.04006 45.9144 4.60867L44.1802 5.60492ZM45.1252 9.34992H43.1252C43.1252 10.1704 42.9747 10.9764 42.6646 11.7791L44.5302 12.4999L46.3958 13.2207C46.879 11.9701 47.1252 10.6761 47.1252 9.34992H45.1252ZM44.5302 12.4999L42.6557 11.8025C42.3482 12.629 41.9083 13.4565 41.3223 14.285L42.9552 15.4399L44.588 16.5949C45.3553 15.51 45.9655 14.3775 46.4046 13.1974L44.5302 12.4999ZM42.9552 15.4399L41.3223 14.285C40.7092 15.1519 40.0068 15.9936 39.2122 16.8097L40.6452 18.2049L42.0781 19.6002C43.0102 18.6429 43.8478 17.6413 44.588 16.5949L42.9552 15.4399ZM40.6452 18.2049L39.2117 16.8102C38.4164 17.6276 37.5759 18.4129 36.6899 19.166L37.9852 20.6899L39.2805 22.2138C40.261 21.3803 41.1939 20.5089 42.0786 19.5996L40.6452 18.2049ZM37.9852 20.6899L36.6709 19.1824C35.7837 19.9558 34.9104 20.6816 34.0509 21.3602L35.2902 22.9299L36.5294 24.4997C37.4433 23.7782 38.3666 23.0107 39.2994 22.1975L37.9852 20.6899ZM35.2902 22.9299V24.9299H45.6852V22.9299V20.9299H35.2902V22.9299ZM45.6852 22.9299H43.6852V26.9199H45.6852H47.6852V22.9299H45.6852ZM45.6852 26.9199V24.9199H28.5002V26.9199V28.9199H45.6852V26.9199Z" fill="url(#paint0_linear_816_2901)" mask="url(#path-1-outside-1_816_2901)"/>
</g>
<defs>
<linearGradient id="paint0_linear_816_2901" x1="23.5195" y1="2.91992" x2="23.5195" y2="26.9199" gradientUnits="userSpaceOnUse">
<stop stop-color="#FF5E01"/>
<stop offset="1" stop-color="#FF9404"/>
</linearGradient>
</defs>
</svg>
