<svg width="84" height="53" viewBox="0 0 84 53" fill="none" xmlns="http://www.w3.org/2000/svg">
<path d="M10.4809 48.2798L10.0564 48.8982L10.0628 48.9024L10.4809 48.2798ZM3.27094 39.3898L2.5842 39.6913L2.58558 39.6944L3.27094 39.3898ZM3.27094 12.8598L3.9563 13.1644L3.95767 13.1613L3.27094 12.8598ZM10.4809 3.96984L10.8991 4.59248L10.9054 4.58814L10.4809 3.96984ZM32.8109 3.96984L32.382 4.58523L32.3928 4.59245L32.8109 3.96984ZM39.9509 12.8598L39.2611 13.1543L39.2656 13.1644L39.9509 12.8598ZM39.9509 39.3898L39.2642 39.0883L39.2625 39.0924L39.9509 39.3898ZM32.8109 48.2798L33.2334 48.8995L33.2354 48.8981L32.8109 48.2798ZM28.6809 42.8898L28.2374 42.285L28.2309 42.2898L28.6809 42.8898ZM33.5809 36.3098L34.2749 36.5943L33.5809 36.3098ZM33.5809 15.8698L34.2749 15.5854L33.5809 15.8698ZM28.6809 9.35984L28.2309 9.95984L28.2385 9.96555L28.2463 9.97106L28.6809 9.35984ZM14.5409 9.35984L14.9756 9.97112L14.9845 9.96464L14.5409 9.35984ZM9.64094 15.8698L10.3349 16.1543L9.64094 15.8698ZM14.5409 42.8898L14.9845 42.285L14.5409 42.8898ZM21.6809 51.4298V50.6798C17.4666 50.6798 13.8841 49.6621 10.8991 47.6572L10.4809 48.2798L10.0628 48.9024C13.3311 51.0976 17.2153 52.1798 21.6809 52.1798V51.4298ZM10.4809 48.2798L10.9054 47.6615C7.90332 45.6004 5.58529 42.7505 3.9563 39.0852L3.27094 39.3898L2.58558 39.6944C4.31659 43.5892 6.80523 46.666 10.0564 48.8981L10.4809 48.2798ZM3.27094 39.3898L3.95767 39.0884C2.32706 35.3742 1.50094 31.047 1.50094 26.0898H0.750938H0.0009377C0.0009377 31.2127 0.85481 35.7522 2.5842 39.6913L3.27094 39.3898ZM0.750938 26.0898H1.50094C1.50094 21.1324 2.32716 16.83 3.9563 13.1644L3.27094 12.8598L2.58558 12.5552C0.854713 16.4497 0.0009377 20.9673 0.0009377 26.0898H0.750938ZM3.27094 12.8598L3.95767 13.1613C5.58692 9.45026 7.90333 6.60453 10.8991 4.59245L10.4809 3.96984L10.0628 3.34724C6.80521 5.53515 4.31495 8.61609 2.5842 12.5583L3.27094 12.8598ZM10.4809 3.96984L10.9054 4.58814C13.8898 2.53921 17.4699 1.49984 21.6809 1.49984V0.749843V-0.000157118C17.212 -0.000157118 13.3255 1.10714 10.0564 3.35154L10.4809 3.96984ZM21.6809 0.749843V1.49984C25.8923 1.49984 29.4467 2.53929 32.3821 4.58514L32.8109 3.96984L33.2398 3.35454C30.0151 1.10706 26.1496 -0.000157118 21.6809 -0.000157118V0.749843ZM32.8109 3.96984L32.3928 4.59245C35.3866 6.60325 37.6786 9.44647 39.2611 13.1543L39.9509 12.8598L40.6407 12.5654C38.9567 8.61988 36.4886 5.53643 33.2291 3.34724L32.8109 3.96984ZM39.9509 12.8598L39.2656 13.1644C40.8947 16.83 41.7209 21.1324 41.7209 26.0898H42.4709H43.2209C43.2209 20.9673 42.3672 16.4497 40.6363 12.5552L39.9509 12.8598ZM42.4709 26.0898H41.7209C41.7209 31.047 40.8948 35.3742 39.2642 39.0884L39.9509 39.3898L40.6377 39.6913C42.3671 35.7522 43.2209 31.2127 43.2209 26.0898H42.4709ZM39.9509 39.3898L39.2625 39.0924C37.6802 42.7542 35.3867 45.6017 32.3864 47.6615L32.8109 48.2798L33.2354 48.8981C36.4885 46.6647 38.955 43.5854 40.6394 39.6873L39.9509 39.3898ZM32.8109 48.2798L32.3884 47.6602C29.4524 49.662 25.8956 50.6798 21.6809 50.6798V51.4298V52.1798C26.1463 52.1798 30.0094 51.0977 33.2334 48.8995L32.8109 48.2798ZM21.6809 45.1998V45.9498C24.4534 45.9498 26.9453 45.1291 29.1309 43.4898L28.6809 42.8898L28.2309 42.2898C26.3099 43.7306 24.1352 44.4498 21.6809 44.4498V45.1998ZM28.6809 42.8898L29.1245 43.4946C31.3547 41.8592 33.0655 39.5453 34.2749 36.5943L33.5809 36.3098L32.887 36.0254C31.7631 38.7677 30.2072 40.8405 28.2374 42.285L28.6809 42.8898ZM33.5809 36.3098L34.2749 36.5943C35.4876 33.6353 36.0809 30.1271 36.0809 26.0898H35.3309H34.5809C34.5809 29.9859 34.0076 33.291 32.887 36.0254L33.5809 36.3098ZM35.3309 26.0898H36.0809C36.0809 22.0526 35.4876 18.5443 34.2749 15.5854L33.5809 15.8698L32.887 16.1543C34.0076 18.8887 34.5809 22.1938 34.5809 26.0898H35.3309ZM33.5809 15.8698L34.2749 15.5854C33.065 12.6332 31.3519 10.3389 29.1156 8.74862L28.6809 9.35984L28.2463 9.97106C30.2099 11.3674 31.7635 13.4131 32.887 16.1543L33.5809 15.8698ZM28.6809 9.35984L29.1309 8.75984C26.9453 7.12058 24.4534 6.29984 21.6809 6.29984V7.04984V7.79984C24.1352 7.79984 26.3099 8.5191 28.2309 9.95984L28.6809 9.35984ZM21.6809 7.04984V6.29984C18.8651 6.29984 16.329 7.11855 14.0974 8.75504L14.5409 9.35984L14.9845 9.96464C16.9529 8.52113 19.1768 7.79984 21.6809 7.79984V7.04984ZM14.5409 9.35984L14.1063 8.74862C11.8699 10.3389 10.1569 12.6332 8.94696 15.5854L9.64094 15.8698L10.3349 16.1543C11.4583 13.4131 13.0119 11.3674 14.9756 9.97106L14.5409 9.35984ZM9.64094 15.8698L8.94696 15.5854C7.73429 18.5443 7.14094 22.0526 7.14094 26.0898H7.89094H8.64094C8.64094 22.1938 9.21425 18.8887 10.3349 16.1543L9.64094 15.8698ZM7.89094 26.0898H7.14094C7.14094 30.1271 7.73429 33.6353 8.94696 36.5943L9.64094 36.3098L10.3349 36.0254C9.21425 33.291 8.64094 29.9859 8.64094 26.0898H7.89094ZM9.64094 36.3098L8.94696 36.5943C10.1564 39.5453 11.8672 41.8592 14.0974 43.4946L14.5409 42.8898L14.9845 42.285C13.0147 40.8405 11.4588 38.7677 10.3349 36.0254L9.64094 36.3098ZM14.5409 42.8898L14.0974 43.4946C16.329 45.1311 18.8651 45.9498 21.6809 45.9498V45.1998V44.4498C19.1768 44.4498 16.9529 43.7286 14.9845 42.285L14.5409 42.8898ZM57.831 49.7498L57.5207 50.4326L57.5281 50.436L57.5356 50.4392L57.831 49.7498ZM51.671 44.5698L51.0393 44.9741L51.044 44.9815L51.0489 44.9888L51.671 44.5698ZM49.291 35.8198V35.0698H48.5207L48.5413 35.8398L49.291 35.8198ZM56.291 35.8198L57.0408 35.8001L57.0215 35.0698H56.291V35.8198ZM57.551 40.6498L58.2086 40.2892L57.551 40.6498ZM60.981 44.1498L60.5981 44.7947L60.6099 44.8017L60.6219 44.8083L60.981 44.1498ZM71.691 44.2198L71.3304 43.5622L71.3213 43.5673L71.691 44.2198ZM74.911 40.9998L74.2543 40.6375L74.2495 40.6463L74.2449 40.6553L74.911 40.9998ZM74.491 31.3398L73.891 31.7898L73.8961 31.7966L73.9013 31.8032L74.491 31.3398ZM70.431 28.3998L70.1592 29.0989L70.1656 29.1013L70.431 28.3998ZM61.121 27.4198H60.371V28.1698H61.121V27.4198ZM61.121 21.5398V20.7898H60.371V21.5398H61.121ZM71.761 19.5098L71.306 18.9136L71.2984 18.9195L71.761 19.5098ZM72.391 8.72984L72.912 8.19029V8.19029L72.391 8.72984ZM60.211 9.00984L59.6888 8.47135L59.6807 8.47951L60.211 9.00984ZM57.691 14.6798V15.4298H58.3823L58.4385 14.7409L57.691 14.6798ZM50.761 14.6798L50.012 14.6418L49.9719 15.4298H50.761V14.6798ZM52.931 7.39984L52.2966 6.99986L52.2942 7.00361L52.931 7.39984ZM58.391 2.49984L58.7209 3.17341L58.7264 3.17066L58.391 2.49984ZM74.631 2.49984L74.2788 3.162L74.2872 3.16643L74.2956 3.17066L74.631 2.49984ZM79.671 7.04984L79.0237 7.42879L79.0307 7.4403L79.671 7.04984ZM80.441 18.1798L81.1246 18.4886L81.1281 18.4805L80.441 18.1798ZM77.641 21.9598L77.1441 21.3981L77.641 21.9598ZM73.231 24.2698L73.0353 23.5458L73.0839 25.0053L73.231 24.2698ZM81.771 30.6398L81.0965 30.968L81.1002 30.9753L81.771 30.6398ZM81.141 43.9398L81.7947 44.3076L81.7979 44.3018L81.141 43.9398ZM75.541 49.3998L75.9063 50.0549L75.9105 50.0525L75.541 49.3998ZM66.441 51.4298V50.6798C63.4057 50.6798 60.6375 50.1367 58.1265 49.0605L57.831 49.7498L57.5356 50.4392C60.2512 51.603 63.223 52.1798 66.441 52.1798V51.4298ZM57.831 49.7498L58.1414 49.0671C55.698 47.9564 53.7538 46.3198 52.2931 44.1509L51.671 44.5698L51.0489 44.9888C52.6683 47.3933 54.8307 49.2099 57.5207 50.4326L57.831 49.7498ZM51.671 44.5698L52.3027 44.1656C50.9 41.9739 50.1314 39.199 50.0407 35.7999L49.291 35.8198L48.5413 35.8398C48.6373 39.4407 49.4553 42.4991 51.0393 44.9741L51.671 44.5698ZM49.291 35.8198V36.5698H56.291V35.8198V35.0698H49.291V35.8198ZM56.291 35.8198L55.5413 35.8396C55.5908 37.7231 56.0384 39.4514 56.8934 41.0105L57.551 40.6498L58.2086 40.2892C57.477 38.955 57.0845 37.4633 57.0408 35.8001L56.291 35.8198ZM57.551 40.6498L56.8934 41.0105C57.7547 42.581 58.9958 43.8433 60.5981 44.7947L60.981 44.1498L61.3639 43.505C59.9796 42.683 58.934 41.612 58.2086 40.2892L57.551 40.6498ZM60.981 44.1498L60.6219 44.8083C62.2918 45.7192 64.2402 46.1598 66.441 46.1598V45.4098V44.6598C64.4418 44.6598 62.7502 44.2605 61.3402 43.4914L60.981 44.1498ZM66.441 45.4098V46.1598C68.6322 46.1598 70.5187 45.7462 72.0608 44.8724L71.691 44.2198L71.3213 43.5673C70.0633 44.2802 68.4499 44.6598 66.441 44.6598V45.4098ZM71.691 44.2198L72.0516 44.8775C73.6177 44.0187 74.803 42.8412 75.5772 41.3444L74.911 40.9998L74.2449 40.6553C73.619 41.8652 72.6577 42.8344 71.3304 43.5622L71.691 44.2198ZM74.911 40.9998L75.5677 41.3622C76.3808 39.8884 76.781 38.2452 76.781 36.4498H76.031H75.281C75.281 38.0144 74.9345 39.4046 74.2543 40.6375L74.911 40.9998ZM76.031 36.4498H76.781C76.781 34.2269 76.236 32.3468 75.0808 30.8765L74.491 31.3398L73.9013 31.8032C74.7993 32.9462 75.281 34.4728 75.281 36.4498H76.031ZM74.491 31.3398L75.091 30.8898C74.0148 29.455 72.5384 28.3953 70.6964 27.6984L70.431 28.3998L70.1656 29.1013C71.777 29.711 73.0072 30.6114 73.891 31.7898L74.491 31.3398ZM70.431 28.3998L70.7029 27.7008C68.9231 27.0087 66.9389 26.6698 64.761 26.6698V27.4198V28.1698C66.7831 28.1698 68.5789 28.4843 70.1592 29.0988L70.431 28.3998ZM64.761 27.4198V26.6698H61.121V27.4198V28.1698H64.761V27.4198ZM61.121 27.4198H61.871V21.5398H61.121H60.371V27.4198H61.121ZM61.121 21.5398V22.2898H64.761V21.5398V20.7898H61.121V21.5398ZM64.761 21.5398V22.2898C67.8119 22.2898 70.3263 21.5873 72.2237 20.1001L71.761 19.5098L71.2984 18.9195C69.7424 20.1391 67.5901 20.7898 64.761 20.7898V21.5398ZM71.761 19.5098L72.216 20.1061C74.1973 18.594 75.171 16.4478 75.171 13.7698H74.421H73.671C73.671 16.0385 72.8714 17.719 71.306 18.9136L71.761 19.5098ZM74.421 13.7698H75.171C75.171 11.5336 74.4259 9.652 72.912 8.19029L72.391 8.72984L71.8701 9.26939C73.0628 10.421 73.671 11.8994 73.671 13.7698H74.421ZM72.391 8.72984L72.912 8.19029C71.372 6.70343 69.1721 6.01984 66.441 6.01984V6.76984V7.51984C68.9366 7.51984 70.7034 8.14291 71.8701 9.26939L72.391 8.72984ZM66.441 6.76984V6.01984C63.6779 6.01984 61.3982 6.81394 59.6889 8.47142L60.211 9.00984L60.7331 9.54827C62.1039 8.21908 63.9775 7.51984 66.441 7.51984V6.76984ZM60.211 9.00984L59.6807 8.47951C58.0504 10.1098 57.1433 12.1714 56.9435 14.6188L57.691 14.6798L58.4385 14.7409C58.6121 12.615 59.385 10.8965 60.7413 9.54017L60.211 9.00984ZM57.691 14.6798V13.9298H50.761V14.6798V15.4298H57.691V14.6798ZM50.761 14.6798L51.51 14.7179C51.6443 12.0767 52.3357 9.77618 53.5678 7.79607L52.931 7.39984L52.2942 7.00361C50.913 9.22351 50.1577 11.7763 50.012 14.6418L50.761 14.6798ZM52.931 7.39984L53.5655 7.79982C54.8443 5.77124 56.5587 4.23242 58.7209 3.17339L58.391 2.49984L58.0611 1.82629C55.65 3.00726 53.7243 4.73511 52.2966 6.99987L52.931 7.39984ZM58.391 2.49984L58.7264 3.17066C60.9399 2.06392 63.5052 1.49984 66.441 1.49984V0.749843V-0.000157118C63.3102 -0.000157118 60.5088 0.60243 58.0556 1.82902L58.391 2.49984ZM66.441 0.749843V1.49984C69.6222 1.49984 72.2227 2.06831 74.2788 3.162L74.631 2.49984L74.9832 1.83769C72.6527 0.598045 69.7932 -0.000157118 66.441 -0.000157118V0.749843ZM74.631 2.49984L74.2956 3.17066C76.4229 4.23433 77.9865 5.65666 79.0238 7.42873L79.671 7.04984L80.3183 6.67096C79.1156 4.61636 77.3191 3.00536 74.9664 1.82902L74.631 2.49984ZM79.671 7.04984L79.0307 7.4403C80.1241 9.23352 80.671 11.198 80.671 13.3498H81.421H82.171C82.171 10.9284 81.5513 8.69283 80.3114 6.65939L79.671 7.04984ZM81.421 13.3498H80.671C80.671 14.9793 80.3633 16.4862 79.7539 17.8792L80.441 18.1798L81.1281 18.4805C81.8254 16.8868 82.171 15.1737 82.171 13.3498H81.421ZM80.441 18.1798L79.7575 17.8712C79.1487 19.2192 78.2797 20.3935 77.1441 21.3981L77.641 21.9598L78.1379 22.5216C79.429 21.3795 80.4267 20.0338 81.1245 18.4885L80.441 18.1798ZM77.641 21.9598L77.1441 21.3981C76.026 22.3872 74.6622 23.1061 73.0353 23.5458L73.231 24.2698L73.4267 24.9939C75.2532 24.5002 76.8293 23.6792 78.1379 22.5216L77.641 21.9598ZM73.231 24.2698L73.0839 25.0053C74.8496 25.3584 76.4298 26.0401 77.8333 27.0489L78.271 26.4398L78.7087 25.8308C77.1256 24.6929 75.3458 23.9279 73.3781 23.5344L73.231 24.2698ZM78.271 26.4398L77.8333 27.0489C79.2211 28.0464 80.3085 29.348 81.0966 30.9679L81.771 30.6398L82.4454 30.3117C81.5535 28.4784 80.3076 26.98 78.7087 25.8308L78.271 26.4398ZM81.771 30.6398L81.1002 30.9753C81.879 32.5329 82.281 34.374 82.281 36.5198H83.031H83.781C83.781 34.1856 83.343 32.1068 82.4418 30.3044L81.771 30.6398ZM83.031 36.5198H82.281C82.281 39.0558 81.6819 41.4042 80.4841 43.5779L81.141 43.9398L81.7979 44.3018C83.1202 41.9021 83.781 39.3039 83.781 36.5198H83.031ZM81.141 43.9398L80.4873 43.5721C79.3013 45.6807 77.5389 47.4071 75.1716 48.7472L75.541 49.3998L75.9105 50.0525C78.4898 48.5925 80.4607 46.679 81.7947 44.3075L81.141 43.9398ZM75.541 49.3998L75.1757 48.7448C72.8901 50.0195 69.9916 50.6798 66.441 50.6798V51.4298V52.1798C70.1704 52.1798 73.3386 51.4869 75.9063 50.0549L75.541 49.3998Z" fill="url(#paint0_linear_3964_639)" fill-opacity="0.5"/>
<defs>
<linearGradient id="paint0_linear_3964_639" x1="-2.53906" y1="26.0898" x2="87.4609" y2="26.0898" gradientUnits="userSpaceOnUse">
<stop stop-color="#FF5F01"/>
<stop offset="1" stop-color="#FF9404"/>
</linearGradient>
</defs>
</svg>
