<svg width="48" height="30" viewBox="0 0 48 30" fill="none" xmlns="http://www.w3.org/2000/svg">
<g opacity="0.5">
<mask id="path-1-outside-1_816_2914" maskUnits="userSpaceOnUse" x="-0.990234" y="-0.0800781" width="49" height="30" fill="black">
<rect fill="white" x="-0.990234" y="-0.0800781" width="49" height="30"/>
<path d="M12.7798 27.3399C10.5398 27.3399 8.6148 26.8033 7.0048 25.7299C5.3948 24.6566 4.15814 23.1749 3.2948 21.2849C2.43147 19.3716 1.9998 17.1666 1.9998 14.6699C1.9998 12.1733 2.43147 9.97992 3.2948 8.08992C4.15814 6.17659 5.3948 4.68325 7.0048 3.60992C8.6148 2.53659 10.5398 1.99992 12.7798 1.99992C15.0198 1.99992 16.9331 2.53659 18.5198 3.60992C20.1298 4.68325 21.3665 6.17659 22.2298 8.08992C23.0931 9.97992 23.5248 12.1733 23.5248 14.6699C23.5248 17.1666 23.0931 19.3716 22.2298 21.2849C21.3665 23.1749 20.1298 24.6566 18.5198 25.7299C16.9331 26.8033 15.0198 27.3399 12.7798 27.3399ZM12.7798 22.9299C13.9231 22.9299 14.9265 22.5916 15.7898 21.9149C16.6531 21.2383 17.3298 20.2933 17.8198 19.0799C18.3098 17.8433 18.5548 16.3733 18.5548 14.6699C18.5548 12.9666 18.3098 11.5083 17.8198 10.2949C17.3298 9.05825 16.6531 8.10159 15.7898 7.42492C14.9265 6.74825 13.9231 6.40992 12.7798 6.40992C11.6365 6.40992 10.6331 6.74825 9.76981 7.42492C8.90647 8.10159 8.2298 9.05825 7.7398 10.2949C7.2498 11.5083 7.0048 12.9666 7.0048 14.6699C7.0048 16.3733 7.2498 17.8433 7.7398 19.0799C8.2298 20.2933 8.90647 21.2383 9.76981 21.9149C10.6331 22.5916 11.6365 22.9299 12.7798 22.9299ZM37.3867 27.3399C35.8001 27.3399 34.3417 27.0483 33.0117 26.4649C31.6817 25.8816 30.6084 24.9949 29.7917 23.8049C28.9984 22.6149 28.5784 21.0983 28.5317 19.2549H33.3617C33.3617 20.0016 33.5251 20.6783 33.8517 21.2849C34.1784 21.8916 34.6451 22.3699 35.2517 22.7199C35.8584 23.0699 36.5817 23.2449 37.4217 23.2449C38.2151 23.2449 38.8917 23.0933 39.4517 22.7899C40.0117 22.4633 40.4317 22.0433 40.7117 21.5299C40.9917 20.9933 41.1317 20.3866 41.1317 19.7099C41.1317 18.9399 40.9334 18.2983 40.5367 17.7849C40.1634 17.2483 39.6267 16.8399 38.9267 16.5599C38.2501 16.2799 37.4567 16.1399 36.5467 16.1399H34.7267V12.1149H36.5467C37.6667 12.1149 38.6117 11.8583 39.3817 11.3449C40.1517 10.8316 40.5367 10.0383 40.5367 8.96492C40.5367 8.10159 40.2451 7.41325 39.6617 6.89992C39.1017 6.38659 38.3434 6.12992 37.3867 6.12992C36.2667 6.12992 35.4034 6.45659 34.7967 7.10992C34.1901 7.73992 33.8517 8.52159 33.7817 9.45492H29.0217C29.0917 7.89159 29.4767 6.54992 30.1767 5.42992C30.9001 4.30992 31.8801 3.45825 33.1167 2.87492C34.3534 2.29159 35.7767 1.99992 37.3867 1.99992C39.0901 1.99992 40.5367 2.30325 41.7267 2.90992C42.9167 3.49325 43.8151 4.28659 44.4217 5.28992C45.0284 6.29325 45.3317 7.38992 45.3317 8.57992C45.3317 9.55992 45.1451 10.4233 44.7717 11.1699C44.4217 11.8933 43.9434 12.4999 43.3367 12.9899C42.7301 13.4799 42.0767 13.8299 41.3767 14.0399C42.2867 14.2266 43.0801 14.5883 43.7567 15.1249C44.4334 15.6383 44.9584 16.3033 45.3317 17.1199C45.7284 17.9366 45.9267 18.8699 45.9267 19.9199C45.9267 21.2499 45.6001 22.4866 44.9467 23.6299C44.2934 24.7499 43.3251 25.6483 42.0417 26.3249C40.7817 27.0016 39.2301 27.3399 37.3867 27.3399Z"/>
</mask>
<path d="M7.00481 25.7299L8.11421 24.0658L7.00481 25.7299ZM3.2948 21.2849L1.47178 22.1075L1.47561 22.1159L3.2948 21.2849ZM3.2948 8.08992L5.11402 8.92092L5.11781 8.9125L3.2948 8.08992ZM7.00481 3.60992L8.11421 5.27402L7.00481 3.60992ZM18.5198 3.60992L17.3992 5.26653L17.4104 5.27402L18.5198 3.60992ZM22.2298 8.08992L20.4068 8.91251L20.4106 8.92091L22.2298 8.08992ZM22.2298 21.2849L24.049 22.1159L24.0528 22.1075L22.2298 21.2849ZM18.5198 25.7299L17.4104 24.0658L17.3992 24.0734L18.5198 25.7299ZM17.8198 19.0799L19.6743 19.8289L19.6792 19.8167L17.8198 19.0799ZM17.8198 10.2949L15.9604 11.0317L15.9653 11.0438L17.8198 10.2949ZM15.7898 7.42492L17.0236 5.85081L17.0236 5.85081L15.7898 7.42492ZM9.7698 7.42492L8.53604 5.85081L8.53604 5.85081L9.7698 7.42492ZM7.7398 10.2949L9.59433 11.0439L9.59917 11.0316L7.7398 10.2949ZM7.7398 19.0799L5.8804 19.8167L5.88532 19.8288L7.7398 19.0799ZM9.7698 21.9149L11.0036 20.3408L9.7698 21.9149ZM12.7798 27.3399V25.3399C10.8708 25.3399 9.34627 24.8872 8.11421 24.0658L7.00481 25.7299L5.8954 27.394C7.88334 28.7193 10.2088 29.3399 12.7798 29.3399V27.3399ZM7.00481 25.7299L8.11421 24.0658C6.83661 23.2141 5.83467 22.0316 5.114 20.4539L3.2948 21.2849L1.47561 22.1159C2.4816 24.3182 3.953 26.0991 5.8954 27.394L7.00481 25.7299ZM3.2948 21.2849L5.11782 20.4623C4.39112 18.8518 3.9998 16.9359 3.9998 14.6699H1.9998H-0.00019525C-0.00019525 17.3973 0.471827 19.8914 1.47179 22.1075L3.2948 21.2849ZM1.9998 14.6699H3.9998C3.9998 12.4032 4.39136 10.5029 5.114 8.92091L3.2948 8.08992L1.47561 7.25893C0.471585 9.45694 -0.00019525 11.9433 -0.00019525 14.6699H1.9998ZM3.2948 8.08992L5.11781 8.9125C5.84048 7.31092 6.84267 6.12171 8.11421 5.27402L7.00481 3.60992L5.8954 1.94582C3.94694 3.2448 2.4758 5.04226 1.47179 7.26734L3.2948 8.08992ZM7.00481 3.60992L8.11421 5.27402C9.34627 4.45264 10.8708 3.99992 12.7798 3.99992V1.99992V-7.86781e-05C10.2088 -7.86781e-05 7.88334 0.620533 5.8954 1.94582L7.00481 3.60992ZM12.7798 1.99992V3.99992C14.6897 3.99992 16.1965 4.45289 17.3992 5.26649L18.5198 3.60992L19.6404 1.95335C17.6698 0.620286 15.35 -7.86781e-05 12.7798 -7.86781e-05V1.99992ZM18.5198 3.60992L17.4104 5.27402C18.6819 6.12171 19.6841 7.31092 20.4068 8.9125L22.2298 8.08992L24.0528 7.26734C23.0488 5.04226 21.5777 3.2448 19.6292 1.94582L18.5198 3.60992ZM22.2298 8.08992L20.4106 8.92091C21.1333 10.5029 21.5248 12.4032 21.5248 14.6699H23.5248H25.5248C25.5248 11.9433 25.053 9.45694 24.049 7.25893L22.2298 8.08992ZM23.5248 14.6699H21.5248C21.5248 16.9359 21.1335 18.8518 20.4068 20.4623L22.2298 21.2849L24.0528 22.1075C25.0528 19.8914 25.5248 17.3973 25.5248 14.6699H23.5248ZM22.2298 21.2849L20.4106 20.4539C19.6899 22.0316 18.688 23.2141 17.4104 24.0658L18.5198 25.7299L19.6292 27.394C21.5716 26.0991 23.043 24.3182 24.049 22.1159L22.2298 21.2849ZM18.5198 25.7299L17.3992 24.0734C16.1965 24.887 14.6897 25.3399 12.7798 25.3399V27.3399V29.3399C15.35 29.3399 17.6698 28.7196 19.6404 27.3865L18.5198 25.7299ZM12.7798 22.9299V24.9299C14.3501 24.9299 15.7925 24.454 17.0236 23.489L15.7898 21.9149L14.556 20.3408C14.0605 20.7292 13.4962 20.9299 12.7798 20.9299V22.9299ZM15.7898 21.9149L17.0236 23.489C18.2113 22.5581 19.0785 21.304 19.6743 19.8288L17.8198 19.0799L15.9653 18.331C15.5811 19.2825 15.095 19.9184 14.556 20.3408L15.7898 21.9149ZM17.8198 19.0799L19.6792 19.8167C20.2841 18.2899 20.5548 16.5579 20.5548 14.6699H18.5548H16.5548C16.5548 16.1887 16.3355 17.3966 15.9604 18.3432L17.8198 19.0799ZM18.5548 14.6699H20.5548C20.5548 12.7836 20.2846 11.0573 19.6743 9.546L17.8198 10.2949L15.9653 11.0438C16.335 11.9593 16.5548 13.1496 16.5548 14.6699H18.5548ZM17.8198 10.2949L19.6792 9.55819C19.0863 8.0619 18.2198 6.78841 17.0236 5.85081L15.7898 7.42492L14.556 8.99903C15.0865 9.41476 15.5733 10.0546 15.9604 11.0316L17.8198 10.2949ZM15.7898 7.42492L17.0236 5.85081C15.7925 4.88589 14.3501 4.40992 12.7798 4.40992V6.40992V8.40992C13.4962 8.40992 14.0605 8.61062 14.556 8.99903L15.7898 7.42492ZM12.7798 6.40992V4.40992C11.2095 4.40992 9.76715 4.88589 8.53604 5.85081L9.7698 7.42492L11.0036 8.99903C11.4991 8.61062 12.0634 8.40992 12.7798 8.40992V6.40992ZM9.7698 7.42492L8.53604 5.85081C7.33979 6.78841 6.47331 8.0619 5.88044 9.55819L7.7398 10.2949L9.59917 11.0316C9.9863 10.0546 10.4732 9.41476 11.0036 8.99903L9.7698 7.42492ZM7.7398 10.2949L5.88532 9.546C5.27501 11.0573 5.00481 12.7836 5.00481 14.6699H7.00481H9.0048C9.0048 13.1496 9.2246 11.9593 9.59429 11.0438L7.7398 10.2949ZM7.00481 14.6699H5.00481C5.00481 16.5579 5.27549 18.2899 5.88044 19.8167L7.7398 19.0799L9.59917 18.3432C9.22412 17.3966 9.0048 16.1887 9.0048 14.6699H7.00481ZM7.7398 19.0799L5.88532 19.8288C6.48107 21.304 7.34833 22.5581 8.53604 23.489L9.7698 21.9149L11.0036 20.3408C10.4646 19.9184 9.97854 19.2825 9.59429 18.331L7.7398 19.0799ZM9.7698 21.9149L8.53604 23.489C9.76715 24.454 11.2095 24.9299 12.7798 24.9299V22.9299V20.9299C12.0634 20.9299 11.4991 20.7292 11.0036 20.3408L9.7698 21.9149ZM33.0117 26.4649L33.815 24.6333L33.0117 26.4649ZM29.7917 23.8049L28.1276 24.9143L28.1351 24.9255L28.1427 24.9366L29.7917 23.8049ZM28.5317 19.2549V17.2549H26.4804L26.5324 19.3055L28.5317 19.2549ZM33.3617 19.2549H35.3617V17.2549H33.3617V19.2549ZM33.8517 21.2849L35.6127 20.3367H35.6127L33.8517 21.2849ZM35.2517 22.7199L34.2523 24.4523L35.2517 22.7199ZM39.4517 22.7899L40.4043 24.5485L40.4321 24.5334L40.4595 24.5175L39.4517 22.7899ZM40.7117 21.5299L42.4675 22.4876L42.4763 22.4714L42.4849 22.4551L40.7117 21.5299ZM40.5367 17.7849L38.8949 18.9271L38.9235 18.9682L38.9541 19.0078L40.5367 17.7849ZM38.9267 16.5599L38.162 18.408L38.173 18.4125L38.1839 18.4169L38.9267 16.5599ZM34.7267 16.1399H32.7267V18.1399H34.7267V16.1399ZM34.7267 12.1149V10.1149H32.7267V12.1149H34.7267ZM39.3817 11.3449L38.2723 9.68082L39.3817 11.3449ZM39.6617 6.89992L38.3103 8.37423L38.3252 8.38794L38.3405 8.40135L39.6617 6.89992ZM34.7967 7.10992L36.2374 8.4972L36.25 8.48413L36.2623 8.47082L34.7967 7.10992ZM33.7817 9.45492V11.4549H35.6373L35.7761 9.6045L33.7817 9.45492ZM29.0217 9.45492L27.0237 9.36546L26.9302 11.4549H29.0217V9.45492ZM30.1767 5.42992L28.4966 4.34487L28.4886 4.35734L28.4807 4.36992L30.1767 5.42992ZM41.7267 2.90992L40.8183 4.69173L40.8323 4.69886L40.8464 4.70576L41.7267 2.90992ZM44.4217 5.28992L46.1332 4.25508L46.1332 4.25508L44.4217 5.28992ZM44.7717 11.1699L42.9829 10.2755L42.9771 10.2871L42.9714 10.2988L44.7717 11.1699ZM43.3367 12.9899L42.08 11.434V11.434L43.3367 12.9899ZM41.3767 14.0399L40.802 12.1243L40.9748 15.9991L41.3767 14.0399ZM43.7567 15.1249L42.5139 16.6919L42.5308 16.7053L42.5479 16.7183L43.7567 15.1249ZM45.3317 17.1199L43.5128 17.9514L43.5225 17.9727L43.5327 17.9937L45.3317 17.1199ZM44.9467 23.6299L46.6743 24.6377L46.6788 24.63L46.6832 24.6222L44.9467 23.6299ZM42.0417 26.3249L41.1089 24.5558L41.1022 24.5593L41.0955 24.5629L42.0417 26.3249ZM37.3867 27.3399V25.3399C36.0508 25.3399 34.8692 25.0957 33.815 24.6333L33.0117 26.4649L32.2084 28.2965C33.8143 29.0008 35.5493 29.3399 37.3867 29.3399V27.3399ZM33.0117 26.4649L33.815 24.6333C32.8244 24.1989 32.0449 23.5536 31.4407 22.6732L29.7917 23.8049L28.1427 24.9366C29.1719 26.4362 30.539 27.5643 32.2084 28.2965L33.0117 26.4649ZM29.7917 23.8049L31.4558 22.6955C30.9246 21.8987 30.5709 20.7778 30.5311 19.2043L28.5317 19.2549L26.5324 19.3055C26.5859 21.4187 27.0722 23.3312 28.1276 24.9143L29.7917 23.8049ZM28.5317 19.2549V21.2549H33.3617V19.2549V17.2549H28.5317V19.2549ZM33.3617 19.2549H31.3617C31.3617 20.3042 31.5943 21.311 32.0908 22.2331L33.8517 21.2849L35.6127 20.3367C35.4558 20.0455 35.3617 19.699 35.3617 19.2549H33.3617ZM33.8517 21.2849L32.0908 22.2331C32.5966 23.1725 33.3295 23.9199 34.2523 24.4523L35.2517 22.7199L36.2512 20.9876C35.9606 20.8199 35.7602 20.6107 35.6127 20.3367L33.8517 21.2849ZM35.2517 22.7199L34.2523 24.4523C35.2182 25.0096 36.3009 25.2449 37.4217 25.2449V23.2449V21.2449C36.8626 21.2449 36.4985 21.1303 36.2512 20.9876L35.2517 22.7199ZM37.4217 23.2449V25.2449C38.4673 25.2449 39.4884 25.0446 40.4043 24.5485L39.4517 22.7899L38.4992 21.0313C38.295 21.1419 37.9628 21.2449 37.4217 21.2449V23.2449ZM39.4517 22.7899L40.4595 24.5175C41.2991 24.0277 41.9944 23.355 42.4675 22.4876L40.7117 21.5299L38.9559 20.5722C38.869 20.7316 38.7244 20.8988 38.444 21.0624L39.4517 22.7899ZM40.7117 21.5299L42.4849 22.4551C42.9307 21.6005 43.1317 20.6702 43.1317 19.7099H41.1317H39.1317C39.1317 20.1029 39.0527 20.386 38.9385 20.6048L40.7117 21.5299ZM41.1317 19.7099H43.1317C43.1317 18.583 42.8347 17.4878 42.1193 16.562L40.5367 17.7849L38.9541 19.0078C39.0321 19.1087 39.1317 19.2968 39.1317 19.7099H41.1317ZM40.5367 17.7849L42.1785 16.6428C41.5492 15.7381 40.6755 15.1054 39.6695 14.703L38.9267 16.5599L38.1839 18.4169C38.5779 18.5745 38.7776 18.7584 38.8949 18.9271L40.5367 17.7849ZM38.9267 16.5599L39.6914 14.7119C38.7212 14.3104 37.6575 14.1399 36.5467 14.1399V16.1399V18.1399C37.2559 18.1399 37.7789 18.2494 38.162 18.408L38.9267 16.5599ZM36.5467 16.1399V14.1399H34.7267V16.1399V18.1399H36.5467V16.1399ZM34.7267 16.1399H36.7267V12.1149H34.7267H32.7267V16.1399H34.7267ZM34.7267 12.1149V14.1149H36.5467V12.1149V10.1149H34.7267V12.1149ZM36.5467 12.1149V14.1149C37.9775 14.1149 39.329 13.7838 40.4911 13.009L39.3817 11.3449L38.2723 9.68082C37.8944 9.93275 37.3559 10.1149 36.5467 10.1149V12.1149ZM39.3817 11.3449L40.4911 13.009C41.9134 12.0608 42.5367 10.5828 42.5367 8.96492H40.5367H38.5367C38.5367 9.49367 38.39 9.60236 38.2723 9.68082L39.3817 11.3449ZM40.5367 8.96492H42.5367C42.5367 7.59824 42.0486 6.33628 40.983 5.39849L39.6617 6.89992L38.3405 8.40135C38.4415 8.49023 38.5367 8.60494 38.5367 8.96492H40.5367ZM39.6617 6.89992L41.0132 5.42561C39.9956 4.49287 38.7088 4.12992 37.3867 4.12992V6.12992V8.12992C37.9779 8.12992 38.2078 8.2803 38.3103 8.37423L39.6617 6.89992ZM37.3867 6.12992V4.12992C35.8626 4.12992 34.4086 4.58869 33.3311 5.74902L34.7967 7.10992L36.2623 8.47082C36.3982 8.32448 36.6708 8.12992 37.3867 8.12992V6.12992ZM34.7967 7.10992L33.3561 5.72264C32.4027 6.71264 31.8895 7.94263 31.7873 9.30534L33.7817 9.45492L35.7761 9.6045C35.8139 9.10054 35.9774 8.7672 36.2374 8.4972L34.7967 7.10992ZM33.7817 9.45492V7.45492H29.0217V9.45492V11.4549H33.7817V9.45492ZM29.0217 9.45492L31.0197 9.54438C31.0772 8.26137 31.3864 7.26805 31.8727 6.48992L30.1767 5.42992L28.4807 4.36992C27.5671 5.83179 27.1063 7.5218 27.0237 9.36546L29.0217 9.45492ZM30.1767 5.42992L31.8568 6.51497C32.3721 5.71706 33.062 5.11207 33.97 4.68378L33.1167 2.87492L32.2635 1.06606C30.6981 1.80443 29.428 2.90278 28.4966 4.34487L30.1767 5.42992ZM33.1167 2.87492L33.97 4.68378C34.8965 4.24673 36.0198 3.99992 37.3867 3.99992V1.99992V-7.86781e-05C35.5336 -7.86781e-05 33.8103 0.336445 32.2635 1.06606L33.1167 2.87492ZM37.3867 1.99992V3.99992C38.8587 3.99992 39.9763 4.26247 40.8183 4.69173L41.7267 2.90992L42.6351 1.12811C41.0971 0.344034 39.3214 -7.86781e-05 37.3867 -7.86781e-05V1.99992ZM41.7267 2.90992L40.8464 4.70576C41.7383 5.14298 42.327 5.69092 42.7103 6.32476L44.4217 5.28992L46.1332 4.25508C45.3031 2.88225 44.0951 1.84353 42.607 1.11408L41.7267 2.90992ZM44.4217 5.28992L42.7103 6.32476C43.1252 7.01104 43.3317 7.74898 43.3317 8.57992H45.3317H47.3317C47.3317 7.03086 46.9316 5.57547 46.1332 4.25508L44.4217 5.28992ZM45.3317 8.57992H43.3317C43.3317 9.30324 43.1951 9.85097 42.9829 10.2755L44.7717 11.1699L46.5606 12.0643C47.095 10.9955 47.3317 9.8166 47.3317 8.57992H45.3317ZM44.7717 11.1699L42.9714 10.2988C42.7459 10.7649 42.4501 11.1351 42.08 11.434L43.3367 12.9899L44.5934 14.5458C45.4366 13.8647 46.0976 13.0216 46.572 12.041L44.7717 11.1699ZM43.3367 12.9899L42.08 11.434C41.6615 11.7721 41.2372 11.9937 40.802 12.1243L41.3767 14.0399L41.9514 15.9556C42.9162 15.6661 43.7986 15.1878 44.5934 14.5458L43.3367 12.9899ZM41.3767 14.0399L40.9748 15.9991C41.6014 16.1277 42.1013 16.3646 42.5139 16.6919L43.7567 15.1249L44.9995 13.5579C44.0588 12.8119 42.972 12.3255 41.7786 12.0807L41.3767 14.0399ZM43.7567 15.1249L42.5479 16.7183C42.9463 17.0205 43.2687 17.4175 43.5128 17.9514L45.3317 17.1199L47.1507 16.2884C46.6481 15.189 45.9205 14.256 44.9655 13.5315L43.7567 15.1249ZM45.3317 17.1199L43.5327 17.9937C43.7779 18.4985 43.9267 19.1253 43.9267 19.9199H45.9267H47.9267C47.9267 18.6145 47.6789 17.3747 47.1307 16.2461L45.3317 17.1199ZM45.9267 19.9199H43.9267C43.9267 20.9055 43.6891 21.7997 43.2102 22.6376L44.9467 23.6299L46.6832 24.6222C47.511 23.1735 47.9267 21.5943 47.9267 19.9199H45.9267ZM44.9467 23.6299L43.2192 22.6222C42.7761 23.3817 42.1018 24.0322 41.1089 24.5558L42.0417 26.3249L42.9745 28.0941C44.5483 27.2643 45.8106 26.1182 46.6743 24.6377L44.9467 23.6299ZM42.0417 26.3249L41.0955 24.5629C40.1984 25.0447 38.9926 25.3399 37.3867 25.3399V27.3399V29.3399C39.4675 29.3399 41.365 28.9585 42.988 28.0869L42.0417 26.3249Z" fill="url(#paint0_linear_816_2914)" mask="url(#path-1-outside-1_816_2914)"/>
</g>
<defs>
<linearGradient id="paint0_linear_816_2914" x1="24.0098" y1="2.91992" x2="24.0098" y2="26.9199" gradientUnits="userSpaceOnUse">
<stop stop-color="#FF5E01"/>
<stop offset="1" stop-color="#FF9404"/>
</linearGradient>
</defs>
</svg>
