<svg width="88" height="53" viewBox="0 0 88 53" fill="none" xmlns="http://www.w3.org/2000/svg">
<path d="M10.4809 48.2798L10.0564 48.8982L10.0628 48.9024L10.4809 48.2798ZM3.27094 39.3898L2.5842 39.6913L2.58558 39.6944L3.27094 39.3898ZM3.27094 12.8598L3.9563 13.1644L3.95767 13.1613L3.27094 12.8598ZM10.4809 3.96984L10.8991 4.59248L10.9054 4.58814L10.4809 3.96984ZM32.8109 3.96984L32.382 4.58523L32.3928 4.59245L32.8109 3.96984ZM39.9509 12.8598L39.2611 13.1543L39.2656 13.1644L39.9509 12.8598ZM39.9509 39.3898L39.2642 39.0883L39.2625 39.0924L39.9509 39.3898ZM32.8109 48.2798L33.2334 48.8995L33.2354 48.8981L32.8109 48.2798ZM28.6809 42.8898L28.2374 42.285L28.2309 42.2898L28.6809 42.8898ZM33.5809 36.3098L34.2749 36.5943L33.5809 36.3098ZM33.5809 15.8698L34.2749 15.5854L33.5809 15.8698ZM28.6809 9.35984L28.2309 9.95984L28.2385 9.96555L28.2463 9.97106L28.6809 9.35984ZM14.5409 9.35984L14.9756 9.97112L14.9845 9.96464L14.5409 9.35984ZM9.64094 15.8698L10.3349 16.1543L9.64094 15.8698ZM14.5409 42.8898L14.9845 42.285L14.5409 42.8898ZM21.6809 51.4298V50.6798C17.4666 50.6798 13.8841 49.6621 10.8991 47.6572L10.4809 48.2798L10.0628 48.9024C13.3311 51.0976 17.2153 52.1798 21.6809 52.1798V51.4298ZM10.4809 48.2798L10.9054 47.6615C7.90332 45.6004 5.58529 42.7505 3.9563 39.0852L3.27094 39.3898L2.58558 39.6944C4.31659 43.5892 6.80523 46.666 10.0564 48.8981L10.4809 48.2798ZM3.27094 39.3898L3.95767 39.0884C2.32706 35.3742 1.50094 31.047 1.50094 26.0898H0.750938H0.0009377C0.0009377 31.2127 0.85481 35.7522 2.5842 39.6913L3.27094 39.3898ZM0.750938 26.0898H1.50094C1.50094 21.1324 2.32716 16.83 3.9563 13.1644L3.27094 12.8598L2.58558 12.5552C0.854713 16.4497 0.0009377 20.9673 0.0009377 26.0898H0.750938ZM3.27094 12.8598L3.95767 13.1613C5.58692 9.45026 7.90333 6.60453 10.8991 4.59245L10.4809 3.96984L10.0628 3.34724C6.80521 5.53515 4.31495 8.61609 2.5842 12.5583L3.27094 12.8598ZM10.4809 3.96984L10.9054 4.58814C13.8898 2.53921 17.4699 1.49984 21.6809 1.49984V0.749843V-0.000157118C17.212 -0.000157118 13.3255 1.10714 10.0564 3.35154L10.4809 3.96984ZM21.6809 0.749843V1.49984C25.8923 1.49984 29.4467 2.53929 32.3821 4.58514L32.8109 3.96984L33.2398 3.35454C30.0151 1.10706 26.1496 -0.000157118 21.6809 -0.000157118V0.749843ZM32.8109 3.96984L32.3928 4.59245C35.3866 6.60325 37.6786 9.44647 39.2611 13.1543L39.9509 12.8598L40.6407 12.5654C38.9567 8.61988 36.4886 5.53643 33.2291 3.34724L32.8109 3.96984ZM39.9509 12.8598L39.2656 13.1644C40.8947 16.83 41.7209 21.1324 41.7209 26.0898H42.4709H43.2209C43.2209 20.9673 42.3672 16.4497 40.6363 12.5552L39.9509 12.8598ZM42.4709 26.0898H41.7209C41.7209 31.047 40.8948 35.3742 39.2642 39.0884L39.9509 39.3898L40.6377 39.6913C42.3671 35.7522 43.2209 31.2127 43.2209 26.0898H42.4709ZM39.9509 39.3898L39.2625 39.0924C37.6802 42.7542 35.3867 45.6017 32.3864 47.6615L32.8109 48.2798L33.2354 48.8981C36.4885 46.6647 38.955 43.5854 40.6394 39.6873L39.9509 39.3898ZM32.8109 48.2798L32.3884 47.6602C29.4524 49.662 25.8956 50.6798 21.6809 50.6798V51.4298V52.1798C26.1463 52.1798 30.0094 51.0977 33.2334 48.8995L32.8109 48.2798ZM21.6809 45.1998V45.9498C24.4534 45.9498 26.9453 45.1291 29.1309 43.4898L28.6809 42.8898L28.2309 42.2898C26.3099 43.7306 24.1352 44.4498 21.6809 44.4498V45.1998ZM28.6809 42.8898L29.1245 43.4946C31.3547 41.8592 33.0655 39.5453 34.2749 36.5943L33.5809 36.3098L32.887 36.0254C31.7631 38.7677 30.2072 40.8405 28.2374 42.285L28.6809 42.8898ZM33.5809 36.3098L34.2749 36.5943C35.4876 33.6353 36.0809 30.1271 36.0809 26.0898H35.3309H34.5809C34.5809 29.9859 34.0076 33.291 32.887 36.0254L33.5809 36.3098ZM35.3309 26.0898H36.0809C36.0809 22.0526 35.4876 18.5443 34.2749 15.5854L33.5809 15.8698L32.887 16.1543C34.0076 18.8887 34.5809 22.1938 34.5809 26.0898H35.3309ZM33.5809 15.8698L34.2749 15.5854C33.065 12.6332 31.3519 10.3389 29.1156 8.74862L28.6809 9.35984L28.2463 9.97106C30.2099 11.3674 31.7635 13.4131 32.887 16.1543L33.5809 15.8698ZM28.6809 9.35984L29.1309 8.75984C26.9453 7.12058 24.4534 6.29984 21.6809 6.29984V7.04984V7.79984C24.1352 7.79984 26.3099 8.5191 28.2309 9.95984L28.6809 9.35984ZM21.6809 7.04984V6.29984C18.8651 6.29984 16.329 7.11855 14.0974 8.75504L14.5409 9.35984L14.9845 9.96464C16.9529 8.52113 19.1768 7.79984 21.6809 7.79984V7.04984ZM14.5409 9.35984L14.1063 8.74862C11.8699 10.3389 10.1569 12.6332 8.94696 15.5854L9.64094 15.8698L10.3349 16.1543C11.4583 13.4131 13.0119 11.3674 14.9756 9.97106L14.5409 9.35984ZM9.64094 15.8698L8.94696 15.5854C7.73429 18.5443 7.14094 22.0526 7.14094 26.0898H7.89094H8.64094C8.64094 22.1938 9.21425 18.8887 10.3349 16.1543L9.64094 15.8698ZM7.89094 26.0898H7.14094C7.14094 30.1271 7.73429 33.6353 8.94696 36.5943L9.64094 36.3098L10.3349 36.0254C9.21425 33.291 8.64094 29.9859 8.64094 26.0898H7.89094ZM9.64094 36.3098L8.94696 36.5943C10.1564 39.5453 11.8672 41.8592 14.0974 43.4946L14.5409 42.8898L14.9845 42.285C13.0147 40.8405 11.4588 38.7677 10.3349 36.0254L9.64094 36.3098ZM14.5409 42.8898L14.0974 43.4946C16.329 45.1311 18.8651 45.9498 21.6809 45.9498V45.1998V44.4498C19.1768 44.4498 16.9529 43.7286 14.9845 42.285L14.5409 42.8898ZM73.161 50.5898H72.411V51.3398H73.161V50.5898ZM73.161 40.5798H73.911V39.8298H73.161V40.5798ZM48.591 40.5798H47.841V41.3298H48.591V40.5798ZM48.591 35.1198L47.9764 34.69L47.841 34.8836V35.1198H48.591ZM72.041 1.58984V0.83984H71.6503L71.4264 1.16L72.041 1.58984ZM80.091 1.58984H80.841V0.83984H80.091V1.58984ZM80.091 34.4898H79.341V35.2398H80.091V34.4898ZM87.091 34.4898H87.841V33.7398H87.091V34.4898ZM87.091 40.5798V41.3298H87.841V40.5798H87.091ZM80.091 40.5798V39.8298H79.341V40.5798H80.091ZM80.091 50.5898V51.3398H80.841V50.5898H80.091ZM56.221 34.4898L55.6034 34.0644L54.7936 35.2398H56.221V34.4898ZM73.581 34.4898V35.2398H74.331V34.4898H73.581ZM73.581 9.28984H74.331V6.87909L72.9634 8.86436L73.581 9.28984ZM73.161 50.5898H73.911V40.5798H73.161H72.411V50.5898H73.161ZM73.161 40.5798V39.8298H48.591V40.5798V41.3298H73.161V40.5798ZM48.591 40.5798H49.341V35.1198H48.591H47.841V40.5798H48.591ZM48.591 35.1198L49.2056 35.5497L72.6556 2.01968L72.041 1.58984L71.4264 1.16L47.9764 34.69L48.591 35.1198ZM72.041 1.58984V2.33984H80.091V1.58984V0.83984H72.041V1.58984ZM80.091 1.58984H79.341V34.4898H80.091H80.841V1.58984H80.091ZM80.091 34.4898V35.2398H87.091V34.4898V33.7398H80.091V34.4898ZM87.091 34.4898H86.341V40.5798H87.091H87.841V34.4898H87.091ZM87.091 40.5798V39.8298H80.091V40.5798V41.3298H87.091V40.5798ZM80.091 40.5798H79.341V50.5898H80.091H80.841V40.5798H80.091ZM80.091 50.5898V49.8398H73.161V50.5898V51.3398H80.091V50.5898ZM56.221 34.4898V35.2398H73.581V34.4898V33.7398H56.221V34.4898ZM73.581 34.4898H74.331V9.28984H73.581H72.831V34.4898H73.581ZM73.581 9.28984L72.9634 8.86436L55.6034 34.0644L56.221 34.4898L56.8386 34.9153L74.1986 9.71532L73.581 9.28984Z" fill="url(#paint0_linear_3964_656)" fill-opacity="0.5"/>
<defs>
<linearGradient id="paint0_linear_3964_656" x1="-2.53906" y1="26.0898" x2="89.4609" y2="26.0898" gradientUnits="userSpaceOnUse">
<stop stop-color="#FF5F01"/>
<stop offset="1" stop-color="#FF9404"/>
</linearGradient>
</defs>
</svg>
