<svg width="51" height="30" viewBox="0 0 51 30" fill="none" xmlns="http://www.w3.org/2000/svg">
<g opacity="0.5">
<mask id="path-1-outside-1_816_2928" maskUnits="userSpaceOnUse" x="-0.177734" y="-0.0800781" width="51" height="30" fill="black">
<rect fill="white" x="-0.177734" y="-0.0800781" width="51" height="30"/>
<path d="M12.7808 27.3399C10.5408 27.3399 8.61578 26.8033 7.00578 25.7299C5.39578 24.6566 4.15911 23.1749 3.29578 21.2849C2.43245 19.3716 2.00078 17.1666 2.00078 14.6699C2.00078 12.1733 2.43245 9.97992 3.29578 8.08992C4.15911 6.17659 5.39578 4.68325 7.00578 3.60992C8.61578 2.53659 10.5408 1.99992 12.7808 1.99992C15.0208 1.99992 16.9341 2.53659 18.5208 3.60992C20.1308 4.68325 21.3674 6.17659 22.2308 8.08992C23.0941 9.97992 23.5258 12.1733 23.5258 14.6699C23.5258 17.1666 23.0941 19.3716 22.2308 21.2849C21.3674 23.1749 20.1308 24.6566 18.5208 25.7299C16.9341 26.8033 15.0208 27.3399 12.7808 27.3399ZM12.7808 22.9299C13.9241 22.9299 14.9274 22.5916 15.7908 21.9149C16.6541 21.2383 17.3308 20.2933 17.8208 19.0799C18.3108 17.8433 18.5558 16.3733 18.5558 14.6699C18.5558 12.9666 18.3108 11.5083 17.8208 10.2949C17.3308 9.05825 16.6541 8.10159 15.7908 7.42492C14.9274 6.74825 13.9241 6.40992 12.7808 6.40992C11.6374 6.40992 10.6341 6.74825 9.77078 7.42492C8.90745 8.10159 8.23078 9.05825 7.74078 10.2949C7.25078 11.5083 7.00578 12.9666 7.00578 14.6699C7.00578 16.3733 7.25078 17.8433 7.74078 19.0799C8.23078 20.2933 8.90745 21.2383 9.77078 21.9149C10.6341 22.5916 11.6374 22.9299 12.7808 22.9299ZM40.5027 26.9199V22.5799H28.4977V18.6599L39.8727 2.41992H45.4027V18.3099H48.5177V22.5799H45.4027V26.9199H40.5027ZM33.7127 18.3099H40.8177V7.80992L33.7127 18.3099Z"/>
</mask>
<path d="M7.00578 25.7299L8.11518 24.0658L7.00578 25.7299ZM3.29578 21.2849L1.47275 22.1075L1.47659 22.1159L3.29578 21.2849ZM3.29578 8.08992L5.11499 8.92092L5.11879 8.9125L3.29578 8.08992ZM7.00578 3.60992L8.11518 5.27402L7.00578 3.60992ZM18.5208 3.60992L17.4001 5.26653L17.4114 5.27402L18.5208 3.60992ZM22.2308 8.08992L20.4078 8.91251L20.4116 8.92091L22.2308 8.08992ZM22.2308 21.2849L24.05 22.1159L24.0538 22.1075L22.2308 21.2849ZM18.5208 25.7299L17.4114 24.0658L17.4002 24.0734L18.5208 25.7299ZM17.8208 19.0799L19.6753 19.8289L19.6801 19.8167L17.8208 19.0799ZM17.8208 10.2949L15.9614 11.0317L15.9663 11.0438L17.8208 10.2949ZM15.7908 7.42492L17.0245 5.85081L17.0245 5.85081L15.7908 7.42492ZM9.77078 7.42492L8.53702 5.85081L8.53702 5.85081L9.77078 7.42492ZM7.74078 10.2949L9.59531 11.0439L9.60014 11.0316L7.74078 10.2949ZM7.74078 19.0799L5.88138 19.8167L5.8863 19.8288L7.74078 19.0799ZM9.77078 21.9149L11.0045 20.3408L9.77078 21.9149ZM12.7808 27.3399V25.3399C10.8718 25.3399 9.34725 24.8872 8.11518 24.0658L7.00578 25.7299L5.89638 27.394C7.88431 28.7193 10.2098 29.3399 12.7808 29.3399V27.3399ZM7.00578 25.7299L8.11518 24.0658C6.83759 23.2141 5.83565 22.0316 5.11497 20.4539L3.29578 21.2849L1.47659 22.1159C2.48258 24.3182 3.95398 26.0991 5.89638 27.394L7.00578 25.7299ZM3.29578 21.2849L5.11879 20.4623C4.39209 18.8518 4.00078 16.9359 4.00078 14.6699H2.00078H0.000781313C0.000781313 17.3973 0.472804 19.8914 1.47277 22.1075L3.29578 21.2849ZM2.00078 14.6699H4.00078C4.00078 12.4032 4.39233 10.5029 5.11497 8.92091L3.29578 8.08992L1.47659 7.25893C0.472561 9.45694 0.000781313 11.9433 0.000781313 14.6699H2.00078ZM3.29578 8.08992L5.11879 8.9125C5.84146 7.31092 6.84365 6.12171 8.11518 5.27402L7.00578 3.60992L5.89638 1.94582C3.94791 3.2448 2.47677 5.04226 1.47277 7.26734L3.29578 8.08992ZM7.00578 3.60992L8.11518 5.27402C9.34725 4.45264 10.8718 3.99992 12.7808 3.99992V1.99992V-7.86781e-05C10.2098 -7.86781e-05 7.88431 0.620533 5.89638 1.94582L7.00578 3.60992ZM12.7808 1.99992V3.99992C14.6906 3.99992 16.1975 4.45289 17.4002 5.26649L18.5208 3.60992L19.6414 1.95335C17.6708 0.620286 15.3509 -7.86781e-05 12.7808 -7.86781e-05V1.99992ZM18.5208 3.60992L17.4114 5.27402C18.6829 6.12171 19.6851 7.31092 20.4078 8.9125L22.2308 8.08992L24.0538 7.26734C23.0498 5.04226 21.5787 3.2448 19.6302 1.94582L18.5208 3.60992ZM22.2308 8.08992L20.4116 8.92091C21.1342 10.5029 21.5258 12.4032 21.5258 14.6699H23.5258H25.5258C25.5258 11.9433 25.054 9.45694 24.05 7.25893L22.2308 8.08992ZM23.5258 14.6699H21.5258C21.5258 16.9359 21.1345 18.8518 20.4078 20.4623L22.2308 21.2849L24.0538 22.1075C25.0538 19.8914 25.5258 17.3973 25.5258 14.6699H23.5258ZM22.2308 21.2849L20.4116 20.4539C19.6909 22.0316 18.689 23.2141 17.4114 24.0658L18.5208 25.7299L19.6302 27.394C21.5726 26.0991 23.044 24.3182 24.05 22.1159L22.2308 21.2849ZM18.5208 25.7299L17.4002 24.0734C16.1975 24.887 14.6906 25.3399 12.7808 25.3399V27.3399V29.3399C15.3509 29.3399 17.6708 28.7196 19.6414 27.3865L18.5208 25.7299ZM12.7808 22.9299V24.9299C14.351 24.9299 15.7934 24.454 17.0245 23.489L15.7908 21.9149L14.557 20.3408C14.0615 20.7292 13.4972 20.9299 12.7808 20.9299V22.9299ZM15.7908 21.9149L17.0245 23.489C18.2123 22.5581 19.0795 21.304 19.6753 19.8288L17.8208 19.0799L15.9663 18.331C15.582 19.2825 15.096 19.9184 14.557 20.3408L15.7908 21.9149ZM17.8208 19.0799L19.6801 19.8167C20.2851 18.2899 20.5558 16.5579 20.5558 14.6699H18.5558H16.5558C16.5558 16.1887 16.3365 17.3966 15.9614 18.3432L17.8208 19.0799ZM18.5558 14.6699H20.5558C20.5558 12.7836 20.2856 11.0573 19.6753 9.546L17.8208 10.2949L15.9663 11.0438C16.336 11.9593 16.5558 13.1496 16.5558 14.6699H18.5558ZM17.8208 10.2949L19.6801 9.55819C19.0873 8.0619 18.2208 6.78841 17.0245 5.85081L15.7908 7.42492L14.557 8.99903C15.0874 9.41476 15.5743 10.0546 15.9614 11.0316L17.8208 10.2949ZM15.7908 7.42492L17.0245 5.85081C15.7934 4.88589 14.351 4.40992 12.7808 4.40992V6.40992V8.40992C13.4972 8.40992 14.0615 8.61062 14.557 8.99903L15.7908 7.42492ZM12.7808 6.40992V4.40992C11.2105 4.40992 9.76813 4.88589 8.53702 5.85081L9.77078 7.42492L11.0045 8.99903C11.5001 8.61062 12.0644 8.40992 12.7808 8.40992V6.40992ZM9.77078 7.42492L8.53702 5.85081C7.34076 6.78841 6.47429 8.0619 5.88142 9.55819L7.74078 10.2949L9.60014 11.0316C9.98727 10.0546 10.4741 9.41476 11.0045 8.99903L9.77078 7.42492ZM7.74078 10.2949L5.8863 9.546C5.27598 11.0573 5.00578 12.7836 5.00578 14.6699H7.00578H9.00578C9.00578 13.1496 9.22558 11.9593 9.59527 11.0438L7.74078 10.2949ZM7.00578 14.6699H5.00578C5.00578 16.5579 5.27647 18.2899 5.88142 19.8167L7.74078 19.0799L9.60014 18.3432C9.22509 17.3966 9.00578 16.1887 9.00578 14.6699H7.00578ZM7.74078 19.0799L5.8863 19.8288C6.48205 21.304 7.34931 22.5581 8.53702 23.489L9.77078 21.9149L11.0045 20.3408C10.4656 19.9184 9.97951 19.2825 9.59527 18.331L7.74078 19.0799ZM9.77078 21.9149L8.53702 23.489C9.76813 24.454 11.2105 24.9299 12.7808 24.9299V22.9299V20.9299C12.0644 20.9299 11.5001 20.7292 11.0045 20.3408L9.77078 21.9149ZM40.5027 26.9199H38.5027V28.9199H40.5027V26.9199ZM40.5027 22.5799H42.5027V20.5799H40.5027V22.5799ZM28.4977 22.5799H26.4977V24.5799H28.4977V22.5799ZM28.4977 18.6599L26.8596 17.5125L26.4977 18.0292V18.6599H28.4977ZM39.8727 2.41992V0.41992H38.8318L38.2346 1.27252L39.8727 2.41992ZM45.4027 2.41992H47.4027V0.41992H45.4027V2.41992ZM45.4027 18.3099H43.4027V20.3099H45.4027V18.3099ZM48.5177 18.3099H50.5177V16.3099H48.5177V18.3099ZM48.5177 22.5799V24.5799H50.5177V22.5799H48.5177ZM45.4027 22.5799V20.5799H43.4027V22.5799H45.4027ZM45.4027 26.9199V28.9199H47.4027V26.9199H45.4027ZM33.7127 18.3099L32.0563 17.1891L29.9445 20.3099H33.7127V18.3099ZM40.8177 18.3099V20.3099H42.8177V18.3099H40.8177ZM40.8177 7.80992H42.8177V1.28551L39.1613 6.68908L40.8177 7.80992ZM40.5027 26.9199H42.5027V22.5799H40.5027H38.5027V26.9199H40.5027ZM40.5027 22.5799V20.5799H28.4977V22.5799V24.5799H40.5027V22.5799ZM28.4977 22.5799H30.4977V18.6599H28.4977H26.4977V22.5799H28.4977ZM28.4977 18.6599L30.1358 19.8073L41.5108 3.56732L39.8727 2.41992L38.2346 1.27252L26.8596 17.5125L28.4977 18.6599ZM39.8727 2.41992V4.41992H45.4027V2.41992V0.41992H39.8727V2.41992ZM45.4027 2.41992H43.4027V18.3099H45.4027H47.4027V2.41992H45.4027ZM45.4027 18.3099V20.3099H48.5177V18.3099V16.3099H45.4027V18.3099ZM48.5177 18.3099H46.5177V22.5799H48.5177H50.5177V18.3099H48.5177ZM48.5177 22.5799V20.5799H45.4027V22.5799V24.5799H48.5177V22.5799ZM45.4027 22.5799H43.4027V26.9199H45.4027H47.4027V22.5799H45.4027ZM45.4027 26.9199V24.9199H40.5027V26.9199V28.9199H45.4027V26.9199ZM33.7127 18.3099V20.3099H40.8177V18.3099V16.3099H33.7127V18.3099ZM40.8177 18.3099H42.8177V7.80992H40.8177H38.8177V18.3099H40.8177ZM40.8177 7.80992L39.1613 6.68908L32.0563 17.1891L33.7127 18.3099L35.3691 19.4308L42.4741 8.93076L40.8177 7.80992Z" fill="url(#paint0_linear_816_2928)" mask="url(#path-1-outside-1_816_2928)"/>
</g>
<defs>
<linearGradient id="paint0_linear_816_2928" x1="24.8223" y1="2.91992" x2="24.8223" y2="26.9199" gradientUnits="userSpaceOnUse">
<stop stop-color="#FF5E01"/>
<stop offset="1" stop-color="#FF9404"/>
</linearGradient>
</defs>
</svg>
