<svg width="48" height="48" viewBox="0 0 48 48" fill="none" xmlns="http://www.w3.org/2000/svg">
<path d="M36 20C36 20 24 28 24 42" stroke="#ff6900" stroke-width="2.5" stroke-linecap="round" stroke-linejoin="round"/>
<path d="M18.6976 22.365C15.4757 24.7782 10.8865 24.52 7.957 21.5906C3.10968 16.7433 4.07914 6.07914 4.07914 6.07914C4.07914 6.07914 14.7433 5.10968 19.5906 9.957C21.5096 11.8761 22.2824 14.5074 21.9086 17" stroke="#ff6900" stroke-width="2.5" stroke-linecap="round" stroke-linejoin="round"/>
<path d="M29.9276 25.635C27.288 22.7664 27.3594 18.2997 30.1416 15.5173C34.4504 11.2086 43.9296 12.0703 43.9296 12.0703C43.9296 12.0703 44.7914 21.5496 40.4826 25.8584C38.9754 27.3656 36.974 28.0772 35 27.9934" stroke="#ff6900" stroke-width="2.5" stroke-linecap="round" stroke-linejoin="round"/>
<path d="M12 14C12 14 24 24 24 42" stroke="#ff6900" stroke-width="2.5" stroke-linecap="round" stroke-linejoin="round"/>
</svg>
