<svg width="75" height="75" viewBox="0 0 75 75" fill="none" xmlns="http://www.w3.org/2000/svg">
<path d="M14.0625 0.585938H60.9375C68.3804 0.585938 74.4141 6.6196 74.4141 14.0625V60.9375C74.4141 68.3804 68.3804 74.4141 60.9375 74.4141H14.0625C6.6196 74.4141 0.585938 68.3804 0.585938 60.9375V14.0625C0.585938 6.6196 6.6196 0.585938 14.0625 0.585938Z" fill="#25427B" stroke="#5C719B" stroke-width="1.17188"/>
<path d="M56.3484 48.8017C53.4717 50.108 46.9072 53.116 42.5858 55.0877C39.9452 56.2948 36.952 56.4847 34.1801 55.621L26.2019 53.1487V42.3112H32.1917C36.6779 42.3112 36.6859 45.3917 38.7077 45.3917H43.4725C43.9542 45.3917 44.4163 45.5831 44.7569 45.9237C45.0976 46.2644 45.2889 46.7264 45.2889 47.2082C45.2858 47.6888 45.0934 48.1489 44.7534 48.4886C44.4133 48.8283 43.9531 49.0203 43.4725 49.023H34.6402C34.4766 49.023 34.3197 49.088 34.204 49.2037C34.0883 49.3194 34.0233 49.4763 34.0233 49.6399C34.0233 49.8035 34.0883 49.9604 34.204 50.0761C34.3197 50.1918 34.4766 50.2568 34.6402 50.2568H43.5473C44.6888 50.2568 45.9297 49.4839 46.3651 48.161L52.0835 46.0413C53.9159 45.4411 55.4442 45.6552 56.6605 46.7481C57.3251 47.3395 57.1627 48.4237 56.3484 48.8017ZM23.7144 55.1084H20.1245C19.9592 55.1085 19.7956 55.076 19.6428 55.0129C19.4901 54.9497 19.3513 54.8571 19.2344 54.7403C19.1175 54.6236 19.0247 54.4849 18.9613 54.3322C18.898 54.1796 18.8653 54.016 18.8652 53.8507V41.6888C18.8652 40.9931 19.4288 40.4295 20.1237 40.4295H23.7136C24.4093 40.4295 24.9729 40.9931 24.9729 41.6888V53.8491C24.9729 54.5448 24.4093 55.1084 23.7144 55.1084ZM38.8422 29.6407H40.9858L39.9144 27.0601L38.8422 29.6407Z" fill="white"/>
<path d="M51.4511 29.5673C51.6145 29.5673 51.7712 29.5024 51.8867 29.3869C52.0023 29.2713 52.0672 29.1146 52.0672 28.9512C52.0672 28.7878 52.0023 28.6311 51.8867 28.5156C51.7712 28.4 51.6145 28.3351 51.4511 28.3351H49.5447V25.0978H51.4511C51.6146 25.0978 51.7714 25.0329 51.887 24.9173C52.0026 24.8017 52.0676 24.6448 52.0676 24.4813C52.0676 24.3178 52.0026 24.161 51.887 24.0454C51.7714 23.9298 51.6146 23.8648 51.4511 23.8648H49.5447V23.1835C49.5447 21.6711 48.3045 20.4309 46.7929 20.4309H46.1108V18.5245C46.1108 18.3611 46.0459 18.2044 45.9303 18.0889C45.8148 17.9734 45.6581 17.9084 45.4947 17.9084C45.3313 17.9084 45.1746 17.9734 45.059 18.0889C44.9435 18.2044 44.8786 18.3611 44.8786 18.5245V20.4309H41.6405V18.5245C41.6405 18.3611 41.5756 18.2044 41.4601 18.0889C41.3445 17.9734 41.1878 17.9084 41.0244 17.9084C40.861 17.9084 40.7043 17.9734 40.5888 18.0889C40.4732 18.2044 40.4083 18.3611 40.4083 18.5245V20.4309H37.171V18.5245C37.171 18.4436 37.1551 18.3635 37.1241 18.2888C37.0932 18.214 37.0478 18.1461 36.9906 18.0889C36.9334 18.0317 36.8654 17.9863 36.7907 17.9553C36.7159 17.9244 36.6358 17.9084 36.5549 17.9084C36.474 17.9084 36.3939 17.9244 36.3191 17.9553C36.2444 17.9863 36.1765 18.0317 36.1193 18.0889C36.0621 18.1461 36.0167 18.214 35.9857 18.2888C35.9548 18.3635 35.9388 18.4436 35.9388 18.5245V20.4309H35.2567C34.5271 20.4324 33.8278 20.7229 33.3119 21.2388C32.7961 21.7546 32.5056 22.4539 32.5041 23.1835V23.8648H30.5985C30.5175 23.8647 30.4373 23.8806 30.3624 23.9116C30.2876 23.9426 30.2196 23.988 30.1624 24.0453C30.1051 24.1027 30.0598 24.1707 30.0289 24.2456C29.998 24.3205 29.9822 24.4007 29.9824 24.4817C29.9824 24.8264 30.2539 25.0978 30.5985 25.0978H32.5049V28.3351H30.5985C30.5176 28.335 30.4374 28.3509 30.3626 28.3818C30.2878 28.4127 30.2199 28.4581 30.1626 28.5153C30.1054 28.5726 30.06 28.6405 30.0291 28.7153C29.9982 28.7901 29.9823 28.8703 29.9824 28.9512C29.9824 29.2959 30.2539 29.5673 30.5985 29.5673H32.5049V32.8046H30.5985C30.5176 32.8045 30.4374 32.8204 30.3626 32.8513C30.2878 32.8822 30.2199 32.9276 30.1626 32.9848C30.1054 33.0421 30.06 33.11 30.0291 33.1848C29.9982 33.2596 29.9823 33.3398 29.9824 33.4207C29.9824 33.7662 30.2539 34.0368 30.5985 34.0368H32.5049V34.719C32.5049 35.449 32.7949 36.1491 33.3111 36.6653C33.8273 37.1815 34.5274 37.4715 35.2575 37.4715H35.9396V39.3859C35.9396 39.5493 36.0045 39.706 36.1201 39.8215C36.2356 39.9371 36.3923 40.002 36.5557 40.002C36.7191 40.002 36.8758 39.9371 36.9914 39.8215C37.1069 39.706 37.1718 39.5493 37.1718 39.3859V37.4715H40.4091V39.3859C40.4091 39.5493 40.474 39.706 40.5896 39.8215C40.7051 39.9371 40.8618 40.002 41.0252 40.002C41.1886 40.002 41.3453 39.9371 41.4608 39.8215C41.5764 39.706 41.6413 39.5493 41.6413 39.3859V37.4715H44.8786V39.3859C44.8786 39.5494 44.9435 39.7062 45.0592 39.8218C45.1748 39.9374 45.3316 40.0024 45.4951 40.0024C45.6586 40.0024 45.8154 39.9374 45.931 39.8218C46.0466 39.7062 46.1116 39.5494 46.1116 39.3859V37.4715H46.7937C48.3053 37.4715 49.5455 36.2393 49.5455 34.719V34.0368H51.4519C51.6153 34.0368 51.772 33.9719 51.8875 33.8564C52.0031 33.7408 52.068 33.5841 52.068 33.4207C52.068 33.2573 52.0031 33.1006 51.8875 32.9851C51.772 32.8695 51.6153 32.8046 51.4519 32.8046H49.5455V29.5673H51.4511ZM42.8942 32.2132C42.8434 32.2654 42.7823 32.3065 42.7147 32.3338C42.6471 32.3611 42.5746 32.3739 42.5018 32.3716C42.3939 32.3723 42.2881 32.3413 42.1977 32.2824C42.1067 32.223 42.0347 32.1387 41.9899 32.0397L41.4152 30.6586H38.4144L37.8412 32.0357C37.8054 32.1193 37.7496 32.1928 37.6789 32.25C37.6081 32.3072 37.5245 32.3462 37.4352 32.3637C37.3459 32.3812 37.2538 32.3766 37.1667 32.3504C37.0796 32.3242 37.0002 32.2771 36.9354 32.2132C36.8862 32.1624 36.8475 32.1023 36.8217 32.0365C36.7959 31.9706 36.7834 31.9003 36.785 31.8295C36.785 31.7619 36.8041 31.6862 36.8407 31.5963L39.2151 25.9925C39.2732 25.8612 39.356 25.7537 39.4619 25.6694C39.5778 25.5794 39.7212 25.5322 39.8678 25.5356H39.9618C40.1194 25.5356 40.2563 25.581 40.3677 25.6694C40.4736 25.7529 40.5564 25.8604 40.6145 25.9909L42.9881 31.5955C43.0263 31.687 43.0438 31.7627 43.0438 31.8295C43.0438 31.9808 42.9945 32.1081 42.8942 32.2132ZM45.2599 31.8295C45.2611 31.9019 45.2472 31.9737 45.2189 32.0403C45.1907 32.107 45.1488 32.167 45.0959 32.2164C45.0448 32.2667 44.9842 32.3063 44.9177 32.333C44.8511 32.3596 44.7799 32.3728 44.7082 32.3716C44.6367 32.3731 44.5657 32.36 44.4994 32.333C44.4332 32.306 44.3731 32.2658 44.323 32.2148C44.272 32.1646 44.2318 32.1046 44.2048 32.0383C44.1779 31.9721 44.1647 31.901 44.1662 31.8295V26.0873C44.165 26.0154 44.1781 25.9441 44.2047 25.8774C44.2314 25.8107 44.271 25.75 44.3214 25.6988C44.3721 25.6475 44.4325 25.6068 44.499 25.5789C44.5656 25.551 44.637 25.5366 44.7091 25.5365C44.7812 25.5363 44.8527 25.5504 44.9194 25.578C44.986 25.6056 45.0466 25.6461 45.0975 25.6972C45.2049 25.8047 45.2599 25.936 45.2599 26.0873V31.8295Z" fill="white"/>
</svg>
