<svg width="512" height="512" viewBox="0 0 512 512" fill="none" xmlns="http://www.w3.org/2000/svg">
<path d="M480.604 361.163C464.471 346.672 443.991 343.388 419.357 351.599L349.126 378.648C349.223 377.586 349.319 376.62 349.319 375.653C349.319 357.878 334.829 343.484 317.15 343.484H264.694C260.057 343.484 255.903 341.552 253.198 338.171C241.026 323.391 225.956 313.73 208.278 309.48C202.095 308.031 195.236 307.258 188.087 307.258H109.742C106.457 290.546 91.7735 277.794 74.095 277.794H41.1531C31.7826 277.794 24.1509 285.426 24.1509 294.796V462.404C24.1509 471.774 31.7826 479.406 41.1531 479.406H74.095C92.7396 479.406 108.003 465.205 110.032 447.044L209.34 477.86C242.862 488.293 279.861 486.555 313.286 471.291L475.097 397.293C489.395 390.724 492.293 371.693 480.604 361.163ZM469.108 384.155L307.297 458.056C277.832 471.581 244.601 473.61 213.591 464.046L110.418 431.973V321.749H188.087C194.077 321.749 199.777 322.328 204.897 323.584C219.677 327.062 231.752 334.887 241.896 347.349C247.402 354.111 255.71 357.975 264.694 357.975H317.15C326.907 357.975 334.829 365.896 334.829 375.653C334.829 385.41 326.811 393.332 317.054 393.332H195.14C191.179 393.332 187.894 396.616 187.894 400.577C187.894 404.538 191.179 407.823 195.14 407.823H317.054C326.521 407.823 334.925 403.765 340.818 397.293L424.284 365.22C443.508 358.844 458.771 361.066 470.943 371.983C474.807 375.46 473.938 381.933 469.108 384.155ZM252.049 196.521C253.131 195.811 253.986 194.805 254.512 193.623L261.255 177.432H296.516L303.278 193.671C305.345 198.115 310.977 198.733 313.904 195.71C315.662 193.884 316.223 191.353 315.025 188.455L287.106 122.542C285.686 119.373 283.068 117.2 279.436 117.2H278.335C274.693 117.2 272.075 119.393 270.655 122.571L242.756 188.455C242.354 189.316 242.127 190.249 242.089 191.198C242.089 192.976 242.688 194.483 243.857 195.71C244.925 196.758 246.32 197.41 247.81 197.558C249.3 197.705 250.795 197.34 252.049 196.521ZM266.288 165.463L278.885 135.129L291.483 165.463H266.288ZM335.244 197.574C336.09 197.588 336.931 197.434 337.717 197.12C338.502 196.805 339.218 196.338 339.821 195.745C340.425 195.151 340.904 194.443 341.231 193.663C341.558 192.882 341.726 192.045 341.726 191.198V123.682C341.736 122.829 341.572 121.984 341.245 121.197C340.918 120.41 340.434 119.697 339.823 119.103C339.224 118.504 338.512 118.029 337.729 117.705C336.946 117.382 336.107 117.216 335.259 117.218C334.412 117.22 333.573 117.389 332.792 117.715C332.01 118.042 331.3 118.52 330.704 119.122C330.111 119.723 329.643 120.435 329.328 121.218C329.013 122 328.857 122.838 328.868 123.682V191.208C328.868 194.782 331.641 197.574 335.244 197.574Z" fill="black"/>
<path d="M169.298 202.694C167.376 202.694 165.534 203.458 164.175 204.816C162.816 206.175 162.053 208.018 162.053 209.939C162.053 211.861 162.816 213.704 164.175 215.063C165.534 216.421 167.376 217.185 169.298 217.185H191.739V225.203C191.747 233.782 195.157 242.007 201.223 248.075C207.288 254.142 215.513 257.555 224.092 257.565H232.11V280.006C232.11 281.928 232.873 283.771 234.232 285.129C235.591 286.488 237.434 287.251 239.355 287.251C241.277 287.251 243.12 286.488 244.478 285.129C245.837 283.771 246.6 281.928 246.6 280.006V257.565H284.662V280.006C284.662 281.928 285.426 283.771 286.784 285.129C288.143 286.488 289.986 287.251 291.908 287.251C293.829 287.251 295.672 286.488 297.031 285.129C298.389 283.771 299.153 281.928 299.153 280.006V257.565H337.215V280.006C337.215 281.928 337.978 283.771 339.337 285.129C340.696 286.488 342.538 287.251 344.46 287.251C346.382 287.251 348.224 286.488 349.583 285.129C350.942 283.771 351.705 281.928 351.705 280.006V257.565H359.723C368.304 257.557 376.531 254.145 382.598 248.078C388.666 242.011 392.078 233.784 392.086 225.203V217.185H414.517C416.439 217.185 418.281 216.421 419.64 215.063C420.999 213.704 421.762 211.861 421.762 209.939C421.762 208.018 420.999 206.175 419.64 204.816C418.281 203.458 416.439 202.694 414.517 202.694H392.086V164.632H414.517C416.439 164.632 418.281 163.869 419.64 162.51C420.999 161.151 421.762 159.309 421.762 157.387C421.762 155.465 420.999 153.623 419.64 152.264C418.281 150.905 416.439 150.142 414.517 150.142H392.086V112.08H414.517C416.439 112.08 418.281 111.316 419.64 109.958C420.999 108.599 421.762 106.756 421.762 104.835C421.762 102.913 420.999 101.07 419.64 99.7114C418.281 98.3526 416.439 97.5893 414.517 97.5893H392.086V89.5712C392.078 80.9905 388.666 72.7635 382.598 66.6961C376.531 60.6286 368.304 57.2166 359.723 57.2089H351.705V34.7775C351.705 32.8559 350.942 31.0131 349.583 29.6543C348.224 28.2956 346.382 27.5322 344.46 27.5322C342.538 27.5322 340.696 28.2956 339.337 29.6543C337.978 31.0131 337.215 32.8559 337.215 34.7775V57.2186H299.153V34.7775C299.153 32.8559 298.389 31.0131 297.031 29.6543C295.672 28.2956 293.829 27.5322 291.908 27.5322C289.986 27.5322 288.143 28.2956 286.784 29.6543C285.426 31.0131 284.662 32.8559 284.662 34.7775V57.2186H246.6V34.7775C246.6 32.8559 245.837 31.0131 244.478 29.6543C243.12 28.2956 241.277 27.5322 239.355 27.5322C237.434 27.5322 235.591 28.2956 234.232 29.6543C232.873 31.0131 232.11 32.8559 232.11 34.7775V57.2186H224.092C215.513 57.2262 207.287 60.637 201.22 66.7023C195.153 72.7677 191.74 80.9922 191.729 89.5712V97.5893H169.298C167.376 97.5893 165.534 98.3526 164.175 99.7114C162.816 101.07 162.053 102.913 162.053 104.835C162.053 106.756 162.816 108.599 164.175 109.958C165.534 111.316 167.376 112.08 169.298 112.08H191.739V150.142H169.298C167.376 150.142 165.534 150.905 164.175 152.264C162.816 153.623 162.053 155.465 162.053 157.387C162.053 159.309 162.816 161.151 164.175 162.51C165.534 163.869 167.376 164.632 169.298 164.632H191.739V202.694H169.298ZM206.23 89.5712C206.23 79.7176 214.248 71.6995 224.092 71.6995H359.723C369.577 71.6995 377.595 79.7176 377.595 89.5712V225.203C377.595 235.056 369.577 243.075 359.723 243.075H224.092C214.238 243.075 206.22 235.056 206.22 225.203L206.23 89.5712Z" fill="black"/>
</svg>
