<svg width="42" height="42" viewBox="0 0 42 42" fill="none" xmlns="http://www.w3.org/2000/svg">
<path d="M12.4688 30.0107C10.6595 30.0107 9.1875 31.4741 9.1875 33.2728C9.1875 35.0714 10.6595 36.5348 12.4688 36.5348C14.278 36.5348 15.75 35.0714 15.75 33.2728C15.75 31.4741 14.278 30.0107 12.4688 30.0107ZM12.4688 35.23C11.3833 35.23 10.5 34.3518 10.5 33.2728C10.5 32.1937 11.3833 31.3156 12.4688 31.3156C13.5542 31.3156 14.4375 32.1937 14.4375 33.2728C14.4375 34.3518 13.5542 35.23 12.4688 35.23Z" fill="url(#paint0_linear_562_685)"/>
<path d="M19.0312 35.2299C19.2053 35.2299 19.3722 35.1612 19.4953 35.0388C19.6184 34.9165 19.6875 34.7505 19.6875 34.5775V31.9679C19.6875 31.7949 19.6184 31.6289 19.4953 31.5066C19.3722 31.3842 19.2053 31.3155 19.0312 31.3155L18.0219 31.2868C17.9551 31.1031 17.8791 30.9228 17.7942 30.7466L18.501 30.044C18.562 29.9834 18.6104 29.9115 18.6434 29.8324C18.6764 29.7532 18.6934 29.6684 18.6934 29.5827C18.6934 29.497 18.6764 29.4122 18.6434 29.333C18.6104 29.2539 18.562 29.182 18.501 29.1215L16.6445 27.2758C16.5836 27.2152 16.5113 27.1671 16.4316 27.1342C16.352 27.1014 16.2667 27.0845 16.1805 27.0845C16.0943 27.0845 16.009 27.1014 15.9294 27.1342C15.8497 27.1671 15.7774 27.2152 15.7165 27.2758L14.9815 27.9647C14.8039 27.8819 14.6221 27.808 14.4368 27.7436V26.7487C14.4368 26.5756 14.3677 26.4097 14.2446 26.2873C14.1216 26.165 13.9546 26.0963 13.7806 26.0963H11.1556C10.9815 26.0963 10.8146 26.165 10.6916 26.2873C10.5685 26.4097 10.4993 26.5756 10.4993 26.7487L10.4705 27.7521C10.2946 27.8153 10.1227 27.8858 9.92709 27.9784L9.22031 27.2758C9.15942 27.2152 9.0871 27.1671 9.00749 27.1342C8.92787 27.1014 8.84253 27.0845 8.75634 27.0845C8.67016 27.0845 8.58481 27.1014 8.5052 27.1342C8.42559 27.1671 8.35327 27.2152 8.29237 27.2758L6.43584 29.1215C6.37485 29.182 6.32646 29.2539 6.29344 29.333C6.26042 29.4122 6.24343 29.497 6.24343 29.5827C6.24343 29.6684 6.26042 29.7532 6.29344 29.8324C6.32646 29.9115 6.37485 29.9834 6.43584 30.044L7.12884 30.7746C7.05009 30.9417 6.97856 31.1126 6.90638 31.3161H5.90625C5.7322 31.3161 5.56528 31.3849 5.44221 31.5072C5.31914 31.6296 5.25 31.7955 5.25 31.9685V34.5782C5.25 34.7512 5.31914 34.9171 5.44221 35.0395C5.56528 35.1618 5.7322 35.2306 5.90625 35.2306L6.91556 35.2593C6.97922 35.4341 7.05009 35.6051 7.14328 35.7995L6.4365 36.5021C6.3755 36.5626 6.32711 36.6345 6.2941 36.7137C6.26108 36.7928 6.24409 36.8777 6.24409 36.9634C6.24409 37.049 6.26108 37.1339 6.2941 37.213C6.32711 37.2922 6.3755 37.3641 6.4365 37.4246L8.29303 39.2703C8.35392 39.3309 8.42624 39.379 8.50586 39.4118C8.58547 39.4447 8.67081 39.4615 8.757 39.4615C8.84319 39.4615 8.92853 39.4447 9.00814 39.4118C9.08776 39.379 9.16008 39.3309 9.22097 39.2703L9.95597 38.5813C10.124 38.6596 10.2959 38.7307 10.5007 38.8025V39.7967C10.5007 39.9698 10.5698 40.1357 10.6929 40.2581C10.8159 40.3804 10.9829 40.4492 11.1569 40.4492H13.7819C13.956 40.4492 14.1229 40.3804 14.2459 40.2581C14.369 40.1357 14.4382 39.9698 14.4382 39.7967L14.467 38.7934C14.6429 38.7301 14.8148 38.6596 15.0104 38.567L15.7172 39.2696C15.7781 39.3302 15.8504 39.3784 15.93 39.4112C16.0096 39.444 16.095 39.4609 16.1812 39.4609C16.2673 39.4609 16.3527 39.444 16.4323 39.4112C16.5119 39.3784 16.5842 39.3302 16.6451 39.2696L18.5017 37.424C18.5627 37.3634 18.611 37.2915 18.6441 37.2124C18.6771 37.1332 18.6941 37.0484 18.6941 36.9627C18.6941 36.877 18.6771 36.7922 18.6441 36.713C18.611 36.6339 18.5627 36.562 18.5017 36.5015L17.8087 35.7708C17.8874 35.6037 17.9589 35.4328 18.0311 35.2293L19.0312 35.2299ZM16.8663 36.722L17.1091 36.9634L16.1805 37.8865L15.9377 37.6451C15.5426 37.2511 14.9474 37.1558 14.4231 37.4005C14.2922 37.4621 14.1584 37.5171 14.0221 37.5655C13.4774 37.7593 13.125 38.2453 13.125 38.8025V39.1443H11.8125V38.8025C11.8125 38.2453 11.4601 37.7593 10.9154 37.5655C10.779 37.5168 10.645 37.4617 10.5138 37.4005C9.98944 37.1552 9.39422 37.2511 8.99916 37.6451L8.75634 37.8865L7.82775 36.9634L8.07056 36.722C8.46694 36.3286 8.56341 35.7375 8.31666 35.2162C8.2547 35.0862 8.19929 34.9531 8.15062 34.8176C7.95572 34.2754 7.46681 33.9251 6.90638 33.9251H6.5625V32.6203H6.90638C7.46681 32.6203 7.95572 32.27 8.15062 31.7285C8.19962 31.5928 8.25503 31.4596 8.31666 31.3292C8.56341 30.8079 8.46694 30.2168 8.07056 29.8234L7.82775 29.582L8.75634 28.6589L8.99916 28.9003C9.39488 29.2943 9.99009 29.3902 10.5138 29.1449C10.6444 29.0836 10.7782 29.0282 10.9148 28.9799C11.4601 28.7861 11.8125 28.3001 11.8125 27.7429V27.4011H13.125V27.7429C13.125 28.3001 13.4774 28.7861 14.0221 28.9799C14.1593 29.0288 14.2938 29.0843 14.4237 29.1449C14.9487 29.3909 15.5433 29.2943 15.9383 28.9003L16.1812 28.6589L17.1098 29.582L16.8669 29.8234C16.4706 30.2168 16.3741 30.8079 16.6208 31.3292C16.6825 31.459 16.7383 31.5921 16.7869 31.7278C16.9818 32.27 17.4707 32.6203 18.0311 32.6203H18.375V33.9251H18.0311C17.4707 33.9251 16.9818 34.2754 16.7869 34.8169C16.7379 34.9526 16.6825 35.0858 16.6208 35.2162C16.3741 35.7375 16.4706 36.3286 16.8663 36.722ZM30.8438 25.4438C27.949 25.4438 25.5938 27.7853 25.5938 30.6631C25.5938 33.5408 27.949 35.8823 30.8438 35.8823C33.7385 35.8823 36.0938 33.5408 36.0938 30.6631C36.0938 27.7853 33.7385 25.4438 30.8438 25.4438ZM30.8438 34.5775C28.6722 34.5775 26.9062 32.8219 26.9062 30.6631C26.9062 28.5043 28.6722 26.7487 30.8438 26.7487C33.0153 26.7487 34.7812 28.5043 34.7812 30.6631C34.7812 32.8219 33.0153 34.5775 30.8438 34.5775Z" fill="url(#paint1_linear_562_685)"/>
<path d="M40.0314 28.0535L38.948 28.0359C38.8096 27.6139 38.6375 27.2035 38.4335 26.8087L39.1973 26.05C39.3204 25.9276 39.3895 25.7617 39.3895 25.5887C39.3895 25.4157 39.3204 25.2498 39.1973 25.1275L36.4129 22.3593C36.2874 22.2416 36.1214 22.176 35.9489 22.176C35.7764 22.176 35.6104 22.2416 35.4849 22.3593L34.706 23.1083C34.308 22.9075 33.8946 22.7386 33.4696 22.6033V21.5294C33.4696 21.3564 33.4004 21.1905 33.2774 21.0681C33.1543 20.9458 32.9874 20.877 32.8133 20.877H28.8758C28.7018 20.877 28.5349 20.9458 28.4118 21.0681C28.2887 21.1905 28.2196 21.3564 28.2196 21.5294L28.2019 22.6066C27.7838 22.7423 27.3737 22.9106 26.9675 23.1181L26.2042 22.3587C26.0812 22.2363 25.9143 22.1676 25.7403 22.1676C25.5663 22.1676 25.3994 22.2363 25.2763 22.3587L22.4918 25.1268C22.3688 25.2492 22.2997 25.4151 22.2997 25.5881C22.2997 25.7611 22.3688 25.927 22.4918 26.0493L23.2452 26.8237C23.047 27.2119 22.8771 27.6196 22.7373 28.0528H21.6564C21.4824 28.0528 21.3155 28.1216 21.1924 28.2439C21.0693 28.3663 21.0002 28.5322 21.0002 28.7052V32.6197C21.0002 32.7927 21.0693 32.9586 21.1924 33.081C21.3155 33.2033 21.4824 33.2721 21.6564 33.2721L22.7399 33.2897C22.8764 33.7053 23.0457 34.113 23.2544 34.5162L22.4905 35.2756C22.4295 35.3361 22.3811 35.408 22.3481 35.4872C22.3151 35.5663 22.2981 35.6512 22.2981 35.7369C22.2981 35.8225 22.3151 35.9074 22.3481 35.9865C22.3811 36.0657 22.4295 36.1376 22.4905 36.1981L25.275 38.9663C25.3359 39.0269 25.4082 39.075 25.4878 39.1078C25.5674 39.1407 25.6528 39.1576 25.739 39.1576C25.8251 39.1576 25.9105 39.1407 25.9901 39.1078C26.0697 39.075 26.142 39.0269 26.2029 38.9663L26.9819 38.2173C27.3724 38.4143 27.7825 38.5833 28.2183 38.7223V39.7968C28.2183 39.9698 28.2874 40.1357 28.4105 40.2581C28.5336 40.3804 28.7005 40.4492 28.8745 40.4492H32.812C32.9861 40.4492 33.153 40.3804 33.2761 40.2581C33.3991 40.1357 33.4683 39.9698 33.4683 39.7968L33.486 38.7197C33.9103 38.5822 34.3229 38.4112 34.7197 38.2082L35.4836 38.9676C35.5445 39.0282 35.6168 39.0763 35.6964 39.1091C35.7761 39.142 35.8614 39.1589 35.9476 39.1589C36.0338 39.1589 36.1191 39.142 36.1987 39.1091C36.2783 39.0763 36.3507 39.0282 36.4116 38.9676L39.196 36.1994C39.257 36.1389 39.3054 36.067 39.3384 35.9878C39.3714 35.9087 39.3884 35.8238 39.3884 35.7382C39.3884 35.6525 39.3714 35.5676 39.3384 35.4885C39.3054 35.4093 39.257 35.3375 39.196 35.2769L38.4426 34.5025C38.6408 34.1143 38.8108 33.7066 38.9506 33.2734H40.0314C40.2055 33.2734 40.3724 33.2046 40.4955 33.0823C40.6185 32.9599 40.6877 32.794 40.6877 32.621V28.7066C40.6878 28.6208 40.6709 28.5359 40.6379 28.4567C40.605 28.3775 40.5566 28.3055 40.4957 28.2448C40.4347 28.1842 40.3624 28.136 40.2827 28.1032C40.2031 28.0704 40.1177 28.0535 40.0314 28.0535ZM39.3752 31.9679H38.9512C38.3823 31.9679 37.8796 32.3372 37.6991 32.8865C37.5839 33.2383 37.4416 33.5808 37.2732 33.9108C37.1442 34.1573 37.0972 34.4382 37.1389 34.713C37.1807 34.9878 37.309 35.2423 37.5055 35.44L37.8054 35.7382L35.9489 37.5838L35.649 37.2857C35.4502 37.0902 35.1941 36.9626 34.9177 36.9211C34.6413 36.8796 34.3587 36.9264 34.1107 37.0547C33.7806 37.2217 33.4341 37.3646 33.0804 37.4788C32.8138 37.5622 32.5806 37.7276 32.4146 37.9512C32.2485 38.1748 32.1581 38.445 32.1564 38.7229V39.1444H29.5314V38.7229C29.5314 38.1573 29.16 37.6575 28.6074 37.4781C28.2535 37.3636 27.909 37.2221 27.5771 37.0547C27.3292 36.9262 27.0466 36.8792 26.7701 36.9208C26.4936 36.9623 26.2375 37.0901 26.0389 37.2857L25.739 37.5838L23.8824 35.7382L24.1823 35.44C24.3786 35.2422 24.5067 34.9877 24.5485 34.7129C24.5902 34.4382 24.5434 34.1574 24.4146 33.9108C24.2458 33.5809 24.1032 33.2385 23.9881 32.8865C23.9042 32.6214 23.7378 32.3896 23.5129 32.2245C23.288 32.0595 23.0162 31.9696 22.7366 31.9679H22.3127V29.3583H22.7366C23.3056 29.3583 23.8083 28.989 23.9887 28.4397C24.1036 28.0881 24.2473 27.7436 24.4146 27.4154C24.5437 27.1689 24.5907 26.888 24.5489 26.6132C24.5072 26.3384 24.3788 26.0839 24.1823 25.8862L23.8831 25.5887L25.739 23.7437L26.0382 24.0412C26.237 24.2366 26.4931 24.3642 26.7695 24.4057C27.0459 24.4472 27.3285 24.4004 27.5765 24.2722C27.9082 24.1043 28.2527 23.9625 28.6068 23.8481C28.8736 23.7646 29.1068 23.5991 29.273 23.3754C29.4391 23.1517 29.5296 22.8814 29.5314 22.6033V22.1819H32.1564V22.6033C32.1564 23.1689 32.5279 23.6687 33.0804 23.8481C33.4341 23.9623 33.7806 24.1051 34.1107 24.2715C34.3588 24.3994 34.6413 24.4459 34.9176 24.4044C35.1939 24.3629 35.4499 24.2355 35.649 24.0406L35.9482 23.7431L37.8041 25.5881L37.5049 25.8856C37.3085 26.0833 37.1803 26.3379 37.1386 26.6126C37.0968 26.8874 37.1437 27.1682 37.2726 27.4148C37.4406 27.7429 37.5843 28.0874 37.6991 28.4391C37.7831 28.7043 37.9496 28.9362 38.1746 29.1014C38.3996 29.2665 38.6715 29.3565 38.9512 29.3583H39.3752V31.9679ZM9.18768 17.615V24.7915H10.5002V18.2674H12.4689C12.5954 18.2673 12.7191 18.2309 12.8252 18.1626C12.9313 18.0943 13.0154 17.9969 13.0671 17.8822C13.1189 17.7675 13.1363 17.6404 13.1171 17.5162C13.098 17.3919 13.0431 17.2758 12.9591 17.1818L7.70914 11.3102C7.45977 11.0316 6.97743 11.0316 6.72805 11.3102L1.47805 17.1818C1.39406 17.2759 1.33919 17.392 1.32005 17.5163C1.30092 17.6406 1.31833 17.7678 1.37019 17.8825C1.42206 17.9972 1.50617 18.0946 1.61239 18.1629C1.71861 18.2311 1.84243 18.2675 1.96893 18.2674H3.93768V28.0535H5.25018V17.615C5.25018 17.442 5.18104 17.2761 5.05796 17.1537C4.93489 17.0314 4.76797 16.9626 4.59393 16.9626H3.43039L7.21893 12.7252L11.0075 16.9626H9.84393C9.66988 16.9626 9.50296 17.0314 9.37989 17.1537C9.25682 17.2761 9.18768 17.442 9.18768 17.615ZM22.9689 12.3958V21.5294H24.2814V13.0482H26.2502C26.3766 13.0481 26.5003 13.0117 26.6065 12.9434C26.7126 12.875 26.7966 12.7777 26.8484 12.663C26.9002 12.5483 26.9175 12.4212 26.8984 12.2969C26.8792 12.1727 26.8244 12.0566 26.7404 11.9626L21.4904 6.09095C21.241 5.81237 20.7587 5.81237 20.5093 6.09095L15.2593 11.9626C15.1759 12.0568 15.1215 12.1729 15.1027 12.297C15.0839 12.4211 15.1014 12.548 15.1532 12.6625C15.2049 12.777 15.2887 12.8742 15.3946 12.9426C15.5005 13.011 15.6239 13.0477 15.7502 13.0482H17.7189V26.0963H19.0314V12.3958C19.0314 12.2228 18.9623 12.0568 18.8392 11.9345C18.7161 11.8121 18.5492 11.7434 18.3752 11.7434H17.2116L21.0002 7.50601L24.7887 11.7434H23.6252C23.4511 11.7434 23.2842 11.8121 23.1611 11.9345C23.0381 12.0568 22.9689 12.2228 22.9689 12.3958ZM36.7502 7.82896V18.2674H38.0627V8.48136H40.0314C40.1579 8.48127 40.2816 8.44486 40.3877 8.37652C40.4938 8.30818 40.5779 8.21082 40.6296 8.09614C40.6814 7.98147 40.6988 7.85436 40.6796 7.73011C40.6605 7.60585 40.6056 7.48975 40.5216 7.39576L35.2716 1.52412C35.0223 1.24554 34.5399 1.24554 34.2906 1.52412L29.0406 7.39576C28.9571 7.48998 28.9028 7.60608 28.8839 7.7302C28.8651 7.85431 28.8826 7.98119 28.9344 8.09568C28.9862 8.21016 29.07 8.30741 29.1759 8.3758C29.2817 8.44419 29.4052 8.48084 29.5314 8.48136H31.5002V19.5722H32.8127V7.82896C32.8127 7.65593 32.7435 7.48998 32.6205 7.36764C32.4974 7.24529 32.3305 7.17655 32.1564 7.17655H30.9929L34.7814 2.93918L38.57 7.17655H37.4064C37.2324 7.17655 37.0655 7.24529 36.9424 7.36764C36.8193 7.48998 36.7502 7.65593 36.7502 7.82896Z" fill="url(#paint2_linear_562_685)"/>
<defs>
<linearGradient id="paint0_linear_562_685" x1="12.4688" y1="30.0107" x2="12.4688" y2="36.5348" gradientUnits="userSpaceOnUse">
<stop stop-color="#FF5E01"/>
<stop offset="1" stop-color="#FF9404"/>
</linearGradient>
<linearGradient id="paint1_linear_562_685" x1="20.6719" y1="25.4438" x2="20.6719" y2="40.4492" gradientUnits="userSpaceOnUse">
<stop stop-color="#FF5E01"/>
<stop offset="1" stop-color="#FF9404"/>
</linearGradient>
<linearGradient id="paint2_linear_562_685" x1="21.0001" y1="1.31519" x2="21.0001" y2="40.4492" gradientUnits="userSpaceOnUse">
<stop stop-color="#FF5E01"/>
<stop offset="1" stop-color="#FF9404"/>
</linearGradient>
</defs>
</svg>
