<svg width="46" height="50" viewBox="0 0 46 50" fill="none" xmlns="http://www.w3.org/2000/svg">
<path d="M45.5078 11.8538V17.3714C45.5078 24.5716 43.3494 31.5056 39.2674 37.4226C35.5331 42.8356 30.3855 47.0723 24.3828 49.6727C23.8838 49.8885 23.3459 49.9998 22.8022 49.9998C22.2585 49.9998 21.7206 49.8885 21.2216 49.6727C15.2187 47.0711 10.0724 42.8348 6.33779 37.4226C2.25469 31.5056 0.0976562 24.5716 0.0976562 17.3714V11.8538C0.0976562 10.1574 1.17188 8.64873 2.77061 8.09971C5.28105 7.23643 7.29404 5.21279 8.15312 2.68555C8.69902 1.0791 10.2039 0 11.8965 0H33.709C35.4012 0 36.9061 1.0791 37.452 2.68555C38.3113 5.21318 40.324 7.23652 42.8348 8.09971C44.4336 8.64873 45.5078 10.1573 45.5078 11.8538Z" fill="#0085A9"/>
<path d="M45.5078 11.8538V17.3714C45.5078 24.5716 43.3494 31.5056 39.2674 37.4226C35.5331 42.8356 30.3855 47.0723 24.3828 49.6727C23.8841 49.8887 23.3463 50.0001 22.8027 50V0H33.709C35.4012 0 36.9061 1.0791 37.452 2.68555C38.3113 5.21318 40.324 7.23652 42.8348 8.09971C44.4336 8.64863 45.5078 10.1573 45.5078 11.8538Z" fill="#00608D"/>
<path d="M22.8026 8.69629C19.4255 8.69629 16.6777 11.4437 16.6777 14.8205V21.9223H28.9276V14.8205C28.9276 11.4437 26.1796 8.69639 22.8027 8.69639L22.8026 8.69629ZM25.9979 19.9691H19.6073V14.8205C19.6073 13.0588 21.0409 11.6261 22.8025 11.6261C24.5642 11.6261 25.9978 13.0589 25.9978 14.8204L25.9979 19.9691Z" fill="white"/>
<path d="M28.9276 14.8204V21.9222H22.8027V19.969H25.9979V14.8204C25.9979 13.0587 24.5644 11.626 22.8027 11.626V8.69629C26.1795 8.69629 28.9276 11.4437 28.9276 14.8204Z" fill="#F2E1DF"/>
<path d="M32.5547 22.52V30.951C32.5547 34.5737 29.6074 37.5202 25.9854 37.5202H19.6201C15.998 37.5202 13.0508 34.5737 13.0508 30.9509V22.52C13.0508 20.5757 14.6328 18.9927 16.5779 18.9927H29.0271C30.9727 18.9927 32.5547 20.5757 32.5547 22.52Z" fill="#FFC837"/>
<path d="M32.5547 22.5201V30.9511C32.5547 34.5738 29.6074 37.5203 25.9854 37.5203H22.8027V18.9927H29.0271C30.9727 18.9927 32.5547 20.5758 32.5547 22.5201Z" fill="#FBB13E"/>
<path d="M24.2676 26.8726V29.6401C24.2676 30.4496 23.6114 31.105 22.8027 31.105C21.994 31.105 21.3379 30.4496 21.3379 29.6401V26.8726C21.3379 26.0639 21.994 25.4077 22.8027 25.4077C23.6114 25.4077 24.2676 26.0639 24.2676 26.8726Z" fill="white"/>
<path d="M24.2676 26.8726V29.6401C24.2676 30.4496 23.6114 31.105 22.8027 31.105V25.4077C23.6114 25.4077 24.2676 26.0639 24.2676 26.8726Z" fill="#F2E1DF"/>
</svg>
