<svg width="46" height="16" viewBox="0 0 46 16" fill="none" xmlns="http://www.w3.org/2000/svg">
<path d="M12.2107 10.9529C12.2107 11.5623 12.2764 12.0564 12.3924 12.4178C12.5236 12.7795 12.6885 13.1748 12.9186 13.6021C12.9994 13.7334 13.033 13.8646 13.033 13.9807C13.033 14.1439 12.9338 14.3088 12.7205 14.4732L11.6842 15.1646C11.5361 15.2623 11.3881 15.3127 11.2572 15.3127C11.0924 15.3127 10.9275 15.2303 10.7627 15.0822C10.5415 14.8436 10.3432 14.5846 10.1705 14.3088C9.98749 13.9923 9.81755 13.6685 9.66113 13.3381C8.3791 14.8518 6.7666 15.6088 4.8252 15.6088C3.44434 15.6088 2.34277 15.2135 1.53574 14.4244C0.729883 13.6342 0.319336 12.5814 0.319336 11.2658C0.319336 9.86816 0.812305 8.73301 1.8166 7.87871C2.81895 7.02246 4.15098 6.59512 5.84629 6.59512C6.40488 6.59512 6.97988 6.64394 7.58848 6.72637C8.19785 6.80879 8.82324 6.94004 9.48106 7.08809V5.8873C9.48106 4.6373 9.21699 3.76621 8.70762 3.25684C8.18027 2.74707 7.29238 2.4998 6.02598 2.4998C5.45059 2.4998 4.85879 2.56543 4.2498 2.71348C3.64518 2.85754 3.05161 3.0446 2.47363 3.27324C2.20957 3.38769 2.0127 3.45332 1.89824 3.48691C1.78262 3.51895 1.7002 3.53574 1.63457 3.53574C1.4041 3.53574 1.28965 3.3709 1.28965 3.02637V2.22051C1.28965 1.95644 1.32168 1.75957 1.4041 1.64394C1.48613 1.52949 1.63457 1.41504 1.86504 1.29902C2.44004 1.00293 3.13145 0.756054 3.93691 0.558789C4.74277 0.345117 5.59863 0.246289 6.50332 0.246289C8.45957 0.246289 9.89082 0.690039 10.8127 1.57832C11.7174 2.46621 12.1768 3.81504 12.1768 5.6248V10.9529H12.2107ZM5.5334 13.4541C6.0752 13.4541 6.63496 13.3549 7.22715 13.158C7.81934 12.9596 8.34551 12.5982 8.78965 12.1053C9.05215 11.7928 9.25059 11.4475 9.34824 11.0525C9.44746 10.6572 9.51309 10.1814 9.51309 9.6209V8.93145C9.01482 8.80904 8.50996 8.71526 8.00098 8.65059C7.48776 8.58586 6.971 8.55325 6.45371 8.55293C5.35215 8.55293 4.54629 8.7666 4.00293 9.21074C3.46113 9.65449 3.19746 10.2787 3.19746 11.1014C3.19746 11.8748 3.39434 12.4502 3.80605 12.8451C4.20137 13.2557 4.77676 13.4541 5.5334 13.4541ZM18.74 15.2303C18.4439 15.2303 18.2471 15.1814 18.1158 15.0654C17.983 14.9662 17.8686 14.7373 17.7693 14.4248L13.9045 1.71074C13.8068 1.38144 13.7561 1.16777 13.7561 1.05176C13.7561 0.789257 13.8877 0.641601 14.1518 0.641601H15.7631C16.0756 0.641601 16.2893 0.690039 16.4053 0.806054C16.5365 0.90371 16.6357 1.13418 16.7334 1.44668L19.4967 12.3357L22.0631 1.44707C22.1443 1.11895 22.2436 0.904102 22.3744 0.806445C22.5072 0.706836 22.7377 0.641211 23.0338 0.641211H24.349C24.6615 0.641211 24.8756 0.690039 25.0068 0.806054C25.1381 0.90371 25.2541 1.13418 25.3193 1.44668L27.9182 12.467L30.7639 1.44707C30.8615 1.11895 30.9775 0.904102 31.092 0.806445C31.2232 0.706836 31.4385 0.641211 31.7342 0.641211H33.2631C33.5271 0.641211 33.6752 0.77246 33.6752 1.05176C33.6752 1.13379 33.6584 1.2166 33.6416 1.31582C33.6248 1.41504 33.5928 1.54629 33.5271 1.72598L29.5631 14.4412C29.4639 14.7693 29.3494 14.983 29.2166 15.0818C29.0854 15.1814 28.8717 15.2471 28.5924 15.2471H27.1783C26.8654 15.2471 26.6518 15.1963 26.5205 15.0822C26.3877 14.9662 26.2732 14.7525 26.2076 14.4244L23.658 3.81504L21.1248 14.4076C21.0428 14.7373 20.9451 14.951 20.8123 15.0654C20.6807 15.1814 20.4506 15.2303 20.1545 15.2303H18.74ZM39.8748 15.6744C39.0205 15.6744 38.1643 15.5752 37.342 15.3783C36.5193 15.1814 35.8787 14.9662 35.4514 14.7205C35.1873 14.5725 35.0072 14.408 34.9416 14.2596C34.8768 14.1145 34.843 13.9575 34.8424 13.7986V12.9596C34.8424 12.615 34.9736 12.4502 35.2213 12.4502C35.3189 12.4502 35.4178 12.467 35.517 12.5006C35.6147 12.5326 35.7627 12.5982 35.9272 12.6639C36.5086 12.9192 37.1153 13.1125 37.7373 13.2404C38.3947 13.3717 39.0357 13.4373 39.6947 13.4373C40.7311 13.4373 41.5365 13.2557 42.0951 12.8943C42.6549 12.5326 42.951 12.0061 42.951 11.3318C42.951 10.8709 42.8029 10.4939 42.5072 10.1811C42.2111 9.86856 41.651 9.58887 40.8455 9.3252L38.4604 8.58496C37.2596 8.20644 36.3713 7.64824 35.8299 6.90801C35.2869 6.1834 35.0072 5.37754 35.0072 4.52324C35.0072 3.83184 35.1557 3.22324 35.4514 2.69668C35.745 2.16756 36.1488 1.7076 36.6354 1.34785C37.1283 0.970898 37.6885 0.690039 38.3463 0.493164C39.0037 0.296289 39.6947 0.213867 40.4182 0.213867C40.7799 0.213867 41.158 0.230664 41.5197 0.279492C41.8982 0.32832 42.2432 0.393945 42.5893 0.45957C42.9174 0.541992 43.2303 0.624413 43.5264 0.723632C43.8225 0.822851 44.0529 0.920508 44.2178 1.01973C44.4482 1.15098 44.6127 1.28223 44.7104 1.42988C44.8096 1.56269 44.8584 1.74316 44.8584 1.97324V2.74668C44.8584 3.09199 44.7271 3.27324 44.4799 3.27324C44.3486 3.27324 44.135 3.20644 43.8561 3.07519C42.9174 2.64785 41.8647 2.43418 40.6975 2.43418C39.7604 2.43418 39.0205 2.58223 38.5107 2.89512C37.9994 3.20645 37.7373 3.68418 37.7373 4.3584C37.7373 4.81934 37.9018 5.21426 38.2299 5.52559C38.5596 5.83809 39.1686 6.15137 40.0396 6.43027L42.3756 7.17051C43.56 7.54902 44.4146 8.07519 44.924 8.7498C45.4338 9.42441 45.6811 10.1979 45.6811 11.0525C45.6811 11.7604 45.5326 12.4014 45.2537 12.9596C44.9576 13.5197 44.5623 14.0127 44.0529 14.4076C43.5432 14.8182 42.9342 15.1143 42.2279 15.3295C41.4877 15.5584 40.7143 15.6744 39.8748 15.6744Z" fill="#252F3E"/>
</svg>
