<svg width="50" height="50" viewBox="0 0 50 50" fill="none" xmlns="http://www.w3.org/2000/svg">
<path d="M24.9991 10.4169C25.0015 9.58358 24.8373 8.75824 24.5161 7.98935C24.195 7.22047 23.7233 6.52357 23.1288 5.93966C22.5343 5.35574 21.8291 4.89659 21.0546 4.58921C20.2801 4.28183 19.4519 4.13243 18.6189 4.14979C17.7858 4.16716 16.9646 4.35094 16.2035 4.69032C15.4425 5.02971 14.757 5.51785 14.1874 6.12603C13.6178 6.73421 13.1756 7.45015 12.8867 8.23175C12.5978 9.01335 12.4682 9.84483 12.5053 10.6773C11.2807 10.9921 10.1439 11.5815 9.18081 12.4008C8.21774 13.2201 7.45374 14.2478 6.94667 15.4061C6.43959 16.5644 6.20274 17.8229 6.25405 19.0863C6.30536 20.3496 6.64349 21.5848 7.24283 22.6981C6.18904 23.5542 5.36038 24.6548 4.82895 25.9042C4.29752 27.1536 4.0794 28.5139 4.19358 29.8668C4.30776 31.2197 4.75078 32.5243 5.48409 33.6669C6.2174 34.8095 7.21879 35.7557 8.40116 36.4231C8.25515 37.5528 8.34228 38.7004 8.65717 39.795C8.97206 40.8897 9.50803 41.9082 10.232 42.7876C10.9559 43.667 11.8524 44.3887 12.8662 44.908C13.88 45.4274 14.9894 45.7334 16.1261 45.8071C17.2628 45.8809 18.4025 45.7208 19.4749 45.3369C20.5473 44.9529 21.5296 44.3532 22.3611 43.5747C23.1926 42.7962 23.8557 41.8555 24.3094 40.8107C24.7631 39.766 24.9979 38.6392 24.9991 37.5002V10.4169Z" stroke="url(#paint0_linear_3074_4856)" stroke-width="2" stroke-linecap="round" stroke-linejoin="round"/>
<path d="M25 10.4169C24.9976 9.58358 25.1618 8.75824 25.483 7.98935C25.8041 7.22047 26.2758 6.52357 26.8703 5.93966C27.4648 5.35574 28.17 4.89659 28.9445 4.58921C29.719 4.28183 30.5472 4.13243 31.3802 4.14979C32.2133 4.16716 33.0345 4.35094 33.7956 4.69032C34.5566 5.02971 35.2421 5.51785 35.8117 6.12603C36.3813 6.73421 36.8236 7.45015 37.1124 8.23175C37.4013 9.01335 37.531 9.84483 37.4938 10.6773C38.7184 10.9921 39.8552 11.5815 40.8183 12.4008C41.7814 13.2201 42.5454 14.2478 43.0524 15.4061C43.5595 16.5644 43.7964 17.8229 43.7451 19.0863C43.6937 20.3496 43.3556 21.5848 42.7563 22.6981C43.8101 23.5542 44.6387 24.6548 45.1702 25.9042C45.7016 27.1536 45.9197 28.5139 45.8055 29.8668C45.6913 31.2197 45.2483 32.5243 44.515 33.6669C43.7817 34.8095 42.7803 35.7557 41.5979 36.4231C41.7439 37.5528 41.6568 38.7004 41.3419 39.795C41.027 40.8897 40.4911 41.9082 39.7671 42.7876C39.0432 43.667 38.1467 44.3887 37.1329 44.908C36.1191 45.4274 35.0097 45.7334 33.873 45.8071C32.7363 45.8809 31.5966 45.7208 30.5242 45.3369C29.4518 44.9529 28.4695 44.3532 27.638 43.5747C26.8065 42.7962 26.1434 41.8555 25.6897 40.8107C25.236 39.766 25.0012 38.6392 25 37.5002V10.4169Z" stroke="url(#paint1_linear_3074_4856)" stroke-width="2" stroke-linecap="round" stroke-linejoin="round"/>
<path d="M31.25 27.0833C29.5009 26.468 27.9736 25.3479 26.8611 23.8646C25.7486 22.3813 25.1009 20.6014 25 18.75C24.8991 20.6014 24.2514 22.3813 23.1389 23.8646C22.0264 25.3479 20.4991 26.468 18.75 27.0833" stroke="url(#paint2_linear_3074_4856)" stroke-width="2" stroke-linecap="round" stroke-linejoin="round"/>
<path d="M36.6641 13.5443C37.1683 12.6705 37.4535 11.6876 37.4953 10.6797" stroke="url(#paint3_linear_3074_4856)" stroke-width="2.75" stroke-linecap="round" stroke-linejoin="round"/>
<path d="M12.5078 10.6797C12.549 11.6875 12.8335 12.6703 13.337 13.5443" stroke="url(#paint4_linear_3074_4856)" stroke-width="2.75" stroke-linecap="round" stroke-linejoin="round"/>
<path d="M7.24219 22.7C7.62331 22.3896 8.03115 22.1135 8.46094 21.875" stroke="url(#paint5_linear_3074_4856)" stroke-width="2.75" stroke-linecap="round" stroke-linejoin="round"/>
<path d="M41.5391 21.875C41.9688 22.1135 42.3767 22.3896 42.7578 22.7" stroke="url(#paint6_linear_3074_4856)" stroke-width="2.75" stroke-linecap="round" stroke-linejoin="round"/>
<path d="M12.5003 37.5008C11.0645 37.5015 9.6529 37.1312 8.40234 36.4258" stroke="url(#paint7_linear_3074_4856)" stroke-width="2.75" stroke-linecap="round" stroke-linejoin="round"/>
<path d="M41.5979 36.4258C40.3474 37.1312 38.9358 37.5015 37.5 37.5008" stroke="url(#paint8_linear_3074_4856)" stroke-width="2.75" stroke-linecap="round" stroke-linejoin="round"/>
<defs>
<linearGradient id="paint0_linear_3074_4856" x1="14.5816" y1="4.14844" x2="14.5816" y2="45.8246" gradientUnits="userSpaceOnUse">
<stop stop-color="#FF5F01"/>
<stop offset="1" stop-color="#FF9404"/>
</linearGradient>
<linearGradient id="paint1_linear_3074_4856" x1="35.4175" y1="4.14844" x2="35.4175" y2="45.8246" gradientUnits="userSpaceOnUse">
<stop stop-color="#FF5F01"/>
<stop offset="1" stop-color="#FF9404"/>
</linearGradient>
<linearGradient id="paint2_linear_3074_4856" x1="25" y1="18.75" x2="25" y2="27.0833" gradientUnits="userSpaceOnUse">
<stop stop-color="#FF5F01"/>
<stop offset="1" stop-color="#FF9404"/>
</linearGradient>
<linearGradient id="paint3_linear_3074_4856" x1="37.0797" y1="10.6797" x2="37.0797" y2="13.5443" gradientUnits="userSpaceOnUse">
<stop stop-color="#FF5F01"/>
<stop offset="1" stop-color="#FF9404"/>
</linearGradient>
<linearGradient id="paint4_linear_3074_4856" x1="12.9224" y1="10.6797" x2="12.9224" y2="13.5443" gradientUnits="userSpaceOnUse">
<stop stop-color="#FF5F01"/>
<stop offset="1" stop-color="#FF9404"/>
</linearGradient>
<linearGradient id="paint5_linear_3074_4856" x1="7.85156" y1="21.875" x2="7.85156" y2="22.7" gradientUnits="userSpaceOnUse">
<stop stop-color="#FF5F01"/>
<stop offset="1" stop-color="#FF9404"/>
</linearGradient>
<linearGradient id="paint6_linear_3074_4856" x1="42.1484" y1="21.875" x2="42.1484" y2="22.7" gradientUnits="userSpaceOnUse">
<stop stop-color="#FF5F01"/>
<stop offset="1" stop-color="#FF9404"/>
</linearGradient>
<linearGradient id="paint7_linear_3074_4856" x1="10.4513" y1="36.4258" x2="10.4513" y2="37.5008" gradientUnits="userSpaceOnUse">
<stop stop-color="#FF5F01"/>
<stop offset="1" stop-color="#FF9404"/>
</linearGradient>
<linearGradient id="paint8_linear_3074_4856" x1="39.549" y1="36.4258" x2="39.549" y2="37.5008" gradientUnits="userSpaceOnUse">
<stop stop-color="#FF5F01"/>
<stop offset="1" stop-color="#FF9404"/>
</linearGradient>
</defs>
</svg>
