<svg width="55" height="55" viewBox="0 0 55 55" fill="none" xmlns="http://www.w3.org/2000/svg">
<rect width="54.9791" height="54.9791" rx="27.4896" fill="url(#paint0_linear_3964_590)"/>
<path d="M34.1746 16.2905C34.9087 15.5564 35.2757 15.1894 35.6823 15.0139C36.2682 14.761 36.9323 14.761 37.5182 15.0139C37.9247 15.1894 38.2918 15.5564 39.0258 16.2905C39.7599 17.0246 40.1271 17.3917 40.3026 17.7983C40.5554 18.3841 40.5554 19.0483 40.3026 19.6341C40.1271 20.0407 39.7599 20.4077 39.0258 21.1418L32.7489 27.4188C31.2024 28.9653 30.4292 29.7386 29.4607 30.1967C28.4922 30.6548 27.4039 30.7622 25.2275 30.977L24.2422 31.0742L24.3394 30.089C24.5542 27.9125 24.6616 26.8242 25.1197 25.8557C25.5778 24.8872 26.3511 24.114 27.8976 22.5675L34.1746 16.2905Z" stroke="white" stroke-width="1.8" stroke-linejoin="round"/>
<path d="M20.4922 31.0742H17.6797C16.4716 31.0742 15.4922 32.0536 15.4922 33.2617C15.4922 34.4698 16.4716 35.4492 17.6797 35.4492H29.5547C30.7628 35.4492 31.7422 36.4286 31.7422 37.6367C31.7422 38.8448 30.7628 39.8242 29.5547 39.8242H26.7422" stroke="white" stroke-width="1.8" stroke-linejoin="round"/>
<defs>
<linearGradient id="paint0_linear_3964_590" x1="27.4896" y1="0" x2="27.4896" y2="54.9791" gradientUnits="userSpaceOnUse">
<stop stop-color="#FF5E01"/>
<stop offset="1" stop-color="#FF9404"/>
</linearGradient>
</defs>
</svg>
