<svg width="48" height="50" viewBox="0 0 48 50" fill="none" xmlns="http://www.w3.org/2000/svg">
<path fill-rule="evenodd" clip-rule="evenodd" d="M17.4825 39.6841H20.762C21.1154 39.6841 21.4037 39.9724 21.4037 40.3258V47.7961C21.4037 48.1495 21.1154 48.4378 20.762 48.4378H17.4825C17.1291 48.4378 16.8408 48.1495 16.8408 47.7961V40.3258C16.8408 39.9723 17.1291 39.6841 17.4825 39.6841Z" fill="#FE646F"/>
<path fill-rule="evenodd" clip-rule="evenodd" d="M19.6582 39.6841H20.762C21.1154 39.6841 21.4037 39.9724 21.4037 40.3258V47.7961C21.4037 48.1495 21.1154 48.4378 20.762 48.4378H19.6582C20.0116 48.4378 20.2999 48.1495 20.2999 47.7961V40.3258C20.2999 39.9723 20.0116 39.6841 19.6582 39.6841Z" fill="#FD4755"/>
<path fill-rule="evenodd" clip-rule="evenodd" d="M29.2348 35.0977H25.9552C25.6018 35.0977 25.3135 35.3859 25.3135 35.7394V47.7962C25.3135 48.1496 25.6018 48.4379 25.9552 48.4379H29.2348C29.5882 48.4379 29.8765 48.1496 29.8765 47.7962V35.7394C29.8765 35.3859 29.5882 35.0977 29.2348 35.0977Z" fill="#FFE177"/>
<path fill-rule="evenodd" clip-rule="evenodd" d="M29.2347 35.0977H28.1309C28.4843 35.0977 28.7726 35.3859 28.7726 35.7394V47.7962C28.7726 48.1496 28.4843 48.4379 28.1309 48.4379H29.2347C29.5881 48.4379 29.8764 48.1496 29.8764 47.7962V35.7394C29.8764 35.3859 29.5881 35.0977 29.2347 35.0977Z" fill="#FFD064"/>
<path fill-rule="evenodd" clip-rule="evenodd" d="M37.7074 30.3086H34.4278C34.0744 30.3086 33.7861 30.5969 33.7861 30.9503V47.7961C33.7861 48.1495 34.0744 48.4378 34.4278 48.4378H37.7074C38.0608 48.4378 38.3491 48.1495 38.3491 47.7961V30.9502C38.3491 30.5968 38.0608 30.3086 37.7074 30.3086Z" fill="#6CF5C2"/>
<path fill-rule="evenodd" clip-rule="evenodd" d="M37.7073 30.3086H36.6035C36.9569 30.3086 37.2452 30.5969 37.2452 30.9503V47.7961C37.2452 48.1495 36.9569 48.4378 36.6035 48.4378H37.7073C38.0607 48.4378 38.349 48.1495 38.349 47.7961V30.9502C38.349 30.5968 38.0607 30.3086 37.7073 30.3086Z" fill="#00E499"/>
<path fill-rule="evenodd" clip-rule="evenodd" d="M42.9005 26.0005H46.1801C46.5335 26.0005 46.8218 26.2887 46.8218 26.6422V47.7962C46.8218 48.1496 46.5336 48.4379 46.1801 48.4379H42.9005C42.5471 48.4379 42.2588 48.1496 42.2588 47.7962V26.6421C42.2588 26.2887 42.5471 26.0005 42.9005 26.0005Z" fill="#8AC9FE"/>
<path fill-rule="evenodd" clip-rule="evenodd" d="M45.0762 26.0005H46.18C46.5334 26.0005 46.8217 26.2887 46.8217 26.6422V47.7962C46.8217 48.1496 46.5335 48.4379 46.18 48.4379H45.0762C45.4296 48.4379 45.7179 48.1496 45.7179 47.7962V26.6421C45.7179 26.2887 45.4296 26.0005 45.0762 26.0005Z" fill="#60B7FF"/>
<path fill-rule="evenodd" clip-rule="evenodd" d="M2.69434 32.6608H15.9781C16.5098 29.6842 18.3048 28.5429 21.3634 29.2371C23.4036 29.5913 24.4021 29.306 24.3591 28.3812C24.3695 26.9461 24.6153 26.424 24.9854 26.1473C25.8043 25.5154 24.8917 24.7037 23.9539 24.1944C24.7428 24.1317 25.7558 23.4975 25.5375 22.9896C25.1885 21.795 25.3533 21.3141 25.8926 21.0346C26.9423 20.5212 27.1562 19.8675 26.5346 19.0731C25.8118 18.2893 25.2396 17.4924 24.8179 16.6825C24.4298 15.9372 24.2876 15.1981 24.3716 14.3621C24.4104 13.9763 24.4303 13.5848 24.4303 13.1888C24.4303 6.76768 19.225 1.5625 12.804 1.5625C6.38301 1.5625 1.17773 6.76777 1.17773 13.1888C1.17773 16.0531 2.21406 18.6753 3.93164 20.7015C4.4877 21.3574 4.79297 22.0666 4.88672 22.9214C5.20039 25.7791 4.43477 29.1207 2.69434 32.6608Z" fill="#ECBA78"/>
<path fill-rule="evenodd" clip-rule="evenodd" d="M2.69443 32.6609H3.80176C5.54219 29.1208 6.30781 25.7792 5.99404 22.9214C5.90029 22.0666 5.59502 21.3574 5.03896 20.7015C3.32139 18.6753 2.28506 16.053 2.28506 13.1888C2.28506 6.95332 7.19385 1.86494 13.3577 1.57588C13.1733 1.5671 12.9887 1.56264 12.804 1.5625C6.38301 1.5625 1.17773 6.76777 1.17773 13.1888C1.17773 16.0531 2.21406 18.6753 3.93164 20.7015C4.4877 21.3574 4.79297 22.0666 4.88672 22.9214C5.20049 25.7792 4.43486 29.1208 2.69443 32.6609Z" fill="#E3A76F"/>
<path fill-rule="evenodd" clip-rule="evenodd" d="M16.4921 23.5421C16.7893 18.4859 18.9805 18.691 18.9805 15.2607C18.9805 11.8497 16.2152 9.08447 12.8042 9.08447C9.39316 9.08447 6.62793 11.8497 6.62793 15.2607C6.62793 18.6909 8.81914 18.4859 9.11631 23.5421C9.24863 24.5408 9.81934 24.766 10.1494 24.766C15.0647 24.766 15.9353 25.2514 16.4921 23.5421Z" fill="#FFE177"/>
<path fill-rule="evenodd" clip-rule="evenodd" d="M16.492 23.5421C16.7892 18.4859 18.9804 18.691 18.9804 15.2607C18.9804 11.8497 16.2151 9.08447 12.8041 9.08447C12.6889 9.08447 12.5745 9.08789 12.4609 9.09414C15.7124 9.27227 18.294 11.9648 18.294 15.2607C18.294 18.6909 16.1027 18.4859 15.8056 23.5421C15.475 24.5568 15.0339 24.7981 13.7015 24.8267C15.5808 24.8543 16.1103 24.7141 16.492 23.5421Z" fill="#FFD064"/>
<path fill-rule="evenodd" clip-rule="evenodd" d="M13.8316 27.0386H11.1826V28.5605C11.1826 29.1124 11.6343 29.5641 12.1862 29.5641H13.4888C14.0407 29.5641 14.4924 29.1125 14.4924 28.5605V27.0386H13.8316Z" fill="#B1B1B5"/>
<path fill-rule="evenodd" clip-rule="evenodd" d="M10.1309 25.083L10.153 26.5531C10.1614 27.1052 10.6046 27.5567 11.1567 27.5567H14.5178C15.0697 27.5567 15.5297 27.1052 15.5213 26.5531L15.4991 25.0825C13.7461 25.1378 11.8948 25.083 10.1309 25.083Z" fill="#D1D1D6"/>
<path fill-rule="evenodd" clip-rule="evenodd" d="M13.832 27.5567H14.5185C15.0704 27.5567 15.5304 27.1052 15.522 26.5531L15.4998 25.0825C15.2727 25.0896 15.0438 25.095 14.8137 25.0988L14.8356 26.5531C14.8438 27.1052 14.384 27.5567 13.832 27.5567Z" fill="#B1B1B5"/>
<path fill-rule="evenodd" clip-rule="evenodd" d="M9.11621 23.542V24.5458C9.11621 25.0979 9.56787 25.5494 10.1198 25.5494H15.4883C16.0402 25.5494 16.4918 25.0979 16.4918 24.5458L16.4919 23.542H9.11621Z" fill="#ECEFF1"/>
<path fill-rule="evenodd" clip-rule="evenodd" d="M14.8018 25.5494H15.4882C16.0401 25.5494 16.4917 25.0979 16.4917 24.5458L16.4918 23.542H15.8054L15.8053 24.5458C15.8053 25.0978 15.3537 25.5494 14.8018 25.5494Z" fill="#D1D1D6"/>
<path fill-rule="evenodd" clip-rule="evenodd" d="M20.1959 12.0459C20.1446 11.9571 20.1113 11.859 20.0979 11.7573C20.0845 11.6555 20.0913 11.5522 20.1179 11.4531C20.1445 11.354 20.1904 11.2611 20.2529 11.1798C20.3154 11.0984 20.3933 11.0302 20.4822 10.979L21.7422 10.2514C22.1149 10.0357 22.5935 10.1636 22.809 10.5373C23.025 10.9114 22.8959 11.3891 22.523 11.6046L21.2631 12.3322C21.1742 12.3836 21.0761 12.417 20.9744 12.4304C20.8726 12.4439 20.7692 12.4371 20.6701 12.4105C20.5709 12.3839 20.478 12.338 20.3967 12.2754C20.3153 12.2129 20.2471 12.1349 20.1959 12.0459ZM16.7857 7.85479L17.5134 6.59482C17.617 6.4154 17.7877 6.28448 17.9879 6.23086C18.188 6.17724 18.4013 6.20531 18.5808 6.30889C18.7601 6.41265 18.8908 6.58338 18.9442 6.78353C18.9977 6.98367 18.9694 7.19685 18.8657 7.37617L18.1395 8.63613C18.0706 8.75496 17.9717 8.85359 17.8527 8.92217C17.7337 8.99074 17.5988 9.02684 17.4614 9.02686C17.3247 9.02677 17.1904 8.99062 17.0721 8.92207C16.9832 8.8708 16.9053 8.80253 16.8428 8.72114C16.7803 8.63975 16.7344 8.54685 16.7078 8.44774C16.6812 8.34863 16.6744 8.24525 16.6878 8.14351C16.7012 8.04177 16.7344 7.94366 16.7857 7.85479ZM5.41201 12.0459C5.34353 12.1649 5.24488 12.2637 5.12601 12.3324C5.00713 12.4011 4.87225 12.4372 4.73496 12.4371C4.59823 12.4369 4.46395 12.4008 4.34561 12.3323L3.08477 11.6047C2.71152 11.3892 2.58369 10.911 2.7998 10.5374C2.85103 10.4486 2.91925 10.3707 3.00058 10.3083C3.0819 10.2458 3.17473 10.2 3.27376 10.1735C3.3728 10.1469 3.47609 10.1401 3.57775 10.1535C3.6794 10.1669 3.77742 10.2002 3.86621 10.2515L5.12656 10.9791C5.4998 11.1946 5.62754 11.6723 5.41201 12.0459ZM6.7418 7.37627C6.52617 7.00264 6.654 6.52451 7.02812 6.30898C7.40088 6.09336 7.87939 6.22119 8.09541 6.59492L8.82207 7.85488C8.92561 8.0343 8.9537 8.24747 8.90018 8.44759C8.84665 8.6477 8.7159 8.81839 8.53662 8.92217C8.44777 8.97351 8.34967 9.00684 8.24793 9.02025C8.14619 9.03366 8.04281 9.0269 7.94369 9.00035C7.84456 8.97379 7.75164 8.92797 7.67024 8.86549C7.58883 8.80302 7.52053 8.72511 7.46924 8.63623L6.7418 7.37627ZM12.0232 6.99707V5.54229C12.0232 5.11064 12.3726 4.76133 12.8042 4.76133C13.2358 4.76133 13.5856 5.11064 13.5856 5.54229V6.99707C13.5856 7.42871 13.2358 7.77852 12.8042 7.77852C12.3726 7.77852 12.0232 7.42871 12.0232 6.99707ZM13.4891 28.7834H12.1864C12.0664 28.7834 11.9635 28.6813 11.9635 28.5609V28.3385H13.7115V28.5609C13.7115 28.6813 13.6091 28.7834 13.4891 28.7834ZM14.6521 15.9608V15.3067C14.6521 14.9459 14.9448 14.6526 15.3053 14.6526C15.667 14.6526 15.9598 14.9459 15.9598 15.3067C15.9598 15.6676 15.667 15.9608 15.3053 15.9608H14.6521ZM7.40869 15.2612C7.40869 16.6438 7.78789 17.291 8.3124 18.1869C8.88652 19.1683 9.5875 20.3676 9.83662 22.7614H10.9559V17.5231H10.3022C9.07998 17.5231 8.08574 16.5289 8.08574 15.3066C8.08574 14.0844 9.07998 13.0902 10.3022 13.0902C11.524 13.0902 12.5183 14.0845 12.5183 15.3066V15.9607H13.0896V15.3066C13.0896 14.0844 14.0838 13.0902 15.3051 13.0902C16.5282 13.0902 17.522 14.0845 17.522 15.3066C17.522 16.5289 16.5282 17.5231 15.3051 17.5231H14.6519V22.7614H15.7711C16.0202 20.3675 16.7221 19.1683 17.2953 18.1869C17.8197 17.291 18.199 16.6438 18.199 15.2612C18.199 12.2863 15.7789 9.86621 12.804 9.86621C9.82881 9.86621 7.40869 12.2863 7.40869 15.2612ZM13.0896 22.7614H12.5184V17.5231H13.0896V22.7614ZM10.956 15.9608H10.3023C9.94199 15.9608 9.64824 15.6676 9.64824 15.3067C9.64824 14.9459 9.94199 14.6526 10.3023 14.6526C10.6627 14.6526 10.956 14.9459 10.956 15.3067V15.9608ZM9.89736 24.3238H15.7106V24.5463C15.7106 24.6667 15.6091 24.7687 15.4882 24.7687H10.1199C9.9999 24.7687 9.89746 24.6667 9.89746 24.5463L9.89736 24.3238ZM14.5183 26.7761H11.1568C11.0368 26.7761 10.9344 26.6745 10.9344 26.5536V26.3312H14.7413V26.5536C14.7412 26.6745 14.6387 26.7761 14.5183 26.7761ZM17.2734 24.5463V23.5686C17.4237 21.0639 18.0438 20.0025 18.6441 18.9762C19.1943 18.038 19.7615 17.0677 19.7615 15.2612C19.7615 11.4249 16.6405 8.30391 12.8042 8.30391C8.96748 8.30391 5.84639 11.425 5.84639 15.2612C5.84639 17.0677 6.41494 18.038 6.96377 18.9762C7.56406 20.0025 8.18555 21.064 8.33496 23.5686V24.5462C8.33496 25.2633 8.76064 25.8815 9.37197 26.1646V26.5535C9.37197 27.2674 9.79482 27.8833 10.4012 28.1683V28.5608C10.4012 29.5449 11.2019 30.3457 12.1865 30.3457H13.4892C14.4732 30.3457 15.274 29.545 15.274 28.5608V28.1683C15.8808 27.8833 16.3036 27.2674 16.3036 26.5535V26.1325C16.8786 25.836 17.2734 25.2367 17.2734 24.5463ZM16.361 36.1448C16.1989 36.1447 16.0408 36.0942 15.9087 36.0002C15.7766 35.9062 15.677 35.7734 15.6237 35.6203C15.4821 35.2121 15.6968 34.7667 16.1041 34.6252C25.7353 31.272 34.363 26.5748 41.7791 20.6521L40.3063 20.6517C39.8747 20.6512 39.5249 20.3019 39.5249 19.8702C39.5249 19.4386 39.8747 19.0893 40.3063 19.0893L43.9606 19.0901C44.1951 19.0901 44.4166 19.1954 44.5651 19.3765C44.7137 19.5575 44.7733 19.7961 44.7265 20.026L44.0039 23.6081C43.9295 23.9786 43.6035 24.2351 43.2391 24.2351C43.1869 24.2348 43.1349 24.2296 43.0837 24.2194C42.6608 24.134 42.3864 23.7221 42.4724 23.2987L42.7605 21.8678C35.2051 27.9036 26.4188 32.6877 16.618 36.1007C16.5354 36.1296 16.4485 36.1446 16.361 36.1448ZM20.6229 47.6564H17.6228V40.465H20.6229V47.6564ZM21.4039 38.9027H16.8419C16.4103 38.9027 16.0604 39.2534 16.0604 39.6842V48.4379C16.0604 48.5405 16.0807 48.6421 16.1199 48.7369C16.1592 48.8316 16.2168 48.9178 16.2894 48.9903C16.3619 49.0628 16.4481 49.1203 16.5429 49.1595C16.6377 49.1988 16.7393 49.2189 16.8419 49.2188H21.4039C21.5065 49.2189 21.6081 49.1988 21.7029 49.1595C21.7977 49.1203 21.8839 49.0628 21.9564 48.9903C22.029 48.9178 22.0866 48.8316 22.1259 48.7369C22.1651 48.6421 22.1854 48.5405 22.1854 48.4379V39.6842C22.1854 39.2534 21.8355 38.9027 21.4039 38.9027ZM46.0405 47.6564V26.782H43.0395V47.6564H46.0405ZM46.822 25.2196H42.2585C41.827 25.2196 41.4771 25.5694 41.4771 26.0006V48.4378C41.4771 48.5404 41.4973 48.642 41.5365 48.7368C41.5758 48.8315 41.6334 48.9177 41.706 48.9902C41.7785 49.0627 41.8647 49.1202 41.9595 49.1594C42.0543 49.1987 42.1559 49.2188 42.2585 49.2188H46.822C46.9246 49.2188 47.0262 49.1987 47.121 49.1594C47.2158 49.1202 47.3019 49.0627 47.3745 48.9902C47.4471 48.9177 47.5046 48.8315 47.5439 48.7368C47.5832 48.642 47.6034 48.5404 47.6034 48.4378V26.0007C47.6034 25.8981 47.5832 25.7965 47.5439 25.7017C47.5046 25.607 47.447 25.5208 47.3745 25.4483C47.3019 25.3758 47.2158 25.3183 47.121 25.279C47.0262 25.2398 46.9246 25.2196 46.822 25.2196ZM29.0953 47.6564V35.8791H26.0956V47.6564H29.0953ZM29.8768 34.3167H25.3143C25.2116 34.3167 25.11 34.3369 25.0152 34.3762C24.9204 34.4154 24.8342 34.473 24.7617 34.5456C24.6891 34.6181 24.6315 34.7043 24.5923 34.7991C24.553 34.8939 24.5328 34.9955 24.5328 35.0981V48.4378C24.5328 48.5404 24.553 48.642 24.5923 48.7368C24.6316 48.8315 24.6892 48.9177 24.7617 48.9902C24.8343 49.0627 24.9204 49.1202 25.0152 49.1594C25.1101 49.1987 25.2117 49.2188 25.3143 49.2188H29.8768C29.9793 49.2188 30.0809 49.1986 30.1757 49.1594C30.2705 49.1202 30.3566 49.0627 30.4291 48.9901C30.5016 48.9176 30.5591 48.8315 30.5984 48.7367C30.6376 48.6419 30.6578 48.5404 30.6577 48.4378V35.0981C30.6578 34.9955 30.6376 34.8939 30.5984 34.7991C30.5592 34.7043 30.5017 34.6182 30.4291 34.5456C30.3566 34.473 30.2705 34.4155 30.1757 34.3762C30.0809 34.3369 29.9794 34.3167 29.8768 34.3167ZM37.5682 47.6564V31.0904H34.568V47.6564H37.5682ZM38.3496 29.5275H33.7866C33.684 29.5275 33.5824 29.5478 33.4876 29.587C33.3929 29.6263 33.3068 29.6839 33.2342 29.7565C33.1617 29.829 33.1042 29.9152 33.065 30.01C33.0258 30.1048 33.0056 30.2064 33.0057 30.309V48.4378C33.0056 48.5404 33.0258 48.6419 33.065 48.7367C33.1042 48.8315 33.1618 48.9176 33.2343 48.9901C33.3068 49.0627 33.3929 49.1202 33.4877 49.1594C33.5825 49.1986 33.6841 49.2188 33.7866 49.2188H38.3496C38.4522 49.2188 38.5538 49.1986 38.6485 49.1594C38.7433 49.1202 38.8294 49.0627 38.9019 48.9901C38.9745 48.9176 39.032 48.8315 39.0712 48.7367C39.1105 48.6419 39.1306 48.5404 39.1306 48.4378V30.309C39.1306 30.2064 39.1105 30.1048 39.0713 30.01C39.032 29.9152 38.9745 29.829 38.902 29.7565C38.8295 29.6839 38.7434 29.6263 38.6486 29.587C38.5538 29.5478 38.4522 29.5275 38.3496 29.5275ZM3.91953 31.8801H15.3493C15.6968 30.5406 16.332 29.5569 17.2431 28.9534C18.321 28.2387 19.7597 28.0764 21.516 28.4713C23.0936 28.743 23.5164 28.5158 23.5767 28.475C23.5789 28.4648 23.5799 28.4465 23.5789 28.4185C23.5779 28.4042 23.5779 28.3899 23.5779 28.3762C23.5885 26.8731 23.8491 26.0489 24.4752 25.5543C24.3667 25.4127 24.0896 25.1576 23.5807 24.8818C23.4327 24.8013 23.3147 24.6752 23.2442 24.5222C23.1736 24.3693 23.1543 24.1976 23.1891 24.0328C23.2243 23.868 23.3117 23.719 23.4384 23.608C23.5651 23.4969 23.7243 23.4297 23.8923 23.4164C24.2223 23.3902 24.5854 23.2022 24.7468 23.0662C24.5473 22.3629 24.2518 21.0061 25.5328 20.3418C25.5388 20.3386 25.5434 20.3362 25.5493 20.3335C25.9681 20.1285 26.0885 19.9603 26.0991 19.9124C26.1051 19.8857 26.0862 19.7754 25.9364 19.5777C25.1812 18.7545 24.5717 17.9023 24.1244 17.0437C23.6693 16.1689 23.4956 15.2661 23.5944 14.2844C23.6303 13.9222 23.6491 13.5535 23.6491 13.1891C23.6491 7.20938 18.7837 2.34443 12.804 2.34443C6.82383 2.34443 1.9584 7.20947 1.9584 13.1891C1.9584 15.7544 2.8708 18.243 4.52793 20.197C5.18105 20.9683 5.55342 21.832 5.66367 22.8368C5.95576 25.5037 5.35449 28.6101 3.91953 31.8801ZM16.7467 32.7994C16.9673 31.563 17.4256 30.7075 18.1063 30.2562C18.8193 29.7836 19.8571 29.6968 21.1902 29.9997C21.204 30.0024 21.2169 30.0052 21.2303 30.007C22.9245 30.3021 24.0011 30.1858 24.618 29.6421C24.8699 29.4191 25.1632 29.0188 25.1406 28.3693C25.1466 27.7392 25.2059 26.9591 25.4532 26.7734C25.4569 26.7711 25.4597 26.7688 25.4629 26.7665C26.0526 26.3114 26.1036 25.7718 26.0812 25.4909C26.0489 25.0864 25.8407 24.7261 25.5517 24.414C25.7998 24.2425 26.0127 24.0352 26.1561 23.798C26.3624 23.4557 26.4052 23.0814 26.2783 22.7386C26.1161 22.1736 26.1262 21.9291 26.1464 21.8326C26.1542 21.7949 26.1583 21.7788 26.2462 21.7324C27.0226 21.35 27.4863 20.8559 27.622 20.2624C27.7483 19.7154 27.5889 19.1532 27.1504 18.5925C27.1366 18.576 27.1232 18.5599 27.1095 18.5442C26.4365 17.8147 25.8996 17.0674 25.5107 16.3223C25.1913 15.7091 25.0801 15.129 25.1495 14.4409C25.1904 14.0268 25.212 13.6058 25.212 13.1893C25.212 6.34814 19.6456 0.781738 12.8045 0.781738C5.96299 0.781738 0.396484 6.34814 0.396484 13.1893C0.396484 16.1237 1.44033 18.9713 3.33594 21.2075C3.79375 21.748 4.0332 22.3033 4.11045 23.0075C4.4042 25.6832 3.67197 28.9026 1.99326 32.317C1.93471 32.4362 1.90745 32.5683 1.91405 32.7009C1.92064 32.8335 1.96088 32.9622 2.03096 33.075C2.10132 33.1875 2.19908 33.2803 2.31509 33.3447C2.4311 33.4091 2.56156 33.443 2.69424 33.4432H15.9783C16.1616 33.443 16.3389 33.3784 16.4794 33.2608C16.6198 33.1431 16.7144 32.9798 16.7467 32.7994Z" fill="white"/>
</svg>
