<svg width="74" height="74" viewBox="0 0 74 74" fill="none" xmlns="http://www.w3.org/2000/svg">
<rect x="5" y="5" width="64" height="64" rx="12" fill="url(#paint0_linear_3074_4785)"/>
<rect x="2.5" y="2.5" width="69" height="69" rx="14.5" stroke="#FF9104" stroke-opacity="0.22" stroke-width="5"/>
<path d="M48.6875 20H25.3125C23.6125 20 22.125 21.4875 22.125 23.1875V50.8125C22.125 52.5125 23.6125 54 25.3125 54H48.6875C50.3875 54 51.875 52.5125 51.875 50.8125V23.1875C51.875 21.4875 50.3875 20 48.6875 20ZM30.625 48.9C30.625 49.325 30.2 49.75 29.775 49.75H27.225C26.8 49.75 26.375 49.325 26.375 48.9V46.35C26.375 45.925 26.8 45.5 27.225 45.5H29.775C30.2 45.5 30.625 45.925 30.625 46.35V48.9ZM30.625 40.4C30.625 40.825 30.2 41.25 29.775 41.25H27.225C26.8 41.25 26.375 40.825 26.375 40.4V37.85C26.375 37.425 26.8 37 27.225 37H29.775C30.2 37 30.625 37.425 30.625 37.85V40.4ZM39.125 48.9C39.125 49.325 38.7 49.75 38.275 49.75H35.725C35.3 49.75 34.875 49.325 34.875 48.9V46.35C34.875 45.925 35.3 45.5 35.725 45.5H38.275C38.7 45.5 39.125 45.925 39.125 46.35V48.9ZM39.125 40.4C39.125 40.825 38.7 41.25 38.275 41.25H35.725C35.3 41.25 34.875 40.825 34.875 40.4V37.85C34.875 37.425 35.3 37 35.725 37H38.275C38.7 37 39.125 37.425 39.125 37.85V40.4ZM47.625 48.9C47.625 49.325 47.2 49.75 46.775 49.75H44.225C43.8 49.75 43.375 49.325 43.375 48.9V37.85C43.375 37.425 43.8 37 44.225 37H46.775C47.2 37 47.625 37.425 47.625 37.85V48.9ZM47.625 31.9C47.625 32.325 47.2 32.75 46.775 32.75H27.225C26.8 32.75 26.375 32.325 26.375 31.9V25.1C26.375 24.675 26.8 24.25 27.225 24.25H46.775C47.2 24.25 47.625 24.675 47.625 25.1V31.9Z" fill="white"/>
<defs>
<linearGradient id="paint0_linear_3074_4785" x1="37" y1="5" x2="37" y2="69" gradientUnits="userSpaceOnUse">
<stop stop-color="#FF5E01"/>
<stop offset="1" stop-color="#FF9404"/>
</linearGradient>
</defs>
</svg>
