<svg width="74" height="74" viewBox="0 0 74 74" fill="none" xmlns="http://www.w3.org/2000/svg">
<rect x="2.5" y="2.5" width="69" height="69" rx="14.5" fill="#1248B5" stroke="#BACCEF" stroke-width="5"/>
<g clip-path="url(#clip0_3974_199)">
<path d="M13 13H61V61H13V13Z" fill="#1248B5"/>
<path d="M25.1854 34.5687L29.5869 30.1687C30.0253 29.7247 30.3353 29.1704 30.4842 28.5645C30.6331 27.9587 30.6153 27.3238 30.4326 26.7272C30.1235 25.7135 29.851 24.689 29.6154 23.6557C29.4197 22.75 28.6254 22 27.7011 22H25.1868C23.3354 22 21.8153 23.5072 22.0182 25.3458C23.5611 39.3316 34.6669 50.4389 48.6542 51.9818C50.4943 52.1846 52 50.6646 52 48.8132V46.2989C52 45.3746 51.2471 44.616 50.3357 44.4503C49.3349 44.2573 48.3472 44.0016 47.3785 43.6845C46.1014 43.2774 44.6813 43.5631 43.7342 44.5117L39.4313 48.8146M41.167 32.0001C40.3241 31.1815 36.9998 29.0001 36.9998 27.8329C36.9998 26.6658 40.3241 24.4857 41.167 23.6672M37.8327 27.8329H51.1671M47.8328 32.0001C48.6757 31.1815 52 29.0001 52 27.8329C52 26.6658 48.6757 24.4857 47.8328 23.6672" stroke="white" stroke-width="1.5" stroke-linecap="round" stroke-linejoin="round"/>
</g>
<defs>
<clipPath id="clip0_3974_199">
<rect width="48" height="48" fill="white" transform="translate(13 13)"/>
</clipPath>
</defs>
</svg>
