<svg width="55" height="58" viewBox="0 0 55 58" fill="none" xmlns="http://www.w3.org/2000/svg">
<path d="M33.2695 42.3269L37.898 42.7705L38.0096 42.7817L38.0745 42.872L45.4133 53.79C46.3789 55.1438 45.3873 56.9997 43.6981 57C42.9894 57 42.3283 56.6492 41.9429 56.0682L35.2413 45.4521V54.7656C35.241 55.9996 34.2163 57 32.9528 57C31.6895 56.9999 30.6655 55.9995 30.6653 54.7656V45.4521L23.9551 56.0803C23.5749 56.6535 22.9229 57 22.2238 57C20.5563 56.9999 19.5786 55.1673 20.5334 53.832L27.9161 42.8711L27.9811 42.7807L28.0946 42.7705L33.2237 42.3269L33.2467 42.3251L33.2695 42.3269Z" fill="#F0BF58" stroke="#F0BF58" stroke-width="0.5"/>
<path d="M51.581 6.67896C53.4691 6.67896 54.9998 5.18382 54.9998 3.33948C54.9998 1.49514 53.4691 0 51.581 0C49.6928 0 48.1621 1.49514 48.1621 3.33948C48.1621 5.18382 49.6928 6.67896 51.581 6.67896Z" fill="#F0BF58"/>
<path d="M32.8751 7.98657C35.8291 7.97496 38.8222 7.90059 41.8029 8.02105C46.4699 8.21025 50.7026 12.1662 51.0664 16.7126L51.1255 17.6183C51.236 19.7331 51.1694 21.8643 51.1761 23.9413C51.1858 27.0966 51.2131 30.2643 51.1445 33.4296C51.1007 35.4714 50.5984 37.2739 49.6183 38.805C48.638 40.3364 47.1961 41.5707 45.3152 42.5004C44.0471 43.1261 42.6463 43.4514 41.2257 43.4509C38.5773 43.4619 35.9256 43.4528 33.2796 43.4517L33.2748 43.4853H25.0377C19.9193 43.4853 15.7731 40.0905 14.8746 35.1692V35.1646C14.792 34.689 14.7457 34.2081 14.7363 33.7259L14.7373 33.725C14.7081 32.5628 15.5169 31.6421 16.6852 31.608C17.255 31.5915 17.7663 31.7966 18.137 32.1708C18.5046 32.5418 18.7104 33.0547 18.7323 33.6243C18.8637 37.0623 21.5201 39.5657 25.0568 39.5755C30.3217 39.5911 35.587 39.6044 40.8527 39.6156C42.8233 39.6156 44.4513 38.9071 45.7234 37.4418L45.7244 37.4409C46.6633 36.3604 47.1715 35.1171 47.1715 33.724C47.1867 28.429 47.2029 23.1363 47.1486 17.8466C47.1133 14.4819 44.3617 11.9029 40.8909 11.9019H33.1269C32.5526 11.9019 32.0308 11.7384 31.635 11.4155C31.2355 11.0895 30.9959 10.626 30.9529 10.0924C30.8663 8.99894 31.685 7.98793 32.8751 7.98657Z" fill="#F0BF58" stroke="#F0BF58"/>
<path d="M28.0328 19.0696C28.1944 19.0685 28.3281 19.065 28.4449 19.0649C28.6567 19.0648 28.864 19.0711 29.0316 19.1777C29.2018 19.2862 29.2873 19.4701 29.3673 19.664C29.4575 19.8827 29.5527 20.1498 29.7346 20.5707C31.2759 24.161 32.7929 27.7612 34.3162 31.3578C34.3882 31.5277 34.4494 31.6751 34.4813 31.7939C34.5099 31.9007 34.5396 32.0665 34.4374 32.2076C34.338 32.3447 34.1711 32.3773 34.0587 32.3912C33.9954 32.399 33.9225 32.4038 33.8412 32.4061L33.5741 32.4089C33.3587 32.4089 33.2677 32.4101 33.1124 32.4117C32.9565 32.4133 32.738 32.4154 32.2711 32.4154C32.0218 32.4316 31.7835 32.4045 31.5813 32.2803C31.3707 32.1507 31.2404 31.9415 31.1597 31.6783C30.9855 31.1211 30.7703 30.577 30.5168 30.0496C30.4838 29.9934 30.4387 29.9451 30.3842 29.908C30.3307 29.8717 30.27 29.8472 30.2058 29.8363C28.6589 29.8093 27.1222 29.8258 25.5641 29.8121C25.4384 29.8121 25.3794 29.8327 25.3465 29.8539C25.3164 29.8735 25.2769 29.9142 25.2378 30.0244L25.2368 30.0264C25.1272 30.3284 25.0105 30.6273 24.8953 30.9227C24.7799 31.2191 24.6659 31.5126 24.5596 31.8079C24.4973 31.9835 24.4052 32.1466 24.2505 32.2607C24.0939 32.3762 23.9047 32.4169 23.6943 32.4117C23.6921 32.4117 23.6899 32.4117 23.6877 32.4117L23.6867 32.4126C23.1662 32.4125 22.6853 32.408 22.1681 32.4052C21.6516 32.4021 21.297 31.8924 21.4879 31.4222C21.6317 31.068 21.7618 30.7489 21.8962 30.4307C23.4035 26.8652 24.9096 23.2995 26.414 19.734L26.4865 19.5811C26.5655 19.4341 26.6657 19.3084 26.8031 19.2168C26.9885 19.0934 27.2075 19.0544 27.4538 19.0622L28.0328 19.0696ZM26.3768 27.1211H29.3788C28.8788 25.8282 28.3912 24.5688 27.8773 23.2412C27.3616 24.5738 26.8739 25.8357 26.3768 27.1211Z" fill="#F0BF58" stroke="#F0BF58" stroke-width="0.5"/>
<path d="M25.7128 10.8954C21.7051 11.4676 19.3159 13.7567 18.3063 18.0371C17.5697 14.0759 15.1947 11.6942 11.0605 10.9C15.125 10.1251 17.5308 7.78575 18.3299 3.72504C18.6184 5.72907 19.4151 7.32794 20.8007 8.62925C22.1863 9.93057 23.8236 10.6436 25.7128 10.8954Z" fill="#F0BF58"/>
<path d="M14.8097 21.7881C11.5976 22.3773 9.61547 24.2923 8.96339 27.5785C8.33828 24.3155 6.37754 22.4026 3.08789 21.7595C6.32358 21.1406 8.27496 19.2637 8.94202 16.1288C9.16689 16.7642 9.34227 17.4658 9.67619 18.0824C10.022 18.7291 10.4625 19.3226 10.9838 19.8444C11.5043 20.3418 12.1006 20.7572 12.7511 21.0757C13.4076 21.4071 14.1485 21.5679 14.8097 21.7881Z" fill="#F0BF58"/>
<path d="M9.06869 8.82853C6.58362 9.28543 5.05015 10.7706 4.54566 13.319C4.06204 10.7885 2.54508 9.30508 0 8.80633C2.50332 8.32636 4.01304 6.87082 4.52912 4.4397C4.70309 4.93247 4.83878 5.47648 5.09711 5.95474C5.36468 6.4562 5.70548 6.91655 6.10871 7.32118C6.5115 7.70691 6.97276 8.029 7.47606 8.27598C7.98404 8.53304 8.55724 8.65773 9.06869 8.82853Z" fill="#F0BF58"/>
<path d="M38.9568 19.0567C39.1791 19.0477 39.399 19.0844 39.5521 19.2467C39.7003 19.404 39.7293 19.6222 39.7276 19.8272C39.7135 21.6763 39.7276 23.5243 39.7276 25.3769C39.7276 27.4409 39.7155 29.5005 39.7362 31.5611C39.739 31.8002 39.7073 32.0455 39.5425 32.2171C39.3734 32.393 39.1284 32.4267 38.8748 32.4109C38.1965 32.4109 38.142 32.4118 37.6805 32.4118C37.4041 32.4343 37.1482 32.3953 36.9794 32.2021C36.821 32.021 36.7983 31.7644 36.801 31.5275C36.8237 29.5734 36.8105 27.62 36.8105 25.662L36.8134 25.6611C36.8134 23.7222 36.8213 21.7872 36.8028 19.8524V19.8505C36.8028 19.6357 36.8325 19.4087 36.985 19.2477C37.143 19.0808 37.3707 19.0472 37.6013 19.0576L38.9568 19.0567Z" fill="#F0BF58" stroke="#F0BF58" stroke-width="0.5"/>
<path d="M27.8804 22.5667C28.5232 24.2269 29.1162 25.7618 29.7342 27.3605H26.0254C26.6357 25.7735 27.2353 24.2343 27.8804 22.5667Z" fill="white"/>
</svg>
