<svg width="512" height="512" viewBox="0 0 512 512" fill="none" xmlns="http://www.w3.org/2000/svg">
<path fill-rule="evenodd" clip-rule="evenodd" d="M115.024 16H347.109V61.517C347.109 72.547 356.071 81.509 367.101 81.509H412.619V256.889C400.771 248.86 384.462 250.086 373.978 260.571C373.404 261.145 372.853 261.743 372.326 262.361C363.378 261.412 354.09 264.356 347.254 271.193C345.428 273.018 343.84 275.067 342.527 277.29C337.213 277.481 332.028 278.979 327.431 281.652C327.982 278.156 328.268 274.571 328.268 270.92C328.268 263.798 327.18 256.93 325.161 250.475H365.898C368.02 250.475 370.055 249.632 371.555 248.132C373.055 246.632 373.898 244.597 373.898 242.475C373.898 240.353 373.055 238.318 371.555 236.818C370.055 235.318 368.02 234.475 365.898 234.475H317.76C305.643 215.255 284.229 202.483 259.829 202.483C235.429 202.483 214.015 215.254 201.898 234.475H153.763C151.641 234.475 149.606 235.318 148.106 236.818C146.606 238.318 145.763 240.353 145.763 242.475C145.763 244.597 146.606 246.632 148.106 248.132C149.606 249.632 151.641 250.475 153.763 250.475H194.5C192.481 256.931 191.393 263.799 191.393 270.92C191.393 278.041 192.482 284.908 194.5 291.365H153.764C151.642 291.365 149.607 292.208 148.107 293.708C146.607 295.208 145.764 297.243 145.764 299.365C145.764 301.487 146.607 303.522 148.107 305.022C149.607 306.522 151.642 307.365 153.764 307.365H201.899C214.016 326.586 235.43 339.357 259.83 339.357C266.653 339.363 273.438 338.348 279.96 336.345L290.962 347.347C290.769 347.648 290.58 347.95 290.395 348.254H184.576L161.908 325.587L145.46 332.892C142.338 331.375 139.129 330.044 135.849 328.907L129.386 312.115H107.04V23.985C107.039 19.587 110.626 16 115.024 16ZM123.754 342.026L118.4 328.115H95.68L90.325 342.026C82.9147 343.791 75.8332 346.727 69.347 350.722L55.716 344.668L39.65 360.735L45.704 374.365C41.7079 380.851 38.7721 387.933 37.007 395.344L23.098 400.698V423.419L37.005 428.772C38.77 436.184 41.7062 443.268 45.703 449.755L39.65 463.382L55.716 479.448L69.348 473.394C75.8336 477.39 82.9148 480.326 90.325 482.091L95.679 496H118.4L123.753 482.093C131.165 480.328 138.249 477.392 144.736 473.395L158.363 479.447L174.429 463.381L168.375 449.75C172.371 443.264 175.306 436.183 177.071 428.772L190.982 423.418V400.698L177.075 395.345C175.31 387.933 172.374 380.849 168.377 374.362L174.43 360.735L158.364 344.669L144.733 350.723C138.247 346.727 131.165 343.792 123.754 342.026ZM107.039 372.434C128.925 372.434 146.663 390.172 146.663 412.058C146.663 433.943 128.925 451.682 107.039 451.682C85.154 451.682 67.415 433.944 67.415 412.058C67.415 390.172 85.154 372.434 107.039 372.434ZM336.035 369.793L308.896 350.481C297.629 361.748 297.049 376.915 308.321 388.187L334.145 410.482C342.204 417.441 352.8 418.402 363.094 415.687L381.297 410.885C384.278 410.099 387.239 410.32 389.881 411.468L463.613 337.736C463.384 337.208 463.191 336.664 463.035 336.11C461.178 329.484 458.099 324.219 453.232 319.352L405.76 271.881C400.132 266.253 390.924 266.252 385.292 271.883C381.95 275.225 380.592 279.834 381.219 284.204L379.518 282.503C373.757 276.742 364.33 276.741 358.566 282.505C354.446 286.625 353.272 292.615 355.04 297.806C348.66 291.664 338.44 291.763 332.179 298.024C326.658 303.545 325.935 312.112 330.011 318.432L288.696 277.117C282.466 270.887 272.263 270.883 266.029 277.117C259.795 283.352 259.794 293.551 266.028 299.785C284.492 318.251 317.572 351.33 336.035 369.793ZM474.275 349.698L488.902 364.325L416.47 436.757L401.842 422.129L474.275 349.698ZM259.829 218.482C230.869 218.482 207.392 241.959 207.392 270.919C207.392 299.879 230.869 323.356 259.829 323.356C262.104 323.356 264.345 323.211 266.544 322.93L254.714 311.1C242.235 298.621 242.236 278.283 254.715 265.805C267.191 253.329 287.534 253.329 300.009 265.805L311.839 277.635C312.123 275.408 312.266 273.164 312.265 270.919C312.266 241.959 288.789 218.482 259.829 218.482ZM363.109 16.692V61.517C363.111 62.5751 363.532 63.5892 364.281 64.3374C365.029 65.0856 366.043 65.5069 367.101 65.509H411.926C411.522 64.6368 410.965 63.8444 410.28 63.17L365.448 18.338C364.773 17.6541 363.981 17.0967 363.109 16.692ZM311.486 412.058H206.982V389.712L190.194 383.25C189.057 379.968 187.726 376.757 186.207 373.633L190.373 364.254H284.556C282.785 376.567 286.825 389.318 297.007 399.501L311.486 412.058ZM155.763 69.005C150.263 69.005 145.763 73.505 145.763 79.005V121.492C145.763 126.992 150.263 131.491 155.763 131.491H314.385C319.885 131.491 324.385 126.992 324.385 121.492V79.005C324.385 73.505 319.885 69.005 314.385 69.005H155.763ZM153.763 193.584H365.896C368.018 193.584 370.053 192.741 371.553 191.241C373.053 189.741 373.896 187.706 373.896 185.584C373.896 183.462 373.053 181.427 371.553 179.927C370.053 178.427 368.018 177.584 365.896 177.584H153.763C151.641 177.584 149.606 178.427 148.106 179.927C146.606 181.427 145.763 183.462 145.763 185.584C145.763 187.706 146.606 189.741 148.106 191.241C149.606 192.741 151.641 193.584 153.763 193.584Z" fill="white"/>
</svg>
