<svg width="74" height="74" viewBox="0 0 74 74" fill="none" xmlns="http://www.w3.org/2000/svg">
<circle cx="37" cy="37" r="32" fill="url(#paint0_linear_791_364)"/>
<circle cx="37" cy="37" r="34.5" stroke="#FF9104" stroke-opacity="0.22" stroke-width="5"/>
<g clip-path="url(#clip0_791_364)">
<path fill-rule="evenodd" clip-rule="evenodd" d="M27.6396 21.0625H43.0515V24.0851C43.0515 24.8176 43.6466 25.4127 44.3791 25.4127H47.4018V37.059C46.615 36.5259 45.532 36.6073 44.8358 37.3035C44.7977 37.3417 44.7611 37.3814 44.7261 37.4224C44.1319 37.3594 43.5151 37.5549 43.0611 38.0089C42.9399 38.1301 42.8344 38.2662 42.7472 38.4138C42.3944 38.4265 42.05 38.5259 41.7448 38.7035C41.7814 38.4713 41.8004 38.2332 41.8004 37.9908C41.8004 37.5178 41.7281 37.0618 41.594 36.6331H44.2992C44.4401 36.6331 44.5753 36.5771 44.6749 36.4775C44.7745 36.3779 44.8305 36.2428 44.8305 36.1019C44.8305 35.9609 44.7745 35.8258 44.6749 35.7262C44.5753 35.6266 44.4401 35.5706 44.2992 35.5706H41.1026C40.2979 34.2943 38.8759 33.4461 37.2556 33.4461C35.6353 33.4461 34.2132 34.2942 33.4086 35.5706H30.2121C30.0712 35.5706 29.9361 35.6266 29.8365 35.7262C29.7369 35.8258 29.6809 35.9609 29.6809 36.1019C29.6809 36.2428 29.7369 36.3779 29.8365 36.4775C29.9361 36.5771 30.0712 36.6331 30.2121 36.6331H32.9173C32.7832 37.0618 32.711 37.5179 32.711 37.9908C32.711 38.4637 32.7833 38.9197 32.9173 39.3485H30.2122C30.0713 39.3485 29.9361 39.4044 29.8365 39.504C29.7369 39.6037 29.6809 39.7388 29.6809 39.8797C29.6809 40.0206 29.7369 40.1558 29.8365 40.2554C29.9361 40.355 30.0713 40.411 30.2122 40.411H33.4087C34.2133 41.6874 35.6353 42.5354 37.2556 42.5354C37.7087 42.5358 38.1593 42.4684 38.5924 42.3354L39.323 43.066C39.3102 43.086 39.2976 43.1061 39.2853 43.1262H32.2583L30.753 41.621L29.6608 42.1061C29.4534 42.0054 29.2403 41.917 29.0225 41.8415L28.5933 40.7264H27.1094V21.5928C27.1094 21.3007 27.3476 21.0625 27.6396 21.0625ZM28.2193 42.7127L27.8638 41.7889H26.3551L25.9994 42.7127C25.5074 42.8299 25.0371 43.0248 24.6064 43.2901L23.7012 42.8881L22.6343 43.9551L23.0363 44.8602C22.771 45.2909 22.576 45.7612 22.4588 46.2533L21.5352 46.6089V48.1177L22.4587 48.4731C22.5759 48.9653 22.7709 49.4358 23.0363 49.8665L22.6343 50.7715L23.7012 51.8383L24.6064 51.4363C25.0371 51.7017 25.5074 51.8966 25.9994 52.0139L26.355 52.9375H27.8638L28.2193 52.014C28.7115 51.8968 29.1819 51.7018 29.6127 51.4364L30.5176 51.8383L31.5845 50.7714L31.1825 49.8662C31.4478 49.4355 31.6427 48.9653 31.7599 48.4731L32.6837 48.1176V46.6089L31.7602 46.2534C31.643 45.7612 31.448 45.2908 31.1826 44.86L31.5845 43.9551L30.5177 42.8882L29.6125 43.2902C29.1818 43.0248 28.7115 42.8299 28.2193 42.7127ZM27.1094 44.7319C28.5627 44.7319 29.7406 45.9099 29.7406 47.3632C29.7406 48.8165 28.5627 49.9945 27.1094 49.9945C25.6561 49.9945 24.4781 48.8166 24.4781 47.3632C24.4781 45.9099 25.6561 44.7319 27.1094 44.7319ZM42.3161 44.5566L40.5139 43.2741C39.7657 44.0223 39.7272 45.0295 40.4757 45.778L42.1906 47.2586C42.7258 47.7207 43.4294 47.7845 44.113 47.6042L45.3218 47.2853C45.5198 47.2331 45.7164 47.2478 45.8918 47.324L50.7881 42.4278C50.7729 42.3927 50.7601 42.3566 50.7497 42.3198C50.6264 41.8798 50.4219 41.5302 50.0987 41.207L46.9463 38.0546C46.5726 37.6809 45.9611 37.6808 45.5871 38.0547C45.3652 38.2767 45.275 38.5827 45.3166 38.8729L45.2037 38.76C44.8211 38.3774 44.1951 38.3773 43.8123 38.7601C43.5387 39.0337 43.4608 39.4315 43.5782 39.7762C43.1545 39.3683 42.4758 39.3749 42.0601 39.7907C41.6934 40.1573 41.6454 40.7262 41.9161 41.1459L39.1725 38.4023C38.7588 37.9886 38.0813 37.9883 37.6673 38.4023C37.2533 38.8163 37.2533 39.4936 37.6672 39.9076C38.8934 41.1339 41.0901 43.3305 42.3161 44.5566ZM51.4961 43.2221L52.4675 44.1935L47.6575 49.0034L46.6861 48.032L51.4961 43.2221ZM37.2556 34.5086C35.3325 34.5086 33.7734 36.0676 33.7734 37.9907C33.7734 39.9138 35.3325 41.4729 37.2556 41.4729C37.4066 41.4729 37.5555 41.4632 37.7015 41.4446L36.9159 40.659C36.0872 39.8303 36.0873 38.4797 36.916 37.6511C37.7445 36.8226 39.0954 36.8226 39.9238 37.6511L40.7094 38.4367C40.7282 38.2888 40.7377 38.1398 40.7377 37.9907C40.7377 36.0676 39.1787 34.5086 37.2556 34.5086ZM44.114 21.1085V24.0851C44.1141 24.1554 44.1421 24.2227 44.1918 24.2724C44.2415 24.3221 44.3088 24.3501 44.3791 24.3502H47.3558C47.3289 24.2923 47.292 24.2397 47.2465 24.1949L44.2693 21.2178C44.2245 21.1723 44.1719 21.1353 44.114 21.1085ZM40.6859 47.3632H33.7462V45.8793L32.6314 45.4502C32.5559 45.2323 32.4675 45.019 32.3666 44.8116L32.6433 44.1887H38.8976C38.78 45.0064 39.0483 45.8531 39.7244 46.5294L40.6859 47.3632ZM30.3449 24.5824C29.9797 24.5824 29.6809 24.8812 29.6809 25.2464V28.0678C29.6809 28.4331 29.9797 28.7318 30.3449 28.7318H40.8784C41.2437 28.7318 41.5425 28.4331 41.5425 28.0678V25.2464C41.5425 24.8812 41.2437 24.5824 40.8784 24.5824H30.3449ZM30.2121 32.8552H44.2991C44.44 32.8552 44.5751 32.7992 44.6747 32.6996C44.7744 32.6 44.8303 32.4649 44.8303 32.3239C44.8303 32.183 44.7744 32.0479 44.6747 31.9483C44.5751 31.8487 44.44 31.7927 44.2991 31.7927H30.2121C30.0712 31.7927 29.9361 31.8487 29.8365 31.9483C29.7369 32.0479 29.6809 32.183 29.6809 32.3239C29.6809 32.4649 29.7369 32.6 29.8365 32.6996C29.9361 32.7992 30.0712 32.8552 30.2121 32.8552Z" fill="white"/>
</g>
<defs>
<linearGradient id="paint0_linear_791_364" x1="37" y1="5" x2="37" y2="69" gradientUnits="userSpaceOnUse">
<stop stop-color="#FF5E01"/>
<stop offset="1" stop-color="#FF9404"/>
</linearGradient>
<clipPath id="clip0_791_364">
<rect width="34" height="34" fill="white" transform="translate(20 20)"/>
</clipPath>
</defs>
</svg>
