<svg width="100" height="100" viewBox="0 0 100 100" fill="none" xmlns="http://www.w3.org/2000/svg">
<circle cx="50" cy="50" r="45" fill="url(#paint0_linear_3089_3987)"/>
<circle cx="50" cy="50" r="47.5" stroke="#FF9104" stroke-opacity="0.22" stroke-width="5"/>
<path fill-rule="evenodd" clip-rule="evenodd" d="M45.5867 53.8071C44.04 53.3054 42.5635 53.98 41.2384 54.7472L35.822 57.8831L39.8331 64.9704L40.8327 64.3933C40.9966 64.2989 41.1913 64.2734 41.374 64.3224L52.0364 67.1771C53.3803 67.5373 54.6515 67.3745 55.8398 66.6431C60.7427 63.6323 65.6397 60.6115 70.5391 57.5948C71.2843 57.136 71.3808 55.8827 70.9393 55.1713C69.9654 53.6021 67.2678 54.9085 66.1471 55.5612L58.0472 60.279C57.4056 60.6526 56.7457 60.8901 56.0609 61.0051C55.3846 61.1186 54.6882 61.1107 53.9647 60.995L53.0091 60.84C52.973 60.8342 52.9373 60.829 52.9018 60.8203C51.082 60.4465 49.3194 59.8775 47.5278 59.3975C47.3461 59.3464 47.1918 59.2257 47.0984 59.0617C47.005 58.8977 46.9799 58.7035 47.0286 58.5211C47.0774 58.3388 47.196 58.1829 47.3587 58.0874C47.5215 57.9918 47.7154 57.9642 47.8984 58.0106C49.6502 58.4799 51.3865 59.044 53.1623 59.4112C54.0644 59.5216 54.8087 59.237 55.0591 58.3026C55.2862 57.455 54.7517 56.6561 53.9511 56.3787C51.5185 55.9335 49.1575 55.08 47.3011 54.4088C46.6552 54.1754 46.0715 53.9644 45.5867 53.8071ZM55.1176 40.7245C55.5409 40.3013 56.2334 40.3013 56.6567 40.7245L57.7594 41.8273L60.7431 38.8437C61.1663 38.4204 61.8589 38.4204 62.2822 38.8437C62.7054 39.2669 62.7054 39.9595 62.2822 40.3828L58.5503 44.1147C58.0107 44.6543 57.2888 44.435 56.8103 43.9565L55.1175 42.2637C54.6942 41.8404 54.6943 41.1478 55.1176 40.7245ZM68.4092 39.2716C68.165 38.2459 67.7587 37.2658 67.2056 36.3682L68.0431 34.4826L65.82 32.2595L63.9339 33.0973C63.0364 32.5444 62.0566 32.1382 61.0312 31.8939L60.2903 29.9691H57.1466L56.4057 31.8939C55.3803 32.1382 54.4005 32.5444 53.5031 33.0973L51.6169 32.2595L49.3939 34.4826L50.2315 36.3686C49.6786 37.2661 49.2723 38.246 49.0282 39.2715L47.1035 40.0123V43.1562L49.0279 43.8968C49.2721 44.9225 49.6784 45.9026 50.2314 46.8002L49.394 48.6858L51.617 50.9088L53.5032 50.0711C54.4006 50.624 55.3804 51.0302 56.4058 51.2743L57.1466 53.1992H60.2904L61.0311 51.2748C62.0568 51.0306 63.0369 50.6243 63.9345 50.0713L65.82 50.9088L68.0431 48.6857L67.2053 46.7995C67.7582 45.9021 68.1644 44.9223 68.4086 43.8969L70.3334 43.1561V40.0123L68.4092 39.2716ZM58.6998 47.6472C55.2928 47.6472 52.5308 44.8852 52.5308 41.4781C52.5308 38.071 55.2928 35.309 58.6998 35.309C62.1069 35.309 64.869 38.071 64.869 41.4781C64.869 44.8852 62.1069 47.6472 58.6998 47.6472ZM40.453 41.3897L41.4407 43.9909C41.4703 44.0691 41.5395 44.1193 41.623 44.1233L44.4021 44.2588C44.5911 44.268 44.6685 44.5062 44.521 44.6247L42.3522 46.3678C42.3206 46.3926 42.2971 46.4262 42.2847 46.4644C42.2723 46.5025 42.2716 46.5436 42.2826 46.5822L43.0126 49.2672C43.0622 49.4497 42.8598 49.5969 42.7014 49.4933L40.3733 47.9694C40.34 47.947 40.3008 47.935 40.2607 47.935C40.2205 47.935 40.1813 47.947 40.148 47.9694L37.8201 49.4933C37.6618 49.5969 37.4593 49.4498 37.5088 49.2672L38.2388 46.5822C38.2498 46.5436 38.2491 46.5026 38.2367 46.4644C38.2243 46.4262 38.2008 46.3926 38.1692 46.3678L36.0005 44.6247C35.8529 44.5061 35.9303 44.268 36.1193 44.2588L38.8985 44.1233C38.9386 44.1219 38.9773 44.1085 39.0098 44.0849C39.0423 44.0613 39.067 44.0286 39.0808 43.9909L40.0684 41.3897C40.1351 41.2137 40.3863 41.2137 40.453 41.3897ZM40.453 28.9171L41.4406 31.5183C41.4703 31.5965 41.5394 31.6467 41.623 31.6508L44.402 31.7863C44.5911 31.7954 44.6684 32.0336 44.5209 32.1521L42.3521 33.8952C42.3206 33.92 42.2971 33.9536 42.2847 33.9918C42.2723 34.03 42.2715 34.071 42.2825 34.1096L43.0125 36.7946C43.0622 36.9772 42.8597 37.1243 42.7013 37.0207L40.3733 35.4968C40.34 35.4744 40.3008 35.4624 40.2607 35.4624C40.2205 35.4624 40.1813 35.4744 40.148 35.4968L37.8201 37.0207C37.6618 37.1244 37.4592 36.9772 37.5088 36.7946L38.2388 34.1096C38.2498 34.071 38.2491 34.03 38.2367 33.9918C38.2243 33.9536 38.2008 33.92 38.1692 33.8952L36.0005 32.1521C35.8529 32.0336 35.9304 31.7954 36.1193 31.7863L38.8985 31.6508C38.9386 31.6493 38.9773 31.636 39.0098 31.6124C39.0423 31.5888 39.067 31.556 39.0808 31.5183L40.0684 28.9171C40.1351 28.7412 40.3862 28.7412 40.453 28.9171ZM39.9804 68.1494L33.299 56.3438C32.976 55.7729 32.2446 55.5702 31.6738 55.8933L29.4012 57.1795C28.8303 57.5026 28.6276 58.2339 28.9507 58.8048L35.6322 70.6104C35.9553 71.1813 36.6866 71.384 37.2575 71.0609L39.5301 69.7747C40.1007 69.4516 40.3035 68.7202 39.9804 68.1494ZM32.0017 59.7191C31.896 59.735 31.7883 59.7299 31.6846 59.704C31.5809 59.6782 31.4834 59.6321 31.3976 59.5684C31.3118 59.5048 31.2394 59.4248 31.1845 59.3331C31.1297 59.2414 31.0935 59.1397 31.0781 59.034C31.0626 58.9283 31.0682 58.8206 31.0945 58.717C31.1208 58.6134 31.1673 58.5161 31.2313 58.4305C31.2953 58.345 31.3756 58.2729 31.4675 58.2185C31.5594 58.164 31.6612 58.1283 31.767 58.1133C31.9795 58.0831 32.1953 58.1384 32.3672 58.267C32.539 58.3955 32.6529 58.587 32.6839 58.7993C32.715 59.0117 32.6606 59.2277 32.5328 59.4001C32.4049 59.5725 32.2139 59.6872 32.0017 59.7191Z" fill="white"/>
<defs>
<linearGradient id="paint0_linear_3089_3987" x1="50" y1="5" x2="50" y2="95" gradientUnits="userSpaceOnUse">
<stop stop-color="#FF5E01"/>
<stop offset="1" stop-color="#FF9404"/>
</linearGradient>
</defs>
</svg>
