<svg width="100" height="100" viewBox="0 0 100 100" fill="none" xmlns="http://www.w3.org/2000/svg">
<circle cx="50" cy="50" r="45" fill="url(#paint0_linear_534_2252)"/>
<circle cx="50" cy="50" r="47.5" stroke="#FF9104" stroke-opacity="0.22" stroke-width="5"/>
<path d="M33.9 47.7004C36.4372 47.7004 38.5 45.6376 38.5 43.1004C38.5 40.5632 36.4372 38.5004 33.9 38.5004C31.3628 38.5004 29.3 40.5632 29.3 43.1004C29.3 45.6376 31.3628 47.7004 33.9 47.7004ZM66.1 47.7004C68.6372 47.7004 70.7 45.6376 70.7 43.1004C70.7 40.5632 68.6372 38.5004 66.1 38.5004C63.5628 38.5004 61.5 40.5632 61.5 43.1004C61.5 45.6376 63.5628 47.7004 66.1 47.7004ZM68.4 50.0004H63.8C62.535 50.0004 61.3922 50.5107 60.5584 51.3373C63.455 52.9257 65.5106 55.7935 65.9562 59.2004H70.7C71.9722 59.2004 73 58.1726 73 56.9004V54.6004C73 52.0632 70.9372 50.0004 68.4 50.0004ZM50 50.0004C54.4491 50.0004 58.05 46.3995 58.05 41.9504C58.05 37.5013 54.4491 33.9004 50 33.9004C45.5509 33.9004 41.95 37.5013 41.95 41.9504C41.95 46.3995 45.5509 50.0004 50 50.0004ZM55.52 52.3004H54.9234C53.4284 53.0191 51.7681 53.4504 50 53.4504C48.2319 53.4504 46.5788 53.0191 45.0766 52.3004H44.48C39.9087 52.3004 36.2 56.0091 36.2 60.5804V62.6504C36.2 64.5551 37.7453 66.1004 39.65 66.1004H60.35C62.2547 66.1004 63.8 64.5551 63.8 62.6504V60.5804C63.8 56.0091 60.0912 52.3004 55.52 52.3004ZM39.4416 51.3373C38.6078 50.5107 37.465 50.0004 36.2 50.0004H31.6C29.0628 50.0004 27 52.0632 27 54.6004V56.9004C27 58.1726 28.0278 59.2004 29.3 59.2004H34.0366C34.4894 55.7935 36.545 52.9257 39.4416 51.3373Z" fill="white"/>
<defs>
<linearGradient id="paint0_linear_534_2252" x1="50" y1="5" x2="50" y2="95" gradientUnits="userSpaceOnUse">
<stop stop-color="#FF5E01"/>
<stop offset="1" stop-color="#FF9404"/>
</linearGradient>
</defs>
</svg>
