<svg width="50" height="46" viewBox="0 0 50 46" fill="none" xmlns="http://www.w3.org/2000/svg">
<path d="M46.5674 7.35841H17.3281C17.1948 7.0178 17.0392 6.68635 16.8623 6.36622L17.332 5.44825C17.5732 4.9668 17.4775 4.39063 17.1006 4.02051L16.0137 2.93165C15.6348 2.55176 15.0576 2.46094 14.5771 2.70411L13.665 3.16895C13.1253 2.86924 12.5528 2.63266 11.959 2.46387L11.6436 1.49219C11.5641 1.24268 11.4072 1.02499 11.1956 0.87079C10.9839 0.716589 10.7286 0.633909 10.4668 0.634772H8.93066C8.39062 0.634772 7.91699 0.979499 7.75488 1.48829L7.43848 2.4629C6.8449 2.63291 6.27255 2.86978 5.73242 3.16895L4.82129 2.70606C4.34277 2.45899 3.76562 2.54981 3.38379 2.93067L2.2959 4.01954C1.91504 4.40137 1.82422 4.97852 2.06934 5.45313L2.53516 6.36817C2.23626 6.90752 1.99908 7.47883 1.82812 8.0713L0.849609 8.38965C0.34082 8.55958 -0.000976562 9.03126 -0.000976562 9.56348V11.1025C-0.000976562 11.6348 0.34082 12.1065 0.855469 12.2783L1.82812 12.5938C1.99896 13.1866 2.23614 13.7582 2.53516 14.2979L2.07129 15.209C1.95088 15.4413 1.90774 15.706 1.94814 15.9645C1.98853 16.2231 2.11036 16.462 2.2959 16.6465L3.38379 17.7344C3.76562 18.1152 4.34277 18.2061 4.81641 17.9619L5.73438 17.4961C6.26855 17.7949 6.8418 18.0322 7.43848 18.2041L7.75488 19.1777C7.79981 19.3174 7.86914 19.4434 7.95508 19.5547V36.2461C7.95508 38.1397 9.49512 39.6797 11.3887 39.6797H24.4375L22.9629 43.8018H20.1143C19.6826 43.8018 19.332 44.1514 19.332 44.584C19.332 45.0166 19.6816 45.3662 20.1143 45.3662H37.8428C38.2744 45.3662 38.625 45.0166 38.625 44.584C38.625 44.1514 38.2754 43.8018 37.8428 43.8018H34.9941L33.5195 39.6797H46.5684C48.4619 39.6797 50.002 38.1397 50.002 36.2461V10.7891C50.001 8.89747 48.4609 7.35841 46.5674 7.35841ZM48.4375 10.7891V31.3994H9.51855V20.0313H10.4668C11.0049 20.0313 11.4775 19.6885 11.6426 19.1777L11.959 18.2022C12.5586 18.0303 13.1318 17.793 13.6631 17.4951L14.5781 17.9609C14.8109 18.0798 15.0753 18.1218 15.3334 18.0809C15.5915 18.04 15.83 17.9183 16.0146 17.7334L17.0937 16.6514C17.4775 16.2754 17.5723 15.6992 17.3281 15.2109L16.8613 14.2988C17.1611 13.7578 17.3975 13.1856 17.5674 12.5938L18.5488 12.2754C19.0576 12.1055 19.3994 11.6338 19.3994 11.1016V9.56251C19.3994 9.33106 19.335 9.11036 19.2188 8.92188H46.5674C47.5986 8.92188 48.4375 9.75977 48.4375 10.7891ZM6.36426 16.0537C6.18603 15.9496 5.98441 15.892 5.77805 15.8864C5.57169 15.8807 5.36724 15.9272 5.18359 16.0215L4.32129 16.459L3.57129 15.709L4.00586 14.8545C4.20312 14.4756 4.19141 14.0313 3.97559 13.667C3.67187 13.1465 3.44238 12.5928 3.29492 12.0303C3.19043 11.6133 2.88379 11.2871 2.48145 11.1602L1.56348 10.8623V9.80079L2.48047 9.50294C2.8877 9.37012 3.19238 9.04493 3.29297 8.64258C3.44498 8.06726 3.67394 7.51508 3.97363 7.00098C4.19238 6.63282 4.2041 6.18751 4.00586 5.8086L3.57129 4.95411L4.32129 4.20411L5.18164 4.64063C5.55566 4.83204 5.99805 4.81934 6.36719 4.60548C6.87598 4.30762 7.42871 4.07911 8.00977 3.92579C8.01074 3.92579 8.01172 3.92481 8.0127 3.92481C8.42578 3.81348 8.73926 3.51856 8.87207 3.11133L9.16895 2.1963H10.2295L10.5273 3.11329C10.6592 3.51661 10.9697 3.81153 11.3877 3.92579C11.9654 4.07674 12.5197 4.30608 13.0352 4.60743C13.4014 4.82032 13.8438 4.83301 14.2168 4.64161L15.0771 4.20411L15.8271 4.95606L15.3887 5.81348C15.1953 6.19141 15.21 6.63575 15.4229 6.99708C15.6758 7.43067 15.877 7.8877 16.0225 8.35352C16.0264 8.36817 16.0312 8.38282 16.0361 8.39747C16.0605 8.47657 16.083 8.55567 16.1035 8.63477C16.2061 9.04395 16.5078 9.36817 16.917 9.50391L17.835 9.80176V10.8633L16.9228 11.1592C16.5195 11.2861 16.2139 11.6074 16.1025 12.0225C15.9515 12.5977 15.7236 13.1499 15.4248 13.6641C15.208 14.0303 15.1943 14.4736 15.3877 14.8535L15.8252 15.71L15.0752 16.4619L14.2148 16.0244C13.8389 15.833 13.3965 15.8447 13.0273 16.0586C12.5215 16.3574 11.9688 16.5869 11.3779 16.7422C10.9678 16.8545 10.6572 17.1494 10.5244 17.5537L10.2275 18.4688H9.16895L8.87109 17.5508C8.73828 17.1465 8.42578 16.8506 8.00879 16.7393C7.42578 16.584 6.87402 16.3545 6.36426 16.0537ZM33.332 43.8018H24.624L26.0986 39.6797H31.8564L33.332 43.8018ZM46.5674 38.1162H11.3887C10.3574 38.1162 9.51855 37.2774 9.51855 36.2461V32.9639H48.4375V36.2461C48.4375 37.2774 47.5986 38.1162 46.5674 38.1162ZM20.0693 15.2588C18.9346 15.2588 18.0107 16.1826 18.0107 17.3174C18.0107 18.4541 18.9336 19.3779 20.0693 19.3779C21.2051 19.3779 22.1279 18.4531 22.1279 17.3174C22.1279 17.2803 22.124 17.2441 22.1221 17.207L27.5996 14.5977C27.9648 14.9277 28.4473 15.1309 28.9775 15.1309C29.6445 15.1309 30.2363 14.8106 30.6123 14.3174L35.8467 15.708C35.9795 16.7158 36.8418 17.4971 37.8857 17.4971C39.0205 17.4971 39.9443 16.5732 39.9443 15.4385C39.9443 14.3037 39.0215 13.3799 37.8857 13.3799C37.2178 13.3799 36.625 13.7012 36.249 14.1953L31.0166 12.8057C30.8857 11.7959 30.0225 11.0137 28.9775 11.0137C27.8428 11.0137 26.9189 11.9375 26.9189 13.0723C26.9189 13.1104 26.9229 13.1484 26.9248 13.1856L21.4492 15.793C21.085 15.4629 20.6016 15.2588 20.0693 15.2588ZM20.0693 17.8135C19.7969 17.8135 19.5752 17.5908 19.5752 17.3164C19.5752 17.044 19.7969 16.8223 20.0693 16.8223C20.3418 16.8223 20.5635 17.044 20.5635 17.3164C20.5645 17.5908 20.3418 17.8135 20.0693 17.8135ZM37.8857 14.9463C38.1582 14.9463 38.3799 15.168 38.3799 15.4404C38.3799 15.7129 38.1582 15.9346 37.8857 15.9346C37.6133 15.9346 37.3916 15.7129 37.3916 15.4404C37.3916 15.168 37.6133 14.9463 37.8857 14.9463ZM28.9775 12.5791C29.25 12.5791 29.4717 12.8008 29.4717 13.0732C29.4717 13.3457 29.25 13.5674 28.9775 13.5674C28.7051 13.5674 28.4834 13.3457 28.4834 13.0732C28.4834 12.8008 28.7051 12.5791 28.9775 12.5791ZM36.4326 19.1035C35.873 19.1035 35.418 19.5586 35.418 20.1182V27.7402H31.4453V17.752C31.4453 17.1924 30.9902 16.7373 30.4307 16.7373H27.5244C26.9648 16.7373 26.5098 17.1924 26.5098 17.752V27.7412H22.5371V21.9961C22.5371 21.4365 22.082 20.9815 21.5225 20.9815H18.6162C18.0566 20.9815 17.6016 21.4365 17.6016 21.9961V27.7412H15.5098C15.0781 27.7412 14.7275 28.0908 14.7275 28.5234C14.7275 28.9561 15.0771 29.3057 15.5098 29.3057H42.4443C42.876 29.3057 43.2266 28.9561 43.2266 28.5234C43.2266 28.0908 42.877 27.7412 42.4443 27.7412H40.3525V20.1191C40.3525 19.5596 39.8975 19.1045 39.3379 19.1045H36.4326V19.1035ZM19.166 27.7402V22.544H20.9736V27.7402H19.166ZM28.0742 27.7402V18.3008H29.8818V27.7402H28.0742ZM36.9824 27.7402V20.668H38.79V27.7402H36.9824ZM14.0615 10.333C14.0615 7.92676 12.1035 5.96876 9.69727 5.96876C7.29199 5.96876 5.33594 7.92676 5.33594 10.333C5.33594 12.7393 7.29199 14.6973 9.69727 14.6973C12.1035 14.6963 14.0615 12.7393 14.0615 10.333ZM6.90039 10.333C6.90039 8.78907 8.15527 7.53321 9.69727 7.53321C11.2412 7.53321 12.4971 8.78907 12.4971 10.333C12.4971 11.877 11.2412 13.1328 9.69727 13.1328C8.15527 13.1328 6.90039 11.877 6.90039 10.333Z" fill="white"/>
</svg>
