<svg width="77" height="77" viewBox="0 0 77 77" fill="none" xmlns="http://www.w3.org/2000/svg">
<circle cx="38.5" cy="38.5" r="38" stroke="url(#paint0_linear_1001_3093)" stroke-dasharray="3 3"/>
<circle cx="38.5" cy="38.5" r="35" fill="url(#paint1_linear_1001_3093)"/>
<path d="M48.5632 25.743C45.7247 24.3307 42.2514 23.5 38.5 23.5C34.7486 23.5 31.2753 24.3307 28.4367 25.743C27.0448 26.4356 26.3488 26.7819 25.6744 27.8707C25 28.9595 25 30.0137 25 32.1222V37.3556C25 45.8807 31.8135 50.6206 35.7595 52.6507C36.8601 53.2169 37.4103 53.5 38.5 53.5C39.5897 53.5 40.1399 53.2169 41.2403 52.6507C45.1864 50.6206 52 45.8807 52 37.3556V32.1222C52 30.0137 52 28.9595 51.3256 27.8707C50.6512 26.7819 49.9552 26.4356 48.5632 25.743Z" stroke="white" stroke-width="2.25" stroke-linecap="round" stroke-linejoin="round"/>
<defs>
<linearGradient id="paint0_linear_1001_3093" x1="38.5" y1="0.5" x2="38.5" y2="76.5" gradientUnits="userSpaceOnUse">
<stop stop-color="#FF5E01"/>
<stop offset="1" stop-color="#FF9404"/>
</linearGradient>
<linearGradient id="paint1_linear_1001_3093" x1="38.5" y1="3.5" x2="38.5" y2="73.5" gradientUnits="userSpaceOnUse">
<stop stop-color="#FF5E01"/>
<stop offset="1" stop-color="#FF9404"/>
</linearGradient>
</defs>
</svg>
