<svg width="512" height="512" viewBox="0 0 512 512" fill="none" xmlns="http://www.w3.org/2000/svg">
<path fill-rule="evenodd" clip-rule="evenodd" d="M259.564 189.256C257.71 164.607 246.376 141.636 227.942 125.168C209.508 108.7 185.409 100.017 160.708 100.944C136.007 101.87 112.626 112.334 95.4774 130.136C78.3287 147.939 68.7469 171.695 68.745 196.413C68.745 249.475 102.645 246.304 107.238 324.513H139.788V227.313H125.588C119.615 227.313 113.776 225.542 108.81 222.223C103.843 218.905 99.9726 214.188 97.6868 208.67C95.4011 203.152 94.803 197.08 95.9683 191.221C97.1336 185.363 100.01 179.982 104.233 175.758C108.457 171.535 113.838 168.659 119.696 167.493C125.555 166.328 131.627 166.926 137.145 169.212C142.663 171.498 147.38 175.368 150.698 180.335C154.017 185.301 155.788 191.14 155.788 197.113V211.313H172.788V197.113C172.788 189.104 175.97 181.422 181.633 175.758C187.297 170.095 194.978 166.913 202.988 166.913C210.998 166.913 218.679 170.095 224.343 175.758C230.006 181.422 233.188 189.104 233.188 197.113C233.192 201.138 232.385 205.123 230.815 208.829C239.382 200.925 249.069 194.329 259.563 189.253L259.564 189.256ZM497.179 437.186L441.185 382.852C439.416 381.148 437.046 380.212 434.59 380.25C432.134 380.287 429.793 381.295 428.077 383.052L426.925 384.239L394.825 353.09C409.479 331.688 415.43 305.506 411.468 279.872C407.505 254.238 393.926 231.076 373.493 215.098C353.06 199.119 327.307 191.525 301.473 193.859C275.64 196.193 251.666 208.281 234.428 227.663C217.189 247.045 207.982 272.265 208.678 298.195C209.374 324.124 219.922 348.815 238.175 367.244C256.428 385.673 281.017 396.457 306.938 397.401C332.86 398.346 358.168 389.381 377.714 372.329L409.014 402.7L407.862 403.886C406.158 405.655 405.222 408.025 405.26 410.481C405.297 412.937 406.305 415.278 408.062 416.994L464.056 471.328C465.825 473.032 468.195 473.968 470.651 473.93C473.107 473.893 475.448 472.886 477.164 471.128L497.38 450.294C499.084 448.525 500.019 446.154 499.982 443.699C499.944 441.243 498.937 438.902 497.179 437.186ZM310.938 369.17C296.42 369.17 282.228 364.865 270.156 356.799C258.085 348.733 248.676 337.269 243.121 323.856C237.565 310.443 236.111 295.684 238.943 281.444C241.776 267.205 248.767 254.126 259.033 243.86C269.299 233.594 282.378 226.603 296.617 223.771C310.857 220.938 325.616 222.392 339.029 227.948C352.442 233.504 363.906 242.912 371.972 254.983C380.038 267.055 384.343 281.247 384.343 295.765C384.343 315.233 376.609 333.904 362.843 347.67C349.077 361.436 330.406 369.17 310.938 369.17ZM352.362 266.143C354.403 268.175 355.555 270.934 355.564 273.815C355.573 276.695 354.438 279.461 352.409 281.506C337.936 296.114 323.559 310.819 309.019 325.36C306.977 327.402 304.207 328.549 301.319 328.549C298.431 328.549 295.661 327.402 293.619 325.36L269.5 301.236C267.458 299.194 266.311 296.424 266.311 293.536C266.311 290.648 267.458 287.878 269.5 285.836C271.542 283.794 274.312 282.647 277.2 282.647C280.088 282.647 282.858 283.794 284.9 285.836L301.3 302.236L336.993 266.187C337.999 265.174 339.195 264.37 340.512 263.82C341.829 263.27 343.241 262.984 344.668 262.98C346.096 262.976 347.51 263.253 348.83 263.796C350.15 264.339 351.35 265.136 352.362 266.143ZM189.887 402.622H138.7C138.835 406.652 140.527 410.473 143.421 413.28C146.316 416.088 150.186 417.663 154.218 417.675H174.367C178.399 417.663 182.269 416.087 185.163 413.28C188.058 410.472 189.75 406.652 189.885 402.622H189.887ZM205.809 371.571H122.779C122.914 375.601 124.607 379.421 127.502 382.229C130.396 385.036 134.267 386.611 138.299 386.622H190.292C194.324 386.61 198.194 385.035 201.088 382.228C203.982 379.421 205.674 375.601 205.809 371.571ZM201.477 340.518H107.246C107.381 344.548 109.073 348.368 111.968 351.176C114.862 353.983 118.732 355.559 122.764 355.571H205.81C206.803 355.571 207.793 355.476 208.768 355.286C205.996 350.539 203.56 345.605 201.477 340.518ZM139.788 211.318H125.588C122.78 211.318 120.034 210.485 117.699 208.925C115.364 207.365 113.544 205.147 112.469 202.552C111.394 199.957 111.113 197.102 111.661 194.348C112.209 191.593 113.561 189.063 115.547 187.077C117.533 185.091 120.063 183.739 122.818 183.191C125.572 182.643 128.427 182.924 131.022 183.999C133.617 185.074 135.835 186.894 137.395 189.229C138.955 191.564 139.788 194.31 139.788 197.118V211.318ZM202.988 211.318H188.788V197.118C188.788 194.31 189.621 191.564 191.181 189.229C192.741 186.894 194.959 185.074 197.554 183.999C200.149 182.924 203.004 182.643 205.758 183.191C208.513 183.739 211.043 185.091 213.029 187.077C215.015 189.063 216.367 191.593 216.915 194.348C217.463 197.102 217.182 199.957 216.107 202.552C215.032 205.147 213.212 207.365 210.877 208.925C208.542 210.485 205.797 211.318 202.988 211.318ZM188.788 227.318H202.988C207.931 227.323 212.798 226.105 217.156 223.773C206.319 237.913 198.811 254.314 195.188 271.756C191.566 289.199 191.923 307.234 196.234 324.519H188.786V227.319L188.788 227.318ZM172.788 324.518H155.788V227.318H172.788V324.518ZM172.288 68.5751C172.288 70.6968 171.445 72.7316 169.945 74.2319C168.445 75.7322 166.41 76.5751 164.288 76.5751C162.166 76.5751 160.131 75.7322 158.631 74.2319C157.131 72.7316 156.288 70.6968 156.288 68.5751V46.0701C156.288 43.9483 157.131 41.9135 158.631 40.4132C160.131 38.9129 162.166 38.0701 164.288 38.0701C166.41 38.0701 168.445 38.9129 169.945 40.4132C171.445 41.9135 172.288 43.9483 172.288 46.0701V68.5751ZM293.1 147.541C291.269 148.583 289.101 148.859 287.068 148.31C285.034 147.76 283.301 146.428 282.245 144.605C281.189 142.783 280.897 140.616 281.432 138.579C281.967 136.542 283.285 134.798 285.1 133.729L304.59 122.476C306.422 121.415 308.6 121.125 310.645 121.671C312.691 122.216 314.436 123.551 315.496 125.383C316.557 127.214 316.847 129.392 316.302 131.438C315.757 133.483 314.422 135.228 312.59 136.289L293.1 147.541ZM243.253 91.8831C242.192 93.7148 240.447 95.0501 238.402 95.5951C236.356 96.1402 234.178 95.8504 232.346 94.7896C230.515 93.7287 229.18 91.9836 228.634 89.9383C228.089 87.8929 228.379 85.7148 229.44 83.8831L240.693 64.3931C241.762 62.5782 243.506 61.2597 245.543 60.7249C247.58 60.1902 249.747 60.4825 251.569 61.5383C253.392 62.594 254.724 64.3275 255.273 66.3609C255.823 68.3942 255.547 70.5625 254.505 72.3931L243.253 91.8831ZM43.444 133.728C45.2569 134.79 46.5768 136.526 47.1162 138.556C47.6556 140.587 47.3708 142.749 46.3239 144.57C45.277 146.392 43.5527 147.727 41.5265 148.283C39.5004 148.839 37.3365 148.573 35.506 147.541L16.016 136.288C14.1844 135.235 12.846 133.498 12.2952 131.459C12.0225 130.449 11.9513 129.395 12.0858 128.358C12.2203 127.321 12.5578 126.32 13.079 125.413C13.6002 124.506 14.295 123.711 15.1236 123.072C15.9522 122.434 16.8984 121.965 17.9082 121.692C19.9477 121.141 22.1224 121.423 23.954 122.476L43.444 133.728ZM99.133 83.8831C100.194 85.7148 100.484 87.8929 99.9386 89.9383C99.3935 91.9836 98.0582 93.7287 96.2265 94.7896C94.3948 95.8504 92.2167 96.1402 90.1713 95.5951C88.1259 95.0501 86.3809 93.7148 85.32 91.8831L74.068 72.3931C73.5334 71.4858 73.1837 70.4816 73.039 69.4386C72.8942 68.3955 72.9574 67.3341 73.2247 66.3155C73.4921 65.2969 73.9584 64.3413 74.5967 63.5038C75.2351 62.6662 76.0329 61.9633 76.9441 61.4355C77.8554 60.9077 78.8621 60.5654 79.9062 60.4285C80.9504 60.2915 82.0113 60.3625 83.0278 60.6375C84.0444 60.9124 84.9965 61.3858 85.8292 62.0303C86.662 62.6749 87.359 63.4779 87.88 64.3931L99.133 83.8831Z" fill="white"/>
</svg>
