<svg width="101" height="101" viewBox="0 0 101 101" fill="none" xmlns="http://www.w3.org/2000/svg">
<circle cx="50.5" cy="50.5" r="50" stroke="url(#paint0_linear_807_1776)" stroke-dasharray="3 3"/>
<circle cx="50.4999" cy="50.4999" r="46.0526" fill="url(#paint1_linear_807_1776)"/>
<path fill-rule="evenodd" clip-rule="evenodd" d="M50.8481 43.982C50.6671 41.5749 49.5602 39.3316 47.76 37.7234C45.9598 36.1152 43.6064 35.2673 41.1942 35.3578C38.7819 35.4483 36.4987 36.4701 34.824 38.2086C33.1493 39.9471 32.2136 42.267 32.2134 44.681C32.2134 49.8628 35.524 49.5531 35.9725 57.1907H39.1512V47.6985H37.7645C37.1812 47.6985 36.611 47.5256 36.126 47.2015C35.641 46.8774 35.263 46.4168 35.0398 45.8779C34.8165 45.339 34.7581 44.746 34.8719 44.174C34.9857 43.6019 35.2666 43.0764 35.6791 42.6639C36.0915 42.2514 36.617 41.9706 37.1891 41.8568C37.7612 41.743 38.3542 41.8014 38.8931 42.0246C39.432 42.2478 39.8926 42.6258 40.2167 43.1108C40.5407 43.5958 40.7137 44.166 40.7137 44.7493V46.136H42.3739V44.7493C42.3739 43.9671 42.6846 43.217 43.2377 42.6639C43.7907 42.1108 44.5409 41.8001 45.3231 41.8001C46.1053 41.8001 46.8554 42.1108 47.4085 42.6639C47.9616 43.217 48.2723 43.9671 48.2723 44.7493C48.2727 45.1424 48.1939 45.5315 48.0406 45.8935C48.8772 45.1216 49.8232 44.4774 50.848 43.9817L50.8481 43.982ZM74.0527 68.1939L68.5845 62.8879C68.4118 62.7215 68.1803 62.6301 67.9404 62.6338C67.7006 62.6374 67.472 62.7358 67.3044 62.9074L67.1919 63.0233L64.0572 59.9814C65.4883 57.8914 66.0694 55.3346 65.6824 52.8313C65.2954 50.3279 63.9693 48.066 61.9739 46.5056C59.9785 44.9452 57.4636 44.2036 54.9408 44.4315C52.418 44.6595 50.0768 45.8399 48.3933 47.7327C46.7099 49.6254 45.8108 52.0884 45.8787 54.6206C45.9467 57.1528 46.9767 59.5639 48.7593 61.3637C50.5419 63.1634 52.9431 64.2165 55.4745 64.3087C58.0059 64.401 60.4773 63.5255 62.3862 61.8603L65.4428 64.8262L65.3303 64.942C65.1639 65.1147 65.0725 65.3462 65.0762 65.5861C65.0798 65.8259 65.1782 66.0545 65.3498 66.2221L70.818 71.5281C70.9907 71.6946 71.2222 71.7859 71.4621 71.7823C71.7019 71.7786 71.9305 71.6802 72.0981 71.5086L74.0723 69.474C74.2387 69.3013 74.3301 69.0698 74.3264 68.8299C74.3227 68.5901 74.2243 68.3615 74.0527 68.1939ZM55.8651 61.5518C54.4473 61.5518 53.0613 61.1313 51.8825 60.3437C50.7036 59.556 49.7848 58.4364 49.2423 57.1265C48.6997 55.8167 48.5578 54.3753 48.8343 52.9848C49.1109 51.5943 49.7937 50.317 50.7962 49.3144C51.7987 48.3119 53.076 47.6292 54.4666 47.3526C55.8571 47.076 57.2985 47.2179 58.6083 47.7605C59.9182 48.3031 61.0377 49.2219 61.8254 50.4007C62.6131 51.5796 63.0335 52.9655 63.0335 54.3833C63.0335 56.2845 62.2783 58.1078 60.9339 59.4522C59.5896 60.7965 57.7663 61.5518 55.8651 61.5518ZM59.9104 51.4905C60.1097 51.689 60.2222 51.9584 60.223 52.2397C60.2239 52.521 60.1131 52.7912 59.915 52.9908C58.5016 54.4174 57.0976 55.8534 55.6777 57.2734C55.4782 57.4728 55.2077 57.5848 54.9257 57.5848C54.6437 57.5848 54.3732 57.4728 54.1738 57.2734L51.8184 54.9176C51.619 54.7181 51.5069 54.4477 51.5069 54.1656C51.5069 53.8836 51.619 53.6131 51.8184 53.4137C52.0178 53.2142 52.2883 53.1022 52.5703 53.1022C52.8524 53.1022 53.1229 53.2142 53.3223 53.4137L54.9239 55.0152L58.4095 51.4948C58.5077 51.3959 58.6245 51.3174 58.7531 51.2636C58.8817 51.2099 59.0197 51.182 59.159 51.1816C59.2984 51.1812 59.4365 51.2083 59.5654 51.2613C59.6944 51.3143 59.8116 51.3922 59.9104 51.4905ZM44.0437 64.8186H39.0449C39.0581 65.2121 39.2234 65.5852 39.506 65.8594C39.7887 66.1335 40.1666 66.2874 40.5604 66.2886H42.5281C42.9218 66.2874 43.2998 66.1335 43.5824 65.8594C43.865 65.5852 44.0303 65.2121 44.0435 64.8186H44.0437ZM45.5986 61.7862H37.4902C37.5034 62.1798 37.6687 62.5529 37.9514 62.827C38.234 63.1011 38.612 63.2549 39.0058 63.2561H44.0832C44.477 63.2549 44.8549 63.1011 45.1375 62.827C45.4201 62.5528 45.5854 62.1797 45.5986 61.7862ZM45.1755 58.7537H35.9733C35.9864 59.1473 36.1517 59.5203 36.4344 59.7945C36.717 60.0687 37.0949 60.2225 37.4887 60.2237H45.5987C45.6956 60.2238 45.7924 60.2144 45.8875 60.1959C45.6169 59.7324 45.3789 59.2505 45.1755 58.7537ZM39.1512 46.1365H37.7645C37.4902 46.1365 37.2221 46.0552 36.9941 45.9028C36.766 45.7504 36.5883 45.5339 36.4833 45.2805C36.3784 45.0271 36.3509 44.7483 36.4044 44.4793C36.4579 44.2103 36.59 43.9632 36.7839 43.7692C36.9779 43.5753 37.2249 43.4432 37.4939 43.3897C37.7629 43.3362 38.0418 43.3637 38.2952 43.4686C38.5485 43.5736 38.7651 43.7513 38.9175 43.9794C39.0699 44.2074 39.1512 44.4755 39.1512 44.7498V46.1365ZM45.3231 46.1365H43.9364V44.7498C43.9364 44.4755 44.0177 44.2074 44.1701 43.9794C44.3224 43.7513 44.539 43.5736 44.7924 43.4686C45.0458 43.3637 45.3246 43.3362 45.5936 43.3897C45.8626 43.4432 46.1097 43.5753 46.3036 43.7692C46.4976 43.9632 46.6296 44.2103 46.6831 44.4793C46.7367 44.7483 46.7092 45.0271 46.6042 45.2805C46.4993 45.5339 46.3215 45.7504 46.0935 45.9028C45.8654 46.0552 45.5973 46.1365 45.3231 46.1365ZM43.9364 47.699H45.3231C45.8058 47.6995 46.2811 47.5805 46.7067 47.3528C45.6484 48.7337 44.9151 50.3353 44.5614 52.0387C44.2076 53.7421 44.2425 55.5033 44.6635 57.1913H43.9362V47.6991L43.9364 47.699ZM42.3739 57.1912H40.7137V47.699H42.3739V57.1912ZM42.325 32.1968C42.325 32.404 42.2427 32.6027 42.0962 32.7492C41.9497 32.8957 41.751 32.978 41.5438 32.978C41.3366 32.978 41.1379 32.8957 40.9914 32.7492C40.8448 32.6027 40.7625 32.404 40.7625 32.1968V29.999C40.7625 29.7918 40.8448 29.5931 40.9914 29.4466C41.1379 29.3001 41.3366 29.2178 41.5438 29.2178C41.751 29.2178 41.9497 29.3001 42.0962 29.4466C42.2427 29.5931 42.325 29.7918 42.325 29.999V32.1968ZM54.1231 39.9083C53.9443 40.0101 53.7326 40.037 53.534 39.9833C53.3354 39.9296 53.1661 39.7996 53.063 39.6216C52.9599 39.4436 52.9314 39.2321 52.9836 39.0331C53.0358 38.8341 53.1646 38.6639 53.3418 38.5595L55.2451 37.4605C55.424 37.3569 55.6367 37.3286 55.8365 37.3819C56.0362 37.4351 56.2066 37.5655 56.3102 37.7444C56.4138 37.9233 56.4421 38.136 56.3889 38.3357C56.3357 38.5355 56.2053 38.7059 56.0264 38.8095L54.1231 39.9083ZM49.2552 34.4729C49.1516 34.6518 48.9812 34.7822 48.7814 34.8355C48.5817 34.8887 48.369 34.8604 48.1901 34.7568C48.0112 34.6532 47.8808 34.4828 47.8276 34.283C47.7744 34.0833 47.8027 33.8706 47.9063 33.6917L49.0052 31.7884C49.1096 31.6111 49.2799 31.4824 49.4788 31.4302C49.6778 31.3779 49.8893 31.4065 50.0673 31.5096C50.2453 31.6127 50.3754 31.782 50.4291 31.9805C50.4828 32.1791 50.4558 32.3909 50.354 32.5696L49.2552 34.4729ZM29.7426 38.5594C29.9196 38.6631 30.0485 38.8326 30.1012 39.0309C30.1539 39.2292 30.1261 39.4403 30.0238 39.6182C29.9216 39.7961 29.7532 39.9264 29.5554 39.9808C29.3575 40.0351 29.1462 40.009 28.9674 39.9083L27.0641 38.8094C26.8852 38.7066 26.7545 38.5369 26.7007 38.3378C26.6741 38.2392 26.6672 38.1363 26.6803 38.035C26.6934 37.9337 26.7264 37.8359 26.7773 37.7474C26.8282 37.6588 26.896 37.5811 26.9769 37.5188C27.0579 37.4564 27.1503 37.4106 27.2489 37.384C27.448 37.3302 27.6604 37.3577 27.8393 37.4605L29.7426 38.5594ZM35.181 33.6917C35.2846 33.8706 35.3129 34.0833 35.2597 34.283C35.2064 34.4828 35.076 34.6532 34.8971 34.7568C34.7183 34.8604 34.5056 34.8887 34.3058 34.8355C34.1061 34.7822 33.9357 34.6518 33.8321 34.4729L32.7332 32.5696C32.681 32.481 32.6469 32.383 32.6327 32.2811C32.6186 32.1792 32.6248 32.0756 32.6509 31.9761C32.677 31.8766 32.7225 31.7833 32.7849 31.7015C32.8472 31.6197 32.9251 31.5511 33.0141 31.4996C33.1031 31.448 33.2014 31.4146 33.3034 31.4012C33.4053 31.3878 33.5089 31.3948 33.6082 31.4216C33.7075 31.4485 33.8005 31.4947 33.8818 31.5576C33.9631 31.6206 34.0312 31.699 34.0821 31.7884L35.181 33.6917Z" fill="white"/>
<defs>
<linearGradient id="paint0_linear_807_1776" x1="50.5" y1="0.5" x2="50.5" y2="100.5" gradientUnits="userSpaceOnUse">
<stop stop-color="#FF5E01"/>
<stop offset="1" stop-color="#FF9404"/>
</linearGradient>
<linearGradient id="paint1_linear_807_1776" x1="50.4999" y1="4.44727" x2="50.4999" y2="96.5525" gradientUnits="userSpaceOnUse">
<stop stop-color="#FF5E01"/>
<stop offset="1" stop-color="#FF9404"/>
</linearGradient>
</defs>
</svg>
