<svg width="512" height="512" viewBox="0 0 512 512" fill="none" xmlns="http://www.w3.org/2000/svg">
<path d="M273.989 202.741C270.569 211.352 266.278 216.92 261.567 219.012C263.684 193.774 271.274 184.785 274.482 183.438C274.783 183.312 274.981 183.264 275.122 183.264C275.313 183.264 275.401 183.351 275.502 183.45C277.213 185.128 278.316 191.85 273.989 202.742V202.741ZM187.899 229.14C198.96 244.57 209.444 259.21 210.881 280.462H251.01V233.144C251.01 231.729 251.024 230.343 251.052 228.984C237.833 224.916 226.771 208.376 223.43 186.916C223.329 186.267 223.357 185.605 223.512 184.967C223.667 184.329 223.946 183.728 224.333 183.198C225.115 182.127 226.291 181.411 227.601 181.207C228.911 181.003 230.249 181.328 231.319 182.11C232.39 182.892 233.106 184.068 233.31 185.378C236.037 202.893 244.026 214.426 251.59 218.401C253.87 191.048 262.478 177.631 270.608 174.217C274.886 172.42 279.334 173.201 282.502 176.309C288.16 181.857 288.458 193.4 283.281 206.432C276.682 223.047 267.884 228.326 261.041 229.601C261.02 230.782 261.009 231.962 261.009 233.143V280.461H301.138C302.575 259.21 313.06 244.57 324.12 229.139C337.296 210.757 350.92 191.75 350.92 158.441C350.92 100.381 301.72 73.937 256.008 73.937C210.296 73.937 161.096 100.381 161.096 158.441C161.096 191.75 174.721 210.757 187.896 229.139L187.899 229.14ZM234.29 322.152C234.29 326.815 238.084 330.609 242.748 330.609H269.276C273.939 330.609 277.733 326.815 277.733 322.152V317.376H234.291V322.152H234.29ZM211.055 294.793C211.055 301.731 216.7 307.376 223.638 307.376H288.383C295.321 307.376 300.966 301.731 300.966 294.793V290.462H211.054L211.055 294.793ZM188.627 487.606C201.273 489.734 213.217 491.745 224.69 493.021C249.114 495.736 259.223 496.86 291.247 483.121L447.935 415.091C460.069 409.405 472.374 402.626 478.115 398.499C480.522 392.148 479.844 386.377 476.191 382.527C468.139 374.041 447.962 374.712 422.217 384.323C389.88 396.396 347.159 409.348 324.869 413.841C323.604 416.053 322.015 418.114 320.106 420.016C300.499 439.543 250.583 436.521 223.765 434.897C219.974 434.668 216.7 434.469 214.074 434.368C212.749 434.317 211.499 433.742 210.598 432.769C209.697 431.796 209.219 430.505 209.27 429.18C209.376 426.421 211.707 424.284 214.458 424.376C217.194 424.481 220.519 424.683 224.369 424.916C247.822 426.338 296.622 429.291 313.049 412.931C317.079 408.917 318.868 403.961 318.519 397.781C317.873 386.361 308.031 380.317 289.266 379.817C253.661 378.869 221.872 375.66 182.123 370.791C165.483 368.75 150.508 372.626 133.167 377.112C117.222 381.237 99.209 385.881 76.503 386.753V483.643C114.509 475.134 153.813 481.745 188.627 487.606ZM35.979 496H63.008C63.9349 495.999 64.8235 495.63 65.4789 494.975C66.1343 494.319 66.503 493.431 66.504 492.504V381.651C66.503 380.724 66.1343 379.836 65.4789 379.18C64.8235 378.525 63.9349 378.156 63.008 378.155H35.979C35.0522 378.156 34.1636 378.525 33.5082 379.18C32.8528 379.836 32.4841 380.724 32.483 381.651V492.504C32.4841 493.431 32.8528 494.319 33.5082 494.975C34.1636 495.63 35.0522 495.999 35.979 496ZM128.5 150.61L99.75 147.7C99.0971 147.633 98.4372 147.695 97.8084 147.883C97.1795 148.072 96.5941 148.383 96.0858 148.798C95.5775 149.213 95.1563 149.725 94.8464 150.304C94.5365 150.882 94.344 151.517 94.28 152.17C94.2132 152.823 94.2759 153.484 94.4645 154.113C94.653 154.742 94.9638 155.328 95.3789 155.837C95.7941 156.346 96.3055 156.768 96.884 157.079C97.4624 157.39 98.0965 157.584 98.75 157.65L127.49 160.56C127.66 160.58 127.83 160.59 128 160.59C130.53 160.59 132.71 158.67 132.97 156.09C133.25 153.34 131.24 150.89 128.5 150.61ZM173.44 69.75L154.07 48.31C152.22 46.26 149.06 46.11 147.01 47.96C144.96 49.81 144.8 52.97 146.65 55.02L166.02 76.45C166.49 76.9698 167.064 77.3853 167.705 77.6695C168.346 77.9537 169.039 78.1003 169.74 78.1C170.93 78.1 172.13 77.67 173.09 76.81C175.14 74.96 175.29 71.8 173.44 69.75ZM256.01 6C253.25 6 251.01 8.24 251.01 11V39.89C251.01 42.65 253.25 44.89 256.01 44.89C258.77 44.89 261.01 42.65 261.01 39.89V11C261.01 8.24 258.77 6 256.01 6ZM365.01 47.96C362.96 46.11 359.8 46.26 357.95 48.31L338.58 69.75C336.73 71.8 336.88 74.96 338.93 76.81C339.89 77.67 341.09 78.1 342.28 78.1C343.65 78.1 345.01 77.54 346 76.45L365.37 55.02C365.81 54.5328 366.15 53.9638 366.37 53.3453C366.59 52.7268 366.686 52.071 366.652 51.4154C366.619 50.7598 366.457 50.1172 366.175 49.5243C365.893 48.9314 365.497 48.3999 365.01 47.96ZM412.27 147.7L383.52 150.61C382.201 150.745 380.989 151.398 380.151 152.425C379.313 153.453 378.917 154.771 379.05 156.09C379.31 158.67 381.49 160.59 384.02 160.59C384.19 160.59 384.36 160.58 384.53 160.56L413.27 157.65C414.59 157.516 415.803 156.863 416.643 155.836C417.483 154.809 417.881 153.49 417.75 152.17C417.615 150.851 416.962 149.639 415.935 148.801C414.907 147.963 413.589 147.567 412.27 147.7Z" fill="white"/>
</svg>
