<svg width="74" height="74" viewBox="0 0 74 74" fill="none" xmlns="http://www.w3.org/2000/svg">
<rect x="5" y="5" width="64" height="64" rx="12" fill="url(#paint0_linear_1041_35)"/>
<rect x="2.5" y="2.5" width="69" height="69" rx="14.5" stroke="#FF9104" stroke-opacity="0.22" stroke-width="5"/>
<path d="M50.3337 36.9982V34.7597C50.3337 33.3971 50.3337 32.7159 50.08 32.1033C49.8262 31.4907 49.3445 31.009 48.381 30.0456L40.4868 22.1514C39.6553 21.3199 39.2397 20.9041 38.7245 20.6578C38.6173 20.6066 38.5077 20.5611 38.3957 20.5216C37.8572 20.3315 37.2693 20.3315 36.0933 20.3315C30.685 20.3315 27.9808 20.3315 26.1492 21.8083C25.7792 22.1067 25.4421 22.4437 25.1438 22.8138C23.667 24.6454 23.667 27.3496 23.667 32.758V40.3315C23.667 46.617 23.667 49.7597 25.6196 51.7122C27.5722 53.6648 30.7149 53.6648 37.0003 53.6648M38.667 21.1649V21.9982C38.667 26.7123 38.667 29.0693 40.1315 30.5337C41.596 31.9982 43.953 31.9982 48.667 31.9982H49.5003" stroke="white" stroke-width="2.5" stroke-linecap="round" stroke-linejoin="round"/>
<path d="M50.3337 46.369V43.0838C50.3337 42.5672 49.9542 42.1383 49.462 42.0503C47.4785 41.6957 45.832 40.9068 45.0287 40.4693C44.6998 40.2902 44.3008 40.2902 43.972 40.4693C43.1687 40.9068 41.5222 41.6957 39.5387 42.0503C39.0465 42.1383 38.667 42.5672 38.667 43.0838V46.369C38.667 50.6547 42.9043 52.9922 44.1562 53.5893C44.377 53.6947 44.6237 53.6947 44.8445 53.5893C46.0963 52.9922 50.3337 50.6547 50.3337 46.369Z" stroke="white" stroke-width="2.5" stroke-linecap="round" stroke-linejoin="round"/>
<defs>
<linearGradient id="paint0_linear_1041_35" x1="37" y1="5" x2="37" y2="69" gradientUnits="userSpaceOnUse">
<stop stop-color="#FF5E01"/>
<stop offset="1" stop-color="#FF9404"/>
</linearGradient>
</defs>
</svg>
