<svg width="74" height="74" viewBox="0 0 74 74" fill="none" xmlns="http://www.w3.org/2000/svg">
<circle cx="37" cy="37" r="32" fill="url(#paint0_linear_791_386)"/>
<circle cx="37" cy="37" r="34.5" stroke="#FF9104" stroke-opacity="0.22" stroke-width="5"/>
<g clip-path="url(#clip0_791_386)">
<path d="M49.092 24.907C47.0166 22.833 43.6775 22.833 36.9993 22.833C30.3211 22.833 26.9849 22.833 24.9081 24.907C23.8342 25.9808 23.3172 27.3918 23.0664 29.429C23.8225 28.5871 24.7273 27.8917 25.7354 27.3777C26.8432 26.8138 28.029 26.5843 29.3408 26.4781C30.6087 26.3747 32.1699 26.3747 34.0767 26.3747H39.9219C41.8301 26.3747 43.3899 26.3747 44.6578 26.4781C45.9711 26.5858 47.1568 26.8138 48.2632 27.3777C49.2714 27.8916 50.1762 28.587 50.9322 29.429C50.6829 27.3918 50.1658 25.9808 49.092 24.907Z" fill="white"/>
<path fill-rule="evenodd" clip-rule="evenodd" d="M22.834 39.8334C22.834 35.8666 22.834 33.8834 23.6061 32.3675C24.2852 31.0347 25.3687 29.9512 26.7015 29.2721C28.2173 28.5 30.2007 28.5 34.1673 28.5H39.834C43.8007 28.5 45.784 28.5 47.2998 29.2721C48.6326 29.9512 49.7161 31.0347 50.3953 32.3675C51.1673 33.8834 51.1673 35.8666 51.1673 39.8334C51.1673 43.8 51.1673 45.7834 50.3953 47.2991C49.7161 48.6319 48.6326 49.7155 47.2998 50.3946C45.784 51.1666 43.8007 51.1666 39.834 51.1666H34.1673C30.2007 51.1666 28.2173 51.1666 26.7015 50.3946C25.3687 49.7155 24.2852 48.6319 23.6061 47.2991C22.834 45.7834 22.834 43.8 22.834 39.8334ZM37.7515 44.8341C37.5523 45.0332 37.2822 45.1449 37.0007 45.1449C36.7191 45.1449 36.449 45.0332 36.2498 44.8341L32.7082 41.2925C32.6038 41.1952 32.52 41.0779 32.462 40.9476C32.4039 40.8172 32.3727 40.6766 32.3701 40.5339C32.3676 40.3912 32.3939 40.2495 32.4473 40.1172C32.5008 39.985 32.5803 39.8648 32.6812 39.7639C32.7821 39.663 32.9023 39.5834 33.0345 39.53C33.1668 39.4766 33.3085 39.4503 33.4512 39.4528C33.5939 39.4554 33.7346 39.4866 33.8649 39.5446C33.9952 39.6027 34.1126 39.6865 34.2098 39.7909L35.9382 41.5191V35.5834C35.9382 35.3015 36.0501 35.0313 36.2493 34.832C36.4486 34.6327 36.7189 34.5209 37.0007 34.5209C37.2824 34.5209 37.5527 34.6327 37.752 34.832C37.9512 35.0313 38.0632 35.3015 38.0632 35.5834V41.5191L39.7915 39.7909C39.8887 39.6865 40.0061 39.6027 40.1364 39.5446C40.2667 39.4866 40.4074 39.4554 40.5501 39.4528C40.6927 39.4503 40.8344 39.4766 40.9668 39.53C41.0991 39.5834 41.2192 39.663 41.3201 39.7639C41.421 39.8648 41.5005 39.985 41.554 40.1172C41.6075 40.2495 41.6337 40.3912 41.6312 40.5339C41.6286 40.6766 41.5974 40.8172 41.5393 40.9476C41.4813 41.0779 41.3975 41.1952 41.2932 41.2925L37.7515 44.8341Z" fill="white"/>
</g>
<defs>
<linearGradient id="paint0_linear_791_386" x1="37" y1="5" x2="37" y2="69" gradientUnits="userSpaceOnUse">
<stop stop-color="#FF5E01"/>
<stop offset="1" stop-color="#FF9404"/>
</linearGradient>
<clipPath id="clip0_791_386">
<rect width="34" height="34" fill="white" transform="translate(20 20)"/>
</clipPath>
</defs>
</svg>
