<svg width="512" height="512" viewBox="0 0 512 512" fill="none" xmlns="http://www.w3.org/2000/svg">
<path d="M438.08 73.8987C406.827 42.6667 356.544 42.6667 255.979 42.6667C155.413 42.6667 105.173 42.6667 73.8986 73.8987C57.7279 90.0694 49.9413 111.317 46.1653 141.995C57.5507 129.316 71.1757 118.844 86.3573 111.104C103.04 102.613 120.896 99.1574 140.651 97.5574C159.744 96.0001 183.253 96.0001 211.968 96.0001H299.989C328.725 96.0001 352.213 96.0001 371.307 97.5574C391.083 99.1787 408.939 102.613 425.6 111.104C440.782 118.843 454.407 129.315 465.792 141.995C462.037 111.317 454.251 90.0694 438.08 73.8987Z" fill="white"/>
<path fill-rule="evenodd" clip-rule="evenodd" d="M42.6666 298.667C42.6666 238.933 42.6666 209.067 54.2933 186.24C64.5196 166.17 80.8369 149.853 100.907 139.627C123.733 128 153.6 128 213.333 128H298.667C358.4 128 388.267 128 411.093 139.627C431.163 149.853 447.48 166.17 457.707 186.24C469.333 209.067 469.333 238.933 469.333 298.667C469.333 358.4 469.333 388.267 457.707 411.093C447.48 431.163 431.163 447.48 411.093 457.707C388.267 469.333 358.4 469.333 298.667 469.333H213.333C153.6 469.333 123.733 469.333 100.907 457.707C80.8369 447.48 64.5196 431.163 54.2933 411.093C42.6666 388.267 42.6666 358.4 42.6666 298.667ZM267.307 373.973C264.307 376.97 260.24 378.653 256 378.653C251.76 378.653 247.693 376.97 244.693 373.973L191.36 320.64C189.788 319.175 188.527 317.409 187.653 315.446C186.778 313.483 186.308 311.365 186.27 309.216C186.232 307.068 186.627 304.934 187.432 302.942C188.237 300.95 189.434 299.14 190.954 297.621C192.473 296.101 194.283 294.903 196.275 294.099C198.267 293.294 200.401 292.899 202.55 292.937C204.698 292.975 206.817 293.445 208.779 294.319C210.742 295.194 212.509 296.455 213.973 298.027L240 324.053V234.667C240 230.423 241.686 226.354 244.686 223.353C247.687 220.352 251.757 218.667 256 218.667C260.243 218.667 264.313 220.352 267.314 223.353C270.314 226.354 272 230.423 272 234.667V324.053L298.027 298.027C299.491 296.455 301.258 295.194 303.22 294.319C305.183 293.445 307.302 292.975 309.45 292.937C311.598 292.899 313.732 293.294 315.725 294.099C317.717 294.903 319.527 296.101 321.046 297.621C322.565 299.14 323.763 300.95 324.568 302.942C325.373 304.934 325.768 307.068 325.73 309.216C325.692 311.365 325.222 313.483 324.347 315.446C323.473 317.409 322.212 319.175 320.64 320.64L267.307 373.973Z" fill="white"/>
</svg>
