<svg width="48" height="48" viewBox="0 0 48 48" fill="none" xmlns="http://www.w3.org/2000/svg">
<path d="M3.99609 15.9986C3.99609 18.6825 20.1886 26 23.9714 26C27.7544 26 43.9468 18.6825 43.9468 15.9986C43.9468 13.3146 27.7544 5.99707 23.9714 5.99707C20.1886 5.99707 3.99609 13.3146 3.99609 15.9986Z" stroke="#ff6900" stroke-width="2.5" stroke-linecap="round" stroke-linejoin="round"/>
<path d="M11.9844 22L14.487 33.6004C14.6584 34.395 15.0541 35.1374 15.7139 35.6108C20.1574 38.7996 27.7816 38.7996 32.2252 35.6108C32.8852 35.1374 33.2808 34.395 33.4522 33.6004L35.9548 22" stroke="#ff6900" stroke-width="2.5" stroke-linecap="round" stroke-linejoin="round"/>
<path d="M40.9548 18.999V33.0012M40.9548 33.0012C39.3728 35.8942 38.6732 37.4442 37.9626 40.0022C37.8084 40.9124 37.9308 41.371 38.5572 41.7782C38.8118 41.9436 39.1176 42.0024 39.4208 42.0024H42.458C42.7808 42.0024 43.1066 41.935 43.3726 41.7514C43.9548 41.3494 44.1046 40.9082 43.9468 40.0022C43.324 37.627 42.5306 36.0032 40.9548 33.0012Z" stroke="#ff6900" stroke-width="2.5" stroke-linecap="round" stroke-linejoin="round"/>
</svg>
