<svg width="75" height="75" viewBox="0 0 75 75" fill="none" xmlns="http://www.w3.org/2000/svg">
<path d="M14.0625 0.585938H60.9375C68.3804 0.585938 74.4141 6.6196 74.4141 14.0625V60.9375C74.4141 68.3804 68.3804 74.4141 60.9375 74.4141H14.0625C6.6196 74.4141 0.585938 68.3804 0.585938 60.9375V14.0625C0.585938 6.6196 6.6196 0.585938 14.0625 0.585938Z" fill="#25427B" stroke="#5C719B" stroke-width="1.17188"/>
<path d="M47.0833 54.4338H21.3094C19.0764 54.4338 17.4862 52.2585 18.1701 50.1326L20.8809 41.6622C21.7544 38.9431 24.7289 37.5341 27.3821 38.564C29.1454 39.2479 31.4113 39.7835 34.1881 39.7835C36.9649 39.7835 39.2309 39.2479 40.9942 38.564C42.8893 37.8307 44.9492 38.3333 46.2923 39.6764L46.383 40.5992C46.4489 41.2502 46.7785 41.8022 47.2564 42.173C46.4901 42.8981 46.0122 43.9199 46.0122 45.0569C46.0122 47.2075 47.726 48.9626 49.8601 49.0367L50.2144 50.1326C50.8983 52.2585 49.3163 54.4338 47.0833 54.4338Z" fill="white"/>
<path d="M34.1983 36.6193C38.8901 36.6193 42.6935 32.8158 42.6935 28.1241C42.6935 23.4323 38.8901 19.6289 34.1983 19.6289C29.5065 19.6289 25.7031 23.4323 25.7031 28.1241C25.7031 32.8158 29.5065 36.6193 34.1983 36.6193Z" fill="white"/>
<path d="M48.4286 29.9287H52.0788C54.7238 29.9287 56.0504 31.0493 56.0504 33.2823V35.9849C56.0504 38.2014 54.765 39.3138 52.1859 39.3385L52.0788 40.4509C52.0458 40.7557 51.7904 40.9864 51.4855 40.9864H48.6263C48.3215 40.9864 48.0578 40.7557 48.0331 40.4509L47.7447 37.5093C47.7117 37.155 47.9836 36.8501 48.338 36.8501H50.6533C51.1065 36.8501 51.329 36.6523 51.329 36.2568V33.6366C51.329 33.2411 51.1065 33.0433 50.6533 33.0433H49.8705C49.4174 33.0433 49.1949 33.2411 49.1949 33.6366V34.8726C49.1949 35.2021 48.9312 35.4741 48.5934 35.4741H45.0585C44.7289 35.4741 44.457 35.2104 44.457 34.8726V33.2823C44.457 31.0411 45.7836 29.9287 48.4286 29.9287Z" fill="white"/>
<path d="M49.992 47.3886C51.2798 47.3886 52.3239 46.3445 52.3239 45.0567C52.3239 43.7689 51.2798 42.7249 49.992 42.7249C48.7042 42.7249 47.6602 43.7689 47.6602 45.0567C47.6602 46.3445 48.7042 47.3886 49.992 47.3886Z" fill="white"/>
</svg>
