<svg width="55" height="55" viewBox="0 0 55 55" fill="none" xmlns="http://www.w3.org/2000/svg">
<rect width="54.9791" height="54.9791" rx="27.4896" fill="url(#paint0_linear_3964_517)"/>
<path d="M22.8548 23.9346L19.8324 27.1877C19.4294 27.6025 18.7102 28.6853 18.6234 29.677C18.5321 30.7199 19.4718 32.216 19.8324 32.7888C20.7723 34.2815 21.1508 35.1099 22.2503 36.5228C22.8475 37.29 24.4605 38.8194 27.0862 39.0122C29.0464 39.1559 30.9975 39.1425 31.9221 39.0122C32.557 38.9225 34.0982 38.6387 35.549 37.145C36.9999 35.6515 37.3625 33.2037 37.3625 32.1664V22.209C37.3625 21.5867 36.9999 20.342 35.549 20.342C34.0982 20.342 33.7356 21.5867 33.7356 22.209V26.5654M22.8548 29.677V19.7196C22.8548 19.0973 23.2175 17.8526 24.6683 17.8526C26.119 17.8526 26.4817 19.0973 26.4817 19.7196M26.4817 19.7196V25.3207M26.4817 19.7196V17.2303C26.4817 16.608 26.8444 15.3633 28.2952 15.3633C29.746 15.3633 30.1086 16.608 30.1086 17.2303V19.7196M30.1086 19.7196V25.3207M30.1086 19.7196C30.1086 19.0973 30.4714 17.8526 31.9221 17.8526C33.3729 17.8526 33.7356 19.0973 33.7356 19.7196V22.8313" stroke="white" stroke-width="1.8" stroke-linecap="round" stroke-linejoin="round"/>
<defs>
<linearGradient id="paint0_linear_3964_517" x1="27.4896" y1="0" x2="27.4896" y2="54.9791" gradientUnits="userSpaceOnUse">
<stop stop-color="#FF5E01"/>
<stop offset="1" stop-color="#FF9404"/>
</linearGradient>
</defs>
</svg>
