<svg width="48" height="48" viewBox="0 0 48 48" fill="none" xmlns="http://www.w3.org/2000/svg">
<path d="M20 20C20 22.2092 21.7908 24 24 24C26.2092 24 28 22.2092 28 20C28 17.7909 26.2092 16 24 16C21.7908 16 20 17.7909 20 20Z" stroke="#ff6900" stroke-width="2.5"/>
<path d="M36.4908 30C38.6866 27.2608 40 23.7838 40 20C40 11.1634 32.8366 4 24 4C15.1634 4 8 11.1634 8 20C8 23.7838 9.31344 27.2608 11.5093 30" stroke="#ff6900" stroke-width="2.5"/>
<path d="M6 37C6 34.191 6 32.7866 6.6067 31.7778C6.86936 31.341 7.20686 30.966 7.59994 30.6742C8.50796 30 9.77196 30 12.3 30H35.7C38.228 30 39.492 30 40.4 30.6742C40.7932 30.966 41.1306 31.341 41.3932 31.7778C42 32.7866 42 34.191 42 37C42 39.809 42 41.2134 41.3932 42.2222C41.1306 42.659 40.7932 43.034 40.4 43.3258C39.492 44 38.228 44 35.7 44H12.3C9.77196 44 8.50796 44 7.59994 43.3258C7.20686 43.034 6.86936 42.659 6.6067 42.2222C6 41.2134 6 39.809 6 37Z" stroke="#ff6900" stroke-width="2.5"/>
<path d="M22 36H26" stroke="#ff6900" stroke-width="2.5"/>
<path d="M31.7808 13.2211L35.8036 9.19824" stroke="#ff6900" stroke-width="2.5"/>
</svg>
