<svg width="48" height="48" viewBox="0 0 48 48" fill="none" xmlns="http://www.w3.org/2000/svg">
<path d="M44 24C44 12.9543 35.0456 4 24 4C12.9543 4 4 12.9543 4 24C4 35.0456 12.9543 44 24 44C35.0456 44 44 35.0456 44 24Z" stroke="#ff6900" stroke-width="2.5" stroke-linejoin="round"/>
<path d="M24 34C24 34 14 27.647 14 21.5C14 18.4624 16.1053 16 19 16C20.5 16 22 16.5294 24 18.6471C26 16.5294 27.5 16 29 16C31.8948 16 34 18.4624 34 21.5C34 27.647 24 34 24 34Z" stroke="#ff6900" stroke-width="2.5" stroke-linejoin="round"/>
</svg>
