<svg width="51" height="51" viewBox="0 0 51 51" fill="none" xmlns="http://www.w3.org/2000/svg">
<path d="M8.48256 15.6997V39.9488C8.48256 40.0149 8.5088 40.0782 8.5555 40.1249C8.6022 40.1716 8.66554 40.1978 8.73158 40.1978H12.3006C12.439 40.1978 12.5496 40.0863 12.5496 39.9488V39.1161C12.5496 38.9169 12.7717 38.7983 12.9371 38.9089L16.8806 41.5376C17.028 41.6362 17.028 41.8533 16.8806 41.952L12.9371 44.5807C12.7717 44.6912 12.5496 44.5727 12.5496 44.3735V43.5407C12.5496 43.4747 12.5234 43.4113 12.4767 43.3646C12.43 43.3179 12.3666 43.2917 12.3006 43.2917H6.88184C6.05667 43.2917 5.3877 42.6227 5.3877 41.7976V15.6997H8.48256ZM44.838 22.4553C44.838 22.3893 44.8642 22.3259 44.9109 22.2792C44.9576 22.2325 45.021 22.2063 45.087 22.2063H45.9197C46.119 22.2063 46.2375 21.9842 46.1269 21.8188L43.4982 17.8753C43.3996 17.7279 43.1825 17.7279 43.0839 17.8753L40.4552 21.8188C40.3446 21.9842 40.4631 22.2063 40.6624 22.2063H41.4951C41.5611 22.2063 41.6245 22.2325 41.6712 22.2792C41.7179 22.3259 41.7441 22.3893 41.7441 22.4553V39.9487C41.7441 40.0148 41.7179 40.0781 41.6712 40.1248C41.6245 40.1715 41.5611 40.1977 41.4951 40.1977H30.8543L30.853 43.2916H43.3438C44.169 43.2916 44.838 42.6226 44.838 41.7975V22.4553Z" fill="#0055A3"/>
<path d="M49.7546 14.6706C49.8866 14.6706 50.0133 14.6181 50.1067 14.5247C50.2001 14.4313 50.2526 14.3046 50.2526 14.1725V5.47123C50.2526 5.38796 50.211 5.31027 50.1417 5.26405L43.429 0.788897C43.3881 0.761624 43.34 0.74707 43.2909 0.74707C43.2417 0.74707 43.1936 0.761624 43.1527 0.788897L36.44 5.26405C36.4059 5.2868 36.3779 5.31761 36.3586 5.35375C36.3392 5.38989 36.3291 5.43024 36.3291 5.47123V14.1725C36.3291 14.3046 36.3816 14.4313 36.475 14.5247C36.5684 14.6181 36.6951 14.6706 36.8271 14.6706H49.7546Z" fill="#FD6930"/>
<path d="M39.4238 10.0293V16.2175C39.4238 17.072 41.1554 17.7646 43.2915 17.7646C45.4275 17.7646 47.1591 17.0719 47.1591 16.2175V10.0293H39.4238Z" fill="#82AEE3"/>
<path d="M43.2915 11.5765C45.4275 11.5765 47.1591 10.8839 47.1591 10.0295C47.1591 9.17505 45.4275 8.48242 43.2915 8.48242C41.1554 8.48242 39.4238 9.17505 39.4238 10.0295C39.4238 10.8839 41.1554 11.5765 43.2915 11.5765Z" fill="#B2CAEC"/>
<path d="M33.7336 40.2971L32.5681 39.7144C32.4489 39.6547 32.3604 39.5491 32.3175 39.4229C32.2177 39.1295 32.0989 38.8429 31.9618 38.5649C31.9028 38.4451 31.8907 38.3079 31.9328 38.1813L32.345 36.9448C32.3742 36.8571 32.3785 36.7629 32.3572 36.6729C32.336 36.5829 32.2901 36.5005 32.2247 36.4351L30.8087 35.0192C30.7433 34.9538 30.661 34.9079 30.571 34.8866C30.4809 34.8653 30.3868 34.8696 30.299 34.8988L29.0626 35.311C28.936 35.3533 28.7986 35.3411 28.679 35.282C28.401 35.145 28.1143 35.0262 27.8209 34.9262C27.6947 34.8833 27.5891 34.7948 27.5295 34.6756L26.9468 33.5102C26.9054 33.4275 26.8418 33.3579 26.7631 33.3093C26.6845 33.2606 26.5938 33.2349 26.5013 33.2349H24.4989C24.4064 33.2349 24.3157 33.2606 24.237 33.3093C24.1584 33.3579 24.0948 33.4275 24.0534 33.5102L23.4707 34.6756C23.411 34.7948 23.3054 34.8833 23.1792 34.9262C22.8858 35.0261 22.5992 35.1449 22.3212 35.282C22.2015 35.341 22.0642 35.3532 21.9376 35.311L20.7012 34.8988C20.6134 34.8696 20.5192 34.8654 20.4292 34.8866C20.3392 34.9079 20.2569 34.9538 20.1915 35.0192L18.7755 36.4351C18.7101 36.5005 18.6642 36.5828 18.6429 36.6729C18.6217 36.7629 18.6259 36.8571 18.6552 36.9448L19.0674 38.1813C19.1096 38.3079 19.0975 38.4452 19.0384 38.5649C18.9014 38.8429 18.7825 39.1295 18.6826 39.4229C18.6396 39.5491 18.5512 39.6547 18.432 39.7144L17.2665 40.2971C17.1838 40.3384 17.1142 40.402 17.0656 40.4807C17.017 40.5594 16.9912 40.65 16.9912 40.7425V42.745C16.9912 42.8375 17.017 42.9281 17.0656 43.0068C17.1142 43.0855 17.1838 43.1491 17.2665 43.1904L18.432 43.7731C18.5512 43.8328 18.6396 43.9384 18.6826 44.0646C18.7824 44.358 18.9013 44.6447 19.0384 44.9226C19.0974 45.0424 19.1095 45.1796 19.0674 45.3062L18.6552 46.5427C18.6259 46.6304 18.6217 46.7246 18.6429 46.8146C18.6642 46.9046 18.7101 46.987 18.7755 47.0524L20.1915 48.4683C20.2569 48.5337 20.3392 48.5796 20.4292 48.6009C20.5192 48.6221 20.6134 48.6179 20.7012 48.5887L21.9376 48.1765C22.0642 48.1342 22.2016 48.1464 22.3212 48.2055C22.5992 48.3425 22.8858 48.4613 23.1792 48.5612C23.3054 48.6041 23.411 48.6925 23.4707 48.8118L24.0534 49.9772C24.0948 50.0599 24.1584 50.1295 24.237 50.1781C24.3157 50.2268 24.4064 50.2525 24.4989 50.2525H26.5013C26.5938 50.2525 26.6845 50.2268 26.7631 50.1781C26.8418 50.1295 26.9054 50.0599 26.9468 49.9772L27.5295 48.8118C27.5891 48.6925 27.6947 48.6041 27.8209 48.5612C28.1144 48.4613 28.401 48.3425 28.679 48.2055C28.7987 48.1465 28.936 48.1343 29.0626 48.1765L30.299 48.5887C30.3868 48.6179 30.4809 48.6221 30.571 48.6009C30.661 48.5796 30.7433 48.5337 30.8087 48.4683L32.2247 47.0524C32.2901 46.987 32.336 46.9046 32.3572 46.8146C32.3785 46.7246 32.3743 46.6304 32.345 46.5427L31.9328 45.3062C31.8906 45.1796 31.9027 45.0424 31.9618 44.9226C32.0988 44.6446 32.2176 44.358 32.3175 44.0646C32.3604 43.9384 32.4489 43.8328 32.5681 43.7731L33.7336 43.1904C33.8163 43.1491 33.8859 43.0855 33.9345 43.0068C33.9831 42.9281 34.0089 42.8375 34.0089 42.745V40.7425C34.0089 40.65 33.9831 40.5594 33.9345 40.4807C33.8859 40.402 33.8163 40.3384 33.7336 40.2971ZM25.5 44.0644C24.2185 44.0644 23.1794 43.0255 23.1794 41.7438C23.1794 40.4622 24.2184 39.4232 25.5 39.4232C26.7816 39.4232 27.8206 40.4621 27.8206 41.7438C27.8206 43.0255 26.7816 44.0644 25.5 44.0644Z" fill="#80D261"/>
<path d="M33.7339 40.2973L32.5685 39.7146C32.4493 39.655 32.3608 39.5494 32.3179 39.4232C32.2181 39.1297 32.0992 38.8431 31.9622 38.5651C31.9032 38.4454 31.8911 38.3081 31.9332 38.1815L32.3454 36.9451C32.3746 36.8573 32.3789 36.7632 32.3576 36.6731C32.3364 36.5831 32.2905 36.5008 32.2251 36.4354L30.8091 35.0194C30.7437 34.954 30.6614 34.9081 30.5714 34.8869C30.4813 34.8656 30.3872 34.8698 30.2994 34.8991L29.063 35.3113C28.9364 35.3535 28.799 35.3414 28.6794 35.2823C28.4911 35.1895 28.2988 35.105 28.103 35.0291C29.5881 36.4811 30.5099 38.507 30.5099 40.748C30.5099 44.8677 27.3948 48.2599 23.3916 48.6978C23.4231 48.7317 23.45 48.7699 23.4711 48.8121L24.0538 49.9776C24.0952 50.0603 24.1587 50.1299 24.2374 50.1785C24.3161 50.2271 24.4068 50.2529 24.4993 50.2529H26.5017C26.5942 50.2529 26.6849 50.2271 26.7635 50.1785C26.8422 50.1299 26.9058 50.0603 26.9472 49.9776L27.5299 48.8121C27.5895 48.6929 27.6951 48.6045 27.8213 48.5615C28.1148 48.4617 28.4014 48.3429 28.6794 48.2058C28.7991 48.1468 28.9364 48.1347 29.063 48.1768L30.2994 48.589C30.3872 48.6183 30.4813 48.6225 30.5714 48.6012C30.6614 48.58 30.7437 48.5341 30.8091 48.4687L32.2251 47.0527C32.2905 46.9873 32.3364 46.905 32.3576 46.815C32.3789 46.725 32.3746 46.6308 32.3454 46.543L31.9332 45.3066C31.891 45.18 31.9031 45.0427 31.9622 44.923C32.0992 44.645 32.218 44.3584 32.3179 44.065C32.3608 43.9387 32.4493 43.8332 32.5685 43.7735L33.7339 43.1908C33.8167 43.1494 33.8862 43.0858 33.9349 43.0072C33.9835 42.9285 34.0093 42.8378 34.0093 42.7453V40.7429C34.0093 40.6504 33.9835 40.5597 33.9349 40.481C33.8863 40.4023 33.8167 40.3387 33.7339 40.2973Z" fill="#68CA44"/>
<path d="M13.1235 15.4444C13.1235 16.7261 10.353 17.765 6.9353 17.765C3.51761 17.765 0.74707 16.7261 0.74707 15.4444V6.16211C0.74707 7.44378 13.1235 7.44378 13.1235 6.16211V15.4444Z" fill="#82AEE3"/>
<path d="M6.9353 8.48251C10.353 8.48251 13.1235 7.44354 13.1235 6.16191C13.1235 4.88028 10.353 3.84131 6.9353 3.84131C3.51764 3.84131 0.74707 4.88028 0.74707 6.16191C0.74707 7.44354 3.51764 8.48251 6.9353 8.48251Z" fill="#B2CAEC"/>
<path d="M33.8395 30.1411H17.1611C15.7858 30.1411 14.6709 29.0262 14.6709 27.6509V20.2549C14.6709 18.8796 15.7858 17.7646 17.1611 17.7646H33.8395C35.2148 17.7646 36.3298 18.8796 36.3298 20.2549V27.6509C36.3298 29.0262 35.2148 30.1411 33.8395 30.1411Z" fill="#01C0FA"/>
<path d="M33.8389 17.7646H31.6475C33.0228 17.7646 34.1377 18.8796 34.1377 20.2549V27.6509C34.1377 29.0262 33.0228 30.1411 31.6475 30.1411H33.8389C35.2142 30.1411 36.3291 29.0262 36.3291 27.6509V20.2549C36.3291 18.8796 35.2142 17.7646 33.8389 17.7646Z" fill="#08A9F1"/>
<path d="M8.48256 17.6919V39.9488C8.48256 40.0149 8.5088 40.0782 8.5555 40.1249C8.6022 40.1716 8.66554 40.1978 8.73158 40.1978H12.3006C12.439 40.1978 12.5496 40.0863 12.5496 39.9488V39.1161C12.5496 38.9169 12.7717 38.7983 12.9371 38.9089L16.8806 41.5376C17.028 41.6362 17.028 41.8533 16.8806 41.952L12.9371 44.5807C12.7717 44.6912 12.5496 44.5727 12.5496 44.3735V43.5407C12.5496 43.4747 12.5234 43.4113 12.4767 43.3646C12.43 43.3179 12.3666 43.2917 12.3006 43.2917H6.88184C6.05667 43.2917 5.3877 42.6227 5.3877 41.7976V17.6919M19.3116 23.9532H17.7646M17.7646 23.9532V20.8591H20.8586M17.7646 23.9532V27.0473H20.8586M23.9528 20.8591H27.0469M25.4998 20.8591V27.0473M30.141 20.8591V27.0473H33.2351" stroke="white" stroke-width="1.49414" stroke-miterlimit="10" stroke-linecap="round" stroke-linejoin="round"/>
<path d="M18.81 30.1412H17.1611C15.7858 30.1412 14.6709 29.0263 14.6709 27.651V20.255C14.6709 18.8797 15.7858 17.7647 17.1611 17.7647H33.8395C35.2148 17.7647 36.3298 18.8797 36.3298 20.255V27.651C36.3298 29.0263 35.2148 30.1412 33.8395 30.1412H22.2963M47.1592 14.6706H49.7552C49.8873 14.6706 50.014 14.6181 50.1074 14.5247C50.2008 14.4313 50.2533 14.3046 50.2533 14.1725V5.47123C50.2533 5.38796 50.2116 5.31027 50.1424 5.26405L43.4296 0.788897C43.3887 0.761624 43.3407 0.74707 43.2915 0.74707C43.2424 0.74707 43.1943 0.761624 43.1534 0.788897L36.4406 5.26405C36.4065 5.2868 36.3786 5.31761 36.3592 5.35375C36.3399 5.38989 36.3298 5.43024 36.3298 5.47123V14.1725C36.3298 14.3046 36.3822 14.4313 36.4756 14.5247C36.569 14.6181 36.6957 14.6706 36.8278 14.6706H39.4238M33.7338 40.2974L32.5684 39.7146C32.4492 39.655 32.3607 39.5494 32.3178 39.4232C32.218 39.1298 32.0991 38.8431 31.9621 38.5652C31.9031 38.4454 31.891 38.3082 31.9331 38.1816L32.3453 36.9451C32.3745 36.8574 32.3788 36.7632 32.3575 36.6732C32.3363 36.5831 32.2904 36.5008 32.225 36.4354L30.809 35.0195C30.7436 34.954 30.6613 34.9081 30.5713 34.8869C30.4812 34.8656 30.3871 34.8699 30.2993 34.8991L29.0629 35.3113C28.9363 35.3535 28.7989 35.3414 28.6793 35.2823C28.4012 35.1453 28.1146 35.0265 27.8212 34.9265C27.695 34.8836 27.5894 34.7951 27.5298 34.6759L26.9471 33.5105C26.9057 33.4278 26.8421 33.3582 26.7634 33.3095C26.6848 33.2609 26.5941 33.2352 26.5016 33.2352H24.4992C24.4067 33.2352 24.316 33.2609 24.2373 33.3095C24.1586 33.3582 24.0951 33.4278 24.0537 33.5105L23.471 34.6759C23.4113 34.7951 23.3057 34.8836 23.1795 34.9265C22.8861 35.0263 22.5995 35.1452 22.3215 35.2823C22.2018 35.3413 22.0645 35.3534 21.9379 35.3113L20.7014 34.8991C20.6137 34.8699 20.5195 34.8657 20.4295 34.8869C20.3395 34.9082 20.2572 34.9541 20.1917 35.0195L18.7758 36.4354C18.7104 36.5008 18.6645 36.5831 18.6432 36.6732C18.622 36.7632 18.6262 36.8574 18.6555 36.9451L19.0677 38.1816C19.1099 38.3082 19.0977 38.4455 19.0387 38.5652C18.9017 38.8432 18.7828 39.1298 18.6829 39.4232C18.6399 39.5494 18.5515 39.655 18.4322 39.7146L17.2668 40.2974C17.1841 40.3387 17.1145 40.4023 17.0659 40.481C17.0173 40.5597 16.9915 40.6503 16.9915 40.7428V42.7453C16.9915 42.8378 17.0173 42.9284 17.0659 43.0071C17.1145 43.0858 17.1841 43.1494 17.2668 43.1907L18.4322 43.7734C18.5515 43.8331 18.6399 43.9387 18.6829 44.0649C18.7827 44.3583 18.9015 44.645 19.0387 44.9229C19.0976 45.0427 19.1098 45.1799 19.0677 45.3065L18.6555 46.543C18.6262 46.6307 18.622 46.7249 18.6432 46.8149C18.6645 46.9049 18.7104 46.9873 18.7758 47.0527L20.1917 48.4686C20.2572 48.534 20.3395 48.5799 20.4295 48.6012C20.5195 48.6224 20.6137 48.6182 20.7014 48.5889L21.9379 48.1768C22.0645 48.1345 22.2019 48.1467 22.3215 48.2057C22.5995 48.3428 22.8861 48.4616 23.1795 48.5615C23.3057 48.6044 23.4113 48.6928 23.471 48.8121L24.0537 49.9775C24.0951 50.0602 24.1586 50.1298 24.2373 50.1784C24.316 50.2271 24.4067 50.2528 24.4992 50.2528H26.5016C26.5941 50.2528 26.6848 50.2271 26.7634 50.1784C26.8421 50.1298 26.9057 50.0602 26.9471 49.9775L27.5298 48.8121C27.5894 48.6928 27.695 48.6044 27.8212 48.5615C28.1147 48.4616 28.4013 48.3428 28.6793 48.2057C28.799 48.1468 28.9363 48.1346 29.0629 48.1768L30.2993 48.5889C30.3871 48.6182 30.4812 48.6224 30.5712 48.6012C30.6613 48.5799 30.7436 48.534 30.809 48.4686L32.225 47.0527C32.2904 46.9873 32.3363 46.9049 32.3575 46.8149C32.3788 46.7249 32.3745 46.6307 32.3453 46.543L31.9331 45.3065C31.8909 45.1799 31.903 45.0427 31.9621 44.9229C32.0991 44.6449 32.2179 44.3583 32.3178 44.0649C32.3607 43.9387 32.4492 43.8331 32.5684 43.7734L33.7338 43.1907C33.8166 43.1494 33.8861 43.0858 33.9348 43.0071C33.9834 42.9284 34.0092 42.8378 34.0092 42.7453V40.7428C34.0092 40.6503 33.9834 40.5597 33.9348 40.481C33.8861 40.4023 33.8166 40.3387 33.7338 40.2974ZM25.5003 44.0647C24.2188 44.0647 23.1797 43.0258 23.1797 41.7441C23.1797 40.4625 24.2187 39.4235 25.5003 39.4235C26.7819 39.4235 27.8209 40.4624 27.8209 41.7441C27.8209 43.0258 26.7819 44.0647 25.5003 44.0647Z" stroke="white" stroke-width="1.49414" stroke-miterlimit="10" stroke-linecap="round" stroke-linejoin="round"/>
<path d="M47.1591 13.1235C47.1591 13.978 45.4275 14.6706 43.2915 14.6706C41.1554 14.6706 39.4238 13.9779 39.4238 13.1235" stroke="white" stroke-width="1.49414" stroke-miterlimit="10" stroke-linecap="round" stroke-linejoin="round"/>
<path d="M39.4238 10.0293V16.2175C39.4238 17.072 41.1554 17.7646 43.2915 17.7646C45.4275 17.7646 47.1591 17.0719 47.1591 16.2175V10.0293" stroke="white" stroke-width="1.49414" stroke-miterlimit="10" stroke-linecap="round" stroke-linejoin="round"/>
<path d="M43.2915 11.5765C45.4275 11.5765 47.1591 10.8839 47.1591 10.0295C47.1591 9.17505 45.4275 8.48242 43.2915 8.48242C41.1554 8.48242 39.4238 9.17505 39.4238 10.0295C39.4238 10.8839 41.1554 11.5765 43.2915 11.5765Z" stroke="white" stroke-width="1.49414" stroke-miterlimit="10" stroke-linecap="round" stroke-linejoin="round"/>
<path d="M41.8453 5.38818H44.737M11.0947 10.9741C12.341 10.5495 13.1235 9.93694 13.1235 9.25582M0.74707 9.25582C0.74707 10.5375 3.51761 11.5764 6.9353 11.5764C7.16391 11.5764 7.38952 11.5717 7.61165 11.5627" stroke="white" stroke-width="1.49414" stroke-miterlimit="10" stroke-linecap="round" stroke-linejoin="round"/>
<path d="M13.1235 6.16162V15.4439C13.1235 16.7256 10.353 17.7645 6.9353 17.7645C3.51761 17.7645 0.74707 16.7256 0.74707 15.444V6.16162" stroke="white" stroke-width="1.49414" stroke-miterlimit="10" stroke-linecap="round" stroke-linejoin="round"/>
<path d="M6.9353 8.48251C10.353 8.48251 13.1235 7.44354 13.1235 6.16191C13.1235 4.88028 10.353 3.84131 6.9353 3.84131C3.51764 3.84131 0.74707 4.88028 0.74707 6.16191C0.74707 7.44354 3.51764 8.48251 6.9353 8.48251Z" stroke="white" stroke-width="1.49414" stroke-miterlimit="10" stroke-linecap="round" stroke-linejoin="round"/>
<path d="M0.74707 12.3501C0.74707 13.6318 3.51761 14.6707 6.9353 14.6707C10.353 14.6707 13.1235 13.6318 13.1235 12.3501M44.8382 27.9904V41.7973C44.8382 42.6225 44.1692 43.2915 43.344 43.2915H33.5324" stroke="white" stroke-width="1.49414" stroke-miterlimit="10" stroke-linecap="round" stroke-linejoin="round"/>
<path d="M33.5342 40.1977H41.4958C41.5618 40.1977 41.6251 40.1714 41.6718 40.1247C41.7185 40.078 41.7448 40.0147 41.7448 39.9487V22.4553C41.7448 22.3892 41.7185 22.3259 41.6718 22.2792C41.6251 22.2325 41.5618 22.2062 41.4958 22.2062H40.663C40.4638 22.2062 40.3453 21.9841 40.4558 21.8187L43.0845 17.8752C43.1831 17.7278 43.4003 17.7278 43.4989 17.8752L46.1276 21.8187C46.2382 21.9841 46.1196 22.2062 45.9204 22.2062H45.0877C45.0216 22.2062 44.9583 22.2325 44.9116 22.2792C44.8649 22.3259 44.8386 22.3892 44.8386 22.4553V24.5041" stroke="white" stroke-width="1.49414" stroke-miterlimit="10" stroke-linecap="round" stroke-linejoin="round"/>
</svg>
