<svg width="512" height="512" viewBox="0 0 512 512" fill="none" xmlns="http://www.w3.org/2000/svg">
<path d="M440.889 14.2222H71.1111C63.2889 14.2222 56.8889 20.6222 56.8889 28.4444V483.556C56.8889 491.378 63.2889 497.778 71.1111 497.778H312.889V369.778C312.889 361.956 319.289 355.556 327.111 355.556H455.111V28.4444C455.111 20.6222 448.711 14.2222 440.889 14.2222ZM369.778 298.667H142.222C134.4 298.667 128 292.267 128 284.444C128 276.622 134.4 270.222 142.222 270.222H369.778C377.6 270.222 384 276.622 384 284.444C384 292.267 377.6 298.667 369.778 298.667ZM369.778 213.333H142.222C134.4 213.333 128 206.933 128 199.111C128 191.289 134.4 184.889 142.222 184.889H369.778C377.6 184.889 384 191.289 384 199.111C384 206.933 377.6 213.333 369.778 213.333ZM369.778 128H142.222C134.4 128 128 121.6 128 113.778C128 105.956 134.4 99.5555 142.222 99.5555H369.778C377.6 99.5555 384 105.956 384 113.778C384 121.6 377.6 128 369.778 128ZM425.529 384H454.258C447.716 443.164 400.498 490.382 341.333 496.924V384H425.529Z" fill="white"/>
</svg>
