<svg width="101" height="101" viewBox="0 0 101 101" fill="none" xmlns="http://www.w3.org/2000/svg">
<circle cx="50.5" cy="50.5" r="50" stroke="url(#paint0_linear_807_1754)" stroke-dasharray="3 3"/>
<circle cx="50.4999" cy="50.4999" r="46.0526" fill="url(#paint1_linear_807_1754)"/>
<path d="M64.9453 31.6111H36.0564C35.4453 31.6111 34.9453 32.1111 34.9453 32.7222V68.2778C34.9453 68.8889 35.4453 69.3889 36.0564 69.3889H54.9453V59.3889C54.9453 58.7778 55.4453 58.2778 56.0564 58.2778H66.0564V32.7222C66.0564 32.1111 65.5564 31.6111 64.9453 31.6111ZM59.3898 53.8333H41.612C41.0009 53.8333 40.5009 53.3333 40.5009 52.7222C40.5009 52.1111 41.0009 51.6111 41.612 51.6111H59.3898C60.0009 51.6111 60.5009 52.1111 60.5009 52.7222C60.5009 53.3333 60.0009 53.8333 59.3898 53.8333ZM59.3898 47.1666H41.612C41.0009 47.1666 40.5009 46.6666 40.5009 46.0555C40.5009 45.4444 41.0009 44.9444 41.612 44.9444H59.3898C60.0009 44.9444 60.5009 45.4444 60.5009 46.0555C60.5009 46.6666 60.0009 47.1666 59.3898 47.1666ZM59.3898 40.5H41.612C41.0009 40.5 40.5009 40 40.5009 39.3889C40.5009 38.7778 41.0009 38.2778 41.612 38.2778H59.3898C60.0009 38.2778 60.5009 38.7778 60.5009 39.3889C60.5009 40 60.0009 40.5 59.3898 40.5ZM63.7453 60.5H65.9898C65.4786 65.1222 61.7898 68.8111 57.1675 69.3222V60.5H63.7453Z" fill="white"/>
<defs>
<linearGradient id="paint0_linear_807_1754" x1="50.5" y1="0.5" x2="50.5" y2="100.5" gradientUnits="userSpaceOnUse">
<stop stop-color="#FF5E01"/>
<stop offset="1" stop-color="#FF9404"/>
</linearGradient>
<linearGradient id="paint1_linear_807_1754" x1="50.4999" y1="4.44727" x2="50.4999" y2="96.5525" gradientUnits="userSpaceOnUse">
<stop stop-color="#FF5E01"/>
<stop offset="1" stop-color="#FF9404"/>
</linearGradient>
</defs>
</svg>
