<svg width="100" height="100" viewBox="0 0 100 100" fill="none" xmlns="http://www.w3.org/2000/svg">
<circle cx="50" cy="50" r="45" fill="url(#paint0_linear_534_2233)"/>
<circle cx="50" cy="50" r="47.5" stroke="#FF9104" stroke-opacity="0.22" stroke-width="5"/>
<g clip-path="url(#clip0_534_2233)">
<path d="M64.9478 45.4309C64.2617 45.4308 63.5789 45.726 63.2376 46.3211L63.2175 46.3563C63.0019 46.7372 62.5419 46.8953 62.1322 46.7444C61.2841 46.4281 60.5078 45.9753 59.825 45.4075C59.4944 45.1344 59.4081 44.6528 59.6238 44.2791L59.6424 44.2466C59.9844 43.6502 59.8964 42.9158 59.5516 42.3211C59.2079 41.7284 58.6129 41.2819 57.9278 41.2819H57.8844C57.4531 41.2819 57.0794 40.9728 57.0075 40.5416C56.8638 39.6791 56.8566 38.7734 57.0075 37.875C57.0794 37.4438 57.4531 37.1275 57.8844 37.1275H57.9278C58.6129 37.1275 59.2079 36.681 59.5516 36.0883C59.8964 35.4936 59.9844 34.7592 59.6424 34.1628L59.6238 34.1303C59.4081 33.7566 59.4872 33.275 59.825 33.0019C60.5078 32.4341 61.2913 31.9813 62.1322 31.665C62.5419 31.5141 63.0019 31.6722 63.2175 32.0531L63.2371 32.0874C63.5787 32.683 64.2594 32.9785 64.9461 32.9785C65.6328 32.9785 66.3135 32.683 66.6551 32.0874L66.6747 32.0531C66.8903 31.6722 67.3503 31.5141 67.76 31.665C68.6081 31.9813 69.3844 32.4341 70.0672 33.0019C70.3978 33.275 70.4841 33.7566 70.2685 34.1303L70.2498 34.1628C69.9079 34.7592 69.9958 35.4936 70.3406 36.0883C70.6843 36.681 71.2793 37.1275 71.9644 37.1275H72.0078C72.4391 37.1275 72.8128 37.4366 72.8847 37.8678C73.0285 38.7303 73.0356 39.6359 72.8847 40.5344C72.8128 40.9656 72.4391 41.2819 72.0078 41.2819H71.9644C71.2793 41.2819 70.6843 41.7284 70.3406 42.3211C69.9958 42.9158 69.9079 43.6502 70.2498 44.2466L70.2685 44.2791C70.4841 44.6528 70.405 45.1344 70.0672 45.4075C69.3844 45.9753 68.601 46.4281 67.76 46.7444C67.3503 46.8953 66.8903 46.7372 66.6747 46.3563L66.6556 46.3229C66.3138 45.7269 65.6348 45.431 64.9478 45.4309ZM62.9923 37.4971C61.2827 39.4597 64.6964 42.8729 66.6565 41.1605C66.7512 41.0778 66.8399 40.9882 66.9218 40.8927C68.6048 38.9288 65.2266 35.5459 63.2627 37.2289C63.1662 37.3116 63.0758 37.4013 62.9923 37.4971ZM54.9752 49.8817C54.9752 51.2403 55.603 52.5815 56.8189 53.1876L57.1872 53.3713C57.9131 53.7881 58.2294 54.6722 57.9419 55.4628C57.3022 57.2022 56.0444 58.7978 54.88 60.1922C54.3481 60.8319 53.4281 60.99 52.7022 60.5731L52.5923 60.5097C51.4048 59.8241 49.9425 59.9933 48.7564 60.6811C47.5675 61.3706 46.6647 62.5644 46.6647 63.9387V64.0591C46.6647 64.8928 46.0681 65.6116 45.2488 65.7553C43.4806 66.0572 41.6263 66.0716 39.7934 65.7553C38.9669 65.6116 38.3559 64.9 38.3559 64.0591V63.9362C38.3559 62.5622 37.4556 61.3674 36.2662 60.6795C35.0777 59.9922 33.6146 59.8221 32.4238 60.5055L32.3184 60.5659C31.5997 60.9828 30.6725 60.8247 30.1406 60.185C28.9763 58.7906 27.7472 57.195 27.1075 55.4628C26.82 54.6794 27.1363 53.7953 27.8622 53.3713L28.2064 53.1976C29.4205 52.5851 30.045 51.244 30.0454 49.8841C30.0458 48.528 29.4252 47.1854 28.2158 46.5717L27.8622 46.3922C27.1363 45.9753 26.8128 45.0913 27.1075 44.3078C27.7472 42.5684 28.9763 40.9728 30.1406 39.5784C30.6725 38.9388 31.5925 38.7806 32.3184 39.1975L32.4284 39.261C33.6158 39.9465 35.0782 39.7774 36.2643 39.0895C37.4531 38.4001 38.3559 37.2063 38.3559 35.832V35.7044C38.3559 34.8778 38.9453 34.1591 39.7647 34.0153C41.5328 33.7134 43.3944 33.6991 45.2272 34.0081C46.0538 34.1519 46.6647 34.8634 46.6647 35.7044V35.8304C46.6647 37.2025 47.5638 38.3957 48.7518 39.0824C49.9415 39.77 51.4066 39.9383 52.5966 39.2513L52.7022 39.1903C53.421 38.7734 54.3481 38.9316 54.88 39.5713C56.0444 40.9656 57.2663 42.5613 57.906 44.3006C58.1935 45.0841 57.9131 45.9681 57.1872 46.3922L56.8189 46.5758C55.603 47.1819 54.9752 48.5232 54.9752 49.8817ZM42.713 55.0729C45.314 54.9758 47.608 52.6818 47.705 50.0809C47.8177 47.0602 45.3355 44.5779 42.3148 44.6906C39.7139 44.7876 37.4198 47.0817 37.3228 49.6826C37.2101 52.7033 39.6923 55.1855 42.713 55.0729ZM64.9478 66.9143C64.2617 66.9142 63.5789 67.2094 63.2376 67.8046L63.2175 67.8397C63.0019 68.2206 62.5419 68.3788 62.1322 68.2278C61.2841 67.9116 60.5078 67.4588 59.825 66.8909C59.4944 66.6178 59.4081 66.1363 59.6238 65.7625L59.6424 65.73C59.9844 65.1337 59.8964 64.3992 59.5516 63.8045C59.2079 63.2119 58.6129 62.7653 57.9278 62.7653H57.8844C57.4531 62.7653 57.0794 62.4563 57.0075 62.025C56.8638 61.1625 56.8566 60.2569 57.0075 59.3584C57.0794 58.9272 57.4531 58.6109 57.8844 58.6109H57.9278C58.6129 58.6109 59.2079 58.1644 59.5516 57.5717C59.8964 56.977 59.9844 56.2426 59.6424 55.6462L59.6238 55.6138C59.4081 55.24 59.4872 54.7584 59.825 54.4853C60.5078 53.9175 61.2913 53.4647 62.1322 53.1484C62.5419 52.9975 63.0019 53.1556 63.2175 53.5366L63.2371 53.5708C63.5787 54.1665 64.2594 54.462 64.9461 54.462C65.6328 54.462 66.3135 54.1665 66.6551 53.5708L66.6747 53.5366C66.8903 53.1556 67.3503 52.9975 67.76 53.1484C68.6081 53.4647 69.3844 53.9175 70.0672 54.4853C70.3978 54.7584 70.4841 55.24 70.2685 55.6138L70.2498 55.6462C69.9079 56.2426 69.9958 56.977 70.3406 57.5717C70.6843 58.1644 71.2793 58.6109 71.9644 58.6109H72.0078C72.4391 58.6109 72.8128 58.92 72.8847 59.3513C73.0285 60.2138 73.0356 61.1194 72.8847 62.0178C72.8128 62.4491 72.4391 62.7653 72.0078 62.7653H71.9644C71.2793 62.7653 70.6843 63.2119 70.3406 63.8045C69.9958 64.3992 69.9079 65.1337 70.2498 65.73L70.2685 65.7625C70.4841 66.1363 70.405 66.6178 70.0672 66.8909C69.3844 67.4588 68.601 67.9116 67.76 68.2278C67.3503 68.3788 66.8903 68.2206 66.6747 67.8397L66.6556 67.8064C66.3138 67.2103 65.6348 66.9144 64.9478 66.9143ZM62.9939 58.9742C61.2815 60.9343 64.6964 64.3491 66.6565 62.6368C66.745 62.5595 66.8282 62.4762 66.9055 62.3877C68.6179 60.4276 65.203 57.0127 63.2429 58.7251C63.1544 58.8024 63.0712 58.8857 62.9939 58.9742Z" fill="white"/>
</g>
<defs>
<linearGradient id="paint0_linear_534_2233" x1="50" y1="5" x2="50" y2="95" gradientUnits="userSpaceOnUse">
<stop stop-color="#FF5E01"/>
<stop offset="1" stop-color="#FF9404"/>
</linearGradient>
<clipPath id="clip0_534_2233">
<rect width="46" height="46" fill="white" transform="translate(27 27)"/>
</clipPath>
</defs>
</svg>
