<svg width="50" height="49" viewBox="0 0 50 49" fill="none" xmlns="http://www.w3.org/2000/svg">
<path d="M42.2715 12.8845C40.1814 12.8845 38.2867 13.7155 36.8957 15.0634L28.075 8.74717C28.1301 8.5165 28.1623 8.27705 28.1623 8.02939C28.1623 6.32217 26.7783 4.93799 25.0709 4.93799C23.3637 4.93799 21.9795 6.32217 21.9795 8.02939C21.9795 9.73682 23.3637 11.1208 25.0709 11.1208C25.6687 11.1208 26.225 10.9481 26.698 10.6544L37.4957 18.5122C38.3375 16.7563 40.1941 15.3892 42.2715 15.3892C45.1564 15.3892 47.4953 17.7278 47.4953 20.6128C47.4953 22.9183 46.0018 24.8749 43.9295 25.5679L44.6383 27.972C47.7488 26.9724 49.9998 24.0556 49.9998 20.6128C49.9998 16.3446 46.5398 12.8845 42.2715 12.8845Z" fill="#0A7BFF"/>
<path d="M17.4936 5.37691C16.8625 7.36363 17.0803 9.41597 17.9415 11.1455L9.27349 17.6232C9.07075 17.5013 8.85278 17.3984 8.61743 17.3236C6.99438 16.808 5.26059 17.7058 4.74517 19.3289C4.22954 20.9519 5.12739 22.6857 6.75024 23.2011C8.37329 23.7168 10.1071 22.8191 10.6227 21.196C10.8032 20.6277 10.8071 20.0468 10.6706 19.5085L21.4014 11.6166C19.9864 10.2861 19.2473 8.10816 19.8745 6.13335C20.7458 3.39077 23.6754 1.87359 26.418 2.74488C28.6096 3.44097 30.0186 5.45171 30.0518 7.63101L32.5512 7.68316C32.5403 4.42437 30.4471 1.40347 27.1743 0.363822C23.1168 -0.925046 18.7825 1.31929 17.4936 5.37691Z" fill="#EB3D00"/>
<path d="M3.1766 26.2674C4.85824 27.4945 6.86683 27.9437 8.77113 27.6849L12.1907 37.9045C12.0121 38.0562 11.8469 38.2285 11.7026 38.426C10.7084 39.7885 11.0162 41.7056 12.3901 42.708C13.7639 43.7105 15.6834 43.4185 16.6776 42.056C17.6719 40.6935 17.3641 38.7765 15.9903 37.774C15.5092 37.423 14.9612 37.2342 14.4096 37.191L10.2965 24.5803C8.59671 25.4873 6.30667 25.4883 4.63499 24.2685C2.3137 22.5746 1.79359 19.3351 3.47347 17.0328C4.81605 15.193 7.15706 14.5084 9.22796 15.1719L10.0577 12.8373C6.97269 11.8086 3.46273 12.8148 1.45804 15.5621C-1.02731 18.9683 -0.257975 23.7613 3.1766 26.2674Z" fill="#00BCD4"/>
<path d="M42.7438 38.2775C42.107 36.3068 40.742 34.7743 39.0408 33.8753L42.3408 23.6234C42.5762 23.6046 42.8131 23.5616 43.0477 23.4859C44.666 22.963 45.5562 21.2339 45.0363 19.6241C44.5162 18.014 42.7826 17.1327 41.1643 17.6556C39.5459 18.1782 38.6555 19.9073 39.1756 21.5173C39.3578 22.081 39.6908 22.5527 40.1133 22.9087L35.9543 35.4974C37.8752 35.7534 39.7367 37.0855 40.3695 39.0445C41.2484 41.765 39.7439 44.6866 37.0094 45.57C34.824 46.2761 32.5143 45.4669 31.2262 43.7249L29.1631 45.1296C31.0582 47.7566 34.509 48.9862 37.7723 47.932C41.8182 46.6249 44.0439 42.3025 42.7438 38.2775Z" fill="#86C351"/>
<path d="M18.8029 46.5469C20.4795 45.3201 21.5119 43.5414 21.8367 41.6436L32.6203 41.5336C32.7117 41.7508 32.8264 41.9619 32.9717 42.1605C33.9738 43.5303 35.8965 43.8281 37.2662 42.8262C38.636 41.824 38.9338 39.9014 37.9319 38.5316C36.9297 37.1619 35.007 36.8639 33.6373 37.866C33.1578 38.217 32.8127 38.6816 32.6057 39.1951L19.3311 39.2289C19.6863 41.1316 18.9994 43.3182 17.3328 44.5375C15.0184 46.2309 11.7694 45.7273 10.076 43.4129C8.72287 41.5633 8.77267 39.117 10.0281 37.3447L8.04845 35.832C6.13986 38.4596 6.04611 42.1209 8.06662 44.8828C10.5719 48.3072 15.3787 49.0521 18.8029 46.5469Z" fill="#9032E9"/>
</svg>
