<svg width="512" height="512" viewBox="0 0 512 512" fill="none" xmlns="http://www.w3.org/2000/svg">
<path d="M285.068 115.066L281.342 115.801L279.101 121.211L281.217 124.366C283.516 127.793 284.553 131.912 284.152 136.018C283.751 140.125 281.936 143.965 279.018 146.883L264.497 161.404C261.58 164.322 257.739 166.137 253.632 166.538C249.526 166.939 245.407 165.901 241.98 163.603L238.825 161.488L233.416 163.729L232.681 167.456C231.887 171.506 229.71 175.155 226.521 177.776C223.333 180.397 219.332 181.828 215.204 181.823H204.936V303.616C217.442 307.791 229.7 313.504 241.515 318.11C268.336 328.564 292.936 333.934 321.881 333.963C347.417 333.172 360.058 355.636 354.63 373.598C382.128 361.923 410.135 343.76 433.73 329.289V66.4259H295.927C298.21 69.498 299.441 73.2251 299.436 77.0529V97.5889C299.441 101.717 298.01 105.717 295.389 108.906C292.768 112.095 289.12 114.272 285.069 115.066H285.068ZM392.34 315.573H246.325C244.468 315.573 242.688 314.835 241.375 313.523C240.063 312.21 239.325 310.429 239.325 308.573C239.325 306.716 240.063 304.936 241.375 303.623C242.688 302.31 244.468 301.573 246.325 301.573H392.34C394.197 301.573 395.977 302.31 397.29 303.623C398.602 304.936 399.34 306.716 399.34 308.573C399.34 310.429 398.602 312.21 397.29 313.523C395.977 314.835 394.197 315.573 392.34 315.573ZM392.34 277.139H246.325C244.468 277.139 242.688 276.401 241.375 275.089C240.063 273.776 239.325 271.995 239.325 270.139C239.325 268.282 240.063 266.502 241.375 265.189C242.688 263.876 244.468 263.139 246.325 263.139H392.34C394.197 263.139 395.977 263.876 397.29 265.189C398.602 266.502 399.34 268.282 399.34 270.139C399.34 271.995 398.602 273.776 397.29 275.089C395.977 276.401 394.197 277.139 392.34 277.139ZM392.34 238.704H246.325C244.468 238.704 242.688 237.966 241.375 236.654C240.063 235.341 239.325 233.56 239.325 231.704C239.325 229.847 240.063 228.067 241.375 226.754C242.688 225.441 244.468 224.704 246.325 224.704H392.34C394.197 224.704 395.977 225.441 397.29 226.754C398.602 228.067 399.34 229.847 399.34 231.704C399.34 233.56 398.602 235.341 397.29 236.654C395.977 237.966 394.197 238.704 392.34 238.704ZM392.34 200.269H246.325C244.468 200.269 242.688 199.531 241.375 198.219C240.063 196.906 239.325 195.125 239.325 193.269C239.325 191.412 240.063 189.632 241.375 188.319C242.688 187.006 244.468 186.269 246.325 186.269H392.34C394.197 186.269 395.977 187.006 397.29 188.319C398.602 189.632 399.34 191.412 399.34 193.269C399.34 195.125 398.602 196.906 397.29 198.219C395.977 199.531 394.197 200.269 392.34 200.269ZM330.927 109.4H392.34C394.197 109.4 395.977 110.137 397.29 111.45C398.602 112.763 399.34 114.543 399.34 116.4C399.34 118.256 398.602 120.037 397.29 121.35C395.977 122.662 394.197 123.4 392.34 123.4H330.927C329.07 123.4 327.29 122.662 325.977 121.35C324.665 120.037 323.927 118.256 323.927 116.4C323.927 114.543 324.665 112.763 325.977 111.45C327.29 110.137 329.07 109.4 330.927 109.4ZM303.707 147.835H392.34C394.197 147.835 395.977 148.572 397.29 149.885C398.602 151.198 399.34 152.978 399.34 154.835C399.34 156.691 398.602 158.472 397.29 159.785C395.977 161.097 394.197 161.835 392.34 161.835H303.707C301.85 161.835 300.07 161.097 298.757 159.785C297.445 158.472 296.707 156.691 296.707 154.835C296.707 152.978 297.445 151.198 298.757 149.885C300.07 148.572 301.85 147.835 303.707 147.835ZM127.511 101.331L138.594 103.516L146.575 122.78L140.283 132.163C139.785 132.895 139.56 133.778 139.646 134.658C139.732 135.539 140.123 136.362 140.753 136.984L155.275 151.505C155.897 152.134 156.719 152.526 157.6 152.612C158.48 152.698 159.363 152.473 160.095 151.976L169.478 145.684L188.741 153.665L190.926 164.748C191.092 165.617 191.556 166.401 192.24 166.963C192.923 167.525 193.782 167.829 194.667 167.824H215.203C217.043 167.824 218.588 166.554 218.944 164.748L221.129 153.666L240.392 145.685L249.775 151.977C250.507 152.474 251.39 152.7 252.27 152.614C253.151 152.528 253.973 152.136 254.595 151.506L269.116 136.985C269.746 136.363 270.138 135.54 270.224 134.659C270.31 133.779 270.084 132.896 269.586 132.164L263.294 122.781L271.275 103.517L282.357 101.332C283.226 101.166 284.01 100.701 284.572 100.017C285.134 99.3337 285.439 98.4748 285.433 97.5899V77.0539C285.439 76.1691 285.134 75.3103 284.572 74.6268C284.01 73.9433 283.226 73.4784 282.357 73.3129L271.275 71.1279L263.294 51.8639L269.586 42.4809C270.084 41.7493 270.309 40.8664 270.223 39.9858C270.137 39.1052 269.746 38.2825 269.116 37.6609L254.594 23.1399C253.972 22.5101 253.15 22.1181 252.269 22.032C251.389 21.9459 250.506 22.1713 249.774 22.6689L240.391 28.9609L221.127 20.9799L218.942 9.89688C218.776 9.02767 218.312 8.24395 217.628 7.68197C216.945 7.12 216.086 6.81531 215.201 6.82088H194.664C193.779 6.81512 192.92 7.11973 192.237 7.68174C191.553 8.24375 191.088 9.02758 190.923 9.89688L188.738 20.9799L169.474 28.9609L160.091 22.6689C159.359 22.1717 158.476 21.9466 157.596 22.0326C156.715 22.1186 155.893 22.5104 155.271 23.1399L140.749 37.6609C140.119 38.2825 139.728 39.1052 139.642 39.9858C139.556 40.8664 139.781 41.7493 140.279 42.4809L146.571 51.8639L138.59 71.1279L127.508 73.3129C126.639 73.4784 125.855 73.9433 125.293 74.6268C124.731 75.3103 124.426 76.1691 124.432 77.0539V97.5899C124.432 99.4299 125.702 100.976 127.507 101.332L127.511 101.331ZM204.935 46.0379C227.735 46.0379 246.218 64.5209 246.218 87.3209C246.218 110.121 227.735 128.604 204.935 128.604C182.135 128.604 163.653 110.121 163.653 87.3209C163.653 64.5209 182.136 46.0379 204.935 46.0379ZM481.039 356.095C471.21 369.015 414.87 403.216 382.454 420.387C353.981 435.47 334.109 444.271 301.684 444.988C278.478 445.501 253.184 442.441 231.989 441.173C204.438 439.524 178.712 439.743 155.51 450.66C155.229 450.355 154.942 450.055 154.649 449.761L81.417 376.529L81.201 376.318C187.862 250.32 195.033 347.96 322.116 347.96C343.729 347.143 349.026 372.888 331.045 379.429C325 381.628 316.855 382.667 308.003 382.884C284.884 383.45 258.283 378.025 247.764 372.551C244.056 370.623 238.841 372.121 236.914 375.829C234.986 379.537 235.86 384.651 241.106 387.378C253.26 393.704 283.183 399.99 308.681 399.367C358.491 397.818 417.895 354.278 455.49 332.573C476.946 320.186 495.105 337.602 481.04 356.095H481.039ZM143.294 461.117C149.341 467.164 149.34 477.059 143.294 483.106L121.221 505.179L26 409.958L48.073 387.885C54.12 381.839 64.014 381.839 70.062 387.885L143.295 461.118L143.294 461.117Z" fill="white"/>
</svg>
