<svg width="101" height="101" viewBox="0 0 101 101" fill="none" xmlns="http://www.w3.org/2000/svg">
<circle cx="50.5" cy="50.5" r="50" stroke="url(#paint0_linear_807_1765)" stroke-dasharray="3 3"/>
<circle cx="50.4999" cy="50.4999" r="46.0526" fill="url(#paint1_linear_807_1765)"/>
<path d="M53.3387 36.7368L52.9748 36.8086L52.756 37.3369L52.9626 37.645C53.1871 37.9797 53.2884 38.3819 53.2492 38.783C53.21 39.184 53.0328 39.559 52.7479 39.844L51.3298 41.262C51.0449 41.547 50.6699 41.7242 50.2688 41.7634C49.8677 41.8025 49.4655 41.7012 49.1309 41.4768L48.8228 41.2702L48.2945 41.4891L48.2228 41.853C48.1452 42.2486 47.9326 42.6049 47.6212 42.8609C47.3098 43.1168 46.9191 43.2566 46.516 43.2561H45.5133V55.1499C46.7346 55.5576 47.9316 56.1155 49.0854 56.5653C51.7047 57.5862 54.107 58.1107 56.9337 58.1135C59.4274 58.0362 60.6619 60.23 60.1318 61.9841C62.8172 60.844 65.5522 59.0702 67.8564 57.657V31.9868H54.3991C54.6221 32.2868 54.7423 32.6508 54.7418 33.0246V35.0301C54.7423 35.4332 54.6026 35.8239 54.3466 36.1353C54.0906 36.4467 53.7343 36.6593 53.3388 36.7368H53.3387ZM63.8144 56.3176H49.5552C49.3739 56.3176 49.2 56.2456 49.0718 56.1174C48.9436 55.9892 48.8716 55.8153 48.8716 55.634C48.8716 55.4527 48.9436 55.2788 49.0718 55.1506C49.2 55.0224 49.3739 54.9504 49.5552 54.9504H63.8144C63.9958 54.9504 64.1696 55.0224 64.2978 55.1506C64.426 55.2788 64.498 55.4527 64.498 55.634C64.498 55.8153 64.426 55.9892 64.2978 56.1174C64.1696 56.2456 63.9958 56.3176 63.8144 56.3176ZM63.8144 52.5643H49.5552C49.3739 52.5643 49.2 52.4922 49.0718 52.364C48.9436 52.2358 48.8716 52.062 48.8716 51.8807C48.8716 51.6994 48.9436 51.5255 49.0718 51.3973C49.2 51.2691 49.3739 51.1971 49.5552 51.1971H63.8144C63.9958 51.1971 64.1696 51.2691 64.2978 51.3973C64.426 51.5255 64.498 51.6994 64.498 51.8807C64.498 52.062 64.426 52.2358 64.2978 52.364C64.1696 52.4922 63.9958 52.5643 63.8144 52.5643ZM63.8144 48.8108H49.5552C49.3739 48.8108 49.2 48.7388 49.0718 48.6106C48.9436 48.4824 48.8716 48.3086 48.8716 48.1273C48.8716 47.946 48.9436 47.7721 49.0718 47.6439C49.2 47.5157 49.3739 47.4437 49.5552 47.4437H63.8144C63.9958 47.4437 64.1696 47.5157 64.2978 47.6439C64.426 47.7721 64.498 47.946 64.498 48.1273C64.498 48.3086 64.426 48.4824 64.2978 48.6106C64.1696 48.7388 63.9958 48.8108 63.8144 48.8108ZM63.8144 45.0574H49.5552C49.3739 45.0574 49.2 44.9854 49.0718 44.8572C48.9436 44.729 48.8716 44.5551 48.8716 44.3738C48.8716 44.1925 48.9436 44.0187 49.0718 43.8905C49.2 43.7623 49.3739 43.6902 49.5552 43.6902H63.8144C63.9958 43.6902 64.1696 43.7623 64.2978 43.8905C64.426 44.0187 64.498 44.1925 64.498 44.3738C64.498 44.5551 64.426 44.729 64.2978 44.8572C64.1696 44.9854 63.9958 45.0574 63.8144 45.0574ZM57.8171 36.1835H63.8144C63.9958 36.1835 64.1696 36.2555 64.2978 36.3837C64.426 36.5119 64.498 36.6858 64.498 36.8671C64.498 37.0484 64.426 37.2223 64.2978 37.3505C64.1696 37.4787 63.9958 37.5507 63.8144 37.5507H57.8171C57.6358 37.5507 57.4619 37.4787 57.3337 37.3505C57.2055 37.2223 57.1335 37.0484 57.1335 36.8671C57.1335 36.6858 57.2055 36.5119 57.3337 36.3837C57.4619 36.2555 57.6358 36.1835 57.8171 36.1835ZM55.1589 39.9369H63.8144C63.9958 39.9369 64.1696 40.0089 64.2978 40.1371C64.426 40.2653 64.498 40.4392 64.498 40.6205C64.498 40.8018 64.426 40.9757 64.2978 41.1039C64.1696 41.2321 63.9958 41.3041 63.8144 41.3041H55.1589C54.9776 41.3041 54.8037 41.2321 54.6755 41.1039C54.5473 40.9757 54.4753 40.8018 54.4753 40.6205C54.4753 40.4392 54.5473 40.2653 54.6755 40.1371C54.8037 40.0089 54.9776 39.9369 55.1589 39.9369ZM37.9522 35.3955L39.0346 35.6089L39.814 37.4901L39.1995 38.4065C39.1509 38.4779 39.1289 38.5641 39.1373 38.6502C39.1457 38.7362 39.1839 38.8165 39.2454 38.8773L40.6636 40.2953C40.7243 40.3568 40.8046 40.3951 40.8906 40.4035C40.9766 40.4119 41.0628 40.3899 41.1343 40.3413L42.0506 39.7269L43.9317 40.5063L44.1451 41.5886C44.1613 41.6735 44.2067 41.75 44.2734 41.8049C44.3402 41.8598 44.424 41.8895 44.5104 41.889H46.5159C46.6956 41.889 46.8465 41.7649 46.8812 41.5886L47.0946 40.5064L48.9758 39.727L49.8921 40.3414C49.9635 40.39 50.0498 40.412 50.1358 40.4036C50.2218 40.3952 50.3021 40.3569 50.3628 40.2954L51.7809 38.8774C51.8424 38.8166 51.8807 38.7363 51.889 38.6503C51.8974 38.5642 51.8754 38.478 51.8268 38.4066L51.2123 37.4902L51.9917 35.609L53.0739 35.3956C53.1588 35.3794 53.2354 35.334 53.2902 35.2672C53.3451 35.2005 53.3749 35.1166 53.3743 35.0302V33.0247C53.3749 32.9383 53.3451 32.8544 53.2902 32.7877C53.2353 32.721 53.1588 32.6755 53.0739 32.6594L51.9917 32.446L51.2123 30.5648L51.8268 29.6484C51.8754 29.577 51.8974 29.4908 51.889 29.4048C51.8806 29.3188 51.8423 29.2384 51.7809 29.1777L50.3627 27.7597C50.302 27.6982 50.2217 27.6599 50.1357 27.6515C50.0497 27.6431 49.9634 27.6651 49.892 27.7137L48.9757 28.3281L47.0944 27.5487L46.8811 26.4664C46.8649 26.3815 46.8195 26.305 46.7527 26.2501C46.686 26.1952 46.6021 26.1655 46.5157 26.166H44.5102C44.4237 26.1655 44.3399 26.1952 44.2731 26.2501C44.2064 26.305 44.161 26.3815 44.1448 26.4664L43.9314 27.5487L42.0502 28.3281L41.1339 27.7137C41.0624 27.6651 40.9762 27.6431 40.8902 27.6515C40.8042 27.6599 40.7239 27.6982 40.6632 27.7597L39.245 29.1777C39.1835 29.2384 39.1453 29.3188 39.1369 29.4048C39.1285 29.4908 39.1505 29.577 39.1991 29.6484L39.8136 30.5648L39.0342 32.446L37.952 32.6594C37.8671 32.6755 37.7905 32.721 37.7357 32.7877C37.6808 32.8544 37.651 32.9383 37.6516 33.0247V35.0302C37.6516 35.2099 37.7756 35.3608 37.9519 35.3956L37.9522 35.3955ZM45.5132 29.9958C47.7397 29.9958 49.5447 31.8008 49.5447 34.0274C49.5447 36.2539 47.7397 38.0589 45.5132 38.0589C43.2866 38.0589 41.4817 36.2539 41.4817 34.0274C41.4817 31.8008 43.2867 29.9958 45.5132 29.9958ZM72.4765 60.2748C71.5166 61.5365 66.0146 64.8765 62.849 66.5533C60.0685 68.0263 58.1278 68.8857 54.9613 68.9558C52.6951 69.0059 50.225 68.707 48.1552 68.5832C45.4646 68.4222 42.9523 68.4436 40.6865 69.5097C40.6591 69.4799 40.631 69.4506 40.6024 69.4219L33.4509 62.2703L33.4298 62.2497C43.8459 49.9452 44.5462 59.4804 56.9566 59.4804C59.0673 59.4006 59.5846 61.9148 57.8286 62.5535C57.2383 62.7683 56.4429 62.8697 55.5784 62.8909C53.3207 62.9462 50.7229 62.4164 49.6957 61.8818C49.3336 61.6936 48.8243 61.8399 48.6361 62.202C48.4478 62.5641 48.5332 63.0635 49.0455 63.3298C50.2324 63.9476 53.1546 64.5614 55.6446 64.5006C60.5089 64.3493 66.3101 60.0974 69.9814 57.9777C72.0768 56.7681 73.8501 58.4689 72.4766 60.2748H72.4765ZM39.4936 70.5309C40.0841 71.1214 40.084 72.0877 39.4936 72.6782L37.338 74.8338L28.0391 65.5349L30.1946 63.3793C30.7852 62.7889 31.7514 62.7889 32.342 63.3793L39.4937 70.531L39.4936 70.5309Z" fill="white"/>
<defs>
<linearGradient id="paint0_linear_807_1765" x1="50.5" y1="0.5" x2="50.5" y2="100.5" gradientUnits="userSpaceOnUse">
<stop stop-color="#FF5E01"/>
<stop offset="1" stop-color="#FF9404"/>
</linearGradient>
<linearGradient id="paint1_linear_807_1765" x1="50.4999" y1="4.44727" x2="50.4999" y2="96.5525" gradientUnits="userSpaceOnUse">
<stop stop-color="#FF5E01"/>
<stop offset="1" stop-color="#FF9404"/>
</linearGradient>
</defs>
</svg>
