<svg width="74" height="74" viewBox="0 0 74 74" fill="none" xmlns="http://www.w3.org/2000/svg">
<circle cx="37" cy="37" r="32" fill="url(#paint0_linear_791_375)"/>
<circle cx="37" cy="37" r="34.5" stroke="#FF9104" stroke-opacity="0.22" stroke-width="5"/>
<g clip-path="url(#clip0_791_375)">
<g clip-path="url(#clip1_791_375)">
<g clip-path="url(#clip2_791_375)">
<mask id="mask0_791_375" style="mask-type:luminance" maskUnits="userSpaceOnUse" x="20" y="20" width="34" height="34">
<path d="M54 20H20V54H54V20Z" fill="white"/>
</mask>
<g mask="url(#mask0_791_375)">
<path d="M21.9994 41.4993H25.9994C26.2646 41.4993 26.519 41.6046 26.7065 41.7921C26.8941 41.9797 26.9994 42.2341 26.9994 42.4993V49.4992C26.9994 49.7645 26.8941 50.0188 26.7065 50.2064C26.519 50.3939 26.2646 50.4993 25.9994 50.4993H21.9994C21.7342 50.4993 21.4799 50.3939 21.2923 50.2064C21.1048 50.0188 20.9994 49.7645 20.9994 49.4992V42.4993C20.9994 42.2341 21.1048 41.9797 21.2923 41.7921C21.4799 41.6046 21.7342 41.4993 21.9994 41.4993ZM39.9994 31.4992H43.9994C44.2647 31.4992 44.519 31.6046 44.7065 31.7922C44.8941 31.9797 44.9995 32.234 44.9995 32.4992V49.4992C44.9995 49.7645 44.8941 50.0188 44.7065 50.2064C44.519 50.3939 44.2647 50.4993 43.9994 50.4993H39.9994C39.7342 50.4993 39.4798 50.3939 39.2923 50.2064C39.1048 50.0188 38.9995 49.7645 38.9995 49.4992V32.4992C38.9995 32.234 39.1048 31.9797 39.2923 31.7922C39.4798 31.6046 39.7342 31.4992 39.9994 31.4992ZM48.9994 26.4993H52.9994C53.2646 26.4993 53.519 26.6046 53.7065 26.7922C53.894 26.9797 53.9994 27.234 53.9994 27.4993V49.4992C53.9994 49.7645 53.894 50.0188 53.7065 50.2064C53.519 50.3939 53.2646 50.4993 52.9994 50.4993H48.9994C48.7342 50.4993 48.4799 50.3939 48.2923 50.2064C48.1048 50.0188 47.9994 49.7645 47.9994 49.4992V27.4993C47.9994 27.234 48.1048 26.9797 48.2923 26.7922C48.4799 26.6046 48.7342 26.4993 48.9994 26.4993ZM30.9994 36.9993H34.9994C35.2646 36.9993 35.519 37.1047 35.7066 37.2922C35.8941 37.4797 35.9994 37.7341 35.9994 37.9993V49.4992C35.9994 49.7645 35.8941 50.0188 35.7066 50.2064C35.519 50.3939 35.2646 50.4993 34.9994 50.4993H30.9994C30.7342 50.4993 30.4799 50.3939 30.2923 50.2064C30.1048 50.0188 29.9994 49.7645 29.9994 49.4992V37.9993C29.9994 37.7341 30.1048 37.4797 30.2923 37.2922C30.4799 37.1047 30.7342 36.9993 30.9994 36.9993ZM23.9994 26.9133V31.4992C23.9994 32.8327 21.9994 32.8327 21.9994 31.4992V26.9133L21.7064 27.2063C21.5178 27.3884 21.2652 27.4892 21.003 27.487C20.7408 27.4846 20.49 27.3795 20.3046 27.1941C20.1192 27.0087 20.014 26.7579 20.0118 26.4957C20.0095 26.2335 20.1103 25.9809 20.2924 25.7923L22.1594 23.9243C22.5344 23.3573 23.4644 23.3573 23.8389 23.9243L25.7064 25.7918C25.8886 25.9804 25.9894 26.233 25.9871 26.4952C25.9848 26.7574 25.8797 27.0082 25.6942 27.1936C25.5088 27.379 25.258 27.4842 24.9958 27.4864C24.7336 27.4887 24.481 27.388 24.2924 27.2057L23.9994 26.9133ZM28.9994 29.0852V24.4993C28.9994 24.2341 29.1048 23.9797 29.2923 23.7922C29.4799 23.6046 29.7342 23.4993 29.9994 23.4993C30.2646 23.4993 30.519 23.6046 30.7065 23.7922C30.8941 23.9797 30.9994 24.2341 30.9994 24.4993V29.0852L31.2924 28.7923C31.481 28.6101 31.7336 28.5093 31.9958 28.5116C32.258 28.5139 32.5088 28.6191 32.6942 28.8045C32.8797 28.9899 32.9848 29.2407 32.9871 29.5029C32.9894 29.765 32.8886 30.0176 32.7064 30.2062L30.7064 32.2063C30.5189 32.3937 30.2646 32.4991 29.9994 32.4991C29.7343 32.4991 29.48 32.3937 29.2925 32.2063L27.2924 30.2062C27.1103 30.0176 27.0095 29.765 27.0117 29.5029C27.0141 29.2407 27.1192 28.9899 27.3046 28.8045C27.49 28.6191 27.7408 28.5139 28.003 28.5116C28.2652 28.5093 28.5178 28.6101 28.7064 28.7923L28.9994 29.0852Z" fill="white"/>
</g>
</g>
</g>
</g>
<defs>
<linearGradient id="paint0_linear_791_375" x1="37" y1="5" x2="37" y2="69" gradientUnits="userSpaceOnUse">
<stop stop-color="#FF5E01"/>
<stop offset="1" stop-color="#FF9404"/>
</linearGradient>
<clipPath id="clip0_791_375">
<rect width="34" height="34" fill="white" transform="translate(20 20)"/>
</clipPath>
<clipPath id="clip1_791_375">
<rect width="34" height="34" fill="white" transform="translate(20 20)"/>
</clipPath>
<clipPath id="clip2_791_375">
<rect width="34" height="34" fill="white" transform="translate(20 20)"/>
</clipPath>
</defs>
</svg>
