<svg width="512" height="512" viewBox="0 0 512 512" fill="none" xmlns="http://www.w3.org/2000/svg">
<g clip-path="url(#clip0_26_40)">
<path d="M30.1177 323.765H90.353C94.3468 323.765 98.1771 325.351 101.001 328.175C103.825 330.999 105.412 334.83 105.412 338.824V444.235C105.412 448.229 103.825 452.059 101.001 454.884C98.1771 457.708 94.3468 459.294 90.353 459.294H30.1177C26.1238 459.294 22.2935 457.708 19.4695 454.884C16.6454 452.059 15.0588 448.229 15.0588 444.235V338.824C15.0588 334.83 16.6454 330.999 19.4695 328.175C22.2935 325.351 26.1238 323.765 30.1177 323.765ZM301.176 173.176H361.412C365.406 173.176 369.236 174.763 372.06 177.587C374.884 180.411 376.471 184.241 376.471 188.235V444.235C376.471 448.229 374.884 452.059 372.06 454.884C369.236 457.708 365.406 459.294 361.412 459.294H301.176C297.183 459.294 293.352 457.708 290.528 454.884C287.704 452.059 286.118 448.229 286.118 444.235V188.235C286.118 184.241 287.704 180.411 290.528 177.587C293.352 174.763 297.183 173.176 301.176 173.176ZM436.706 97.8824H496.941C500.935 97.8824 504.765 99.4689 507.589 102.293C510.413 105.117 512 108.947 512 112.941V444.235C512 448.229 510.413 452.059 507.589 454.884C504.765 457.708 500.935 459.294 496.941 459.294H436.706C432.712 459.294 428.882 457.708 426.058 454.884C423.234 452.059 421.647 448.229 421.647 444.235V112.941C421.647 108.947 423.234 105.117 426.058 102.293C428.882 99.4689 432.712 97.8824 436.706 97.8824ZM165.647 256H225.882C229.876 256 233.706 257.587 236.531 260.411C239.355 263.235 240.941 267.065 240.941 271.059V444.235C240.941 448.229 239.355 452.059 236.531 454.884C233.706 457.708 229.876 459.294 225.882 459.294H165.647C161.653 459.294 157.823 457.708 154.999 454.884C152.175 452.059 150.588 448.229 150.588 444.235V271.059C150.588 267.065 152.175 263.235 154.999 260.411C157.823 257.587 161.653 256 165.647 256ZM60.2353 104.117V173.176C60.2353 193.257 30.1177 193.257 30.1177 173.176V104.117L25.7054 108.529C22.8653 111.272 19.0614 112.79 15.113 112.756C11.1647 112.721 7.38771 111.138 4.59569 108.346C1.80366 105.554 0.219938 101.777 0.185628 97.8282C0.151318 93.8798 1.66916 90.0759 4.41225 87.2358L32.5271 59.1059C38.1741 50.5676 52.1788 50.5676 57.8184 59.1059L85.9407 87.2283C88.6838 90.0684 90.2017 93.8723 90.1673 97.8207C90.133 101.769 88.5493 105.546 85.7573 108.338C82.9653 111.13 79.1883 112.714 75.2399 112.748C71.2916 112.782 67.4877 111.265 64.6475 108.521L60.2353 104.117ZM135.529 136.824V67.7647C135.529 63.7709 137.116 59.9406 139.94 57.1165C142.764 54.2925 146.594 52.7059 150.588 52.7059C154.582 52.7059 158.412 54.2925 161.236 57.1165C164.061 59.9406 165.647 63.7709 165.647 67.7647V136.824L170.059 132.412C172.899 129.669 176.703 128.151 180.652 128.186C184.6 128.22 188.377 129.804 191.169 132.596C193.961 135.388 195.545 139.165 195.579 143.113C195.613 147.061 194.096 150.865 191.352 153.705L161.235 183.823C158.411 186.646 154.581 188.232 150.588 188.232C146.595 188.232 142.766 186.646 139.942 183.823L109.824 153.705C107.081 150.865 105.563 147.061 105.597 143.113C105.632 139.165 107.215 135.388 110.007 132.596C112.799 129.804 116.576 128.22 120.525 128.186C124.473 128.151 128.277 129.669 131.117 132.412L135.529 136.824Z" fill="white"/>
</g>
<defs>
<clipPath id="clip0_26_40">
<rect width="512" height="512" fill="white"/>
</clipPath>
</defs>
</svg>
