<svg width="48" height="48" viewBox="0 0 48 48" fill="none" xmlns="http://www.w3.org/2000/svg">
<path d="M16.7912 5.10413C19.741 3.27643 22.3156 4.01297 23.8622 5.18619C24.4964 5.66723 24.8134 5.90777 25 5.90777C25.1866 5.90777 25.5036 5.66723 26.1378 5.18619C27.6844 4.01297 30.259 3.27643 33.2088 5.10413C37.0802 7.50277 37.9562 15.416 29.0266 22.0922C27.3258 23.3638 26.4754 23.9994 25 23.9994C23.5246 23.9994 22.6742 23.3638 20.9734 22.0922C12.0439 15.416 12.9199 7.50277 16.7912 5.10413Z" stroke="#ff6900" stroke-width="2.5" stroke-linecap="round"/>
<path d="M8 28H12.7896C13.3779 28 13.9582 28.1326 14.4843 28.3872L18.5683 30.3632C19.0945 30.6178 19.6747 30.7502 20.263 30.7502H22.3482C24.365 30.7502 26 32.3324 26 34.284C26 34.3628 25.946 34.4322 25.8676 34.4538L20.7858 35.859C19.8741 36.111 18.898 36.0232 18.05 35.6128L13.6842 33.5006" stroke="#ff6900" stroke-width="2.5" stroke-linecap="round"/>
<path d="M26 33.0001L35.1856 30.1779C36.814 29.6705 38.5742 30.2721 39.5942 31.6847C40.3318 32.7059 40.0314 34.1685 38.957 34.7885L23.9258 43.4611C22.9698 44.0127 21.8418 44.1473 20.7904 43.8353L8 40.0399" stroke="#ff6900" stroke-width="2.5" stroke-linecap="round"/>
</svg>
