<svg width="75" height="75" viewBox="0 0 75 75" fill="none" xmlns="http://www.w3.org/2000/svg">
<path d="M14.0625 0.585938H60.9375C68.3804 0.585938 74.4141 6.6196 74.4141 14.0625V60.9375C74.4141 68.3804 68.3804 74.4141 60.9375 74.4141H14.0625C6.6196 74.4141 0.585938 68.3804 0.585938 60.9375V14.0625C0.585938 6.6196 6.6196 0.585938 14.0625 0.585938Z" fill="#25427B" stroke="#5C719B" stroke-width="1.17188"/>
<g clip-path="url(#clip0_3770_882)">
<path d="M37.4976 36.1693C42.9323 36.1693 47.338 31.7637 47.338 26.3286C47.338 20.8941 42.9322 16.4883 37.4976 16.4883C32.0629 16.4883 27.6568 20.894 27.6568 26.3287C27.6568 31.7636 32.0629 36.1694 37.4976 36.1694V36.1693ZM35.0611 25.4548L36.7013 27.0947L39.8179 22.9391C40.7999 21.6304 42.7758 23.1152 41.7954 24.4223L37.8236 29.7179C37.3746 30.3166 36.4946 30.3839 35.9609 29.8502L33.3133 27.2025C32.1562 26.0454 33.9055 24.2993 35.061 25.4549L35.0611 25.4548ZM27.8696 42.1043C27.8696 44.5536 25.8841 46.5392 23.435 46.5392C20.9855 46.5392 19 44.5536 19 42.1043C19 39.6552 20.9855 37.6696 23.435 37.6696C25.8841 37.6696 27.8696 39.6552 27.8696 42.1043ZM41.9322 42.1043C41.9322 44.5536 39.9467 46.5392 37.4972 46.5392C35.0478 46.5392 33.0623 44.5536 33.0623 42.1043C33.0623 39.6552 35.0478 37.6696 37.4972 37.6696C39.9467 37.6696 41.9322 39.6552 41.9322 42.1043ZM55.9945 42.1043C55.9945 44.5536 54.009 46.5392 51.5595 46.5392C49.1104 46.5392 47.1249 44.5536 47.1249 42.1043C47.1249 39.6552 49.1104 37.6696 51.5595 37.6696C54.009 37.6696 55.9945 39.6552 55.9945 42.1043Z" fill="white"/>
<path d="M51.5092 46.5392C47.6359 46.5679 44.5369 49.7756 44.5315 53.6479V53.5704C44.5315 49.6694 41.3543 46.5103 37.4469 46.5393C33.5736 46.5679 30.4746 49.7756 30.4692 53.6479V53.5704C30.4692 49.6694 27.292 46.5103 23.3842 46.5393C19.5074 46.5679 16.4062 49.7814 16.4062 53.6586V57.439C16.4062 58.1215 16.9595 58.6749 17.6422 58.6749H29.2326C29.9149 58.6749 30.4682 58.1219 30.4685 57.4395C30.4692 58.1219 31.0222 58.6748 31.7045 58.6748H43.2952C43.9775 58.6748 44.5308 58.122 44.5311 57.4395C44.5315 58.1219 45.0848 58.6748 45.7671 58.6748H57.3578C58.0401 58.6748 58.5938 58.1215 58.5938 57.4389V53.5704C58.5938 49.6694 55.4169 46.5103 51.5092 46.5393V46.5392Z" fill="white"/>
</g>
<defs>
<clipPath id="clip0_3770_882">
<rect width="42.1875" height="42.1875" fill="white" transform="translate(16.4062 16.4062)"/>
</clipPath>
</defs>
</svg>
