<svg width="44" height="44" viewBox="0 0 44 44" fill="none" xmlns="http://www.w3.org/2000/svg">
<path d="M27.5 38.5V23.8333C27.5 23.3471 27.3068 22.8808 26.963 22.537C26.6192 22.1932 26.1529 22 25.6667 22H18.3333C17.8471 22 17.3808 22.1932 17.037 22.537C16.6932 22.8808 16.5 23.3471 16.5 23.8333V38.5" stroke="url(#paint0_linear_113_317)" stroke-width="2" stroke-linecap="round" stroke-linejoin="round"/>
<path d="M5.5 18.3332C5.49987 17.7998 5.61611 17.2728 5.84061 16.789C6.06511 16.3052 6.39246 15.8762 6.79983 15.5319L19.6332 4.53369C20.295 3.97436 21.1335 3.66748 22 3.66748C22.8665 3.66748 23.705 3.97436 24.3668 4.53369L37.2002 15.5319C37.6075 15.8762 37.9349 16.3052 38.1594 16.789C38.3839 17.2728 38.5001 17.7998 38.5 18.3332V34.8332C38.5 35.8057 38.1137 36.7383 37.4261 37.4259C36.7384 38.1136 35.8058 38.4999 34.8333 38.4999H9.16667C8.19421 38.4999 7.26158 38.1136 6.57394 37.4259C5.88631 36.7383 5.5 35.8057 5.5 34.8332V18.3332Z" stroke="url(#paint1_linear_113_317)" stroke-width="2" stroke-linecap="round" stroke-linejoin="round"/>
<defs>
<linearGradient id="paint0_linear_113_317" x1="22" y1="22" x2="22" y2="38.5" gradientUnits="userSpaceOnUse">
<stop stop-color="#FF5E01"/>
<stop offset="1" stop-color="#FF9404"/>
</linearGradient>
<linearGradient id="paint1_linear_113_317" x1="22" y1="3.66748" x2="22" y2="38.4999" gradientUnits="userSpaceOnUse">
<stop stop-color="#FF5E01"/>
<stop offset="1" stop-color="#FF9404"/>
</linearGradient>
</defs>
</svg>
