<svg width="74" height="74" viewBox="0 0 74 74" fill="none" xmlns="http://www.w3.org/2000/svg">
<rect x="5" y="5" width="64" height="64" rx="12" fill="url(#paint0_linear_1041_4)"/>
<rect x="2.5" y="2.5" width="69" height="69" rx="14.5" stroke="#FF9104" stroke-opacity="0.22" stroke-width="5"/>
<path d="M39.8172 49.4278C39.5 48.6622 39.5 47.6915 39.5 45.75C39.5 43.8085 39.5 42.8378 39.8172 42.0722C40.24 41.0512 41.0512 40.24 42.0722 39.8172C42.8378 39.5 43.8085 39.5 45.75 39.5C47.6915 39.5 48.6622 39.5 49.4278 39.8172C50.4488 40.24 51.26 41.0512 51.6828 42.0722C52 42.8378 52 43.8085 52 45.75C52 47.6915 52 48.6622 51.6828 49.4278C51.26 50.4488 50.4488 51.26 49.4278 51.6828C48.6622 52 47.6915 52 45.75 52C43.8085 52 42.8378 52 42.0722 51.6828C41.0512 51.26 40.24 50.4488 39.8172 49.4278Z" stroke="white" stroke-width="2.5" stroke-linecap="square" stroke-linejoin="round"/>
<path d="M39.8172 31.9278C39.5 31.1621 39.5 30.1914 39.5 28.25C39.5 26.3086 39.5 25.3379 39.8172 24.5722C40.24 23.5512 41.0512 22.7401 42.0722 22.3172C42.8378 22 43.8085 22 45.75 22C47.6915 22 48.6622 22 49.4278 22.3172C50.4488 22.7401 51.26 23.5512 51.6828 24.5722C52 25.3379 52 26.3086 52 28.25C52 30.1914 52 31.1621 51.6828 31.9278C51.26 32.9488 50.4488 33.76 49.4278 34.1828C48.6622 34.5 47.6915 34.5 45.75 34.5C43.8085 34.5 42.8378 34.5 42.0722 34.1828C41.0512 33.76 40.24 32.9488 39.8172 31.9278Z" stroke="white" stroke-width="2.5" stroke-linecap="square" stroke-linejoin="round"/>
<path d="M22.3172 49.4278C22 48.6622 22 47.6915 22 45.75C22 43.8085 22 42.8378 22.3172 42.0722C22.7401 41.0512 23.5512 40.24 24.5722 39.8172C25.3379 39.5 26.3086 39.5 28.25 39.5C30.1914 39.5 31.1621 39.5 31.9278 39.8172C32.9488 40.24 33.76 41.0512 34.1828 42.0722C34.5 42.8378 34.5 43.8085 34.5 45.75C34.5 47.6915 34.5 48.6622 34.1828 49.4278C33.76 50.4488 32.9488 51.26 31.9278 51.6828C31.1621 52 30.1914 52 28.25 52C26.3086 52 25.3379 52 24.5722 51.6828C23.5512 51.26 22.7401 50.4488 22.3172 49.4278Z" stroke="white" stroke-width="2.5" stroke-linecap="square" stroke-linejoin="round"/>
<path d="M22.3172 31.9278C22 31.1621 22 30.1914 22 28.25C22 26.3086 22 25.3379 22.3172 24.5722C22.7401 23.5512 23.5512 22.7401 24.5722 22.3172C25.3379 22 26.3086 22 28.25 22C30.1914 22 31.1621 22 31.9278 22.3172C32.9488 22.7401 33.76 23.5512 34.1828 24.5722C34.5 25.3379 34.5 26.3086 34.5 28.25C34.5 30.1914 34.5 31.1621 34.1828 31.9278C33.76 32.9488 32.9488 33.76 31.9278 34.1828C31.1621 34.5 30.1914 34.5 28.25 34.5C26.3086 34.5 25.3379 34.5 24.5722 34.1828C23.5512 33.76 22.7401 32.9488 22.3172 31.9278Z" stroke="white" stroke-width="2.5" stroke-linecap="square" stroke-linejoin="round"/>
<defs>
<linearGradient id="paint0_linear_1041_4" x1="37" y1="5" x2="37" y2="69" gradientUnits="userSpaceOnUse">
<stop stop-color="#FF5E01"/>
<stop offset="1" stop-color="#FF9404"/>
</linearGradient>
</defs>
</svg>
