<svg width="74" height="74" viewBox="0 0 74 74" fill="none" xmlns="http://www.w3.org/2000/svg">
<rect x="2.5" y="2.5" width="69" height="69" rx="14.5" fill="#1248B5" stroke="#BACCEF" stroke-width="5"/>
<g clip-path="url(#clip0_3974_201)">
<path d="M13 13H61V61H13V13Z" fill="#1248B5"/>
<path d="M43.9458 54V53.149C43.9458 51.2722 45.5085 49.7509 47.1674 48.9189C48.7804 48.1101 50.1363 46.7768 50.3087 45.2133L50.6491 42.0993L54 40.4003L49.8117 34.0252C49.8117 26.2789 43.6212 20 35.9872 20C34.1149 19.9974 32.2618 20.3816 30.5407 21.1293M28.0271 45.4931V54M28.0271 45.4931C25.7243 43.8466 23.9707 41.5272 23 38.844M28.0271 45.4931C29.3006 46.4046 30.7173 47.0904 32.2168 47.5215" stroke="white" stroke-width="1.5" stroke-linecap="round" stroke-linejoin="round"/>
<path d="M21.3125 22.287L27.0007 26.142H34M21.3125 31.7145H34M22.6251 22.2855C22.6251 22.6264 22.4868 22.9534 22.2407 23.1945C21.9945 23.4356 21.6607 23.571 21.3125 23.571C20.9644 23.571 20.6306 23.4356 20.3844 23.1945C20.1383 22.9534 20 22.6264 20 22.2855C20 21.9446 20.1383 21.6176 20.3844 21.3765C20.6306 21.1354 20.9644 21 21.3125 21C21.6607 21 21.9945 21.1354 22.2407 21.3765C22.4868 21.6176 22.6251 21.9446 22.6251 22.2855ZM22.6251 31.7145C22.6251 32.0554 22.4868 32.3824 22.2407 32.6235C21.9945 32.8646 21.6607 33 21.3125 33C20.9644 33 20.6306 32.8646 20.3844 32.6235C20.1383 32.3824 20 32.0554 20 31.7145C20 31.3736 20.1383 31.0466 20.3844 30.8055C20.6306 30.5644 20.9644 30.429 21.3125 30.429C21.6607 30.429 21.9945 30.5644 22.2407 30.8055C22.4868 31.0466 22.6251 31.3736 22.6251 31.7145Z" stroke="white" stroke-width="1.5" stroke-linecap="round" stroke-linejoin="round"/>
</g>
<defs>
<clipPath id="clip0_3974_201">
<rect width="48" height="48" fill="white" transform="translate(13 13)"/>
</clipPath>
</defs>
</svg>
