<svg width="77" height="77" viewBox="0 0 77 77" fill="none" xmlns="http://www.w3.org/2000/svg">
<circle cx="38.5" cy="38.5" r="38" stroke="url(#paint0_linear_1001_3092)" stroke-dasharray="3 3"/>
<circle cx="38.5" cy="38.5" r="35" fill="url(#paint1_linear_1001_3092)"/>
<path d="M38.2019 30.2342L40.4303 28.0059C42.9394 25.4968 46.2242 24.4561 49.7006 24.286C51.0529 24.2198 51.7289 24.1868 52.271 24.7289C52.8133 25.2711 52.7801 25.9472 52.714 27.2993C52.5439 30.7758 51.5032 34.0606 48.9941 36.5697L46.7657 38.7981C44.9306 40.6332 44.4089 41.155 44.7941 43.1455C45.1744 44.6661 45.5423 46.1385 44.4367 47.2441C43.0955 48.5853 41.8721 48.5853 40.531 47.2441L29.7559 36.469C28.4147 35.1278 28.4147 33.9045 29.7559 32.5633C30.8615 31.4576 32.3339 31.8257 33.8545 32.2058C35.845 32.5911 36.3668 32.0693 38.2019 30.2342Z" stroke="white" stroke-width="2.25" stroke-linejoin="round"/>
<path d="M45.9941 31H46.0076" stroke="white" stroke-width="2.25" stroke-linejoin="round"/>
<path d="M24.25 52.75L31.75 45.25" stroke="white" stroke-width="2.25" stroke-linejoin="round"/>
<path d="M33.25 52.75L36.25 49.75" stroke="white" stroke-width="2.25" stroke-linejoin="round"/>
<path d="M24.25 43.75L27.25 40.75" stroke="white" stroke-width="2.25" stroke-linejoin="round"/>
<defs>
<linearGradient id="paint0_linear_1001_3092" x1="38.5" y1="0.5" x2="38.5" y2="76.5" gradientUnits="userSpaceOnUse">
<stop stop-color="#FF5E01"/>
<stop offset="1" stop-color="#FF9404"/>
</linearGradient>
<linearGradient id="paint1_linear_1001_3092" x1="38.5" y1="3.5" x2="38.5" y2="73.5" gradientUnits="userSpaceOnUse">
<stop stop-color="#FF5E01"/>
<stop offset="1" stop-color="#FF9404"/>
</linearGradient>
</defs>
</svg>
