<svg width="44" height="44" viewBox="0 0 44 44" fill="none" xmlns="http://www.w3.org/2000/svg">
<path d="M21.9989 9.16855C22.001 8.43527 21.8565 7.70897 21.5739 7.03235C21.2913 6.35573 20.8762 5.74246 20.353 5.22862C19.8299 4.71477 19.2093 4.31072 18.5277 4.04022C17.8462 3.76973 17.1174 3.63826 16.3843 3.65354C15.6512 3.66882 14.9285 3.83055 14.2588 4.1292C13.5891 4.42786 12.9859 4.85742 12.4846 5.39262C11.9834 5.92782 11.5942 6.55785 11.34 7.24566C11.0858 7.93347 10.9717 8.66517 11.0044 9.39772C9.92674 9.6748 8.9263 10.1935 8.0788 10.9145C7.2313 11.6354 6.55898 12.5398 6.11275 13.5591C5.66653 14.5784 5.4581 15.6859 5.50325 16.7976C5.54841 17.9094 5.84596 18.9963 6.37337 19.9761C5.44604 20.7294 4.71682 21.698 4.24916 22.7974C3.7815 23.8969 3.58956 25.094 3.69004 26.2845C3.79052 27.4751 4.18037 28.6231 4.82569 29.6286C5.471 30.6341 6.35223 31.4668 7.39271 32.054C7.26422 33.0482 7.3409 34.058 7.618 35.0213C7.8951 35.9846 8.36675 36.8809 9.00381 37.6548C9.64088 38.4287 10.4298 39.0638 11.3219 39.5208C12.2141 39.9778 13.1904 40.2471 14.1907 40.312C15.1909 40.3769 16.1939 40.2361 17.1376 39.8982C18.0813 39.5603 18.9457 39.0325 19.6774 38.3474C20.4092 37.6624 20.9927 36.8346 21.392 35.9152C21.7913 34.9958 21.9978 34.0043 21.9989 33.0019V9.16855Z" stroke="url(#paint0_linear_3015_3351)" stroke-width="2" stroke-linecap="round" stroke-linejoin="round"/>
<path d="M22 9.16855C21.9979 8.43527 22.1424 7.70897 22.425 7.03235C22.7076 6.35573 23.1227 5.74246 23.6459 5.22862C24.169 4.71477 24.7896 4.31072 25.4712 4.04022C26.1527 3.76973 26.8815 3.63826 27.6146 3.65354C28.3477 3.66882 29.0704 3.83055 29.7401 4.1292C30.4098 4.42786 31.013 4.85742 31.5143 5.39262C32.0155 5.92782 32.4047 6.55785 32.6589 7.24566C32.9131 7.93347 33.0272 8.66517 32.9945 9.39772C34.0722 9.6748 35.0726 10.1935 35.9201 10.9145C36.7676 11.6354 37.4399 12.5398 37.8861 13.5591C38.3324 14.5784 38.5408 15.6859 38.4956 16.7976C38.4505 17.9094 38.1529 18.9963 37.6255 19.9761C38.5529 20.7294 39.2821 21.698 39.7497 22.7974C40.2174 23.8969 40.4093 25.094 40.3089 26.2845C40.2084 27.4751 39.8185 28.6231 39.1732 29.6286C38.5279 30.6341 37.6467 31.4668 36.6062 32.054C36.7347 33.0482 36.658 34.058 36.3809 35.0213C36.1038 35.9846 35.6321 36.8809 34.9951 37.6548C34.358 38.4287 33.5691 39.0638 32.677 39.5208C31.7848 39.9778 30.8085 40.2471 29.8082 40.312C28.808 40.3769 27.805 40.2361 26.8613 39.8982C25.9176 39.5603 25.0532 39.0325 24.3215 38.3474C23.5897 37.6624 23.0062 36.8346 22.6069 35.9152C22.2076 34.9958 22.0011 34.0043 22 33.0019V9.16855Z" stroke="url(#paint1_linear_3015_3351)" stroke-width="2" stroke-linecap="round" stroke-linejoin="round"/>
<path d="M27.5 23.8333C25.9608 23.2919 24.6168 22.3062 23.6378 21.0008C22.6588 19.6955 22.0888 18.1292 22 16.5C21.9112 18.1292 21.3412 19.6955 20.3622 21.0008C19.3832 22.3062 18.0392 23.2919 16.5 23.8333" stroke="url(#paint2_linear_3015_3351)" stroke-width="2" stroke-linecap="round" stroke-linejoin="round"/>
<path d="M32.2656 11.9154C32.7093 11.1464 32.9603 10.2815 32.9971 9.39453" stroke="url(#paint3_linear_3015_3351)" stroke-width="2.75" stroke-linecap="round" stroke-linejoin="round"/>
<path d="M11.0039 9.39453C11.0402 10.2814 11.2905 11.1463 11.7336 11.9154" stroke="url(#paint4_linear_3015_3351)" stroke-width="2.75" stroke-linecap="round" stroke-linejoin="round"/>
<path d="M6.375 19.976C6.71039 19.7028 7.06929 19.4599 7.4475 19.25" stroke="url(#paint5_linear_3015_3351)" stroke-width="2.75" stroke-linecap="round" stroke-linejoin="round"/>
<path d="M36.5547 19.25C36.9329 19.4599 37.2918 19.7028 37.6272 19.976" stroke="url(#paint6_linear_3015_3351)" stroke-width="2.75" stroke-linecap="round" stroke-linejoin="round"/>
<path d="M11.0007 33.0007C9.73722 33.0013 8.49502 32.6754 7.39453 32.0547" stroke="url(#paint7_linear_3015_3351)" stroke-width="2.75" stroke-linecap="round" stroke-linejoin="round"/>
<path d="M36.6062 32.0547C35.5057 32.6754 34.2635 33.0013 33 33.0007" stroke="url(#paint8_linear_3015_3351)" stroke-width="2.75" stroke-linecap="round" stroke-linejoin="round"/>
<defs>
<linearGradient id="paint0_linear_3015_3351" x1="12.8315" y1="3.65234" x2="12.8315" y2="40.3274" gradientUnits="userSpaceOnUse">
<stop stop-color="#FF5D00"/>
<stop offset="1" stop-color="#FF9404"/>
</linearGradient>
<linearGradient id="paint1_linear_3015_3351" x1="31.1674" y1="3.65234" x2="31.1674" y2="40.3274" gradientUnits="userSpaceOnUse">
<stop stop-color="#FF5D00"/>
<stop offset="1" stop-color="#FF9404"/>
</linearGradient>
<linearGradient id="paint2_linear_3015_3351" x1="22" y1="16.5" x2="22" y2="23.8333" gradientUnits="userSpaceOnUse">
<stop stop-color="#FF5D00"/>
<stop offset="1" stop-color="#FF9404"/>
</linearGradient>
<linearGradient id="paint3_linear_3015_3351" x1="32.6314" y1="9.39453" x2="32.6314" y2="11.9154" gradientUnits="userSpaceOnUse">
<stop stop-color="#FF5D00"/>
<stop offset="1" stop-color="#FF9404"/>
</linearGradient>
<linearGradient id="paint4_linear_3015_3351" x1="11.3687" y1="9.39453" x2="11.3687" y2="11.9154" gradientUnits="userSpaceOnUse">
<stop stop-color="#FF5D00"/>
<stop offset="1" stop-color="#FF9404"/>
</linearGradient>
<linearGradient id="paint5_linear_3015_3351" x1="6.91125" y1="19.25" x2="6.91125" y2="19.976" gradientUnits="userSpaceOnUse">
<stop stop-color="#FF5D00"/>
<stop offset="1" stop-color="#FF9404"/>
</linearGradient>
<linearGradient id="paint6_linear_3015_3351" x1="37.0909" y1="19.25" x2="37.0909" y2="19.976" gradientUnits="userSpaceOnUse">
<stop stop-color="#FF5D00"/>
<stop offset="1" stop-color="#FF9404"/>
</linearGradient>
<linearGradient id="paint7_linear_3015_3351" x1="9.19761" y1="32.0547" x2="9.19761" y2="33.0007" gradientUnits="userSpaceOnUse">
<stop stop-color="#FF5D00"/>
<stop offset="1" stop-color="#FF9404"/>
</linearGradient>
<linearGradient id="paint8_linear_3015_3351" x1="34.8031" y1="32.0547" x2="34.8031" y2="33.0007" gradientUnits="userSpaceOnUse">
<stop stop-color="#FF5D00"/>
<stop offset="1" stop-color="#FF9404"/>
</linearGradient>
</defs>
</svg>
