<svg width="55" height="55" viewBox="0 0 55 55" fill="none" xmlns="http://www.w3.org/2000/svg">
<rect width="54.9791" height="54.9791" rx="27.4896" fill="url(#paint0_linear_3964_540)"/>
<path d="M32.3594 27.3242C32.3594 29.7405 30.4006 31.6992 27.9844 31.6992C25.5681 31.6992 23.6094 29.7405 23.6094 27.3242C23.6094 24.908 25.5681 22.9492 27.9844 22.9492C30.4006 22.9492 32.3594 24.908 32.3594 27.3242Z" stroke="white" stroke-width="1.8"/>
<path d="M39.2481 29.9467C39.9005 29.7708 40.2267 29.6828 40.3555 29.5146C40.4844 29.3464 40.4844 29.0758 40.4844 28.5347V26.1176C40.4844 25.5764 40.4844 25.3058 40.3555 25.1377C40.2266 24.9694 39.9005 24.8814 39.2481 24.7055C36.8101 24.0481 35.2842 21.4992 35.9135 19.0772C36.0865 18.4111 36.173 18.078 36.0904 17.8827C36.0077 17.6873 35.7707 17.5527 35.2965 17.2835L33.1406 16.0595C32.6754 15.7953 32.4427 15.6632 32.234 15.6913C32.0251 15.7195 31.7896 15.9545 31.3184 16.4245C29.4944 18.2442 26.4764 18.2441 24.6523 16.4244C24.1812 15.9544 23.9456 15.7194 23.7368 15.6912C23.528 15.6631 23.2953 15.7952 22.83 16.0594L20.6742 17.2834C20.2 17.5526 19.963 17.6872 19.8803 17.8825C19.7977 18.0778 19.8842 18.4109 20.0572 19.0771C20.6861 21.4992 19.159 24.0481 16.7207 24.7056C16.0683 24.8814 15.7421 24.9694 15.6132 25.1376C15.4844 25.3058 15.4844 25.5764 15.4844 26.1176V28.5347C15.4844 29.0758 15.4844 29.3464 15.6132 29.5146C15.7421 29.6828 16.0683 29.7708 16.7207 29.9467C19.1586 30.6042 20.6845 33.1531 20.0553 35.5751C19.8822 36.2412 19.7957 36.5742 19.8783 36.7696C19.9609 36.9649 20.198 37.0996 20.6722 37.3687L22.8281 38.5928C23.2934 38.8569 23.526 38.9891 23.7349 38.9609C23.9437 38.9328 24.1792 38.6977 24.6503 38.2277C26.4752 36.4066 29.4954 36.4064 31.3205 38.2276C31.7915 38.6977 32.027 38.9327 32.2359 38.9608C32.4446 38.9889 32.6774 38.8568 33.1426 38.5927L35.2985 37.3686C35.7727 37.0994 36.0099 36.9648 36.0924 36.7694C36.175 36.5741 36.0885 36.2411 35.9154 35.5749C35.2859 33.1531 36.8105 30.6043 39.2481 29.9467Z" stroke="white" stroke-width="1.8"/>
<defs>
<linearGradient id="paint0_linear_3964_540" x1="27.4896" y1="0" x2="27.4896" y2="54.9791" gradientUnits="userSpaceOnUse">
<stop stop-color="#FF5E01"/>
<stop offset="1" stop-color="#FF9404"/>
</linearGradient>
</defs>
</svg>
