<svg width="80" height="80" viewBox="0 0 80 80" fill="none" xmlns="http://www.w3.org/2000/svg">
<circle cx="40" cy="40" r="40" fill="url(#paint0_linear_3971_143)"/>
<path d="M57.8854 49.6708C56.5728 41.7732 52.4864 35.8923 48.934 32.438C47.9002 31.4328 47.3834 30.9303 46.2416 30.4651C45.0998 30 44.1184 30 42.1556 30H37.8444C35.8816 30 34.9002 30 33.7584 30.4651C32.6167 30.9303 32.0998 31.4328 31.0661 32.438C27.5136 35.8923 23.4272 41.7732 22.1145 49.6708C21.1379 55.5468 26.5585 60 32.6166 60H47.3834C53.4414 60 58.8622 55.5468 57.8854 49.6708Z" stroke="white" stroke-width="2.5" stroke-linecap="round" stroke-linejoin="round"/>
<path d="M30.5132 24.8857C30.1006 24.2852 29.5026 23.47 30.738 23.2841C32.0078 23.093 33.3264 23.9623 34.6171 23.9444C35.7847 23.9283 36.3796 23.4104 37.0178 22.671C37.6898 21.8923 38.7304 20 40 20C41.2696 20 42.3102 21.8923 42.9822 22.671C43.6204 23.4104 44.2152 23.9283 45.3828 23.9444C46.6736 23.9623 47.9922 23.093 49.262 23.2841C50.4974 23.47 49.8994 24.2852 49.4868 24.8857L47.621 27.6013C46.823 28.7629 46.424 29.3437 45.5888 29.6719C44.7538 30 43.6746 30 41.5164 30H38.4836C36.3254 30 35.2462 30 34.4111 29.6719C33.576 29.3437 33.177 28.7629 32.3789 27.6013L30.5132 24.8857Z" stroke="white" stroke-width="2.5" stroke-linecap="round" stroke-linejoin="round"/>
<path d="M43.2495 41.8362C42.8171 40.24 40.6163 38.7996 37.9745 39.8772C35.3327 40.9546 34.913 44.4216 38.9091 44.79C40.7151 44.9564 41.8927 44.5968 42.9707 45.6142C44.0489 46.6314 44.2491 49.4606 41.4931 50.223C38.7371 50.9854 36.0081 49.7942 35.7109 48.1024M39.6795 37.9844V39.5052M39.6795 50.4576V51.9844" stroke="white" stroke-width="2.5" stroke-linecap="round" stroke-linejoin="round"/>
<defs>
<linearGradient id="paint0_linear_3971_143" x1="40" y1="0" x2="40" y2="80" gradientUnits="userSpaceOnUse">
<stop stop-color="#FF5E01"/>
<stop offset="1" stop-color="#FF9404"/>
</linearGradient>
</defs>
</svg>
