<svg width="31" height="43" viewBox="0 0 31 43" fill="none" xmlns="http://www.w3.org/2000/svg">
<path d="M29.9578 20.2618C29.9578 28.59 23.3548 35.3477 15.205 35.3477C7.05524 35.3477 0.452148 28.59 0.452148 20.2618C0.452148 11.9335 7.05524 5.17578 15.205 5.17578C23.3548 5.17578 29.9578 11.9335 29.9578 20.2618Z" fill="#D33833"/>
<path d="M1.05849 23.9974C1.05849 23.9974 -0.0122804 8.26898 14.4907 7.81688L13.4794 6.12744L5.61522 8.76868L3.3666 11.3504L1.40352 15.11L0.285156 19.4883L0.618285 22.4151" fill="#EF3D3A"/>
<path d="M5.10401 9.97019C2.52226 12.6233 0.916104 16.2758 0.916104 20.321C0.916104 24.3661 2.52226 28.0186 5.10401 30.6718C7.69766 33.3249 11.255 34.9548 15.205 34.9548C19.1549 34.9548 22.7122 33.3249 25.3059 30.6718C27.8876 28.0186 29.4938 24.3661 29.4938 20.321C29.4938 16.2758 27.8876 12.6233 25.3059 9.97019C22.7122 7.32895 19.1549 5.6871 15.205 5.6871C11.2669 5.6871 7.69766 7.31705 5.10401 9.97019ZM4.44965 31.3023C1.70134 28.4945 0 24.6041 0 20.321C0 16.0379 1.70134 12.1474 4.44965 9.32772C7.19796 6.51992 11.0051 4.771 15.205 4.771C19.4048 4.771 23.2119 6.51992 25.9603 9.32772C28.7086 12.1355 30.4099 16.026 30.4099 20.321C30.4099 24.6041 28.7086 28.4945 25.9603 31.3023C23.2119 34.122 19.4048 35.8591 15.205 35.8591C11.0051 35.8591 7.19796 34.122 4.44965 31.3023Z" fill="#231F20"/>
<path d="M21.4158 20.3447L19.1672 20.6778L16.1333 21.0228L14.1702 21.0704L12.2547 21.0109L10.7913 20.5588L9.49452 19.1549L8.48324 16.2877L8.25718 15.669L6.91277 15.2169L6.12754 13.9201L5.56836 12.0641L6.18703 10.4341L7.65041 9.92251L8.82826 10.4817L9.38744 11.719L10.0656 11.612L10.2917 11.3264L10.0656 10.0296L10.0061 8.39964L10.3392 6.15102L10.3273 4.86609L11.3505 3.22424L13.147 1.92742L16.288 0.583008L19.7739 1.0946L22.8078 3.28373L24.2117 5.53235L25.1159 7.1623L25.3419 11.2074L24.6638 14.6934L23.4264 17.7867L22.2605 19.4405" fill="#F0D6B7"/>
<path d="M19.5117 30.0652L11.4809 30.3983V31.7427L12.159 36.466L11.8259 36.8587L6.2103 34.9432L5.81768 34.265L5.2585 27.9118L3.93788 24.1046L3.65234 23.2004L8.14958 20.107L9.55348 19.5479L10.7908 21.0707L11.8616 22.0225L13.0989 22.4151L13.6581 22.5817L14.3363 25.5085L14.8479 26.1271L16.1447 25.675L15.2405 27.424L20.1184 29.7321L19.5117 30.0652Z" fill="#335061"/>
<path d="M6.18699 10.4582L7.65038 9.94657L8.82822 10.5057L9.38741 11.7431L10.0656 11.636L10.2321 10.9579L9.899 9.66103L10.2321 6.56769L9.94659 4.87825L10.9579 3.7004L13.147 1.96337L12.5283 1.11865L9.435 2.64153L8.13817 3.65281L7.41243 5.22328L6.29407 6.74615L5.96094 8.54267L6.18699 10.4582Z" fill="#6D6B6D"/>
<path d="M8.49506 5.17561C8.49506 5.17561 9.33978 3.09356 12.7068 2.08227C16.0737 1.07099 12.8733 1.35653 12.8733 1.35653L9.22081 2.76043L7.81691 4.16433L7.19824 5.28269L8.49506 5.17561Z" fill="#DCD9D8"/>
<path d="M6.80566 10.0655C6.80566 10.0655 5.62781 6.12747 10.125 5.56829L9.95848 4.89014L6.86514 5.61588L5.96094 8.54266L6.18699 10.4581L6.80566 10.0655Z" fill="#DCD9D8"/>
<path d="M8.60156 15.2886L9.3392 14.5747C9.3392 14.5747 9.67233 14.6104 9.73182 15.003C9.79131 15.3956 9.95787 18.9411 12.3731 20.8447C12.5991 21.0231 10.5765 20.5591 10.5765 20.5591L8.78002 17.7513" fill="#F7E4CD"/>
<path d="M18.9408 14.2178C18.9408 14.2178 19.0716 12.5164 19.5356 12.6473C19.9996 12.7782 19.9996 13.2422 19.9996 13.2422C19.9996 13.2422 18.8813 13.956 18.9408 14.2178Z" fill="#F7E4CD"/>
<path d="M23.6047 7.9834C23.6047 7.9834 22.6767 8.17376 22.5934 8.99468C22.5101 9.81561 23.6047 9.16125 23.7712 9.10176" fill="#F7E4CD"/>
<path d="M16.8116 8.04297C16.8116 8.04297 15.5742 8.20953 15.5742 8.99477C15.5742 9.78 16.9781 9.72051 17.3707 9.38738" fill="#F7E4CD"/>
<path d="M9.17303 11.6954C9.17303 11.6954 7.04338 10.3986 6.81733 11.6359C6.59128 12.8732 6.09159 13.7655 7.15046 15.0624L6.42471 14.8363L5.74656 13.0993L5.52051 11.4098L6.81733 10.0654L8.28072 10.1725L9.12544 10.8507L9.17303 11.6954Z" fill="#F7E4CD"/>
<path d="M10.1846 8.14991C10.1846 8.14991 11.1364 3.20057 15.9667 2.24877C19.9405 1.46354 22.0344 2.41534 22.8197 3.31954C22.8197 3.31954 19.2742 -0.892158 15.9072 0.392767C12.5403 1.68959 10.0656 4.04529 10.1251 5.55626C10.2203 8.14991 10.1846 8.14991 10.1846 8.14991Z" fill="#F7E4CD"/>
<path d="M23.2119 3.87875C23.2119 3.87875 21.5819 3.81927 21.5225 5.28265C21.5225 5.28265 21.5225 5.50871 21.6295 5.73476C21.6295 5.73476 22.9264 4.27137 23.7116 5.0566" fill="#F7E4CD"/>
<path d="M16.0857 5.88925C16.0857 5.88925 15.8001 3.65252 13.8965 4.94935C12.6592 5.79407 12.7782 6.97192 12.9923 7.19797C13.2184 7.42402 13.1589 7.87612 13.3255 7.56679C13.492 7.25745 13.4444 6.24617 14.0631 5.96063C14.6699 5.67509 15.693 5.36576 16.0857 5.88925Z" fill="#F7E4CD"/>
<path d="M10.8025 21.0705L5.52007 23.4262C5.52007 23.4262 7.7092 32.1351 6.59084 34.8358L5.8056 34.5503L5.74612 31.2309L4.28273 24.949L3.66406 23.212L9.17259 19.5L10.8025 21.0705Z" fill="#49728B"/>
<path d="M11.3387 25.8892L12.0883 26.8053V30.1722H11.1959C11.1959 30.1722 11.0889 27.8165 11.0889 27.531C11.0889 27.2455 11.1959 26.2342 11.1959 26.2342" fill="#49728B"/>
<path d="M11.3623 30.6836L8.82812 30.7907L9.55387 31.3023L11.3504 31.5878" fill="#49728B"/>
<path d="M20.0117 30.1244L22.0938 30.0649L22.6054 35.2284L20.4757 35.514L20.0117 30.1244Z" fill="#335061"/>
<path d="M20.5703 30.1245L23.7112 29.9579C23.7112 29.9579 25.0081 26.698 25.0081 26.5315C25.0081 26.3649 26.1264 21.8082 26.1264 21.8082L23.5923 19.1669L23.0807 18.7148L21.7363 20.0593V25.2822L20.5703 30.1245Z" fill="#335061"/>
<path d="M21.9748 29.7319L20.0117 30.1245L20.2973 31.695C21.023 32.0281 22.2603 31.1358 22.2603 31.1358" fill="#49728B"/>
<path d="M22.0342 19.8925L25.9722 22.8193L26.0793 21.4749L23.105 18.7266L22.0342 19.8925Z" fill="#49728B"/>
<path d="M13.3129 41.1893L12.1469 36.466L11.5639 32.9801L11.4688 30.3983L16.7393 30.1128H20.0111L19.7137 36.0139L20.2253 40.5707L20.1658 41.4154L15.8946 41.7485L13.3129 41.1893Z" fill="white"/>
<path d="M19.2854 30.0651C19.2854 30.0651 18.9999 35.9067 19.8446 40.0708C19.8446 40.0708 18.1552 41.1416 15.6924 41.4152L20.4157 41.2487L20.9749 40.9155L20.2967 31.7069L20.1182 29.7319" fill="#DCD9D8"/>
<path d="M22.6886 34.7882L24.8778 34.1695L29.03 33.9434L29.6486 32.0279L28.5303 28.7086L27.2335 28.542L25.4369 29.1012L23.7237 29.9459L22.8076 29.7793L22.0938 30.0649" fill="white"/>
<path d="M22.6523 33.6582C22.6523 33.6582 24.1157 32.98 24.3418 33.0395L23.7231 29.9462L24.4489 29.6606C24.4489 29.6606 24.9605 32.5874 24.9605 32.9205C24.9605 32.9205 28.1014 33.0871 28.3869 33.0871C28.3869 33.0871 29.0651 31.7903 28.8985 30.4459L29.5172 32.2424L29.5767 33.2537L28.6725 34.5981L27.6612 34.8241L25.9717 34.7647L25.4126 34.0389L23.4495 34.3244L22.8308 34.5505" fill="#DCD9D8"/>
<path d="M20.4394 29.6723L19.2021 26.5314L17.9053 24.6754C17.9053 24.6754 18.1908 23.8901 18.5834 23.8901H19.8803L21.1176 24.3422L21.0105 26.4243L20.4394 29.6723Z" fill="white"/>
<path d="M20.6896 28.6015C20.6896 28.6015 19.1191 25.5677 19.1191 25.1156C19.1191 25.1156 19.4046 24.4374 19.7972 24.604C20.1899 24.7706 21.0346 25.2227 21.0346 25.2227V24.1519L19.1191 23.7593L17.8223 23.9258L20.0114 29.1131L20.4635 29.1726" fill="#DCD9D8"/>
<path d="M13.813 21.1895L12.2544 21.0229L10.791 20.5708V21.0824L11.5049 21.8676L13.7535 22.8789" fill="white"/>
<path d="M11.3021 21.356C11.3021 21.356 13.0392 22.0817 13.6102 21.9151L13.6697 22.5933L12.0993 22.2602L11.1475 21.582L11.3021 21.356Z" fill="#DCD9D8"/>
<path d="M22.6885 24.0808C21.7367 24.057 20.8682 23.938 20.1186 23.7238C20.1662 23.4145 20.071 23.1171 20.1543 22.891C20.3685 22.7364 20.7135 22.7364 21.0347 22.7007C20.7611 22.5698 20.3685 22.5103 20.0591 22.5936C20.0472 22.3794 19.9521 22.2486 19.8926 22.082C20.428 21.8916 21.6891 20.6424 22.4029 21.0469C22.748 21.2492 22.8907 22.3675 22.9145 22.9267C22.9383 23.3788 22.8669 23.8309 22.6885 24.0808Z" fill="#D33833"/>
<path d="M22.6885 24.0808C21.7367 24.057 20.8682 23.938 20.1186 23.7238C20.1662 23.4145 20.071 23.1171 20.1543 22.891C20.3685 22.7364 20.7135 22.7364 21.0347 22.7007C20.7611 22.5698 20.3685 22.5103 20.0591 22.5936C20.0472 22.3794 19.9521 22.2486 19.8926 22.082C20.428 21.8916 21.6891 20.6424 22.4029 21.0469C22.748 21.2492 22.8907 22.3675 22.9145 22.9267C22.9383 23.3788 22.8669 23.8309 22.6885 24.0808Z" fill="black" stroke="#D33833" stroke-width="3.83693"/>
<path d="M18.1321 22.5219C18.1321 22.5933 18.132 22.6647 18.1202 22.736C17.8227 22.9264 17.3468 22.9264 17.0137 23.093C17.4896 23.1168 17.8703 23.2357 18.2034 23.3904C18.1915 23.5689 18.1915 23.7592 18.1796 23.9377C17.6324 24.3065 17.1327 24.8657 16.4902 25.2226C16.1809 25.3892 15.122 25.8175 14.8008 25.7342C14.6223 25.6866 14.5985 25.4606 14.5271 25.2464C14.3725 24.7943 14.0155 24.0567 13.9798 23.3666C13.9441 22.4981 13.849 21.0347 14.7889 21.2132C15.5503 21.3559 16.4307 21.701 17.0137 22.0222C17.3825 22.2364 17.5848 22.4743 18.1321 22.5219Z" fill="#D33833"/>
<path d="M18.1321 22.5219C18.1321 22.5933 18.132 22.6647 18.1202 22.736C17.8227 22.9264 17.3468 22.9264 17.0137 23.093C17.4896 23.1168 17.8703 23.2357 18.2034 23.3904C18.1915 23.5689 18.1915 23.7592 18.1796 23.9377C17.6324 24.3065 17.1327 24.8657 16.4902 25.2226C16.1809 25.3892 15.122 25.8175 14.8008 25.7342C14.6223 25.6866 14.5985 25.4606 14.5271 25.2464C14.3725 24.7943 14.0155 24.0567 13.9798 23.3666C13.9441 22.4981 13.849 21.0347 14.7889 21.2132C15.5503 21.3559 16.4307 21.701 17.0137 22.0222C17.3825 22.2364 17.5848 22.4743 18.1321 22.5219Z" fill="black" stroke="#D33833" stroke-width="3.83693"/>
<path d="M18.6671 23.5572C18.5838 23.0813 18.4886 22.9504 18.5243 22.534C19.7973 21.6893 20.0234 23.9855 18.6671 23.5572Z" fill="#D33833"/>
<path d="M18.6671 23.5572C18.5838 23.0813 18.4886 22.9504 18.5243 22.534C19.7973 21.6893 20.0234 23.9855 18.6671 23.5572Z" fill="black" stroke="#D33833" stroke-width="3.83693"/>
<path d="M20.4989 23.938C20.4989 23.938 20.1063 23.3788 20.3918 23.2122C20.6774 23.0457 20.951 23.2122 21.1176 22.9267C21.2842 22.6411 21.1176 22.4746 21.1771 22.1414C21.2366 21.8083 21.5102 21.7488 21.7957 21.6893C22.0813 21.6299 22.8665 21.5228 22.9736 21.7964L22.6405 20.7851L21.9623 20.5591L19.8327 21.7964L19.7256 22.4151V23.6524" fill="#EF3D3A"/>
<path d="M14.5986 25.7937C14.5273 24.9133 14.4559 24.0448 14.3845 23.1644C14.2655 21.8556 14.6938 22.0817 15.836 22.0817C16.0144 22.0817 16.9068 22.2839 16.9662 22.4148C17.2756 23.0454 16.4546 22.9026 17.3232 23.3785C18.0489 23.7711 19.3457 23.1406 19.0483 22.2483C18.8817 22.046 18.1917 22.1888 17.9418 22.0579C17.5016 21.8318 17.0614 21.6058 16.6212 21.3797C16.062 21.0942 14.7771 20.6659 14.1822 21.0704C12.6713 22.0936 14.2774 24.6634 14.8128 25.7342" fill="#EF3D3A"/>
<path d="M16.0856 5.88931C14.5508 5.53239 13.7894 6.53177 13.3254 7.56685C12.909 7.47167 13.0756 6.90059 13.1826 6.61506C13.4563 5.86552 14.5627 4.85423 15.467 4.997C15.8477 5.04459 16.3712 5.40151 16.0856 5.88931Z" fill="#231F20"/>
<path d="M23.5451 7.62646H23.6164C23.9615 8.34031 24.2589 9.10175 24.6991 9.74421C24.4017 10.4343 22.4862 11.0291 22.51 9.8156C22.9264 9.63714 23.6402 9.7799 24.0091 9.54196C23.7949 8.95898 23.4975 8.45929 23.5451 7.62646Z" fill="#231F20"/>
<path d="M16.8587 7.65039C17.1918 8.25716 17.2989 8.88773 17.7629 9.33983C17.977 9.54209 18.3816 9.79193 18.1793 10.363C18.1317 10.4939 17.7867 10.7913 17.5844 10.8508C16.8587 11.065 15.1574 10.8984 15.7284 9.98229C16.3352 10.0061 17.1442 10.3749 17.5963 9.9347C17.2513 9.38742 16.6326 8.29285 16.8587 7.65039Z" fill="#231F20"/>
<path d="M23.2713 13.7656C22.1768 14.4675 20.9513 15.2409 19.1429 15.0624C18.7622 14.7293 18.6075 13.9797 18.9882 13.492C19.1786 13.8251 19.0596 14.4438 19.6069 14.5389C20.6301 14.7174 21.8198 13.9084 22.5575 13.6347C23.0096 12.8614 22.5218 12.5877 22.1054 12.0881C21.2607 11.0768 20.1423 9.81564 20.178 8.30466C20.523 8.05482 20.5468 8.68538 20.5944 8.79246C21.0346 9.81564 22.1411 11.1363 22.9382 12.0167C23.1405 12.2308 23.4617 12.445 23.4974 12.5877C23.6044 12.9923 23.2237 13.492 23.2713 13.7656Z" fill="#231F20"/>
<path d="M8.78039 13.028C8.43537 12.8258 8.35208 11.9691 7.94757 11.9454C7.3646 11.9097 7.47167 13.0637 7.47167 13.7419C7.07906 13.3849 7.00767 12.2666 7.29321 11.6955C6.96008 11.5289 6.81731 11.874 6.62695 11.9929C6.8768 10.2678 9.16111 11.1958 8.78039 13.028Z" fill="#231F20"/>
<path d="M23.9611 14.4912C23.4495 15.4668 22.7238 16.5376 21.2247 16.5733C21.189 16.2639 21.1652 15.7761 21.2247 15.5858C22.3788 15.4668 23.0926 14.8838 23.9611 14.4912Z" fill="#231F20"/>
<path d="M16.7754 15.1221C17.7272 15.6218 19.488 15.6813 20.7967 15.6456C20.8681 15.9311 20.8681 16.288 20.8681 16.633C19.1906 16.7044 17.2156 16.288 16.7754 15.1221Z" fill="#231F20"/>
<path d="M16.5967 16.0498C17.2629 17.7154 19.5353 17.5251 21.4508 17.4775C21.3676 17.6917 21.1891 17.9534 20.9511 18.0367C20.3325 18.2865 18.643 18.4769 17.7864 18.0248C17.251 17.7392 16.8941 17.0849 16.5967 16.7042C16.4658 16.5257 15.752 16.0617 16.5967 16.0498Z" fill="#231F20"/>
<path d="M23.188 25.2228C22.4147 26.5553 21.6651 27.9235 20.749 29.0895C21.1297 27.9592 21.2963 26.0556 21.3558 24.6041C22.1648 24.2234 22.8549 24.6874 23.188 25.2228Z" fill="#81B0C4"/>
<path d="M27.3641 30.0054C26.4956 30.1838 25.8888 31.0286 25.0322 30.9691C25.5081 30.3147 26.3172 30.0292 27.3641 30.0054Z" fill="#231F20"/>
<path d="M27.7449 31.362C27.031 31.4333 26.1982 31.5523 25.4844 31.4928C25.8294 30.9693 27.1381 31.1597 27.7449 31.362Z" fill="#231F20"/>
<path d="M27.9943 32.5397C27.1972 32.5516 26.2097 32.5397 25.4482 32.4802C25.9003 31.9924 27.4827 32.3017 27.9943 32.5397Z" fill="#231F20"/>
<path d="M21.6893 35.7523C21.8083 36.7517 22.2009 37.763 22.1534 38.8575C21.7131 39.0003 21.4633 39.1312 20.8684 39.1312C20.8327 38.2032 20.7019 36.7755 20.7376 35.8832C21.0231 35.9069 21.4514 35.6809 21.6893 35.7523Z" fill="#DCD9D8"/>
<path d="M20.4045 20.999C20 21.2608 19.6669 21.582 19.2742 21.8675C18.4176 21.9151 17.9536 21.808 17.335 21.3203C17.3469 21.2846 17.4063 21.2965 17.4063 21.2489C18.3225 21.6534 19.4884 21.0823 20.4045 20.999Z" fill="#F0D6B7"/>
<path d="M15.6211 27.2218C15.8709 26.1391 16.8584 25.568 17.7507 24.9731C18.6668 26.1391 19.226 27.6382 19.8447 29.0897C18.3813 28.6495 16.8941 27.9475 15.6211 27.2218Z" fill="#81B0C4"/>
<path d="M20.7368 35.8948C20.7012 36.7871 20.8201 38.2029 20.8677 39.1428C21.4626 39.1428 21.7124 39.012 22.1526 38.8692C22.2002 37.7746 21.8076 36.7634 21.6886 35.764C21.4507 35.6807 21.0224 35.9067 20.7368 35.8948ZM11.552 30.8503C11.9446 34.4314 12.5038 37.4296 13.5389 40.6062C15.8351 41.3082 18.5953 41.3677 20.6298 40.7371C20.2609 38.9525 20.4156 36.7752 20.2015 34.8598C20.0349 33.4202 20.1182 31.9806 19.8921 30.5172C17.4294 30.0056 13.9553 30.3982 11.552 30.8503ZM20.4751 30.541C20.4513 32.0758 20.5465 33.5986 20.6655 35.1334C21.2603 35.0501 21.6529 34.9906 22.2002 34.8598C22.0218 33.3845 22.0456 31.7069 21.6767 30.3982C21.2603 30.4101 20.8915 30.3982 20.4751 30.541ZM23.4614 30.2911C23.1758 30.2316 22.8546 30.2911 22.5928 30.2911C22.7237 31.5404 23.0212 32.9205 23.1282 34.2411C23.5446 34.253 23.7707 34.0507 24.1157 33.9912C24.1395 32.8372 24.0205 31.2429 23.4614 30.2911ZM27.9943 34.4314C28.8747 34.2173 29.422 33.1465 29.1721 32.0401C29.0056 31.3024 28.72 29.8985 28.3988 29.4226C28.1728 29.0776 27.5422 28.6136 27.0306 28.9348C26.2097 29.4583 24.7701 29.613 24.1752 30.2435C24.4726 31.2429 24.5678 32.5992 24.6868 33.8604C25.71 33.9199 26.9592 33.5748 27.8158 33.9437C27.221 34.134 26.4595 34.134 25.9479 34.4196C26.3762 34.6218 27.3518 34.5861 27.9943 34.4314ZM19.8326 29.0895C19.214 27.638 18.6548 26.1389 17.7387 24.973C16.8464 25.5678 15.8708 26.1389 15.609 27.2216C16.894 27.9473 18.3811 28.6493 19.8326 29.0895ZM21.3555 24.6041C21.296 26.0556 21.1295 27.9592 20.7487 29.0895C21.6648 27.9116 22.4144 26.5553 23.1877 25.2228C22.8546 24.6874 22.1645 24.2234 21.3555 24.6041ZM19.6304 23.9974C19.2854 23.9617 18.9879 24.4019 18.5358 24.2115C18.4287 24.3305 18.3336 24.4495 18.2265 24.5685C19.2259 25.782 19.6899 27.4952 20.4632 28.911C20.8796 27.5428 20.832 26.0556 20.9272 24.5685C20.3561 24.5922 20.0349 24.0331 19.6304 23.9974ZM18.5239 22.534C18.4882 22.9504 18.5834 23.0813 18.6667 23.5572C20.023 23.9855 19.7969 21.6893 18.5239 22.534ZM17.0129 22.0343C16.43 21.7131 15.5496 21.368 14.7881 21.2253C13.8482 21.0468 13.9434 22.5102 13.9791 23.3787C14.0148 24.0688 14.3717 24.7945 14.5264 25.2585C14.5978 25.4727 14.6215 25.6987 14.8 25.7463C15.1212 25.8177 16.192 25.4013 16.4895 25.2347C17.1319 24.8897 17.6316 24.3305 18.1789 23.9498C18.1908 23.7713 18.1908 23.581 18.2027 23.4025C17.8696 23.2359 17.5007 23.1289 17.0129 23.1051C17.3342 22.9385 17.822 22.9385 18.1194 22.7481C18.1194 22.6768 18.1194 22.6054 18.1313 22.534C17.584 22.4745 17.3818 22.2366 17.0129 22.0343ZM11.4211 21.023C10.9333 21.5227 12.7893 22.189 13.3723 22.2247C13.3723 21.9153 13.5508 21.6179 13.5151 21.3918C12.8131 21.2729 11.897 21.3561 11.4211 21.023ZM17.4175 21.2491C17.4175 21.2967 17.358 21.2848 17.3461 21.3204C17.9766 21.8082 18.4406 21.9153 19.2854 21.8677C19.6661 21.5941 20.0111 21.261 20.4156 20.9992C19.4876 21.0825 18.3217 21.6536 17.4175 21.2491ZM22.9141 22.9147C22.8903 22.3674 22.7475 21.2372 22.4025 21.0349C21.6886 20.6185 20.4275 21.8796 19.8921 22.07C19.9516 22.2366 20.0468 22.3674 20.0587 22.5816C20.3799 22.4983 20.7606 22.5578 21.0343 22.6887C20.713 22.7243 20.368 22.7243 20.1539 22.879C20.0825 23.1051 20.1777 23.4025 20.1182 23.7118C20.8677 23.926 21.7362 24.0331 22.688 24.0688C22.8665 23.8308 22.9379 23.3787 22.9141 22.9147ZM10.6002 21.4989C10.4455 21.3918 9.41046 20.0474 9.26769 20.1069C7.39979 20.8445 5.65087 22.1176 4.0923 23.3311C5.57948 26.5315 6.18625 30.4458 6.29333 34.2173C7.99467 35.0144 9.49375 36.1685 11.8137 36.2874C11.5401 34.3958 11.3022 32.6944 11.1475 30.9098C10.5645 30.66 9.73169 30.9217 9.18441 30.8384C9.18441 30.1841 10.0172 30.5529 10.0886 30.1127C10.1362 29.7795 9.62462 29.7557 9.79118 29.2323C10.2195 29.3869 10.4455 29.732 10.8976 29.8628C11.3141 28.9586 10.8976 27.3525 10.9571 26.591C10.969 26.4483 11.0285 25.8058 11.3497 25.9129C11.6353 26.008 11.3379 27.638 11.3616 28.3518C11.3854 29.0181 11.2784 29.6487 11.552 30.0651C13.7887 29.7557 16.0611 29.5654 18.4882 29.494C17.9528 29.268 17.3223 29.0538 16.6322 28.6612C16.2515 28.447 15.0737 28.0068 14.9666 27.6499C14.7881 27.0788 15.4187 26.7814 15.5258 26.2936C14.3955 26.9123 14.1813 25.6987 13.9077 24.854C13.6698 24.0807 13.527 23.4977 13.4675 23.0575C12.48 22.5578 11.433 22.0938 10.6002 21.4989ZM21.9266 20.2616C23.4852 19.512 23.7707 23.0813 23.152 24.2353C23.2472 24.5804 23.5684 24.7112 23.6993 25.0206C22.8308 26.5791 21.8671 28.0306 20.9748 29.5654C21.6292 29.149 22.5809 29.494 23.3543 29.1847C23.6398 29.0776 23.8421 28.4232 24.0562 27.8997C24.6511 26.472 25.2698 24.6636 25.5434 23.3073C25.6029 22.998 25.7814 22.3198 25.7338 22.0462C25.6624 21.5465 24.9961 21.1777 24.6511 20.8802C24.0205 20.3092 23.6279 19.8214 22.9617 19.286C22.7118 19.6786 22.1407 19.9403 21.9266 20.2616ZM7.04287 6.44862C6.30523 7.26955 6.45989 8.79242 6.54317 9.88699C7.88759 9.04227 9.66031 9.95837 9.64841 11.3861C10.2909 11.3742 9.88636 10.5889 9.76739 10.0773C9.38667 8.4236 10.4098 6.63898 9.81498 5.12801C8.66092 5.22319 7.72102 5.68719 7.04287 6.44862ZM12.3491 1.70154C10.6716 2.17744 8.51815 3.40287 7.8281 4.91385C8.36349 4.83057 8.73231 4.56883 9.2558 4.53313C9.45805 4.52124 9.7198 4.61642 9.94585 4.55693C10.398 4.43795 10.7906 3.41477 11.1356 3.03405C11.4687 2.66523 11.8732 2.49867 12.1469 2.16554C12.3253 2.08226 12.5871 2.08226 12.599 1.82051C12.5276 1.73723 12.4443 1.67774 12.3491 1.70154ZM21.0938 2.15364C19.3448 1.16615 16.3943 0.42851 14.5383 1.35651C13.0392 2.10605 11.0166 3.34339 10.3266 4.90195C10.969 6.41293 10.1362 7.79304 10.0767 9.32781C10.0529 10.1487 10.4574 10.8507 10.4931 11.743C10.2671 12.1118 9.60082 12.1475 9.13682 12.1237C8.98215 11.3385 8.70851 10.4581 7.89949 10.3629C6.75733 10.232 5.91261 11.1838 5.86502 12.1713C5.80553 13.3373 6.75733 15.2646 8.11364 15.1338C8.63713 15.0862 8.768 14.5627 9.33908 14.5627C9.64841 15.1814 8.86318 15.3717 8.7799 15.8119C8.7561 15.9309 8.83939 16.3711 8.89887 16.5853C9.14872 17.5965 9.696 18.9172 10.2314 19.6905C10.9214 20.678 12.2659 20.8208 13.7173 20.9159C13.9791 20.3568 14.9309 20.4043 15.5496 20.5471C14.8 20.2497 14.11 19.5358 13.5389 18.9053C12.8845 18.1795 12.2183 17.4062 12.1826 16.4544C13.4318 18.1795 14.455 19.6905 16.7155 20.4519C18.4287 21.023 20.4275 20.1902 21.7481 19.2622C22.2954 18.8815 22.6166 18.2628 23.0093 17.7155C24.4607 15.6216 25.1389 12.6472 24.9961 9.75612C24.9366 8.56637 24.9366 7.37663 24.5321 6.5795C24.1157 5.74667 22.6999 4.98524 21.8671 5.74667C21.7124 4.92575 22.5572 4.42606 23.5446 4.72349C22.8427 3.80739 22.1051 2.72472 21.0938 2.15364ZM24.3537 29.0538C25.7219 28.3756 28.2679 27.2335 29.1127 29.0538C29.4339 29.732 29.8027 30.8622 29.9574 31.5642C30.1834 32.5398 29.7075 34.6099 28.6962 34.9311C27.8039 35.2167 26.7689 35.2048 25.6981 34.9906C25.5672 34.8836 25.4363 34.7051 25.3293 34.5147C24.5678 34.4909 23.8421 34.5504 23.2472 34.8717C23.3067 35.4427 22.926 35.526 22.5572 35.645C22.2954 36.7039 23.0925 38.084 22.9022 39.0358C22.7713 39.7258 21.9266 39.8329 21.3079 39.9519C21.2841 40.3326 21.3317 40.6538 21.3793 40.975C21.2365 41.4985 20.606 41.796 19.9992 41.8674C18.0123 42.1053 15.0023 42.2124 13.0987 41.5223C12.5633 40.2136 12.1469 38.6313 11.7067 37.1441C9.85067 37.3463 8.33969 36.3469 6.92389 35.6807C6.4361 35.4546 5.75794 35.3238 5.56758 34.9311C5.38912 34.5504 5.46051 33.8247 5.41292 33.1465C5.30584 31.3976 5.19876 29.7082 4.74666 27.9235C4.5444 27.1145 4.17558 26.4126 3.92573 25.6392C3.68779 24.9254 3.28327 24.0331 3.17619 23.3192C3.02153 22.2603 4.02091 22.2009 4.65148 21.7369C5.63897 21.023 6.4123 20.6304 7.48307 19.9879C7.80431 19.7976 8.7561 19.3217 8.86318 19.0956C9.07733 18.6554 8.49436 18.0367 8.33969 17.6917C8.08985 17.1444 7.95897 16.6804 7.92328 16.1451C7.03097 16.0023 6.34092 15.4669 5.9364 14.872C5.25825 13.8726 4.78235 12.0285 5.37722 10.6365C5.42481 10.5295 5.65087 10.3034 5.68656 10.1368C5.75794 9.80371 5.55569 9.3635 5.54379 9.00658C5.4843 7.18627 5.85312 5.6158 7.07856 5.06852C7.57825 3.08164 9.36287 2.42728 11.0404 1.43979C11.671 1.07097 12.361 0.833024 13.0749 0.571279C15.6328 -0.36862 19.5709 -0.190158 21.7005 1.416C22.6047 2.09415 24.0443 3.53375 24.5559 4.58072C25.9241 7.32904 25.8171 11.9334 24.8653 15.2884C24.7344 15.7405 24.5559 16.3949 24.2942 16.9422C24.1157 17.3229 23.5565 18.0724 23.616 18.4056C23.6874 18.7506 24.901 19.6667 25.1627 19.9165C25.6267 20.3687 26.519 20.9635 26.5904 21.5346C26.6737 22.1414 26.3286 22.9742 26.1502 23.5572C25.5791 25.5084 25.008 27.3049 24.3537 29.0538Z" fill="#231F20"/>
<path d="M15.2527 15.5382C15.3241 15.443 15.7286 15.2883 16.2997 15.562C16.2997 15.562 15.6215 15.6691 15.681 16.7993L15.3955 16.7398C15.4074 16.7517 15.11 15.7285 15.2527 15.5382Z" fill="#F7E4CD"/>
<path d="M20.1782 25.199C20.1782 25.3655 20.0355 25.5083 19.8689 25.5083C19.7023 25.5083 19.5596 25.3655 19.5596 25.199C19.5596 25.0324 19.7023 24.8896 19.8689 24.8896C20.0474 24.8896 20.1782 25.0324 20.1782 25.199Z" fill="#1D1919"/>
<path d="M20.4878 26.6384C20.4878 26.805 20.345 26.9478 20.1785 26.9478C20.0119 26.9478 19.8691 26.805 19.8691 26.6384C19.8691 26.4719 20.0119 26.3291 20.1785 26.3291C20.3569 26.3291 20.4878 26.46 20.4878 26.6384Z" fill="#1D1919"/>
</svg>
