<svg width="111" height="64" viewBox="0 0 111 64" fill="none" xmlns="http://www.w3.org/2000/svg">
<path d="M23.0146 52.0836C26.2154 59.3272 33.3889 64 41.3082 64H69.6918C77.6111 64 84.7846 59.3272 87.9854 52.0836L98.5905 28.0835C104.433 14.8621 94.7515 0 80.2969 0H30.7031C16.2485 0 6.56728 14.8622 12.4095 28.0836L23.0146 52.0836Z" fill="url(#paint0_linear_1041_90)"/>
<path d="M60.2493 17.8334H47.4993C46.7479 17.8334 46.0272 18.1319 45.4959 18.6632C44.9645 19.1946 44.666 19.9153 44.666 20.6667V43.3334C44.666 44.0848 44.9645 44.8055 45.4959 45.3368C46.0272 45.8682 46.7479 46.1667 47.4993 46.1667H64.4993C65.2508 46.1667 65.9715 45.8682 66.5028 45.3368C67.0342 44.8055 67.3327 44.0848 67.3327 43.3334V24.9167L60.2493 17.8334Z" stroke="white" stroke-width="2" stroke-linecap="round" stroke-linejoin="round"/>
<path d="M58.834 17.8334V23.5C58.834 24.2515 59.1325 24.9722 59.6638 25.5035C60.1952 26.0349 60.9159 26.3334 61.6673 26.3334H67.334" stroke="white" stroke-width="2" stroke-linecap="round" stroke-linejoin="round"/>
<path d="M53.1673 27.75H50.334" stroke="white" stroke-width="2" stroke-linecap="round" stroke-linejoin="round"/>
<path d="M61.6673 33.4166H50.334" stroke="white" stroke-width="2" stroke-linecap="round" stroke-linejoin="round"/>
<path d="M61.6673 39.0834H50.334" stroke="white" stroke-width="2" stroke-linecap="round" stroke-linejoin="round"/>
<defs>
<linearGradient id="paint0_linear_1041_90" x1="55.5" y1="64" x2="55.5" y2="0" gradientUnits="userSpaceOnUse">
<stop stop-color="#FF5E01"/>
<stop offset="1" stop-color="#FF9404"/>
</linearGradient>
</defs>
</svg>
