<svg width="512" height="512" viewBox="0 0 512 512" fill="none" xmlns="http://www.w3.org/2000/svg">
<path d="M336 128C346.464 128 356.704 125.056 365.568 119.52L480 48C480 43.7565 478.314 39.6869 475.314 36.6863C472.313 33.6857 468.243 32 464 32H208C203.757 32 199.687 33.6857 196.686 36.6863C193.686 39.6869 192 43.7565 192 48L306.432 119.52C315.296 125.056 325.536 128 336 128Z" fill="white"/>
<path d="M336 144C325.544 144.001 315.298 141.062 306.432 135.52L192 64V192C192 200.487 195.371 208.626 201.373 214.627C207.374 220.629 215.513 224 224 224H448C456.487 224 464.626 220.629 470.627 214.627C476.629 208.626 480 200.487 480 192V64L365.568 135.52C356.701 141.061 346.456 144 336 144ZM304 352C291.486 352.005 279.248 355.678 268.8 362.566C258.352 369.454 250.153 379.253 245.216 390.752C216.208 381.389 189.841 365.266 168.287 343.713C146.734 322.159 130.611 295.792 121.248 266.784C131.867 262.225 141.053 254.876 147.832 245.518C154.611 236.159 158.729 225.139 159.75 213.629C160.771 202.118 158.656 190.545 153.63 180.14C148.604 169.734 140.855 160.883 131.204 154.527C121.553 148.17 110.362 144.545 98.8171 144.037C87.2724 143.528 75.8053 146.155 65.6331 151.638C55.4608 157.121 46.9629 165.256 41.0413 175.179C35.1197 185.103 31.9954 196.444 32 208C32 358.224 153.776 480 304 480C320.974 480 337.252 473.257 349.255 461.255C361.257 449.252 368 432.974 368 416C368 399.026 361.257 382.748 349.255 370.745C337.252 358.743 320.974 352 304 352Z" fill="white"/>
</svg>
