<svg width="48" height="48" viewBox="0 0 48 48" fill="none" xmlns="http://www.w3.org/2000/svg">
<path d="M20 23.2547L10.15 34.8431C8.82822 36.3981 6.46402 36.4929 5.02276 35.0483C3.58148 33.6039 3.6759 31.2345 5.22752 29.9099L16.7906 20.0381" stroke="#ff6900" stroke-width="2.5" stroke-linejoin="round"/>
<path d="M36 20.1334L26.0952 30.06M19.9048 4.00293L10 13.9294M18.6667 5.24367L11.2382 12.6886C11.2382 12.6886 14.9524 17.6518 18.6667 21.3742C22.381 25.0968 27.3334 28.8192 27.3334 28.8192L34.762 21.3742C34.762 21.3742 31.0476 16.411 27.3334 12.6886C23.6192 8.96613 18.6667 5.24367 18.6667 5.24367Z" stroke="#ff6900" stroke-width="2.5" stroke-linejoin="round"/>
<path d="M40 23.3181L44 20.0381M40 29.8779L44 32.0645" stroke="#ff6900" stroke-width="2.5" stroke-linejoin="round"/>
<path d="M22.0039 43.9976H41.9995M24.4533 43.9976C25.5563 42.0226 26.3799 38.2432 30.2839 38.0316C31.4435 37.9686 32.6233 37.9686 33.7827 38.0316C37.6867 38.2432 38.5143 42.0226 39.6173 43.9976" stroke="#ff6900" stroke-width="2.5" stroke-linejoin="round"/>
</svg>
