<svg width="74" height="74" viewBox="0 0 74 74" fill="none" xmlns="http://www.w3.org/2000/svg">
<rect x="5" y="5" width="64" height="64" rx="12" fill="url(#paint0_linear_761_3042)"/>
<rect x="2.5" y="2.5" width="69" height="69" rx="14.5" stroke="#FF9104" stroke-opacity="0.22" stroke-width="5"/>
<path d="M38.1755 23.0885C37.8064 22.9201 37.4054 22.833 36.9997 22.833C36.5939 22.833 36.193 22.9201 35.8238 23.0885L23.683 28.6135C23.4316 28.7244 23.2179 28.9059 23.0678 29.1361C22.9178 29.3662 22.8379 29.635 22.8379 29.9098C22.8379 30.1845 22.9178 30.4533 23.0678 30.6835C23.2179 30.9136 23.4316 31.0952 23.683 31.206L35.838 36.7452C36.2071 36.9136 36.6081 37.0007 37.0138 37.0007C37.4195 37.0007 37.8205 36.9136 38.1897 36.7452L50.3447 31.2202C50.5961 31.1093 50.8098 30.9278 50.9598 30.6976C51.1099 30.4675 51.1898 30.1987 51.1898 29.9239C51.1898 29.6492 51.1099 29.3804 50.9598 29.1502C50.8098 28.9201 50.5961 28.7385 50.3447 28.6277L38.1755 23.0885Z" stroke="white" stroke-width="2" stroke-linecap="round" stroke-linejoin="round"/>
<path d="M22.834 37C22.8333 37.271 22.9104 37.5364 23.056 37.7649C23.2016 37.9934 23.4098 38.1754 23.6557 38.2892L35.839 43.8283C36.2062 43.9946 36.6046 44.0806 37.0077 44.0806C37.4108 44.0806 37.8093 43.9946 38.1765 43.8283L50.3315 38.3033C50.5822 38.1906 50.7948 38.0074 50.9432 37.776C51.0916 37.5445 51.1695 37.2749 51.1673 37" stroke="white" stroke-width="2" stroke-linecap="round" stroke-linejoin="round"/>
<path d="M22.834 44.083C22.8333 44.354 22.9104 44.6194 23.056 44.8479C23.2016 45.0764 23.4098 45.2584 23.6557 45.3722L35.839 50.9113C36.2062 51.0776 36.6046 51.1636 37.0077 51.1636C37.4108 51.1636 37.8093 51.0776 38.1765 50.9113L50.3315 45.3863C50.5822 45.2736 50.7948 45.0904 50.9432 44.859C51.0916 44.6275 51.1695 44.3579 51.1673 44.083" stroke="white" stroke-width="2" stroke-linecap="round" stroke-linejoin="round"/>
<defs>
<linearGradient id="paint0_linear_761_3042" x1="37" y1="5" x2="37" y2="69" gradientUnits="userSpaceOnUse">
<stop stop-color="#FF5E01"/>
<stop offset="1" stop-color="#FF9404"/>
</linearGradient>
</defs>
</svg>
