<svg width="250" height="180" viewBox="0 0 250 180" fill="none" xmlns="http://www.w3.org/2000/svg">
<g clip-path="url(#clip0_3074_5185)">
<path d="M7.43927 29.5929C7.13954 29.9648 6.72493 30.2129 6.28892 30.2591C5.88644 30.3018 5.43259 30.1798 5.09863 29.9091C4.02969 29.1039 2.95717 28.2652 1.88466 27.4264C1.1461 26.8584 1.03198 25.7819 1.5979 25.0415C2.16381 24.3012 3.23707 24.1874 3.97563 24.7554C5.04814 25.5942 6.12066 26.433 7.15607 27.2417C7.86109 27.8133 8.00519 28.8525 7.43927 29.5929Z" fill="#1248B5" fill-opacity="0.9"/>
<path d="M26.127 44.2773C25.758 44.3164 25.3749 44.221 25.048 44.0175C23.9191 43.2868 22.7867 42.5224 21.6578 41.7916C20.8892 41.2608 20.6781 40.2287 21.1734 39.4618C21.7022 38.6913 22.7312 38.4802 23.4962 38.9774C24.6286 39.7418 25.7575 40.4725 26.8528 41.2068C27.6178 41.704 27.8661 42.7663 27.3373 43.5367C27.0782 43.9724 26.6301 44.224 26.127 44.2773Z" fill="#1248B5" fill-opacity="0.9"/>
<path d="M97.1943 77.0534C97.4741 76.1733 98.4411 75.6966 99.3188 75.9778C100.583 76.388 101.885 76.8283 103.146 77.2048C104.024 77.486 104.533 78.4525 104.253 79.3326C104.053 80.0002 103.455 80.4378 102.817 80.5053C102.583 80.5302 102.378 80.5179 102.132 80.4419C100.834 80.0352 99.5327 79.5949 98.2682 79.1847C97.3869 78.87 96.881 77.9371 97.1943 77.0534Z" fill="#1248B5" fill-opacity="0.9"/>
<path d="M121.71 85.9512C120.805 85.7409 120.266 84.8116 120.475 83.905C120.684 82.9984 121.611 82.4579 122.515 82.6682C123.802 82.974 125.126 83.3098 126.447 83.612C127.351 83.8223 127.924 84.748 127.715 85.6546C127.555 86.386 126.931 86.8944 126.26 86.9655C126.092 86.9833 125.888 86.971 125.713 86.9215C124.355 86.5892 123.034 86.287 121.71 85.9512Z" fill="#1248B5" fill-opacity="0.9"/>
<path d="M142.858 43.91C141.731 44.4718 140.581 45.1381 139.501 45.8308C139.28 45.9903 139.016 46.0524 138.747 46.0808C138.144 46.1448 137.504 45.8724 137.142 45.3326C136.65 44.5343 136.845 43.4931 137.641 43.0005C138.814 42.2298 140.061 41.5192 141.319 40.9096C142.156 40.4807 143.178 40.8486 143.569 41.6576C144.031 42.4931 143.698 43.5148 142.858 43.91Z" fill="#1248B5" fill-opacity="0.9"/>
<path d="M126.903 110.917C126.679 111.043 126.451 111.135 126.217 111.16C125.579 111.228 124.936 110.922 124.604 110.345C123.902 109.161 123.193 107.909 122.587 106.681C122.159 105.841 122.492 104.82 123.328 104.391C124.165 103.962 125.184 104.296 125.612 105.135C126.21 106.296 126.841 107.454 127.503 108.575C127.961 109.376 127.699 110.425 126.903 110.917Z" fill="#1248B5" fill-opacity="0.9"/>
<path d="M121.14 100.097C120.369 100.179 119.607 99.7152 119.358 98.9593C119.108 98.2033 118.854 97.4138 118.638 96.6543C118.477 96.0931 118.312 95.4983 118.181 94.8999C117.951 94.0058 118.532 93.0937 119.423 92.8631C120.318 92.6662 121.225 93.2165 121.455 94.1105C121.579 94.6416 121.74 95.2028 121.865 95.7339C122.077 96.4598 122.29 97.1856 122.532 97.8743C122.83 98.7612 122.356 99.7299 121.472 100.028C121.375 100.072 121.241 100.086 121.14 100.097Z" fill="#1248B5" fill-opacity="0.9"/>
<path d="M125.84 57.7223C126.634 58.1823 126.946 59.2038 126.492 60.0344C125.864 61.1554 125.278 62.3402 124.725 63.5214C124.48 64.0917 123.938 64.4212 123.368 64.4817C123.066 64.5137 122.791 64.4749 122.505 64.3351C121.65 63.9495 121.271 62.9351 121.688 62.0744C122.264 60.7887 122.911 59.5296 123.598 58.3341C123.989 57.5443 125.045 57.2623 125.84 57.7223Z" fill="#1248B5" fill-opacity="0.9"/>
<path d="M134.424 120.459C134.147 120.727 133.822 120.863 133.487 120.899C132.984 120.952 132.422 120.773 132.074 120.368C131.151 119.343 130.225 118.285 129.363 117.186C128.777 116.465 128.902 115.398 129.62 114.811C130.337 114.225 131.402 114.35 131.987 115.071C132.806 116.072 133.661 117.104 134.543 118.065C135.158 118.748 135.101 119.809 134.424 120.459Z" fill="#1248B5" fill-opacity="0.9"/>
<path d="M128.295 51.4418C129.198 50.3596 130.137 49.3074 131.118 48.319C131.795 47.6689 132.846 47.6596 133.494 48.3392C134.143 49.0188 134.153 50.0723 133.476 50.7224C132.589 51.6329 131.705 52.577 130.862 53.5848C130.563 53.9568 130.174 54.134 129.738 54.1802C129.302 54.2264 128.849 54.1045 128.477 53.8036C127.802 53.1949 127.692 52.152 128.295 51.4418Z" fill="#1248B5" fill-opacity="0.9"/>
<path d="M116.923 82.38C116.961 81.4575 117.728 80.6958 118.648 80.7344C119.568 80.7729 120.328 81.5428 120.29 82.4653C120.258 83.7614 120.263 85.0875 120.331 86.3729C120.394 87.2848 119.731 88.0694 118.825 88.1654C118.792 88.169 118.758 88.1725 118.725 88.1761C117.782 88.242 116.992 87.5094 116.963 86.594C116.917 85.2041 116.868 83.7806 116.923 82.38Z" fill="#1248B5" fill-opacity="0.9"/>
<path d="M85.7358 72.9279C86.0491 72.0442 87.0197 71.6012 87.9045 71.9496C89.1426 72.4306 90.4107 72.8745 91.6823 73.352C92.5636 73.6667 93.006 74.6404 92.6927 75.524C92.455 76.1615 91.9205 76.5584 91.2832 76.6259C91.0485 76.6508 90.773 76.612 90.5275 76.536C89.2595 76.0921 87.9879 75.6146 86.7162 75.1371C85.8649 74.7852 85.4225 73.8116 85.7358 72.9279Z" fill="#1248B5" fill-opacity="0.9"/>
<path d="M138.12 89.4163C137.953 89.434 137.815 89.4146 137.644 89.3988C136.364 89.1603 135.05 88.9254 133.628 88.6339C132.728 88.4572 132.125 87.5687 132.297 86.632C132.472 85.7289 133.358 85.1247 134.292 85.2978C135.68 85.5929 136.994 85.8278 138.237 86.0362C139.171 86.2093 139.77 87.0642 139.598 88.0009C139.479 88.796 138.858 89.338 138.12 89.4163Z" fill="#1248B5" fill-opacity="0.9"/>
<path d="M122.045 70.8807C121.704 72.1415 121.4 73.4324 121.163 74.7161C121.007 75.4811 120.416 75.986 119.678 76.0642C119.51 76.082 119.339 76.0661 119.168 76.0503C118.267 75.8736 117.664 74.985 117.84 74.082C118.103 72.7274 118.43 71.332 118.798 70.0004C119.04 69.0902 119.97 68.5834 120.878 68.8273C121.748 69.0412 122.288 69.9705 122.045 70.8807Z" fill="#1248B5" fill-opacity="0.9"/>
<path d="M114.476 83.9318C114.275 83.9531 114.07 83.9408 113.862 83.8949C112.567 83.5219 111.239 83.1524 109.945 82.7794C109.037 82.5355 108.527 81.5689 108.774 80.6924C109.016 79.7822 109.98 79.2719 110.854 79.5194C112.148 79.8924 113.443 80.2654 114.734 80.6048C115.641 80.8487 116.147 81.7816 115.905 82.6918C115.708 83.393 115.147 83.8607 114.476 83.9318Z" fill="#1248B5" fill-opacity="0.9"/>
<path d="M63.3928 63.4268C63.7767 62.5697 64.7915 62.2239 65.6463 62.6096C66.858 63.1614 68.1068 63.7434 69.3185 64.2953C70.1734 64.6809 70.5487 65.6616 70.1647 66.5188C69.9199 67.089 69.3819 67.4522 68.8117 67.5126C68.5098 67.5447 68.2344 67.5058 67.9482 67.3661C66.703 66.8178 65.4542 66.2358 64.2426 65.6839C63.3541 65.3019 63.0088 64.2839 63.3928 63.4268Z" fill="#1248B5" fill-opacity="0.9"/>
<path d="M149.958 90.7126C148.632 90.6831 147.232 90.5934 145.828 90.4701C144.905 90.3979 144.208 89.5873 144.276 88.6276C144.348 87.7015 145.155 87.0036 146.112 87.0722C147.449 87.2026 148.778 87.2658 150.037 87.3024C150.957 87.341 151.717 88.1108 151.679 89.0333C151.668 89.885 150.994 90.5687 150.156 90.6576C150.129 90.7284 150.025 90.7055 149.958 90.7126Z" fill="#1248B5" fill-opacity="0.9"/>
<path d="M219.222 143.548C220.537 143.477 221.886 143.402 223.231 143.293C224.174 143.227 224.96 143.926 225.026 144.872C225.089 145.784 224.426 146.568 223.521 146.664C223.487 146.668 223.487 146.668 223.454 146.671C222.108 146.78 220.726 146.859 219.378 146.934C218.435 146.999 217.645 146.267 217.582 145.355C217.583 144.402 218.313 143.611 219.222 143.548Z" fill="#1248B5" fill-opacity="0.9"/>
<path d="M16.0729 37.4536C15.6705 37.4963 15.2873 37.4009 14.9233 37.1673C13.8244 36.3994 12.7219 35.5978 11.6195 34.7962C10.8509 34.2654 10.7032 33.1925 11.2321 32.422C11.7609 31.6516 12.8306 31.5042 13.5991 32.035C14.7016 32.8366 15.8005 33.6045 16.8659 34.376C17.6344 34.9068 17.8156 35.9762 17.2868 36.7466C16.9906 37.1522 16.5425 37.4038 16.0729 37.4536Z" fill="#1248B5" fill-opacity="0.9"/>
<path d="M33.679 45.4864C34.8379 46.1799 35.9967 46.8735 37.1221 47.5706C37.9206 48.0642 38.1988 49.0893 37.7071 49.8898C37.4181 50.3627 36.94 50.6515 36.4369 50.7048C36.1015 50.7404 35.7218 50.6786 35.395 50.4751C34.2361 49.7816 33.0773 49.088 31.9148 48.3608C31.1163 47.8672 30.8716 46.8386 31.3633 46.0381C31.855 45.2375 32.8805 44.9927 33.679 45.4864Z" fill="#1248B5" fill-opacity="0.9"/>
<path d="M183.324 63.1265C183.328 62.2075 184.058 61.4157 184.974 61.4207C185.891 61.4256 186.681 62.1582 186.676 63.0772C186.675 64.0297 186.641 64.9859 186.54 65.9491C186.493 66.4643 186.408 66.9495 186.294 67.4719C186.138 68.2369 185.547 68.7417 184.809 68.82C184.641 68.8377 184.47 68.8219 184.299 68.806C183.398 68.6294 182.795 67.7408 182.971 66.8377C183.062 66.4198 183.117 65.9719 183.174 65.5575C183.29 64.7288 183.342 63.9409 183.324 63.1265Z" fill="#1248B5" fill-opacity="0.9"/>
<path d="M52.5118 58.0475C52.9329 57.2204 53.9477 56.8747 54.7726 57.2975C55.9578 57.9202 57.1731 58.5058 58.3583 59.1285C59.1833 59.5513 59.5286 60.5692 59.1075 61.3963C58.8256 61.9364 58.3175 62.2624 57.7809 62.3193C57.479 62.3513 57.1665 62.2824 56.8468 62.1462C55.6316 61.5607 54.4128 60.9415 53.2275 60.3188C52.4026 59.896 52.0572 58.8781 52.5118 58.0475Z" fill="#1248B5" fill-opacity="0.9"/>
<path d="M205.504 145.614C205.509 144.695 206.242 143.937 207.188 143.904C208.511 143.9 209.867 143.893 211.219 143.851C212.165 143.819 212.921 144.555 212.954 145.504C212.98 146.386 212.313 147.137 211.441 147.229C211.408 147.233 211.341 147.24 211.307 147.244C209.955 147.285 208.566 147.296 207.243 147.3C206.26 147.303 205.503 146.566 205.504 145.614Z" fill="#1248B5" fill-opacity="0.9"/>
<path d="M169.431 141.274C169.674 140.364 170.6 139.823 171.508 140.067C172.732 140.414 174.052 140.716 175.373 141.018C176.277 141.229 176.847 142.121 176.671 143.024C176.511 143.755 175.92 144.26 175.216 144.335C175.048 144.352 174.844 144.34 174.669 144.291C173.281 143.996 171.956 143.66 170.666 143.32C169.728 143.114 169.188 142.184 169.431 141.274Z" fill="#1248B5" fill-opacity="0.9"/>
<path d="M160.273 136.157C161.481 136.675 162.722 137.19 163.957 137.637C164.838 137.952 165.281 138.926 164.934 139.813C164.693 140.417 164.162 140.847 163.524 140.915C163.256 140.943 163.014 140.901 162.769 140.825C161.497 140.348 160.185 139.806 158.94 139.258C158.085 138.872 157.676 137.895 158.06 137.038C158.444 136.181 159.421 135.805 160.273 136.157Z" fill="#1248B5" fill-opacity="0.9"/>
<path d="M181.268 143.864C181.406 142.93 182.255 142.296 183.185 142.436C184.459 142.607 185.802 142.805 187.139 142.935C188.066 143.041 188.732 143.889 188.627 144.818C188.542 145.61 187.894 146.223 187.123 146.304C186.989 146.319 186.888 146.329 186.75 146.31C185.377 146.149 184.003 145.989 182.693 145.788C181.796 145.645 181.163 144.793 181.268 143.864Z" fill="#1248B5" fill-opacity="0.9"/>
<path d="M193.349 145.203C193.421 144.277 194.191 143.549 195.115 143.621C196.411 143.688 197.774 143.748 199.137 143.807C200.056 143.846 200.783 144.619 200.749 145.575C200.704 146.43 200.063 147.111 199.259 147.196C199.191 147.203 199.091 147.214 199.02 147.187C197.657 147.128 196.261 147.072 194.931 147.008C194.008 146.936 193.311 146.126 193.349 145.203Z" fill="#1248B5" fill-opacity="0.9"/>
<path d="M174.604 82.2518C175.129 83.0466 174.9 84.0913 174.138 84.5803C172.965 85.3511 171.718 86.0616 170.463 86.7049C170.269 86.7935 170.071 86.8485 169.904 86.8663C169.233 86.9374 168.553 86.6013 168.209 85.9233C167.781 85.0842 168.147 84.0589 168.954 83.6672C170.115 83.1019 171.232 82.4392 172.278 81.75C173.04 81.261 174.082 81.4907 174.604 82.2518Z" fill="#1248B5" fill-opacity="0.9"/>
<path d="M137.944 126.141C137.235 125.536 137.155 124.456 137.791 123.742C138.394 123.032 139.471 122.952 140.183 123.591C141.155 124.44 142.194 125.282 143.233 126.125C143.971 126.693 144.119 127.766 143.52 128.51C143.22 128.881 142.802 129.096 142.366 129.142C141.963 129.185 141.509 129.063 141.142 128.796C140.066 127.923 138.99 127.051 137.944 126.141Z" fill="#1248B5" fill-opacity="0.9"/>
<path d="M183.054 50.6689C183.797 51.9168 184.443 53.209 184.958 54.5491C185.289 55.4325 184.882 56.3941 184.005 56.7592C183.875 56.8071 183.71 56.8585 183.576 56.8727C182.838 56.951 182.118 56.5511 181.834 55.7988C181.374 54.6569 180.81 53.4922 180.152 52.4053C179.66 51.607 179.922 50.5587 180.721 50.0998C181.551 49.6036 182.596 49.867 183.054 50.6689Z" fill="#1248B5" fill-opacity="0.9"/>
<path d="M81.3497 71.217C81.1085 71.8209 80.574 72.2178 79.9702 72.2818C79.7019 72.3102 79.4265 72.2714 79.1774 72.1617C77.9358 71.647 76.6606 71.1359 75.4189 70.6212C74.5676 70.2693 74.1552 69.2584 74.5056 68.4049C74.856 67.5513 75.8637 67.1383 76.715 67.4903C77.9566 68.0049 79.2318 68.5161 80.4399 69.0343C81.2912 69.3863 81.7001 70.3635 81.3497 71.217Z" fill="#1248B5" fill-opacity="0.9"/>
<path d="M153.877 40.6656C152.602 40.8007 151.339 41.0368 150.078 41.3064C150.011 41.3136 149.944 41.3207 149.877 41.3278C149.039 41.4167 148.267 40.8522 148.043 40.0254C147.846 39.1278 148.394 38.2193 149.319 37.9852C150.677 37.6712 152.108 37.4174 153.483 37.2716C154.422 37.172 155.239 37.8338 155.338 38.7757C155.438 39.7176 154.783 40.5696 153.877 40.6656Z" fill="#1248B5" fill-opacity="0.9"/>
<path d="M149.717 130.643C150.842 131.34 151.964 132.004 153.119 132.664C153.948 133.12 154.226 134.145 153.771 134.976C153.486 135.482 153.008 135.771 152.471 135.828C152.136 135.864 151.79 135.798 151.466 135.628C150.278 134.972 149.048 134.252 147.886 133.525C147.087 133.031 146.842 132.002 147.334 131.202C147.893 130.394 148.952 130.146 149.717 130.643Z" fill="#1248B5" fill-opacity="0.9"/>
<path d="M161.698 86.2732C162.593 86.0763 163.5 86.6265 163.734 87.5542C163.93 88.4518 163.382 89.3603 162.458 89.5945C161.134 89.9049 159.736 90.1552 158.331 90.3382L158.297 90.3417C157.392 90.4378 156.575 89.7759 156.445 88.8712C156.312 87.9329 156.968 87.0809 157.907 86.9814C159.174 86.7789 160.475 86.573 161.698 86.2732Z" fill="#1248B5" fill-opacity="0.9"/>
<path d="M165.907 41.5001C165.705 41.5215 165.501 41.5092 165.292 41.4632C164.072 41.1504 162.825 40.9083 161.552 40.7372C160.625 40.6313 159.992 39.78 160.097 38.8504C160.202 37.9208 161.051 37.2865 161.978 37.3924C163.388 37.583 164.806 37.8408 166.168 38.2067C167.076 38.4507 167.615 39.38 167.372 40.2902C167.172 40.9578 166.577 41.429 165.907 41.5001Z" fill="#1248B5" fill-opacity="0.9"/>
<path d="M176.598 47.0343C176.162 47.0805 175.674 46.9621 175.333 46.624C174.587 45.9887 173.778 45.3942 172.973 44.8333C172.753 44.6864 172.501 44.5431 172.282 44.3962C171.483 43.9026 171.239 42.874 171.73 42.0735C172.222 41.273 173.247 41.0282 174.046 41.5218C174.302 41.6988 174.588 41.8385 174.844 42.0154C175.791 42.6294 176.678 43.3178 177.539 44.077C178.248 44.6822 178.328 45.7622 177.725 46.4725C177.422 46.8108 177 46.9916 176.598 47.0343Z" fill="#1248B5" fill-opacity="0.9"/>
<path d="M44.1292 51.5901C45.2845 52.25 46.4733 52.9063 47.6586 53.529C48.487 53.9855 48.7653 55.0105 48.3443 55.8376C48.0588 56.3441 47.5842 56.6665 47.0476 56.7234C46.7122 56.759 46.3661 56.6936 46.0764 56.5202C44.8876 55.8639 43.6652 55.2111 42.5099 54.5512C41.6814 54.0947 41.4032 53.0697 41.8578 52.2391C42.3124 51.4085 43.3007 51.1336 44.1292 51.5901Z" fill="#1248B5" fill-opacity="0.9"/>
<path d="M183.113 75.53C182.359 76.7326 181.497 77.8785 180.531 79.0015C180.227 79.3398 179.839 79.5171 179.437 79.5597C179.001 79.606 178.513 79.4876 178.139 79.1531C177.43 78.5479 177.35 77.4678 177.986 76.754C178.832 75.7798 179.571 74.749 180.243 73.7253C180.734 72.9248 181.76 72.68 182.558 73.1737C183.36 73.7009 183.605 74.7295 183.113 75.53Z" fill="#1248B5" fill-opacity="0.9"/>
<path d="M248.12 141.946C240.898 145.807 232.15 151.906 227.008 157.792L229.826 144.702C229.815 144.601 229.774 144.538 229.764 144.437C229.753 144.336 229.746 144.268 229.772 144.198L223.526 132.307C230.054 136.616 240.128 140.14 248.12 141.946Z" fill="#1248B5" fill-opacity="0.9"/>
</g>
<defs>
<clipPath id="clip0_3074_5185">
<rect width="233.327" height="156.285" fill="white" transform="matrix(-0.994426 0.105435 0.105435 0.994426 233 -0.0078125)"/>
</clipPath>
</defs>
</svg>
