<svg width="44" height="44" viewBox="0 0 44 44" fill="none" xmlns="http://www.w3.org/2000/svg">
<path d="M22 29.3335H22.0183" stroke="url(#paint0_linear_112_303)" stroke-width="2" stroke-linecap="round" stroke-linejoin="round"/>
<path d="M29.333 29.3335H29.3513" stroke="url(#paint1_linear_112_303)" stroke-width="2" stroke-linecap="round" stroke-linejoin="round"/>
<path d="M5.5 34.8333C5.5 35.8058 5.88631 36.7384 6.57394 37.4261C7.26158 38.1137 8.19421 38.5 9.16667 38.5H34.8333C35.8058 38.5 36.7384 38.1137 37.4261 37.4261C38.1137 36.7384 38.5 35.8058 38.5 34.8333V15.5833C38.5002 15.4189 38.4561 15.2574 38.3724 15.1159C38.2887 14.9743 38.1685 14.8579 38.0243 14.7787C37.8802 14.6996 37.7174 14.6608 37.553 14.6662C37.3887 14.6716 37.2288 14.7212 37.0902 14.8097L28.9098 20.0237C28.7712 20.1121 28.6113 20.1617 28.447 20.1671C28.2826 20.1726 28.1198 20.1337 27.9757 20.0546C27.8315 19.9755 27.7113 19.859 27.6276 19.7175C27.5439 19.5759 27.4998 19.4144 27.5 19.25V15.5833C27.5002 15.4189 27.4561 15.2574 27.3724 15.1159C27.2887 14.9743 27.1685 14.8579 27.0243 14.7787C26.8802 14.6996 26.7174 14.6608 26.553 14.6662C26.3887 14.6716 26.2288 14.7212 26.0902 14.8097L17.9117 20.0237C17.773 20.1126 17.613 20.1626 17.4483 20.1683C17.2837 20.174 17.1206 20.1352 16.9761 20.056C16.8316 19.9768 16.7112 19.8602 16.6274 19.7184C16.5436 19.5765 16.4996 19.4147 16.5 19.25V9.16667C16.5 8.19421 16.1137 7.26158 15.4261 6.57394C14.7384 5.88631 13.8058 5.5 12.8333 5.5H9.16667C8.19421 5.5 7.26158 5.88631 6.57394 6.57394C5.88631 7.26158 5.5 8.19421 5.5 9.16667V34.8333Z" stroke="url(#paint2_linear_112_303)" stroke-width="2" stroke-linecap="round" stroke-linejoin="round"/>
<path d="M14.667 29.3335H14.6853" stroke="url(#paint3_linear_112_303)" stroke-width="2" stroke-linecap="round" stroke-linejoin="round"/>
<defs>
<linearGradient id="paint0_linear_112_303" x1="22.0092" y1="29.3335" x2="22.0092" y2="30.3335" gradientUnits="userSpaceOnUse">
<stop stop-color="#FF7001"/>
<stop offset="1" stop-color="#FF8703"/>
</linearGradient>
<linearGradient id="paint1_linear_112_303" x1="29.3422" y1="29.3335" x2="29.3422" y2="30.3335" gradientUnits="userSpaceOnUse">
<stop stop-color="#FF7001"/>
<stop offset="1" stop-color="#FF8703"/>
</linearGradient>
<linearGradient id="paint2_linear_112_303" x1="22" y1="5.5" x2="22" y2="38.5" gradientUnits="userSpaceOnUse">
<stop stop-color="#FF7001"/>
<stop offset="1" stop-color="#FF8703"/>
</linearGradient>
<linearGradient id="paint3_linear_112_303" x1="14.6762" y1="29.3335" x2="14.6762" y2="30.3335" gradientUnits="userSpaceOnUse">
<stop stop-color="#FF7001"/>
<stop offset="1" stop-color="#FF8703"/>
</linearGradient>
</defs>
</svg>
