<svg width="48" height="48" viewBox="0 0 48 48" fill="none" xmlns="http://www.w3.org/2000/svg">
<path d="M4.51222 31.2644C4.58014 30.618 5.04856 30.097 5.98542 29.0552L8.04756 26.7498C8.55162 26.1116 8.90932 25 8.90932 23.9996C8.90932 23 8.5515 21.888 8.0475 21.25L5.98542 18.9446C5.04856 17.9027 4.58012 17.3818 4.51222 16.7354C4.4443 16.0889 4.79422 15.4817 5.49404 14.2672L6.4812 12.554C7.2278 11.2583 7.60108 10.6105 8.23624 10.3521C8.8714 10.0938 9.58972 10.2977 11.0264 10.7053L13.4669 11.3927C14.3841 11.6042 15.3464 11.4843 16.1839 11.054L16.8576 10.6652C17.5758 10.2052 18.1282 9.52704 18.434 8.72986L19.1019 6.73508C19.541 5.41506 19.7606 4.75504 20.2833 4.37752C20.8061 4 21.5005 4 22.8891 4H25.1187C26.5075 4 27.2019 4 27.7245 4.37752C28.2473 4.75504 28.4669 5.41506 28.9061 6.73508L29.5739 8.72986C29.8797 9.52704 30.4321 10.2052 31.1503 10.6652L31.8241 11.054C32.6615 11.4843 33.6239 11.6042 34.5411 11.3927L36.9815 10.7053C38.4181 10.2977 39.1365 10.0938 39.7717 10.3521C40.4069 10.6105 40.7801 11.2583 41.5267 12.554L42.5139 14.2672C43.2137 15.4817 43.5635 16.0889 43.4957 16.7354C43.4277 17.3818 42.9593 17.9027 42.0225 18.9446L39.9603 21.25C39.4565 21.888 39.0985 23 39.0985 23.9996C39.0985 25 39.4563 26.1116 39.9603 26.7498L42.0225 29.0552C42.9593 30.097 43.4277 30.618 43.4957 31.2644C43.5635 31.911 43.2137 32.5182 42.5139 33.7326L41.5267 35.4458C40.7801 36.7414 40.4069 37.3894 39.7717 37.6476C39.1365 37.906 38.4181 37.7022 36.9815 37.2944L34.5411 36.607C33.6237 36.3954 32.6613 36.5156 31.8237 36.946L31.1501 37.3348C30.4319 37.7948 29.8797 38.4728 29.5741 39.27L28.9061 41.265C28.4669 42.585 28.2473 43.245 27.7245 43.6224C27.2019 44 26.5075 44 25.1187 44H22.8891C21.5005 44 20.8061 44 20.2833 43.6224C19.7606 43.245 19.541 42.585 19.1019 41.265" stroke="#ff6900" stroke-width="2.5" stroke-linecap="round"/>
<path d="M5.47391 37.5596C7.63391 35.3996 14.9779 28.1276 15.6979 27.2876C16.4591 26.3996 15.8419 25.1996 16.2091 21.4796C16.3868 19.6796 16.774 18.3311 17.8819 17.3276C19.2019 16.0796 20.282 16.0796 24.002 15.9956C27.242 16.0796 27.626 15.7196 27.962 16.5596C28.202 17.1596 27.482 17.5196 26.618 18.4796C24.698 20.3996 23.57 21.3596 23.462 21.9596C22.682 24.5996 25.754 26.1596 27.434 24.4796C28.0692 23.8442 31.01 20.8796 31.298 20.6396C31.514 20.4476 32.031 20.4568 32.282 20.7596C32.498 20.9718 32.522 20.9996 32.498 21.9596C32.4758 22.8482 32.4856 24.124 32.4884 25.4396C32.4918 27.1442 32.402 29.0396 31.682 29.9996C30.242 32.1596 27.842 32.2796 25.682 32.3756C23.642 32.4956 21.962 32.2796 21.434 32.6636C21.002 32.8796 18.7219 35.2796 15.9619 38.0396L11.0419 42.9596C6.96191 46.1996 2.47391 41.1596 5.47391 37.5596Z" stroke="#ff6900" stroke-width="2.5" stroke-linecap="round"/>
</svg>
