<svg width="50" height="50" viewBox="0 0 50 50" fill="none" xmlns="http://www.w3.org/2000/svg">
<path d="M32.2437 26.854L35.4 44.6165C35.4353 44.8257 35.406 45.0406 35.3159 45.2327C35.2257 45.4247 35.0791 45.5846 34.8957 45.6911C34.7122 45.7975 34.5006 45.8454 34.2891 45.8284C34.0777 45.8113 33.8765 45.7302 33.7125 45.5957L26.2541 39.9978C25.8941 39.7288 25.4567 39.5834 25.0073 39.5834C24.5578 39.5834 24.1204 39.7288 23.7604 39.9978L16.2896 45.5936C16.1256 45.7278 15.9247 45.8089 15.7135 45.826C15.5023 45.843 15.291 45.7953 15.1076 45.6891C14.9242 45.583 14.7776 45.4234 14.6873 45.2318C14.597 45.0401 14.5672 44.8255 14.6021 44.6165L17.7562 26.854" stroke="#1248B5" stroke-width="2" stroke-linecap="round" stroke-linejoin="round"/>
<path d="M25 29.1665C31.9036 29.1665 37.5 23.5701 37.5 16.6665C37.5 9.76294 31.9036 4.1665 25 4.1665C18.0964 4.1665 12.5 9.76294 12.5 16.6665C12.5 23.5701 18.0964 29.1665 25 29.1665Z" stroke="#1248B5" stroke-width="2" stroke-linecap="round" stroke-linejoin="round"/>
</svg>
