<svg width="54" height="54" viewBox="0 0 54 54" fill="none" xmlns="http://www.w3.org/2000/svg">
<rect width="54" height="54" rx="11" fill="white"/>
<g clip-path="url(#clip0_424_270)">
<mask id="mask0_424_270" style="mask-type:luminance" maskUnits="userSpaceOnUse" x="5" y="5" width="44" height="44">
<path d="M5 5.00013H48.9999V49H5V5.00013Z" fill="white"/>
</mask>
<g mask="url(#mask0_424_270)">
<path d="M27 31.168C24.6961 31.168 22.8284 29.3019 22.8284 27.0001C22.8284 24.6983 24.6961 22.8322 27 22.8322C29.304 22.8322 31.1717 24.6983 31.1717 27.0001C31.1717 29.3019 29.304 31.168 27 31.168ZM40.044 28.0249V25.9754C40.044 25.5614 39.7516 25.205 39.3454 25.1239L36.2288 24.5011C36.0156 23.7128 35.7015 22.9553 35.2944 22.2474L37.0574 19.6053C37.1688 19.4383 37.2189 19.2378 37.1991 19.0381C37.1793 18.8383 37.0909 18.6516 36.9488 18.5097L35.4982 17.0604C35.3561 16.9185 35.1692 16.8301 34.9693 16.8103C34.7694 16.7906 34.5688 16.8406 34.4016 16.952L31.7571 18.7133C31.0484 18.3065 30.2902 17.9928 29.5012 17.7798L28.8779 14.666C28.8384 14.4691 28.732 14.292 28.5766 14.1647C28.4212 14.0375 28.2265 13.968 28.0257 13.9681H25.9744C25.7735 13.968 25.5789 14.0375 25.4235 14.1647C25.2681 14.292 25.1616 14.4691 25.1221 14.666L24.4988 17.7798C23.7099 17.9927 22.9517 18.3065 22.2431 18.7133L19.5984 16.952C19.4313 16.8406 19.2307 16.7906 19.0308 16.8103C18.8309 16.8301 18.644 16.9185 18.5019 17.0604L17.0513 18.5097C16.9092 18.6516 16.8208 18.8383 16.801 19.0381C16.7812 19.2378 16.8313 19.4383 16.9427 19.6053L18.7057 22.2474C18.2986 22.9553 17.9845 23.7128 17.7713 24.5011L14.6547 25.1239C14.4578 25.1632 14.2805 25.2695 14.1531 25.4247C14.0258 25.58 13.9561 25.7746 13.9561 25.9754V28.0249C13.9561 28.4388 14.2485 28.7952 14.6547 28.8764L17.7713 29.4991C17.9845 30.2874 18.2986 31.0449 18.7057 31.7528L16.9427 34.3949C16.8313 34.5619 16.7812 34.7624 16.801 34.9622C16.8208 35.162 16.9092 35.3487 17.0513 35.4906L18.5019 36.9398C18.644 37.0817 18.8309 37.1701 19.0308 37.1899C19.2307 37.2097 19.4312 37.1596 19.5984 37.0483L22.2431 35.2869C22.9517 35.6937 23.7099 36.0075 24.4988 36.2205L25.1221 39.3342C25.1616 39.5311 25.2681 39.7083 25.4235 39.8355C25.5789 39.9628 25.7735 40.0323 25.9744 40.0322H28.0257C28.44 40.0322 28.7967 39.74 28.8779 39.3342L29.5012 36.2205C30.2902 36.0075 31.0484 35.6937 31.7571 35.2869L34.4016 37.0483C34.5688 37.1596 34.7694 37.2097 34.9693 37.1899C35.1692 37.1701 35.3561 37.0817 35.4982 36.9398L36.9488 35.4906C37.0908 35.3487 37.1793 35.162 37.1991 34.9622C37.2189 34.7624 37.1688 34.5619 37.0574 34.3949L35.2944 31.7528C35.7015 31.0449 36.0156 30.2874 36.2288 29.4991L39.3454 28.8764C39.5423 28.8371 39.7195 28.7308 39.8469 28.5755C39.9743 28.4203 40.044 28.2257 40.044 28.0249Z" fill="#528FD8"/>
<path d="M39.345 25.1239L36.2284 24.5011C36.0152 23.7128 35.7012 22.9553 35.294 22.2474L37.057 19.6053C37.1685 19.4383 37.2185 19.2378 37.1988 19.0381C37.179 18.8383 37.0905 18.6516 36.9485 18.5097L35.4979 17.0604C35.3823 16.945 35.2365 16.8645 35.0772 16.8281C34.918 16.7917 34.7517 16.8009 34.5974 16.8547C34.8083 17.8687 34.9144 18.9018 34.914 19.9375C34.914 28.2549 28.1654 34.9974 19.8404 34.9974C18.8248 34.9979 17.8117 34.8962 16.8164 34.6941C16.7858 34.8359 16.7912 34.9831 16.8322 35.1222C16.8732 35.2614 16.9484 35.388 17.0509 35.4906L18.5016 36.9399C18.6437 37.0818 18.8306 37.1701 19.0305 37.1899C19.2304 37.2097 19.4309 37.1596 19.5981 37.0483L22.2427 35.2869C22.9514 35.6937 23.7096 36.0075 24.4985 36.2205L25.1218 39.3342C25.1613 39.5312 25.2678 39.7083 25.4232 39.8355C25.5786 39.9628 25.7732 40.0323 25.9741 40.0322H28.0255C28.4397 40.0322 28.7964 39.74 28.8776 39.3342L29.5009 36.2205C30.2899 36.0075 31.0481 35.6937 31.7568 35.2869L34.4013 37.0483C34.5685 37.1596 34.7691 37.2097 34.969 37.1899C35.1689 37.1701 35.3557 37.0818 35.4979 36.9399L36.9485 35.4906C37.0905 35.3487 37.179 35.162 37.1988 34.9622C37.2185 34.7624 37.1685 34.562 37.057 34.395L35.294 31.7528C35.7012 31.0449 36.0152 30.2874 36.2284 29.4991L39.345 28.8764C39.542 28.8371 39.7192 28.7308 39.8466 28.5755C39.974 28.4203 40.0436 28.2257 40.0437 28.0249V25.9754C40.0437 25.5614 39.7513 25.2051 39.345 25.1239Z" fill="#0573CE"/>
<path d="M28.7381 7.40059C28.7381 8.35965 27.9598 9.13721 26.9999 9.13721C26.0399 9.13721 25.2617 8.35965 25.2617 7.40059C25.2617 6.44153 26.0399 5.66397 26.9999 5.66397C27.9598 5.66397 28.7381 6.44153 28.7381 7.40059Z" fill="#FFC522"/>
<path d="M14.3579 11.9134C15.0367 12.5916 15.0367 13.6911 14.3579 14.3693C13.6791 15.0475 12.5786 15.0475 11.8997 14.3693C11.2209 13.6911 11.2209 12.5916 11.8997 11.9134C12.5786 11.2351 13.6791 11.2351 14.3579 11.9134Z" fill="#FFC522"/>
<path d="M7.3827 25.2636C8.3427 25.2636 9.12086 26.0411 9.12086 27.0002C9.12086 27.9593 8.3427 28.7368 7.3827 28.7368C6.42269 28.7368 5.64453 27.9593 5.64453 27.0002C5.64453 26.0411 6.42269 25.2636 7.3827 25.2636Z" fill="#FFC522"/>
<path d="M11.8997 39.6306C12.5786 38.9524 13.6791 38.9524 14.3579 39.6306C15.0367 40.3089 15.0367 41.4084 14.3579 42.0866C13.6791 42.7648 12.5786 42.7648 11.8997 42.0866C11.2209 41.4084 11.2209 40.3089 11.8997 39.6306Z" fill="#FFC522"/>
<path d="M25.2617 46.5993C25.2617 45.6403 26.04 44.8627 26.9999 44.8627C27.9599 44.8627 28.7381 45.6403 28.7381 46.5993C28.7381 47.5584 27.9599 48.3359 26.9999 48.3359C26.04 48.3359 25.2617 47.5584 25.2617 46.5993Z" fill="#FFC522"/>
<path d="M39.6419 42.0866C38.9631 41.4083 38.9631 40.3088 39.6419 39.6306C40.3207 38.9524 41.4213 38.9524 42.1001 39.6306C42.7789 40.3088 42.7789 41.4083 42.1001 42.0866C41.4213 42.7648 40.3207 42.7648 39.6419 42.0866Z" fill="#FFC522"/>
<path d="M46.6171 28.7363C45.6571 28.7363 44.8789 27.9589 44.8789 26.9997C44.8789 26.0406 45.6571 25.2631 46.6171 25.2631C47.5771 25.2631 48.3552 26.0406 48.3552 26.9997C48.3552 27.9589 47.5771 28.7363 46.6171 28.7363Z" fill="#FFC522"/>
<path d="M42.1001 14.3693C41.4213 15.0475 40.3207 15.0475 39.6419 14.3693C38.9631 13.6911 38.9631 12.5915 39.6419 11.9134C40.3207 11.2351 41.4213 11.2351 42.1001 11.9134C42.7789 12.5915 42.7789 13.6911 42.1001 14.3693Z" fill="#FFC522"/>
</g>
</g>
<defs>
<clipPath id="clip0_424_270">
<rect width="44" height="44" fill="white" transform="translate(5 5)"/>
</clipPath>
</defs>
</svg>
