<svg width="80" height="60" viewBox="0 0 80 60" fill="none" xmlns="http://www.w3.org/2000/svg">
<path d="M0 0H50C66.5685 0 80 13.4315 80 30C80 46.5685 66.5685 60 50 60H0V0Z" fill="url(#paint0_linear_3964_606)"/>
<path d="M39.9995 17.4147C40.0016 16.6949 39.8598 15.982 39.5823 15.3178C39.3048 14.6536 38.8973 14.0516 38.3838 13.5473C37.8702 13.0429 37.261 12.6463 36.5919 12.3807C35.9228 12.1152 35.2073 11.9862 34.4876 12.0012C33.7679 12.0162 33.0584 12.1749 32.401 12.4681C31.7435 12.7612 31.1513 13.1829 30.6592 13.7082C30.1672 14.2336 29.7851 14.852 29.5355 15.5272C29.286 16.2023 29.174 16.9206 29.2061 17.6396C28.1482 17.9116 27.166 18.4207 26.334 19.1284C25.502 19.8362 24.842 20.7239 24.4039 21.7244C23.9658 22.7249 23.7612 23.812 23.8056 24.9033C23.8499 25.9946 24.142 27.0615 24.6598 28.0233C23.7494 28.7628 23.0335 29.7135 22.5744 30.7927C22.1153 31.8719 21.9269 33.047 22.0255 34.2156C22.1241 35.3843 22.5069 36.5111 23.1404 37.4981C23.7739 38.4851 24.639 39.3025 25.6605 39.8789C25.5343 40.8547 25.6096 41.846 25.8816 42.7916C26.1537 43.7372 26.6167 44.617 27.2421 45.3766C27.8675 46.1362 28.642 46.7596 29.5178 47.2082C30.3936 47.6568 31.3521 47.9212 32.3341 47.9849C33.3161 48.0486 34.3007 47.9104 35.2271 47.5787C36.1536 47.247 37.0022 46.7289 37.7205 46.0565C38.4389 45.384 39.0117 44.5715 39.4037 43.669C39.7957 42.7665 39.9985 41.7932 39.9995 40.8093V17.4147Z" stroke="white" stroke-width="2" stroke-linecap="round" stroke-linejoin="round"/>
<path d="M40 17.4147C39.9979 16.6949 40.1398 15.982 40.4172 15.3178C40.6947 14.6536 41.1022 14.0516 41.6158 13.5473C42.1293 13.0429 42.7386 12.6463 43.4077 12.3807C44.0768 12.1152 44.7922 11.9862 45.5119 12.0012C46.2317 12.0162 46.9411 12.1749 47.5986 12.4681C48.256 12.7612 48.8482 13.1829 49.3403 13.7082C49.8324 14.2336 50.2145 14.852 50.464 15.5272C50.7136 16.2023 50.8256 16.9206 50.7935 17.6396C51.8514 17.9116 52.8335 18.4207 53.6655 19.1284C54.4975 19.8362 55.1576 20.7239 55.5956 21.7244C56.0337 22.7249 56.2383 23.812 56.194 24.9033C56.1497 25.9946 55.8576 27.0615 55.3398 28.0233C56.2502 28.7628 56.966 29.7135 57.4251 30.7927C57.8843 31.8719 58.0727 33.047 57.974 34.2156C57.8754 35.3843 57.4927 36.5111 56.8592 37.4981C56.2257 38.4851 55.3605 39.3025 54.3391 39.8789C54.4652 40.8547 54.3899 41.846 54.1179 42.7916C53.8459 43.7372 53.3829 44.617 52.7574 45.3766C52.132 46.1362 51.3575 46.7596 50.4817 47.2082C49.6059 47.6568 48.6474 47.9212 47.6654 47.9849C46.6835 48.0486 45.6989 47.9104 44.7724 47.5787C43.846 47.247 42.9974 46.7289 42.279 46.0565C41.5607 45.384 40.9878 44.5715 40.5958 43.669C40.2038 42.7665 40.0011 41.7932 40 40.8093V17.4147Z" stroke="white" stroke-width="2" stroke-linecap="round" stroke-linejoin="round"/>
<path d="M45.3926 31.8116C43.8816 31.2801 42.5621 30.3126 41.601 29.0313C40.6399 27.75 40.0804 26.2125 39.9932 24.6133C39.906 26.2125 39.3464 27.75 38.3854 29.0313C37.4243 30.3126 36.1048 31.2801 34.5938 31.8116" stroke="white" stroke-width="2" stroke-linecap="round" stroke-linejoin="round"/>
<path d="M50.0781 20.1151C50.5137 19.3603 50.7601 18.5113 50.7962 17.6406" stroke="white" stroke-width="2" stroke-linecap="round" stroke-linejoin="round"/>
<path d="M29.2109 17.6406C29.2465 18.5111 29.4923 19.3601 29.9273 20.1151" stroke="white" stroke-width="2" stroke-linecap="round" stroke-linejoin="round"/>
<path d="M24.6562 28.0251C24.9855 27.757 25.3378 27.5185 25.7091 27.3125" stroke="white" stroke-width="2" stroke-linecap="round" stroke-linejoin="round"/>
<path d="M54.2891 27.3125C54.6604 27.5185 55.0127 27.757 55.342 28.0251" stroke="white" stroke-width="2" stroke-linecap="round" stroke-linejoin="round"/>
<path d="M29.2043 40.8075C27.9639 40.8081 26.7444 40.4882 25.6641 39.8789" stroke="white" stroke-width="2" stroke-linecap="round" stroke-linejoin="round"/>
<path d="M54.3371 39.8789C53.2567 40.4882 52.0372 40.8081 50.7969 40.8075" stroke="white" stroke-width="2" stroke-linecap="round" stroke-linejoin="round"/>
<defs>
<linearGradient id="paint0_linear_3964_606" x1="40" y1="0" x2="40" y2="60" gradientUnits="userSpaceOnUse">
<stop stop-color="#FF5E01"/>
<stop offset="1" stop-color="#FF9404"/>
</linearGradient>
</defs>
</svg>
