<svg width="48" height="48" viewBox="0 0 48 48" fill="none" xmlns="http://www.w3.org/2000/svg">
<path d="M36 26.9948V29.9948C36 36.5944 36 39.8942 33.9498 41.9446C31.8994 43.9948 28.5996 43.9948 22 43.9948C15.4003 43.9948 12.1005 43.9948 10.0503 41.9446C8 39.8942 8 36.5944 8 29.9948V17.9948C8 11.3951 8 8.09527 10.0503 6.04503C11.763 4.33227 14.3478 4.05033 19 4.00391" stroke="#ff6900" stroke-width="2.5" stroke-linecap="round"/>
<path d="M40 11.0039V6.00391C36 6.00391 33 4.00391 33 4.00391C33 4.00391 30 6.00391 26 6.00391V11.0039C26 18.0039 33 20.004 33 20.004C33 20.004 40 18.0039 40 11.0039Z" stroke="#ff6900" stroke-width="2.5" stroke-linecap="round"/>
<path d="M20 37.9961H24" stroke="#ff6900" stroke-width="2.5" stroke-linecap="round"/>
</svg>
