<svg width="52" height="52" viewBox="0 0 52 52" fill="none" xmlns="http://www.w3.org/2000/svg">
<path d="M16.852 20.7188C17.8964 22.528 19.4539 23.9869 21.3275 24.911C23.2011 25.8351 25.3066 26.1828 27.3778 25.9102C29.449 25.6376 31.3929 24.7569 32.9636 23.3796C34.5343 22.0022 35.6613 20.19 36.2021 18.1722C36.7429 16.1543 36.6731 14.0214 36.0017 12.0432C35.3302 10.0649 34.0873 8.33024 32.4299 7.05843C30.7726 5.78662 28.7754 5.03483 26.6908 4.89813C24.6062 4.76143 22.5279 5.24595 20.7186 6.29043C18.2939 7.69224 16.5247 9.99918 15.7997 12.7045C15.0747 15.4098 15.4532 18.2923 16.852 20.7188ZM21.5311 7.69768C23.062 6.81378 24.8205 6.40369 26.5844 6.51925C28.3484 6.63481 30.0384 7.27084 31.4408 8.3469C32.8432 9.42297 33.8951 10.8907 34.4633 12.5646C35.0315 14.2385 35.0906 16.0433 34.6332 17.7507C34.1757 19.4582 33.2221 20.9916 31.8931 22.1572C30.5641 23.3227 28.9193 24.0679 27.1668 24.2987C25.4142 24.5294 23.6326 24.2352 22.0472 23.4534C20.4618 22.6716 19.1439 21.4372 18.26 19.9063C17.6656 18.8918 17.2786 17.7694 17.1213 16.6042C16.9641 15.439 17.0399 14.2541 17.3442 13.1184C17.6485 11.9826 18.1753 10.9187 18.894 9.98812C19.6128 9.05759 20.5091 8.27906 21.5311 7.69768Z" fill="white"/>
<path d="M49.5625 42.2499H47.9164C48.4541 41.5508 48.747 40.6943 48.75 39.8124V15.4374C48.7487 14.3603 48.3203 13.3278 47.5587 12.5662C46.7971 11.8046 45.7645 11.3762 44.6875 11.3749H39.1909C38.3281 8.55075 36.5813 6.07831 34.2076 4.32159C31.834 2.56487 28.9591 1.6167 26.0061 1.6167C23.0531 1.6167 20.1782 2.56487 17.8045 4.32159C15.4309 6.07831 13.6841 8.55075 12.8212 11.3749H7.3125C6.23545 11.3762 5.20289 11.8046 4.4413 12.5662C3.67972 13.3278 3.25129 14.3603 3.25 15.4374V39.8124C3.25299 40.6943 3.54591 41.5508 4.08363 42.2499H2.4375C2.22201 42.2499 2.01535 42.3355 1.86298 42.4878C1.7106 42.6402 1.625 42.8469 1.625 43.0624V46.3124C1.62629 47.3894 2.05472 48.422 2.8163 49.1836C3.57789 49.9451 4.61045 50.3736 5.6875 50.3749H46.3125C47.3895 50.3736 48.4221 49.9451 49.1837 49.1836C49.9453 48.422 50.3737 47.3894 50.375 46.3124V43.0624C50.375 42.8469 50.2894 42.6402 50.137 42.4878C49.9847 42.3355 49.778 42.2499 49.5625 42.2499ZM44.6875 12.9999C45.334 12.9999 45.954 13.2567 46.4111 13.7138C46.8682 14.1709 47.125 14.7909 47.125 15.4374V39.8124C47.1231 40.4179 46.8953 41.001 46.4863 41.4476C46.0773 41.8941 45.5164 42.1721 44.9134 42.2271C45.0327 41.6839 45.0388 41.1218 44.9312 40.5761C45.0951 40.5261 45.2386 40.425 45.3409 40.2876C45.4433 40.1502 45.499 39.9837 45.5 39.8124V15.4374C45.5 15.2219 45.4144 15.0152 45.262 14.8628C45.1097 14.7105 44.903 14.6249 44.6875 14.6249H39.7727C39.7407 14.0799 39.6764 13.5372 39.5801 12.9999H44.6875ZM12.2273 16.2499C12.3886 19.1469 13.4618 21.9187 15.2934 24.1691C17.1249 26.4195 19.6211 28.0332 22.425 28.7794C23.598 29.0946 24.8073 29.2547 26.0219 29.2556C27.6128 29.2537 29.1912 28.9738 30.6857 28.4284L32.825 32.1367L32.1222 32.5429C31.9356 32.6507 31.7994 32.8281 31.7436 33.0363C31.6879 33.2444 31.7171 33.4662 31.8248 33.6528L34.9131 38.9999H8.125V16.2499H12.2273ZM33.5896 26.9578L35.6411 30.5109L34.2339 31.3234L32.1896 27.7825C32.4334 27.6614 32.6706 27.5387 32.9062 27.3998C33.1419 27.2609 33.3629 27.1065 33.5896 26.9578ZM33.6391 33.5439L35.7516 32.3252L37.1589 31.5127L37.8609 31.1064L43.069 40.1252V40.1292C43.3922 40.6895 43.4797 41.3552 43.312 41.98C43.1444 42.6047 42.7355 43.1373 42.1753 43.4605C41.615 43.7837 40.9493 43.8712 40.3245 43.7035C39.6998 43.5359 39.1672 43.127 38.844 42.5667L33.6391 33.5439ZM38.8619 29.5895C38.7541 29.4029 38.5767 29.2667 38.3685 29.2109C38.1604 29.1552 37.9386 29.1844 37.752 29.2921L37.0484 29.6984L34.9026 25.9828C36.3312 24.7745 37.4998 23.289 38.3377 21.616C39.1756 19.9431 39.6655 18.1176 39.7776 16.2499H43.875V38.2735L38.8619 29.5895ZM19.9062 4.88299C21.7513 3.81128 23.8468 3.24594 25.9805 3.24418C27.0522 3.2452 28.1192 3.38669 29.1541 3.66505C31.4824 4.28893 33.5734 5.58921 35.1627 7.40146C36.752 9.2137 37.7682 11.4565 38.0829 13.8463C38.3975 16.2361 37.9965 18.6655 36.9304 20.8274C35.8644 22.9893 34.1812 24.7865 32.0938 25.9917C30.7072 26.8046 29.1735 27.3352 27.581 27.5529C25.9886 27.7707 24.3687 27.6713 22.8148 27.2604C21.2609 26.8496 19.8037 26.1355 18.5269 25.1592C17.2501 24.1828 16.179 22.9636 15.3754 21.5717C14.5717 20.1797 14.0513 18.6426 13.8442 17.0487C13.637 15.4548 13.7471 13.8357 14.1683 12.2846C14.5894 10.7334 15.3132 9.28089 16.2979 8.01062C17.2827 6.74034 18.509 5.6774 19.9062 4.88299ZM4.875 15.4374C4.875 14.7909 5.13181 14.1709 5.58893 13.7138C6.04605 13.2567 6.66603 12.9999 7.3125 12.9999H12.4174C12.3205 13.5372 12.2551 14.0798 12.2216 14.6249H7.3125C7.09701 14.6249 6.89035 14.7105 6.73798 14.8628C6.5856 15.0152 6.5 15.2219 6.5 15.4374V39.8124C6.5 40.0279 6.5856 40.2345 6.73798 40.3869C6.89035 40.5393 7.09701 40.6249 7.3125 40.6249H35.8507L36.7892 42.2499H7.3125C6.66603 42.2499 6.04605 41.9931 5.58893 41.5359C5.13181 41.0788 4.875 40.4588 4.875 39.8124V15.4374ZM29.25 43.8749V44.6874C29.25 44.9029 29.1644 45.1095 29.012 45.2619C28.8597 45.4143 28.653 45.4999 28.4375 45.4999H23.5625C23.347 45.4999 23.1403 45.4143 22.988 45.2619C22.8356 45.1095 22.75 44.9029 22.75 44.6874V43.8749H29.25ZM48.75 46.3124C48.75 46.9588 48.4932 47.5788 48.0361 48.0359C47.579 48.4931 46.959 48.7499 46.3125 48.7499H5.6875C5.04103 48.7499 4.42105 48.4931 3.96393 48.0359C3.50681 47.5788 3.25 46.9588 3.25 46.3124V43.8749H21.125V44.6874C21.125 45.3338 21.3818 45.9538 21.8389 46.4109C22.296 46.8681 22.916 47.1249 23.5625 47.1249H28.4375C29.084 47.1249 29.704 46.8681 30.1611 46.4109C30.6182 45.9538 30.875 45.3338 30.875 44.6874V43.8749H37.7812C38.1591 44.3564 38.6415 44.7457 39.1919 45.0134C39.7424 45.2811 40.3465 45.4202 40.9585 45.4202C41.5706 45.4202 42.1747 45.2811 42.7251 45.0134C43.2755 44.7457 43.7579 44.3564 44.1358 43.8749H48.75V46.3124Z" fill="white"/>
<path d="M29.25 20.3125H31.6875C31.903 20.3125 32.1097 20.2269 32.262 20.0745C32.4144 19.9222 32.5 19.7155 32.5 19.5V11.375C32.5 11.1595 32.4144 10.9528 32.262 10.8005C32.1097 10.6481 31.903 10.5625 31.6875 10.5625H29.25C29.0345 10.5625 28.8278 10.6481 28.6755 10.8005C28.5231 10.9528 28.4375 11.1595 28.4375 11.375V19.5C28.4375 19.7155 28.5231 19.9222 28.6755 20.0745C28.8278 20.2269 29.0345 20.3125 29.25 20.3125ZM30.0625 12.1875H30.875V18.6875H30.0625V12.1875ZM24.375 20.3125H26.8125C27.028 20.3125 27.2347 20.2269 27.387 20.0745C27.5394 19.9222 27.625 19.7155 27.625 19.5V13.8125C27.625 13.597 27.5394 13.3903 27.387 13.238C27.2347 13.0856 27.028 13 26.8125 13H24.375C24.1595 13 23.9528 13.0856 23.8005 13.238C23.6481 13.3903 23.5625 13.597 23.5625 13.8125V19.5C23.5625 19.7155 23.6481 19.9222 23.8005 20.0745C23.9528 20.2269 24.1595 20.3125 24.375 20.3125ZM25.1875 14.625H26V18.6875H25.1875V14.625ZM19.5 20.3125H21.9375C22.153 20.3125 22.3597 20.2269 22.512 20.0745C22.6644 19.9222 22.75 19.7155 22.75 19.5V16.25C22.75 16.0345 22.6644 15.8278 22.512 15.6755C22.3597 15.5231 22.153 15.4375 21.9375 15.4375H19.5C19.2845 15.4375 19.0778 15.5231 18.9255 15.6755C18.7731 15.8278 18.6875 16.0345 18.6875 16.25V19.5C18.6875 19.7155 18.7731 19.9222 18.9255 20.0745C19.0778 20.2269 19.2845 20.3125 19.5 20.3125ZM20.3125 17.0625H21.125V18.6875H20.3125V17.0625ZM12.1875 34.125H13.8125C14.028 34.125 14.2347 34.0394 14.387 33.887C14.5394 33.7347 14.625 33.528 14.625 33.3125C14.625 33.097 14.5394 32.8903 14.387 32.738C14.2347 32.5856 14.028 32.5 13.8125 32.5H12.1875C11.972 32.5 11.7653 32.5856 11.613 32.738C11.4606 32.8903 11.375 33.097 11.375 33.3125C11.375 33.528 11.4606 33.7347 11.613 33.887C11.7653 34.0394 11.972 34.125 12.1875 34.125ZM17.0625 34.125H29.25C29.4655 34.125 29.6722 34.0394 29.8245 33.887C29.9769 33.7347 30.0625 33.528 30.0625 33.3125C30.0625 33.097 29.9769 32.8903 29.8245 32.738C29.6722 32.5856 29.4655 32.5 29.25 32.5H17.0625C16.847 32.5 16.6403 32.5856 16.488 32.738C16.3356 32.8903 16.25 33.097 16.25 33.3125C16.25 33.528 16.3356 33.7347 16.488 33.887C16.6403 34.0394 16.847 34.125 17.0625 34.125ZM12.1875 30.875H13.8125C14.028 30.875 14.2347 30.7894 14.387 30.637C14.5394 30.4847 14.625 30.278 14.625 30.0625C14.625 29.847 14.5394 29.6403 14.387 29.488C14.2347 29.3356 14.028 29.25 13.8125 29.25H12.1875C11.972 29.25 11.7653 29.3356 11.613 29.488C11.4606 29.6403 11.375 29.847 11.375 30.0625C11.375 30.278 11.4606 30.4847 11.613 30.637C11.7653 30.7894 11.972 30.875 12.1875 30.875ZM17.0625 30.875H20.3125C20.528 30.875 20.7347 30.7894 20.887 30.637C21.0394 30.4847 21.125 30.278 21.125 30.0625C21.125 29.847 21.0394 29.6403 20.887 29.488C20.7347 29.3356 20.528 29.25 20.3125 29.25H17.0625C16.847 29.25 16.6403 29.3356 16.488 29.488C16.3356 29.6403 16.25 29.847 16.25 30.0625C16.25 30.278 16.3356 30.4847 16.488 30.637C16.6403 30.7894 16.847 30.875 17.0625 30.875ZM12.1875 37.375H13.8125C14.028 37.375 14.2347 37.2894 14.387 37.137C14.5394 36.9847 14.625 36.778 14.625 36.5625C14.625 36.347 14.5394 36.1403 14.387 35.988C14.2347 35.8356 14.028 35.75 13.8125 35.75H12.1875C11.972 35.75 11.7653 35.8356 11.613 35.988C11.4606 36.1403 11.375 36.347 11.375 36.5625C11.375 36.778 11.4606 36.9847 11.613 37.137C11.7653 37.2894 11.972 37.375 12.1875 37.375ZM17.0625 37.375H29.25C29.4655 37.375 29.6722 37.2894 29.8245 37.137C29.9769 36.9847 30.0625 36.778 30.0625 36.5625C30.0625 36.347 29.9769 36.1403 29.8245 35.988C29.6722 35.8356 29.4655 35.75 29.25 35.75H17.0625C16.847 35.75 16.6403 35.8356 16.488 35.988C16.3356 36.1403 16.25 36.347 16.25 36.5625C16.25 36.778 16.3356 36.9847 16.488 37.137C16.6403 37.2894 16.847 37.375 17.0625 37.375Z" fill="white"/>
</svg>
