<svg width="512" height="512" viewBox="0 0 512 512" fill="none" xmlns="http://www.w3.org/2000/svg">
<path fill-rule="evenodd" clip-rule="evenodd" d="M234.598 12.1821H277.402C283.5 12.1821 288.489 17.1711 288.489 23.2701V43.4631C288.489 55.6771 295.457 66.1061 306.741 70.7801C318.025 75.4541 330.327 73.0071 338.963 64.3711L353.242 50.0921C357.554 45.7801 364.61 45.7801 368.922 50.0921L399.189 80.3591C403.501 84.6711 403.501 91.7271 399.189 96.0391L384.911 110.318C376.274 118.954 373.828 131.256 378.501 142.54C383.175 153.824 393.604 160.792 405.818 160.792H426.011C432.109 160.792 437.099 165.782 437.099 171.88V173.062C413.511 175.496 390.304 181.695 367.564 191.302C359.81 194.578 355.917 203.322 358.671 211.276L360.615 216.89C350.64 215.802 341.407 213.585 332.332 210.953C333.666 205.158 334.338 199.229 334.334 193.282C334.334 150.019 299.262 114.947 255.999 114.947C212.736 114.947 177.665 150.019 177.665 193.282C177.665 205.519 180.473 217.1 185.476 227.418C179.677 227.572 173.875 227.346 168.106 226.743C161.883 226.087 155.613 224.969 149.144 223.356L153.327 211.276C156.081 203.322 152.188 194.578 144.434 191.302C121.694 181.695 98.487 175.496 74.898 173.062V171.88C74.898 165.782 79.888 160.792 85.986 160.792H106.179C118.393 160.792 128.822 153.824 133.496 142.54C138.17 131.256 135.723 118.954 127.086 110.318L112.81 96.0381C108.498 91.7261 108.498 84.6701 112.81 80.3581L143.077 50.0911C147.389 45.7791 154.445 45.7791 158.757 50.0911L173.035 64.3701C181.672 73.0061 193.973 75.4531 205.257 70.7801C216.541 66.1061 223.509 55.6771 223.509 43.4631V23.2691C223.51 17.1711 228.5 12.1821 234.598 12.1821ZM208.72 432.18C207.38 430.75 206.654 428.851 206.699 426.892C206.745 424.933 207.557 423.069 208.962 421.703C210.367 420.336 212.252 419.576 214.212 419.585C216.172 419.594 218.05 420.372 219.442 421.751C238.328 441.103 257.095 460.503 276.201 479.608C282.644 486.051 293.163 486.049 299.605 479.608C306.031 473.181 306.03 462.632 299.604 456.206C299.632 456.178 257.653 413.193 253.829 409.274C252.474 407.847 251.737 405.943 251.776 403.976C251.816 402.008 252.629 400.135 254.039 398.763C255.45 397.391 257.344 396.63 259.312 396.645C261.28 396.661 263.163 397.451 264.552 398.844C281.948 416.669 299.231 434.621 316.826 452.218C323.252 458.644 333.802 458.642 340.227 452.217C346.668 445.776 346.673 435.258 340.229 428.814C340.257 428.786 298.278 385.801 294.454 381.882C293.751 381.182 293.195 380.349 292.817 379.431C292.439 378.514 292.248 377.53 292.254 376.538C292.26 375.546 292.463 374.565 292.852 373.652C293.241 372.74 293.808 371.913 294.519 371.222C295.23 370.53 296.072 369.986 296.995 369.623C297.918 369.26 298.904 369.084 299.896 369.105C300.888 369.127 301.866 369.346 302.773 369.749C303.679 370.152 304.496 370.731 305.177 371.453C321.864 388.551 338.448 405.822 355.323 422.698C361.714 429.089 372.335 429.089 378.726 422.698C385.268 416.156 384.892 405.716 378.609 399.147C375.099 395.463 371.589 391.778 368.071 388.1C362.924 386.004 358.137 382.848 353.971 378.686L266.819 291.588C259.475 297.574 248.846 307.022 248.846 319.955C248.846 337.02 240.759 351.003 228.455 360.963C215.313 371.601 197.296 377.553 179.456 377.553C177.467 377.553 175.559 376.763 174.153 375.356C172.746 373.95 171.956 372.042 171.956 370.053V289.994C171.956 278.033 176.591 267.356 185.302 259.165L204.779 240.851C191.529 242.613 179.141 242.951 166.584 241.627C159.217 240.85 151.835 239.506 144.231 237.548L99.415 366.957C122.284 378.442 137.878 394.341 155.344 412.239C162.193 419.257 237.378 496.557 237.521 496.414C242.147 501.041 249.776 500.882 254.413 496.358C259.176 491.679 259.217 483.835 254.495 479.112L208.72 432.18ZM366.048 232.577C346.964 231.43 330.61 226.257 313.797 220.935C285.096 211.851 262.346 207.26 237.735 230.401L195.556 270.06C189.745 275.524 186.956 282.018 186.956 289.99V362.133C198.909 360.809 210.371 356.359 219.021 349.357C227.966 342.116 233.845 332.073 233.845 319.951C233.845 298.966 249.583 286.263 258.974 278.684C259.249 278.462 262.327 275.904 262.329 275.907C263.752 274.641 265.604 273.966 267.508 274.018C269.412 274.071 271.224 274.848 272.575 276.191L364.518 368.077C372.559 376.113 383.7 378.344 394.222 374.05C400.607 371.444 406.465 368.615 412.173 365.77L366.048 232.577ZM501 191.058C458.467 182.463 415.934 187.15 373.401 205.118C373.167 205.216 372.979 205.4 372.876 205.632C372.773 205.864 372.762 206.126 372.845 206.366L433.445 381.357C433.587 381.767 433.956 382.03 434.39 382.03H501V191.058ZM11 191.058V382.03H77.61C77.8184 382.032 78.0222 381.968 78.192 381.847C78.3617 381.726 78.4888 381.555 78.555 381.357L139.155 206.366C139.238 206.126 139.227 205.864 139.124 205.632C139.021 205.4 138.833 205.216 138.599 205.118C96.066 187.15 53.533 182.463 11 191.058Z" fill="black"/>
</svg>
