<svg width="74" height="74" viewBox="0 0 74 74" fill="none" xmlns="http://www.w3.org/2000/svg">
<rect x="2.5" y="2.5" width="69" height="69" rx="14.5" fill="#1248B5" stroke="#BACCEF" stroke-width="5"/>
<g clip-path="url(#clip0_3974_204)">
<path d="M13 13H61V61H13V13Z" fill="#1248B5"/>
<path d="M19 37C19 38.8697 19.324 40.6648 19.9226 42.3333M19.9226 42.3333H35.2002M19.9226 42.3333C22.1444 48.5474 28.1462 53 35.2002 53C32.42 53 30.1319 46.7783 29.8326 38.7783M38.8245 31.6667H54.1036M54.1036 31.6667C51.8788 25.4526 45.8785 21 38.8245 21C41.7066 21 44.061 27.688 44.2168 36.1116M54.1036 31.6667C54.605 33.0686 54.9151 34.5619 55 36.1116" stroke="white" stroke-width="1.5" stroke-linecap="round" stroke-linejoin="round"/>
<path d="M19.0015 24.934C19.0015 22.9576 19.0015 21.9686 19.3394 21.2017C19.6958 20.3886 20.3129 19.736 21.0797 19.3564C21.8033 19 22.7367 19 24.602 19H26.2003C29.5945 19 31.2916 19 32.3453 20.1171C33.3991 21.2341 33.3991 23.0332 33.3991 26.6297V30.6968C33.3991 32.2659 33.3991 33.0513 32.9239 33.3197C32.4487 33.5897 31.8331 33.1546 30.6004 32.2844L30.4137 32.1517C29.5127 31.5161 29.0638 31.1967 28.5531 31.0331C28.0424 30.8696 27.5024 30.8696 26.4194 30.8696H24.5989C22.7352 30.8696 21.8017 30.8696 21.0782 30.5132C20.2987 30.1218 19.6823 29.4677 19.3379 28.6663C19 27.8995 19.0015 26.912 19.0015 24.934ZM55 46.5347C55 44.5583 55 43.5693 54.6637 42.8024C54.3185 42.0014 53.7016 41.3479 52.9218 40.9571C52.1983 40.5992 51.2664 40.5992 49.4011 40.5992H47.7997C44.4055 40.5992 42.7084 40.5992 41.6531 41.7178C40.5994 42.8348 40.5994 44.6339 40.5994 48.2304V52.2975C40.5994 53.8666 40.5994 54.652 41.0746 54.9204C41.5498 55.1905 42.1653 54.7554 43.398 53.8852L43.5863 53.7525C44.4857 53.1168 44.9362 52.7989 45.4454 52.6339C45.9545 52.4688 46.4976 52.4703 47.5791 52.4703H49.3996C51.2648 52.4703 52.1967 52.4703 52.9203 52.1139C53.6871 51.7343 54.3042 51.0801 54.6621 50.267C54.9985 49.5017 55 48.5127 55 46.5347Z" stroke="white" stroke-width="1.5"/>
</g>
<defs>
<clipPath id="clip0_3974_204">
<rect width="48" height="48" fill="white" transform="translate(13 13)"/>
</clipPath>
</defs>
</svg>
