<svg width="74" height="74" viewBox="0 0 74 74" fill="none" xmlns="http://www.w3.org/2000/svg">
<rect x="2.5" y="2.5" width="69" height="69" rx="14.5" fill="#1248B5" stroke="#BACCEF" stroke-width="5"/>
<g clip-path="url(#clip0_3974_203)">
<path d="M13 13H61V61H13V13Z" fill="#1248B5"/>
<path d="M29 36.8571H39.3449M29 30H34.1725M30.7232 50.5713C32.535 52.0612 34.7134 53.0103 37.2109 53.1734C39.1809 53.3027 41.2351 53.3027 43.2006 53.1734C43.9032 53.127 44.5942 52.9724 45.2489 52.715C45.9553 52.43 46.3085 52.2875 46.4888 52.308C46.6677 52.3301 46.9278 52.5181 47.4494 52.8957C48.3687 53.5599 49.5258 54.0374 51.2416 53.9977C52.1091 53.9757 52.5421 53.9654 52.7372 53.6407C52.9323 53.316 52.6899 52.8649 52.2052 51.9657C51.5342 50.7183 51.1101 49.2901 51.7544 48.1456C52.8628 46.5103 53.8057 44.5752 53.9446 42.483C54.0185 41.3604 54.0185 40.1968 53.9446 39.0743C53.8557 37.7168 53.5244 36.3859 52.9662 35.1439" stroke="white" stroke-width="1.5" stroke-linecap="round" stroke-linejoin="round"/>
<path d="M37.6468 46.1338C43.712 45.739 48.5445 40.9367 48.9408 34.9092C49.0197 33.7289 49.0197 32.5066 48.9408 31.3263C48.5445 25.2974 43.712 20.4951 37.6468 20.1017C35.5508 19.9661 33.4481 19.9661 31.3521 20.1017C25.2869 20.4965 20.4558 25.2974 20.0581 31.3263C19.9806 32.5066 19.9806 33.7274 20.0581 34.9078C20.2029 37.1035 21.1942 39.1372 22.3596 40.8528C23.0366 42.0548 22.5906 43.5562 21.8844 44.8653C21.3756 45.8098 21.1226 46.2828 21.3258 46.6242C21.5305 46.9656 21.9868 46.9757 22.8992 46.9974C24.7035 47.0408 25.92 46.5389 26.8851 45.8417C27.4334 45.4453 27.7068 45.2486 27.8955 45.2255C28.0856 45.2023 28.4555 45.3527 29.1983 45.6522C29.8665 45.9212 30.6415 46.0876 31.3521 46.1338C33.4167 46.2684 35.5778 46.2684 37.6468 46.1338Z" stroke="white" stroke-width="1.5" stroke-linejoin="round"/>
</g>
<defs>
<clipPath id="clip0_3974_203">
<rect width="48" height="48" fill="white" transform="translate(13 13)"/>
</clipPath>
</defs>
</svg>
