<svg width="50" height="50" viewBox="0 0 50 50" fill="none" xmlns="http://www.w3.org/2000/svg">
<path d="M25.0082 49C24.3637 49 23.7248 48.832 23.1601 48.507L17.2765 45.03C16.3974 44.5393 16.8263 44.3657 17.116 44.266C18.2882 43.857 18.5251 43.764 19.7759 43.0547C19.9073 42.9797 20.0791 43.0067 20.2138 43.086L24.7342 45.763C24.897 45.8513 25.1295 45.8513 25.2799 45.763L42.9047 35.6103C43.0673 35.5173 43.174 35.329 43.174 35.135V14.8397C43.174 14.6369 43.0687 14.4565 42.9013 14.3557L25.2844 4.21077C25.1216 4.1144 24.9049 4.1144 24.7421 4.21077L7.12749 14.3545C6.95683 14.4509 6.84789 14.6403 6.84789 14.8341V35.1307C6.84789 35.3243 6.95346 35.5093 7.12186 35.6013L11.9488 38.3833C14.5695 39.691 16.1706 38.1503 16.1706 36.6007V16.5697C16.1706 16.284 16.3951 16.0633 16.6826 16.0633H18.9147C19.1932 16.0633 19.4222 16.2829 19.4222 16.5697V36.6107C19.4222 40.0977 17.5168 42.101 14.2034 42.101C13.1839 42.101 12.3811 42.101 10.14 41.001L5.51626 38.342C4.37323 37.681 3.66699 36.4473 3.66699 35.1317V14.8352C3.66699 13.5142 4.37323 12.2816 5.51513 11.6295L23.1589 1.47229C24.275 0.842571 25.7571 0.842571 26.8653 1.47229L44.4867 11.634C45.623 12.2895 46.3337 13.5186 46.3337 14.8397V35.1363C46.3337 36.4527 45.623 37.681 44.4857 38.342L26.8642 48.498C26.2994 48.824 25.6594 48.991 25.0071 48.991" fill="#21A366"/>
<path d="M30.4528 34.9798C22.6384 34.9798 21 31.4769 21 28.5395C21 28.2606 21.231 28.0373 21.5177 28.0373H23.8252C24.08 28.0373 24.2951 28.2184 24.3349 28.4639C24.6831 30.7592 25.7207 31.9169 30.446 31.9169C34.2097 31.9169 35.8107 31.0869 35.8107 29.1372C35.8107 28.0151 35.3543 27.1818 29.5073 26.623C24.6159 26.152 21.5939 25.0999 21.5939 21.2803C21.5939 17.7618 24.6341 15.6665 29.7258 15.6665C35.4443 15.6665 38.2787 17.6052 38.636 21.7691C38.6497 21.9136 38.596 22.0524 38.497 22.158C38.3993 22.258 38.2603 22.3191 38.117 22.3191H35.797C35.556 22.3191 35.3453 22.1535 35.2963 21.9258C34.7377 19.5116 33.3873 18.7395 29.7167 18.7395C25.6081 18.7395 25.1302 20.136 25.1302 21.1836C25.1302 22.4535 25.6934 22.8246 31.2368 23.5412C36.7267 24.2522 39.3333 25.2565 39.3333 29.0239C39.3333 32.8212 36.0873 34.9998 30.4278 34.9998" fill="#21A366"/>
</svg>
