<svg width="48" height="47" viewBox="0 0 48 47" fill="none" xmlns="http://www.w3.org/2000/svg">
<path d="M8.81598 20.3927C8.51769 20.6489 8.14291 20.7599 7.78343 20.7293C7.43542 20.7025 7.09506 20.5457 6.84266 20.2665C6.81971 20.2435 6.80059 20.2206 6.78147 20.1938C6.54819 19.9032 6.44876 19.5475 6.47553 19.2033C6.5023 18.8552 6.6591 18.5148 6.93827 18.2624C6.95739 18.2433 6.98033 18.2242 7.00328 18.205C9.50817 16.0633 12.1775 14.4378 14.9424 13.3555C17.738 12.2578 20.6253 11.7109 23.5394 11.7377C25.9028 11.7568 28.27 12.1546 30.6066 12.9424L28.3274 15.2257C26.7288 14.8088 25.1188 14.5946 23.5203 14.5794C20.9695 14.5564 18.4225 15.0459 15.952 16.0212C13.4663 16.9927 11.0723 18.4575 8.81598 20.3927ZM25.811 0.110994C25.4439 0.0765731 25.0653 0.0498011 24.6752 0.0306783C24.3042 0.0115554 23.9142 0.00390625 23.5011 0.00390625C23.0881 0.00390625 22.698 0.0115554 22.3309 0.0306783C21.9408 0.0498011 21.5622 0.0765731 21.1951 0.110994C20.8318 0.145415 20.457 0.19131 20.067 0.248679C19.6845 0.306047 19.2983 0.371065 18.912 0.447557C18.5449 0.520223 18.1739 0.604364 17.8068 0.696154C17.4244 0.791768 17.0573 0.895031 16.7054 1.00212C16.3192 1.12068 15.952 1.23924 15.6002 1.36545C15.2331 1.49549 14.8813 1.62935 14.5447 1.77086L14.4912 1.79381C14.1355 1.94296 13.7837 2.09595 13.4472 2.25658C13.0953 2.42104 12.7588 2.59314 12.4376 2.76525C12.1048 2.94118 11.7721 3.13241 11.4356 3.33511C11.1029 3.53399 10.774 3.74434 10.4566 3.95469C10.1506 4.15739 9.84471 4.37539 9.53494 4.60487C9.23665 4.82669 8.93071 5.06381 8.61712 5.32006C8.31118 5.56866 8.01671 5.82108 7.73754 6.0735C7.45072 6.33357 7.17537 6.59364 6.91532 6.85371L6.88855 6.88049C6.60938 7.15968 6.33786 7.44652 6.07398 7.73337C5.82158 8.01256 5.57301 8.2994 5.3359 8.59007C5.09497 8.88456 4.85787 9.1867 4.62459 9.50032C4.39513 9.81011 4.17333 10.1275 3.95917 10.4488C3.74501 10.7663 3.5385 11.0952 3.33964 11.4279C3.14078 11.7606 2.94956 12.0972 2.77365 12.4261C2.59773 12.755 2.42564 13.0992 2.25737 13.4549C2.09293 13.803 1.93613 14.1548 1.79081 14.5029L1.78699 14.5143C1.63402 14.8853 1.49252 15.2448 1.36632 15.6005C1.23629 15.96 1.11774 16.3234 1.00684 16.6829C0.89976 17.0309 0.800329 17.3942 0.708547 17.7729C0.616764 18.14 0.532631 18.5187 0.456146 18.9088C0.37966 19.2912 0.310824 19.6775 0.257284 20.06C0.19992 20.4386 0.154029 20.8058 0.119611 21.1576L0.111962 21.192C0.0775438 21.5592 0.0469497 21.9378 0.0316526 22.3279C0.0125313 22.6951 0.00488281 23.0852 0.00488281 23.4983C0.00488281 23.9113 0.0125313 24.3014 0.0316526 24.6686C0.0507739 25.0587 0.0775438 25.4335 0.111962 25.8006C0.14638 26.1678 0.196096 26.5464 0.25346 26.9365C0.310824 27.319 0.375836 27.7015 0.452321 28.0839C0.528807 28.474 0.61294 28.8527 0.704723 29.2198C0.800329 29.5984 0.89976 29.9618 1.00684 30.3098C1.11392 30.6617 1.23247 31.025 1.37014 31.3998C1.49634 31.7555 1.63402 32.115 1.78699 32.4822C2.08146 33.1974 2.41034 33.8934 2.77365 34.5704C3.13695 35.2512 3.53085 35.909 3.95917 36.5477C4.38366 37.1864 4.84257 37.8022 5.33208 38.395C5.82158 38.9916 6.34168 39.5653 6.89238 40.1122L7.12948 40.3531C7.33217 40.5482 7.53103 40.7394 7.73371 40.9192C8.00524 41.164 8.29588 41.4164 8.60564 41.6688C8.90011 41.9097 9.20223 42.1469 9.51582 42.3802C9.82558 42.6096 10.143 42.8315 10.4604 43.0456C10.7816 43.2598 11.1067 43.4663 11.4432 43.669C11.7798 43.8717 12.1125 44.0592 12.4452 44.2389C12.7741 44.4148 13.1183 44.5869 13.4739 44.7552C13.7455 44.8853 14.0208 45.0076 14.2961 45.1224L14.5332 45.2218C14.9042 45.3748 15.2675 45.5163 15.6232 45.6425C15.9673 45.7649 16.3268 45.8835 16.7016 45.9982C17.0496 46.1053 17.4129 46.2047 17.7953 46.3004C18.1625 46.3921 18.5372 46.4763 18.9273 46.5528C19.3097 46.6293 19.6922 46.6943 20.0746 46.7517C20.4647 46.809 20.8395 46.8549 21.1989 46.8932C21.5661 46.9276 21.9447 46.9582 22.3347 46.9735C22.7057 46.9926 23.0996 47.0002 23.5126 47.0002C23.9256 47.0002 24.3195 46.9926 24.6867 46.9735C25.0767 46.9543 25.4553 46.9276 25.8225 46.8932C26.1858 46.8587 26.5605 46.809 26.9506 46.7517C27.333 46.6943 27.7155 46.6293 28.0979 46.5528C28.4841 46.4763 28.8589 46.3921 29.2261 46.3004C29.5167 46.2277 29.7997 46.1512 30.0712 46.0747V46.0709L30.3121 45.9982C30.6793 45.8873 31.0464 45.7649 31.4174 45.6349C31.7807 45.5048 32.1287 45.371 32.4652 45.2333L32.84 45.0688L32.8438 45.0727C33.0886 44.9656 33.3333 44.8547 33.5704 44.7438C33.9184 44.5793 34.2588 44.4072 34.5838 44.2351C34.9166 44.0592 35.2493 43.8679 35.582 43.669C35.9147 43.4702 36.2436 43.2598 36.5648 43.0456C36.8861 42.8315 37.2035 42.6096 37.5132 42.3763C37.8268 42.1469 38.1289 41.9097 38.4234 41.6688C38.7217 41.424 39.0123 41.1716 39.2953 40.9154C39.5745 40.6629 39.8537 40.3952 40.1328 40.116C40.412 39.8368 40.6797 39.5576 40.9321 39.2784C41.1769 39.0069 41.4254 38.7162 41.6817 38.4064C41.9226 38.1119 42.1597 37.8098 42.393 37.4962C42.6224 37.1826 42.8481 36.8651 43.0622 36.5439C43.2764 36.2226 43.4829 35.8975 43.6856 35.561C43.8883 35.2244 44.0757 34.8917 44.2554 34.5589C44.4313 34.23 44.6034 33.8858 44.7717 33.5339C44.9361 33.1859 45.0929 32.834 45.2344 32.486L45.2382 32.4745C45.3912 32.1035 45.5327 31.7402 45.6589 31.3883C45.7889 31.0288 45.9075 30.6655 46.0184 30.306C46.1255 29.958 46.2249 29.5946 46.3205 29.216C46.4123 28.8488 46.4964 28.4702 46.5729 28.0839C46.6494 27.7015 46.7182 27.3152 46.7718 26.9327C46.8291 26.5541 46.875 26.1869 46.9094 25.8351L46.9133 25.8045C46.9477 25.4373 46.9783 25.0587 46.9936 24.6686C47.0127 24.3014 47.0203 23.9075 47.0203 23.4944C47.0203 23.0814 47.0127 22.6913 46.9936 22.3241C46.9745 21.934 46.9477 21.5554 46.9133 21.1882L46.9094 21.1576C46.875 20.8058 46.8291 20.4386 46.7718 20.0561C46.7144 19.6737 46.6494 19.2874 46.5729 18.9049C46.4964 18.5148 46.4123 18.1362 46.3205 17.7729C46.2249 17.3904 46.1255 17.0271 46.0184 16.679C45.9075 16.3157 45.7851 15.9524 45.6589 15.589C45.5289 15.2295 45.3912 14.8662 45.2421 14.5067C45.0967 14.1548 44.9399 13.803 44.7755 13.4511C44.6072 13.0954 44.4351 12.7512 44.2592 12.4223C44.0833 12.0896 43.8921 11.7568 43.6932 11.4203C43.4944 11.0875 43.2879 10.7624 43.0737 10.4412C42.8595 10.1199 42.6339 9.80246 42.4045 9.48884C42.1712 9.17523 41.9379 8.87309 41.697 8.5786C41.4675 8.29558 41.2189 8.00874 40.9551 7.72189C40.7027 7.4427 40.4311 7.15968 40.1443 6.87666C39.8613 6.59364 39.5822 6.32592 39.2992 6.06968C39.0162 5.81343 38.7255 5.56101 38.4234 5.31624C38.1328 5.07529 37.8268 4.84199 37.5171 4.60869C37.2073 4.37922 36.8937 4.15739 36.5763 3.94322C36.2589 3.72904 35.93 3.52251 35.5973 3.32363C35.2607 3.12476 34.928 2.93353 34.5953 2.7576C34.2664 2.58167 33.9261 2.40956 33.5704 2.24128C33.2262 2.07682 32.882 1.92767 32.5379 1.78233L32.5073 1.77086C32.1363 1.61788 31.7768 1.47637 31.4212 1.35016C31.0617 1.22012 30.7022 1.10156 30.3427 0.99447C29.9947 0.887382 29.6314 0.787943 29.249 0.692329C28.8819 0.600539 28.5033 0.516399 28.117 0.439907C27.7346 0.363416 27.3483 0.298398 26.9697 0.24103C26.5491 0.195135 26.1743 0.14924 25.811 0.110994ZM12.1775 38.2879L39.563 10.9001L40.542 12.3955C40.6185 12.5141 40.7103 12.6556 40.8136 12.8239L40.9053 12.973L40.9092 12.9692L41.0889 13.279C41.1654 13.409 41.2457 13.5505 41.3337 13.715C41.4216 13.8795 41.5096 14.0401 41.5899 14.1931C41.7008 14.4072 41.8079 14.6214 41.9073 14.8356C42.0106 15.0574 42.1062 15.2639 42.1903 15.4628C42.2706 15.6502 42.3586 15.8606 42.4465 16.0977C42.5307 16.3157 42.6148 16.5414 42.6951 16.7708C42.7907 17.0385 42.8748 17.3063 42.9552 17.5702C43.0316 17.8264 43.1081 18.1018 43.1846 18.4001C43.2611 18.6984 43.3261 18.9776 43.3835 19.2415C43.4408 19.5169 43.4944 19.7961 43.5441 20.0714C43.5938 20.3659 43.6359 20.6489 43.6703 20.9281C43.7047 21.2073 43.7353 21.4865 43.7582 21.7695C43.7812 22.0411 43.8003 22.3318 43.8118 22.6339C43.8233 22.936 43.8309 23.2229 43.8309 23.4906C43.8309 23.8004 43.8233 24.1293 43.8041 24.4773C43.7888 24.8101 43.7621 25.1466 43.7277 25.4909C43.6932 25.8427 43.6512 26.1755 43.6091 26.4929C43.5594 26.8256 43.5058 27.1469 43.4447 27.4605C43.3835 27.7779 43.3108 28.0992 43.2305 28.4205C43.177 28.6347 43.1196 28.845 43.0584 29.0554H43.0661L42.9628 29.3919C42.8748 29.6864 42.7678 30 42.653 30.3251C42.5383 30.6464 42.4159 30.9562 42.2936 31.2583C42.1674 31.5604 42.0335 31.8664 41.892 32.1647C41.7543 32.4554 41.6014 32.7537 41.4446 33.052C41.284 33.3542 41.1195 33.6448 40.9512 33.924C40.7791 34.2071 40.6032 34.4901 40.4158 34.7654C40.2323 35.0408 40.0411 35.3124 39.8422 35.5763C39.6433 35.8401 39.4407 36.104 39.2227 36.3641C39.0047 36.628 38.7829 36.8881 38.5534 37.1405C38.3163 37.4044 38.0907 37.6415 37.8765 37.8557C37.4291 38.3032 36.9281 38.7545 36.3851 39.2019C36.125 39.4161 35.8611 39.6226 35.5973 39.8177C35.3334 40.0128 35.0619 40.2078 34.7827 40.3914C34.5074 40.575 34.2282 40.7509 33.949 40.923C33.6698 41.0913 33.3792 41.2557 33.0771 41.4164C32.7711 41.5808 32.469 41.7338 32.1746 41.8715C31.8724 42.013 31.5742 42.1469 31.272 42.2731L31.2606 42.2769C30.9508 42.4031 30.6372 42.5255 30.3236 42.6402C29.9986 42.7588 29.6888 42.8621 29.3981 42.95C29.0922 43.0418 28.7748 43.1298 28.4421 43.2139C28.1208 43.2942 27.7958 43.3669 27.4669 43.4319C27.1533 43.4931 26.8282 43.5505 26.4955 43.5964C26.1781 43.6423 25.8416 43.6843 25.4936 43.7188C25.1494 43.7532 24.809 43.7761 24.4802 43.7953C24.136 43.8106 23.8109 43.822 23.5011 43.822C23.2334 43.822 22.9504 43.8144 22.6483 43.8029C22.3462 43.7914 22.0594 43.7723 21.784 43.7494C21.5202 43.7264 21.241 43.6996 20.9427 43.6614C20.6482 43.6231 20.3652 43.5811 20.0899 43.5352C19.8146 43.4893 19.5354 43.4357 19.26 43.3784C18.9962 43.321 18.7132 43.256 18.4149 43.1795C18.1166 43.103 17.8412 43.0265 17.5888 42.95C17.3288 42.8735 17.0611 42.7856 16.7857 42.6861C16.5563 42.6058 16.3345 42.5255 16.1165 42.4414C15.8832 42.3496 15.6691 42.2654 15.4817 42.1851C15.2828 42.101 15.0763 42.0054 14.8545 41.9021C14.6403 41.8027 14.4262 41.6956 14.2082 41.5847C14.0629 41.5082 13.9099 41.4278 13.7455 41.3399C13.5848 41.2519 13.4319 41.1678 13.2942 41.0836C13.1221 40.9842 12.9691 40.8924 12.8353 40.8083C12.6785 40.7088 12.5332 40.6209 12.407 40.5367L10.9078 39.5576L12.1775 38.2879ZM36.2742 9.72214L8.58652 37.412L7.57309 36.1346C7.44307 35.974 7.31304 35.7981 7.17537 35.6145C7.04535 35.4386 6.91532 35.255 6.78147 35.0676C6.65145 34.8802 6.52907 34.7004 6.41434 34.5207L6.23078 34.23H6.22695L6.06634 33.9623C5.92484 33.729 5.78716 33.488 5.65332 33.2471C5.51947 33.0023 5.39327 32.7614 5.27089 32.5204L5.27854 32.5128C5.16381 32.2833 5.04908 32.0385 4.93818 31.7861C4.82728 31.5413 4.7202 31.2851 4.61694 31.025C4.50221 30.742 4.39131 30.4475 4.28423 30.1339C4.18097 29.8432 4.08537 29.5334 3.98976 29.2045C3.9018 28.8985 3.81767 28.5849 3.74119 28.2675C3.6647 27.9501 3.59586 27.6364 3.5385 27.3266C3.48114 27.0169 3.4276 26.6994 3.3817 26.382C3.33964 26.076 3.3014 25.7547 3.2708 25.4182C3.24021 25.0816 3.21344 24.7527 3.19814 24.4314C3.18284 24.0987 3.17519 23.7813 3.17519 23.4868C3.17519 23.177 3.18284 22.8481 3.20196 22.5039C3.21726 22.1711 3.24403 21.8346 3.27845 21.4865C3.31287 21.1347 3.35494 20.7981 3.40083 20.4807C3.45054 20.1479 3.50408 19.8267 3.56527 19.513C3.63028 19.188 3.70294 18.8629 3.78325 18.5378C3.86739 18.205 3.95534 17.8876 4.04713 17.5816L4.11979 17.3407H4.12744C4.20392 17.0959 4.28423 16.8588 4.36454 16.6331C4.47162 16.331 4.59017 16.025 4.7202 15.7114C4.85022 15.4016 4.98407 15.0957 5.12174 14.8012C5.25942 14.5067 5.41239 14.2084 5.57301 13.9062C5.73363 13.6041 5.89807 13.3134 6.06634 13.0342C6.23843 12.7512 6.41434 12.4682 6.60173 12.1928C6.7853 11.9174 6.97651 11.6459 7.17537 11.382C7.37041 11.1181 7.57692 10.8542 7.7949 10.5903C8.00524 10.3341 8.22322 10.0778 8.45267 9.82923C8.64771 9.61123 8.84657 9.4047 9.04161 9.20583V9.19818L9.14104 9.09874C9.3552 8.88456 9.5923 8.65891 9.85618 8.42179C10.1048 8.19614 10.3648 7.97431 10.6287 7.75631C10.8887 7.54214 11.1564 7.33561 11.4203 7.13673C11.6842 6.94168 11.9557 6.74663 12.2349 6.56305C12.5217 6.37182 12.8009 6.19206 13.0762 6.02761C13.3516 5.85933 13.6384 5.69869 13.929 5.54189C14.2197 5.38508 14.5141 5.23592 14.8124 5.09441C15.0151 4.9988 15.2178 4.90701 15.4205 4.81904L15.7417 4.68518C16.0438 4.55897 16.3498 4.44041 16.6595 4.3295C16.954 4.22241 17.2714 4.11915 17.6156 4.01588C17.9521 3.91262 18.2772 3.82083 18.587 3.74434C18.9082 3.66402 19.2256 3.59135 19.543 3.53016C19.8566 3.46897 20.1817 3.4116 20.5106 3.36571C20.828 3.31981 21.1645 3.27774 21.5163 3.24332C21.8605 3.2089 22.2009 3.18595 22.5298 3.16683C22.874 3.1477 23.2028 3.14006 23.5088 3.14006C23.8071 3.14006 24.1245 3.1477 24.461 3.163C24.7784 3.1783 25.1073 3.20125 25.4477 3.23567C25.7842 3.26627 26.1093 3.30451 26.4152 3.34658C26.7326 3.39248 27.0462 3.4422 27.356 3.50339C27.6658 3.56076 27.9793 3.6296 28.2929 3.70609C28.6104 3.78258 28.9239 3.86672 29.2299 3.95469C29.5511 4.04648 29.8532 4.14592 30.1439 4.24536C30.4307 4.3448 30.7328 4.45571 31.0464 4.58192C31.3065 4.68518 31.5627 4.79609 31.8189 4.90701C32.0904 5.02939 32.3314 5.14031 32.5455 5.24739C32.7864 5.36596 33.0274 5.49599 33.2721 5.62985C33.5169 5.76371 33.7578 5.90522 33.9949 6.04673C34.1632 6.14617 34.3429 6.26091 34.538 6.38712C34.733 6.51333 34.9204 6.63954 35.0963 6.76192C35.2837 6.89196 35.4634 7.022 35.6393 7.15203C35.8076 7.27824 35.9835 7.4121 36.1556 7.54979L37.4329 8.5633L36.2742 9.72214ZM36.8631 16.0595C37.9415 16.7823 39.0047 17.6008 40.0449 18.511L40.087 18.5493C40.3585 18.8055 40.5076 19.1421 40.5267 19.4863C40.5497 19.8496 40.435 20.2206 40.1787 20.5151C40.1634 20.5304 40.1558 20.5419 40.1405 20.5572C39.8843 20.8249 39.5477 20.974 39.2036 20.997C38.8402 21.0199 38.4693 20.9052 38.1748 20.6489C37.0734 19.689 35.9491 18.8437 34.8095 18.1133L36.8631 16.0595ZM23.5011 31.7708C24.3616 31.7708 25.1379 32.1188 25.7001 32.681C26.2623 33.2433 26.6103 34.0235 26.6103 34.8802C26.6103 35.7407 26.2623 36.5171 25.7001 37.0793L25.6657 37.1099C25.1073 37.653 24.3425 37.9896 23.5011 37.9896C22.6407 37.9896 21.8644 37.6415 21.3022 37.0793L21.2716 37.0449C20.7285 36.4827 20.392 35.7216 20.392 34.8802C20.392 34.0235 20.74 33.2471 21.306 32.681C21.8644 32.1188 22.6407 31.7708 23.5011 31.7708ZM27.161 25.7662L27.2068 25.7815C28.3885 26.2366 29.5473 26.9212 30.6678 27.8353C30.9737 28.0839 31.1497 28.4319 31.1841 28.7915C31.2223 29.151 31.1191 29.5296 30.8743 29.8317L30.8705 29.8356C30.6219 30.1377 30.2777 30.3136 29.9182 30.3481C29.5588 30.3863 29.1802 30.283 28.878 30.0383H28.8742C28.0023 29.3269 27.1151 28.7991 26.224 28.4472C25.7727 28.2713 25.3215 28.1375 24.874 28.0533L27.161 25.7662ZM13.6231 25.4985C13.6001 25.5215 13.5772 25.5444 13.5504 25.5597C13.2636 25.793 12.9156 25.8963 12.5714 25.8733C12.2196 25.8504 11.8754 25.7012 11.6153 25.422C11.5924 25.3991 11.5694 25.3723 11.5541 25.3493C11.3209 25.0625 11.2176 24.7145 11.2406 24.3703C11.2635 24.0184 11.4127 23.6742 11.6918 23.4141C11.7109 23.395 11.7339 23.3759 11.7568 23.3606C13.6345 21.7045 15.5696 20.4539 17.5468 19.6201C19.5354 18.7826 21.5622 18.3695 23.6044 18.4039C24.0824 18.4116 24.5605 18.446 25.0385 18.5034L22.243 21.2991C21.0192 21.4215 19.7954 21.7466 18.5831 22.2667C16.9043 22.9819 15.2446 24.0643 13.6231 25.4985ZM31.8648 21.062C33.0312 21.8078 34.1823 22.718 35.3219 23.7889C35.6087 24.0566 35.7579 24.4161 35.7694 24.7833C35.7808 25.1466 35.6546 25.5138 35.3831 25.7968C35.1154 26.0837 34.7559 26.2328 34.3888 26.2443C34.0255 26.2558 33.6584 26.1296 33.3716 25.858C32.186 24.7412 30.9929 23.8348 29.7959 23.1273L31.8648 21.062Z" fill="white"/>
</svg>
