<svg width="48" height="50" viewBox="0 0 48 50" fill="none" xmlns="http://www.w3.org/2000/svg">
<path d="M45.9746 30.7413C40.042 31.9702 39.6329 29.952 39.6329 29.952C45.8977 20.6136 48.5137 8.75648 46.254 5.85527C40.0905 -2.05895 29.4198 1.68454 29.2416 1.78219L29.1809 1.79033C28.0106 1.54619 26.6985 1.39971 25.2244 1.37529C22.5395 1.33053 20.5026 2.0833 18.9597 3.25924C18.9597 3.25924 -0.0775159 -4.62243 0.809348 13.1714C0.99968 16.9555 6.20748 41.8091 12.4236 34.3017C14.6955 31.5551 16.8903 29.2358 16.8903 29.2358C17.9797 29.9642 19.2877 30.3344 20.6524 30.2002L20.7577 30.1106C20.7253 30.4524 20.7415 30.7861 20.7982 31.1808C19.1986 32.9793 19.6684 33.2926 16.4651 33.9559C13.2254 34.6272 15.1288 35.8195 16.372 36.1328C17.8784 36.5112 21.3611 37.0483 23.718 33.7361L23.6248 34.1145C24.2525 34.6191 24.6939 37.3982 24.621 39.917C24.5481 42.4357 24.4996 44.165 24.9936 45.5159C25.4877 46.8668 25.9817 49.9064 30.1893 48.999C33.7043 48.2422 35.5266 46.2809 35.7818 43.0094C35.9599 40.6819 36.369 41.0278 36.3933 38.9485L36.7213 37.9638C37.0979 34.8104 36.782 33.7931 38.9486 34.2651L39.475 34.3099C41.0706 34.3831 43.1561 34.0535 44.3791 33.4798C47.0073 32.255 48.5745 30.2002 45.9746 30.7413Z" fill="#336791"/>
<path d="M23.2407 32.5275C23.2529 32.1206 23.589 31.7992 23.9939 31.8114C24.3989 31.8236 24.7188 32.1613 24.7067 32.5682C24.6216 35.5915 24.6378 38.6229 24.7472 41.048C24.8484 43.2331 25.0225 44.877 25.2655 45.4873C25.5247 46.1343 25.9256 47.0905 26.695 47.7375C27.4442 48.3722 28.5984 48.7588 30.4369 48.3641C32.0446 48.0182 33.1258 47.5259 33.8466 46.7731C34.5594 46.0285 34.9643 44.9746 35.2154 43.5016C35.4017 42.4274 35.6568 40.5516 35.8876 38.6839C36.1792 36.3483 36.4465 33.9883 36.5032 33.2274C36.5315 32.8205 36.8839 32.5153 37.2888 32.5479C37.6938 32.5763 37.9975 32.9303 37.9651 33.3373C37.9084 34.0778 37.6411 36.4663 37.3374 38.8711C37.0944 40.7998 36.8353 42.7122 36.6571 43.7498C36.3534 45.5117 35.8391 46.8097 34.8955 47.7944C33.956 48.7751 32.6399 49.3936 30.7325 49.8045C28.3635 50.3132 26.8003 49.7557 25.7434 48.8605C24.7026 47.9816 24.2086 46.8179 23.8968 46.0326C23.589 45.2635 23.3825 43.4487 23.2731 41.1091C23.1678 38.6636 23.1557 35.5915 23.2407 32.5275Z" fill="white"/>
<path d="M19.1991 2.44556C19.5757 2.59611 19.7579 3.02336 19.6081 3.40178C19.4582 3.78019 19.033 3.9633 18.6564 3.81275C18.6078 3.7924 0.66807 -3.57251 1.49824 13.0616C1.59948 15.1165 3.21932 23.523 5.68148 29.3865C6.45901 31.2338 7.31348 32.8126 8.22059 33.8217C8.97786 34.6681 9.75134 35.075 10.4965 34.8064C10.9095 34.6558 11.3509 34.3181 11.8166 33.7566C14.0966 31.0019 16.17 28.825 16.1781 28.8209C16.4575 28.5279 16.9191 28.5157 17.2107 28.7965C17.5023 29.0772 17.5144 29.5411 17.235 29.8341C17.231 29.8381 15.2062 31.9581 12.9424 34.6965C12.2985 35.4778 11.6425 35.962 10.9824 36.198C9.58126 36.6985 8.29348 36.1126 7.12719 34.8105C6.10669 33.6752 5.16718 31.954 4.33296 29.9561C1.80196 23.9381 0.137572 15.2629 0.0322817 13.1308C-0.911277 -5.81453 19.1424 2.42114 19.1991 2.44556Z" fill="white"/>
<path d="M29.602 2.33153L28.5127 1.13524C28.6018 1.10269 28.6909 1.0742 28.78 1.04979C29.0189 0.972478 29.2781 0.895167 29.5575 0.813787C29.9665 0.691716 30.5658 0.533025 31.2988 0.39061C34.9556 -0.321467 42.091 -0.708023 46.7926 5.33039C48.1209 7.0353 48.0116 11.2549 46.6387 16.2516C45.4239 20.6746 43.233 25.7731 40.2039 30.2897C39.9771 30.6274 39.5195 30.7169 39.1834 30.4891C38.8473 30.2612 38.7582 29.8014 38.985 29.4637C41.925 25.0814 44.047 20.1375 45.2254 15.8569C46.4808 11.2915 46.6792 7.56834 45.6385 6.23371C41.4188 0.817855 34.9111 1.18407 31.5701 1.83918C30.8858 1.97345 30.3391 2.11587 29.9665 2.22573L29.602 2.33153Z" fill="white"/>
<path d="M40.2892 29.6509C40.2973 29.6712 40.3014 29.6916 40.3054 29.7119C40.3054 29.716 40.5565 31.0303 45.7845 29.9479C46.5256 29.7933 47.0521 29.8258 47.3922 29.9927C47.8336 30.2043 48.024 30.5583 47.9956 31.014C47.9794 31.2907 47.8498 31.5877 47.6352 31.8848C47.1412 32.5643 46.0113 33.4432 44.6385 34.082C43.6099 34.5622 42.0427 34.8836 40.6051 34.965C39.7587 35.0138 38.9488 34.9813 38.3049 34.8511C37.495 34.6883 36.8794 34.3506 36.6243 33.8013C36.5555 33.6548 36.515 33.4961 36.5069 33.3252C36.3449 30.4688 37.7299 29.9683 38.6977 29.6916C38.5965 29.5451 38.4588 29.3701 38.3049 29.1789C37.8149 28.5645 37.1872 27.7751 36.6891 26.5666C36.6122 26.3835 36.3894 25.9766 36.0898 25.4395C34.8222 23.1567 32.3277 18.6564 32.8177 15.5843C33.166 13.3911 34.8303 11.9344 38.9893 12.3698L38.9488 12.2477C38.7504 11.6821 38.4345 10.9416 37.9769 10.1115C36.1627 6.79118 32.2062 2.16065 25.1801 2.04672C14.4608 1.87175 14.8131 15.4541 14.8131 15.4907C14.8212 15.8976 14.4973 16.2313 14.0923 16.2394C13.6873 16.2476 13.3553 15.922 13.3472 15.5151C13.3472 15.4704 12.9503 0.374354 25.2004 0.573735C32.9351 0.699874 37.2763 5.76986 39.2606 9.39942C39.7547 10.3027 40.107 11.1247 40.3297 11.7635C40.5808 12.4797 40.6739 13.0412 40.6334 13.2894C40.5767 13.6556 40.3743 13.8835 40.026 13.9526L39.7628 13.9567C35.948 13.3423 34.5064 14.2822 34.2634 15.8122C33.8544 18.3879 36.187 22.5871 37.3694 24.7233C37.6894 25.3011 37.9323 25.7406 38.0417 26.0091C38.4628 27.0304 39.0136 27.7222 39.4428 28.2674C39.8438 28.7598 40.1596 29.1585 40.2892 29.6509ZM46.0802 31.3883C42.2047 32.194 40.3986 31.604 39.5684 30.9692C39.455 31.0059 39.3335 31.0384 39.2039 31.075C38.6856 31.2215 37.8797 31.4494 37.9647 33.1991C38.0255 33.2642 38.2523 33.3333 38.5843 33.4025C39.1148 33.5083 39.7952 33.5327 40.52 33.492C41.7876 33.4188 43.1523 33.1462 44.023 32.7393C44.9179 32.3202 45.6671 31.8156 46.1287 31.3761L46.0802 31.3883Z" fill="white"/>
<path d="M21.3009 31.6039C21.0013 31.9417 20.7542 32.255 20.5436 32.5235C19.6446 33.671 19.3652 34.0291 16.575 34.6069C16.0729 34.7126 15.7327 34.8144 15.5221 34.9161C15.7813 35.1033 16.1701 35.2579 16.5102 35.3433C17.1987 35.5183 18.3407 35.7258 19.5636 35.5183C20.7542 35.3149 22.038 34.7004 23.0787 33.2356C23.1111 33.1868 23.1394 33.1339 23.1637 33.081C23.269 32.8246 23.2447 32.5032 23.1394 32.198C23.0261 31.8725 22.8195 31.5876 22.5806 31.4127C22.5239 31.372 22.4672 31.3394 22.4065 31.315L22.37 31.2987C22.2202 31.2377 22.0541 31.1726 21.9124 31.1848C21.7585 31.2011 21.5641 31.3069 21.3009 31.6039ZM19.3895 31.608C19.5879 31.3557 19.8188 31.0627 20.167 30.6681C20.1954 30.6314 20.2278 30.5948 20.2602 30.5623C20.7988 29.9763 21.3131 29.7566 21.7869 29.7159C22.2566 29.6752 22.6211 29.8095 22.9289 29.9397C22.941 29.9438 22.9532 29.9478 22.9694 29.956C23.1273 30.0211 23.2812 30.1106 23.431 30.2164C23.9129 30.5623 24.3098 31.1116 24.5244 31.7097C24.7431 32.3323 24.7795 33.0281 24.5204 33.6466C24.4556 33.8012 24.3746 33.9477 24.2733 34.0901C22.9613 35.9374 21.3252 36.7105 19.8107 36.9709C18.3245 37.2273 16.9719 36.9791 16.1539 36.7756C15.5586 36.6251 14.8216 36.2914 14.3882 35.8845C14.1331 35.6445 13.959 35.3596 13.9104 35.0422C13.8537 34.6638 13.9671 34.2976 14.3113 33.9721C14.6434 33.6588 15.2589 33.3739 16.2754 33.1624C18.5391 32.6944 18.7416 32.4381 19.3895 31.608Z" fill="white"/>
<path d="M21.3776 30.9653C21.4384 31.3681 21.163 31.7466 20.7621 31.8035C20.3612 31.8605 19.9846 31.5879 19.9279 31.185C19.9117 31.0874 19.9036 30.9897 19.8955 30.888C19.6525 30.8799 19.4136 30.8636 19.1787 30.827C17.6075 30.6072 16.186 29.8097 15.1169 28.6297C14.06 27.466 13.3473 25.9279 13.1812 24.2107C13.1205 23.6004 13.1326 22.9656 13.2217 22.3268C13.5821 19.747 13.4445 17.4399 13.3756 16.2436C13.3554 15.9181 13.3432 15.674 13.3432 15.4868C13.3473 15.0026 14.5581 13.9365 16.1536 13.2773C16.8745 12.9803 17.6803 12.7321 18.4781 12.61C19.3204 12.4839 20.1709 12.4961 20.9362 12.7361C22.1349 13.1146 23.0866 14.0057 23.451 15.7106C24.7672 21.8182 23.5887 24.4427 22.6695 26.4975C22.5115 26.8515 22.3617 27.1852 22.2483 27.4863C22.2443 27.5066 22.2362 27.5229 22.2281 27.5433C21.8433 28.5849 22.4062 27.0591 22.1147 27.8362C21.6571 29.0895 21.2562 30.1637 21.3776 30.9653ZM20.0534 29.4191C20.2114 28.764 20.4705 28.0722 20.7459 27.3276C20.9646 26.7417 20.3936 28.2757 20.8512 27.0346C20.8593 27.0143 20.8674 26.994 20.8755 26.9736C21.0172 26.5952 21.1711 26.2575 21.329 25.8994C22.1633 24.0399 23.2243 21.6635 22.0134 16.032C21.7785 14.9375 21.2076 14.3759 20.4948 14.1522C19.9603 13.9853 19.3326 13.9813 18.6887 14.0789C18.0003 14.1847 17.3118 14.3963 16.6963 14.6486C15.615 15.0921 14.797 15.4664 14.797 15.499C14.797 15.6048 14.8092 15.8449 14.8294 16.1663C14.9023 17.4074 15.0441 19.8121 14.6674 22.5384C14.5945 23.0714 14.5824 23.5882 14.631 24.0846C14.7646 25.4681 15.3397 26.7091 16.1941 27.6491C17.0365 28.5768 18.1501 29.2075 19.3731 29.3784C19.5999 29.4028 19.8266 29.4191 20.0534 29.4191Z" fill="white"/>
<path d="M18.859 15.3891C18.8266 15.6291 19.3004 16.2761 19.9159 16.3615C20.5315 16.447 21.062 15.9424 21.0944 15.7024C21.1268 15.4623 20.653 15.1937 20.0374 15.1083C19.4219 15.0228 18.8914 15.149 18.859 15.3891Z" fill="white"/>
<path d="M19.1019 15.4217C19.0938 15.4746 19.1789 15.6129 19.3206 15.7635C19.4785 15.9303 19.7013 16.0809 19.9483 16.1175H19.9523C20.1953 16.1501 20.4221 16.0687 20.5922 15.9507C20.7501 15.8449 20.8473 15.7309 20.8594 15.6658C20.8594 15.6536 20.7987 15.617 20.6975 15.56C20.5314 15.4665 20.2885 15.3891 20.009 15.3485H20.0009C19.7256 15.3118 19.4704 15.32 19.2882 15.3647C19.1748 15.3932 19.1019 15.4136 19.1019 15.4217ZM18.9683 16.1012C18.7294 15.8489 18.5957 15.5478 18.62 15.3607V15.3525C18.6524 15.1206 18.8589 14.9619 19.1748 14.8846C19.4137 14.8276 19.7296 14.8154 20.0657 14.8602C20.0698 14.8602 20.0738 14.8602 20.0779 14.8602C20.418 14.909 20.7218 15.0067 20.9364 15.1287C21.2199 15.2874 21.3778 15.5031 21.3454 15.7309C21.3211 15.91 21.1389 16.1704 20.8675 16.3535C20.6124 16.5285 20.2642 16.6546 19.8875 16.6017H19.8835C19.5109 16.5529 19.191 16.3372 18.9683 16.1012Z" fill="white"/>
<path d="M37.6657 14.8969C37.6981 15.1369 37.2243 15.7839 36.6087 15.8694C35.9891 15.9548 35.4627 15.4503 35.4303 15.2102C35.3979 14.9701 35.8717 14.7016 36.4913 14.6161C37.1028 14.5307 37.6292 14.6568 37.6657 14.8969Z" fill="white"/>
<path d="M37.7831 14.8803C37.8033 15.0349 37.6818 15.2994 37.4672 15.5273C37.2607 15.747 36.961 15.9464 36.6209 15.9912H36.6168C36.2766 16.0359 35.9608 15.922 35.7259 15.7633C35.4829 15.6005 35.325 15.3767 35.3007 15.2262C35.2764 15.0512 35.41 14.8803 35.6489 14.746C35.8514 14.6321 36.1389 14.5385 36.4629 14.4938C36.7869 14.449 37.0906 14.4612 37.3174 14.5141C37.5847 14.5751 37.7588 14.7013 37.7831 14.8803ZM37.289 15.3564C37.4551 15.1814 37.5523 15.0024 37.5401 14.9129C37.532 14.8478 37.4267 14.7908 37.2647 14.7501C37.0663 14.7013 36.795 14.6931 36.4994 14.7338C36.2078 14.7745 35.9486 14.86 35.7704 14.9576C35.6246 15.039 35.5396 15.1245 35.5477 15.1896C35.5599 15.2791 35.6813 15.4296 35.8676 15.5558C36.058 15.686 36.3171 15.7796 36.5925 15.743H36.5966C36.8679 15.7063 37.1149 15.5395 37.289 15.3564Z" fill="white"/>
<path d="M39.1393 13.2609C39.1191 12.854 39.4309 12.5081 39.8359 12.4878C40.2408 12.4674 40.5851 12.7807 40.6053 13.1876C40.666 14.3269 40.5284 15.2303 40.3826 16.1783C40.2732 16.8864 40.1599 17.6269 40.1356 18.4529C40.1113 19.2382 40.2125 20.109 40.3218 21.0042C40.6053 23.3601 40.905 25.8829 39.1636 28.4912C38.9369 28.8289 38.4833 28.9184 38.1472 28.6946C37.8111 28.4668 37.722 28.011 37.9447 27.6733C39.3783 25.5208 39.111 23.2788 38.8599 21.1792C38.7465 20.2433 38.6372 19.3318 38.6696 18.4122C38.6979 17.4601 38.8154 16.6992 38.9288 15.9627C39.0665 15.0756 39.192 14.2374 39.1393 13.2609Z" fill="white"/>
</svg>
