<svg width="48" height="45" viewBox="0 0 48 45" fill="none" xmlns="http://www.w3.org/2000/svg">
<path fill-rule="evenodd" clip-rule="evenodd" d="M24.3037 26.6958L40.7083 43.1004C41.0309 43.4344 41.4168 43.7008 41.8434 43.8841C42.2701 44.0674 42.729 44.1638 43.1933 44.1679C43.6576 44.1719 44.1181 44.0834 44.5479 43.9076C44.9777 43.7317 45.3681 43.4721 45.6965 43.1437C46.0248 42.8154 46.2845 42.4249 46.4603 41.9952C46.6361 41.5654 46.7246 41.1049 46.7206 40.6406C46.7166 40.1762 46.6201 39.7174 46.4368 39.2907C46.2535 38.864 45.9871 38.4782 45.6531 38.1556L29.2485 21.751L24.3037 26.6958Z" fill="#4FC3F7"/>
<path fill-rule="evenodd" clip-rule="evenodd" d="M8.31667 5.76589C14.1183 -0.0339433 23.5358 -0.0339433 29.3356 5.76589C35.1355 11.5657 35.1355 20.985 29.3356 26.7848C23.5358 32.5847 14.1183 32.5847 8.31667 26.7848C2.51684 20.985 2.51684 11.5657 8.31667 5.76589Z" fill="#E6E6E6"/>
<path fill-rule="evenodd" clip-rule="evenodd" d="M1.1377 32.849C1.1377 32.3666 1.23272 31.8889 1.41733 31.4432C1.60195 30.9975 1.87255 30.5925 2.21368 30.2514C2.55481 29.9102 2.95979 29.6396 3.40549 29.455C3.8512 29.2704 4.3289 29.1754 4.81133 29.1754C5.29376 29.1754 5.77147 29.2704 6.21717 29.455C6.66288 29.6396 7.06786 29.9102 7.40899 30.2514C7.75012 30.5925 8.02071 30.9975 8.20533 31.4432C8.38995 31.8889 8.48497 32.3666 8.48497 32.849C8.48497 33.8233 8.09793 34.7577 7.40899 35.4467C6.72005 36.1356 5.78564 36.5226 4.81133 36.5226C3.83702 36.5226 2.90262 36.1356 2.21368 35.4467C1.52474 34.7577 1.1377 33.8233 1.1377 32.849ZM11.1812 15.4443C11.1817 14.4699 11.5691 13.5357 12.2584 12.8471C12.9477 12.1585 13.8823 11.7719 14.8566 11.7724C15.8309 11.7728 16.7651 12.1603 17.4537 12.8496C18.1423 13.5389 18.5289 14.4734 18.5285 15.4477C18.528 16.4221 18.1405 17.3563 17.4512 18.0449C16.762 18.7335 15.8274 19.1201 14.8531 19.1196C13.8788 19.1192 12.9445 18.7317 12.2559 18.0424C11.5673 17.3531 11.1807 16.4186 11.1812 15.4443ZM22.1199 20.6094C22.1199 19.6351 22.507 18.7007 23.1959 18.0117C23.8848 17.3228 24.8193 16.9357 25.7936 16.9357C26.7679 16.9357 27.7023 17.3228 28.3912 18.0117C29.0802 18.7007 29.4672 19.6351 29.4672 20.6094C29.4672 21.5837 29.0802 22.5181 28.3912 23.207C27.7023 23.896 26.7679 24.283 25.7936 24.283C24.8193 24.283 23.8848 23.896 23.1959 23.207C22.507 22.5181 22.1199 21.5837 22.1199 20.6094ZM36.0259 4.95314C36.0261 4.47071 36.1214 3.99305 36.3062 3.54743C36.491 3.10181 36.7618 2.69696 37.1031 2.356C37.4444 2.01503 37.8495 1.74463 38.2953 1.56022C38.7411 1.37582 39.2188 1.28102 39.7013 1.28125C40.1837 1.28148 40.6614 1.37673 41.107 1.56156C41.5526 1.74639 41.9575 2.01718 42.2984 2.35847C42.6394 2.69976 42.9098 3.10487 43.0942 3.55066C43.2786 3.99646 43.3734 4.47421 43.3732 4.95664C43.3727 5.93095 42.9852 6.86517 42.2959 7.55378C41.6067 8.24239 40.6721 8.62899 39.6978 8.62853C38.7235 8.62806 37.7892 8.24057 37.1006 7.55131C36.412 6.86204 36.0254 5.92745 36.0259 4.95314Z" fill="#4FC3F7"/>
<path fill-rule="evenodd" clip-rule="evenodd" d="M7.77194 29.5792C8.66368 30.3852 9.22321 31.5515 9.22321 32.8489C9.22228 34.0189 8.75696 35.1407 7.92947 35.9679C7.10197 36.7951 5.97997 37.2599 4.80995 37.2604C3.64023 37.2595 2.51868 36.7944 1.69156 35.9673C0.864444 35.1401 0.399364 34.0186 0.398438 32.8489C0.398895 32.1442 0.56804 31.4498 0.891734 30.8238C1.21543 30.1978 1.68427 29.6584 2.25905 29.2507C2.83384 28.843 3.49788 28.5788 4.19567 28.4802C4.89345 28.3816 5.6047 28.4514 6.26996 28.6839L7.2876 26.9739C1.5612 20.8051 1.69934 11.148 7.70025 5.1471C13.841 -0.993695 23.8128 -0.993695 29.9554 5.1471C31.5057 6.69437 32.7148 8.54914 33.5049 10.592L36.1854 7.62126C35.6898 6.96657 35.3866 6.18664 35.3098 5.36912C35.2331 4.5516 35.3859 3.72887 35.751 2.9934C36.1161 2.25792 36.679 1.63883 37.3766 1.2057C38.0742 0.772563 38.8788 0.54255 39.6999 0.541504C40.8696 0.54243 41.9912 1.00751 42.8183 1.83463C43.6454 2.66175 44.1105 3.78329 44.1114 4.95302C44.1107 5.7269 43.9066 6.48701 43.5195 7.15714C43.1325 7.82728 42.5761 8.38391 41.9061 8.77123C41.2361 9.15856 40.4761 9.36297 39.7022 9.36399C38.9283 9.36501 38.1678 9.16259 37.4968 8.77703L34.1116 12.5293C35.0477 16.3661 34.5118 20.4144 32.6096 23.8755L46.2726 37.5367C47.0909 38.3574 47.5504 39.4691 47.5504 40.628C47.5504 41.787 47.0909 42.8987 46.2726 43.7194C45.8666 44.1255 45.3847 44.4475 44.8543 44.6673C44.3239 44.887 43.7553 45.0002 43.1812 45.0002C42.607 45.0002 42.0385 44.887 41.5081 44.6673C40.9777 44.4475 40.4957 44.1255 40.0898 43.7194L26.4286 30.0582C20.7844 33.1706 13.6277 32.5586 8.57976 28.2188L7.77194 29.5792ZM32.1708 12.0712C31.4469 9.77937 30.1449 7.71256 28.3904 6.06991C26.6359 4.42727 24.4879 3.26417 22.1533 2.69266C19.8188 2.12115 17.3764 2.16049 15.0615 2.8069C12.7466 3.45331 10.6372 4.685 8.93645 6.38331C6.44279 8.87941 4.98382 12.2252 4.85154 15.751C4.71926 19.2768 5.92344 22.7225 8.22306 25.3984L12.0943 18.887C11.4964 18.408 11.0335 17.7817 10.7511 17.0696C10.4687 16.3576 10.3765 15.5843 10.4836 14.8257C10.5907 14.0672 10.8933 13.3496 11.3618 12.7436C11.8303 12.1375 12.4485 11.6638 13.1555 11.3691C13.8626 11.0743 14.6342 10.9687 15.3945 11.0626C16.1547 11.1565 16.8775 11.4467 17.4916 11.9046C18.1057 12.3625 18.59 12.9724 18.897 13.6742C19.2039 14.3761 19.3229 15.1457 19.2422 15.9075L22.4245 17.7592C23.0842 16.9765 23.9961 16.4481 25.0032 16.2649C26.0103 16.0817 27.0498 16.2552 27.9429 16.7555L32.1708 12.0712ZM31.655 25.3932C30.6339 26.8278 29.3805 28.0819 27.9463 29.1036L30.3103 31.4658L34.019 27.7572L31.655 25.3932ZM9.48899 26.6906C12.1541 29.0774 15.6321 30.3531 19.2085 30.2555C22.7849 30.158 26.1881 28.6946 28.7192 26.166C30.2734 24.6132 31.4395 22.7157 32.1228 20.6276C32.8061 18.5395 32.9873 16.3197 32.6516 14.1485L29.2717 17.8938C29.7793 18.5458 30.0937 19.3272 30.1791 20.149C30.2646 20.9709 30.1177 21.8002 29.7552 22.5427C29.3927 23.2853 28.8291 23.9111 28.1285 24.3492C27.4279 24.7873 26.6185 25.0199 25.7922 25.0208C25.1002 25.0201 24.418 24.8568 23.8008 24.544C23.1835 24.2312 22.6484 23.7777 22.2386 23.2201C21.8289 22.6624 21.5559 22.0163 21.4418 21.3338C21.3277 20.6512 21.3756 19.9515 21.5817 19.2909L18.6967 17.6123C18.2106 18.4745 17.4487 19.1483 16.5335 19.5254C15.6183 19.9024 14.6029 19.9608 13.6505 19.6913L9.48899 26.6906ZM31.5465 32.702L41.326 42.4832C41.8207 42.961 42.4832 43.2253 43.1709 43.2194C43.8586 43.2134 44.5164 42.9376 45.0027 42.4513C45.489 41.965 45.7648 41.3072 45.7708 40.6195C45.7767 39.9318 45.5124 39.2693 45.0346 38.7746L35.2552 28.9934L31.5465 32.702ZM2.14696 32.8489C2.16476 33.5436 2.45322 34.2038 2.95085 34.6889C3.44849 35.1739 4.11591 35.4454 4.81082 35.4454C5.50574 35.4454 6.17316 35.1739 6.67079 34.6889C7.16843 34.2038 7.45689 33.5436 7.47469 32.8489C7.44424 32.1628 7.15028 31.515 6.65404 31.0403C6.1578 30.5656 5.49755 30.3006 4.81082 30.3006C4.1241 30.3006 3.46385 30.5656 2.96761 31.0403C2.47137 31.515 2.17741 32.1628 2.14696 32.8489ZM37.0351 4.95302C37.0345 5.48062 37.1903 5.99657 37.483 6.43557C37.7756 6.87457 38.1919 7.21689 38.6792 7.41919C39.1665 7.6215 39.7028 7.6747 40.2203 7.57207C40.7379 7.46943 41.2133 7.21558 41.5865 6.84263C41.9597 6.46968 42.2139 5.99439 42.3168 5.47694C42.4198 4.95948 42.367 4.4231 42.165 3.93569C41.963 3.44828 41.621 3.03174 41.1822 2.7388C40.7433 2.44586 40.2275 2.28968 39.6999 2.29002C38.2294 2.29002 37.0351 3.48426 37.0351 4.95302ZM18.277 5.79405C18.0454 5.80634 17.8184 5.72611 17.6459 5.57101C17.4734 5.41591 17.3696 5.19864 17.3573 4.96701C17.345 4.73537 17.4253 4.50834 17.5804 4.33586C17.7355 4.16338 17.9527 4.05957 18.1844 4.04728C19.8988 3.95527 21.6135 4.22551 23.2165 4.8404C24.8196 5.4553 26.2751 6.40104 27.4882 7.61601C27.5694 7.6973 27.6338 7.79377 27.6777 7.89993C27.7215 8.00609 27.7441 8.11986 27.744 8.23473C27.7439 8.3496 27.7212 8.46334 27.6772 8.56943C27.6331 8.67553 27.5686 8.77192 27.4874 8.85309C27.4061 8.93426 27.3096 8.99862 27.2034 9.04251C27.0973 9.08639 26.9835 9.10894 26.8686 9.10886C26.7538 9.10878 26.64 9.08607 26.5339 9.04204C26.4278 8.998 26.3315 8.9335 26.2503 8.85221C25.211 7.81056 23.9637 6.99979 22.5898 6.47284C21.2159 5.94589 19.7464 5.71459 18.277 5.79405ZM12.1904 15.4441C12.1904 15.7941 12.2594 16.1406 12.3933 16.4639C12.5272 16.7872 12.7235 17.0809 12.9709 17.3284C13.2184 17.5758 13.5121 17.7721 13.8354 17.906C14.1587 18.0399 14.5052 18.1089 14.8552 18.1089C15.2051 18.1089 15.5516 18.0399 15.8749 17.906C16.1982 17.7721 16.492 17.5758 16.7394 17.3284C16.9869 17.0809 17.1832 16.7872 17.3171 16.4639C17.451 16.1406 17.5199 15.7941 17.5199 15.4441C17.5199 14.7374 17.2392 14.0596 16.7394 13.5599C16.2397 13.0601 15.5619 12.7794 14.8552 12.7794C14.1485 12.7794 13.4707 13.0601 12.9709 13.5599C12.4712 14.0596 12.1904 14.7374 12.1904 15.4441ZM23.1292 20.6093C23.147 21.3039 23.4354 21.9642 23.9331 22.4492C24.4307 22.9343 25.0981 23.2057 25.793 23.2057C26.488 23.2057 27.1554 22.9343 27.653 22.4492C28.1506 21.9642 28.4391 21.3039 28.4569 20.6093C28.4265 19.9232 28.1325 19.2753 27.6363 18.8006C27.14 18.3259 26.4798 18.061 25.793 18.061C25.1063 18.061 24.4461 18.3259 23.9498 18.8006C23.4536 19.2753 23.1596 19.9232 23.1292 20.6093Z" fill="#007BBE"/>
</svg>
