<svg width="48" height="48" viewBox="0 0 48 48" fill="none" xmlns="http://www.w3.org/2000/svg">
<path d="M29 15C29 9.47716 24.5228 5 19 5C13.4772 5 9 9.47716 9 15C9 20.5228 13.4772 25 19 25C24.5228 25 29 20.5228 29 15Z" stroke="#ff6900" stroke-width="2.5" stroke-linecap="round" stroke-linejoin="round"/>
<path d="M5 39C5 31.268 11.268 25 19 25C21.1472 25 23.1814 25.4834 25 26.3472" stroke="#ff6900" stroke-width="2.5" stroke-linecap="round" stroke-linejoin="round"/>
<path d="M36 40C37.8586 40 39.4804 38.986 40.342 37.4808M36 40C34.1414 40 32.5196 38.986 31.658 37.4808M36 40V43M40.342 37.4808L43 38.9996M40.342 37.4808C40.7608 36.7498 41 35.9028 41 35C41 34.097 40.7606 33.2498 40.3418 32.5186M31.658 37.4808L29 38.9996M31.658 37.4808C31.2392 36.7498 31 35.9028 31 35C31 34.097 31.2394 33.2498 31.6582 32.5186M36 30C37.8584 30 39.48 31.0138 40.3418 32.5186M36 30C34.1416 30 32.52 31.0138 31.6582 32.5186M36 30V27M40.3418 32.5186L43 30.9996M31.6582 32.5186L29 30.9996" stroke="#ff6900" stroke-width="2.5" stroke-linecap="round" stroke-linejoin="round"/>
</svg>
