<svg width="70" height="70" viewBox="0 0 70 70" fill="none" xmlns="http://www.w3.org/2000/svg">
<circle cx="34.9946" cy="34.9946" r="34.9946" fill="url(#paint0_linear_977_3080)"/>
<path d="M38.3268 25.6588H35.6602C31.8889 25.6588 30.0033 25.6588 28.8317 26.83C27.6602 28.0012 27.6602 29.8863 27.6602 33.6564V40.321C27.6602 44.091 27.6602 45.976 28.8317 47.1473C30.0033 48.3185 31.8889 48.3185 35.6602 48.3185H37.451C38.541 48.3185 39.086 48.3185 39.576 48.1156C40.0662 47.9126 40.4515 47.5274 41.2223 46.7569L44.7647 43.2155C45.5355 42.445 45.9208 42.0598 46.1239 41.5698C46.3268 41.0799 46.3268 40.535 46.3268 39.4454V33.6564C46.3268 29.8863 46.3268 28.0012 45.1552 26.83C43.9836 25.6588 42.098 25.6588 38.3268 25.6588Z" stroke="white" stroke-width="2.1" stroke-linecap="round" stroke-linejoin="round"/>
<path d="M38.9941 47.652V46.3191C38.9941 43.8058 38.9941 42.5491 39.7752 41.7683C40.5563 40.9874 41.8133 40.9874 44.3275 40.9874H45.6608" stroke="white" stroke-width="2.1" stroke-linecap="round" stroke-linejoin="round"/>
<path d="M27.6602 44.3197C25.451 44.3197 23.6602 42.5295 23.6602 40.321V29.6576C23.6602 25.8875 23.6602 24.0025 24.8317 22.8312C26.0033 21.66 27.8889 21.66 31.6602 21.66H38.3274C40.5364 21.66 42.3274 23.4504 42.3274 25.6588" stroke="white" stroke-width="2.1" stroke-linecap="round" stroke-linejoin="round"/>
<path d="M32.3281 36.3222H37.6615M32.3281 30.9905H41.6615" stroke="white" stroke-width="2.1" stroke-linecap="round" stroke-linejoin="round"/>
<defs>
<linearGradient id="paint0_linear_977_3080" x1="34.9946" y1="0" x2="34.9946" y2="69.9892" gradientUnits="userSpaceOnUse">
<stop stop-color="#FF5E01"/>
<stop offset="1" stop-color="#FF9404"/>
</linearGradient>
</defs>
</svg>
