<svg width="55" height="55" viewBox="0 0 55 55" fill="none" xmlns="http://www.w3.org/2000/svg">
<rect width="54.9791" height="54.9791" rx="27.4896" fill="url(#paint0_linear_3964_467)"/>
<path d="M22.3672 18.5937C20.2961 18.5937 18.6172 20.2727 18.6172 22.3437C18.6172 23.0546 18.815 23.7192 19.1585 24.2856C17.4263 24.6169 16.1172 26.14 16.1172 27.9687C16.1172 29.7975 17.4263 31.3206 19.1585 31.6518M22.3672 18.5937C22.3672 16.8679 23.7663 15.4688 25.4922 15.4688C27.2181 15.4688 28.6172 16.8679 28.6172 18.5937V20.4687M22.3672 18.5937C22.3672 19.6161 22.8582 20.5238 23.6172 21.094M19.1585 31.6518C18.815 32.2183 18.6172 32.883 18.6172 33.5937C18.6172 35.6648 20.2961 37.3437 22.3672 37.3437C22.3672 39.0696 23.7663 40.4687 25.4922 40.4687C27.2181 40.4687 28.6172 39.0696 28.6172 37.3437V35.4687M19.1585 31.6518C19.604 30.9172 20.2948 30.3478 21.1172 30.0571" stroke="white" stroke-width="1.8" stroke-linecap="round" stroke-linejoin="round"/>
<path d="M34.8672 24.2188H32.3672C31.1887 24.2188 30.5994 24.2187 30.2333 24.5849C29.8672 24.951 29.8672 25.5403 29.8672 26.7188V29.2188C29.8672 30.3972 29.8672 30.9865 30.2333 31.3526C30.5994 31.7187 31.1887 31.7188 32.3672 31.7188H34.8672C36.0457 31.7188 36.6349 31.7187 37.0011 31.3526C37.3672 30.9865 37.3672 30.3972 37.3672 29.2188V26.7188C37.3672 25.5403 37.3672 24.951 37.0011 24.5849C36.6349 24.2187 36.0457 24.2188 34.8672 24.2188Z" stroke="white" stroke-width="1.8" stroke-linecap="round" stroke-linejoin="round"/>
<path d="M31.7422 31.7187V34.2187M35.4922 31.7187V34.2187M31.7422 21.7188V24.2187M35.4922 21.7188V24.2187M29.8672 26.0937H27.3672M29.8672 29.8437H27.3672M39.8672 26.0937H37.3672M39.8672 29.8437H37.3672" stroke="white" stroke-width="1.8" stroke-linecap="round" stroke-linejoin="round"/>
<defs>
<linearGradient id="paint0_linear_3964_467" x1="27.4896" y1="0" x2="27.4896" y2="54.9791" gradientUnits="userSpaceOnUse">
<stop stop-color="#FF5E01"/>
<stop offset="1" stop-color="#FF9404"/>
</linearGradient>
</defs>
</svg>
