<svg width="100" height="100" viewBox="0 0 100 100" fill="none" xmlns="http://www.w3.org/2000/svg">
<circle cx="50" cy="50" r="45" fill="url(#paint0_linear_534_2608)"/>
<circle cx="50" cy="50" r="47.5" stroke="#FF9104" stroke-opacity="0.22" stroke-width="5"/>
<g clip-path="url(#clip0_534_2608)">
<path fill-rule="evenodd" clip-rule="evenodd" d="M28.6874 37.6953C28.7323 37.6175 28.792 37.5494 28.8632 37.4947C28.9345 37.44 29.0158 37.3999 29.1025 37.3767C29.1892 37.3534 29.2797 37.3475 29.3687 37.3592C29.4577 37.3709 29.5435 37.4 29.6213 37.4449L32.5486 39.1353C32.8753 39.324 32.9878 39.742 32.799 40.0687C32.7542 40.1464 32.6944 40.2146 32.6232 40.2693C32.552 40.324 32.4707 40.3641 32.384 40.3873C32.2972 40.4106 32.2068 40.4165 32.1178 40.4048C32.0287 40.3931 31.9429 40.364 31.8651 40.319L28.9379 38.6292C28.8601 38.5843 28.792 38.5246 28.7373 38.4534C28.6826 38.3821 28.6425 38.3009 28.6192 38.2141C28.596 38.1274 28.5901 38.037 28.6018 37.9479C28.6135 37.8589 28.6425 37.7731 28.6874 37.6953ZM39.1352 32.5486C39.18 32.6264 39.2398 32.6945 39.311 32.7491C39.3822 32.8038 39.4635 32.8438 39.5502 32.8671C39.6369 32.8903 39.7273 32.8962 39.8163 32.8845C39.9053 32.8728 39.9911 32.8437 40.0688 32.7988C40.1465 32.7539 40.2147 32.6942 40.2693 32.6229C40.3239 32.5517 40.364 32.4705 40.3872 32.3838C40.4105 32.2971 40.4164 32.2067 40.4047 32.1177C40.393 32.0287 40.3638 31.9429 40.3189 31.8651L38.6291 28.9378C38.4398 28.6111 38.0219 28.4991 37.6952 28.6879C37.6175 28.7327 37.5493 28.7924 37.4946 28.8636C37.44 28.9348 37.3999 29.016 37.3766 29.1027C37.3534 29.1894 37.3474 29.2798 37.3591 29.3688C37.3708 29.4578 37.3999 29.5436 37.4448 29.6213L39.1352 32.5486ZM30.1376 50.0001C30.1376 49.9103 30.1199 49.8215 30.0856 49.7385C30.0513 49.6556 30.0009 49.5802 29.9374 49.5168C29.874 49.4533 29.7986 49.403 29.7157 49.3686C29.6327 49.3343 29.5439 49.3166 29.4541 49.3166H26.074C25.6966 49.3166 25.3906 49.6226 25.3906 50.0001C25.3906 50.3776 25.6966 50.6836 26.074 50.6836H29.4542C29.544 50.6836 29.6328 50.6659 29.7158 50.6316C29.7987 50.5973 29.8741 50.5469 29.9375 50.4834C30.001 50.42 30.0513 50.3446 30.0857 50.2617C30.12 50.1787 30.1376 50.0899 30.1376 50.0001ZM67.7937 40.4108C67.9135 40.4107 68.0311 40.379 68.1349 40.319L71.0622 38.6292C71.3884 38.4404 71.5009 38.022 71.3121 37.6953C71.1238 37.3687 70.7049 37.2562 70.3787 37.4449L67.451 39.1353C67.3732 39.1801 67.305 39.2398 67.2504 39.311C67.1957 39.3821 67.1556 39.4634 67.1324 39.5501C67.1092 39.6368 67.1033 39.7272 67.1151 39.8162C67.1268 39.9052 67.156 39.991 67.201 40.0687C67.2609 40.1728 67.3473 40.2593 67.4514 40.3194C67.5554 40.3794 67.6735 40.411 67.7937 40.4108ZM59.9305 32.799C60.0344 32.859 60.1523 32.8907 60.2723 32.8908C60.3923 32.891 60.5103 32.8595 60.6142 32.7994C60.7181 32.7393 60.8043 32.6528 60.864 32.5486L62.5548 29.6213C62.7431 29.2946 62.6319 28.8762 62.3048 28.6879C62.2271 28.6429 62.1413 28.6137 62.0522 28.6019C61.9632 28.5901 61.8728 28.5959 61.786 28.6192C61.6993 28.6424 61.618 28.6825 61.5467 28.7371C61.4755 28.7918 61.4157 28.86 61.3709 28.9378L59.6806 31.8651C59.4923 32.1923 59.6043 32.6103 59.9305 32.799ZM31.8651 59.6806L28.9379 61.3709C28.8601 61.4157 28.792 61.4754 28.7373 61.5466C28.6826 61.6178 28.6425 61.699 28.6193 61.7857C28.596 61.8724 28.5901 61.9628 28.6018 62.0518C28.6135 62.1408 28.6426 62.2266 28.6875 62.3043C28.7476 62.4084 28.834 62.4948 28.9382 62.5549C29.0423 62.615 29.1604 62.6466 29.2806 62.6465C29.4003 62.6465 29.5179 62.6148 29.6214 62.5547L32.5487 60.8648C32.6265 60.82 32.6947 60.7602 32.7493 60.689C32.804 60.6178 32.8441 60.5365 32.8674 60.4498C32.8906 60.3631 32.8966 60.2726 32.8849 60.1836C32.8731 60.0946 32.844 60.0087 32.7991 59.931C32.7543 59.8532 32.6945 59.785 32.6233 59.7304C32.5521 59.6757 32.4708 59.6356 32.384 59.6123C32.2973 59.5891 32.2069 59.5831 32.1179 59.5948C32.0288 59.6065 31.943 59.6357 31.8652 59.6806H31.8651ZM50.0001 30.1381C50.1814 30.138 50.3553 30.0659 50.4835 29.9376C50.6116 29.8094 50.6836 29.6354 50.6836 29.4541V26.074C50.6799 25.8951 50.6062 25.7248 50.4784 25.5996C50.3506 25.4744 50.1788 25.4043 49.9999 25.4043C49.8209 25.4043 49.6491 25.4744 49.5213 25.5996C49.3935 25.7248 49.3198 25.8951 49.3161 26.074V29.4542C49.3162 29.6356 49.3883 29.8095 49.5165 29.9378C49.6448 30.066 49.8187 30.138 50.0001 30.1381ZM71.0624 61.3709L68.1351 59.6806C67.8079 59.4918 67.3895 59.6038 67.2012 59.931C67.1562 60.0087 67.127 60.0945 67.1152 60.1835C67.1034 60.2725 67.1093 60.363 67.1326 60.4497C67.1558 60.5365 67.1959 60.6178 67.2505 60.689C67.3052 60.7602 67.3734 60.82 67.4512 60.8648L70.3789 62.5547C70.4824 62.6148 70.6 62.6465 70.7197 62.6465C70.8399 62.6466 70.9579 62.615 71.0619 62.5549C71.166 62.4948 71.2523 62.4084 71.3123 62.3043C71.5011 61.9776 71.3886 61.5597 71.0624 61.3709ZM73.9257 49.3166H70.546C70.4553 49.3151 70.3651 49.3316 70.2809 49.3653C70.1966 49.3989 70.1199 49.449 70.0552 49.5127C69.9905 49.5763 69.9391 49.6521 69.904 49.7358C69.8689 49.8195 69.8508 49.9094 69.8508 50.0001C69.8508 50.0908 69.8689 50.1807 69.904 50.2644C69.9391 50.3481 69.9905 50.4239 70.0552 50.4875C70.1199 50.5512 70.1966 50.6013 70.2809 50.6349C70.3651 50.6686 70.4553 50.6851 70.546 50.6836H73.9257C74.3027 50.6836 74.6097 50.3776 74.6097 50.0001C74.6097 49.6226 74.3027 49.3166 73.9257 49.3166ZM50.0001 69.862C49.8188 69.862 49.6449 69.934 49.5166 70.0621C49.3883 70.1903 49.3162 70.3642 49.3161 70.5455V73.9257C49.3198 74.1046 49.3935 74.2749 49.5213 74.4001C49.6491 74.5253 49.8209 74.5954 49.9999 74.5954C50.1788 74.5954 50.3506 74.5253 50.4784 74.4001C50.6062 74.2749 50.6799 74.1046 50.6836 73.9257V70.5455C50.6836 70.4558 50.6659 70.3669 50.6316 70.2839C50.5972 70.201 50.5469 70.1257 50.4834 70.0622C50.42 69.9987 50.3446 69.9484 50.2617 69.914C50.1787 69.8797 50.0899 69.862 50.0001 69.862ZM40.0691 67.2006C39.9121 67.1101 39.7255 67.0857 39.5504 67.1327C39.3753 67.1796 39.226 67.2941 39.1353 67.451L37.4449 70.3783C37.4 70.4561 37.3709 70.5419 37.3592 70.6309C37.3475 70.72 37.3534 70.8104 37.3767 70.8971C37.3999 70.9839 37.44 71.0652 37.4947 71.1364C37.5494 71.2076 37.6175 71.2673 37.6953 71.3122C37.773 71.3572 37.8588 71.3864 37.9478 71.3982C38.0368 71.41 38.1273 71.4042 38.214 71.3809C38.3008 71.3577 38.3821 71.3176 38.4533 71.263C38.5245 71.2083 38.5843 71.1401 38.6291 71.0623L40.3189 68.1345C40.5077 67.8078 40.3957 67.3898 40.069 67.2006H40.0691ZM60.8641 67.451C60.6758 67.1243 60.2578 67.0123 59.9307 67.2006C59.6045 67.3898 59.4925 67.8078 59.6808 68.1345L61.3711 71.0623C61.4311 71.1664 61.5176 71.2529 61.6217 71.3129C61.7258 71.3729 61.844 71.4043 61.9642 71.404C62.0838 71.4038 62.2014 71.3721 62.305 71.3122C62.6321 71.1234 62.7432 70.7055 62.555 70.3783L60.8641 67.451ZM67.676 49.9998C67.676 51.7011 66.9208 52.8782 65.569 53.8384C64.1152 54.8709 63.4254 56.5364 63.7232 58.2944C63.9999 59.9293 63.702 61.2953 62.4987 62.4984C61.296 63.7012 59.9292 64 58.2947 63.7229C56.5367 63.425 54.8712 64.1148 53.8387 65.5687C52.8786 66.9204 51.7015 67.6756 50.0002 67.6756C48.2989 67.6756 47.1218 66.9204 46.1616 65.5687C45.1291 64.1148 43.4636 63.425 41.7056 63.723C40.0707 63.9996 38.7047 63.7016 37.5016 62.4984C36.2988 61.2957 36.0001 59.9289 36.2772 58.2945C36.5751 56.5364 35.8852 54.871 34.4313 53.8385C33.0796 52.8784 32.3244 51.7013 32.3244 49.9999C32.3244 48.2985 33.0796 47.1215 34.4313 46.1614C35.8852 45.1289 36.575 43.4634 36.2771 41.7054C36.0005 40.0705 36.2984 38.7045 37.5017 37.5014C38.7044 36.2986 40.0712 35.9999 41.7057 36.2771C43.4637 36.5749 45.1292 35.8851 46.1617 34.4313C47.1218 33.0795 48.299 32.3243 50.0003 32.3243C51.7016 32.3243 52.8787 33.0795 53.8388 34.4313C54.8713 35.8851 56.5368 36.5748 58.2948 36.277C59.9297 36.0003 61.2957 36.2983 62.4988 37.5015C63.7016 38.7042 64.0003 40.071 63.7232 41.7054C63.4254 43.4635 64.1152 45.1289 65.569 46.1614C66.9208 47.1215 67.676 48.2986 67.676 49.9999V49.9998ZM61.2751 49.9998C61.2751 43.773 56.2271 38.7249 50.0002 38.7249C43.7732 38.7249 38.7253 43.7729 38.7253 49.9998C38.7253 56.2268 43.7733 61.2747 50.0002 61.2747C56.2271 61.2747 61.2751 56.2268 61.2751 49.9998ZM53.8481 45.0971L47.1887 51.7565L45.3699 48.6063C44.8871 47.7701 43.8081 47.4811 42.9719 47.9637C42.1357 48.4465 41.8467 49.5255 42.3294 50.3616L45.4004 55.6808C45.6557 56.123 46.0631 56.3952 46.5692 56.4618C47.0755 56.5284 47.5395 56.3709 47.9005 56.0099L56.3308 47.5796C57.0135 46.897 57.0135 45.7798 56.3308 45.0971C55.6481 44.4144 54.531 44.4144 53.8482 45.0971H53.8481Z" fill="white"/>
</g>
<defs>
<linearGradient id="paint0_linear_534_2608" x1="50" y1="5" x2="50" y2="95" gradientUnits="userSpaceOnUse">
<stop stop-color="#FF5E01"/>
<stop offset="1" stop-color="#FF9404"/>
</linearGradient>
<clipPath id="clip0_534_2608">
<rect width="50" height="50" fill="white" transform="translate(25 25)"/>
</clipPath>
</defs>
</svg>
