<svg width="48" height="42" viewBox="0 0 48 42" fill="none" xmlns="http://www.w3.org/2000/svg">
<path fill-rule="evenodd" clip-rule="evenodd" d="M37.5944 13.4277C38.4783 9.94497 39.5894 3.48669 35.6725 1.29712C31.7739 -0.882892 26.7006 3.29442 24.0217 5.80184C21.3506 3.3194 16.1348 -0.840049 12.2213 1.35647C8.32423 3.54379 9.526 9.895 10.4295 13.3995C6.79423 14.4006 0.5625 16.5569 0.5625 20.9623C0.5625 25.3553 6.78775 27.7012 10.4015 28.7014C9.49466 32.2253 8.35306 38.4858 12.2551 40.6683C16.1833 42.8644 21.3828 38.8039 24.0866 36.2691C26.7827 38.7912 31.8072 42.8783 35.7066 40.6897C39.6181 38.4942 38.5994 32.1225 37.6958 28.5977C41.1989 27.5953 47.4375 25.3005 47.4375 20.9623C47.4375 16.5992 41.1723 14.4255 37.5944 13.4277ZM37.1503 26.7297C36.557 24.9087 35.7563 22.9723 34.7767 20.972C35.7117 19.0189 36.4814 17.1075 37.0581 15.2983C39.6811 16.0356 45.4352 17.7208 45.4352 20.9623C45.4352 24.2344 39.9134 25.9355 37.1503 26.7297ZM34.7031 39.0094C31.7938 40.6422 27.472 36.7337 25.4809 34.8764C26.8019 33.4756 28.1219 31.8472 29.4102 30.0389C31.6764 29.8441 33.8172 29.5253 35.7588 29.0902C36.3947 31.5834 37.6253 37.3692 34.7031 39.0094ZM13.2557 38.9861C10.346 37.3594 11.6759 31.7728 12.3431 29.177C14.263 29.5889 16.3884 29.8852 18.66 30.0637C19.9567 31.8331 21.315 33.4595 22.6838 34.8839C20.9927 36.47 16.1789 40.6203 13.2557 38.9861ZM2.56483 20.9623C2.56483 17.6781 8.28448 16.0052 10.9672 15.2697C11.5539 17.1195 12.3234 19.0537 13.2519 21.0097C12.3113 22.9947 11.5309 24.9595 10.9388 26.8312C8.38077 26.1212 2.56483 24.2486 2.56483 20.9623ZM13.2245 3.03678C16.1461 1.39712 20.6792 5.39036 22.6186 7.1877C21.2569 8.60553 19.9111 10.2197 18.6255 11.9789C16.4209 12.177 14.3105 12.4952 12.3705 12.9214C11.6426 10.0949 10.3061 4.67467 13.2245 3.03678ZM30.8427 14.0892C32.3383 14.2722 33.7713 14.5156 35.1167 14.8134C34.7128 16.0687 34.2094 17.3814 33.6164 18.727C32.7569 17.1458 31.8342 15.5962 30.8427 14.0892ZM24.0223 8.57515C24.9459 9.54526 25.8709 10.6286 26.7809 11.8039C24.9352 11.7192 23.0864 11.7189 21.2406 11.8027C22.1514 10.6382 23.0844 9.55653 24.0223 8.57515ZM14.4008 18.7256C13.8176 17.3847 13.3187 16.0662 12.9113 14.793C14.2487 14.5028 15.675 14.2656 17.1609 14.0856C16.1666 15.5894 15.2455 17.1383 14.4008 18.7256ZM17.2036 27.9777C15.6686 27.8116 14.2207 27.5864 12.8837 27.3042C13.2976 26.0086 13.8075 24.6617 14.4031 23.2919C15.2594 24.8958 16.1945 26.4597 17.2036 27.9777ZM24.0778 33.4867C23.1288 32.4937 22.182 31.3955 21.2575 30.2142C23.1137 30.2848 24.9736 30.285 26.8297 30.2047C25.9169 31.4075 24.9952 32.5073 24.0778 33.4867ZM33.6355 23.2222C34.262 24.6069 34.7902 25.9464 35.2097 27.2202C33.8505 27.5209 32.3831 27.7631 30.837 27.943C31.8359 26.4073 32.7733 24.8337 33.6355 23.2222ZM28.2927 28.1783C25.4533 28.375 22.5963 28.3728 19.7559 28.1944C18.142 25.9086 16.7053 23.5047 15.4652 21.0091C16.6994 18.5186 18.1256 16.1194 19.7319 13.8372C22.5742 13.6289 25.4341 13.6283 28.2764 13.8384C29.8689 16.1205 31.293 18.5134 32.5558 20.9814C31.308 23.4706 29.8742 25.8747 28.2927 28.1783ZM34.6723 2.97906C37.5947 4.61334 36.2939 10.4176 35.6555 12.9416C33.7108 12.5064 31.5989 12.1827 29.388 11.9814C28.0998 10.2032 26.7653 8.58622 25.4256 7.1867C27.3898 5.35064 31.7783 1.36076 34.6723 2.97906Z" fill="white"/>
</svg>
