<svg width="50" height="50" viewBox="0 0 50 50" fill="none" xmlns="http://www.w3.org/2000/svg">
<path d="M40.625 12.5H46.875V37.5H40.625V12.5Z" fill="white"/>
<path d="M25 48.4375C29.7462 48.4375 33.5938 44.5899 33.5938 39.8438C33.5938 35.0976 29.7462 31.25 25 31.25C20.2538 31.25 16.4062 35.0976 16.4062 39.8438C16.4062 44.5899 20.2538 48.4375 25 48.4375Z" fill="#F2F2F2"/>
<path d="M34.375 34.2313V20.3125H28.125V29.3648C30.7425 30.1505 32.9717 31.8862 34.375 34.2313Z" fill="white"/>
<path d="M22.2238 42.8906L21.5254 41.4922L24.2184 40.1422V34.375H25.7809V40.625C25.7817 40.7708 25.7416 40.914 25.6653 41.0383C25.5889 41.1625 25.4793 41.2629 25.3488 41.3281L22.2238 42.8906Z" fill="#D9575D"/>
<path d="M33.5942 43.6196L36.7192 39.4532H34.3559C34.2609 37.2856 33.4156 35.2183 31.9644 33.6052C30.5133 31.9921 28.5466 30.9335 26.4011 30.6106C24.2555 30.2876 22.0643 30.7205 20.2027 31.835C18.3411 32.9495 16.9246 34.6764 16.1959 36.7201C15.4671 38.7638 15.4713 40.9973 16.2077 43.0382C16.9442 45.0792 18.3671 46.8007 20.2329 47.9082C22.0987 49.0158 24.2915 49.4403 26.4358 49.1094C28.5802 48.7784 30.5429 47.7124 31.9879 46.0939L30.8239 45.0525C29.6192 46.4054 27.9821 47.2982 26.1923 47.5783C24.4025 47.8584 22.571 47.5084 21.0105 46.5881C19.4501 45.6678 18.2576 44.2343 17.6367 42.5325C17.0157 40.8307 17.0049 38.966 17.606 37.2571C18.2071 35.5481 19.3829 34.1009 20.9326 33.1625C22.4822 32.2242 24.3095 31.8529 26.1025 32.1122C27.8954 32.3715 29.5427 33.2452 30.763 34.5841C31.9834 35.923 32.701 37.644 32.7934 39.4532H30.4692L33.5942 43.6196Z" fill="#D9575D"/>
<path d="M38.2812 39.0625H49.2188V40.625H38.2812V39.0625ZM0.78125 39.0625H14.0625V40.625H0.78125V39.0625Z" fill="white"/>
<path d="M3.125 20.3125H9.375V37.5H3.125V20.3125Z" fill="white"/>
<path d="M6.875 11.253L15.625 4.69053L16.5625 5.94053L7.8125 12.503L6.875 11.253ZM32.818 9.80615L41.3477 4.4749L42.1758 5.7999L33.6461 11.1312L32.818 9.80615ZM19.5867 5.7585L20.3789 4.41162L29.6164 9.84522L28.8242 11.1921L19.5867 5.7585Z" fill="white"/>
<path d="M5.46875 16.4062C7.19464 16.4062 8.59375 15.0071 8.59375 13.2812C8.59375 11.5554 7.19464 10.1562 5.46875 10.1562C3.74286 10.1562 2.34375 11.5554 2.34375 13.2812C2.34375 15.0071 3.74286 16.4062 5.46875 16.4062Z" fill="#D9575D"/>
<path d="M17.9688 7.03125C19.6946 7.03125 21.0938 5.63214 21.0938 3.90625C21.0938 2.18036 19.6946 0.78125 17.9688 0.78125C16.2429 0.78125 14.8438 2.18036 14.8438 3.90625C14.8438 5.63214 16.2429 7.03125 17.9688 7.03125Z" fill="#D9575D"/>
<path d="M31.25 14.8438C32.9759 14.8438 34.375 13.4446 34.375 11.7188C34.375 9.99286 32.9759 8.59375 31.25 8.59375C29.5241 8.59375 28.125 9.99286 28.125 11.7188C28.125 13.4446 29.5241 14.8438 31.25 14.8438Z" fill="#D9575D"/>
<path d="M43.75 7.03125C45.4759 7.03125 46.875 5.63214 46.875 3.90625C46.875 2.18036 45.4759 0.78125 43.75 0.78125C42.0241 0.78125 40.625 2.18036 40.625 3.90625C40.625 5.63214 42.0241 7.03125 43.75 7.03125Z" fill="#D9575D"/>
<path d="M21.875 29.3648V12.5H15.625V34.2313C17.0283 31.8862 19.2575 30.1505 21.875 29.3648Z" fill="white"/>
</svg>
