<svg width="42" height="42" viewBox="0 0 42 42" fill="none" xmlns="http://www.w3.org/2000/svg">
<path fill-rule="evenodd" clip-rule="evenodd" d="M20.3404 32.3213H7.1491V34.3779C7.1491 34.7415 6.85386 35.0368 6.49027 35.0368C6.1266 35.0368 5.83145 34.7415 5.83145 34.3779V31.6624C5.83145 31.4877 5.90086 31.3201 6.02441 31.1966C6.14797 31.073 6.31554 31.0036 6.49027 31.0036H20.3404V28.9469C20.3404 28.5833 20.6355 28.2881 20.9992 28.2881C21.3628 28.2881 21.658 28.5833 21.658 28.9469V31.0036H35.5116C35.6863 31.0036 35.8539 31.073 35.9775 31.1966C36.101 31.3201 36.1704 31.4877 36.1704 31.6624V34.3779C36.1704 34.7415 35.8753 35.0368 35.5116 35.0368C35.148 35.0368 34.8528 34.7415 34.8528 34.3779V32.3213H21.658V34.3779C21.658 34.7415 21.3628 35.0368 20.9992 35.0368C20.6355 35.0368 20.3404 34.7415 20.3404 34.3779V32.3213ZM22.2933 26.2861C22.3561 26.1231 22.4811 25.9917 22.6407 25.9207C22.8004 25.8498 22.9817 25.8452 23.1448 25.9079C23.3078 25.9707 23.4392 26.0957 23.5101 26.2553C23.581 26.415 23.5857 26.5963 23.523 26.7594L23.3572 27.1901C23.3094 27.3144 23.2251 27.4212 23.1153 27.4966C23.0055 27.572 22.8755 27.6123 22.7424 27.6123H19.2631C19.1299 27.6123 18.9999 27.572 18.8901 27.4966C18.7804 27.4212 18.696 27.3144 18.6482 27.1901L17.9508 25.378C16.981 25.1167 16.0524 24.73 15.183 24.2316L13.4051 25.0191C13.2835 25.073 13.1484 25.0888 13.0176 25.0644C12.8868 25.04 12.7665 24.9766 12.6724 24.8826L10.2128 22.4228C10.1186 22.3287 10.0552 22.2082 10.0309 22.0772C10.0065 21.9463 10.0225 21.811 10.0766 21.6893L10.8663 19.9131C10.3664 19.0459 9.98163 18.1158 9.71843 17.1485L7.90518 16.4506C7.78092 16.4028 7.67406 16.3184 7.5987 16.2087C7.52334 16.0989 7.48301 15.9689 7.48304 15.8358V12.3564C7.48304 12.2233 7.52337 12.0933 7.59873 11.9835C7.67409 11.8738 7.78093 11.7894 7.90518 11.7416L9.71818 11.0439C9.9805 10.0758 10.3665 9.14553 10.8666 8.27609L10.0766 6.4994C10.0225 6.3777 10.0065 6.24246 10.0309 6.11151C10.0552 5.98056 10.1186 5.86005 10.2128 5.76589L12.6724 3.30617C12.7666 3.212 12.8871 3.14858 13.0181 3.12427C13.149 3.09997 13.2842 3.11593 13.4059 3.17004L15.1826 3.95997C16.0509 3.46024 16.9803 3.07514 17.9475 2.81427L18.6484 0.998063C18.6963 0.873939 18.7806 0.767226 18.8904 0.691965C19.0001 0.616704 19.13 0.576421 19.2631 0.576416H22.7424C23.0151 0.576416 23.2596 0.744416 23.3573 0.998969L24.0549 2.81444C25.022 3.07532 25.9511 3.46037 26.8193 3.95997L28.5959 3.17004C28.7176 3.11593 28.8529 3.09997 28.9838 3.12427C29.1148 3.14858 29.2353 3.212 29.3295 3.30617L31.7891 5.76589C31.8832 5.85994 31.9466 5.98028 31.971 6.11107C31.9953 6.24185 31.9795 6.37695 31.9256 6.49858L31.1385 8.27551C31.6389 9.14485 32.0242 10.0755 32.2847 11.0442L34.0967 11.7416C34.221 11.7894 34.3278 11.8738 34.4032 11.9835C34.4785 12.0933 34.5189 12.2233 34.5189 12.3564V14.0961C34.5189 14.4597 34.2237 14.755 33.86 14.755C33.4964 14.755 33.2012 14.4597 33.2012 14.0961V12.8088L31.4931 12.1514C31.3931 12.1129 31.3041 12.0507 31.2336 11.97C31.1631 11.8893 31.1134 11.7927 31.0887 11.6885C30.8359 10.6204 30.4134 9.59985 29.8373 8.66562C29.7812 8.57456 29.7481 8.47121 29.7409 8.36451C29.7337 8.2578 29.7526 8.15094 29.7959 8.05316L30.5379 6.3781L28.7177 4.55785L27.0429 5.30257C26.9451 5.34607 26.8381 5.36506 26.7312 5.35788C26.6243 5.35071 26.5208 5.31759 26.4297 5.26139C25.4962 4.68596 24.4768 4.2635 23.4099 4.01004C23.3057 3.98529 23.2091 3.93549 23.1285 3.86498C23.0479 3.79446 22.9857 3.70535 22.9473 3.60536L22.2897 1.89406H19.715L19.0543 3.60626C19.0158 3.70605 18.9536 3.79496 18.873 3.86531C18.7925 3.93566 18.696 3.98533 18.592 4.01004C17.5251 4.2635 16.5057 4.68596 15.5722 5.26139C15.4811 5.31759 15.3776 5.35071 15.2707 5.35788C15.1638 5.36506 15.0568 5.34607 14.959 5.30257L13.2841 4.55785L11.4645 6.3776L12.2091 8.05233C12.2526 8.1502 12.2716 8.2572 12.2645 8.36406C12.2573 8.47093 12.2242 8.57443 12.168 8.66562C11.5921 9.601 11.1684 10.6219 10.9128 11.6903C10.8879 11.7941 10.8381 11.8904 10.7677 11.9707C10.6973 12.051 10.6084 12.113 10.5088 12.1514L8.80068 12.8088V15.3834L10.5088 16.0408C10.6084 16.0791 10.6972 16.1411 10.7675 16.2214C10.8379 16.3016 10.8877 16.3977 10.9127 16.5015C11.1696 17.5687 11.591 18.59 12.1674 19.5222C12.2239 19.6134 12.2572 19.7171 12.2644 19.8241C12.2717 19.9312 12.2527 20.0384 12.2091 20.1364L11.4645 21.8111L13.2846 23.6313L14.9598 22.8893C15.0573 22.8461 15.1638 22.8272 15.2703 22.8343C15.3767 22.8414 15.4798 22.8742 15.5708 22.9299C16.5064 23.5031 17.5243 23.9284 18.595 24.1821C18.6992 24.2067 18.7959 24.2565 18.8766 24.327C18.9573 24.3974 19.0195 24.4865 19.058 24.5865L19.7154 26.2947H22.29L22.2933 26.2861ZM27.6793 13.249C27.7009 13.4223 27.6529 13.5972 27.5457 13.7352C27.4385 13.8731 27.2809 13.9629 27.1076 13.9847C26.9342 14.0064 26.7594 13.9584 26.6214 13.8512C26.4834 13.744 26.3937 13.5864 26.3718 13.4131C26.0372 10.7456 23.7595 8.68456 21.0009 8.68456C18.0118 8.68456 15.5911 11.1052 15.5911 14.0943C15.5911 17.0837 18.0117 19.5077 21.0009 19.5077C21.0937 19.5077 21.1859 19.5054 21.2775 19.5008C21.452 19.4921 21.6228 19.553 21.7524 19.6702C21.8819 19.7874 21.9597 19.9512 21.9685 20.1257C21.9772 20.3002 21.9163 20.471 21.7991 20.6006C21.6819 20.7302 21.5181 20.8079 21.3436 20.8168C21.2295 20.8225 21.1152 20.8254 21.0009 20.8254C17.2839 20.8254 14.2734 17.8115 14.2734 14.0943C14.2734 10.3772 17.2837 7.36691 21.0009 7.36691C24.4317 7.36691 27.263 9.93155 27.6793 13.249ZM20.3438 10.8753C20.3438 10.5116 20.6391 10.2165 21.0027 10.2165C21.3663 10.2165 21.6615 10.5116 21.6615 10.8753V13.6653L23.4505 14.698C23.7655 14.8797 23.8736 15.283 23.6918 15.5979C23.5101 15.9128 23.1068 16.021 22.7919 15.8391L20.6733 14.6164C20.5732 14.5585 20.49 14.4754 20.4321 14.3752C20.3743 14.275 20.3438 14.1614 20.3438 14.0457V10.8753ZM20.9992 35.7125C22.5752 35.7125 23.8546 36.9921 23.8546 38.5681C23.8546 40.144 22.5752 41.4235 20.9992 41.4235C19.4232 41.4235 18.1437 40.144 18.1437 38.5681C18.1437 36.9921 19.4232 35.7125 20.9992 35.7125ZM20.9992 37.0302C20.1505 37.0302 19.4614 37.7192 19.4614 38.5681C19.4614 39.4168 20.1505 40.1058 20.9992 40.1058C21.8479 40.1058 22.537 39.4168 22.537 38.5681C22.537 37.7192 21.8479 37.0302 20.9992 37.0302ZM35.5116 35.7125C37.0876 35.7125 38.3671 36.9921 38.3671 38.5681C38.3671 40.144 37.0876 41.4235 35.5116 41.4235C33.9357 41.4235 32.6562 40.144 32.6562 38.5681C32.6562 36.9921 33.9357 35.7125 35.5116 35.7125ZM35.5116 37.0302C34.6629 37.0302 33.9738 37.7192 33.9738 38.5681C33.9738 39.4168 34.6629 40.1058 35.5116 40.1058C36.3604 40.1058 37.0495 39.4168 37.0495 38.5681C37.0495 37.7192 36.3604 37.0302 35.5116 37.0302ZM6.49027 35.7125C8.06618 35.7125 9.3457 36.9921 9.3457 38.5681C9.3457 40.144 8.06618 41.4235 6.49027 41.4235C4.91428 41.4235 3.63477 40.144 3.63477 38.5681C3.63477 36.9921 4.91428 35.7125 6.49027 35.7125ZM6.49027 37.0302C5.64146 37.0302 4.95241 37.7192 4.95241 38.5681C4.95241 39.4168 5.64146 40.1058 6.49027 40.1058C7.339 40.1058 8.02805 39.4168 8.02805 38.5681C8.02805 37.7192 7.339 37.0302 6.49027 37.0302ZM34.8871 26.6516C31.9892 29.5494 27.2839 29.5494 24.3861 26.6516C21.4883 23.7538 21.4883 19.0485 24.3861 16.1507C27.2839 13.2528 31.9892 13.2528 34.8871 16.1507C37.7849 19.0485 37.7849 23.7538 34.8871 26.6516ZM33.9553 25.7199C36.3389 23.3363 36.3389 19.466 33.9553 17.0824C31.5718 14.6988 27.7014 14.6988 25.3178 17.0824C22.9343 19.466 22.9343 23.3363 25.3178 25.7199C27.7014 28.1035 31.5718 28.1035 33.9553 25.7199ZM32.3573 20.5246C32.2187 20.0928 31.9788 19.7004 31.6577 19.3801C30.5422 18.2647 28.731 18.2647 27.6155 19.3801C26.5001 20.4955 26.5001 22.3067 27.6155 23.4222C28.731 24.5377 30.5422 24.5377 31.6577 23.4222C31.9148 23.1651 32.3322 23.1651 32.5893 23.4222C32.8464 23.6793 32.8464 24.0968 32.5893 24.3539C30.9596 25.9836 28.3135 25.9836 26.6838 24.3539C25.0542 22.7243 25.0542 20.0781 26.6838 18.4484C28.3135 16.8187 30.9596 16.8187 32.5893 18.4484C33.0303 18.8882 33.3668 19.4215 33.574 20.0089L33.7356 19.7291C33.823 19.5778 33.9669 19.4674 34.1357 19.4222C34.3044 19.377 34.4842 19.4007 34.6355 19.4879C34.7868 19.5754 34.8972 19.7193 34.9424 19.888C34.9876 20.0568 34.964 20.2366 34.8767 20.3879L33.8582 22.1519C33.815 22.2268 33.7574 22.2925 33.6887 22.3452C33.6201 22.3979 33.5418 22.4365 33.4582 22.4589C33.3746 22.4813 33.2875 22.487 33.2017 22.4757C33.1159 22.4644 33.0332 22.4364 32.9583 22.3931L31.1942 21.3747C31.0429 21.2872 30.9325 21.1433 30.8873 20.9745C30.8421 20.8058 30.8658 20.626 30.9531 20.4746C31.1349 20.1598 31.5381 20.0517 31.853 20.2335L32.3573 20.5246Z" fill="url(#paint0_linear_562_674)"/>
<defs>
<linearGradient id="paint0_linear_562_674" x1="21.0009" y1="0.576416" x2="21.0009" y2="41.4235" gradientUnits="userSpaceOnUse">
<stop stop-color="#FF5E01"/>
<stop offset="1" stop-color="#FF9404"/>
</linearGradient>
</defs>
</svg>
