<svg width="48" height="48" viewBox="0 0 48 48" fill="none" xmlns="http://www.w3.org/2000/svg">
<path d="M42 14.9698C42 12.7748 42 11.6772 41.4478 10.751C40.8956 9.8248 39.8784 9.216 37.8438 7.99842L35.2552 6.44922C32.0616 4.53786 30.4646 3.5822 29.2324 4.17424C28 4.7663 28 6.48918 28 9.93492V44H42V14.9698Z" stroke="#ff6900" stroke-width="2.5" stroke-linejoin="round"/>
<path d="M44 44H4" stroke="#ff6900" stroke-width="2.5" stroke-linejoin="round"/>
<path d="M28 18H20" stroke="#ff6900" stroke-width="2.5" stroke-linejoin="round"/>
<path d="M28 30H20" stroke="#ff6900" stroke-width="2.5" stroke-linejoin="round"/>
<path d="M6 14.9698C6 12.7748 6 11.6772 6.55218 10.751C7.10438 9.8248 8.12162 9.216 10.1561 7.99842L12.7447 6.44922C15.9385 4.53786 17.5353 3.5822 18.7677 4.17424C20 4.7663 20 6.48918 20 9.93492V44H6V14.9698Z" stroke="#ff6900" stroke-width="2.5" stroke-linejoin="round"/>
<path d="M13.0023 16H12.9844M13.0023 24H12.9844M13.0023 32H12.9844" stroke="#ff6900" stroke-width="2.5" stroke-linejoin="round"/>
<path d="M35.0024 16H34.9844M35.0024 24H34.9844M35.0024 32H34.9844" stroke="#ff6900" stroke-width="2.5" stroke-linejoin="round"/>
</svg>
