<svg width="42" height="42" viewBox="0 0 42 42" fill="none" xmlns="http://www.w3.org/2000/svg">
<path d="M27.3996 38.7879C27.443 38.8624 27.4713 38.9447 27.4828 39.0301C27.4944 39.1155 27.489 39.2023 27.467 39.2857C27.445 39.369 27.4068 39.4472 27.3546 39.5157C27.3023 39.5843 27.2371 39.6419 27.1626 39.6852C25.2457 40.8012 23.1215 41.3448 21.0113 41.3448C17.8373 41.3448 14.6944 40.1153 12.3329 37.7538C10.1523 35.5733 8.88124 32.6767 8.75359 29.5977C8.64835 27.0577 9.3265 24.5778 10.6803 22.4703L10.5246 22.5148C10.358 22.5603 10.18 22.5383 10.0295 22.4535C9.87895 22.3687 9.76792 22.2279 9.72051 22.0617C9.67311 21.8956 9.69314 21.7174 9.77627 21.5659C9.85939 21.4144 9.99891 21.3018 10.1645 21.2526L12.2228 20.6654C12.3185 20.6381 12.4192 20.633 12.5173 20.6503C12.6153 20.6677 12.7081 20.7072 12.7886 20.7657C12.8692 20.8243 12.9353 20.9003 12.9821 20.9882C13.0289 21.0761 13.0551 21.1735 13.0587 21.273L13.1355 23.412C13.1395 23.4986 13.1262 23.5851 13.0965 23.6665C13.0668 23.748 13.0212 23.8227 12.9624 23.8865C12.9037 23.9502 12.8329 24.0017 12.7541 24.0379C12.6753 24.0741 12.5901 24.0944 12.5035 24.0975C12.4169 24.1006 12.3305 24.0865 12.2493 24.056C12.1681 24.0255 12.0938 23.9793 12.0306 23.9199C11.9674 23.8606 11.9166 23.7893 11.8812 23.7102C11.8457 23.6311 11.8262 23.5457 11.8239 23.459L11.8122 23.1317C9.00559 27.423 9.53831 33.1031 13.261 36.8258C16.7717 40.3367 22.2166 41.0461 26.5024 38.551C26.6528 38.4634 26.8318 38.4392 27.0001 38.4836C27.1683 38.5281 27.312 38.6375 27.3996 38.7879ZM33.2476 28.5747C33.1201 25.4956 31.8489 22.599 29.6684 20.4183C25.7365 16.4865 19.6381 15.6925 14.838 18.4873C14.7627 18.5302 14.6966 18.5876 14.6436 18.6562C14.5906 18.7249 14.5517 18.8033 14.5291 18.887C14.5066 18.9707 14.5009 19.0581 14.5123 19.144C14.5238 19.23 14.5521 19.3128 14.5957 19.3878C14.6394 19.4627 14.6974 19.5282 14.7665 19.5806C14.8356 19.6329 14.9144 19.6711 14.9984 19.6928C15.0823 19.7146 15.1697 19.7194 15.2555 19.7072C15.3414 19.6949 15.4239 19.6658 15.4985 19.6215C19.784 17.1262 25.2292 17.8356 28.7403 21.3464C32.3961 25.0023 32.9331 30.7817 30.1889 35.0332L30.1774 34.7132C30.1645 34.351 29.861 34.0698 29.4981 34.0809C29.4119 34.084 29.3273 34.104 29.2489 34.1398C29.1705 34.1756 29.0999 34.2265 29.0412 34.2896C28.9825 34.3527 28.9368 34.4267 28.9067 34.5075C28.8766 34.5882 28.8627 34.6741 28.8658 34.7603L28.9426 36.8992C28.9488 37.0691 29.0206 37.2299 29.1429 37.3479C29.2652 37.4659 29.4285 37.5319 29.5985 37.5319C29.6587 37.5319 29.7193 37.5236 29.7785 37.5067L31.8367 36.9196C32.0041 36.8718 32.1456 36.7595 32.2302 36.6074C32.3148 36.4553 32.3355 36.2758 32.2877 36.1084C32.24 35.941 32.1277 35.7995 31.9756 35.7149C31.8235 35.6303 31.644 35.6096 31.4766 35.6573L31.3207 35.7018C32.6747 33.5945 33.3529 31.1146 33.2476 28.5747ZM28.0636 31.1327C27.9127 31.6542 27.7042 32.1572 27.4418 32.6324L27.8687 33.5936C27.9225 33.7148 27.9384 33.8495 27.9141 33.9798C27.8899 34.1102 27.8267 34.2302 27.7329 34.3239L26.2386 35.8184C26.1448 35.9122 26.0248 35.9754 25.8944 35.9996C25.764 36.0239 25.6293 36.008 25.5081 35.9541L24.5474 35.5274C24.072 35.7898 23.5688 35.9984 23.0471 36.1493L22.6697 37.1298C22.6221 37.2536 22.538 37.36 22.4287 37.4351C22.3194 37.5101 22.1899 37.5503 22.0573 37.5503H19.9439C19.8113 37.5503 19.6818 37.5101 19.5724 37.4351C19.4631 37.36 19.3791 37.2536 19.3314 37.1298L18.9539 36.149C18.4324 35.9981 17.9294 35.7895 17.4542 35.5272L16.493 35.9541C16.3718 36.0079 16.2371 36.0238 16.1068 35.9995C15.9764 35.9753 15.8564 35.9122 15.7626 35.8185L14.2681 34.324C14.1744 34.2302 14.1112 34.1102 14.087 33.9799C14.0628 33.8495 14.0786 33.7148 14.1325 33.5936L14.5592 32.6329C14.2968 32.1574 14.0882 31.6542 13.9372 31.1326L12.9568 30.7552C12.833 30.7075 12.7266 30.6235 12.6515 30.5142C12.5765 30.4048 12.5363 30.2753 12.5363 30.1427V28.0293C12.5363 27.8967 12.5765 27.7672 12.6515 27.6579C12.7266 27.5486 12.833 27.4645 12.9568 27.4169L13.9375 27.0393C14.0884 26.5178 14.2969 26.0148 14.5594 25.5395L14.1325 24.5784C14.0786 24.4572 14.0628 24.3226 14.087 24.1922C14.1112 24.0618 14.1744 23.9418 14.2681 23.848L15.7626 22.3536C15.8564 22.2598 15.9764 22.1967 16.1067 22.1724C16.2371 22.1482 16.3718 22.1641 16.493 22.2179L17.4542 22.6448C17.9294 22.3824 18.4324 22.1739 18.9539 22.023L19.3314 21.0422C19.3791 20.9184 19.4631 20.812 19.5724 20.7369C19.6818 20.6618 19.8113 20.6217 19.9439 20.6217H22.0573C22.1899 20.6217 22.3194 20.6618 22.4287 20.7369C22.538 20.812 22.6221 20.9184 22.6697 21.0422L23.0473 22.023C23.5688 22.1739 24.0718 22.3824 24.547 22.6448L25.5082 22.2179C25.6294 22.1641 25.7641 22.1482 25.8945 22.1724C26.0249 22.1967 26.1449 22.2598 26.2386 22.3536L27.733 23.848C27.8268 23.9417 27.8899 24.0617 27.9142 24.1921C27.9384 24.3225 27.9226 24.4572 27.8688 24.5784L27.442 25.5392C27.7045 26.0146 27.9131 26.5178 28.064 27.0394L29.0445 27.4168C29.1683 27.4645 29.2747 27.5485 29.3498 27.6578C29.4248 27.7671 29.465 27.8966 29.465 28.0293V30.1427C29.465 30.2753 29.4248 30.4048 29.3498 30.5142C29.2747 30.6235 29.1683 30.7075 29.0445 30.7552L28.0636 31.1327ZM28.1524 29.6922V28.48L27.2793 28.1439C27.1798 28.1057 27.0912 28.0437 27.021 27.9635C26.9508 27.8832 26.9013 27.7871 26.8766 27.6834C26.7288 27.0618 26.4825 26.4678 26.1472 25.9239C26.0913 25.8332 26.0583 25.7301 26.0511 25.6238C26.044 25.5174 26.0629 25.4109 26.1062 25.3134L26.4862 24.4577L25.629 23.6006L24.7728 23.9808C24.6754 24.0241 24.5689 24.043 24.4625 24.0359C24.3561 24.0287 24.2531 23.9958 24.1623 23.9398C23.6186 23.6046 23.0247 23.3583 22.4033 23.2104C22.2996 23.1858 22.2034 23.1362 22.1232 23.0661C22.043 22.9959 21.981 22.9073 21.9427 22.8078L21.6066 21.9344H20.3944L20.0582 22.8078C20.0199 22.9073 19.958 22.9959 19.8777 23.0661C19.7975 23.1362 19.7013 23.1858 19.5976 23.2104C18.9762 23.3584 18.3823 23.6046 17.8386 23.9398C17.7478 23.9957 17.6448 24.0287 17.5384 24.0358C17.4321 24.0429 17.3256 24.024 17.2282 23.9808L16.372 23.6006L15.5148 24.4577L15.895 25.3138C15.9383 25.4112 15.9571 25.5177 15.95 25.6241C15.9429 25.7305 15.9099 25.8335 15.854 25.9243C15.5187 26.4681 15.2725 27.0619 15.1246 27.6834C15.0999 27.7871 15.0504 27.8832 14.9802 27.9634C14.9101 28.0436 14.8214 28.1056 14.7219 28.1439L13.8486 28.48V29.6922L14.7217 30.0283C14.8212 30.0666 14.9098 30.1285 14.98 30.2087C15.0501 30.2889 15.0997 30.385 15.1244 30.4887C15.2722 31.1104 15.5185 31.7044 15.8538 32.2484C15.9097 32.3391 15.9427 32.4422 15.9498 32.5485C15.957 32.6549 15.9381 32.7614 15.8948 32.8588L15.5148 33.7146L16.372 34.5717L17.2282 34.1914C17.3256 34.1482 17.4321 34.1293 17.5385 34.1364C17.6448 34.1436 17.7479 34.1765 17.8386 34.2324C18.3824 34.5676 18.9763 34.8139 19.5977 34.9618C19.7014 34.9864 19.7975 35.036 19.8778 35.1061C19.958 35.1763 20.02 35.2649 20.0582 35.3644L20.3944 36.2378H21.6067L21.9427 35.3647C21.981 35.2652 22.043 35.1765 22.1232 35.1064C22.2034 35.0362 22.2996 34.9867 22.4033 34.962C23.0249 34.8142 23.6189 34.5679 24.1628 34.2325C24.2536 34.1766 24.3566 34.1436 24.463 34.1365C24.5694 34.1293 24.676 34.1482 24.7734 34.1915L25.6291 34.5717L26.4862 33.7145L26.1059 32.8583C26.0626 32.7609 26.0438 32.6544 26.0509 32.548C26.058 32.4416 26.091 32.3386 26.1469 32.2479C26.4822 31.7041 26.7284 31.1103 26.8763 30.4888C26.901 30.3851 26.9505 30.289 27.0207 30.2088C27.0908 30.1286 27.1795 30.0666 27.279 30.0284L28.1524 29.6922ZM25.3426 29.0861C25.3426 31.4803 23.3948 33.4281 21.0006 33.4281C18.6065 33.4281 16.6587 31.4803 16.6587 29.0861C16.6587 26.6919 18.6065 24.7442 21.0006 24.7442C23.3948 24.7442 25.3426 26.692 25.3426 29.0861ZM24.0301 29.0861C24.0301 27.4157 22.6711 26.0567 21.0006 26.0567C19.3302 26.0567 17.9712 27.4156 17.9712 29.0861C17.9712 30.7565 19.3302 32.1156 21.0006 32.1156C22.6711 32.1156 24.0301 30.7565 24.0301 29.0861ZM40.2551 17.1796C40.1936 17.2481 40.1183 17.3029 40.0343 17.3403C39.9502 17.3778 39.8591 17.3972 39.7671 17.3972L26.0557 17.3973C25.9636 17.3973 25.8726 17.3779 25.7885 17.3404C25.7044 17.3029 25.6292 17.2481 25.5676 17.1797C25.5061 17.1112 25.4597 17.0305 25.4313 16.9429C25.403 16.8553 25.3934 16.7628 25.4032 16.6712C25.4609 16.1351 25.5756 15.6067 25.7454 15.095H16.256C16.4257 15.6067 16.5404 16.1351 16.5982 16.6711C16.608 16.7627 16.5984 16.8552 16.5701 16.9428C16.5417 17.0304 16.4953 17.1111 16.4337 17.1796C16.3722 17.2481 16.297 17.3028 16.2129 17.3403C16.1288 17.3778 16.0378 17.3972 15.9457 17.3972L2.23433 17.3973C2.14226 17.3973 2.05123 17.3779 1.96714 17.3404C1.88306 17.3029 1.8078 17.2481 1.74626 17.1797C1.68473 17.1112 1.63828 17.0305 1.60996 16.9429C1.58163 16.8553 1.57206 16.7628 1.58185 16.6712C1.89841 13.7128 3.88553 11.3161 6.54876 10.3692C5.57529 9.61053 4.94743 8.42822 4.94743 7.1012C4.94743 4.81687 6.80584 2.95854 9.09009 2.95854C11.3743 2.95854 13.2327 4.81687 13.2327 7.1012C13.2327 8.42822 12.6049 9.61053 11.6314 10.3692C12.5794 10.7063 13.4503 11.2299 14.1928 11.909C15.0606 10.0926 16.6009 8.7246 18.4581 8.0658C17.4852 7.30702 16.858 6.12519 16.858 4.79891C16.858 2.51459 18.7164 0.65625 21.0007 0.65625C23.2849 0.65625 25.1434 2.51459 25.1434 4.79891C25.1434 6.12519 24.5161 7.30702 23.5434 8.0658C25.4006 8.7246 26.9408 10.0926 27.8086 11.909C28.5511 11.2298 29.422 10.7063 30.3701 10.3692C29.3967 9.61045 28.7688 8.42814 28.7688 7.10112C28.7688 4.81679 30.6271 2.95846 32.9114 2.95846C35.1956 2.95846 37.054 4.81679 37.054 7.10112C37.054 8.42814 36.4262 9.61045 35.4527 10.3692C38.1159 11.316 40.1029 13.7127 40.4195 16.671C40.4293 16.7626 40.4198 16.8552 40.3914 16.9428C40.3631 17.0305 40.3167 17.1111 40.2551 17.1796ZM32.9097 9.93128H32.913C34.4729 9.93038 35.7415 8.66119 35.7415 7.1012C35.7415 5.54064 34.472 4.27104 32.9114 4.27104C31.3509 4.27104 30.0813 5.54064 30.0813 7.1012C30.0813 8.66119 31.35 9.93038 32.9097 9.93128ZM18.1705 4.79891C18.1705 6.35939 19.4401 7.62899 21.0007 7.62899C22.5613 7.62899 23.8309 6.35939 23.8309 4.79891C23.8309 3.23843 22.5613 1.96875 21.0007 1.96875C19.4401 1.96875 18.1705 3.23843 18.1705 4.79891ZM9.08828 9.93128H9.09156C10.6514 9.93038 11.9201 8.66119 11.9201 7.1012C11.9201 5.54064 10.6505 4.27104 9.08992 4.27104C7.52936 4.27104 6.25976 5.54056 6.25976 7.10112C6.25976 8.66119 7.52846 9.93038 9.08828 9.93128ZM15.1724 16.0847C15.0692 15.6314 14.9154 15.1911 14.7139 14.7722C14.6965 14.7429 14.6814 14.7123 14.6688 14.6807C14.473 14.2897 14.2364 13.9204 13.963 13.5791C13.9278 13.5449 13.8965 13.5067 13.8699 13.4654C12.7219 12.0999 11.0018 11.2443 9.09156 11.2438H9.08812C6.14082 11.2446 3.64436 13.2795 3.00739 16.0848L15.1724 16.0847ZM26.3231 13.7825C26.4786 13.5054 26.6515 13.2384 26.8407 12.9832C25.9299 10.5522 23.6251 8.94149 21.0006 8.94149C18.376 8.94149 16.0714 10.5522 15.1604 12.9832C15.3497 13.2384 15.5225 13.5054 15.678 13.7825H26.3231ZM38.9938 16.0847C38.3567 13.2795 35.8602 11.2446 32.9131 11.2438H32.9097C30.9994 11.2443 29.2793 12.1 28.1313 13.4654C28.1046 13.5067 28.0734 13.5448 28.0382 13.5791C27.7648 13.9204 27.5282 14.2897 27.3324 14.6808C27.3198 14.7124 27.3048 14.7429 27.2874 14.7721C27.0859 15.1911 26.9321 15.6314 26.8289 16.0848L38.9938 16.0847Z" fill="url(#paint0_linear_562_669)"/>
<defs>
<linearGradient id="paint0_linear_562_669" x1="21.0007" y1="0.65625" x2="21.0007" y2="41.3448" gradientUnits="userSpaceOnUse">
<stop stop-color="#FF5E01"/>
<stop offset="1" stop-color="#FF9404"/>
</linearGradient>
</defs>
</svg>
