<svg width="512" height="512" viewBox="0 0 512 512" fill="none" xmlns="http://www.w3.org/2000/svg">
<path fill-rule="evenodd" clip-rule="evenodd" d="M329.298 257.618H291.431C285.923 257.618 281.431 262.11 281.431 267.618V477.533C281.431 483.041 285.923 487.533 291.431 487.533H329.298C334.806 487.533 339.298 483.041 339.298 477.533V267.618C339.297 262.11 334.805 257.618 329.298 257.618ZM49.394 268.184H16V140.023H49.394V268.184ZM166.691 281.921C120.193 289.984 93.26 294.873 65.394 268.184L65.393 140.023C88.152 122.928 117.199 108.281 117.199 75.946V37.039C142.864 37.039 163.865 58.031 163.865 83.698V113.878C163.126 119.239 160.14 126.66 154.552 133.592H223.648C233.843 133.592 242.189 141.938 242.189 152.133C242.189 162.332 233.846 170.674 223.648 170.674H231.459C241.657 170.674 250 179.018 250.001 189.216C250 199.414 241.658 207.756 231.459 207.756H218.448C228.645 207.756 236.989 216.098 236.989 226.297C236.989 236.496 228.646 244.838 218.448 244.839H207.389C217.588 244.839 225.929 253.184 225.929 263.381C225.929 273.578 217.586 281.921 207.388 281.921H166.691ZM421.279 26.845L439.082 73.736C439.617 75.146 440.863 76.051 442.369 76.124L492.467 78.566C495.874 78.732 497.269 83.024 494.61 85.161L455.515 116.584C454.34 117.528 453.864 118.993 454.259 120.448L467.418 168.848C468.313 172.14 464.662 174.793 461.808 172.924L419.842 145.453C418.58 144.627 417.041 144.627 415.78 145.453L373.815 172.924C370.961 174.792 367.31 172.14 368.205 168.848L381.363 120.447C381.758 118.992 381.283 117.528 380.108 116.583L341.013 85.161C338.354 83.024 339.749 78.732 343.156 78.566L393.254 76.124C394.76 76.051 396.006 75.146 396.541 73.736L414.344 26.845C415.547 23.674 420.075 23.674 421.279 26.845ZM76.532 376.518H114.398C119.906 376.518 124.398 381.01 124.398 386.518V477.532C124.398 483.04 119.906 487.532 114.398 487.532H76.532C71.024 487.532 66.532 483.04 66.532 477.532V386.518C66.532 381.01 71.024 376.518 76.532 376.518ZM398.878 202.982H436.745C442.253 202.982 446.745 207.474 446.745 212.982V477.532C446.745 483.04 442.253 487.532 436.745 487.532H398.878C393.37 487.532 388.878 483.04 388.878 477.532V212.982C388.878 207.474 393.37 202.982 398.878 202.982ZM221.849 318.353H183.982C178.474 318.353 173.982 322.845 173.982 328.353V477.533C173.982 483.041 178.474 487.533 183.982 487.533H221.849C227.357 487.533 231.849 483.041 231.849 477.533V328.353C231.849 322.846 227.356 318.353 221.849 318.353Z" fill="white"/>
</svg>
