<svg width="30" height="30" viewBox="0 0 30 30" fill="none" xmlns="http://www.w3.org/2000/svg">
<path d="M14.998 1.99414C22.1704 1.99429 28.0049 7.82956 28.0049 15.002C28.0047 22.1742 22.1703 28.0086 14.998 28.0088C7.82565 28.0088 1.99039 22.1743 1.99023 15.002C1.99023 7.82947 7.82556 1.99414 14.998 1.99414ZM14.998 3.36621C8.58268 3.36621 3.3623 8.58658 3.3623 15.002C3.36246 21.4172 8.58277 26.6377 14.998 26.6377C21.4132 26.6375 26.6336 21.4171 26.6338 15.002C26.6338 8.58667 21.4133 3.36636 14.998 3.36621ZM21.0205 13.6592C21.7604 14.3992 21.7601 15.6028 21.0205 16.3438L15.874 21.4902L15.7686 21.5967L14.7988 20.627L14.9043 20.5205L19.7383 15.6875H8.41895V14.3164H19.7383L14.7988 9.37695L14.9043 9.27051L15.6621 8.5127L15.7686 8.40723L21.0205 13.6592Z" fill="white" stroke="white" stroke-width="0.3"/>
</svg>
