<svg width="512" height="512" viewBox="0 0 512 512" fill="none" xmlns="http://www.w3.org/2000/svg">
<path d="M61 15V407C61 415.291 67.709 422 76 422H346C354.291 422 361 415.291 361 407V15C361 6.709 354.291 0 346 0H76C67.709 0 61 6.709 61 15ZM301 346H241C232.709 346 226 339.291 226 331C226 322.709 232.709 316 241 316H301C309.291 316 316 322.709 316 331C316 339.291 309.291 346 301 346ZM121 76H211C219.291 76 226 82.709 226 91C226 99.291 219.291 106 211 106H121C112.709 106 106 99.291 106 91C106 82.709 112.709 76 121 76ZM121 136H301C309.291 136 316 142.709 316 151C316 159.291 309.291 166 301 166H121C112.709 166 106 159.291 106 151C106 142.709 112.709 136 121 136ZM121 196H301C309.291 196 316 202.709 316 211C316 219.291 309.291 226 301 226H121C112.709 226 106 219.291 106 211C106 202.709 112.709 196 121 196ZM121 256H301C309.291 256 316 262.709 316 271C316 279.291 309.291 286 301 286H121C112.709 286 106 279.291 106 271C106 262.709 112.709 256 121 256Z" fill="black"/>
<path d="M166 512H436C444.291 512 451 505.291 451 497V106C451 97.709 444.291 91 436 91H391V407C391 431.814 370.814 452 346 452H151V497C151 505.291 157.709 512 166 512Z" fill="black"/>
</svg>
