<svg width="70" height="70" viewBox="0 0 70 70" fill="none" xmlns="http://www.w3.org/2000/svg">
<circle cx="34.9946" cy="34.9946" r="34.9946" fill="url(#paint0_linear_977_3084)"/>
<path d="M21.6602 44.3197V29.0564C21.6602 27.1319 21.6602 26.1696 21.9846 25.4141C22.3891 24.4723 23.14 23.7216 24.0821 23.3172C24.8378 22.9929 25.7909 22.9929 27.7255 22.9929H28.3843C29.1911 22.9929 29.9545 23.3581 30.4607 23.9861L32.8835 26.9917M32.8835 26.9917H40.3268C42.1936 26.9917 43.1271 26.9917 43.8402 27.3549C44.4674 27.6744 44.9772 28.1841 45.2968 28.8112C45.6602 29.524 45.6602 30.4571 45.6602 32.3234V33.6563M32.8835 26.9917H28.3268" stroke="white" stroke-width="2.1" stroke-linecap="round" stroke-linejoin="round"/>
<path d="M23.2042 39.6736L23.6021 38.6836C24.5805 36.2487 25.0698 35.0313 26.09 34.3438C27.1102 33.6563 28.4276 33.6562 31.0622 33.6562H41.8094C45.394 33.6562 47.1863 33.6563 47.9831 34.8275C48.7798 35.9989 48.1142 37.6553 46.7828 40.9681L46.385 41.9581C45.4064 44.3931 44.9172 45.6104 43.897 46.298C42.8767 46.9855 41.5594 46.9855 38.9247 46.9855H28.1776C24.593 46.9855 22.8006 46.9855 22.0039 45.8142C21.2072 44.6429 21.8729 42.9864 23.2042 39.6736Z" stroke="white" stroke-width="2.1" stroke-linecap="round" stroke-linejoin="round"/>
<defs>
<linearGradient id="paint0_linear_977_3084" x1="34.9946" y1="0" x2="34.9946" y2="69.9892" gradientUnits="userSpaceOnUse">
<stop stop-color="#FF5E01"/>
<stop offset="1" stop-color="#FF9404"/>
</linearGradient>
</defs>
</svg>
