<svg width="512" height="512" viewBox="0 0 512 512" fill="none" xmlns="http://www.w3.org/2000/svg">
<path d="M245.333 261.205C310.135 261.205 362.667 208.673 362.667 143.872C362.667 79.0705 310.135 26.5386 245.333 26.5386C180.532 26.5386 128 79.0705 128 143.872C128 208.673 180.532 261.205 245.333 261.205Z" fill="black"/>
<path fill-rule="evenodd" clip-rule="evenodd" d="M373.333 297.344C353.559 297.918 334.786 306.177 321.002 320.367C307.218 334.557 299.507 353.561 299.507 373.344C299.507 393.127 307.218 412.131 321.002 426.321C334.786 440.511 353.559 448.77 373.333 449.344C415.275 449.344 449.344 415.275 449.344 373.333C449.344 331.392 415.275 297.344 373.333 297.344ZM373.333 329.344C397.611 329.344 417.344 349.056 417.344 373.333C417.344 397.611 397.611 417.344 373.333 417.344C349.056 417.344 329.323 397.611 329.323 373.333C329.323 349.056 349.056 329.344 373.333 329.344Z" fill="black"/>
<path fill-rule="evenodd" clip-rule="evenodd" d="M389.333 313.323V277.333C389.333 273.09 387.648 269.02 384.647 266.02C381.647 263.019 377.577 261.333 373.333 261.333C369.09 261.333 365.02 263.019 362.02 266.02C359.019 269.02 357.333 273.09 357.333 277.333V313.344C357.336 317.587 359.025 321.656 362.027 324.655C365.03 327.653 369.101 329.336 373.344 329.333C377.588 329.33 381.656 327.642 384.655 324.639C387.653 321.637 389.336 317.566 389.333 313.323ZM427.072 342.229L452.523 316.757C455.521 313.759 457.206 309.691 457.206 305.451C457.206 301.21 455.521 297.143 452.523 294.144C449.524 291.145 445.457 289.461 441.216 289.461C436.975 289.461 432.908 291.145 429.909 294.144L404.437 319.595C401.445 322.601 399.765 326.67 399.765 330.912C399.765 335.154 401.445 339.223 404.437 342.229C407.444 345.222 411.513 346.902 415.755 346.902C419.997 346.902 424.066 345.222 427.072 342.229ZM433.323 389.333H469.333C473.577 389.333 477.647 387.648 480.647 384.647C483.648 381.646 485.333 377.577 485.333 373.333C485.333 369.09 483.648 365.02 480.647 362.02C477.647 359.019 473.577 357.333 469.333 357.333H433.323C429.079 357.333 425.01 359.019 422.009 362.02C419.008 365.02 417.323 369.09 417.323 373.333C417.323 377.577 419.008 381.646 422.009 384.647C425.01 387.648 429.079 389.333 433.323 389.333ZM404.437 427.072L429.909 452.523C431.394 454.007 433.157 455.185 435.097 455.989C437.037 456.792 439.116 457.206 441.216 457.206C443.316 457.206 445.395 456.792 447.335 455.989C449.275 455.185 451.038 454.007 452.523 452.523C454.008 451.038 455.185 449.275 455.989 447.335C456.793 445.395 457.206 443.316 457.206 441.216C457.206 439.116 456.793 437.037 455.989 435.097C455.185 433.157 454.008 431.394 452.523 429.909L427.072 404.437C424.066 401.445 419.997 399.765 415.755 399.765C411.513 399.765 407.444 401.445 404.437 404.437C401.445 407.444 399.765 411.513 399.765 415.755C399.765 419.996 401.445 424.066 404.437 427.072ZM357.333 433.323V469.333C357.333 473.577 359.019 477.646 362.02 480.647C365.02 483.648 369.09 485.333 373.333 485.333C377.577 485.333 381.647 483.648 384.647 480.647C387.648 477.646 389.333 473.577 389.333 469.333V433.323C389.333 429.079 387.648 425.009 384.647 422.009C381.647 419.008 377.577 417.323 373.333 417.323C369.09 417.323 365.02 419.008 362.02 422.009C359.019 425.009 357.333 429.079 357.333 433.323ZM319.595 404.437L294.144 429.909C292.659 431.394 291.481 433.157 290.678 435.097C289.874 437.037 289.461 439.116 289.461 441.216C289.461 443.316 289.874 445.395 290.678 447.335C291.481 449.275 292.659 451.038 294.144 452.523C295.629 454.007 297.392 455.185 299.332 455.989C301.272 456.792 303.351 457.206 305.451 457.206C307.551 457.206 309.63 456.792 311.57 455.989C313.51 455.185 315.273 454.007 316.757 452.523L342.229 427.072C345.222 424.066 346.902 419.996 346.902 415.755C346.902 411.513 345.222 407.444 342.229 404.437C339.223 401.445 335.154 399.765 330.912 399.765C326.67 399.765 322.601 401.445 319.595 404.437ZM313.323 357.333H277.333C273.09 357.333 269.02 359.019 266.02 362.02C263.019 365.02 261.333 369.09 261.333 373.333C261.333 377.577 263.019 381.646 266.02 384.647C269.02 387.648 273.09 389.333 277.333 389.333H313.323C317.566 389.333 321.636 387.648 324.636 384.647C327.637 381.646 329.323 377.577 329.323 373.333C329.323 369.09 327.637 365.02 324.636 362.02C321.636 359.019 317.566 357.333 313.323 357.333ZM342.229 319.595L316.757 294.144C315.273 292.659 313.51 291.481 311.57 290.678C309.63 289.874 307.551 289.461 305.451 289.461C303.351 289.461 301.272 289.874 299.332 290.678C297.392 291.481 295.629 292.659 294.144 294.144C292.659 295.629 291.481 297.391 290.678 299.331C289.874 301.271 289.461 303.351 289.461 305.451C289.461 307.55 289.874 309.63 290.678 311.57C291.481 313.51 292.659 315.272 294.144 316.757L319.595 342.229C322.601 345.222 326.67 346.902 330.912 346.902C335.154 346.902 339.223 345.222 342.229 342.229C345.222 339.223 346.902 335.154 346.902 330.912C346.902 326.67 345.222 322.601 342.229 319.595Z" fill="black"/>
<path fill-rule="evenodd" clip-rule="evenodd" d="M275.968 464.128C270.394 456.942 267.632 447.969 268.202 438.893C268.771 429.816 272.633 421.259 279.061 414.826L283.2 410.666H277.333C267.432 410.666 257.936 406.733 250.935 399.732C243.933 392.73 240 383.235 240 373.333C240 363.432 243.933 353.936 250.935 346.935C257.936 339.933 267.432 336 277.333 336H283.2L279.061 331.84C272.362 325.137 268.462 316.137 268.153 306.665C267.844 297.192 271.149 287.957 277.397 280.832C266.729 280.006 256.033 279.593 245.333 279.594C174.464 279.594 111.723 297.322 72.768 323.882C43.0507 344.149 26.6667 369.899 26.6667 396.928V427.861C26.6583 432.626 27.5906 437.346 29.4101 441.75C31.2297 446.154 33.9008 450.155 37.2701 453.524C40.6395 456.894 44.6408 459.565 49.0447 461.384C53.4486 463.204 58.1684 464.136 62.9334 464.128H275.968Z" fill="black"/>
</svg>
