<svg width="132" height="74" viewBox="0 0 132 74" fill="none" xmlns="http://www.w3.org/2000/svg">
<path d="M18.6 68.7L18.1755 69.3183L18.1818 69.3226L18.6 68.7ZM8.3 56L7.61326 56.3015L7.61464 56.3046L8.3 56ZM8.3 18.1L8.98537 18.4046L8.98673 18.4015L8.3 18.1ZM18.6 5.4L19.0182 6.02264L19.0245 6.0183L18.6 5.4ZM50.5 5.4L50.0711 6.01539L50.0818 6.0226L50.5 5.4ZM60.7 18.1L60.0101 18.3945L60.0146 18.4046L60.7 18.1ZM60.7 56L60.0133 55.6985L60.0115 55.7025L60.7 56ZM50.5 68.7L50.9225 69.3197L50.9245 69.3183L50.5 68.7ZM44.6 61L44.1565 60.3952L44.15 60.4L44.6 61ZM51.6 51.6L52.294 51.8844L51.6 51.6ZM51.6 22.4L52.294 22.1156L51.6 22.4ZM44.6 13.1L44.15 13.7L44.1576 13.7057L44.1654 13.7112L44.6 13.1ZM24.4 13.1L24.8347 13.7113L24.8435 13.7048L24.4 13.1ZM17.4 22.4L18.094 22.6844H18.094L17.4 22.4ZM17.4 51.6L16.706 51.8844L17.4 51.6ZM24.4 61L24.8435 60.3952L24.4 61ZM34.6 73.2V72.45C28.5256 72.45 23.3431 70.9822 19.0182 68.0774L18.6 68.7L18.1818 69.3226C22.7902 72.4178 28.2744 73.95 34.6 73.95V73.2ZM18.6 68.7L19.0245 68.0817C14.6824 65.1005 11.3344 60.9806 8.98536 55.6954L8.3 56L7.61464 56.3046C10.0656 61.8194 13.5843 66.1661 18.1755 69.3183L18.6 68.7ZM8.3 56L8.98673 55.6985C6.63613 50.3443 5.45 44.1172 5.45 37H4.7H3.95C3.95 44.2828 5.16387 50.7223 7.61327 56.3015L8.3 56ZM4.7 37H5.45C5.45 29.8825 6.63622 23.6902 8.98536 18.4046L8.3 18.1L7.61464 17.7954C5.16378 23.3098 3.95 29.7175 3.95 37H4.7ZM8.3 18.1L8.98673 18.4015C11.336 13.0504 14.6824 8.93469 19.0182 6.0226L18.6 5.4L18.1818 4.77739C13.5843 7.86531 10.064 12.2162 7.61327 17.7985L8.3 18.1ZM18.6 5.4L19.0245 6.0183C23.3488 3.04937 28.529 1.55 34.6 1.55V0.799999V0.0499988C28.271 0.0499988 22.7845 1.61729 18.1755 4.7817L18.6 5.4ZM34.6 0.799999V1.55C40.6713 1.55 45.8158 3.04945 50.0712 6.0153L50.5 5.4L50.9288 4.7847C46.3842 1.61722 40.9287 0.0499988 34.6 0.0499988V0.799999ZM50.5 5.4L50.0818 6.0226C54.4157 8.93341 57.7276 13.0466 60.0102 18.3944L60.7 18.1L61.3898 17.8056C59.0057 12.22 55.5176 7.86658 50.9182 4.77739L50.5 5.4ZM60.7 18.1L60.0146 18.4046C62.3638 23.6902 63.55 29.8825 63.55 37H64.3H65.05C65.05 29.7175 63.8362 23.3098 61.3854 17.7954L60.7 18.1ZM64.3 37H63.55C63.55 44.1172 62.3639 50.3443 60.0133 55.6985L60.7 56L61.3867 56.3015C63.8361 50.7223 65.05 44.2828 65.05 37H64.3ZM60.7 56L60.0115 55.7025C57.7292 60.9844 54.4158 65.1018 50.0755 68.0817L50.5 68.7L50.9245 69.3183C55.5176 66.1649 59.0041 61.8156 61.3885 56.2975L60.7 56ZM50.5 68.7L50.0775 68.0803C45.8215 70.9821 40.6747 72.45 34.6 72.45V73.2V73.95C40.9253 73.95 46.3785 72.4179 50.9225 69.3197L50.5 68.7ZM34.6 64.3V65.05C38.4924 65.05 41.9843 63.8993 45.05 61.6L44.6 61L44.15 60.4C41.349 62.5007 38.1742 63.55 34.6 63.55V64.3ZM44.6 61L45.0435 61.6048C48.1737 59.3093 50.5845 56.0555 52.294 51.8844L51.6 51.6L50.906 51.3156C49.2821 55.2779 47.0263 58.2907 44.1565 60.3952L44.6 61ZM51.6 51.6L52.294 51.8844C54.0066 47.7055 54.85 42.7372 54.85 37H54.1H53.35C53.35 42.5961 52.5267 47.3612 50.906 51.3156L51.6 51.6ZM54.1 37H54.85C54.85 31.2628 54.0066 26.2945 52.294 22.1156L51.6 22.4L50.906 22.6844C52.5267 26.6388 53.35 31.4039 53.35 37H54.1ZM51.6 22.4L52.294 22.1156C50.5841 17.9434 48.171 14.7191 45.0346 12.4888L44.6 13.1L44.1654 13.7112C47.029 15.7476 49.2826 18.7233 50.906 22.6844L51.6 22.4ZM44.6 13.1L45.05 12.5C41.9843 10.2007 38.4924 9.05 34.6 9.05V9.8V10.55C38.1742 10.55 41.349 11.5993 44.15 13.7L44.6 13.1ZM34.6 9.8V9.05C30.6442 9.05 27.088 10.1987 23.9565 12.4952L24.4 13.1L24.8435 13.7048C27.712 11.6013 30.9558 10.55 34.6 10.55V9.8ZM24.4 13.1L23.9654 12.4888C20.829 14.7191 18.4159 17.9434 16.706 22.1156L17.4 22.4L18.094 22.6844C19.7174 18.7233 21.971 15.7476 24.8346 13.7112L24.4 13.1ZM17.4 22.4L16.706 22.1156C14.9934 26.2945 14.15 31.2628 14.15 37H14.9H15.65C15.65 31.4039 16.4733 26.6388 18.094 22.6844L17.4 22.4ZM14.9 37H14.15C14.15 42.7372 14.9934 47.7055 16.706 51.8844L17.4 51.6L18.094 51.3156C16.4733 47.3612 15.65 42.5961 15.65 37H14.9ZM17.4 51.6L16.706 51.8844C18.4155 56.0555 20.8263 59.3093 23.9565 61.6048L24.4 61L24.8435 60.3952C21.9737 58.2907 19.7179 55.2779 18.094 51.3156L17.4 51.6ZM24.4 61L23.9565 61.6048C27.088 63.9013 30.6442 65.05 34.6 65.05V64.3V63.55C30.9558 63.55 27.712 62.4987 24.8435 60.3952L24.4 61ZM108.143 72H107.393V72.75H108.143V72ZM108.143 57.7H108.893V56.95H108.143V57.7ZM73.043 57.7H72.293V58.45H73.043V57.7ZM73.043 49.9L72.4284 49.4702L72.293 49.6638V49.9H73.043ZM106.543 2V1.25H106.152L105.928 1.57016L106.543 2ZM118.043 2H118.793V1.25H118.043V2ZM118.043 49H117.293V49.75H118.043V49ZM128.043 49H128.793V48.25H128.043V49ZM128.043 57.7V58.45H128.793V57.7H128.043ZM118.043 57.7V56.95H117.293V57.7H118.043ZM118.043 72V72.75H118.793V72H118.043ZM83.943 49L83.3253 48.5745L82.5156 49.75H83.943V49ZM108.743 49V49.75H109.493V49H108.743ZM108.743 13H109.493V10.5892L108.125 12.5745L108.743 13ZM108.143 72H108.893V57.7H108.143H107.393V72H108.143ZM108.143 57.7V56.95H73.043V57.7V58.45H108.143V57.7ZM73.043 57.7H73.793V49.9H73.043H72.293V57.7H73.043ZM73.043 49.9L73.6576 50.3298L107.158 2.42983L106.543 2L105.928 1.57016L72.4284 49.4702L73.043 49.9ZM106.543 2V2.75H118.043V2V1.25H106.543V2ZM118.043 2H117.293V49H118.043H118.793V2H118.043ZM118.043 49V49.75H128.043V49V48.25H118.043V49ZM128.043 49H127.293V57.7H128.043H128.793V49H128.043ZM128.043 57.7V56.95H118.043V57.7V58.45H128.043V57.7ZM118.043 57.7H117.293V72H118.043H118.793V57.7H118.043ZM118.043 72V71.25H108.143V72V72.75H118.043V72ZM83.943 49V49.75H108.743V49V48.25H83.943V49ZM108.743 49H109.493V13H108.743H107.993V49H108.743ZM108.743 13L108.125 12.5745L83.3253 48.5745L83.943 49L84.5606 49.4255L109.361 13.4255L108.743 13Z" fill="url(#paint0_linear_280_290)" fill-opacity="0.5"/>
<rect x="10" y="28" width="39" height="19" fill="#FFF2E6"/>
<path d="M16.1118 43.192C15.2904 43.192 14.5758 43.0427 13.9678 42.744C13.3598 42.4453 12.8904 42.0293 12.5598 41.496C12.2291 40.9627 12.0638 40.344 12.0638 39.64H13.4718C13.4718 40.0773 13.5731 40.4827 13.7758 40.856C13.9784 41.2187 14.2718 41.512 14.6558 41.736C15.0504 41.9493 15.5358 42.056 16.1118 42.056C16.6131 42.056 17.0398 41.976 17.3918 41.816C17.7544 41.6453 18.0264 41.416 18.2078 41.128C18.3998 40.84 18.4958 40.5147 18.4958 40.152C18.4958 39.7147 18.3998 39.3627 18.2078 39.096C18.0264 38.8187 17.7758 38.5947 17.4558 38.424C17.1358 38.2533 16.7624 38.104 16.3358 37.976C15.9198 37.8373 15.4824 37.6933 15.0238 37.544C14.1384 37.2453 13.4878 36.872 13.0718 36.424C12.6558 35.976 12.4478 35.3947 12.4478 34.68C12.4478 34.072 12.5864 33.5387 12.8638 33.08C13.1518 32.6213 13.5571 32.264 14.0798 32.008C14.6131 31.7413 15.2424 31.608 15.9678 31.608C16.6824 31.608 17.3011 31.7413 17.8238 32.008C18.3571 32.2747 18.7731 32.6427 19.0718 33.112C19.3704 33.5707 19.5198 34.104 19.5198 34.712H18.1118C18.1118 34.4027 18.0318 34.0987 17.8718 33.8C17.7118 33.5013 17.4664 33.256 17.1358 33.064C16.8158 32.8613 16.4104 32.76 15.9198 32.76C15.5144 32.7493 15.1518 32.8187 14.8318 32.968C14.5224 33.1067 14.2771 33.3093 14.0958 33.576C13.9251 33.8427 13.8398 34.168 13.8398 34.552C13.8398 34.9147 13.9144 35.208 14.0638 35.432C14.2238 35.656 14.4478 35.848 14.7358 36.008C15.0344 36.1573 15.3811 36.296 15.7758 36.424C16.1704 36.552 16.6078 36.696 17.0878 36.856C17.6318 37.0373 18.1118 37.2613 18.5278 37.528C18.9544 37.784 19.2851 38.1147 19.5198 38.52C19.7651 38.9253 19.8878 39.4427 19.8878 40.072C19.8878 40.6053 19.7438 41.112 19.4558 41.592C19.1784 42.0613 18.7624 42.4453 18.2078 42.744C17.6531 43.0427 16.9544 43.192 16.1118 43.192ZM24.1834 43V32.904H20.8394V31.8H28.8714V32.904H25.5274V43H24.1834ZM30.5281 43V31.8H37.4561V32.904H31.8721V36.808H36.9761V37.896H31.8721V41.896H37.4561V43H30.5281ZM39.575 43V31.8H43.223C44.1083 31.8 44.8337 31.9493 45.399 32.248C45.975 32.536 46.3963 32.9253 46.663 33.416C46.9403 33.9067 47.079 34.4667 47.079 35.096C47.079 35.704 46.9403 36.2587 46.663 36.76C46.3963 37.2507 45.9803 37.6453 45.415 37.944C44.8497 38.2427 44.119 38.392 43.223 38.392H40.919V43H39.575ZM40.919 37.256H43.207C44.103 37.256 44.743 37.0587 45.127 36.664C45.511 36.2693 45.703 35.7467 45.703 35.096C45.703 34.4027 45.511 33.8693 45.127 33.496C44.743 33.112 44.103 32.92 43.207 32.92H40.919V37.256Z" fill="#132436"/>
<defs>
<linearGradient id="paint0_linear_280_290" x1="0" y1="37" x2="132" y2="37" gradientUnits="userSpaceOnUse">
<stop stop-color="#FF5F01"/>
<stop offset="1" stop-color="#FF9404"/>
</linearGradient>
</defs>
</svg>
