<svg width="129" height="74" viewBox="0 0 129 74" fill="none" xmlns="http://www.w3.org/2000/svg">
<path d="M18.6 68.7L18.1755 69.3183L18.1818 69.3226L18.6 68.7ZM8.3 56L7.61326 56.3015L7.61464 56.3046L8.3 56ZM8.3 18.1L8.98537 18.4046L8.98673 18.4015L8.3 18.1ZM18.6 5.4L19.0182 6.02264L19.0245 6.0183L18.6 5.4ZM50.5 5.4L50.0711 6.01539L50.0818 6.0226L50.5 5.4ZM60.7 18.1L60.0101 18.3945L60.0146 18.4046L60.7 18.1ZM60.7 56L60.0133 55.6985L60.0115 55.7025L60.7 56ZM50.5 68.7L50.9225 69.3197L50.9245 69.3183L50.5 68.7ZM44.6 61L44.1565 60.3952L44.15 60.4L44.6 61ZM51.6 51.6L52.294 51.8844L51.6 51.6ZM51.6 22.4L52.294 22.1156L51.6 22.4ZM44.6 13.1L44.15 13.7L44.1576 13.7057L44.1654 13.7112L44.6 13.1ZM24.4 13.1L24.8347 13.7113L24.8435 13.7048L24.4 13.1ZM17.4 22.4L18.094 22.6844H18.094L17.4 22.4ZM17.4 51.6L16.706 51.8844L17.4 51.6ZM24.4 61L24.8435 60.3952L24.4 61ZM34.6 73.2V72.45C28.5256 72.45 23.3431 70.9822 19.0182 68.0774L18.6 68.7L18.1818 69.3226C22.7902 72.4178 28.2744 73.95 34.6 73.95V73.2ZM18.6 68.7L19.0245 68.0817C14.6824 65.1005 11.3344 60.9806 8.98536 55.6954L8.3 56L7.61464 56.3046C10.0656 61.8194 13.5843 66.1661 18.1755 69.3183L18.6 68.7ZM8.3 56L8.98673 55.6985C6.63613 50.3443 5.45 44.1172 5.45 37H4.7H3.95C3.95 44.2828 5.16387 50.7223 7.61327 56.3015L8.3 56ZM4.7 37H5.45C5.45 29.8825 6.63622 23.6902 8.98536 18.4046L8.3 18.1L7.61464 17.7954C5.16378 23.3098 3.95 29.7175 3.95 37H4.7ZM8.3 18.1L8.98673 18.4015C11.336 13.0504 14.6824 8.93469 19.0182 6.0226L18.6 5.4L18.1818 4.77739C13.5843 7.86531 10.064 12.2162 7.61327 17.7985L8.3 18.1ZM18.6 5.4L19.0245 6.0183C23.3488 3.04937 28.529 1.55 34.6 1.55V0.799999V0.0499988C28.271 0.0499988 22.7845 1.61729 18.1755 4.7817L18.6 5.4ZM34.6 0.799999V1.55C40.6713 1.55 45.8158 3.04945 50.0712 6.0153L50.5 5.4L50.9288 4.7847C46.3842 1.61722 40.9287 0.0499988 34.6 0.0499988V0.799999ZM50.5 5.4L50.0818 6.0226C54.4157 8.93341 57.7276 13.0466 60.0102 18.3944L60.7 18.1L61.3898 17.8056C59.0057 12.22 55.5176 7.86658 50.9182 4.77739L50.5 5.4ZM60.7 18.1L60.0146 18.4046C62.3638 23.6902 63.55 29.8825 63.55 37H64.3H65.05C65.05 29.7175 63.8362 23.3098 61.3854 17.7954L60.7 18.1ZM64.3 37H63.55C63.55 44.1172 62.3639 50.3443 60.0133 55.6985L60.7 56L61.3867 56.3015C63.8361 50.7223 65.05 44.2828 65.05 37H64.3ZM60.7 56L60.0115 55.7025C57.7292 60.9844 54.4158 65.1018 50.0755 68.0817L50.5 68.7L50.9245 69.3183C55.5176 66.1649 59.0041 61.8156 61.3885 56.2975L60.7 56ZM50.5 68.7L50.0775 68.0803C45.8215 70.9821 40.6747 72.45 34.6 72.45V73.2V73.95C40.9253 73.95 46.3785 72.4179 50.9225 69.3197L50.5 68.7ZM34.6 64.3V65.05C38.4924 65.05 41.9843 63.8993 45.05 61.6L44.6 61L44.15 60.4C41.349 62.5007 38.1742 63.55 34.6 63.55V64.3ZM44.6 61L45.0435 61.6048C48.1737 59.3093 50.5845 56.0555 52.294 51.8844L51.6 51.6L50.906 51.3156C49.2821 55.2779 47.0263 58.2907 44.1565 60.3952L44.6 61ZM51.6 51.6L52.294 51.8844C54.0066 47.7055 54.85 42.7372 54.85 37H54.1H53.35C53.35 42.5961 52.5267 47.3612 50.906 51.3156L51.6 51.6ZM54.1 37H54.85C54.85 31.2628 54.0066 26.2945 52.294 22.1156L51.6 22.4L50.906 22.6844C52.5267 26.6388 53.35 31.4039 53.35 37H54.1ZM51.6 22.4L52.294 22.1156C50.5841 17.9434 48.171 14.7191 45.0346 12.4888L44.6 13.1L44.1654 13.7112C47.029 15.7476 49.2826 18.7233 50.906 22.6844L51.6 22.4ZM44.6 13.1L45.05 12.5C41.9843 10.2007 38.4924 9.05 34.6 9.05V9.8V10.55C38.1742 10.55 41.349 11.5993 44.15 13.7L44.6 13.1ZM34.6 9.8V9.05C30.6442 9.05 27.088 10.1987 23.9565 12.4952L24.4 13.1L24.8435 13.7048C27.712 11.6013 30.9558 10.55 34.6 10.55V9.8ZM24.4 13.1L23.9654 12.4888C20.829 14.7191 18.4159 17.9434 16.706 22.1156L17.4 22.4L18.094 22.6844C19.7174 18.7233 21.971 15.7476 24.8346 13.7112L24.4 13.1ZM17.4 22.4L16.706 22.1156C14.9934 26.2945 14.15 31.2628 14.15 37H14.9H15.65C15.65 31.4039 16.4733 26.6388 18.094 22.6844L17.4 22.4ZM14.9 37H14.15C14.15 42.7372 14.9934 47.7055 16.706 51.8844L17.4 51.6L18.094 51.3156C16.4733 47.3612 15.65 42.5961 15.65 37H14.9ZM17.4 51.6L16.706 51.8844C18.4155 56.0555 20.8263 59.3093 23.9565 61.6048L24.4 61L24.8435 60.3952C21.9737 58.2907 19.7179 55.2779 18.094 51.3156L17.4 51.6ZM24.4 61L23.9565 61.6048C27.088 63.9013 30.6442 65.05 34.6 65.05V64.3V63.55C30.9558 63.55 27.712 62.4987 24.8435 60.3952L24.4 61ZM86.243 70.8L85.9326 71.4828L85.94 71.4861L85.9475 71.4894L86.243 70.8ZM77.443 63.4L76.8113 63.8043L76.816 63.8117L76.8209 63.819L77.443 63.4ZM74.043 50.9V50.15H73.2727L73.2932 50.92L74.043 50.9ZM84.043 50.9L84.7927 50.8803L84.7735 50.15H84.043V50.9ZM85.843 57.8L86.5006 57.4394L85.843 57.8ZM90.743 62.8L90.3601 63.4449L90.3718 63.4519L90.3838 63.4584L90.743 62.8ZM106.043 62.9L105.682 62.2423L105.673 62.2475L106.043 62.9ZM110.643 58.3L109.986 57.9377L109.981 57.9465L109.977 57.9554L110.643 58.3ZM110.043 44.5L109.443 44.95L109.448 44.9567L109.453 44.9634L110.043 44.5ZM104.243 40.3L103.971 40.999L103.978 41.0015L104.243 40.3ZM90.943 38.9H90.193V39.65H90.943V38.9ZM90.943 30.5V29.75H90.193V30.5H90.943ZM106.143 27.6L105.688 27.0037L105.68 27.0097L106.143 27.6ZM107.043 12.2L107.564 11.6604L107.043 12.2ZM89.643 12.6L89.1208 12.0615L89.1126 12.0697L89.643 12.6ZM86.043 20.7V21.45H86.7342L86.7905 20.761L86.043 20.7ZM76.143 20.7L75.3939 20.6619L75.3539 21.45H76.143V20.7ZM79.243 10.3L78.6085 9.90001L78.6062 9.90377L79.243 10.3ZM87.043 3.3L87.3729 3.97357L87.3784 3.97082L87.043 3.3ZM110.243 3.3L109.891 3.96215L109.899 3.96659L109.908 3.97082L110.243 3.3ZM117.443 9.8L116.796 10.1789L116.803 10.1905L117.443 9.8ZM118.543 25.7L119.227 26.0087L119.23 26.0006L118.543 25.7ZM114.543 31.1L114.046 30.5383H114.046L114.543 31.1ZM108.243 34.4L108.047 33.676L108.096 35.1354L108.243 34.4ZM120.443 43.5L119.769 43.8281L119.772 43.8354L120.443 43.5ZM119.543 62.5L120.197 62.8677L120.2 62.862L119.543 62.5ZM111.543 70.3L111.908 70.955L111.912 70.9527L111.543 70.3ZM98.543 73.2V72.45C94.1677 72.45 90.1695 71.6668 86.5384 70.1106L86.243 70.8L85.9475 71.4894C89.7831 73.1332 93.9849 73.95 98.543 73.95V73.2ZM86.243 70.8L86.5533 70.1172C83.0099 68.5066 80.1857 66.1299 78.065 62.981L77.443 63.4L76.8209 63.819C79.1002 67.2034 82.1427 69.7601 85.9326 71.4828L86.243 70.8ZM77.443 63.4L78.0747 62.9957C76.032 59.804 74.9233 55.7791 74.7927 50.88L74.043 50.9L73.2932 50.92C73.4293 56.0209 74.5873 60.3293 76.8113 63.8043L77.443 63.4ZM74.043 50.9V51.65H84.043V50.9V50.15H74.043V50.9ZM84.043 50.9L83.2932 50.9197C83.3628 53.5632 83.9904 55.9815 85.1854 58.1606L85.843 57.8L86.5006 57.4394C85.4289 55.4852 84.8565 53.3034 84.7927 50.8803L84.043 50.9ZM85.843 57.8L85.1854 58.1606C86.3866 60.3512 88.1177 62.1135 90.3601 63.4449L90.743 62.8L91.1259 62.1551C89.1016 60.9532 87.566 59.3821 86.5006 57.4394L85.843 57.8ZM90.743 62.8L90.3838 63.4584C92.7138 64.7293 95.4421 65.35 98.543 65.35V64.6V63.85C95.6438 63.85 93.1721 63.2707 91.1021 62.1416L90.743 62.8ZM98.543 64.6V65.35C101.634 65.35 104.271 64.7663 106.413 63.5525L106.043 62.9L105.673 62.2475C103.815 63.3003 101.452 63.85 98.543 63.85V64.6ZM106.043 62.9L106.404 63.5576C108.59 62.3588 110.235 60.7213 111.309 58.6446L110.643 58.3L109.977 57.9554C109.051 59.7453 107.63 61.1745 105.682 62.2424L106.043 62.9ZM110.643 58.3L111.3 58.6623C112.433 56.6085 112.993 54.3154 112.993 51.8H112.243H111.493C111.493 54.0846 110.987 56.1248 109.986 57.9377L110.643 58.3ZM112.243 51.8H112.993C112.993 48.677 112.228 46.067 110.633 44.0366L110.043 44.5L109.453 44.9634C110.791 46.6663 111.493 48.923 111.493 51.8H112.243ZM110.043 44.5L110.643 44.05C109.147 42.0551 107.09 40.5755 104.508 39.5985L104.243 40.3L103.978 41.0015C106.329 41.8912 108.139 43.2116 109.443 44.95L110.043 44.5ZM104.243 40.3L104.515 39.601C102.015 38.6289 99.2209 38.15 96.143 38.15V38.9V39.65C99.0651 39.65 101.671 40.1044 103.971 40.999L104.243 40.3ZM96.143 38.9V38.15H90.943V38.9V39.65H96.143V38.9ZM90.943 38.9H91.693V30.5H90.943H90.193V38.9H90.943ZM90.943 30.5V31.25H96.143V30.5V29.75H90.943V30.5ZM96.143 30.5V31.25C100.454 31.25 103.968 30.2574 106.606 28.1903L106.143 27.6L105.68 27.0097C103.384 28.8092 100.232 29.75 96.143 29.75V30.5ZM106.143 27.6L106.598 28.1962C109.339 26.1042 110.693 23.138 110.693 19.4H109.943H109.193C109.193 22.7287 108.013 25.2291 105.688 27.0038L106.143 27.6ZM109.943 19.4H110.693C110.693 16.2838 109.658 13.6821 107.564 11.6604L107.043 12.2L106.522 12.7395C108.295 14.4512 109.193 16.6495 109.193 19.4H109.943ZM107.043 12.2L107.564 11.6604C105.444 9.61359 102.394 8.65 98.543 8.65V9.4V10.15C102.159 10.15 104.775 11.0531 106.522 12.7395L107.043 12.2ZM98.543 9.4V8.65C94.6598 8.65 91.4901 9.76409 89.1209 12.0616L89.643 12.6L90.1651 13.1384C92.1958 11.1692 94.9595 10.15 98.543 10.15V9.4ZM89.643 12.6L89.1126 12.0697C86.8424 14.34 85.5752 17.2115 85.2955 20.639L86.043 20.7L86.7905 20.761C87.044 17.6551 88.1769 15.1267 90.1733 13.1303L89.643 12.6ZM86.043 20.7V19.95H76.143V20.7V21.45H86.043V20.7ZM76.143 20.7L76.892 20.7381C77.0863 16.9169 78.0877 13.5763 79.8798 10.6962L79.243 10.3L78.6062 9.90377C76.6649 13.0237 75.5996 16.6165 75.3939 20.6619L76.143 20.7ZM79.243 10.3L79.8774 10.7C81.7363 7.75139 84.2307 5.51258 87.3729 3.97354L87.043 3.3L86.7131 2.62645C83.3219 4.28741 80.6163 6.71527 78.6085 9.90002L79.243 10.3ZM87.043 3.3L87.3784 3.97082C90.5919 2.36408 94.3071 1.55 98.543 1.55V0.799999V0.0499988C94.1121 0.0499988 90.1607 0.902585 86.7076 2.62918L87.043 3.3ZM98.543 0.799999V1.55C103.124 1.55 106.895 2.36846 109.891 3.96215L110.243 3.3L110.595 2.63784C107.325 0.8982 103.295 0.0499988 98.543 0.0499988V0.799999ZM110.243 3.3L109.908 3.97082C112.995 5.51448 115.278 7.58681 116.796 10.1789L117.443 9.8L118.09 9.42111C116.408 6.54651 113.891 4.28551 110.578 2.62918L110.243 3.3ZM117.443 9.8L116.803 10.1905C118.396 12.8037 119.193 15.6681 119.193 18.8H119.943H120.693C120.693 15.3985 119.823 12.263 118.083 9.40954L117.443 9.8ZM119.943 18.8H119.193C119.193 21.1694 118.745 23.3664 117.856 25.3994L118.543 25.7L119.23 26.0006C120.207 23.7669 120.693 21.3639 120.693 18.8H119.943ZM118.543 25.7L117.859 25.3913C116.971 27.3594 115.702 29.0737 114.046 30.5383L114.543 31.1L115.04 31.6617C116.851 30.0597 118.249 28.174 119.227 26.0087L118.543 25.7ZM114.543 31.1L114.046 30.5383C112.408 31.9873 110.414 33.0363 108.047 33.676L108.243 34.4L108.439 35.124C111.005 34.4304 113.211 33.2794 115.04 31.6617L114.543 31.1ZM108.243 34.4L108.096 35.1354C110.662 35.6486 112.962 36.6402 115.005 38.109L115.443 37.5L115.881 36.891C113.658 35.2931 111.158 34.2181 108.39 33.6646L108.243 34.4ZM115.443 37.5L115.005 38.109C117.033 39.5665 118.62 41.4681 119.769 43.8281L120.443 43.5L121.117 43.1719C119.865 40.5985 118.12 38.5001 115.881 36.891L115.443 37.5ZM120.443 43.5L119.772 43.8354C120.911 46.1131 121.493 48.7942 121.493 51.9H122.243H122.993C122.993 48.6058 122.375 45.6869 121.114 43.1646L120.443 43.5ZM122.243 51.9H121.493C121.493 55.5759 120.624 58.9844 118.886 62.138L119.543 62.5L120.2 62.862C122.062 59.4823 122.993 55.8241 122.993 51.9H122.243ZM119.543 62.5L118.889 62.1323C117.163 65.2008 114.601 67.7073 111.174 69.6473L111.543 70.3L111.912 70.9527C115.552 68.8927 118.323 66.1992 120.197 62.8677L119.543 62.5ZM111.543 70.3L111.178 69.645C107.852 71.4997 103.654 72.45 98.543 72.45V73.2V73.95C103.832 73.95 108.301 72.967 111.908 70.955L111.543 70.3Z" fill="url(#paint0_linear_280_281)" fill-opacity="0.5"/>
<rect x="10" y="28" width="39" height="19" fill="#FFF2E6"/>
<path d="M16.1118 43.192C15.2904 43.192 14.5758 43.0427 13.9678 42.744C13.3598 42.4453 12.8904 42.0293 12.5598 41.496C12.2291 40.9627 12.0638 40.344 12.0638 39.64H13.4718C13.4718 40.0773 13.5731 40.4827 13.7758 40.856C13.9784 41.2187 14.2718 41.512 14.6558 41.736C15.0504 41.9493 15.5358 42.056 16.1118 42.056C16.6131 42.056 17.0398 41.976 17.3918 41.816C17.7544 41.6453 18.0264 41.416 18.2078 41.128C18.3998 40.84 18.4958 40.5147 18.4958 40.152C18.4958 39.7147 18.3998 39.3627 18.2078 39.096C18.0264 38.8187 17.7758 38.5947 17.4558 38.424C17.1358 38.2533 16.7624 38.104 16.3358 37.976C15.9198 37.8373 15.4824 37.6933 15.0238 37.544C14.1384 37.2453 13.4878 36.872 13.0718 36.424C12.6558 35.976 12.4478 35.3947 12.4478 34.68C12.4478 34.072 12.5864 33.5387 12.8638 33.08C13.1518 32.6213 13.5571 32.264 14.0798 32.008C14.6131 31.7413 15.2424 31.608 15.9678 31.608C16.6824 31.608 17.3011 31.7413 17.8238 32.008C18.3571 32.2747 18.7731 32.6427 19.0718 33.112C19.3704 33.5707 19.5198 34.104 19.5198 34.712H18.1118C18.1118 34.4027 18.0318 34.0987 17.8718 33.8C17.7118 33.5013 17.4664 33.256 17.1358 33.064C16.8158 32.8613 16.4104 32.76 15.9198 32.76C15.5144 32.7493 15.1518 32.8187 14.8318 32.968C14.5224 33.1067 14.2771 33.3093 14.0958 33.576C13.9251 33.8427 13.8398 34.168 13.8398 34.552C13.8398 34.9147 13.9144 35.208 14.0638 35.432C14.2238 35.656 14.4478 35.848 14.7358 36.008C15.0344 36.1573 15.3811 36.296 15.7758 36.424C16.1704 36.552 16.6078 36.696 17.0878 36.856C17.6318 37.0373 18.1118 37.2613 18.5278 37.528C18.9544 37.784 19.2851 38.1147 19.5198 38.52C19.7651 38.9253 19.8878 39.4427 19.8878 40.072C19.8878 40.6053 19.7438 41.112 19.4558 41.592C19.1784 42.0613 18.7624 42.4453 18.2078 42.744C17.6531 43.0427 16.9544 43.192 16.1118 43.192ZM24.1834 43V32.904H20.8394V31.8H28.8714V32.904H25.5274V43H24.1834ZM30.5281 43V31.8H37.4561V32.904H31.8721V36.808H36.9761V37.896H31.8721V41.896H37.4561V43H30.5281ZM39.575 43V31.8H43.223C44.1083 31.8 44.8337 31.9493 45.399 32.248C45.975 32.536 46.3963 32.9253 46.663 33.416C46.9403 33.9067 47.079 34.4667 47.079 35.096C47.079 35.704 46.9403 36.2587 46.663 36.76C46.3963 37.2507 45.9803 37.6453 45.415 37.944C44.8497 38.2427 44.119 38.392 43.223 38.392H40.919V43H39.575ZM40.919 37.256H43.207C44.103 37.256 44.743 37.0587 45.127 36.664C45.511 36.2693 45.703 35.7467 45.703 35.096C45.703 34.4027 45.511 33.8693 45.127 33.496C44.743 33.112 44.103 32.92 43.207 32.92H40.919V37.256Z" fill="#132436"/>
<defs>
<linearGradient id="paint0_linear_280_281" x1="0" y1="37" x2="129" y2="37" gradientUnits="userSpaceOnUse">
<stop stop-color="#FF5F01"/>
<stop offset="1" stop-color="#FF9404"/>
</linearGradient>
</defs>
</svg>
