<svg width="93" height="74" viewBox="0 0 93 74" fill="none" xmlns="http://www.w3.org/2000/svg">
<path d="M15.6 68.7L15.1755 69.3183L15.1818 69.3226L15.6 68.7ZM5.3 56L4.61326 56.3015L4.61464 56.3046L5.3 56ZM5.3 18.1L5.98537 18.4046L5.98673 18.4015L5.3 18.1ZM15.6 5.4L16.0182 6.02264L16.0245 6.0183L15.6 5.4ZM47.5 5.4L47.0711 6.01539L47.0818 6.0226L47.5 5.4ZM57.7 18.1L57.0101 18.3945L57.0146 18.4046L57.7 18.1ZM57.7 56L57.0133 55.6985L57.0115 55.7025L57.7 56ZM47.5 68.7L47.9225 69.3197L47.9245 69.3183L47.5 68.7ZM41.6 61L41.1565 60.3952L41.15 60.4L41.6 61ZM48.6 51.6L49.294 51.8844L48.6 51.6ZM48.6 22.4L49.294 22.1156L48.6 22.4ZM41.6 13.1L41.15 13.7L41.1576 13.7057L41.1654 13.7112L41.6 13.1ZM21.4 13.1L21.8347 13.7113L21.8435 13.7048L21.4 13.1ZM14.4 22.4L15.094 22.6844H15.094L14.4 22.4ZM14.4 51.6L13.706 51.8844L14.4 51.6ZM21.4 61L21.8435 60.3952L21.4 61ZM31.6 73.2V72.45C25.5256 72.45 20.3431 70.9822 16.0182 68.0774L15.6 68.7L15.1818 69.3226C19.7902 72.4178 25.2744 73.95 31.6 73.95V73.2ZM15.6 68.7L16.0245 68.0817C11.6824 65.1005 8.33435 60.9806 5.98536 55.6954L5.3 56L4.61464 56.3046C7.06565 61.8194 10.5843 66.1661 15.1755 69.3183L15.6 68.7ZM5.3 56L5.98673 55.6985C3.63613 50.3443 2.45 44.1172 2.45 37H1.7H0.95C0.95 44.2828 2.16387 50.7223 4.61327 56.3015L5.3 56ZM1.7 37H2.45C2.45 29.8825 3.63622 23.6902 5.98536 18.4046L5.3 18.1L4.61464 17.7954C2.16378 23.3098 0.95 29.7175 0.95 37H1.7ZM5.3 18.1L5.98673 18.4015C8.33599 13.0504 11.6824 8.93469 16.0182 6.0226L15.6 5.4L15.1818 4.77739C10.5843 7.86531 7.06401 12.2162 4.61327 17.7985L5.3 18.1ZM15.6 5.4L16.0245 6.0183C20.3488 3.04937 25.529 1.55 31.6 1.55V0.799999V0.0499988C25.271 0.0499988 19.7845 1.61729 15.1755 4.7817L15.6 5.4ZM31.6 0.799999V1.55C37.6713 1.55 42.8158 3.04945 47.0712 6.0153L47.5 5.4L47.9288 4.7847C43.3842 1.61722 37.9287 0.0499988 31.6 0.0499988V0.799999ZM47.5 5.4L47.0818 6.0226C51.4157 8.93341 54.7276 13.0466 57.0102 18.3944L57.7 18.1L58.3898 17.8056C56.0057 12.22 52.5176 7.86658 47.9182 4.77739L47.5 5.4ZM57.7 18.1L57.0146 18.4046C59.3638 23.6902 60.55 29.8825 60.55 37H61.3H62.05C62.05 29.7175 60.8362 23.3098 58.3854 17.7954L57.7 18.1ZM61.3 37H60.55C60.55 44.1172 59.3639 50.3443 57.0133 55.6985L57.7 56L58.3867 56.3015C60.8361 50.7223 62.05 44.2828 62.05 37H61.3ZM57.7 56L57.0115 55.7025C54.7292 60.9844 51.4158 65.1018 47.0755 68.0817L47.5 68.7L47.9245 69.3183C52.5176 66.1649 56.0041 61.8156 58.3885 56.2975L57.7 56ZM47.5 68.7L47.0775 68.0803C42.8215 70.9821 37.6747 72.45 31.6 72.45V73.2V73.95C37.9253 73.95 43.3785 72.4179 47.9225 69.3197L47.5 68.7ZM31.6 64.3V65.05C35.4924 65.05 38.9843 63.8993 42.05 61.6L41.6 61L41.15 60.4C38.349 62.5007 35.1742 63.55 31.6 63.55V64.3ZM41.6 61L42.0435 61.6048C45.1737 59.3093 47.5845 56.0555 49.294 51.8844L48.6 51.6L47.906 51.3156C46.2821 55.2779 44.0263 58.2907 41.1565 60.3952L41.6 61ZM48.6 51.6L49.294 51.8844C51.0066 47.7055 51.85 42.7372 51.85 37H51.1H50.35C50.35 42.5961 49.5267 47.3612 47.906 51.3156L48.6 51.6ZM51.1 37H51.85C51.85 31.2628 51.0066 26.2945 49.294 22.1156L48.6 22.4L47.906 22.6844C49.5267 26.6388 50.35 31.4039 50.35 37H51.1ZM48.6 22.4L49.294 22.1156C47.5841 17.9434 45.171 14.7191 42.0346 12.4888L41.6 13.1L41.1654 13.7112C44.029 15.7476 46.2826 18.7233 47.906 22.6844L48.6 22.4ZM41.6 13.1L42.05 12.5C38.9843 10.2007 35.4924 9.05 31.6 9.05V9.8V10.55C35.1742 10.55 38.349 11.5993 41.15 13.7L41.6 13.1ZM31.6 9.8V9.05C27.6442 9.05 24.088 10.1987 20.9565 12.4952L21.4 13.1L21.8435 13.7048C24.712 11.6013 27.9558 10.55 31.6 10.55V9.8ZM21.4 13.1L20.9654 12.4888C17.829 14.7191 15.4159 17.9434 13.706 22.1156L14.4 22.4L15.094 22.6844C16.7174 18.7233 18.971 15.7476 21.8346 13.7112L21.4 13.1ZM14.4 22.4L13.706 22.1156C11.9934 26.2945 11.15 31.2628 11.15 37H11.9H12.65C12.65 31.4039 13.4733 26.6388 15.094 22.6844L14.4 22.4ZM11.9 37H11.15C11.15 42.7372 11.9934 47.7055 13.706 51.8844L14.4 51.6L15.094 51.3156C13.4733 47.3612 12.65 42.5961 12.65 37H11.9ZM14.4 51.6L13.706 51.8844C15.4155 56.0555 17.8263 59.3093 20.9565 61.6048L21.4 61L21.8435 60.3952C18.9737 58.2907 16.7179 55.2779 15.094 51.3156L14.4 51.6ZM21.4 61L20.9565 61.6048C24.088 63.9013 27.6442 65.05 31.6 65.05V64.3V63.55C27.9558 63.55 24.712 62.4987 21.8435 60.3952L21.4 61ZM81.343 72H80.593V72.75H81.343V72ZM81.343 13.3H82.093V12.3356L81.1583 12.5731L81.343 13.3ZM69.143 16.4H68.393V17.3644L69.3277 17.1269L69.143 16.4ZM69.143 8.9L68.8444 8.21199L68.393 8.40789V8.9H69.143ZM85.043 2V1.25H84.8873L84.7444 1.31199L85.043 2ZM91.543 2H92.293V1.25H91.543V2ZM91.543 72V72.75H92.293V72H91.543ZM81.343 72H82.093V13.3H81.343H80.593V72H81.343ZM81.343 13.3L81.1583 12.5731L68.9583 15.6731L69.143 16.4L69.3277 17.1269L81.5277 14.0269L81.343 13.3ZM69.143 16.4H69.893V8.9H69.143H68.393V16.4H69.143ZM69.143 8.9L69.4415 9.588L85.3415 2.688L85.043 2L84.7444 1.31199L68.8444 8.21199L69.143 8.9ZM85.043 2V2.75H91.543V2V1.25H85.043V2ZM91.543 2H90.793V72H91.543H92.293V2H91.543ZM91.543 72V71.25H81.343V72V72.75H91.543V72Z" fill="url(#paint0_linear_3074_4833)" fill-opacity="0.5"/>
<defs>
<linearGradient id="paint0_linear_3074_4833" x1="-3" y1="37" x2="99" y2="37" gradientUnits="userSpaceOnUse">
<stop stop-color="#FF5F01"/>
<stop offset="1" stop-color="#FF9404"/>
</linearGradient>
</defs>
</svg>
