<svg width="126" height="74" viewBox="0 0 126 74" fill="none" xmlns="http://www.w3.org/2000/svg">
<path d="M18.6 68.7L18.1755 69.3183L18.1818 69.3226L18.6 68.7ZM8.3 56L7.61326 56.3015L7.61464 56.3046L8.3 56ZM8.3 18.1L8.98537 18.4046L8.98673 18.4015L8.3 18.1ZM18.6 5.4L19.0182 6.02264L19.0245 6.0183L18.6 5.4ZM50.5 5.4L50.0711 6.01539L50.0818 6.0226L50.5 5.4ZM60.7 18.1L60.0101 18.3945L60.0146 18.4046L60.7 18.1ZM60.7 56L60.0133 55.6985L60.0115 55.7025L60.7 56ZM50.5 68.7L50.9225 69.3197L50.9245 69.3183L50.5 68.7ZM44.6 61L44.1565 60.3952L44.15 60.4L44.6 61ZM51.6 51.6L52.294 51.8844L51.6 51.6ZM51.6 22.4L52.294 22.1156L51.6 22.4ZM44.6 13.1L44.15 13.7L44.1576 13.7057L44.1654 13.7112L44.6 13.1ZM24.4 13.1L24.8347 13.7113L24.8435 13.7048L24.4 13.1ZM17.4 22.4L18.094 22.6844H18.094L17.4 22.4ZM17.4 51.6L16.706 51.8844L17.4 51.6ZM24.4 61L24.8435 60.3952L24.4 61ZM34.6 73.2V72.45C28.5256 72.45 23.3431 70.9822 19.0182 68.0774L18.6 68.7L18.1818 69.3226C22.7902 72.4178 28.2744 73.95 34.6 73.95V73.2ZM18.6 68.7L19.0245 68.0817C14.6824 65.1005 11.3344 60.9806 8.98536 55.6954L8.3 56L7.61464 56.3046C10.0656 61.8194 13.5843 66.1661 18.1755 69.3183L18.6 68.7ZM8.3 56L8.98673 55.6985C6.63613 50.3443 5.45 44.1172 5.45 37H4.7H3.95C3.95 44.2828 5.16387 50.7223 7.61327 56.3015L8.3 56ZM4.7 37H5.45C5.45 29.8825 6.63622 23.6902 8.98536 18.4046L8.3 18.1L7.61464 17.7954C5.16378 23.3098 3.95 29.7175 3.95 37H4.7ZM8.3 18.1L8.98673 18.4015C11.336 13.0504 14.6824 8.93469 19.0182 6.0226L18.6 5.4L18.1818 4.77739C13.5843 7.86531 10.064 12.2162 7.61327 17.7985L8.3 18.1ZM18.6 5.4L19.0245 6.0183C23.3488 3.04937 28.529 1.55 34.6 1.55V0.799999V0.0499988C28.271 0.0499988 22.7845 1.61729 18.1755 4.7817L18.6 5.4ZM34.6 0.799999V1.55C40.6713 1.55 45.8158 3.04945 50.0712 6.0153L50.5 5.4L50.9288 4.7847C46.3842 1.61722 40.9287 0.0499988 34.6 0.0499988V0.799999ZM50.5 5.4L50.0818 6.0226C54.4157 8.93341 57.7276 13.0466 60.0102 18.3944L60.7 18.1L61.3898 17.8056C59.0057 12.22 55.5176 7.86658 50.9182 4.77739L50.5 5.4ZM60.7 18.1L60.0146 18.4046C62.3638 23.6902 63.55 29.8825 63.55 37H64.3H65.05C65.05 29.7175 63.8362 23.3098 61.3854 17.7954L60.7 18.1ZM64.3 37H63.55C63.55 44.1172 62.3639 50.3443 60.0133 55.6985L60.7 56L61.3867 56.3015C63.8361 50.7223 65.05 44.2828 65.05 37H64.3ZM60.7 56L60.0115 55.7025C57.7292 60.9844 54.4158 65.1018 50.0755 68.0817L50.5 68.7L50.9245 69.3183C55.5176 66.1649 59.0041 61.8156 61.3885 56.2975L60.7 56ZM50.5 68.7L50.0775 68.0803C45.8215 70.9821 40.6747 72.45 34.6 72.45V73.2V73.95C40.9253 73.95 46.3785 72.4179 50.9225 69.3197L50.5 68.7ZM34.6 64.3V65.05C38.4924 65.05 41.9843 63.8993 45.05 61.6L44.6 61L44.15 60.4C41.349 62.5007 38.1742 63.55 34.6 63.55V64.3ZM44.6 61L45.0435 61.6048C48.1737 59.3093 50.5845 56.0555 52.294 51.8844L51.6 51.6L50.906 51.3156C49.2821 55.2779 47.0263 58.2907 44.1565 60.3952L44.6 61ZM51.6 51.6L52.294 51.8844C54.0066 47.7055 54.85 42.7372 54.85 37H54.1H53.35C53.35 42.5961 52.5267 47.3612 50.906 51.3156L51.6 51.6ZM54.1 37H54.85C54.85 31.2628 54.0066 26.2945 52.294 22.1156L51.6 22.4L50.906 22.6844C52.5267 26.6388 53.35 31.4039 53.35 37H54.1ZM51.6 22.4L52.294 22.1156C50.5841 17.9434 48.171 14.7191 45.0346 12.4888L44.6 13.1L44.1654 13.7112C47.029 15.7476 49.2826 18.7233 50.906 22.6844L51.6 22.4ZM44.6 13.1L45.05 12.5C41.9843 10.2007 38.4924 9.05 34.6 9.05V9.8V10.55C38.1742 10.55 41.349 11.5993 44.15 13.7L44.6 13.1ZM34.6 9.8V9.05C30.6442 9.05 27.088 10.1987 23.9565 12.4952L24.4 13.1L24.8435 13.7048C27.712 11.6013 30.9558 10.55 34.6 10.55V9.8ZM24.4 13.1L23.9654 12.4888C20.829 14.7191 18.4159 17.9434 16.706 22.1156L17.4 22.4L18.094 22.6844C19.7174 18.7233 21.971 15.7476 24.8346 13.7112L24.4 13.1ZM17.4 22.4L16.706 22.1156C14.9934 26.2945 14.15 31.2628 14.15 37H14.9H15.65C15.65 31.4039 16.4733 26.6388 18.094 22.6844L17.4 22.4ZM14.9 37H14.15C14.15 42.7372 14.9934 47.7055 16.706 51.8844L17.4 51.6L18.094 51.3156C16.4733 47.3612 15.65 42.5961 15.65 37H14.9ZM17.4 51.6L16.706 51.8844C18.4155 56.0555 20.8263 59.3093 23.9565 61.6048L24.4 61L24.8435 60.3952C21.9737 58.2907 19.7179 55.2779 18.094 51.3156L17.4 51.6ZM24.4 61L23.9565 61.6048C27.088 63.9013 30.6442 65.05 34.6 65.05V64.3V63.55C30.9558 63.55 27.712 62.4987 24.8435 60.3952L24.4 61ZM74.1617 72H73.4117V72.75H74.1617V72ZM74.1617 64.8L73.7036 64.2062L73.4117 64.4313V64.8H74.1617ZM87.4617 53.9L86.9685 53.335L87.4617 53.9ZM98.6617 43L98.1068 42.4955L98.1063 42.496L98.6617 43ZM106.462 32.3L107.122 32.6556L107.125 32.6503L106.462 32.3ZM108.062 15.9L108.755 15.6132V15.6132L108.062 15.9ZM104.262 11.2L103.819 11.8055L103.827 11.8112L103.835 11.8166L104.262 11.2ZM89.9617 11.2L89.5506 10.5726L89.5406 10.5794L89.9617 11.2ZM85.6617 16.3L84.9826 15.9816L84.9782 15.9913L85.6617 16.3ZM84.2617 23.2V23.95H85.0117V23.2H84.2617ZM74.5617 23.2L73.8118 23.1896L73.8012 23.95H74.5617V23.2ZM77.6617 11L77.0186 10.6141L77.6617 11ZM85.7617 3.4L85.4263 2.72915L85.4211 2.73182L85.7617 3.4ZM108.962 3.3L108.621 3.96816L108.632 3.97354L108.962 3.3ZM116.562 10.4L115.911 10.7736L115.915 10.7796L116.562 10.4ZM117.362 31.3L118.057 31.5811L118.059 31.576L117.362 31.3ZM112.162 40.5L111.557 40.0564L111.551 40.0654L112.162 40.5ZM104.962 49.2L105.499 49.7238L105.505 49.7172L104.962 49.2ZM96.6617 57L96.1725 56.4315L96.1659 56.4372L96.6617 57ZM88.5617 63.7L88.1044 63.1055L86.3566 64.45H88.5617V63.7ZM121.462 63.7H122.212V62.95H121.462V63.7ZM121.462 72V72.75H122.212V72H121.462ZM74.1617 72H74.9117V64.8H74.1617H73.4117V72H74.1617ZM74.1617 64.8L74.6198 65.3938C79.2978 61.7851 83.7429 58.1422 87.955 54.465L87.4617 53.9L86.9685 53.335C82.7805 56.9912 78.359 60.6149 73.7036 64.2062L74.1617 64.8ZM87.4617 53.9L87.955 54.465C92.1737 50.7819 95.9284 47.1284 99.2171 43.504L98.6617 43L98.1063 42.496C94.8617 46.0716 91.1497 49.6847 86.9685 53.335L87.4617 53.9ZM98.6617 43L99.2167 43.5045C102.581 39.8037 105.22 36.1877 107.122 32.6556L106.462 32.3L105.801 31.9444C103.97 35.3456 101.409 38.8629 98.1068 42.4955L98.6617 43ZM106.462 32.3L107.125 32.6503C109.035 29.0354 110.012 25.5488 110.012 22.2H109.262H108.512C108.512 25.2512 107.622 28.4979 105.799 31.9497L106.462 32.3ZM109.262 22.2H110.012C110.012 19.8432 109.595 17.6448 108.755 15.6132L108.062 15.9L107.369 16.1868C108.128 18.0218 108.512 20.0235 108.512 22.2H109.262ZM108.062 15.9L108.755 15.6132C107.899 13.5456 106.54 11.8648 104.689 10.5834L104.262 11.2L103.835 11.8166C105.451 12.9352 106.624 14.3878 107.369 16.1868L108.062 15.9ZM104.262 11.2L104.704 10.5945C102.8 9.20316 100.259 8.55 97.1617 8.55V9.3V10.05C100.064 10.05 102.256 10.6635 103.819 11.8055L104.262 11.2ZM97.1617 9.3V8.55C94.1842 8.55 91.6326 9.20864 89.5507 10.5726L89.9617 11.2L90.3727 11.8273C92.1575 10.658 94.4059 10.05 97.1617 10.05V9.3ZM89.9617 11.2L89.5406 10.5794C87.5573 11.9252 86.0372 13.7319 84.9826 15.9817L85.6617 16.3L86.3408 16.6183C87.2862 14.6014 88.6329 13.0081 90.3828 11.8206L89.9617 11.2ZM85.6617 16.3L84.9782 15.9913C83.9962 18.1658 83.5117 20.5727 83.5117 23.2H84.2617H85.0117C85.0117 20.7606 85.4606 18.5675 86.3452 16.6087L85.6617 16.3ZM84.2617 23.2V22.45H74.5617V23.2V23.95H84.2617V23.2ZM74.5617 23.2L75.3116 23.2104C75.3769 18.5119 76.3873 14.5818 78.3048 11.3859L77.6617 11L77.0186 10.6141C74.9362 14.0848 73.8799 18.2881 73.8118 23.1896L74.5617 23.2ZM77.6617 11L78.3048 11.3859C80.2339 8.17077 82.8301 5.73639 86.1024 4.06817L85.7617 3.4L85.4211 2.73182C81.8933 4.53027 79.0895 7.16256 77.0186 10.6141L77.6617 11ZM85.7617 3.4L86.0971 4.07082C89.4495 2.39464 93.1996 1.55 97.3617 1.55V0.799999V0.0499988C92.9905 0.0499988 89.0073 0.938692 85.4263 2.72917L85.7617 3.4ZM97.3617 0.799999V1.55C101.735 1.55 105.48 2.36575 108.621 3.96807L108.962 3.3L109.303 2.63192C105.91 0.900912 101.921 0.0499988 97.3617 0.0499988V0.799999ZM108.962 3.3L108.632 3.97354C111.765 5.50821 114.186 7.77087 115.911 10.7736L116.562 10.4L117.212 10.0264C115.337 6.76245 112.692 4.29178 109.292 2.62645L108.962 3.3ZM116.562 10.4L115.915 10.7796C117.632 13.7052 118.512 17.333 118.512 21.7H119.262H120.012C120.012 17.1336 119.091 13.2281 117.209 10.0203L116.562 10.4ZM119.262 21.7H118.512C118.512 24.7986 117.899 27.9051 116.664 31.024L117.362 31.3L118.059 31.576C119.358 28.2948 120.012 25.0014 120.012 21.7H119.262ZM117.362 31.3L116.666 31.0189C115.425 34.0891 113.724 37.1017 111.557 40.0565L112.162 40.5L112.767 40.9435C115 37.8983 116.765 34.7776 118.057 31.5811L117.362 31.3ZM112.162 40.5L111.551 40.0654C109.439 43.0348 107.062 45.9073 104.419 48.6828L104.962 49.2L105.505 49.7172C108.195 46.8927 110.618 43.9652 112.773 40.9346L112.162 40.5ZM104.962 49.2L104.425 48.6763C101.773 51.3941 99.0225 53.9792 96.1725 56.4315L96.6617 57L97.1509 57.5685C100.034 55.0875 102.817 52.4725 105.499 49.7237L104.962 49.2ZM96.6617 57L96.1659 56.4372C93.3768 58.8944 90.6896 61.1169 88.1044 63.1055L88.5617 63.7L89.019 64.2945C91.6338 62.2831 94.3467 60.039 97.1575 57.5628L96.6617 57ZM88.5617 63.7V64.45H121.462V63.7V62.95H88.5617V63.7ZM121.462 63.7H120.712V72H121.462H122.212V63.7H121.462ZM121.462 72V71.25H74.1617V72V72.75H121.462V72Z" fill="url(#paint0_linear_280_272)" fill-opacity="0.5"/>
<rect x="10" y="27" width="39" height="19" fill="#FFF2E6"/>
<path d="M16.1118 42.192C15.2904 42.192 14.5758 42.0427 13.9678 41.744C13.3598 41.4453 12.8904 41.0293 12.5598 40.496C12.2291 39.9627 12.0638 39.344 12.0638 38.64H13.4718C13.4718 39.0773 13.5731 39.4827 13.7758 39.856C13.9784 40.2187 14.2718 40.512 14.6558 40.736C15.0504 40.9493 15.5358 41.056 16.1118 41.056C16.6131 41.056 17.0398 40.976 17.3918 40.816C17.7544 40.6453 18.0264 40.416 18.2078 40.128C18.3998 39.84 18.4958 39.5147 18.4958 39.152C18.4958 38.7147 18.3998 38.3627 18.2078 38.096C18.0264 37.8187 17.7758 37.5947 17.4558 37.424C17.1358 37.2533 16.7624 37.104 16.3358 36.976C15.9198 36.8373 15.4824 36.6933 15.0238 36.544C14.1384 36.2453 13.4878 35.872 13.0718 35.424C12.6558 34.976 12.4478 34.3947 12.4478 33.68C12.4478 33.072 12.5864 32.5387 12.8638 32.08C13.1518 31.6213 13.5571 31.264 14.0798 31.008C14.6131 30.7413 15.2424 30.608 15.9678 30.608C16.6824 30.608 17.3011 30.7413 17.8238 31.008C18.3571 31.2747 18.7731 31.6427 19.0718 32.112C19.3704 32.5707 19.5198 33.104 19.5198 33.712H18.1118C18.1118 33.4027 18.0318 33.0987 17.8718 32.8C17.7118 32.5013 17.4664 32.256 17.1358 32.064C16.8158 31.8613 16.4104 31.76 15.9198 31.76C15.5144 31.7493 15.1518 31.8187 14.8318 31.968C14.5224 32.1067 14.2771 32.3093 14.0958 32.576C13.9251 32.8427 13.8398 33.168 13.8398 33.552C13.8398 33.9147 13.9144 34.208 14.0638 34.432C14.2238 34.656 14.4478 34.848 14.7358 35.008C15.0344 35.1573 15.3811 35.296 15.7758 35.424C16.1704 35.552 16.6078 35.696 17.0878 35.856C17.6318 36.0373 18.1118 36.2613 18.5278 36.528C18.9544 36.784 19.2851 37.1147 19.5198 37.52C19.7651 37.9253 19.8878 38.4427 19.8878 39.072C19.8878 39.6053 19.7438 40.112 19.4558 40.592C19.1784 41.0613 18.7624 41.4453 18.2078 41.744C17.6531 42.0427 16.9544 42.192 16.1118 42.192ZM24.1834 42V31.904H20.8394V30.8H28.8714V31.904H25.5274V42H24.1834ZM30.5281 42V30.8H37.4561V31.904H31.8721V35.808H36.9761V36.896H31.8721V40.896H37.4561V42H30.5281ZM39.575 42V30.8H43.223C44.1083 30.8 44.8337 30.9493 45.399 31.248C45.975 31.536 46.3963 31.9253 46.663 32.416C46.9403 32.9067 47.079 33.4667 47.079 34.096C47.079 34.704 46.9403 35.2587 46.663 35.76C46.3963 36.2507 45.9803 36.6453 45.415 36.944C44.8497 37.2427 44.119 37.392 43.223 37.392H40.919V42H39.575ZM40.919 36.256H43.207C44.103 36.256 44.743 36.0587 45.127 35.664C45.511 35.2693 45.703 34.7467 45.703 34.096C45.703 33.4027 45.511 32.8693 45.127 32.496C44.743 32.112 44.103 31.92 43.207 31.92H40.919V36.256Z" fill="#132436"/>
<defs>
<linearGradient id="paint0_linear_280_272" x1="0" y1="37" x2="126" y2="37" gradientUnits="userSpaceOnUse">
<stop stop-color="#FF5F01"/>
<stop offset="1" stop-color="#FF9404"/>
</linearGradient>
</defs>
</svg>
