<svg width="100" height="100" viewBox="0 0 100 100" fill="none" xmlns="http://www.w3.org/2000/svg">
<circle cx="50" cy="50" r="45" fill="url(#paint0_linear_534_2241)"/>
<circle cx="50" cy="50" r="47.5" stroke="#FF9104" stroke-opacity="0.22" stroke-width="5"/>
<g clip-path="url(#clip0_534_2241)">
<path d="M44.676 55.8671C39.4441 55.8671 29 58.4875 29 63.6893V67.6004H60.3519V63.6893C60.3519 58.4875 49.9078 55.8671 44.676 55.8671ZM70.3453 39.9097C70.3649 39.6946 70.3845 39.4795 70.3845 39.2448C70.3845 39.0102 70.3649 38.7951 70.3258 38.5799L71.7758 37.4457C71.9129 37.3479 71.9325 37.1524 71.8542 37.0155L70.4825 34.6493C70.4041 34.4928 70.2082 34.4537 70.071 34.4928L68.3859 35.1773C68.0331 34.9035 67.6412 34.6884 67.2297 34.5124L66.975 32.6937C66.9602 32.6112 66.9168 32.5365 66.8522 32.4829C66.7877 32.4292 66.7063 32.4 66.6223 32.4004H63.879C63.7027 32.4004 63.5655 32.5177 63.5459 32.6937L63.2912 34.5124C62.8797 34.6884 62.4878 34.9231 62.1351 35.1773L60.4303 34.4928C60.2735 34.4342 60.0972 34.4928 60.0188 34.6493L58.6472 37.0155C58.5688 37.1719 58.5884 37.3479 58.7255 37.4457L60.1756 38.5799C60.0976 39.0198 60.0976 39.4699 60.1756 39.9097L58.7255 41.0439C58.5884 41.1417 58.5688 41.3373 58.6472 41.4742L60.0188 43.8404C60.0972 43.9968 60.2931 44.0359 60.4303 43.9968L62.1351 43.3124C62.4878 43.5862 62.8797 43.8013 63.2912 43.9773L63.5459 45.7959C63.5655 45.9719 63.7027 46.0893 63.879 46.0893H66.6223C66.7987 46.0893 66.9358 45.9719 66.9554 45.7959L67.2102 43.9773C67.6216 43.8013 68.0135 43.5666 68.3663 43.3124L70.071 43.9968C70.2278 44.0555 70.4041 43.9968 70.4825 43.8404L71.8542 41.4742C71.9325 41.3177 71.9129 41.1417 71.7758 41.0439L70.3453 39.9097ZM65.2507 41.6893C64.601 41.6893 63.978 41.4317 63.5187 40.9733C63.0593 40.5149 62.8013 39.8931 62.8013 39.2448C62.8013 38.5965 63.0593 37.9748 63.5187 37.5164C63.978 37.0579 64.601 36.8004 65.2507 36.8004C65.9003 36.8004 66.5233 37.0579 66.9826 37.5164C67.442 37.9748 67.7 38.5965 67.7 39.2448C67.7 39.8931 67.442 40.5149 66.9826 40.9733C66.5233 41.4317 65.9003 41.6893 65.2507 41.6893ZM66.0736 49.3746L65.0939 47.6733C65.0351 47.556 64.8979 47.5168 64.8 47.5559L63.5851 48.0448C63.3304 47.8493 63.056 47.6928 62.7621 47.5755L62.5857 46.2848C62.5656 46.2281 62.5285 46.1789 62.4795 46.1439C62.4304 46.1089 62.3717 46.0899 62.3114 46.0893H60.3519C60.2344 46.0893 60.1364 46.1675 60.1168 46.3044L59.9404 47.5951C59.6465 47.7124 59.3722 47.8884 59.1174 48.0644L57.9026 47.5755C57.785 47.5364 57.6674 47.5755 57.6086 47.6928L56.6289 49.3942C56.5701 49.5115 56.5897 49.6288 56.6877 49.7071L57.7262 50.5088C57.7066 50.6653 57.687 50.8217 57.687 50.9782C57.687 51.1346 57.7066 51.3106 57.7262 51.4475L56.6877 52.2493C56.5897 52.3275 56.5701 52.4644 56.6289 52.5622L57.6086 54.2635C57.6674 54.3808 57.8046 54.4199 57.9026 54.3808L59.1174 53.8919C59.3722 54.0875 59.6465 54.2439 59.9404 54.3613L60.1168 55.6519C60.1364 55.7888 60.2344 55.8671 60.3519 55.8671H62.3114C62.429 55.8671 62.5466 55.7888 62.5466 55.6519L62.7229 54.3613C63.0168 54.2439 63.2912 54.0679 63.5459 53.8919L64.7608 54.3808C64.8784 54.4199 64.9959 54.3808 65.0547 54.2635L66.0345 52.5622C66.0932 52.4448 66.0736 52.3275 65.9757 52.2493L64.9567 51.4475C64.9763 51.2911 64.9959 51.1346 64.9959 50.9782C64.9959 50.8217 64.9763 50.6457 64.9567 50.5088L65.9953 49.7071C66.0932 49.6288 66.1128 49.4919 66.0736 49.3746ZM61.3317 52.6013C60.4303 52.6013 59.7053 51.8582 59.7053 50.9782C59.7053 50.0786 60.4499 49.3551 61.3317 49.3551C62.2134 49.3551 62.958 50.0982 62.958 50.9782C62.958 51.8777 62.233 52.6013 61.3317 52.6013ZM36.3285 44.1337H53.043C53.5721 44.1337 54.0032 43.7035 54.0032 43.1755V43.1364C54.0032 42.8823 53.902 42.6385 53.7219 42.4588C53.5419 42.2791 53.2977 42.1782 53.043 42.1782H52.5139C52.5139 39.2839 50.9268 36.8004 48.595 35.4315V37.2893C48.595 37.8368 48.1639 38.2671 47.6152 38.2671C47.0665 38.2671 46.6355 37.8368 46.6355 37.2893V34.6297C46.0084 34.4733 45.3618 34.3559 44.676 34.3559C43.9901 34.3559 43.3435 34.4733 42.7165 34.6297V37.2893C42.7165 37.8368 42.2854 38.2671 41.7367 38.2671C41.1881 38.2671 40.757 37.8368 40.757 37.2893V35.4315C38.4252 36.8004 36.838 39.2839 36.838 42.1782H36.3285C36.2024 42.1782 36.0776 42.203 35.9611 42.2511C35.8446 42.2993 35.7387 42.3698 35.6496 42.4588C35.5604 42.5478 35.4897 42.6534 35.4414 42.7697C35.3932 42.886 35.3684 43.0106 35.3684 43.1364V43.1951C35.3684 43.7035 35.7994 44.1337 36.3285 44.1337ZM44.676 51.9559C48.3206 51.9559 51.3578 49.4528 52.2396 46.0893H37.1123C37.9941 49.4528 41.0313 51.9559 44.676 51.9559Z" fill="white"/>
</g>
<defs>
<linearGradient id="paint0_linear_534_2241" x1="50" y1="5" x2="50" y2="95" gradientUnits="userSpaceOnUse">
<stop stop-color="#FF5E01"/>
<stop offset="1" stop-color="#FF9404"/>
</linearGradient>
<clipPath id="clip0_534_2241">
<rect width="44" height="44" fill="white" transform="translate(29 28)"/>
</clipPath>
</defs>
</svg>
