<svg width="50" height="50" viewBox="0 0 50 50" fill="none" xmlns="http://www.w3.org/2000/svg">
<path d="M25.0003 45.8332C36.5063 45.8332 45.8337 36.5058 45.8337 24.9998C45.8337 13.4939 36.5063 4.1665 25.0003 4.1665C13.4944 4.1665 4.16699 13.4939 4.16699 24.9998C4.16699 36.5058 13.4944 45.8332 25.0003 45.8332Z" stroke="#1248B5" stroke-width="2" stroke-linecap="round" stroke-linejoin="round"/>
<path d="M25 37.5C31.9036 37.5 37.5 31.9036 37.5 25C37.5 18.0964 31.9036 12.5 25 12.5C18.0964 12.5 12.5 18.0964 12.5 25C12.5 31.9036 18.0964 37.5 25 37.5Z" stroke="#1248B5" stroke-width="2" stroke-linecap="round" stroke-linejoin="round"/>
<path d="M24.9997 29.1668C27.3009 29.1668 29.1663 27.3013 29.1663 25.0002C29.1663 22.699 27.3009 20.8335 24.9997 20.8335C22.6985 20.8335 20.833 22.699 20.833 25.0002C20.833 27.3013 22.6985 29.1668 24.9997 29.1668Z" stroke="#1248B5" stroke-width="2" stroke-linecap="round" stroke-linejoin="round"/>
</svg>
