<svg width="74" height="74" viewBox="0 0 74 74" fill="none" xmlns="http://www.w3.org/2000/svg">
<rect x="2.5" y="2.5" width="69" height="69" rx="14.5" fill="#1248B5" stroke="#BACCEF" stroke-width="5"/>
<g clip-path="url(#clip0_3974_200)">
<path d="M13 13H61V61H13V13Z" fill="#1248B5"/>
<path d="M20 37C20 28.9855 20 24.979 22.4894 22.4895C24.9788 20 28.9866 20 36.9992 20C45.0119 20 49.0197 20 51.5091 22.4895C53.9985 24.979 54 28.9855 54 37C54 45.013 54 49.021 51.5106 51.5105C49.0197 54 45.0134 54 37.0008 54C28.9881 54 24.9788 54 22.4909 51.5105C20 49.021 20 45.013 20 37Z" stroke="white" stroke-width="1.5"/>
<path d="M25.9241 39.5L28.693 32L32.1535 39.5M25.9241 39.5L25 42M25.9241 39.5H32.1535M32.1535 39.5L33.307 42M37.9241 37V33.1671C37.9241 32.8557 37.9241 32.7014 37.9699 32.5757C38.0146 32.4507 38.0915 32.337 38.1944 32.2441C38.2973 32.1512 38.4232 32.0817 38.5617 32.0414C38.7009 32 38.8734 32 39.2168 32H41.6155C42.3499 32 43.0542 32.2634 43.5735 32.7322C44.0928 33.2011 44.3845 33.837 44.3845 34.5C44.3845 35.163 44.0928 35.7989 43.5735 36.2678C43.0542 36.7366 42.3499 37 41.6155 37H37.9241ZM37.9241 37V42M49 32V42" stroke="white" stroke-width="1.5" stroke-linecap="round" stroke-linejoin="round"/>
</g>
<defs>
<clipPath id="clip0_3974_200">
<rect width="48" height="48" fill="white" transform="translate(13 13)"/>
</clipPath>
</defs>
</svg>
