<svg width="22" height="22" viewBox="0 0 22 22" fill="none" xmlns="http://www.w3.org/2000/svg">
<path d="M20.041 2.50781C20.154 2.52966 20.2468 2.59355 20.3105 2.67188C20.4384 2.82917 20.4767 3.08868 20.2949 3.29004C15.6443 8.44372 10.6925 14.2533 7.85352 19.2656C7.68242 19.5671 7.25217 19.5848 7.06738 19.2783C6.70409 18.6745 6.35414 18.0047 5.99707 17.334C5.63844 16.6603 5.27117 15.9825 4.86816 15.3477C4.05945 14.0739 3.12659 13.0081 1.88086 12.5117C1.46219 12.3448 1.49695 11.7277 1.93848 11.6162L2.1875 11.5615C2.76019 11.4538 3.27542 11.4878 3.74902 11.6357C4.2874 11.804 4.75747 12.1143 5.18848 12.499C5.61834 12.8827 6.01759 13.3483 6.41211 13.8359C6.74247 14.2443 7.06747 14.6632 7.41211 15.0791C8.30745 13.7279 10.0927 11.5575 12.2236 9.30176C14.5167 6.87436 17.2292 4.33009 19.6953 2.58594L19.7773 2.53906C19.8617 2.5014 19.9527 2.49074 20.041 2.50781Z" fill="url(#paint0_linear_3074_4447)" stroke="url(#paint1_linear_3074_4447)" stroke-width="0.5"/>
<defs>
<linearGradient id="paint0_linear_3074_4447" x1="11.0026" y1="2.75" x2="11.0026" y2="19.25" gradientUnits="userSpaceOnUse">
<stop stop-color="#FF6402"/>
<stop offset="1" stop-color="#FF8E04"/>
</linearGradient>
<linearGradient id="paint1_linear_3074_4447" x1="20.1693" y1="2.75" x2="6.8776" y2="19.7083" gradientUnits="userSpaceOnUse">
<stop stop-color="#FF6703"/>
<stop offset="1" stop-color="#FF8D04"/>
</linearGradient>
</defs>
</svg>
