<svg width="50" height="50" viewBox="0 0 50 50" fill="none" xmlns="http://www.w3.org/2000/svg">
<path d="M0 0H50V50H0V0ZM44.809 44.809V5.19099H5.19099V44.7845H44.809V44.809ZM9.69638 12.904V28.0117C9.69638 34.9167 13.4917 39.0059 19.907 39.0059C26.5181 39.0059 30.3134 34.9167 30.3134 28.0117V12.904H25.1224V28.0117C25.1224 31.905 23.4329 34.1087 20.0294 34.1087C16.43 34.1087 14.8384 31.807 14.8384 28.0117V12.904H9.69638ZM36.998 15.9892C38.81 15.9892 40.2057 14.6915 40.2057 12.8795C40.2057 10.9696 38.9079 9.67189 36.998 9.67189C35.1861 9.67189 33.7904 10.9696 33.7904 12.8795C33.8149 14.6915 35.2106 15.9892 36.998 15.9892ZM34.4025 18.3888V38.712H39.5935V18.3888H34.4025Z" fill="#FA4616"/>
</svg>
