<svg width="55" height="55" viewBox="0 0 55 55" fill="none" xmlns="http://www.w3.org/2000/svg">
<rect width="55" height="55" rx="27.5" fill="url(#paint0_linear_977_3087)"/>
<path d="M41.1041 31.3528V29.3962H32.0844C32.0844 31.9279 30.032 33.9803 27.5003 33.9803C24.9685 33.9803 22.9162 31.928 22.9162 29.3962H13.8965V31.3528L17.8131 31.7675C18.0542 32.7552 18.4458 33.6999 18.9742 34.5685L16.4974 37.632L19.2644 40.3991L22.3279 37.9222C23.1965 38.4506 24.1413 38.8423 25.129 39.0833L25.5437 43H29.4569L29.8716 39.0833C30.8593 38.8423 31.804 38.4506 32.6726 37.9222L35.7361 40.3991L38.5032 37.632L36.0263 34.5685C36.5547 33.6999 36.9463 32.7552 37.1874 31.7675L41.1041 31.3528ZM27.5003 12C25.5628 12 23.9866 13.5763 23.9866 15.5137C23.9866 17.4512 25.5628 19.0274 27.5003 19.0274C29.4377 19.0274 31.014 17.4512 31.014 15.5137C31.014 13.5763 29.4377 12 27.5003 12ZM31.2413 19.9988H23.7593C22.0368 19.9988 20.6354 21.4001 20.6354 23.1226V27.5797H34.3651V23.1226C34.3651 21.4001 32.9638 19.9988 31.2413 19.9988ZM20.0462 13.6231C18.3105 13.6231 16.8985 15.0352 16.8985 16.7708C16.8985 18.4924 18.2881 19.8949 20.0046 19.9174C20.7154 19.0859 21.6962 18.4925 22.8105 18.2748C23.0626 17.8137 23.1944 17.2964 23.1938 16.7708C23.1938 15.0352 21.7818 13.6231 20.0462 13.6231ZM16.6949 20.7886C15.1519 20.7886 13.8965 22.0439 13.8965 23.587V27.5798H18.819V23.1226C18.8181 22.3079 19.02 21.5058 19.4065 20.7886H16.6949ZM34.9544 13.6231C33.2187 13.6231 31.8067 15.0352 31.8067 16.7708C31.8061 17.2964 31.9379 17.8136 32.19 18.2748C33.3044 18.4925 34.2852 19.0859 34.996 19.9174C36.7124 19.8949 38.102 18.4924 38.102 16.7708C38.102 15.0352 36.69 13.6231 34.9544 13.6231ZM38.3057 20.7886H35.5941C35.9805 21.5058 36.1824 22.3079 36.1815 23.1226V27.5797H41.1041V23.587C41.1041 22.0439 39.8487 20.7886 38.3057 20.7886Z" fill="white"/>
<defs>
<linearGradient id="paint0_linear_977_3087" x1="27.5" y1="0" x2="27.5" y2="55" gradientUnits="userSpaceOnUse">
<stop stop-color="#FF5E01"/>
<stop offset="1" stop-color="#FF9404"/>
</linearGradient>
</defs>
</svg>
