<svg width="55" height="55" viewBox="0 0 55 55" fill="none" xmlns="http://www.w3.org/2000/svg">
<rect width="55" height="55" rx="27.5" fill="url(#paint0_linear_977_3086)"/>
<path d="M19.8188 38.9196L13.9375 42.0312V31.8594L17.3068 30.3481C17.3707 30.3195 17.4401 30.3051 17.5101 30.3059C17.5801 30.3067 17.6491 30.3226 17.7124 30.3526C17.7756 30.3826 17.8316 30.426 17.8765 30.4798C17.9214 30.5335 17.9541 30.5963 17.9723 30.6639L20.059 38.3655C20.088 38.4714 20.08 38.5841 20.0363 38.6848C19.9927 38.7856 19.9159 38.8684 19.8188 38.9196ZM39.3129 32.056L31.2743 36.4086C30.389 36.8882 29.3519 37.0043 28.3825 36.7322L24.1007 35.5309L21.1828 36.954L19.4613 30.5971L22.3259 29.173C23.2363 28.7176 24.2403 28.4805 25.2583 28.4804H31.2462C33.1275 28.4804 33.2321 31.2849 31.3702 31.4351L29.1362 31.6182C28.1675 31.6976 28.2973 33.1478 29.2554 33.0684L31.4874 32.8833C32.7332 32.7826 33.7436 31.8855 34.0633 30.725L38.3762 29.5392C39.9552 29.1072 40.7854 31.3537 39.3129 32.056ZM37.1875 21.6875V25.0781C37.1875 25.4635 37.0344 25.8331 36.7619 26.1056C36.4894 26.3782 36.1198 26.5312 35.7344 26.5312H25.0781C24.6927 26.5312 24.3231 26.3782 24.0506 26.1056C23.7781 25.8331 23.625 25.4635 23.625 25.0781V21.6875H37.1875ZM35.7344 16.8438H33.3125V15.1484C33.3125 14.48 32.77 13.9375 32.1016 13.9375H28.7109C28.0425 13.9375 27.5 14.48 27.5 15.1484V16.8438H25.0781C24.6927 16.8438 24.3231 16.9968 24.0506 17.2694C23.7781 17.5419 23.625 17.9115 23.625 18.2969V20.2344H37.1875V18.2969C37.1875 17.9115 37.0344 17.5419 36.7619 17.2694C36.4894 16.9968 36.1198 16.8438 35.7344 16.8438ZM28.9531 15.3906H31.8594V16.8438H28.9531V15.3906Z" fill="white"/>
<defs>
<linearGradient id="paint0_linear_977_3086" x1="27.5" y1="0" x2="27.5" y2="55" gradientUnits="userSpaceOnUse">
<stop stop-color="#FF5E01"/>
<stop offset="1" stop-color="#FF9404"/>
</linearGradient>
</defs>
</svg>
