<svg width="512" height="512" viewBox="0 0 512 512" fill="none" xmlns="http://www.w3.org/2000/svg">
<path d="M457.963 381.589L434.219 405.333L488.768 459.904C489.967 456.047 490.606 452.038 490.667 448V391.552L480.704 381.589C479.212 380.094 477.44 378.908 475.488 378.099C473.537 377.289 471.446 376.873 469.333 376.873C467.221 376.873 465.129 377.289 463.178 378.099C461.227 378.908 459.455 380.094 457.963 381.589ZM395.371 381.589C393.879 380.094 392.106 378.908 390.155 378.099C388.204 377.289 386.112 376.873 384 376.873C381.888 376.873 379.796 377.289 377.845 378.099C375.894 378.908 374.121 380.094 372.629 381.589L320 434.197V448C320 459.316 324.495 470.168 332.497 478.17C340.498 486.171 351.351 490.667 362.667 490.667H448C455.363 490.654 462.597 488.728 468.992 485.078C475.387 481.428 480.724 476.179 484.48 469.845C484.011 469.611 483.456 469.653 483.072 469.269L395.371 381.589Z" fill="white"/>
<path d="M402.923 374.037L426.667 397.781L450.411 374.037C455.434 369.027 462.239 366.213 469.333 366.213C476.428 366.213 483.233 369.027 488.256 374.037L490.667 376.448V362.667C490.667 351.351 486.171 340.498 478.17 332.497C470.168 324.495 459.316 320 448 320H362.667C351.351 320 340.498 324.495 332.497 332.497C324.495 340.498 320 351.351 320 362.667V419.136L365.077 374.037C370.1 369.027 376.905 366.213 384 366.213C391.095 366.213 397.9 369.027 402.923 374.037ZM338.923 118.037L373.333 152.448L407.744 118.037C412.767 113.027 419.572 110.213 426.667 110.213C433.761 110.213 440.566 113.027 445.589 118.037L490.667 163.115V63.9999C490.667 52.684 486.171 41.8316 478.17 33.83C470.168 25.8285 459.316 21.3333 448 21.3333H277.333C266.017 21.3333 255.165 25.8285 247.163 33.83C239.162 41.8316 234.667 52.684 234.667 63.9999V184.448L301.077 118.037C306.1 113.027 312.905 110.213 320 110.213C327.095 110.213 333.9 113.027 338.923 118.037Z" fill="white"/>
<path d="M415.296 125.589L380.885 160L481.579 260.693C487.432 253.277 490.632 244.114 490.667 234.667V178.219L438.037 125.589C436.545 124.094 434.773 122.908 432.822 122.099C430.871 121.289 428.779 120.873 426.667 120.873C424.554 120.873 422.463 121.289 420.512 122.099C418.56 122.908 416.788 124.094 415.296 125.589ZM308.629 125.589L234.667 199.552V234.667C234.667 245.983 239.162 256.835 247.163 264.837C255.165 272.838 266.017 277.333 277.333 277.333H448C457.447 277.298 466.611 274.099 474.027 268.245L331.371 125.589C329.879 124.094 328.106 122.908 326.155 122.099C324.204 121.289 322.112 120.873 320 120.873C317.888 120.873 315.796 121.289 313.845 122.099C311.894 122.908 310.121 124.094 308.629 125.589ZM140.928 271.509C143.111 272.214 145.466 272.177 147.626 271.406C149.787 270.634 151.632 269.171 152.875 267.243C154.918 264.451 157.588 262.178 160.672 260.609C163.755 259.04 167.164 258.218 170.624 258.21C174.083 258.202 177.496 259.007 180.587 260.561C183.678 262.116 186.36 264.375 188.416 267.157C189.675 269.076 191.52 270.537 193.676 271.324C195.832 272.111 198.185 272.182 200.384 271.525C202.583 270.869 204.512 269.521 205.884 267.681C207.256 265.841 207.998 263.607 208 261.312V192H133.333V261.312C133.291 263.613 134.014 265.863 135.389 267.708C136.763 269.554 138.711 270.891 140.928 271.509Z" fill="white"/>
<path d="M224 234.667V192H218.667V261.312C218.726 265.904 217.276 270.389 214.539 274.077C211.803 277.765 207.932 280.453 203.52 281.728C201.431 282.362 199.26 282.686 197.077 282.688C193.598 282.68 190.176 281.803 187.122 280.138C184.067 278.473 181.476 276.072 179.584 273.152C178.579 271.73 177.249 270.57 175.704 269.767C174.16 268.964 172.445 268.541 170.704 268.535C168.964 268.529 167.246 268.939 165.696 269.731C164.146 270.523 162.807 271.674 161.792 273.088C159.262 276.912 155.567 279.82 151.255 281.379C146.942 282.938 142.242 283.067 137.852 281.745C133.461 280.424 129.612 277.722 126.877 274.042C124.142 270.361 122.666 265.898 122.667 261.312V192H42.6666C37.0087 192 31.5825 194.248 27.5817 198.248C23.5809 202.249 21.3333 207.675 21.3333 213.333V469.333C21.3333 474.991 23.5809 480.418 27.5817 484.418C31.5825 488.419 37.0087 490.667 42.6666 490.667H298.667C302.869 490.666 306.977 489.425 310.476 487.099C313.976 484.772 316.71 481.464 318.336 477.589C312.461 468.84 309.326 458.539 309.333 448V362.667C309.367 351.231 313.11 340.114 320 330.987V288H277.333C263.192 287.989 249.633 282.366 239.633 272.367C229.634 262.367 224.011 248.808 224 234.667ZM149.333 453.333H64C62.5855 453.333 61.2289 452.771 60.2287 451.771C59.2286 450.771 58.6666 449.414 58.6666 448C58.6666 446.586 59.2286 445.229 60.2287 444.229C61.2289 443.229 62.5855 442.667 64 442.667H149.333C150.748 442.667 152.104 443.229 153.105 444.229C154.105 445.229 154.667 446.586 154.667 448C154.667 449.414 154.105 450.771 153.105 451.771C152.104 452.771 150.748 453.333 149.333 453.333ZM149.333 410.667H64C62.5855 410.667 61.2289 410.105 60.2287 409.105C59.2286 408.104 58.6666 406.748 58.6666 405.333C58.6666 403.919 59.2286 402.562 60.2287 401.562C61.2289 400.562 62.5855 400 64 400H149.333C150.748 400 152.104 400.562 153.105 401.562C154.105 402.562 154.667 403.919 154.667 405.333C154.667 406.748 154.105 408.104 153.105 409.105C152.104 410.105 150.748 410.667 149.333 410.667ZM192 368H64C62.5855 368 61.2289 367.438 60.2287 366.438C59.2286 365.438 58.6666 364.081 58.6666 362.667C58.6666 361.252 59.2286 359.896 60.2287 358.895C61.2289 357.895 62.5855 357.333 64 357.333H192C193.414 357.333 194.771 357.895 195.771 358.895C196.771 359.896 197.333 361.252 197.333 362.667C197.333 364.081 196.771 365.438 195.771 366.438C194.771 367.438 193.414 368 192 368Z" fill="white"/>
</svg>
