<svg width="512" height="512" viewBox="0 0 512 512" fill="none" xmlns="http://www.w3.org/2000/svg">
<path d="M32 256C32 247.156 39.156 240 48 240H80C88.844 240 96 247.156 96 256C96 264.844 88.844 272 80 272H48C39.156 272 32 264.844 32 256ZM48 128H80C88.844 128 96 120.844 96 112C96 103.156 88.844 96 80 96H48C39.156 96 32 103.156 32 112C32 120.844 39.156 128 48 128ZM480 48V464C480 490.468 458.468 512 432 512H112C85.532 512 64 490.468 64 464V432H80C97.672 432 112 417.672 112 400C112 382.328 97.672 368 80 368H64V288H80C97.672 288 112 273.672 112 256C112 238.328 97.672 224 80 224H64V144H80C97.672 144 112 129.672 112 112C112 94.328 97.672 80 80 80H64V48C64 21.532 85.532 0 112 0H432C458.468 0 480 21.532 480 48ZM240 192C240 218.508 261.492 240 288 240C314.508 240 336 218.508 336 192C336 165.492 314.508 144 288 144C261.492 144 240 165.492 240 192ZM384 336C384 300.652 355.348 272 320 272H256C220.652 272 192 300.652 192 336V352C192 369.672 206.328 384 224 384H352C369.672 384 384 369.672 384 352V336ZM96 400C96 391.156 88.844 384 80 384H48C39.156 384 32 391.156 32 400C32 408.844 39.156 416 48 416H80C88.844 416 96 408.844 96 400Z" fill="white"/>
</svg>
