<svg width="111" height="64" viewBox="0 0 111 64" fill="none" xmlns="http://www.w3.org/2000/svg">
<path d="M23.0146 52.0836C26.2154 59.3272 33.3889 64 41.3082 64H69.6918C77.6111 64 84.7846 59.3272 87.9854 52.0836L98.5905 28.0835C104.433 14.8621 94.7515 0 80.2969 0H30.7031C16.2485 0 6.56728 14.8622 12.4095 28.0836L23.0146 52.0836Z" fill="url(#paint0_linear_1041_88)"/>
<path d="M69.515 36.25H63.0833C62.3319 36.25 61.6112 36.5485 61.0799 37.0799C60.5485 37.6112 60.25 38.3319 60.25 39.0833V45.515" stroke="white" stroke-width="2" stroke-linecap="round" stroke-linejoin="round"/>
<path d="M48.916 19.7317V22.0834C48.916 23.2105 49.3638 24.2915 50.1608 25.0886C50.9578 25.8856 52.0388 26.3334 53.166 26.3334C53.9175 26.3334 54.6381 26.6319 55.1695 27.1632C55.7008 27.6946 55.9993 28.4152 55.9993 29.1667C55.9993 30.725 57.2743 32 58.8327 32C59.5841 32 60.3048 31.7015 60.8362 31.1702C61.3675 30.6388 61.666 29.9181 61.666 29.1667C61.666 27.6084 62.941 26.3334 64.4993 26.3334H68.9902" stroke="white" stroke-width="2" stroke-linecap="round" stroke-linejoin="round"/>
<path d="M54.5835 46.0959V40.5C54.5835 39.7486 54.285 39.0279 53.7536 38.4966C53.2222 37.9652 52.5016 37.6667 51.7501 37.6667C50.9987 37.6667 50.278 37.3682 49.7467 36.8368C49.2153 36.3055 48.9168 35.5848 48.9168 34.8334V33.4167C48.9168 32.6653 48.6183 31.9446 48.0869 31.4132C47.5556 30.8819 46.8349 30.5834 46.0835 30.5834H41.9043" stroke="white" stroke-width="2" stroke-linecap="round" stroke-linejoin="round"/>
<path d="M56.0007 46.1667C63.8247 46.1667 70.1673 39.8241 70.1673 32C70.1673 24.176 63.8247 17.8334 56.0007 17.8334C48.1766 17.8334 41.834 24.176 41.834 32C41.834 39.8241 48.1766 46.1667 56.0007 46.1667Z" stroke="white" stroke-width="2" stroke-linecap="round" stroke-linejoin="round"/>
<defs>
<linearGradient id="paint0_linear_1041_88" x1="55.5" y1="64" x2="55.5" y2="0" gradientUnits="userSpaceOnUse">
<stop stop-color="#FF5E01"/>
<stop offset="1" stop-color="#FF9404"/>
</linearGradient>
</defs>
</svg>
