<svg width="74" height="74" viewBox="0 0 74 74" fill="none" xmlns="http://www.w3.org/2000/svg">
<rect x="5" y="5" width="64" height="64" rx="12" fill="url(#paint0_linear_761_3027)"/>
<rect x="2.5" y="2.5" width="69" height="69" rx="14.5" stroke="#FF9104" stroke-opacity="0.22" stroke-width="5"/>
<path d="M37.0007 51.1663C33.2434 51.1663 29.6401 49.6738 26.9833 47.017C24.3265 44.3603 22.834 40.7569 22.834 36.9997C22.834 33.2424 24.3265 29.6391 26.9833 26.9823C29.6401 24.3256 33.2434 22.833 37.0007 22.833C40.7579 22.833 44.3612 24.1763 47.018 26.5674C49.6748 28.9585 51.1673 32.2015 51.1673 35.583C51.1673 37.4616 50.421 39.2633 49.0927 40.5917C47.7643 41.9201 45.9626 42.6663 44.084 42.6663H40.8965C40.4361 42.6663 39.9848 42.7946 39.5931 43.0366C39.2015 43.2787 38.885 43.625 38.6791 44.0368C38.4731 44.4486 38.386 44.9096 38.4273 45.3682C38.4687 45.8267 38.6369 46.2647 38.9132 46.633L39.3382 47.1997C39.6144 47.568 39.7826 48.006 39.824 48.4645C39.8653 48.9231 39.7782 49.3841 39.5723 49.7959C39.3664 50.2077 39.0498 50.554 38.6582 50.7961C38.2665 51.0381 37.8152 51.1663 37.3548 51.1663H37.0007Z" stroke="white" stroke-width="2" stroke-linecap="round" stroke-linejoin="round"/>
<path d="M39.1243 29.9167C39.5156 29.9167 39.8327 29.5995 39.8327 29.2083C39.8327 28.8171 39.5156 28.5 39.1243 28.5C38.7331 28.5 38.416 28.8171 38.416 29.2083C38.416 29.5995 38.7331 29.9167 39.1243 29.9167Z" fill="white" stroke="white" stroke-width="2" stroke-linecap="round" stroke-linejoin="round"/>
<path d="M44.7923 35.5837C45.1835 35.5837 45.5007 35.2665 45.5007 34.8753C45.5007 34.4841 45.1835 34.167 44.7923 34.167C44.4011 34.167 44.084 34.4841 44.084 34.8753C44.084 35.2665 44.4011 35.5837 44.7923 35.5837Z" fill="white" stroke="white" stroke-width="2" stroke-linecap="round" stroke-linejoin="round"/>
<path d="M29.2083 38.4167C29.5995 38.4167 29.9167 38.0995 29.9167 37.7083C29.9167 37.3171 29.5995 37 29.2083 37C28.8171 37 28.5 37.3171 28.5 37.7083C28.5 38.0995 28.8171 38.4167 29.2083 38.4167Z" fill="white" stroke="white" stroke-width="2" stroke-linecap="round" stroke-linejoin="round"/>
<path d="M32.0423 31.3337C32.4335 31.3337 32.7507 31.0165 32.7507 30.6253C32.7507 30.2341 32.4335 29.917 32.0423 29.917C31.6511 29.917 31.334 30.2341 31.334 30.6253C31.334 31.0165 31.6511 31.3337 32.0423 31.3337Z" fill="white" stroke="white" stroke-width="2" stroke-linecap="round" stroke-linejoin="round"/>
<defs>
<linearGradient id="paint0_linear_761_3027" x1="37" y1="5" x2="37" y2="69" gradientUnits="userSpaceOnUse">
<stop stop-color="#FF5E01"/>
<stop offset="1" stop-color="#FF9404"/>
</linearGradient>
</defs>
</svg>
