<svg width="111" height="64" viewBox="0 0 111 64" fill="none" xmlns="http://www.w3.org/2000/svg">
<path d="M23.0146 52.0836C26.2154 59.3272 33.3889 64 41.3082 64H69.6918C77.6111 64 84.7846 59.3272 87.9854 52.0836L98.5905 28.0835C104.433 14.8621 94.7515 0 80.2969 0H30.7031C16.2485 0 6.56728 14.8622 12.4095 28.0836L23.0146 52.0836Z" fill="url(#paint0_linear_1041_92)"/>
<path d="M57.416 17.8334C60.7975 17.8334 64.0405 19.1767 66.4316 21.5678C68.8227 23.9589 70.166 27.2019 70.166 30.5834" stroke="white" stroke-width="2" stroke-linecap="round" stroke-linejoin="round"/>
<path d="M57.416 23.5C59.2946 23.5 61.0963 24.2463 62.4247 25.5747C63.7531 26.903 64.4993 28.7047 64.4993 30.5833" stroke="white" stroke-width="2" stroke-linecap="round" stroke-linejoin="round"/>
<path d="M58.596 38.4714C58.8886 38.6057 59.2182 38.6364 59.5305 38.5584C59.8429 38.4804 60.1194 38.2983 60.3144 38.0421L60.8173 37.3834C61.0812 37.0315 61.4235 36.7459 61.8169 36.5492C62.2103 36.3525 62.6441 36.25 63.084 36.25H67.334C68.0854 36.25 68.8061 36.5486 69.3375 37.0799C69.8688 37.6113 70.1673 38.3319 70.1673 39.0834V43.3334C70.1673 44.0848 69.8688 44.8055 69.3375 45.3368C68.8061 45.8682 68.0854 46.1667 67.334 46.1667C60.571 46.1667 54.0849 43.4801 49.3028 38.6979C44.5206 33.9158 41.834 27.4297 41.834 20.6667C41.834 19.9153 42.1325 19.1946 42.6638 18.6632C43.1952 18.1319 43.9159 17.8334 44.6673 17.8334H48.9173C49.6688 17.8334 50.3894 18.1319 50.9208 18.6632C51.4521 19.1946 51.7507 19.9153 51.7507 20.6667V24.9167C51.7507 25.3566 51.6482 25.7904 51.4515 26.1838C51.2548 26.5772 50.9692 26.9195 50.6173 27.1834L49.9543 27.6806C49.6942 27.8792 49.5109 28.1617 49.4355 28.4801C49.3601 28.7985 49.3973 29.1332 49.5407 29.4274C51.4768 33.3599 54.6611 36.5402 58.596 38.4714Z" stroke="white" stroke-width="2" stroke-linecap="round" stroke-linejoin="round"/>
<defs>
<linearGradient id="paint0_linear_1041_92" x1="55.5" y1="64" x2="55.5" y2="0" gradientUnits="userSpaceOnUse">
<stop stop-color="#FF5E01"/>
<stop offset="1" stop-color="#FF9404"/>
</linearGradient>
</defs>
</svg>
