<svg width="60" height="44" viewBox="0 0 60 44" fill="none" xmlns="http://www.w3.org/2000/svg">
<path d="M25.6992 40.437C25.8292 40.3871 25.9809 40.3896 26.124 40.4253C26.4535 40.5077 26.5996 40.9022 26.4521 41.2085L26.2305 41.7661L26.7871 41.9888H26.7861C26.9424 42.0316 27.0452 42.1339 27.0957 42.2651C27.1458 42.3953 27.1432 42.5475 27.1074 42.6909C27.0667 42.8539 26.9608 42.9604 26.8262 43.0122C26.6962 43.062 26.5445 43.0596 26.4014 43.0239L26.3877 43.02V43.019L25.8311 42.7964L25.6084 43.354L25.6074 43.353C25.5645 43.5088 25.4631 43.6112 25.332 43.6616C25.2018 43.7117 25.0497 43.7092 24.9062 43.6733C24.7433 43.6326 24.6367 43.5277 24.585 43.3931C24.5349 43.2629 24.5374 43.1107 24.5732 42.9673L24.5771 42.9546L24.6709 42.9917L24.5781 42.9546L24.7998 42.397L24.2432 42.1743L24.2354 42.1714V42.1704C24.0832 42.0941 23.9839 41.9775 23.9346 41.8394C23.8859 41.703 23.8877 41.5522 23.9238 41.4077C23.9646 41.2448 24.0695 41.1382 24.2041 41.0864C24.3019 41.0488 24.412 41.0417 24.5215 41.0552L24.6299 41.0747L24.6436 41.0786L24.6426 41.0796L25.1992 41.3022L25.4229 40.7446C25.4659 40.5893 25.5684 40.4873 25.6992 40.437ZM4.33008 38.2124C4.5476 38.2124 4.73709 38.2856 4.87207 38.4204C5.00703 38.5554 5.08003 38.7448 5.08008 38.9624C5.08008 39.1801 5.00707 39.3694 4.87207 39.5044C4.73707 39.6393 4.54772 39.7124 4.33008 39.7124H0.755859C0.538454 39.7123 0.349744 39.6392 0.214844 39.5044C0.0798429 39.3694 0.00683594 39.1801 0.00683594 38.9624C0.00688199 38.7448 0.0798855 38.5554 0.214844 38.4204C0.349731 38.2857 0.538564 38.2125 0.755859 38.2124H4.33008ZM59.2422 38.2124C59.4598 38.2124 59.6492 38.2855 59.7842 38.4204C59.9191 38.5554 59.9921 38.7448 59.9922 38.9624C59.9922 39.1801 59.9192 39.3694 59.7842 39.5044C59.6492 39.6394 59.4599 39.7124 59.2422 39.7124H57.3574C57.14 39.7123 56.9513 39.6392 56.8164 39.5044C56.6814 39.3694 56.6084 39.1801 56.6084 38.9624C56.6084 38.7448 56.6814 38.5554 56.8164 38.4204C56.9513 38.2857 57.1401 38.2125 57.3574 38.2124H59.2422ZM54.4873 26.1401C54.6174 26.0902 54.7698 26.0926 54.9131 26.1284C55.0757 26.1692 55.1816 26.2744 55.2334 26.4087C55.2835 26.5388 55.2809 26.6911 55.2451 26.8345L55.2422 26.8481L55.2402 26.8472L55.0176 27.4038L55.5752 27.6274H55.5742C55.7304 27.6703 55.8333 27.7725 55.8838 27.9038C55.9338 28.034 55.9313 28.1862 55.8955 28.3296C55.8547 28.4925 55.7488 28.5981 55.6143 28.6499C55.4842 28.6998 55.3327 28.6974 55.1895 28.6616L55.1758 28.6587V28.6577L54.6191 28.4351L54.3965 28.9917L54.3936 28.9995L54.3037 28.9546L54.3926 28.9995C54.3162 29.1522 54.1989 29.2518 54.0605 29.3013C53.9244 29.3498 53.774 29.348 53.6299 29.312C53.4738 29.273 53.3462 29.1726 53.292 29.0317C53.2388 28.8934 53.2635 28.7345 53.3682 28.5864L53.5889 28.0356L53.0312 27.813V27.811C52.8762 27.7679 52.7739 27.6673 52.7236 27.5366C52.6736 27.4065 52.6761 27.2542 52.7119 27.1108C52.7527 26.9481 52.8578 26.8423 52.9922 26.7905C53.0899 26.7529 53.2001 26.7448 53.3096 26.7583L53.418 26.7788L53.4316 26.7817L53.4307 26.7827L53.9873 27.0054L54.2109 26.4487C54.2539 26.293 54.3563 26.1905 54.4873 26.1401ZM4.63086 16.771C4.79316 16.7304 4.93932 16.7718 5.05176 16.8638C5.13392 16.931 5.19686 17.0231 5.23828 17.1265L5.27246 17.2339L5.27344 17.2378L5.38281 17.7896L5.93555 17.6792C6.09586 17.6406 6.24025 17.6819 6.35156 17.7729C6.46121 17.8627 6.53582 17.9974 6.57227 18.1431C6.61283 18.3053 6.57142 18.4515 6.47949 18.564C6.38976 18.6736 6.25507 18.7482 6.10938 18.7847L6.10449 18.7856L5.55273 18.895L5.66211 19.4429C5.70268 19.6052 5.66133 19.7513 5.56934 19.8638C5.47959 19.9734 5.34487 20.0481 5.19922 20.0845C5.03724 20.1249 4.8916 20.0834 4.7793 19.9917C4.66965 19.902 4.59504 19.7672 4.55859 19.6216L4.44727 19.0649L3.88574 19.1772H3.87598C3.73122 19.1772 3.58043 19.1413 3.46289 19.063C3.35738 18.9927 3.27792 18.887 3.25977 18.7485L3.25586 18.687C3.22501 18.5345 3.26425 18.3983 3.35156 18.2915C3.44131 18.1818 3.57597 18.1072 3.72168 18.0708L3.72559 18.0698L4.27734 17.9595L4.16699 17.4077V17.4067C4.12867 17.2468 4.16998 17.1029 4.26074 16.9917C4.35043 16.8821 4.48525 16.8074 4.63086 16.771ZM56.2656 0.262207L56.2773 0.265137C56.5688 0.338038 56.8074 0.563696 56.8076 0.881348V1.49658H57.4355L57.4473 1.49951C57.7387 1.57247 57.9775 1.79891 57.9775 2.1167V2.12842L57.9746 2.14111C57.9016 2.43249 57.6751 2.67139 57.3574 2.67139H56.7432V3.29834L56.7402 3.31006C56.6673 3.60164 56.4409 3.84131 56.123 3.84131H56.1104L56.0986 3.83838C55.8071 3.76546 55.5684 3.539 55.5684 3.22119V2.60596H54.9531C54.7879 2.60588 54.648 2.52318 54.5518 2.40771C54.456 2.29281 54.3985 2.14061 54.3984 1.98682V1.97412L54.4014 1.9624C54.4743 1.67082 54.7007 1.43115 55.0186 1.43115H55.6328V0.804199L55.6357 0.79248C55.7086 0.500932 55.9351 0.262266 56.2529 0.262207H56.2656Z" fill="white" stroke="white" stroke-width="0.2"/>
<mask id="path-2-outside-1_424_117" maskUnits="userSpaceOnUse" x="4.56543" y="1.63623" width="51" height="39" fill="black">
<rect fill="white" x="4.56543" y="1.63623" width="51" height="39"/>
<path d="M8.42475 26.6155C8.16481 27.0704 7.96986 27.5253 7.7749 28.0452L6.41023 28.4351C5.95534 28.565 5.63041 28.955 5.63041 29.4748L5.56543 30.8395C5.56543 31.2944 5.82537 31.7493 6.28026 31.8792L7.64493 32.3341C7.7749 32.854 7.96986 33.3089 8.22979 33.7638L7.51496 34.9985C7.25503 35.3884 7.32001 35.9083 7.64493 36.2982L8.55472 37.273C8.87964 37.6629 9.39952 37.7279 9.91939 37.4679L11.0891 36.8831C11.544 37.143 11.9989 37.338 12.5188 37.5329L12.7787 38.4427H8.55472C8.16481 38.4427 7.90487 38.7026 7.90487 39.0925C7.90487 39.4824 8.16481 39.7424 8.55472 39.7424H30.5195C30.9094 39.7424 31.1693 39.4824 31.1693 39.0925C31.1693 38.7026 30.9094 38.4427 30.5195 38.4427H18.8873V37.4679L19.4721 37.7928C19.862 38.0528 20.3819 37.9878 20.7718 37.6629L21.7466 36.7531C22.1365 36.4282 22.2015 35.9083 21.9415 35.3884L21.3567 34.2837C21.6816 33.8288 21.8116 33.3089 21.9415 32.854L23.3062 32.4641C23.7611 32.3341 24.086 31.9442 24.086 31.4244L24.151 30.0597C24.151 29.6048 23.8911 29.1499 23.4362 29.0199L22.0715 28.565C21.9415 28.0452 21.7466 27.5903 21.5516 27.1354L22.2664 25.9007C22.5264 25.5108 22.4614 24.9909 22.1365 24.601L21.2267 23.6262C20.9018 23.2363 20.3819 23.1713 19.862 23.4313L19.0172 23.8212V18.2975L33.7687 9.84951C34.0286 9.71954 34.3536 9.71954 34.6135 9.84951L49.365 18.2975V38.4427H34.6135C34.2236 38.4427 33.9637 38.7026 33.9637 39.0925C33.9637 39.4824 34.2236 39.7424 34.6135 39.7424H54.0439C54.4338 39.7424 54.6937 39.4824 54.6937 39.0925C54.6937 38.7026 54.4338 38.4427 54.0439 38.4427H50.5347V18.9473C52.0943 19.5972 53.7839 18.6874 54.2388 17.1278C54.6287 15.8931 53.9789 14.4634 52.8092 13.8785L50.2098 12.2539V6.79524C51.2495 6.73025 52.0943 5.82047 52.0943 4.71573C52.0943 3.54601 51.1845 2.63623 50.0148 2.63623H43.9713C42.8015 2.63623 41.8918 3.54601 41.8918 4.71573C41.8918 5.82047 42.7366 6.66527 43.7763 6.79524V8.67979L35.3933 3.80595C34.5485 3.35106 33.5737 3.35106 32.729 3.80595L15.3131 13.7486C14.0784 14.3984 13.4286 15.8931 13.8834 17.1928C14.4033 18.6224 16.0279 19.4672 17.5876 18.8824V23.4313C17.4576 23.3663 17.3276 23.3013 17.1327 23.2363L16.7428 21.8716C16.6128 21.4167 16.2229 21.0918 15.703 21.0918L14.4033 21.0268C13.8834 21.0268 13.4935 21.3518 13.2986 21.8716L12.9087 23.1063C12.3888 23.2363 11.9339 23.4313 11.479 23.6262L10.2443 22.9114C9.85441 22.6515 9.33453 22.7164 8.94462 23.0414L7.96986 23.9511C7.57995 24.2761 7.51496 24.7959 7.7749 25.3158L8.42475 26.6155ZM16.5478 38.3127L16.8077 37.5329C17.0677 37.4679 17.3276 37.4029 17.5876 37.273V38.3127H16.5478ZM43.1915 4.71573C43.1915 4.26084 43.5164 3.93592 43.9713 3.93592H50.0148C50.4697 3.93592 50.7946 4.26084 50.7946 4.71573C50.7946 5.17062 50.4697 5.49555 50.0148 5.49555H43.9713C43.5814 5.49555 43.1915 5.10564 43.1915 4.71573ZM45.141 6.79524H48.9101V11.5391L45.141 9.39462V6.79524ZM15.1182 16.7379C14.8582 16.023 15.2481 15.2432 15.898 14.8533L33.3138 4.91069C33.5088 4.78072 33.7687 4.71573 34.0286 4.71573C34.2886 4.71573 34.4835 4.78072 34.6785 4.91069L52.1593 14.8533C52.8092 15.1782 53.1341 15.9581 52.9391 16.6079C52.8092 17.0628 52.4842 17.3877 52.0943 17.5827C51.7044 17.7776 51.1845 17.7126 50.8596 17.5177L35.1334 8.6148C34.4835 8.2249 33.6387 8.2249 32.9889 8.6148L17.2626 17.5827C16.4828 18.0376 15.4431 17.6476 15.1182 16.7379ZM9.00961 28.5001C9.13958 28.0452 9.33453 27.5903 9.59447 27.2004C9.78942 26.8754 9.78942 26.4855 9.65945 26.1606L9.00961 24.9259L9.78942 24.2111L11.0241 24.8609C11.349 25.0559 11.739 25.0559 12.0639 24.8609C12.5188 24.601 12.9737 24.471 13.4286 24.341C13.8185 24.2761 14.0784 24.0161 14.2084 23.6262L14.6633 22.3265H15.703L16.0279 23.5612C16.1579 24.0161 16.4178 24.3411 16.8077 24.406C17.2626 24.536 17.7175 24.731 18.1724 24.9909C18.4973 25.1858 18.8873 25.1859 19.2122 25.0559L20.4469 24.406L21.1617 25.1209L20.5119 26.3556C20.3169 26.6805 20.3169 27.0704 20.5119 27.3953C20.7718 27.8502 20.9018 28.3051 21.0317 28.76C21.0967 29.1499 21.3567 29.4098 21.7466 29.5398L23.0463 29.9947V31.0345L21.7466 31.4244C21.3567 31.5543 21.0967 31.8143 20.9668 32.2042C20.8368 32.5941 20.7068 33.114 20.4469 33.4389C20.1869 33.7638 20.1869 34.2187 20.3169 34.6086L20.9018 35.7783L20.1869 36.4932L18.9522 35.8433C18.6273 35.6484 18.2374 35.6484 17.9125 35.8433C17.4576 36.1032 17.0027 36.2332 16.5478 36.3632C16.1579 36.4282 15.898 36.6881 15.768 37.078L15.3131 38.3777H14.2734L13.7535 36.948C13.6235 36.6231 13.3636 36.2982 13.0386 36.2332C12.5838 36.1032 12.1289 35.9083 11.739 35.6484C11.414 35.4534 11.0241 35.4534 10.6992 35.5834L9.4645 36.2332L8.74967 35.4534L9.39951 34.2187C9.59447 33.8938 9.59447 33.5039 9.39951 33.1789C9.13958 32.724 9.00961 32.2692 8.87964 31.8143C8.81465 31.4244 8.55472 31.1644 8.16481 31.0345L6.86512 30.5796V29.5398L8.22979 29.1499C8.6197 29.1499 8.87964 28.89 9.00961 28.5001Z"/>
</mask>
<path d="M8.42475 26.6155C8.16481 27.0704 7.96986 27.5253 7.7749 28.0452L6.41023 28.4351C5.95534 28.565 5.63041 28.955 5.63041 29.4748L5.56543 30.8395C5.56543 31.2944 5.82537 31.7493 6.28026 31.8792L7.64493 32.3341C7.7749 32.854 7.96986 33.3089 8.22979 33.7638L7.51496 34.9985C7.25503 35.3884 7.32001 35.9083 7.64493 36.2982L8.55472 37.273C8.87964 37.6629 9.39952 37.7279 9.91939 37.4679L11.0891 36.8831C11.544 37.143 11.9989 37.338 12.5188 37.5329L12.7787 38.4427H8.55472C8.16481 38.4427 7.90487 38.7026 7.90487 39.0925C7.90487 39.4824 8.16481 39.7424 8.55472 39.7424H30.5195C30.9094 39.7424 31.1693 39.4824 31.1693 39.0925C31.1693 38.7026 30.9094 38.4427 30.5195 38.4427H18.8873V37.4679L19.4721 37.7928C19.862 38.0528 20.3819 37.9878 20.7718 37.6629L21.7466 36.7531C22.1365 36.4282 22.2015 35.9083 21.9415 35.3884L21.3567 34.2837C21.6816 33.8288 21.8116 33.3089 21.9415 32.854L23.3062 32.4641C23.7611 32.3341 24.086 31.9442 24.086 31.4244L24.151 30.0597C24.151 29.6048 23.8911 29.1499 23.4362 29.0199L22.0715 28.565C21.9415 28.0452 21.7466 27.5903 21.5516 27.1354L22.2664 25.9007C22.5264 25.5108 22.4614 24.9909 22.1365 24.601L21.2267 23.6262C20.9018 23.2363 20.3819 23.1713 19.862 23.4313L19.0172 23.8212V18.2975L33.7687 9.84951C34.0286 9.71954 34.3536 9.71954 34.6135 9.84951L49.365 18.2975V38.4427H34.6135C34.2236 38.4427 33.9637 38.7026 33.9637 39.0925C33.9637 39.4824 34.2236 39.7424 34.6135 39.7424H54.0439C54.4338 39.7424 54.6937 39.4824 54.6937 39.0925C54.6937 38.7026 54.4338 38.4427 54.0439 38.4427H50.5347V18.9473C52.0943 19.5972 53.7839 18.6874 54.2388 17.1278C54.6287 15.8931 53.9789 14.4634 52.8092 13.8785L50.2098 12.2539V6.79524C51.2495 6.73025 52.0943 5.82047 52.0943 4.71573C52.0943 3.54601 51.1845 2.63623 50.0148 2.63623H43.9713C42.8015 2.63623 41.8918 3.54601 41.8918 4.71573C41.8918 5.82047 42.7366 6.66527 43.7763 6.79524V8.67979L35.3933 3.80595C34.5485 3.35106 33.5737 3.35106 32.729 3.80595L15.3131 13.7486C14.0784 14.3984 13.4286 15.8931 13.8834 17.1928C14.4033 18.6224 16.0279 19.4672 17.5876 18.8824V23.4313C17.4576 23.3663 17.3276 23.3013 17.1327 23.2363L16.7428 21.8716C16.6128 21.4167 16.2229 21.0918 15.703 21.0918L14.4033 21.0268C13.8834 21.0268 13.4935 21.3518 13.2986 21.8716L12.9087 23.1063C12.3888 23.2363 11.9339 23.4313 11.479 23.6262L10.2443 22.9114C9.85441 22.6515 9.33453 22.7164 8.94462 23.0414L7.96986 23.9511C7.57995 24.2761 7.51496 24.7959 7.7749 25.3158L8.42475 26.6155ZM16.5478 38.3127L16.8077 37.5329C17.0677 37.4679 17.3276 37.4029 17.5876 37.273V38.3127H16.5478ZM43.1915 4.71573C43.1915 4.26084 43.5164 3.93592 43.9713 3.93592H50.0148C50.4697 3.93592 50.7946 4.26084 50.7946 4.71573C50.7946 5.17062 50.4697 5.49555 50.0148 5.49555H43.9713C43.5814 5.49555 43.1915 5.10564 43.1915 4.71573ZM45.141 6.79524H48.9101V11.5391L45.141 9.39462V6.79524ZM15.1182 16.7379C14.8582 16.023 15.2481 15.2432 15.898 14.8533L33.3138 4.91069C33.5088 4.78072 33.7687 4.71573 34.0286 4.71573C34.2886 4.71573 34.4835 4.78072 34.6785 4.91069L52.1593 14.8533C52.8092 15.1782 53.1341 15.9581 52.9391 16.6079C52.8092 17.0628 52.4842 17.3877 52.0943 17.5827C51.7044 17.7776 51.1845 17.7126 50.8596 17.5177L35.1334 8.6148C34.4835 8.2249 33.6387 8.2249 32.9889 8.6148L17.2626 17.5827C16.4828 18.0376 15.4431 17.6476 15.1182 16.7379ZM9.00961 28.5001C9.13958 28.0452 9.33453 27.5903 9.59447 27.2004C9.78942 26.8754 9.78942 26.4855 9.65945 26.1606L9.00961 24.9259L9.78942 24.2111L11.0241 24.8609C11.349 25.0559 11.739 25.0559 12.0639 24.8609C12.5188 24.601 12.9737 24.471 13.4286 24.341C13.8185 24.2761 14.0784 24.0161 14.2084 23.6262L14.6633 22.3265H15.703L16.0279 23.5612C16.1579 24.0161 16.4178 24.3411 16.8077 24.406C17.2626 24.536 17.7175 24.731 18.1724 24.9909C18.4973 25.1858 18.8873 25.1859 19.2122 25.0559L20.4469 24.406L21.1617 25.1209L20.5119 26.3556C20.3169 26.6805 20.3169 27.0704 20.5119 27.3953C20.7718 27.8502 20.9018 28.3051 21.0317 28.76C21.0967 29.1499 21.3567 29.4098 21.7466 29.5398L23.0463 29.9947V31.0345L21.7466 31.4244C21.3567 31.5543 21.0967 31.8143 20.9668 32.2042C20.8368 32.5941 20.7068 33.114 20.4469 33.4389C20.1869 33.7638 20.1869 34.2187 20.3169 34.6086L20.9018 35.7783L20.1869 36.4932L18.9522 35.8433C18.6273 35.6484 18.2374 35.6484 17.9125 35.8433C17.4576 36.1032 17.0027 36.2332 16.5478 36.3632C16.1579 36.4282 15.898 36.6881 15.768 37.078L15.3131 38.3777H14.2734L13.7535 36.948C13.6235 36.6231 13.3636 36.2982 13.0386 36.2332C12.5838 36.1032 12.1289 35.9083 11.739 35.6484C11.414 35.4534 11.0241 35.4534 10.6992 35.5834L9.4645 36.2332L8.74967 35.4534L9.39951 34.2187C9.59447 33.8938 9.59447 33.5039 9.39951 33.1789C9.13958 32.724 9.00961 32.2692 8.87964 31.8143C8.81465 31.4244 8.55472 31.1644 8.16481 31.0345L6.86512 30.5796V29.5398L8.22979 29.1499C8.6197 29.1499 8.87964 28.89 9.00961 28.5001Z" fill="white"/>
<path d="M8.42475 26.6155C8.16481 27.0704 7.96986 27.5253 7.7749 28.0452L6.41023 28.4351C5.95534 28.565 5.63041 28.955 5.63041 29.4748L5.56543 30.8395C5.56543 31.2944 5.82537 31.7493 6.28026 31.8792L7.64493 32.3341C7.7749 32.854 7.96986 33.3089 8.22979 33.7638L7.51496 34.9985C7.25503 35.3884 7.32001 35.9083 7.64493 36.2982L8.55472 37.273C8.87964 37.6629 9.39952 37.7279 9.91939 37.4679L11.0891 36.8831C11.544 37.143 11.9989 37.338 12.5188 37.5329L12.7787 38.4427H8.55472C8.16481 38.4427 7.90487 38.7026 7.90487 39.0925C7.90487 39.4824 8.16481 39.7424 8.55472 39.7424H30.5195C30.9094 39.7424 31.1693 39.4824 31.1693 39.0925C31.1693 38.7026 30.9094 38.4427 30.5195 38.4427H18.8873V37.4679L19.4721 37.7928C19.862 38.0528 20.3819 37.9878 20.7718 37.6629L21.7466 36.7531C22.1365 36.4282 22.2015 35.9083 21.9415 35.3884L21.3567 34.2837C21.6816 33.8288 21.8116 33.3089 21.9415 32.854L23.3062 32.4641C23.7611 32.3341 24.086 31.9442 24.086 31.4244L24.151 30.0597C24.151 29.6048 23.8911 29.1499 23.4362 29.0199L22.0715 28.565C21.9415 28.0452 21.7466 27.5903 21.5516 27.1354L22.2664 25.9007C22.5264 25.5108 22.4614 24.9909 22.1365 24.601L21.2267 23.6262C20.9018 23.2363 20.3819 23.1713 19.862 23.4313L19.0172 23.8212V18.2975L33.7687 9.84951C34.0286 9.71954 34.3536 9.71954 34.6135 9.84951L49.365 18.2975V38.4427H34.6135C34.2236 38.4427 33.9637 38.7026 33.9637 39.0925C33.9637 39.4824 34.2236 39.7424 34.6135 39.7424H54.0439C54.4338 39.7424 54.6937 39.4824 54.6937 39.0925C54.6937 38.7026 54.4338 38.4427 54.0439 38.4427H50.5347V18.9473C52.0943 19.5972 53.7839 18.6874 54.2388 17.1278C54.6287 15.8931 53.9789 14.4634 52.8092 13.8785L50.2098 12.2539V6.79524C51.2495 6.73025 52.0943 5.82047 52.0943 4.71573C52.0943 3.54601 51.1845 2.63623 50.0148 2.63623H43.9713C42.8015 2.63623 41.8918 3.54601 41.8918 4.71573C41.8918 5.82047 42.7366 6.66527 43.7763 6.79524V8.67979L35.3933 3.80595C34.5485 3.35106 33.5737 3.35106 32.729 3.80595L15.3131 13.7486C14.0784 14.3984 13.4286 15.8931 13.8834 17.1928C14.4033 18.6224 16.0279 19.4672 17.5876 18.8824V23.4313C17.4576 23.3663 17.3276 23.3013 17.1327 23.2363L16.7428 21.8716C16.6128 21.4167 16.2229 21.0918 15.703 21.0918L14.4033 21.0268C13.8834 21.0268 13.4935 21.3518 13.2986 21.8716L12.9087 23.1063C12.3888 23.2363 11.9339 23.4313 11.479 23.6262L10.2443 22.9114C9.85441 22.6515 9.33453 22.7164 8.94462 23.0414L7.96986 23.9511C7.57995 24.2761 7.51496 24.7959 7.7749 25.3158L8.42475 26.6155ZM16.5478 38.3127L16.8077 37.5329C17.0677 37.4679 17.3276 37.4029 17.5876 37.273V38.3127H16.5478ZM43.1915 4.71573C43.1915 4.26084 43.5164 3.93592 43.9713 3.93592H50.0148C50.4697 3.93592 50.7946 4.26084 50.7946 4.71573C50.7946 5.17062 50.4697 5.49555 50.0148 5.49555H43.9713C43.5814 5.49555 43.1915 5.10564 43.1915 4.71573ZM45.141 6.79524H48.9101V11.5391L45.141 9.39462V6.79524ZM15.1182 16.7379C14.8582 16.023 15.2481 15.2432 15.898 14.8533L33.3138 4.91069C33.5088 4.78072 33.7687 4.71573 34.0286 4.71573C34.2886 4.71573 34.4835 4.78072 34.6785 4.91069L52.1593 14.8533C52.8092 15.1782 53.1341 15.9581 52.9391 16.6079C52.8092 17.0628 52.4842 17.3877 52.0943 17.5827C51.7044 17.7776 51.1845 17.7126 50.8596 17.5177L35.1334 8.6148C34.4835 8.2249 33.6387 8.2249 32.9889 8.6148L17.2626 17.5827C16.4828 18.0376 15.4431 17.6476 15.1182 16.7379ZM9.00961 28.5001C9.13958 28.0452 9.33453 27.5903 9.59447 27.2004C9.78942 26.8754 9.78942 26.4855 9.65945 26.1606L9.00961 24.9259L9.78942 24.2111L11.0241 24.8609C11.349 25.0559 11.739 25.0559 12.0639 24.8609C12.5188 24.601 12.9737 24.471 13.4286 24.341C13.8185 24.2761 14.0784 24.0161 14.2084 23.6262L14.6633 22.3265H15.703L16.0279 23.5612C16.1579 24.0161 16.4178 24.3411 16.8077 24.406C17.2626 24.536 17.7175 24.731 18.1724 24.9909C18.4973 25.1858 18.8873 25.1859 19.2122 25.0559L20.4469 24.406L21.1617 25.1209L20.5119 26.3556C20.3169 26.6805 20.3169 27.0704 20.5119 27.3953C20.7718 27.8502 20.9018 28.3051 21.0317 28.76C21.0967 29.1499 21.3567 29.4098 21.7466 29.5398L23.0463 29.9947V31.0345L21.7466 31.4244C21.3567 31.5543 21.0967 31.8143 20.9668 32.2042C20.8368 32.5941 20.7068 33.114 20.4469 33.4389C20.1869 33.7638 20.1869 34.2187 20.3169 34.6086L20.9018 35.7783L20.1869 36.4932L18.9522 35.8433C18.6273 35.6484 18.2374 35.6484 17.9125 35.8433C17.4576 36.1032 17.0027 36.2332 16.5478 36.3632C16.1579 36.4282 15.898 36.6881 15.768 37.078L15.3131 38.3777H14.2734L13.7535 36.948C13.6235 36.6231 13.3636 36.2982 13.0386 36.2332C12.5838 36.1032 12.1289 35.9083 11.739 35.6484C11.414 35.4534 11.0241 35.4534 10.6992 35.5834L9.4645 36.2332L8.74967 35.4534L9.39951 34.2187C9.59447 33.8938 9.59447 33.5039 9.39951 33.1789C9.13958 32.724 9.00961 32.2692 8.87964 31.8143C8.81465 31.4244 8.55472 31.1644 8.16481 31.0345L6.86512 30.5796V29.5398L8.22979 29.1499C8.6197 29.1499 8.87964 28.89 9.00961 28.5001Z" stroke="white" stroke-width="0.4" mask="url(#path-2-outside-1_424_117)"/>
<path d="M34.0938 14.3638C36.7683 14.3638 39.1071 14.8364 40.7812 15.6323C42.4506 16.4261 43.4863 17.5566 43.4863 18.8823V32.9194C43.4861 34.2456 42.4334 35.3761 40.7568 36.1694C39.0748 36.9652 36.7359 37.438 34.0938 37.438C31.4192 37.438 29.0803 36.9654 27.4062 36.1694C25.7371 35.3758 24.7014 34.2449 24.7012 32.9194V18.8823C24.7012 17.5561 25.7541 16.4257 27.4307 15.6323C29.1127 14.8365 31.4515 14.3638 34.0938 14.3638ZM41.9873 32.0132C40.3152 33.2615 37.5036 34.0591 34.0938 34.0591C30.6906 34.059 27.8207 33.2646 26.2012 32.0181V32.9194C26.2013 33.2372 26.3861 33.586 26.7598 33.936C27.1323 34.285 27.6821 34.6248 28.3818 34.9224C29.7808 35.5173 31.7655 35.938 34.0938 35.938C36.4553 35.938 38.4405 35.5335 39.8311 34.9468C40.5264 34.6533 41.0694 34.3157 41.4365 33.9644C41.8041 33.6124 41.9871 33.2552 41.9873 32.9194V32.0132ZM14.9854 25.4106C17.6456 25.4774 19.7032 27.5526 19.7676 30.187C19.8339 32.9058 17.7114 35.1616 14.9912 35.228H14.9883C13.5996 35.228 12.4067 34.7649 11.4141 33.9048L11.4082 33.8999V33.8989C9.4864 31.9766 9.41987 28.9261 11.2764 26.937L11.2783 26.9351C12.2025 26.0108 13.3962 25.4113 14.7266 25.4106H14.9854ZM14.7969 26.9106C12.9042 26.9738 11.4529 28.4847 11.4492 30.3774L11.4648 30.5552C11.5612 31.4311 11.9316 32.1908 12.5244 32.7837C13.153 33.4123 13.971 33.7274 14.9209 33.728C16.8187 33.6644 18.3304 32.1484 18.2676 30.2583C18.2043 28.3612 16.6234 26.8477 14.7969 26.9106ZM41.9873 28.5688C40.3152 29.8172 37.5037 30.6147 34.0938 30.6147C30.6905 30.6147 27.8207 29.8203 26.2012 28.5737V29.4751C26.2013 29.7931 26.3858 30.1424 26.7598 30.4927C27.1324 30.8416 27.682 31.1814 28.3818 31.479C29.7808 32.074 31.7655 32.4936 34.0938 32.4937C36.4553 32.4937 38.4405 32.0892 39.8311 31.5024C40.5264 31.209 41.0694 30.8714 41.4365 30.52C41.8041 30.168 41.9872 29.8109 41.9873 29.4751V28.5688ZM41.9873 25.1245C40.3152 26.3729 37.5038 27.1704 34.0938 27.1704C30.6873 27.1704 27.8752 26.4351 26.2012 25.1304V26.0308C26.2012 26.3487 26.3858 26.698 26.7598 27.0483C27.1324 27.3973 27.682 27.737 28.3818 28.0347C29.7808 28.6296 31.7655 29.0503 34.0938 29.0503C36.4553 29.0503 38.4405 28.6458 39.8311 28.0591C40.5265 27.7656 41.0694 27.4281 41.4365 27.0767C41.8045 26.7245 41.9873 26.3668 41.9873 26.0308V25.1245ZM41.9873 21.356C40.3152 22.6042 37.5036 23.4009 34.0938 23.4009C30.6907 23.4008 27.8207 22.6073 26.2012 21.3608V22.6519C26.2013 22.9871 26.3876 23.3444 26.7607 23.6968C27.1331 24.0484 27.6822 24.3857 28.3818 24.6792C29.7806 25.266 31.7651 25.6704 34.0938 25.6704C36.4553 25.6704 38.4405 25.2659 39.8311 24.6792C40.5264 24.3857 41.0694 24.0482 41.4365 23.6968C41.8041 23.3448 41.9871 22.9877 41.9873 22.6519V21.356ZM34.0938 15.7983C31.7655 15.7984 29.7808 16.219 28.3818 16.814C27.6821 17.1116 27.1323 17.4514 26.7598 17.8003C26.3861 18.1504 26.2013 18.4991 26.2012 18.8169C26.2012 19.1526 26.3872 19.5149 26.7607 19.8726C27.1331 20.2292 27.6824 20.5722 28.3818 20.8696C29.7803 21.4644 31.7647 21.8688 34.0928 21.8364H34.0938C36.4553 21.8364 38.4405 21.432 39.8311 20.8452C40.5264 20.5518 41.0694 20.2142 41.4365 19.8628C41.8043 19.5107 41.9873 19.1529 41.9873 18.8169C41.9871 18.4817 41.8008 18.1243 41.4277 17.772C41.0554 17.4204 40.5063 17.0831 39.8066 16.7896C38.4078 16.2027 36.4226 15.7983 34.0938 15.7983Z" fill="white" stroke="white" stroke-width="0.2"/>
<path d="M28.5058 23.0415C28.1808 23.0415 27.9859 23.3014 27.9859 23.5614C27.9859 23.8863 28.2458 24.0813 28.5058 24.0813C28.8307 24.0813 29.0256 23.8213 29.0256 23.5614C29.0256 23.3014 28.7657 23.0415 28.5058 23.0415ZM28.4408 27.7204C28.7657 27.7204 28.9607 27.4605 28.9607 27.2005C28.9607 26.9406 28.7007 26.6806 28.4408 26.6806C28.1159 26.6806 27.9209 26.9406 27.9209 27.2005C27.9209 27.4605 28.1808 27.7204 28.4408 27.7204ZM28.5058 31.2296C28.8307 31.2296 29.0256 30.9696 29.0256 30.7097C29.0256 30.3848 28.7657 30.1898 28.5058 30.1898C28.1808 30.1898 27.9859 30.4497 27.9859 30.7097C27.9209 30.9696 28.1808 31.2296 28.5058 31.2296ZM28.5058 33.569C28.1808 33.569 27.9859 33.8289 27.9859 34.0889C27.9859 34.4138 28.2458 34.6087 28.5058 34.6087C28.8307 34.6087 29.0256 34.3488 29.0256 34.0889C29.0256 33.7639 28.7657 33.569 28.5058 33.569Z" fill="white"/>
</svg>
