<svg width="68" height="68" viewBox="0 0 68 68" fill="none" xmlns="http://www.w3.org/2000/svg">
<rect x="4" y="4" width="60" height="60" rx="12" fill="#1248B5"/>
<rect x="2" y="2" width="64" height="64" rx="14" stroke="#1248B5" stroke-opacity="0.22" stroke-width="4"/>
<path d="M44.4191 23.448C41.6367 20.659 37.9312 19.125 33.9934 19.125C25.8652 19.125 19.2512 25.7391 19.2512 33.8672C19.2512 36.4637 19.9285 39.0004 21.2168 41.2383L19.125 48.875L26.941 46.823C29.0926 47.9984 31.5164 48.616 33.9867 48.616H33.9934C42.1148 48.616 48.875 42.002 48.875 33.8738C48.875 29.9359 47.2016 26.2371 44.4191 23.448ZM33.9934 46.1324C31.7887 46.1324 29.6305 45.5414 27.7512 44.4258L27.3062 44.1602L22.6711 45.3754L23.9062 40.8531L23.6141 40.3883C22.3855 38.4359 21.7414 36.1848 21.7414 33.8672C21.7414 27.1137 27.2398 21.6152 34 21.6152C37.2738 21.6152 40.3484 22.8902 42.6594 25.2078C44.9703 27.5254 46.3914 30.6 46.3848 33.8738C46.3848 40.634 40.7469 46.1324 33.9934 46.1324ZM40.7137 36.9551C40.3484 36.7691 38.5355 35.8793 38.1969 35.7598C37.8582 35.6336 37.6125 35.5738 37.3668 35.9457C37.1211 36.3176 36.4172 37.141 36.198 37.3934C35.9855 37.6391 35.7664 37.6723 35.4012 37.4863C33.2363 36.4039 31.8152 35.5539 30.3875 33.1035C30.009 32.4527 30.766 32.4992 31.4699 31.0914C31.5895 30.8457 31.5297 30.6332 31.4367 30.4473C31.3438 30.2613 30.6066 28.4484 30.3012 27.7113C30.0023 26.9941 29.6969 27.0938 29.4711 27.0805C29.2586 27.0672 29.0129 27.0672 28.7672 27.0672C28.5215 27.0672 28.123 27.1602 27.7844 27.5254C27.4457 27.8973 26.4961 28.7871 26.4961 30.6C26.4961 32.4129 27.8176 34.166 27.9969 34.4117C28.1828 34.6574 30.5934 38.3762 34.2922 39.9766C36.6297 40.9859 37.5461 41.0723 38.7148 40.8996C39.4254 40.7934 40.893 40.0098 41.1984 39.1465C41.5039 38.2832 41.5039 37.5461 41.4109 37.3934C41.3246 37.2273 41.0789 37.1344 40.7137 36.9551Z" fill="white"/>
</svg>
