<svg width="75" height="75" viewBox="0 0 75 75" fill="none" xmlns="http://www.w3.org/2000/svg">
<path d="M14.0625 0.585938H60.9375C68.3804 0.585938 74.4141 6.6196 74.4141 14.0625V60.9375C74.4141 68.3804 68.3804 74.4141 60.9375 74.4141H14.0625C6.6196 74.4141 0.585938 68.3804 0.585938 60.9375V14.0625C0.585938 6.6196 6.6196 0.585938 14.0625 0.585938Z" fill="#25427B" stroke="#5C719B" stroke-width="1.17188"/>
<path fill-rule="evenodd" clip-rule="evenodd" d="M16.6797 42.3886C17.1292 39.7333 19.2591 39.032 19.2591 37.1453C18.7218 30.6544 21.8423 25.666 29.028 25.3378C28.9597 25.5168 28.9247 25.7067 28.9249 25.8983V27.9889C28.9249 28.8569 29.63 29.5619 30.498 29.5619H30.5445C30.5906 29.6937 30.6402 29.8241 30.6931 29.9532H29.8854V30.9825H29.1491V29.9532H27.8308V30.9825H27.0946V29.9532H25.7762V30.9825H25.04V29.9532H23.7216V30.9825H23.3576C23.1828 30.9825 23.0151 31.0519 22.8915 31.1755C22.7679 31.2992 22.6984 31.4668 22.6984 31.6416V32.0057H21.6692V33.324H22.6984V34.0603H21.6692V35.3786H22.6984V36.1148H21.6692V37.4332H22.6984V38.1694H21.6692V39.4878H22.6984V40.224H21.6692V41.5424H22.6984V41.9064C22.6984 42.0812 22.7679 42.2489 22.8915 42.3725C23.0151 42.4961 23.1828 42.5656 23.3576 42.5656H23.7216V43.5947H25.04V42.5656H25.7762V43.5947H27.0946V42.5656H27.8308V43.5947H29.1491V42.5656H29.8854V43.5947H31.2037V42.5656H31.9399V43.5947H33.2583V42.5656H33.6224C33.7972 42.5656 33.9649 42.4961 34.0885 42.3725C34.2121 42.2489 34.2816 42.0812 34.2816 41.9064V41.5424H35.3107V40.224H34.2816V39.4878H35.3107V38.1694H34.2816V37.4332H35.3107V36.1148H34.2816V35.3786H35.3107V34.3953C35.3455 34.408 35.3803 34.4204 35.4152 34.4326V34.4791C35.4152 35.347 36.1204 36.0521 36.9883 36.0521H39.0788C39.7043 36.0521 40.2452 35.6859 40.4986 35.1565C40.8422 38.9956 39.3705 43.0577 35.933 45.5168C35.6453 50.1077 37.5639 53.3577 37.7788 54.8982L24.6804 54.8728C24.6804 52.1546 26.8682 50.1359 25.078 49.3524C23.9994 48.8803 20.4826 50.7048 19.6174 49.6279C18.9864 46.9265 18.3843 47.3845 18.3843 46.4054C19.7343 45.3771 19.6571 45.2392 18.299 44.8006L18.2867 42.6919L16.6798 42.3887L16.6797 42.3886ZM36.9882 19.1533C36.9207 19.1535 36.856 19.1803 36.8082 19.2281C36.7605 19.2758 36.7336 19.3405 36.7335 19.408V20.4578C35.888 20.6265 35.084 20.9597 34.367 21.4386L33.6243 20.6958C33.5765 20.6481 33.5117 20.6214 33.4442 20.6214C33.3767 20.6214 33.3119 20.6481 33.2641 20.6958L31.7858 22.174C31.7381 22.2218 31.7114 22.2866 31.7114 22.3541C31.7114 22.4217 31.7381 22.4864 31.7858 22.5343L32.5286 23.2771C32.0497 23.994 31.7165 24.798 31.5477 25.6434H30.498C30.4305 25.6436 30.3658 25.6704 30.318 25.7182C30.2703 25.7659 30.2434 25.8306 30.2432 25.8981V27.9887C30.2433 28.0562 30.2702 28.121 30.318 28.1687C30.3657 28.2165 30.4305 28.2434 30.498 28.2435H31.5477C31.7164 29.089 32.0496 29.893 32.5285 30.6099L31.7858 31.3527C31.7381 31.4005 31.7114 31.4653 31.7114 31.5328C31.7114 31.6003 31.7381 31.6651 31.7858 31.7129L33.264 33.1912C33.3118 33.2389 33.3766 33.2656 33.4441 33.2656C33.5116 33.2656 33.5764 33.2389 33.6242 33.1912L34.367 32.4485C35.0838 32.9274 35.8879 33.2607 36.7334 33.4293V34.479C36.7335 34.5465 36.7604 34.6112 36.8082 34.6589C36.8559 34.7067 36.9206 34.7336 36.9881 34.7337H39.0786C39.1461 34.7336 39.2108 34.7067 39.2586 34.6589C39.3063 34.6112 39.3332 34.5465 39.3333 34.479V33.4293C40.1788 33.2606 40.9829 32.9273 41.6998 32.4484L42.4425 33.1911C42.4903 33.2388 42.5551 33.2655 42.6226 33.2655C42.6901 33.2655 42.7549 33.2388 42.8027 33.1911L44.281 31.7129C44.3287 31.6651 44.3554 31.6003 44.3554 31.5328C44.3554 31.4653 44.3287 31.4005 44.281 31.3527L43.5383 30.6099C44.0172 29.893 44.3504 29.089 44.5191 28.2435H45.5689C45.6364 28.2434 45.7011 28.2165 45.7489 28.1687C45.7966 28.121 45.8235 28.0562 45.8236 27.9887V25.8981C45.8235 25.8306 45.7966 25.7659 45.7488 25.7182C45.7011 25.6704 45.6364 25.6436 45.5689 25.6434H44.5191C44.3504 24.798 44.0171 23.994 43.5383 23.2771L44.281 22.5343C44.3287 22.4865 44.3554 22.4217 44.3554 22.3542C44.3554 22.2867 44.3287 22.2219 44.281 22.1741L42.8028 20.6958C42.755 20.6481 42.6902 20.6214 42.6227 20.6214C42.5552 20.6214 42.4904 20.6481 42.4426 20.6958L41.6998 21.4386C40.9829 20.9597 40.1788 20.6265 39.3334 20.4578V19.408C39.3333 19.3405 39.3064 19.2758 39.2586 19.2281C39.2109 19.1803 39.1462 19.1535 39.0787 19.1533H36.9882ZM38.0334 22.6856C35.6819 22.6856 33.7755 24.592 33.7755 26.9435C33.7755 29.295 35.6819 31.2014 38.0334 31.2014C40.3849 31.2014 42.2913 29.295 42.2913 26.9435C42.2913 24.592 40.3849 22.6856 38.0334 22.6856ZM26.3171 33.6396L25.3219 34.635V40.0435H31.7256V33.6397H26.3171V33.6396ZM47.1419 26.449H49.6585L49.2388 26.0293C49.1776 25.9681 49.129 25.8955 49.0959 25.8155C49.0628 25.7355 49.0457 25.6498 49.0457 25.5633C49.0457 25.4767 49.0628 25.391 49.0959 25.311C49.129 25.2311 49.1776 25.1584 49.2388 25.0972C49.3 25.036 49.3727 24.9875 49.4526 24.9543C49.5326 24.9212 49.6183 24.9042 49.7048 24.9042C49.7914 24.9042 49.8771 24.9212 49.9571 24.9543C50.037 24.9875 50.1097 25.036 50.1709 25.0972L51.5347 26.4611C52.3571 26.53 53.0984 26.8945 53.651 27.4471C54.9815 28.7775 54.9815 30.9192 53.651 32.2496C53.0353 32.8653 52.1852 33.2476 51.2498 33.2476H49.027L49.4468 33.6673C49.508 33.7285 49.5565 33.8012 49.5897 33.8811C49.6228 33.9611 49.6398 34.0468 49.6398 34.1333C49.6398 34.2199 49.6228 34.3056 49.5897 34.3856C49.5565 34.4655 49.508 34.5382 49.4468 34.5994C49.3856 34.6606 49.3129 34.7091 49.233 34.7423C49.153 34.7754 49.0673 34.7925 48.9807 34.7925C48.8942 34.7925 48.8085 34.7754 48.7285 34.7423C48.6485 34.7091 48.5759 34.6606 48.5147 34.5994L47.1788 33.2635C45.4922 33.4742 44.726 35.5568 45.9666 36.7975C46.3441 37.175 46.8642 37.4093 47.4358 37.4093H49.4568L49.0371 36.9895C48.917 36.8652 48.8506 36.6987 48.8521 36.5258C48.8536 36.353 48.9229 36.1877 49.0451 36.0654C49.1673 35.9432 49.3327 35.8739 49.5055 35.8724C49.6783 35.8709 49.8448 35.9373 49.9692 36.0574L51.3211 37.4093H51.9572C52.957 37.4093 53.7709 38.2232 53.7709 39.223V41.2099L54.1906 40.7902C54.2518 40.7289 54.3245 40.6804 54.4045 40.6473C54.4844 40.6141 54.5701 40.5971 54.6567 40.5971C54.7432 40.5971 54.8289 40.6141 54.9089 40.6473C54.9889 40.6804 55.0615 40.7289 55.1227 40.7902C55.1839 40.8513 55.2325 40.924 55.2656 41.004C55.2987 41.0839 55.3158 41.1696 55.3158 41.2562C55.3158 41.3427 55.2987 41.4284 55.2656 41.5084C55.2325 41.5884 55.1839 41.661 55.1227 41.7222L53.7708 43.0741V43.911H52.4525V43.0741L51.1006 41.7222C51.0394 41.661 50.9908 41.5884 50.9577 41.5084C50.9245 41.4284 50.9075 41.3427 50.9075 41.2562C50.9075 41.1696 50.9245 41.0839 50.9577 41.004C50.9908 40.924 51.0394 40.8513 51.1006 40.7902C51.1618 40.7289 51.2344 40.6804 51.3144 40.6473C51.3943 40.6141 51.4801 40.5971 51.5666 40.5971C51.6532 40.5971 51.7389 40.6141 51.8188 40.6473C51.8988 40.6804 51.9715 40.7289 52.0326 40.7902L52.4524 41.2099V39.223C52.4524 38.951 52.2289 38.7277 51.957 38.7277H51.3209L49.969 40.0796C49.8448 40.2002 49.6781 40.2671 49.5049 40.2658C49.3318 40.2646 49.1661 40.1952 49.0436 40.0728C48.9212 39.9503 48.8519 39.7846 48.8506 39.6115C48.8494 39.4383 48.9163 39.2716 49.0369 39.1474L49.4567 38.7277H47.4356C45.5647 38.7277 44.0364 37.1994 44.0364 35.3284C44.0364 34.3929 44.4186 33.5429 45.0344 32.9271C45.587 32.3745 46.3284 32.01 47.1507 31.9411L48.5145 30.5772C48.6388 30.4572 48.8054 30.3907 48.9782 30.3922C49.151 30.3937 49.3164 30.463 49.4386 30.5853C49.5608 30.7075 49.6301 30.8728 49.6316 31.0456C49.6331 31.2185 49.5667 31.385 49.4466 31.5093L49.0269 31.929H51.2496C53.074 31.929 54.0408 29.7011 52.7187 28.379C52.3987 28.059 51.9761 27.8419 51.5066 27.7832L50.1707 29.1191C50.0464 29.2392 49.8799 29.3056 49.707 29.3041C49.5342 29.3026 49.3689 29.2333 49.2467 29.1111C49.1244 28.9889 49.0551 28.8236 49.0536 28.6507C49.0521 28.4779 49.1186 28.3114 49.2386 28.187L49.6584 27.7673H47.1419V26.449L47.1419 26.449ZM50.76 45.2295H56.8898C57.1616 45.2295 57.384 45.4519 57.384 45.7237V54.415C57.384 54.6868 57.1616 54.9092 56.8898 54.9092H49.3336C49.0617 54.9092 48.8393 54.6868 48.8393 54.415V47.0606L50.76 45.2295ZM50.8528 48.3388H55.3706C55.5454 48.3388 55.7131 48.2694 55.8367 48.1458C55.9603 48.0221 56.0297 47.8545 56.0297 47.6796C56.0297 47.5048 55.9603 47.3372 55.8367 47.2135C55.7131 47.0899 55.5454 47.0205 55.3706 47.0205H50.8528C50.678 47.0205 50.5103 47.0899 50.3867 47.2135C50.2631 47.3372 50.1936 47.5048 50.1936 47.6796C50.1936 47.8545 50.2631 48.0221 50.3867 48.1458C50.5103 48.2694 50.678 48.3388 50.8528 48.3388ZM50.8528 53.1181H55.3706C55.5454 53.1181 55.7131 53.0487 55.8367 52.9251C55.9603 52.8014 56.0297 52.6338 56.0297 52.459C56.0297 52.2841 55.9603 52.1165 55.8367 51.9928C55.7131 51.8692 55.5454 51.7998 55.3706 51.7998H50.8528C50.678 51.7998 50.5103 51.8692 50.3867 51.9928C50.2631 52.1165 50.1936 52.2841 50.1936 52.459C50.1936 52.6338 50.2631 52.8014 50.3867 52.9251C50.5103 53.0487 50.678 53.1181 50.8528 53.1181ZM50.8528 50.7285H55.3706C55.5454 50.7285 55.7131 50.6591 55.8367 50.5355C55.9603 50.4118 56.0297 50.2442 56.0297 50.0693C56.0297 49.8945 55.9603 49.7269 55.8367 49.6032C55.7131 49.4796 55.5454 49.4102 55.3706 49.4102H50.8528C50.678 49.4102 50.5103 49.4796 50.3867 49.6032C50.2631 49.7269 50.1936 49.8945 50.1936 50.0693C50.1936 50.2442 50.2631 50.4118 50.3867 50.5355C50.5103 50.6591 50.678 50.7285 50.8528 50.7285Z" fill="white"/>
</svg>
