<svg width="74" height="74" viewBox="0 0 74 74" fill="none" xmlns="http://www.w3.org/2000/svg">
<rect x="2.5" y="2.5" width="69" height="69" rx="14.5" fill="#1248B5" stroke="#BACCEF" stroke-width="5"/>
<g clip-path="url(#clip0_3974_202)">
<path d="M13 13H61V61H13V13Z" fill="#1248B5"/>
<path d="M32.5005 26.4999C32.5005 24.3785 32.5005 23.3178 33.16 22.6596C33.8182 22 34.8788 22 37 22C39.1212 22 40.1818 22 40.8413 22.6596C41.4995 23.3178 41.4995 24.3785 41.4995 26.4999C41.4995 28.6212 41.4995 29.6819 40.8413 30.3415C40.1818 30.9997 39.1212 30.9997 37 30.9997C34.8788 30.9997 33.8182 30.9997 33.16 30.3415C32.5005 29.6819 32.5005 28.6212 32.5005 26.4999ZM22 47.5001C22 45.3788 22 44.3181 22.6595 43.6585C23.3177 43.0003 24.3783 43.0003 26.4995 43.0003C28.6207 43.0003 29.6813 43.0003 30.3408 43.6585C30.999 44.3181 30.999 45.3788 30.999 47.5001C30.999 49.6215 30.999 50.6822 30.3408 51.3404C29.6813 52 28.6207 52 26.4995 52C24.3783 52 23.3177 52 22.6595 51.3404C22 50.6822 22 49.6215 22 47.5001ZM43.001 47.5001C43.001 45.3788 43.001 44.3181 43.6592 43.6585C44.3187 43.0003 45.3793 43.0003 47.5005 43.0003C49.6217 43.0003 50.6823 43.0003 51.3418 43.6585C52 44.3181 52 45.3788 52 47.5001C52 49.6215 52 50.6822 51.3418 51.3404C50.6823 52 49.6217 52 47.5005 52C45.3793 52 44.3187 52 43.6592 51.3404C43.001 50.6822 43.001 49.6215 43.001 47.5001Z" stroke="white" stroke-width="1.5"/>
<path d="M36.5 31V32.5003M36.5 32.5003C36.5 33.8978 36.5 34.5959 36.7662 35.1487C37.121 35.8828 37.8025 36.4678 38.6602 36.7712C39.3031 37 40.1196 37 41.75 37C43.3804 37 44.1969 37 44.8398 37.2276C45.6975 37.5322 46.3789 38.1172 46.7338 38.8513C47 39.4041 47 40.1022 47 41.4997V43M36.5 32.5003C36.5 33.8978 36.5013 34.5959 36.2351 35.1487C35.8789 35.8828 35.1975 36.4678 34.3398 36.7712C33.6969 37 32.8817 37 31.25 37C29.6196 37 28.8044 37 28.1615 37.2276C27.3025 37.5322 26.6211 38.1172 26.2662 38.8513C26 39.4041 26 40.1022 26 41.4997V43" stroke="white" stroke-width="1.5" stroke-linecap="round" stroke-linejoin="round"/>
</g>
<defs>
<clipPath id="clip0_3974_202">
<rect width="48" height="48" fill="white" transform="translate(13 13)"/>
</clipPath>
</defs>
</svg>
