<svg width="50" height="50" viewBox="0 0 50 50" fill="none" xmlns="http://www.w3.org/2000/svg">
<path d="M25.0156 0C26.4279 0.00259442 27.8169 0.121938 29.1671 0.347652V14.9023L39.4857 4.61029C40.6254 5.41973 41.6916 6.32 42.6773 7.30329C43.6635 8.28659 44.5688 9.35291 45.3802 10.4893L35.0611 20.7813H49.6539C49.8803 22.1278 50 23.5081 50 24.9194V24.9531C50 26.3645 49.8803 27.7473 49.6539 29.0938H35.0586L45.3802 39.3833C44.5688 40.5196 43.6635 41.586 42.6803 42.5693H42.6773C41.6916 43.5526 40.6254 44.4554 39.4887 45.2623L29.1671 34.9702V49.5249C27.8194 49.7506 26.4304 49.8698 25.0181 49.8728H24.9819C23.5691 49.8698 22.1856 49.7506 20.8354 49.5249V34.9702L10.5168 45.2623C8.23791 43.6459 6.24559 41.656 4.62225 39.3833L14.9414 29.0938H0.348605C0.119678 27.7447 0 26.3567 0 24.9453V24.8729C0.00237217 24.5066 0.0263554 24.0592 0.0608031 23.5963L0.07144 23.457C0.173437 22.154 0.348605 20.7813 0.348605 20.7813H14.9414L4.62225 10.4893C5.43119 9.35291 6.33399 8.28917 7.31971 7.30851L7.32468 7.30329C8.30842 6.32 9.37708 5.41973 10.5168 4.61029L20.8354 14.9023V0.347652C22.1856 0.121938 23.5721 0.00259442 24.9868 0H25.0156ZM25.0132 18.7032H24.9893C23.1321 18.7032 21.3533 19.043 19.7091 19.6605C19.0928 21.2976 18.7517 23.0722 18.7492 24.9246V24.9479C18.7517 26.8003 19.0928 28.575 19.7116 30.212C21.3533 30.8295 23.1321 31.1694 24.9893 31.1694H25.0132C26.8704 31.1694 28.6492 30.8295 30.2909 30.212C30.9097 28.5724 31.2508 26.8003 31.2508 24.9479V24.9246C31.2508 23.0722 30.9097 21.2976 30.2909 19.6605C28.6492 19.043 26.8704 18.7032 25.0132 18.7032Z" fill="#FF4A00"/>
</svg>
