<svg xmlns="http://www.w3.org/2000/svg" width="76" height="80" viewBox="0 0 76 80" fill="none"><path fill-rule="evenodd" clip-rule="evenodd" d="M45.5987 0.163886C43.8814 0.666249 42.2628 1.90004 41.5441 3.25474L41.1599 3.9789L38.2541 3.97987C34.1985 3.981 33.8145 4.12661 33.8145 5.66324V6.40031H27.144C19.7115 6.40031 19.5663 6.41807 18.3299 7.47639C17.9607 7.7923 17.4621 8.42397 17.2214 8.88016L16.7839 9.70958L16.7398 26.4603L16.6959 43.211L16.139 44.0814C13.6682 47.944 13.1182 53.1489 14.7083 57.6232C14.9351 58.2613 15.3654 59.227 15.6646 59.7691L16.2086 60.7547L14.5717 62.2688L12.935 63.7828L11.9537 63.7373C11.2413 63.7042 10.8321 63.7712 10.46 63.9818C9.69578 64.4145 0.807261 72.6734 0.588043 73.1545C0.329597 73.7217 0.35026 74.93 0.627431 75.459C0.992903 76.1567 4.482 79.4958 5.12738 79.7654C5.85994 80.0715 6.54536 80.0779 7.24531 79.7856C7.92412 79.5019 16.6355 71.5097 17.2043 70.6488L17.6246 70.0124L18.0025 70.4147C18.2103 70.6359 18.7838 71.0151 19.2772 71.2574L20.1739 71.6977H46.2444H72.315L73.0414 71.3565C73.8995 70.9532 74.8407 70.0429 75.2504 69.2198C75.53 68.6579 75.5454 67.2729 75.5852 39.3536C75.6134 19.5497 75.5727 9.87569 75.4597 9.45598C75.214 8.54391 74.373 7.55081 73.3642 6.98178L72.4764 6.48103L66.7054 6.43308L60.9343 6.38514V5.90328C60.9343 5.63822 60.8312 5.17443 60.7051 4.87273C60.3835 4.10336 59.7906 3.98084 56.3808 3.97987L53.5222 3.9789L53.1193 3.29284C52.4909 2.22273 51.2753 1.1402 50.0719 0.579239C49.1856 0.165985 48.7218 0.0568599 47.6505 0.0097231C46.8541 -0.0253067 46.0352 0.0361972 45.5987 0.163886ZM46.0351 2.75883C44.8142 3.19436 44.202 3.7429 43.6453 4.90065C42.7863 6.68636 43.0958 6.56174 39.5202 6.56174H36.3973V9.38672V12.2117H47.3783H58.3591L58.315 9.42708L58.2708 6.64246L55.1045 6.59871C51.5305 6.54947 51.6899 6.60597 51.171 5.20155C50.422 3.17322 48.044 2.04226 46.0351 2.75883ZM46.5548 4.45076C45.9663 5.03932 45.934 5.72474 46.4656 6.34285C47.4742 7.51546 49.3538 6.29539 48.7533 4.85804C48.3527 3.89916 47.3011 3.70448 46.5548 4.45076ZM20.2152 9.26646C19.2468 9.86681 19.286 9.1872 19.286 25.3521C19.286 33.4848 19.318 40.1387 19.3569 40.1387C19.396 40.1387 19.9847 39.7391 20.6653 39.2508C21.346 38.7625 21.9678 38.363 22.0472 38.363C22.131 38.363 22.1917 32.8368 22.1917 25.1994V12.0356L22.588 11.6394L22.9842 11.2431H28.3994H33.8145V10.1131V8.98315L27.2363 8.98751C21.3286 8.99139 20.613 9.0198 20.2152 9.26646ZM60.9343 10.1072V11.2431H65.1421C67.578 11.2431 69.4742 11.3096 69.6451 11.4012C69.8075 11.488 70.0206 11.7894 70.1187 12.0709C70.3434 12.7155 70.374 58.8026 70.1501 59.3915C70.0269 59.7153 68.3066 61.3273 62.7539 66.3217L62.0716 66.9356H50.2896C38.6728 66.9356 38.4959 66.9405 37.6544 67.2769C35.3279 68.2072 33.3644 68.5744 30.7474 68.5688C27.3259 68.5617 24.1913 67.6582 21.3381 65.857C20.6607 65.4293 20.6616 65.4292 19.73 66.2717C18.9677 66.961 19.2006 68.1268 20.2404 68.8276L20.7867 69.1956H46.112C73.4232 69.1956 72.1724 69.2344 72.7781 68.3696C73.0191 68.0256 73.0414 65.548 73.0414 39.056V10.1183L72.5705 9.59109L72.0996 9.06387L66.517 9.01754L60.9343 8.97105V10.1072ZM24.7746 25.466C24.7746 36.4878 24.7896 37.1 25.0571 36.9916C25.2125 36.9288 25.9743 36.7212 26.7501 36.5304L28.1605 36.1837L28.1626 28.549L28.1645 20.9141L28.5608 20.518L28.957 20.1217H38.3345H47.712L48.1081 20.518L48.5044 20.9141V28.969V37.0238L48.1412 37.5574C47.3528 38.7158 47.2083 38.7578 43.7013 38.8472L40.5352 38.928L41.2334 39.3893C42.2394 40.0541 44.3087 42.1581 45.0662 43.2865C49.36 49.6832 48.7441 57.5638 43.5047 63.2631L42.503 64.3528H51.1536H59.8043V60.8748C59.8043 57.3972 59.8043 57.3967 60.2006 57.0006L60.5968 56.6043H64.1556H67.7143V35.2151V13.826H64.2436C62.0374 13.826 60.7729 13.8847 60.7729 13.9874C60.7729 14.0762 60.6276 14.2941 60.45 14.4717C60.1327 14.7891 59.912 14.7945 47.3081 14.7945H34.4889L34.0813 14.3103L33.6739 13.826H29.2243H24.7746V25.466ZM51.5715 20.2831C51.1492 20.7054 51.1433 21.6305 51.5599 22.0472C52.0287 22.5159 52.8071 22.5684 58.4868 22.5132L63.707 22.4624L64.0964 22.0094C64.574 21.4539 64.5911 20.9449 64.1511 20.3856L63.8166 19.9602H57.8554C52.1096 19.9602 51.8828 19.9718 51.5715 20.2831ZM30.7474 29.2991V35.9049L31.272 36.0163C31.5605 36.0776 34.9748 36.1656 38.8591 36.2116L45.9216 36.2956V29.4999V22.7045H44.2266H42.5316V25.5923C42.5316 29.5642 42.8998 29.2423 38.3545 29.2423C35.1547 29.2423 34.7655 29.2132 34.5064 28.9545C34.2573 28.706 34.2071 28.2662 34.1374 25.7259L34.0566 22.7852L32.402 22.7392L30.7474 22.6932V29.2991ZM36.5941 24.682L36.6395 26.6595L38.2941 26.7055L39.9487 26.7515V24.728V22.7045H38.2488H36.5488L36.5941 24.682ZM51.5996 25.6609C51.1633 26.1255 51.1446 26.8985 51.5572 27.4083L51.8655 27.7895L57.4896 27.8366C60.5827 27.8624 63.275 27.8434 63.4723 27.7943C64.4455 27.5517 64.7876 26.3818 64.0894 25.6836L63.6933 25.2873H57.822H51.9507L51.5996 25.6609ZM51.674 30.9491C51.0695 31.4245 51.0732 32.39 51.6811 32.8683C52.1057 33.2023 52.2229 33.2078 57.9913 33.1626L63.8688 33.1166L64.1772 32.7354C64.6068 32.2048 64.5705 31.4916 64.0894 31.0107L63.6933 30.6144H57.8963C52.2762 30.6144 52.0863 30.6246 51.674 30.9491ZM51.7205 36.4134C51.2086 36.9253 51.1462 37.2231 51.4364 37.7683C51.8334 38.5136 51.8363 38.5139 57.8943 38.5192C61.0612 38.5221 63.7698 38.4792 63.9135 38.4241C64.2077 38.3111 64.6472 37.5468 64.6472 37.1479C64.6472 37.0034 64.4349 36.673 64.1753 36.4134L63.7034 35.9415H57.9479H52.1924L51.7205 36.4134ZM29.2093 38.6806C22.9466 39.3838 17.8438 43.8552 16.6372 49.6976C15.948 53.0335 16.6551 56.678 18.5564 59.5915C19.4429 60.9497 21.4078 62.8541 22.8374 63.7403C25.3626 65.3057 27.8602 65.9939 30.9895 65.9861C37.7861 65.9692 43.5986 61.4829 45.0273 55.1514C45.3353 53.7862 45.3837 51.1763 45.1254 49.8558C44.187 45.0572 40.4127 40.9045 35.5902 39.3645C33.5299 38.7065 31.2013 38.4569 29.2093 38.6806ZM28.1645 40.5304C23.8041 41.4997 20.41 44.3808 18.9653 48.3397C16.4954 55.1069 20.6139 62.2938 27.9694 64.0524C29.8314 64.4976 32.8258 64.4135 34.5409 63.8679C38.7815 62.5188 41.7706 59.5663 43.0385 55.4743C43.5744 53.7444 43.5741 50.9044 43.0377 49.1826C42.5752 47.6981 42.0559 46.6481 41.1591 45.3828C39.4869 43.0234 36.5883 41.1844 33.5147 40.533C32.2236 40.2594 29.3904 40.258 28.1645 40.5304ZM52.059 41.4729C51.2257 41.9011 51.0697 42.9867 51.7577 43.569C52.0623 43.8268 52.6053 43.8515 57.9479 43.8515C63.2881 43.8515 63.8342 43.8266 64.1445 43.569C64.6957 43.1113 64.7497 42.3744 64.2726 41.8196L63.8683 41.3494L58.1639 41.3082C53.7912 41.2766 52.3659 41.315 52.059 41.4729ZM28.326 43.1365C24.7918 44.0614 21.973 46.7775 21.0501 50.1472C20.7198 51.3527 20.8031 53.7732 21.2164 54.99C22.6109 59.0948 26.4103 61.7748 30.8249 61.7675C33.7444 61.7628 36.0386 60.8377 38.0203 58.8665C40.4345 56.465 41.3921 53.3917 40.6745 50.3483C39.8625 46.9046 36.8713 43.9664 33.3302 43.1343C32.0243 42.8274 29.5029 42.8285 28.326 43.1365ZM51.7186 47.0592C51.2141 47.4676 51.2074 48.402 51.7052 48.8997C52.0639 49.2585 52.0789 49.2593 57.9663 49.2593H63.8679L64.2725 48.7891C64.723 48.2652 64.7012 47.5856 64.2166 47.0503C63.9695 46.7772 63.5457 46.7572 58.0215 46.7572C52.4683 46.7572 52.0679 46.7764 51.7186 47.0592ZM62.3872 61.1242C62.3872 62.1897 62.4225 63.0614 62.466 63.0614C62.5336 63.0614 65.571 60.3715 66.4991 59.4896C66.8111 59.1931 66.7735 59.1871 64.6023 59.1871H62.3872V61.1242ZM16.4123 64.0575C15.7288 64.6942 15.101 65.2749 15.0174 65.348C14.9267 65.4269 15.05 65.6737 15.3219 65.9574L15.7787 66.4342L17.1994 65.1312L18.6203 63.8283L18.2771 63.364C18.0884 63.1088 17.8711 62.8999 17.7944 62.8999C17.7176 62.8999 17.0958 63.4209 16.4123 64.0575ZM7.2705 70.2696L2.95651 74.2493L4.54076 75.8396C5.41214 76.7143 6.17973 77.4115 6.24624 77.3889C6.43559 77.3246 14.9275 69.4791 14.9275 69.3685C14.9275 69.1927 11.9406 66.2899 11.7596 66.2899C11.6633 66.2899 9.64316 68.0808 7.2705 70.2696Z" fill="#E23333"></path></svg>