<svg xmlns="http://www.w3.org/2000/svg" width="58" height="82" viewBox="0 0 58 82" fill="none"><mask id="path-1-outside-1_4005_7835" maskUnits="userSpaceOnUse" x="0.0458984" y="0" width="58" height="82" fill="black"><rect fill="white" x="0.0458984" width="58" height="82"></rect><path fill-rule="evenodd" clip-rule="evenodd" d="M11.5935 1.17557C10.4682 1.50174 9.38085 2.41719 8.82564 3.50595L8.29768 4.54142L8.24736 14.7077L8.19705 24.8737L6.50032 24.9588C4.41959 25.0629 3.47531 25.4607 2.35755 26.7039C0.982274 28.2336 1.04744 27.3061 1.04744 45.3608C1.04744 63.7263 0.935454 62.3945 2.621 64.0818C4.20068 65.6632 3.91172 65.626 14.6188 65.626H23.759V68.858V72.0901H21.515C19.5628 72.0901 19.2333 72.1317 18.9817 72.4096C18.731 72.6865 18.6926 73.2415 18.6926 76.5754C18.6926 80.0798 18.7211 80.4474 19.0121 80.7109C19.3013 80.9726 20.2508 81 29.0306 81C38.2048 81 38.7452 80.9827 39.0186 80.6805C39.2693 80.4036 39.3077 79.8485 39.3077 76.5146C39.3077 73.0102 39.2793 72.6427 38.9882 72.3792C38.7263 72.1421 38.2698 72.0901 36.455 72.0901H34.2413V68.858V65.626H43.3815C54.101 65.626 53.7967 65.6655 55.3945 64.0676C57.0541 62.4081 56.9529 63.6284 56.9529 45.2729C56.9529 27.3161 57.0175 28.2331 55.6428 26.7039C54.525 25.4607 53.5808 25.0629 51.5 24.9588L49.8033 24.8737L49.753 14.7077L49.7027 4.54142L49.1747 3.50595C48.6017 2.38243 47.5267 1.49894 46.3268 1.16578C45.5091 0.938493 12.3788 0.947927 11.5935 1.17557ZM11.6171 3.08089C11.2327 3.27255 10.7217 3.71839 10.4815 4.07199C10.065 4.68503 10.0447 4.83283 10.0447 7.2614V9.80789H29.0002H47.9556V7.27468C47.9556 4.93905 47.9245 4.69132 47.5559 4.09872C47.3213 3.72136 46.8476 3.30661 46.409 3.09417C45.6689 2.73603 45.4949 2.73236 28.9886 2.73253C12.6843 2.73271 12.3005 2.7404 11.6171 3.08089ZM22.8252 5.32305C22.4622 5.72417 22.4571 6.1225 22.8106 6.4761C23.0338 6.6992 23.5389 6.75056 25.5145 6.75056C27.913 6.75056 27.9476 6.74497 28.2301 6.3138C28.4951 5.90919 28.4951 5.8449 28.2301 5.44028C27.9476 5.00928 27.9121 5.00352 25.5291 5.00352C23.4115 5.00352 23.0787 5.04283 22.8252 5.32305ZM14.4997 5.70234C14.0776 6.12442 14.0568 6.45741 14.4295 6.83006C14.6644 7.06503 15.1122 7.10155 17.2644 7.06084L19.8201 7.01262L19.9954 6.51384C20.1461 6.08477 20.1135 5.96894 19.7616 5.68399C19.4075 5.3973 19.0509 5.35293 17.1009 5.35293C15.082 5.35293 14.8129 5.38909 14.4997 5.70234ZM9.96104 23.7093C9.96314 36.8653 9.93466 36.4717 10.9612 37.5433C11.4347 38.0375 12.3054 38.3695 13.1335 38.371L13.6019 38.3721L13.5011 36.4607C13.1235 29.3032 17.3579 23.1057 24.2325 20.754C26.6044 19.9425 30.3314 19.8206 32.8437 20.4722C37.1225 21.5819 40.882 24.6193 42.8902 28.5886C44.1388 31.0569 44.652 33.5668 44.4993 36.4607L44.3985 38.3721L44.8668 38.371C46.2856 38.3682 47.5023 37.4603 47.858 36.1392C47.9719 35.7159 48.0379 31.1412 48.0391 23.5582L48.0414 11.6423H29.0002H9.95912L9.96104 23.7093ZM26.1175 22.0222C23.3254 22.6644 21.3654 23.779 19.2111 25.9497C17.8098 27.3617 17.415 27.8909 16.7211 29.2875C15.6858 31.3708 15.3732 32.5605 15.25 34.886C15.0294 39.0503 16.5413 42.7741 19.6224 45.655C24.9364 50.624 33.064 50.624 38.378 45.655C41.4618 42.7715 42.9748 39.0421 42.747 34.886C42.6214 32.595 42.3072 31.403 41.2719 29.2875C40.5812 27.8758 40.2104 27.3765 38.7918 25.948C36.9248 24.0675 35.4286 23.1244 33.1057 22.3639C31.3782 21.7984 27.8429 21.6254 26.1175 22.0222ZM25.3723 25.2698C23.5192 26.5072 22.5074 28.4152 22.5006 30.6851C22.4943 32.7927 23.4751 34.8001 25.0711 35.9463L25.8555 36.5096L25.8558 40.5419C25.856 45.0787 25.9441 45.4812 27.0784 46.1405C27.9429 46.6428 30.0575 46.6428 30.9219 46.1405C32.0566 45.4812 32.1443 45.0792 32.1445 40.536L32.1449 36.4979L32.8489 36.0099C33.6395 35.462 34.629 34.1989 35.042 33.2104C36.3128 30.169 34.9957 26.4595 32.0994 24.923C31.3414 24.5208 31.2928 24.5161 30.8541 24.8035C30.4043 25.0984 30.3978 25.1319 30.3978 27.195V29.2875H29.0002H27.6025V27.201C27.6025 25.2427 27.5786 25.0977 27.2142 24.8424C26.6659 24.4583 26.5456 24.4862 25.3723 25.2698ZM4.89216 26.9452C4.09848 27.2894 3.5389 27.822 3.12695 28.6253C2.80864 29.2459 2.79448 29.8465 2.79448 42.7327V56.192H29.0002H55.2059L55.202 42.7834C55.1983 30.1208 55.1802 29.3358 54.8757 28.676C54.2223 27.2602 53.1125 26.6669 51.1181 26.6669H49.8143L49.7573 31.6023C49.6939 37.1048 49.6766 37.1972 48.453 38.5555C47.6064 39.4954 46.617 39.9378 45.0728 40.0672C43.8647 40.1686 43.86 40.171 43.6567 40.7991C43.0202 42.765 41.5162 45.0477 39.716 46.7799C33.7142 52.5551 24.2861 52.5551 18.2843 46.7799C16.4842 45.0477 14.9801 42.765 14.3437 40.7991C14.1403 40.171 14.1356 40.1686 12.9275 40.0672C11.3833 39.9378 10.394 39.4954 9.54734 38.5555C8.32371 37.1972 8.30641 37.1048 8.243 31.6023L8.18604 26.6669L6.84414 26.6737C6.04539 26.6777 5.25555 26.7876 4.89216 26.9452ZM25.2812 27.7018C24.5431 28.5804 24.2473 29.4288 24.2412 30.6851C24.2323 32.491 25.1163 33.89 27.1443 35.2793L27.6025 35.5931V40.0339C27.6025 45.0469 27.5412 44.8362 29.0002 44.8362C30.4591 44.8362 30.3978 45.0469 30.3978 40.0339V35.5931L30.8561 35.2793C31.9223 34.5489 33.0159 33.4038 33.3772 32.64C34.1381 31.0315 33.763 28.6501 32.5729 27.5322L32.1449 27.13V28.8103C32.1449 31.0476 32.1634 31.0345 28.9806 31.0345C25.8714 31.0345 25.878 31.0392 25.8144 28.7726L25.7681 27.1222L25.2812 27.7018ZM2.82279 59.845C2.87922 61.6674 2.90525 61.7808 3.41608 62.4219C3.70994 62.7909 4.29659 63.2696 4.71973 63.4859L5.48913 63.879H29.0002H52.5112L53.2806 63.4859C53.7037 63.2696 54.2904 62.7909 54.5843 62.4219C55.0951 61.7808 55.1211 61.6674 55.1776 59.845L55.2368 57.939H29.0002H2.76356L2.82279 59.845ZM25.5061 68.858V72.0901H29.0002H32.4943V68.858V65.626H29.0002H25.5061V68.858ZM20.4396 76.545V79.253H29.0002H37.5607V76.545V73.8371H29.0002H20.4396V76.545Z"></path></mask><path fill-rule="evenodd" clip-rule="evenodd" d="M11.5935 1.17557C10.4682 1.50174 9.38085 2.41719 8.82564 3.50595L8.29768 4.54142L8.24736 14.7077L8.19705 24.8737L6.50032 24.9588C4.41959 25.0629 3.47531 25.4607 2.35755 26.7039C0.982274 28.2336 1.04744 27.3061 1.04744 45.3608C1.04744 63.7263 0.935454 62.3945 2.621 64.0818C4.20068 65.6632 3.91172 65.626 14.6188 65.626H23.759V68.858V72.0901H21.515C19.5628 72.0901 19.2333 72.1317 18.9817 72.4096C18.731 72.6865 18.6926 73.2415 18.6926 76.5754C18.6926 80.0798 18.7211 80.4474 19.0121 80.7109C19.3013 80.9726 20.2508 81 29.0306 81C38.2048 81 38.7452 80.9827 39.0186 80.6805C39.2693 80.4036 39.3077 79.8485 39.3077 76.5146C39.3077 73.0102 39.2793 72.6427 38.9882 72.3792C38.7263 72.1421 38.2698 72.0901 36.455 72.0901H34.2413V68.858V65.626H43.3815C54.101 65.626 53.7967 65.6655 55.3945 64.0676C57.0541 62.4081 56.9529 63.6284 56.9529 45.2729C56.9529 27.3161 57.0175 28.2331 55.6428 26.7039C54.525 25.4607 53.5808 25.0629 51.5 24.9588L49.8033 24.8737L49.753 14.7077L49.7027 4.54142L49.1747 3.50595C48.6017 2.38243 47.5267 1.49894 46.3268 1.16578C45.5091 0.938493 12.3788 0.947927 11.5935 1.17557ZM11.6171 3.08089C11.2327 3.27255 10.7217 3.71839 10.4815 4.07199C10.065 4.68503 10.0447 4.83283 10.0447 7.2614V9.80789H29.0002H47.9556V7.27468C47.9556 4.93905 47.9245 4.69132 47.5559 4.09872C47.3213 3.72136 46.8476 3.30661 46.409 3.09417C45.6689 2.73603 45.4949 2.73236 28.9886 2.73253C12.6843 2.73271 12.3005 2.7404 11.6171 3.08089ZM22.8252 5.32305C22.4622 5.72417 22.4571 6.1225 22.8106 6.4761C23.0338 6.6992 23.5389 6.75056 25.5145 6.75056C27.913 6.75056 27.9476 6.74497 28.2301 6.3138C28.4951 5.90919 28.4951 5.8449 28.2301 5.44028C27.9476 5.00928 27.9121 5.00352 25.5291 5.00352C23.4115 5.00352 23.0787 5.04283 22.8252 5.32305ZM14.4997 5.70234C14.0776 6.12442 14.0568 6.45741 14.4295 6.83006C14.6644 7.06503 15.1122 7.10155 17.2644 7.06084L19.8201 7.01262L19.9954 6.51384C20.1461 6.08477 20.1135 5.96894 19.7616 5.68399C19.4075 5.3973 19.0509 5.35293 17.1009 5.35293C15.082 5.35293 14.8129 5.38909 14.4997 5.70234ZM9.96104 23.7093C9.96314 36.8653 9.93466 36.4717 10.9612 37.5433C11.4347 38.0375 12.3054 38.3695 13.1335 38.371L13.6019 38.3721L13.5011 36.4607C13.1235 29.3032 17.3579 23.1057 24.2325 20.754C26.6044 19.9425 30.3314 19.8206 32.8437 20.4722C37.1225 21.5819 40.882 24.6193 42.8902 28.5886C44.1388 31.0569 44.652 33.5668 44.4993 36.4607L44.3985 38.3721L44.8668 38.371C46.2856 38.3682 47.5023 37.4603 47.858 36.1392C47.9719 35.7159 48.0379 31.1412 48.0391 23.5582L48.0414 11.6423H29.0002H9.95912L9.96104 23.7093ZM26.1175 22.0222C23.3254 22.6644 21.3654 23.779 19.2111 25.9497C17.8098 27.3617 17.415 27.8909 16.7211 29.2875C15.6858 31.3708 15.3732 32.5605 15.25 34.886C15.0294 39.0503 16.5413 42.7741 19.6224 45.655C24.9364 50.624 33.064 50.624 38.378 45.655C41.4618 42.7715 42.9748 39.0421 42.747 34.886C42.6214 32.595 42.3072 31.403 41.2719 29.2875C40.5812 27.8758 40.2104 27.3765 38.7918 25.948C36.9248 24.0675 35.4286 23.1244 33.1057 22.3639C31.3782 21.7984 27.8429 21.6254 26.1175 22.0222ZM25.3723 25.2698C23.5192 26.5072 22.5074 28.4152 22.5006 30.6851C22.4943 32.7927 23.4751 34.8001 25.0711 35.9463L25.8555 36.5096L25.8558 40.5419C25.856 45.0787 25.9441 45.4812 27.0784 46.1405C27.9429 46.6428 30.0575 46.6428 30.9219 46.1405C32.0566 45.4812 32.1443 45.0792 32.1445 40.536L32.1449 36.4979L32.8489 36.0099C33.6395 35.462 34.629 34.1989 35.042 33.2104C36.3128 30.169 34.9957 26.4595 32.0994 24.923C31.3414 24.5208 31.2928 24.5161 30.8541 24.8035C30.4043 25.0984 30.3978 25.1319 30.3978 27.195V29.2875H29.0002H27.6025V27.201C27.6025 25.2427 27.5786 25.0977 27.2142 24.8424C26.6659 24.4583 26.5456 24.4862 25.3723 25.2698ZM4.89216 26.9452C4.09848 27.2894 3.5389 27.822 3.12695 28.6253C2.80864 29.2459 2.79448 29.8465 2.79448 42.7327V56.192H29.0002H55.2059L55.202 42.7834C55.1983 30.1208 55.1802 29.3358 54.8757 28.676C54.2223 27.2602 53.1125 26.6669 51.1181 26.6669H49.8143L49.7573 31.6023C49.6939 37.1048 49.6766 37.1972 48.453 38.5555C47.6064 39.4954 46.617 39.9378 45.0728 40.0672C43.8647 40.1686 43.86 40.171 43.6567 40.7991C43.0202 42.765 41.5162 45.0477 39.716 46.7799C33.7142 52.5551 24.2861 52.5551 18.2843 46.7799C16.4842 45.0477 14.9801 42.765 14.3437 40.7991C14.1403 40.171 14.1356 40.1686 12.9275 40.0672C11.3833 39.9378 10.394 39.4954 9.54734 38.5555C8.32371 37.1972 8.30641 37.1048 8.243 31.6023L8.18604 26.6669L6.84414 26.6737C6.04539 26.6777 5.25555 26.7876 4.89216 26.9452ZM25.2812 27.7018C24.5431 28.5804 24.2473 29.4288 24.2412 30.6851C24.2323 32.491 25.1163 33.89 27.1443 35.2793L27.6025 35.5931V40.0339C27.6025 45.0469 27.5412 44.8362 29.0002 44.8362C30.4591 44.8362 30.3978 45.0469 30.3978 40.0339V35.5931L30.8561 35.2793C31.9223 34.5489 33.0159 33.4038 33.3772 32.64C34.1381 31.0315 33.763 28.6501 32.5729 27.5322L32.1449 27.13V28.8103C32.1449 31.0476 32.1634 31.0345 28.9806 31.0345C25.8714 31.0345 25.878 31.0392 25.8144 28.7726L25.7681 27.1222L25.2812 27.7018ZM2.82279 59.845C2.87922 61.6674 2.90525 61.7808 3.41608 62.4219C3.70994 62.7909 4.29659 63.2696 4.71973 63.4859L5.48913 63.879H29.0002H52.5112L53.2806 63.4859C53.7037 63.2696 54.2904 62.7909 54.5843 62.4219C55.0951 61.7808 55.1211 61.6674 55.1776 59.845L55.2368 57.939H29.0002H2.76356L2.82279 59.845ZM25.5061 68.858V72.0901H29.0002H32.4943V68.858V65.626H29.0002H25.5061V68.858ZM20.4396 76.545V79.253H29.0002H37.5607V76.545V73.8371H29.0002H20.4396V76.545Z" fill="#E23333"></path><path fill-rule="evenodd" clip-rule="evenodd" d="M11.5935 1.17557C10.4682 1.50174 9.38085 2.41719 8.82564 3.50595L8.29768 4.54142L8.24736 14.7077L8.19705 24.8737L6.50032 24.9588C4.41959 25.0629 3.47531 25.4607 2.35755 26.7039C0.982274 28.2336 1.04744 27.3061 1.04744 45.3608C1.04744 63.7263 0.935454 62.3945 2.621 64.0818C4.20068 65.6632 3.91172 65.626 14.6188 65.626H23.759V68.858V72.0901H21.515C19.5628 72.0901 19.2333 72.1317 18.9817 72.4096C18.731 72.6865 18.6926 73.2415 18.6926 76.5754C18.6926 80.0798 18.7211 80.4474 19.0121 80.7109C19.3013 80.9726 20.2508 81 29.0306 81C38.2048 81 38.7452 80.9827 39.0186 80.6805C39.2693 80.4036 39.3077 79.8485 39.3077 76.5146C39.3077 73.0102 39.2793 72.6427 38.9882 72.3792C38.7263 72.1421 38.2698 72.0901 36.455 72.0901H34.2413V68.858V65.626H43.3815C54.101 65.626 53.7967 65.6655 55.3945 64.0676C57.0541 62.4081 56.9529 63.6284 56.9529 45.2729C56.9529 27.3161 57.0175 28.2331 55.6428 26.7039C54.525 25.4607 53.5808 25.0629 51.5 24.9588L49.8033 24.8737L49.753 14.7077L49.7027 4.54142L49.1747 3.50595C48.6017 2.38243 47.5267 1.49894 46.3268 1.16578C45.5091 0.938493 12.3788 0.947927 11.5935 1.17557ZM11.6171 3.08089C11.2327 3.27255 10.7217 3.71839 10.4815 4.07199C10.065 4.68503 10.0447 4.83283 10.0447 7.2614V9.80789H29.0002H47.9556V7.27468C47.9556 4.93905 47.9245 4.69132 47.5559 4.09872C47.3213 3.72136 46.8476 3.30661 46.409 3.09417C45.6689 2.73603 45.4949 2.73236 28.9886 2.73253C12.6843 2.73271 12.3005 2.7404 11.6171 3.08089ZM22.8252 5.32305C22.4622 5.72417 22.4571 6.1225 22.8106 6.4761C23.0338 6.6992 23.5389 6.75056 25.5145 6.75056C27.913 6.75056 27.9476 6.74497 28.2301 6.3138C28.4951 5.90919 28.4951 5.8449 28.2301 5.44028C27.9476 5.00928 27.9121 5.00352 25.5291 5.00352C23.4115 5.00352 23.0787 5.04283 22.8252 5.32305ZM14.4997 5.70234C14.0776 6.12442 14.0568 6.45741 14.4295 6.83006C14.6644 7.06503 15.1122 7.10155 17.2644 7.06084L19.8201 7.01262L19.9954 6.51384C20.1461 6.08477 20.1135 5.96894 19.7616 5.68399C19.4075 5.3973 19.0509 5.35293 17.1009 5.35293C15.082 5.35293 14.8129 5.38909 14.4997 5.70234ZM9.96104 23.7093C9.96314 36.8653 9.93466 36.4717 10.9612 37.5433C11.4347 38.0375 12.3054 38.3695 13.1335 38.371L13.6019 38.3721L13.5011 36.4607C13.1235 29.3032 17.3579 23.1057 24.2325 20.754C26.6044 19.9425 30.3314 19.8206 32.8437 20.4722C37.1225 21.5819 40.882 24.6193 42.8902 28.5886C44.1388 31.0569 44.652 33.5668 44.4993 36.4607L44.3985 38.3721L44.8668 38.371C46.2856 38.3682 47.5023 37.4603 47.858 36.1392C47.9719 35.7159 48.0379 31.1412 48.0391 23.5582L48.0414 11.6423H29.0002H9.95912L9.96104 23.7093ZM26.1175 22.0222C23.3254 22.6644 21.3654 23.779 19.2111 25.9497C17.8098 27.3617 17.415 27.8909 16.7211 29.2875C15.6858 31.3708 15.3732 32.5605 15.25 34.886C15.0294 39.0503 16.5413 42.7741 19.6224 45.655C24.9364 50.624 33.064 50.624 38.378 45.655C41.4618 42.7715 42.9748 39.0421 42.747 34.886C42.6214 32.595 42.3072 31.403 41.2719 29.2875C40.5812 27.8758 40.2104 27.3765 38.7918 25.948C36.9248 24.0675 35.4286 23.1244 33.1057 22.3639C31.3782 21.7984 27.8429 21.6254 26.1175 22.0222ZM25.3723 25.2698C23.5192 26.5072 22.5074 28.4152 22.5006 30.6851C22.4943 32.7927 23.4751 34.8001 25.0711 35.9463L25.8555 36.5096L25.8558 40.5419C25.856 45.0787 25.9441 45.4812 27.0784 46.1405C27.9429 46.6428 30.0575 46.6428 30.9219 46.1405C32.0566 45.4812 32.1443 45.0792 32.1445 40.536L32.1449 36.4979L32.8489 36.0099C33.6395 35.462 34.629 34.1989 35.042 33.2104C36.3128 30.169 34.9957 26.4595 32.0994 24.923C31.3414 24.5208 31.2928 24.5161 30.8541 24.8035C30.4043 25.0984 30.3978 25.1319 30.3978 27.195V29.2875H29.0002H27.6025V27.201C27.6025 25.2427 27.5786 25.0977 27.2142 24.8424C26.6659 24.4583 26.5456 24.4862 25.3723 25.2698ZM4.89216 26.9452C4.09848 27.2894 3.5389 27.822 3.12695 28.6253C2.80864 29.2459 2.79448 29.8465 2.79448 42.7327V56.192H29.0002H55.2059L55.202 42.7834C55.1983 30.1208 55.1802 29.3358 54.8757 28.676C54.2223 27.2602 53.1125 26.6669 51.1181 26.6669H49.8143L49.7573 31.6023C49.6939 37.1048 49.6766 37.1972 48.453 38.5555C47.6064 39.4954 46.617 39.9378 45.0728 40.0672C43.8647 40.1686 43.86 40.171 43.6567 40.7991C43.0202 42.765 41.5162 45.0477 39.716 46.7799C33.7142 52.5551 24.2861 52.5551 18.2843 46.7799C16.4842 45.0477 14.9801 42.765 14.3437 40.7991C14.1403 40.171 14.1356 40.1686 12.9275 40.0672C11.3833 39.9378 10.394 39.4954 9.54734 38.5555C8.32371 37.1972 8.30641 37.1048 8.243 31.6023L8.18604 26.6669L6.84414 26.6737C6.04539 26.6777 5.25555 26.7876 4.89216 26.9452ZM25.2812 27.7018C24.5431 28.5804 24.2473 29.4288 24.2412 30.6851C24.2323 32.491 25.1163 33.89 27.1443 35.2793L27.6025 35.5931V40.0339C27.6025 45.0469 27.5412 44.8362 29.0002 44.8362C30.4591 44.8362 30.3978 45.0469 30.3978 40.0339V35.5931L30.8561 35.2793C31.9223 34.5489 33.0159 33.4038 33.3772 32.64C34.1381 31.0315 33.763 28.6501 32.5729 27.5322L32.1449 27.13V28.8103C32.1449 31.0476 32.1634 31.0345 28.9806 31.0345C25.8714 31.0345 25.878 31.0392 25.8144 28.7726L25.7681 27.1222L25.2812 27.7018ZM2.82279 59.845C2.87922 61.6674 2.90525 61.7808 3.41608 62.4219C3.70994 62.7909 4.29659 63.2696 4.71973 63.4859L5.48913 63.879H29.0002H52.5112L53.2806 63.4859C53.7037 63.2696 54.2904 62.7909 54.5843 62.4219C55.0951 61.7808 55.1211 61.6674 55.1776 59.845L55.2368 57.939H29.0002H2.76356L2.82279 59.845ZM25.5061 68.858V72.0901H29.0002H32.4943V68.858V65.626H29.0002H25.5061V68.858ZM20.4396 76.545V79.253H29.0002H37.5607V76.545V73.8371H29.0002H20.4396V76.545Z" stroke="#E23333" stroke-width="0.8" mask="url(#path-1-outside-1_4005_7835)"></path></svg>