<?xml version="1.0" encoding="UTF-8"?> <svg xmlns="http://www.w3.org/2000/svg" width="61" height="61" viewBox="0 0 61 61" fill="none"><mask id="mask0_1_52" style="mask-type:luminance" maskUnits="userSpaceOnUse" x="0" y="0" width="61" height="61"><path d="M60.8 0.800003H0.799988V60.8H60.8V0.800003Z" fill="white"></path></mask><g mask="url(#mask0_1_52)"><path d="M30.7 21.2C25.3 21.2 20.9 25.6 20.9 31C20.9 36.4 25.3 40.8 30.7 40.8C36.1 40.8 40.5 36.4 40.5 31C40.5 25.6 36.1 21.2 30.7 21.2ZM30.7 39.1C26.2 39.1 22.5 35.4 22.5 30.9C22.5 26.4 26.2 22.7 30.7 22.7C35.2 22.7 38.9 26.4 38.9 30.9C38.8 35.5 35.2 39.1 30.7 39.1ZM56.3 26.9C54.4 26.9 52.7 28.3 52.3 30.1H47.5C47.5 29.4 47.4 28.6 47.2 27.9C47.1 27.6 46.9 27.3 46.6 27.3L43.7 26.5C43.5 25.9 43.3 25.4 43 24.9L44.5 22.3C44.7 22 44.6 21.7 44.5 21.4C44.1 20.8 43.6 20.2 43.1 19.6L46.5 16.2C48.4 17.4 50.9 16.9 52.1 15.1C53.3 13.2 52.8 10.7 51 9.50001C50.3 9.10001 49.6 8.80001 48.8 8.80001C46.6 8.80001 44.7 10.6 44.7 12.9C44.7 13.7 44.9 14.5 45.4 15.1L42 18.5C41.4 18 40.9 17.5 40.2 17.1C39.9 16.9 39.6 16.9 39.3 17.1L36.7 18.6C36.2 18.3 35.6 18.1 35.1 17.9L34.3 15C34.2 14.7 34 14.5 33.7 14.4C33 14.3 32.2 14.2 31.5 14.1V9.30001C33.7 8.90001 35.1 6.70001 34.7 4.50001C34.3 2.30001 32.1 0.900009 29.9 1.30001C27.7 1.70001 26.3 3.9 26.7 6.1C27 7.7 28.3 8.90001 29.9 9.30001V14.1C29.2 14.1 28.4 14.2 27.7 14.4C27.4 14.5 27.1 14.7 27.1 15L26.3 17.9C25.7 18.1 25.2 18.3 24.7 18.6L22.1 17.1C21.8 16.9 21.5 17 21.2 17.1C20.6 17.5 20 18 19.4 18.5L16 15.1C17.2 13.2 16.7 10.7 14.9 9.50001C14.2 9.10001 13.5 8.80001 12.7 8.80001C10.5 8.80001 8.6 10.6 8.7 12.9C8.7 15.1 10.5 17 12.8 16.9C13.6 16.9 14.4 16.7 15 16.2L18.4 19.6C17.9 20.2 17.4 20.7 17 21.4C16.8 21.7 16.8 22 17 22.3L18.5 24.9C18.2 25.4 18 26 17.8 26.5L14.9 27.3C14.6 27.4 14.4 27.6 14.3 27.9C14.2 28.6 14.1 29.4 14 30.1H9.2C8.8 27.9 6.59999 26.5 4.39999 26.9C2.19999 27.3 0.800004 29.5 1.2 31.7C1.6 33.9 3.79999 35.3 5.99999 34.9C7.59999 34.6 8.8 33.3 9.2 31.7H14C14 32.4 14.1 33.2 14.3 33.9C14.4 34.2 14.6 34.5 14.9 34.5L17.8 35.3C18 35.9 18.2 36.4 18.5 36.9L17 39.5C16.8 39.8 16.9 40.1 17 40.4C17.4 41 17.9 41.6 18.4 42.2L15 45.6C14.3 45.2 13.6 44.9 12.8 44.9C10.6 44.9 8.79998 46.8 8.79998 49C8.79998 51.2 10.6 53 12.8 53C15 53 16.9 51.2 16.9 48.9C16.9 48.1 16.7 47.3 16.2 46.7L19.6 43.3C20.2 43.8 20.7 44.3 21.4 44.7C21.7 44.9 22 44.9 22.3 44.7L24.9 43.2C25.4 43.5 26 43.7 26.5 43.9L27.3 46.8C27.4 47.1 27.6 47.3 27.9 47.4C28.6 47.5 29.4 47.6 30.1 47.7V52.5C27.9 52.9 26.5 55.1 26.9 57.3C27.3 59.5 29.5 60.9 31.7 60.5C33.9 60.1 35.3 57.9 34.9 55.7C34.6 54.1 33.3 52.9 31.7 52.5V47.7C32.4 47.7 33.2 47.6 33.9 47.4C34.2 47.3 34.5 47.1 34.5 46.8L35.3 43.9C35.9 43.7 36.4 43.5 36.9 43.2L39.5 44.7C39.8 44.9 40.1 44.8 40.4 44.7C41 44.3 41.6 43.8 42.2 43.3L45.6 46.7C44.4 48.6 44.9 51.1 46.8 52.3C47.5 52.7 48.2 53 49 53C50.1 53 51.1 52.6 51.9 51.8C53.5 50.2 53.5 47.6 51.9 46.1C51.1 45.3 50.1 44.9 49 44.9C48.2 44.9 47.4 45.1 46.8 45.6L43.4 42.2C43.9 41.6 44.4 41.1 44.8 40.4C45 40.1 45 39.8 44.8 39.5L43.3 36.9C43.6 36.4 43.8 35.8 44 35.3L46.9 34.5C47.2 34.4 47.4 34.2 47.5 33.9C47.6 33.2 47.7 32.4 47.8 31.7H52.6C53 33.9 55.2 35.3 57.4 34.9C59.6 34.5 61 32.3 60.6 30.1C59.9 28.3 58.2 26.9 56.3 26.9ZM47.1 11.2C47.6 10.7 48.2 10.5 48.8 10.5C50.1 10.5 51.2 11.6 51.2 12.9C51.2 14.2 50.1 15.3 48.8 15.3C47.5 15.3 46.4 14.2 46.4 12.9C46.3 12.2 46.6 11.6 47.1 11.2ZM28.3 5.40001C28.3 4.10001 29.4 3.00001 30.7 3.00001C32 3.00001 33.1 4.10001 33.1 5.40001C33.1 6.70001 32 7.80001 30.7 7.80001C29.3 7.80001 28.3 6.70001 28.3 5.40001ZM10.9 14.6C9.99999 13.6 9.99999 12.1 10.9 11.2C11.4 10.7 12 10.5 12.6 10.5C13.9 10.5 15 11.6 15 12.9C15 14.2 13.9 15.3 12.6 15.3C12 15.3 11.3 15.1 10.9 14.6ZM5.1 33.4C3.8 33.4 2.7 32.3 2.7 31C2.7 29.7 3.8 28.6 5.1 28.6C6.4 28.6 7.49999 29.7 7.49999 31C7.49999 32.3 6.4 33.4 5.1 33.4ZM14.3 50.8C13.8 51.3 13.2 51.5 12.6 51.5C12 51.5 11.3 51.2 10.9 50.8C9.89999 49.8 9.99999 48.3 10.9 47.4C11.4 46.9 12 46.7 12.6 46.7C13.9 46.7 15 47.8 15 49.1C15 49.7 14.8 50.3 14.3 50.8ZM33.1 56.6C33.1 57.9 32 59 30.7 59C29.4 59 28.3 57.9 28.3 56.6C28.3 55.3 29.4 54.2 30.7 54.2C32 54.1 33.1 55.2 33.1 56.6ZM48.8 46.6C50.1 46.6 51.2 47.7 51.2 49.1C51.2 50.4 50.1 51.5 48.8 51.5C47.5 51.5 46.4 50.4 46.4 49C46.4 47.7 47.5 46.6 48.8 46.6ZM45.7 33.2L42.9 34C42.6 34.1 42.4 34.3 42.3 34.5C42.1 35.3 41.8 36 41.4 36.7C41.3 36.9 41.3 37.2 41.4 37.5L42.8 40C41.9 41.2 40.8 42.3 39.6 43.2L37.1 41.8C36.9 41.7 36.6 41.7 36.3 41.8C35.6 42.2 34.9 42.5 34.1 42.7C33.8 42.8 33.6 43 33.6 43.3L32.8 46.1C31.3 46.3 29.8 46.3 28.3 46.1L27.5 43.3C27.4 43 27.2 42.8 27 42.7C26.2 42.5 25.5 42.2 24.8 41.8C24.6 41.7 24.3 41.7 24 41.8L21.5 43.2C20.3 42.3 19.2 41.2 18.3 40L19.7 37.5C19.8 37.3 19.8 37 19.7 36.7C19.3 36 19 35.3 18.8 34.5C18.7 34.2 18.5 34 18.2 34L15.4 33.2C15.2 31.7 15.2 30.2 15.4 28.7L18.2 27.9C18.5 27.8 18.7 27.6 18.8 27.4C19 26.6 19.3 25.9 19.7 25.2C19.8 25 19.8 24.7 19.7 24.4L18.3 21.9C19.2 20.7 20.3 19.6 21.5 18.7L24 20.1C24.2 20.2 24.5 20.2 24.8 20.1C25.5 19.7 26.2 19.4 27 19.2C27.3 19.1 27.5 18.9 27.5 18.6L28.3 15.8C29.8 15.6 31.3 15.6 32.8 15.8L33.6 18.6C33.7 18.9 33.9 19.1 34.1 19.2C34.9 19.4 35.6 19.7 36.3 20.1C36.5 20.2 36.8 20.2 37.1 20.1L39.6 18.7C40.8 19.6 41.9 20.7 42.8 21.9L41.4 24.4C41.3 24.6 41.3 24.9 41.4 25.2C41.8 25.9 42.1 26.6 42.3 27.4C42.4 27.7 42.6 27.9 42.9 27.9L45.7 28.7C46 30.2 46 31.7 45.7 33.2ZM56.3 33.4C55 33.4 53.9 32.3 53.9 31C53.9 29.7 55 28.6 56.3 28.6C57.6 28.6 58.7 29.7 58.7 31C58.7 32.3 57.6 33.4 56.3 33.4ZM30.7 26.1C28 26.1 25.9 28.3 25.9 30.9C25.9 33.6 28.1 35.7 30.7 35.7C33.3 35.7 35.5 33.5 35.5 30.9C35.5 28.3 33.4 26.1 30.7 26.1ZM30.7 34.2C28.9 34.2 27.5 32.8 27.5 31C27.5 29.2 28.9 27.8 30.7 27.8C32.5 27.8 33.9 29.2 33.9 31C33.9 32.7 32.5 34.2 30.7 34.2Z" fill="#1B54F8"></path></g></svg> 